<?xml version="1.0" encoding="UTF-8" standalone="no"?><svg xmlns="http://www.w3.org/2000/svg" xmlns:xlink="http://www.w3.org/1999/xlink" contentScriptType="application/ecmascript" contentStyleType="text/css" height="237px" preserveAspectRatio="none" style="width:1132px;height:237px;" version="1.1" viewBox="0 0 1132 237" width="1132px" zoomAndPan="magnify">
    <defs>
        <filter height="300%" id="fiilw5sn1do63" width="300%" x="-1" y="-1">
            <feGaussianBlur result="blurOut" stdDeviation="2.0" />
            <feColorMatrix in="blurOut" result="blurOut2" type="matrix" values="0 0 0 0 0 0 0 0 0 0 0 0 0 0 0 0 0 0 .4 0" />
            <feOffset dx="4.0" dy="4.0" in="blurOut2" result="blurOut3" />
            <feBlend in="SourceGraphic" in2="blurOut3" mode="normal" />
        </filter>
    </defs>
    <g>
        <!--class Platform-->
        <rect fill="#FEFECE" filter="url(#fiilw5sn1do63)" height="53.8359" id="Platform" style="stroke: #A80036; stroke-width: 1.5;" width="112" x="6" y="125" />
        <ellipse cx="36.3" cy="141" fill="#ADD1B2" rx="11" ry="11" style="stroke: #A80036; stroke-width: 1.0;" />
        <path d="M39.0656,136.875 Q39.2219,136.6563 39.4094,136.5469 Q39.5969,136.4375 39.8156,136.4375 Q40.1906,136.4375 40.425,136.6953 Q40.6594,136.9531 40.6594,137.5625 L40.6594,139.0156 Q40.6594,139.625 40.425,139.8906 Q40.1906,140.1563 39.8156,140.1563 Q39.4719,140.1563 39.2688,139.9531 Q39.0656,139.7656 38.9563,139.25 Q38.9094,138.8906 38.7219,138.7031 Q38.3938,138.3281 37.7844,138.1094 Q37.175,137.8906 36.55,137.8906 Q35.7844,137.8906 35.1516,138.2188 Q34.5188,138.5469 34.0266,139.2969 Q33.5344,140.0469 33.5344,141.0781 L33.5344,142.1719 Q33.5344,143.4063 34.425,144.2266 Q35.3156,145.0469 36.9094,145.0469 Q37.8469,145.0469 38.5031,144.7969 Q38.8938,144.6406 39.3156,144.2031 Q39.5813,143.9375 39.7297,143.8594 Q39.8781,143.7813 40.0813,143.7813 Q40.4094,143.7813 40.6672,144.0391 Q40.925,144.2969 40.925,144.6406 Q40.925,144.9844 40.5813,145.3906 Q40.0813,145.9688 39.2844,146.2969 Q38.2063,146.75 36.9094,146.75 Q35.3938,146.75 34.1906,146.125 Q33.2063,145.625 32.5188,144.5547 Q31.8313,143.4844 31.8313,142.2031 L31.8313,141.0469 Q31.8313,139.7188 32.4484,138.5703 Q33.0656,137.4219 34.1594,136.8047 Q35.2531,136.1875 36.4875,136.1875 Q37.2219,136.1875 37.8703,136.3516 Q38.5188,136.5156 39.0656,136.875 Z " /><text fill="#000000" font-family="sans-serif" font-size="12" lengthAdjust="spacingAndGlyphs" textLength="46" x="53.7" y="145.9102">Platform</text>
        <line style="stroke: #A80036; stroke-width: 1.5;" x1="7" x2="117" y1="157" y2="157" />
        <rect fill="none" height="6" style="stroke: #C82930; stroke-width: 1.0;" width="6" x="14" y="166.418" /><text fill="#000000" font-family="sans-serif" font-size="11" lengthAdjust="spacingAndGlyphs" textLength="86" x="26" y="172.4189">String designation</text>
        <!--class Scooter-->
        <rect fill="#FEFECE" filter="url(#fiilw5sn1do63)" height="123.0156" id="Scooter" style="stroke: #A80036; stroke-width: 1.5;" width="125" x="797" y="72.5" />
        <ellipse cx="834.95" cy="88.5" fill="#ADD1B2" rx="11" ry="11" style="stroke: #A80036; stroke-width: 1.0;" />
        <path d="M837.7156,84.375 Q837.8719,84.1563 838.0594,84.0469 Q838.2469,83.9375 838.4656,83.9375 Q838.8406,83.9375 839.075,84.1953 Q839.3094,84.4531 839.3094,85.0625 L839.3094,86.5156 Q839.3094,87.125 839.075,87.3906 Q838.8406,87.6563 838.4656,87.6563 Q838.1219,87.6563 837.9188,87.4531 Q837.7156,87.2656 837.6063,86.75 Q837.5594,86.3906 837.3719,86.2031 Q837.0438,85.8281 836.4344,85.6094 Q835.825,85.3906 835.2,85.3906 Q834.4344,85.3906 833.8016,85.7188 Q833.1688,86.0469 832.6766,86.7969 Q832.1844,87.5469 832.1844,88.5781 L832.1844,89.6719 Q832.1844,90.9063 833.075,91.7266 Q833.9656,92.5469 835.5594,92.5469 Q836.4969,92.5469 837.1531,92.2969 Q837.5438,92.1406 837.9656,91.7031 Q838.2313,91.4375 838.3797,91.3594 Q838.5281,91.2813 838.7313,91.2813 Q839.0594,91.2813 839.3172,91.5391 Q839.575,91.7969 839.575,92.1406 Q839.575,92.4844 839.2313,92.8906 Q838.7313,93.4688 837.9344,93.7969 Q836.8563,94.25 835.5594,94.25 Q834.0438,94.25 832.8406,93.625 Q831.8563,93.125 831.1688,92.0547 Q830.4813,90.9844 830.4813,89.7031 L830.4813,88.5469 Q830.4813,87.2188 831.0984,86.0703 Q831.7156,84.9219 832.8094,84.3047 Q833.9031,83.6875 835.1375,83.6875 Q835.8719,83.6875 836.5203,83.8516 Q837.1688,84.0156 837.7156,84.375 Z " /><text fill="#000000" font-family="sans-serif" font-size="12" lengthAdjust="spacingAndGlyphs" textLength="42" x="854.05" y="93.4102">Scooter</text>
        <line style="stroke: #A80036; stroke-width: 1.5;" x1="798" x2="921" y1="104.5" y2="104.5" />
        <rect fill="none" height="6" style="stroke: #C82930; stroke-width: 1.0;" width="6" x="805" y="113.918" /><text fill="#000000" font-family="sans-serif" font-size="11" lengthAdjust="spacingAndGlyphs" textLength="39" x="817" y="119.9189">String id</text>
        <rect fill="none" height="6" style="stroke: #C82930; stroke-width: 1.0;" width="6" x="805" y="127.7539" /><text fill="#000000" font-family="sans-serif" font-size="11" lengthAdjust="spacingAndGlyphs" textLength="77" x="817" y="133.7549">Double capacity</text>
        <rect fill="none" height="6" style="stroke: #C82930; stroke-width: 1.0;" width="6" x="805" y="141.5898" /><text fill="#000000" font-family="sans-serif" font-size="11" lengthAdjust="spacingAndGlyphs" textLength="68" x="817" y="147.5908">Double power</text>
        <rect fill="none" height="6" style="stroke: #C82930; stroke-width: 1.0;" width="6" x="805" y="155.4258" /><text fill="#000000" font-family="sans-serif" font-size="11" lengthAdjust="spacingAndGlyphs" textLength="70" x="817" y="161.4268">Integer battery</text>
        <rect fill="none" height="6" style="stroke: #C82930; stroke-width: 1.0;" width="6" x="805" y="169.2617" /><text fill="#000000" font-family="sans-serif" font-size="11" lengthAdjust="spacingAndGlyphs" textLength="99" x="817" y="175.2627">Boolean isCharching</text>
        <rect fill="none" height="6" style="stroke: #C82930; stroke-width: 1.0;" width="6" x="805" y="183.0977" /><text fill="#000000" font-family="sans-serif" font-size="11" lengthAdjust="spacingAndGlyphs" textLength="83" x="817" y="189.0986">Boolean isParked</text>
        <!--class Courier-->
        <rect fill="#FEFECE" filter="url(#fiilw5sn1do63)" height="123.0156" id="Courier" style="stroke: #A80036; stroke-width: 1.5;" width="167" x="275" y="90.5" />
        <ellipse cx="333.75" cy="106.5" fill="#ADD1B2" rx="11" ry="11" style="stroke: #A80036; stroke-width: 1.0;" />
        <path d="M336.5156,102.375 Q336.6719,102.1563 336.8594,102.0469 Q337.0469,101.9375 337.2656,101.9375 Q337.6406,101.9375 337.875,102.1953 Q338.1094,102.4531 338.1094,103.0625 L338.1094,104.5156 Q338.1094,105.125 337.875,105.3906 Q337.6406,105.6563 337.2656,105.6563 Q336.9219,105.6563 336.7188,105.4531 Q336.5156,105.2656 336.4063,104.75 Q336.3594,104.3906 336.1719,104.2031 Q335.8438,103.8281 335.2344,103.6094 Q334.625,103.3906 334,103.3906 Q333.2344,103.3906 332.6016,103.7188 Q331.9688,104.0469 331.4766,104.7969 Q330.9844,105.5469 330.9844,106.5781 L330.9844,107.6719 Q330.9844,108.9063 331.875,109.7266 Q332.7656,110.5469 334.3594,110.5469 Q335.2969,110.5469 335.9531,110.2969 Q336.3438,110.1406 336.7656,109.7031 Q337.0313,109.4375 337.1797,109.3594 Q337.3281,109.2813 337.5313,109.2813 Q337.8594,109.2813 338.1172,109.5391 Q338.375,109.7969 338.375,110.1406 Q338.375,110.4844 338.0313,110.8906 Q337.5313,111.4688 336.7344,111.7969 Q335.6563,112.25 334.3594,112.25 Q332.8438,112.25 331.6406,111.625 Q330.6563,111.125 329.9688,110.0547 Q329.2813,108.9844 329.2813,107.7031 L329.2813,106.5469 Q329.2813,105.2188 329.8984,104.0703 Q330.5156,102.9219 331.6094,102.3047 Q332.7031,101.6875 333.9375,101.6875 Q334.6719,101.6875 335.3203,101.8516 Q335.9688,102.0156 336.5156,102.375 Z " /><text fill="#000000" font-family="sans-serif" font-size="12" lengthAdjust="spacingAndGlyphs" textLength="41" x="354.25" y="111.4102">Courier</text>
        <line style="stroke: #A80036; stroke-width: 1.5;" x1="276" x2="441" y1="122.5" y2="122.5" />
        <rect fill="none" height="6" style="stroke: #C82930; stroke-width: 1.0;" width="6" x="283" y="131.918" /><text fill="#000000" font-family="sans-serif" font-size="11" lengthAdjust="spacingAndGlyphs" textLength="57" x="295" y="137.9189">String name</text>
        <rect fill="none" height="6" style="stroke: #C82930; stroke-width: 1.0;" width="6" x="283" y="145.7539" /><text fill="#000000" font-family="sans-serif" font-size="11" lengthAdjust="spacingAndGlyphs" textLength="55" x="295" y="151.7549">String email</text>
        <rect fill="none" height="6" style="stroke: #C82930; stroke-width: 1.0;" width="6" x="283" y="159.5898" /><text fill="#000000" font-family="sans-serif" font-size="11" lengthAdjust="spacingAndGlyphs" textLength="103" x="295" y="165.5908">Integer phoneNumber</text>
        <rect fill="none" height="6" style="stroke: #C82930; stroke-width: 1.0;" width="6" x="283" y="173.4258" /><text fill="#000000" font-family="sans-serif" font-size="11" lengthAdjust="spacingAndGlyphs" textLength="141" x="295" y="179.4268">Integer socialSecurityNumber</text>
        <rect fill="none" height="6" style="stroke: #C82930; stroke-width: 1.0;" width="6" x="283" y="187.2617" /><text fill="#000000" font-family="sans-serif" font-size="11" lengthAdjust="spacingAndGlyphs" textLength="48" x="295" y="193.2627">Integer nif</text>
        <rect fill="none" height="6" style="stroke: #C82930; stroke-width: 1.0;" width="6" x="283" y="201.0977" /><text fill="#000000" font-family="sans-serif" font-size="11" lengthAdjust="spacingAndGlyphs" textLength="61" x="295" y="207.0986">String status</text>
        <!--class User-->
        <rect fill="#FEFECE" filter="url(#fiilw5sn1do63)" height="81.5078" id="User" style="stroke: #A80036; stroke-width: 1.5;" width="107" x="568" y="8" />
        <ellipse cx="604.6" cy="24" fill="#ADD1B2" rx="11" ry="11" style="stroke: #A80036; stroke-width: 1.0;" />
        <path d="M607.3656,19.875 Q607.5219,19.6563 607.7094,19.5469 Q607.8969,19.4375 608.1156,19.4375 Q608.4906,19.4375 608.725,19.6953 Q608.9594,19.9531 608.9594,20.5625 L608.9594,22.0156 Q608.9594,22.625 608.725,22.8906 Q608.4906,23.1563 608.1156,23.1563 Q607.7719,23.1563 607.5688,22.9531 Q607.3656,22.7656 607.2563,22.25 Q607.2094,21.8906 607.0219,21.7031 Q606.6938,21.3281 606.0844,21.1094 Q605.475,20.8906 604.85,20.8906 Q604.0844,20.8906 603.4516,21.2188 Q602.8188,21.5469 602.3266,22.2969 Q601.8344,23.0469 601.8344,24.0781 L601.8344,25.1719 Q601.8344,26.4063 602.725,27.2266 Q603.6156,28.0469 605.2094,28.0469 Q606.1469,28.0469 606.8031,27.7969 Q607.1938,27.6406 607.6156,27.2031 Q607.8813,26.9375 608.0297,26.8594 Q608.1781,26.7813 608.3813,26.7813 Q608.7094,26.7813 608.9672,27.0391 Q609.225,27.2969 609.225,27.6406 Q609.225,27.9844 608.8813,28.3906 Q608.3813,28.9688 607.5844,29.2969 Q606.5063,29.75 605.2094,29.75 Q603.6938,29.75 602.4906,29.125 Q601.5063,28.625 600.8188,27.5547 Q600.1313,26.4844 600.1313,25.2031 L600.1313,24.0469 Q600.1313,22.7188 600.7484,21.5703 Q601.3656,20.4219 602.4594,19.8047 Q603.5531,19.1875 604.7875,19.1875 Q605.5219,19.1875 606.1703,19.3516 Q606.8188,19.5156 607.3656,19.875 Z " /><text fill="#000000" font-family="sans-serif" font-size="12" lengthAdjust="spacingAndGlyphs" textLength="27" x="623.4" y="28.9102">User</text>
        <line style="stroke: #A80036; stroke-width: 1.5;" x1="569" x2="674" y1="40" y2="40" />
        <rect fill="none" height="6" style="stroke: #C82930; stroke-width: 1.0;" width="6" x="576" y="49.418" /><text fill="#000000" font-family="sans-serif" font-size="11" lengthAdjust="spacingAndGlyphs" textLength="57" x="588" y="55.4189">String name</text>
        <rect fill="none" height="6" style="stroke: #C82930; stroke-width: 1.0;" width="6" x="576" y="63.2539" /><text fill="#000000" font-family="sans-serif" font-size="11" lengthAdjust="spacingAndGlyphs" textLength="55" x="588" y="69.2549">String email</text>
        <rect fill="none" height="6" style="stroke: #C82930; stroke-width: 1.0;" width="6" x="576" y="77.0898" /><text fill="#000000" font-family="sans-serif" font-size="11" lengthAdjust="spacingAndGlyphs" textLength="81" x="588" y="83.0908">String password</text>
        <!--class Delivery-->
        <rect fill="#FEFECE" filter="url(#fiilw5sn1do63)" height="53.8359" id="Delivery" style="stroke: #A80036; stroke-width: 1.5;" width="109" x="567" y="125" />
        <ellipse cx="597.3" cy="141" fill="#ADD1B2" rx="11" ry="11" style="stroke: #A80036; stroke-width: 1.0;" />
        <path d="M600.0656,136.875 Q600.2219,136.6563 600.4094,136.5469 Q600.5969,136.4375 600.8156,136.4375 Q601.1906,136.4375 601.425,136.6953 Q601.6594,136.9531 601.6594,137.5625 L601.6594,139.0156 Q601.6594,139.625 601.425,139.8906 Q601.1906,140.1563 600.8156,140.1563 Q600.4719,140.1563 600.2688,139.9531 Q600.0656,139.7656 599.9563,139.25 Q599.9094,138.8906 599.7219,138.7031 Q599.3938,138.3281 598.7844,138.1094 Q598.175,137.8906 597.55,137.8906 Q596.7844,137.8906 596.1516,138.2188 Q595.5188,138.5469 595.0266,139.2969 Q594.5344,140.0469 594.5344,141.0781 L594.5344,142.1719 Q594.5344,143.4063 595.425,144.2266 Q596.3156,145.0469 597.9094,145.0469 Q598.8469,145.0469 599.5031,144.7969 Q599.8938,144.6406 600.3156,144.2031 Q600.5813,143.9375 600.7297,143.8594 Q600.8781,143.7813 601.0813,143.7813 Q601.4094,143.7813 601.6672,144.0391 Q601.925,144.2969 601.925,144.6406 Q601.925,144.9844 601.5813,145.3906 Q601.0813,145.9688 600.2844,146.2969 Q599.2063,146.75 597.9094,146.75 Q596.3938,146.75 595.1906,146.125 Q594.2063,145.625 593.5188,144.5547 Q592.8313,143.4844 592.8313,142.2031 L592.8313,141.0469 Q592.8313,139.7188 593.4484,138.5703 Q594.0656,137.4219 595.1594,136.8047 Q596.2531,136.1875 597.4875,136.1875 Q598.2219,136.1875 598.8703,136.3516 Q599.5188,136.5156 600.0656,136.875 Z " /><text fill="#000000" font-family="sans-serif" font-size="12" lengthAdjust="spacingAndGlyphs" textLength="43" x="614.7" y="145.9102">Delivery</text>
        <line style="stroke: #A80036; stroke-width: 1.5;" x1="568" x2="675" y1="157" y2="157" />
        <rect fill="none" height="6" style="stroke: #C82930; stroke-width: 1.0;" width="6" x="575" y="166.418" /><text fill="#000000" font-family="sans-serif" font-size="11" lengthAdjust="spacingAndGlyphs" textLength="83" x="587" y="172.4189">Integer idDelivery</text>
        <!--class Spot-->
        <rect fill="#FEFECE" filter="url(#fiilw5sn1do63)" height="40" id="Spot" style="stroke: #A80036; stroke-width: 1.5;" width="57" x="1064" y="186" />
        <ellipse cx="1079" cy="202" fill="#ADD1B2" rx="11" ry="11" style="stroke: #A80036; stroke-width: 1.0;" />
        <path d="M1081.7656,197.875 Q1081.9219,197.6563 1082.1094,197.5469 Q1082.2969,197.4375 1082.5156,197.4375 Q1082.8906,197.4375 1083.125,197.6953 Q1083.3594,197.9531 1083.3594,198.5625 L1083.3594,200.0156 Q1083.3594,200.625 1083.125,200.8906 Q1082.8906,201.1563 1082.5156,201.1563 Q1082.1719,201.1563 1081.9688,200.9531 Q1081.7656,200.7656 1081.6563,200.25 Q1081.6094,199.8906 1081.4219,199.7031 Q1081.0938,199.3281 1080.4844,199.1094 Q1079.875,198.8906 1079.25,198.8906 Q1078.4844,198.8906 1077.8516,199.2188 Q1077.2188,199.5469 1076.7266,200.2969 Q1076.2344,201.0469 1076.2344,202.0781 L1076.2344,203.1719 Q1076.2344,204.4063 1077.125,205.2266 Q1078.0156,206.0469 1079.6094,206.0469 Q1080.5469,206.0469 1081.2031,205.7969 Q1081.5938,205.6406 1082.0156,205.2031 Q1082.2813,204.9375 1082.4297,204.8594 Q1082.5781,204.7813 1082.7813,204.7813 Q1083.1094,204.7813 1083.3672,205.0391 Q1083.625,205.2969 1083.625,205.6406 Q1083.625,205.9844 1083.2813,206.3906 Q1082.7813,206.9688 1081.9844,207.2969 Q1080.9063,207.75 1079.6094,207.75 Q1078.0938,207.75 1076.8906,207.125 Q1075.9063,206.625 1075.2188,205.5547 Q1074.5313,204.4844 1074.5313,203.2031 L1074.5313,202.0469 Q1074.5313,200.7188 1075.1484,199.5703 Q1075.7656,198.4219 1076.8594,197.8047 Q1077.9531,197.1875 1079.1875,197.1875 Q1079.9219,197.1875 1080.5703,197.3516 Q1081.2188,197.5156 1081.7656,197.875 Z " /><text fill="#000000" font-family="sans-serif" font-size="12" lengthAdjust="spacingAndGlyphs" textLength="25" x="1093" y="206.9102">Spot</text>
        <line style="stroke: #A80036; stroke-width: 1.5;" x1="1065" x2="1120" y1="218" y2="218" />
        <!--link Courier to User-->
        <path d="M442.082,119.41 C483.301,103.144 531.927,83.954 567.997,69.72 " fill="none" id="Courier-User" style="stroke: #A80036; stroke-width: 1.0;" /><text fill="#000000" font-family="sans-serif" font-size="13" lengthAdjust="spacingAndGlyphs" textLength="36" x="480" y="79.4951">act as</text>
        <polygon fill="#000000" points="519,72.6758,525,75.6758,519,78.6758,519,72.6758" style="stroke: #000000; stroke-width: 1.0;" /><text fill="#000000" font-family="sans-serif" font-size="13" lengthAdjust="spacingAndGlyphs" textLength="22" x="449.9146" y="130.8827">0..1</text><text fill="#000000" font-family="sans-serif" font-size="13" lengthAdjust="spacingAndGlyphs" textLength="7" x="552.981" y="87.3132">1</text>
        <!--link Courier to Delivery-->
        <path d="M442.082,152 C482.853,152 530.871,152 566.816,152 " fill="none" id="Courier-Delivery" style="stroke: #A80036; stroke-width: 1.0;" /><text fill="#000000" font-family="sans-serif" font-size="13" lengthAdjust="spacingAndGlyphs" textLength="50" x="473" y="148.4951">performs</text>
        <polygon fill="#000000" points="526,141.6758,532,144.6758,526,147.6758,526,141.6758" style="stroke: #000000; stroke-width: 1.0;" /><text fill="#000000" font-family="sans-serif" font-size="13" lengthAdjust="spacingAndGlyphs" textLength="7" x="450.1099" y="166.2481">1</text><text fill="#000000" font-family="sans-serif" font-size="13" lengthAdjust="spacingAndGlyphs" textLength="5" x="554.1319" y="166.6048">*</text>
        <!--link Platform to Courier-->
        <path d="M118.048,152 C162.166,152 224.761,152 274.888,152 " fill="none" id="Platform-Courier" style="stroke: #A80036; stroke-width: 1.0;" /><text fill="#000000" font-family="sans-serif" font-size="13" lengthAdjust="spacingAndGlyphs" textLength="82" x="149" y="148.4951">has registered</text>
        <polygon fill="#000000" points="234,141.6758,240,144.6758,234,147.6758,234,141.6758" style="stroke: #000000; stroke-width: 1.0;" /><text fill="#000000" font-family="sans-serif" font-size="13" lengthAdjust="spacingAndGlyphs" textLength="7" x="126.0498" y="166.6048">1</text><text fill="#000000" font-family="sans-serif" font-size="13" lengthAdjust="spacingAndGlyphs" textLength="5" x="261.9496" y="166.2481">*</text>
        <!--link Delivery to Scooter-->
        <path d="M676.052,147.9155 C711.955,145.1772 759.34,141.563 796.821,138.7043 " fill="none" id="Delivery-Scooter" style="stroke: #A80036; stroke-width: 1.0;" /><text fill="#000000" font-family="sans-serif" font-size="13" lengthAdjust="spacingAndGlyphs" textLength="21" x="719.5" y="137.4951">has</text>
        <polygon fill="#000000" points="743.5,130.6758,749.5,133.6758,743.5,136.6758,743.5,130.6758" style="stroke: #000000; stroke-width: 1.0;" /><text fill="#000000" font-family="sans-serif" font-size="13" lengthAdjust="spacingAndGlyphs" textLength="7" x="683.8527" y="161.9714">1</text><text fill="#000000" font-family="sans-serif" font-size="13" lengthAdjust="spacingAndGlyphs" textLength="7" x="782.1691" y="153.6878">1</text>
        <!--link Courier to Spot-->
        <path d="M442.302,172.822 C480.1,181.5854 525.58,191.0994 567,197 C723.359,219.2748 764.096,216.2592 922,213 C972.058,211.9668 1030.38,209.219 1063.91,207.4894 " fill="none" id="Courier-Spot" style="stroke: #A80036; stroke-width: 1.0;" /><text fill="#000000" font-family="sans-serif" font-size="13" lengthAdjust="spacingAndGlyphs" textLength="46" x="707" y="208.4951">parks in</text>
        <polygon fill="#000000" points="756,201.6758,762,204.6758,756,207.6758,756,201.6758" style="stroke: #000000; stroke-width: 1.0;" /><text fill="#000000" font-family="sans-serif" font-size="13" lengthAdjust="spacingAndGlyphs" textLength="7" x="450.0773" y="188.899">1</text><text fill="#000000" font-family="sans-serif" font-size="13" lengthAdjust="spacingAndGlyphs" textLength="7" x="1049.0881" y="223.3404">1</text>
        <!--link Scooter to Spot-->
        <path d="M922.1,153.2001 C968.211,167.5721 1029.1,186.5491 1063.91,197.3996 " fill="none" id="Scooter-Spot" style="stroke: #A80036; stroke-width: 1.0;" /><text fill="#000000" font-family="sans-serif" font-size="13" lengthAdjust="spacingAndGlyphs" textLength="67" x="953" y="159.4951">is parked in</text>
        <polygon fill="#000000" points="1023,152.6758,1029,155.6758,1023,158.6758,1023,152.6758" style="stroke: #000000; stroke-width: 1.0;" /><text fill="#000000" font-family="sans-serif" font-size="13" lengthAdjust="spacingAndGlyphs" textLength="7" x="930.1559" y="170.0307">1</text><text fill="#000000" font-family="sans-serif" font-size="13" lengthAdjust="spacingAndGlyphs" textLength="7" x="1049.0881" y="210.7912">1</text>
        <!--
@startuml

hide methods
left to right direction

class Platform {
  -String designation
}

class Scooter {
  -String id
  -Double capacity
  -Double power
  -Integer battery
  -Boolean isCharching
  -Boolean isParked
}

class Courier {
  -String name
  -String email
  -Integer phoneNumber
  -Integer socialSecurityNumber
  -Integer nif
  -String status
}

class User {
  -String name
  -String email
  -String password
}

class Delivery{
  -Integer idDelivery
}

class Spot{

}

Courier "0..1" - - "1" User : act as >
Courier "1" - - "*" Delivery :performs >

Platform "1" - - "*" Courier : has registered >

Delivery "1" - - "1"Scooter : has >

Courier "1" - - "1" Spot : parks in >

Scooter "1" - - "1" Spot : is parked in >

@enduml

PlantUML version 1.2018.14(Fri Dec 21 16:33:16 GMT 2018)
(GPL source distribution)
Java Runtime: Java(TM) SE Runtime Environment
JVM: Java HotSpot(TM) 64-Bit Server VM
Java Version: 1.8.0_251-b08
Operating System: Windows 10
OS Version: 10.0
Default Encoding: Cp1252
Language: pt
Country: PT
-->
    </g>
</svg>