<?xml version="1.0" encoding="UTF-8" standalone="no"?><svg xmlns="http://www.w3.org/2000/svg" xmlns:xlink="http://www.w3.org/1999/xlink" contentScriptType="application/ecmascript" contentStyleType="text/css" height="1025px" preserveAspectRatio="none" style="width:1318px;height:1025px;" version="1.1" viewBox="0 0 1318 1025" width="1318px" zoomAndPan="magnify">
    <defs>
        <filter height="300%" id="f1pkyv0l1m8ywz" width="300%" x="-1" y="-1">
            <feGaussianBlur result="blurOut" stdDeviation="2.0" />
            <feColorMatrix in="blurOut" result="blurOut2" type="matrix" values="0 0 0 0 0 0 0 0 0 0 0 0 0 0 0 0 0 0 .4 0" />
            <feOffset dx="4.0" dy="4.0" in="blurOut2" result="blurOut3" />
            <feBlend in="SourceGraphic" in2="blurOut3" mode="normal" />
        </filter>
    </defs>
    <g>
        <!--class FinishDeliveryUI-->
        <rect fill="#FEFECE" filter="url(#f1pkyv0l1m8ywz)" height="48" id="FinishDeliveryUI" style="stroke: #A80036; stroke-width: 1.5;" width="121" x="651.5" y="8" />
        <ellipse cx="666.5" cy="24" fill="#ADD1B2" rx="11" ry="11" style="stroke: #A80036; stroke-width: 1.0;" />
        <path d="M669.2656,19.875 Q669.4219,19.6563 669.6094,19.5469 Q669.7969,19.4375 670.0156,19.4375 Q670.3906,19.4375 670.625,19.6953 Q670.8594,19.9531 670.8594,20.5625 L670.8594,22.0156 Q670.8594,22.625 670.625,22.8906 Q670.3906,23.1563 670.0156,23.1563 Q669.6719,23.1563 669.4688,22.9531 Q669.2656,22.7656 669.1563,22.25 Q669.1094,21.8906 668.9219,21.7031 Q668.5938,21.3281 667.9844,21.1094 Q667.375,20.8906 666.75,20.8906 Q665.9844,20.8906 665.3516,21.2188 Q664.7188,21.5469 664.2266,22.2969 Q663.7344,23.0469 663.7344,24.0781 L663.7344,25.1719 Q663.7344,26.4063 664.625,27.2266 Q665.5156,28.0469 667.1094,28.0469 Q668.0469,28.0469 668.7031,27.7969 Q669.0938,27.6406 669.5156,27.2031 Q669.7813,26.9375 669.9297,26.8594 Q670.0781,26.7813 670.2813,26.7813 Q670.6094,26.7813 670.8672,27.0391 Q671.125,27.2969 671.125,27.6406 Q671.125,27.9844 670.7813,28.3906 Q670.2813,28.9688 669.4844,29.2969 Q668.4063,29.75 667.1094,29.75 Q665.5938,29.75 664.3906,29.125 Q663.4063,28.625 662.7188,27.5547 Q662.0313,26.4844 662.0313,25.2031 L662.0313,24.0469 Q662.0313,22.7188 662.6484,21.5703 Q663.2656,20.4219 664.3594,19.8047 Q665.4531,19.1875 666.6875,19.1875 Q667.4219,19.1875 668.0703,19.3516 Q668.7188,19.5156 669.2656,19.875 Z " /><text fill="#000000" font-family="sans-serif" font-size="12" lengthAdjust="spacingAndGlyphs" textLength="89" x="680.5" y="28.9102">FinishDeliveryUI</text>
        <line style="stroke: #A80036; stroke-width: 1.5;" x1="652.5" x2="771.5" y1="40" y2="40" />
        <line style="stroke: #A80036; stroke-width: 1.5;" x1="652.5" x2="771.5" y1="48" y2="48" />
        <!--class DeliveryController-->
        <rect fill="#FEFECE" filter="url(#f1pkyv0l1m8ywz)" height="241.7031" id="DeliveryController" style="stroke: #A80036; stroke-width: 1.5;" width="198" x="613" y="117" />
        <ellipse cx="659.25" cy="133" fill="#ADD1B2" rx="11" ry="11" style="stroke: #A80036; stroke-width: 1.0;" />
        <path d="M662.0156,128.875 Q662.1719,128.6563 662.3594,128.5469 Q662.5469,128.4375 662.7656,128.4375 Q663.1406,128.4375 663.375,128.6953 Q663.6094,128.9531 663.6094,129.5625 L663.6094,131.0156 Q663.6094,131.625 663.375,131.8906 Q663.1406,132.1563 662.7656,132.1563 Q662.4219,132.1563 662.2188,131.9531 Q662.0156,131.7656 661.9063,131.25 Q661.8594,130.8906 661.6719,130.7031 Q661.3438,130.3281 660.7344,130.1094 Q660.125,129.8906 659.5,129.8906 Q658.7344,129.8906 658.1016,130.2188 Q657.4688,130.5469 656.9766,131.2969 Q656.4844,132.0469 656.4844,133.0781 L656.4844,134.1719 Q656.4844,135.4063 657.375,136.2266 Q658.2656,137.0469 659.8594,137.0469 Q660.7969,137.0469 661.4531,136.7969 Q661.8438,136.6406 662.2656,136.2031 Q662.5313,135.9375 662.6797,135.8594 Q662.8281,135.7813 663.0313,135.7813 Q663.3594,135.7813 663.6172,136.0391 Q663.875,136.2969 663.875,136.6406 Q663.875,136.9844 663.5313,137.3906 Q663.0313,137.9688 662.2344,138.2969 Q661.1563,138.75 659.8594,138.75 Q658.3438,138.75 657.1406,138.125 Q656.1563,137.625 655.4688,136.5547 Q654.7813,135.4844 654.7813,134.2031 L654.7813,133.0469 Q654.7813,131.7188 655.3984,130.5703 Q656.0156,129.4219 657.1094,128.8047 Q658.2031,128.1875 659.4375,128.1875 Q660.1719,128.1875 660.8203,128.3516 Q661.4688,128.5156 662.0156,128.875 Z " /><text fill="#000000" font-family="sans-serif" font-size="12" lengthAdjust="spacingAndGlyphs" textLength="97" x="679.75" y="137.9102">DeliveryController</text>
        <line style="stroke: #A80036; stroke-width: 1.5;" x1="614" x2="810" y1="149" y2="149" />
        <line style="stroke: #A80036; stroke-width: 1.5;" x1="614" x2="810" y1="157" y2="157" /><text fill="#000000" font-family="sans-serif" font-size="11" lengthAdjust="spacingAndGlyphs" textLength="147" x="619" y="172.4189">+getCourierByEmail(userEmail)</text><text fill="#000000" font-family="sans-serif" font-size="11" lengthAdjust="spacingAndGlyphs" textLength="161" x="619" y="186.2549">+getDeliveryByScooter("started")</text><text fill="#000000" font-family="sans-serif" font-size="11" lengthAdjust="spacingAndGlyphs" textLength="101" x="619" y="200.0908">+getEmailPharmacy()</text><text fill="#000000" font-family="sans-serif" font-size="11" lengthAdjust="spacingAndGlyphs" textLength="125" x="619" y="213.9268">+getAvailableSpots(email)</text><text fill="#000000" font-family="sans-serif" font-size="11" lengthAdjust="spacingAndGlyphs" textLength="67" x="619" y="227.7627">+getScooter()</text><text fill="#000000" font-family="sans-serif" font-size="11" lengthAdjust="spacingAndGlyphs" textLength="113" x="619" y="241.5986">+getSpot(idSpot,idPark)</text><text fill="#000000" font-family="sans-serif" font-size="11" lengthAdjust="spacingAndGlyphs" textLength="102" x="619" y="255.4346">+getBatteryScooter()</text><text fill="#000000" font-family="sans-serif" font-size="11" lengthAdjust="spacingAndGlyphs" textLength="122" x="619" y="269.2705">+changeScooter(battery)</text><text fill="#000000" font-family="sans-serif" font-size="11" lengthAdjust="spacingAndGlyphs" textLength="85" x="619" y="283.1064">+updateScooter()</text><text fill="#000000" font-family="sans-serif" font-size="11" lengthAdjust="spacingAndGlyphs" textLength="135" x="619" y="296.9424">+changeCourier("available")</text><text fill="#000000" font-family="sans-serif" font-size="11" lengthAdjust="spacingAndGlyphs" textLength="82" x="619" y="310.7783">+updateCourier()</text><text fill="#000000" font-family="sans-serif" font-size="11" lengthAdjust="spacingAndGlyphs" textLength="128" x="619" y="324.6143">+updateSpot(true,scooter)</text><text fill="#000000" font-family="sans-serif" font-size="11" lengthAdjust="spacingAndGlyphs" textLength="186" x="619" y="338.4502">+changeDeliveryByScooter("finished")</text><text fill="#000000" font-family="sans-serif" font-size="11" lengthAdjust="spacingAndGlyphs" textLength="137" x="619" y="352.2861">+updateDeliveryByScooter()</text>
        <!--class CourierDB-->
        <rect fill="#FEFECE" filter="url(#f1pkyv0l1m8ywz)" height="89.5078" id="CourierDB" style="stroke: #A80036; stroke-width: 1.5;" width="261" x="581.5" y="420" />
        <ellipse cx="678.75" cy="436" fill="#ADD1B2" rx="11" ry="11" style="stroke: #A80036; stroke-width: 1.0;" />
        <path d="M681.5156,431.875 Q681.6719,431.6563 681.8594,431.5469 Q682.0469,431.4375 682.2656,431.4375 Q682.6406,431.4375 682.875,431.6953 Q683.1094,431.9531 683.1094,432.5625 L683.1094,434.0156 Q683.1094,434.625 682.875,434.8906 Q682.6406,435.1563 682.2656,435.1563 Q681.9219,435.1563 681.7188,434.9531 Q681.5156,434.7656 681.4063,434.25 Q681.3594,433.8906 681.1719,433.7031 Q680.8438,433.3281 680.2344,433.1094 Q679.625,432.8906 679,432.8906 Q678.2344,432.8906 677.6016,433.2188 Q676.9688,433.5469 676.4766,434.2969 Q675.9844,435.0469 675.9844,436.0781 L675.9844,437.1719 Q675.9844,438.4063 676.875,439.2266 Q677.7656,440.0469 679.3594,440.0469 Q680.2969,440.0469 680.9531,439.7969 Q681.3438,439.6406 681.7656,439.2031 Q682.0313,438.9375 682.1797,438.8594 Q682.3281,438.7813 682.5313,438.7813 Q682.8594,438.7813 683.1172,439.0391 Q683.375,439.2969 683.375,439.6406 Q683.375,439.9844 683.0313,440.3906 Q682.5313,440.9688 681.7344,441.2969 Q680.6563,441.75 679.3594,441.75 Q677.8438,441.75 676.6406,441.125 Q675.6563,440.625 674.9688,439.5547 Q674.2813,438.4844 674.2813,437.2031 L674.2813,436.0469 Q674.2813,434.7188 674.8984,433.5703 Q675.5156,432.4219 676.6094,431.8047 Q677.7031,431.1875 678.9375,431.1875 Q679.6719,431.1875 680.3203,431.3516 Q680.9688,431.5156 681.5156,431.875 Z " /><text fill="#000000" font-family="sans-serif" font-size="12" lengthAdjust="spacingAndGlyphs" textLength="58" x="699.25" y="440.9102">CourierDB</text>
        <line style="stroke: #A80036; stroke-width: 1.5;" x1="582.5" x2="841.5" y1="452" y2="452" />
        <line style="stroke: #A80036; stroke-width: 1.5;" x1="582.5" x2="841.5" y1="460" y2="460" /><text fill="#000000" font-family="sans-serif" font-size="11" lengthAdjust="spacingAndGlyphs" textLength="110" x="587.5" y="475.4189">+getCourier(userEmail)</text><text fill="#000000" font-family="sans-serif" font-size="11" lengthAdjust="spacingAndGlyphs" textLength="249" x="587.5" y="489.2549">+email=getEmailPharmacyByEmailCourier(userEmail)</text><text fill="#000000" font-family="sans-serif" font-size="11" lengthAdjust="spacingAndGlyphs" textLength="82" x="587.5" y="503.0908">+updateCourier()</text>
        <!--class DeliveryByScooterDB-->
        <rect fill="#FEFECE" filter="url(#f1pkyv0l1m8ywz)" height="89.5078" id="DeliveryByScooterDB" style="stroke: #A80036; stroke-width: 1.5;" width="294" x="6" y="540" />
        <ellipse cx="91.25" cy="556" fill="#ADD1B2" rx="11" ry="11" style="stroke: #A80036; stroke-width: 1.0;" />
        <path d="M94.0156,551.875 Q94.1719,551.6563 94.3594,551.5469 Q94.5469,551.4375 94.7656,551.4375 Q95.1406,551.4375 95.375,551.6953 Q95.6094,551.9531 95.6094,552.5625 L95.6094,554.0156 Q95.6094,554.625 95.375,554.8906 Q95.1406,555.1563 94.7656,555.1563 Q94.4219,555.1563 94.2188,554.9531 Q94.0156,554.7656 93.9063,554.25 Q93.8594,553.8906 93.6719,553.7031 Q93.3438,553.3281 92.7344,553.1094 Q92.125,552.8906 91.5,552.8906 Q90.7344,552.8906 90.1016,553.2188 Q89.4688,553.5469 88.9766,554.2969 Q88.4844,555.0469 88.4844,556.0781 L88.4844,557.1719 Q88.4844,558.4063 89.375,559.2266 Q90.2656,560.0469 91.8594,560.0469 Q92.7969,560.0469 93.4531,559.7969 Q93.8438,559.6406 94.2656,559.2031 Q94.5313,558.9375 94.6797,558.8594 Q94.8281,558.7813 95.0313,558.7813 Q95.3594,558.7813 95.6172,559.0391 Q95.875,559.2969 95.875,559.6406 Q95.875,559.9844 95.5313,560.3906 Q95.0313,560.9688 94.2344,561.2969 Q93.1563,561.75 91.8594,561.75 Q90.3438,561.75 89.1406,561.125 Q88.1563,560.625 87.4688,559.5547 Q86.7813,558.4844 86.7813,557.2031 L86.7813,556.0469 Q86.7813,554.7188 87.3984,553.5703 Q88.0156,552.4219 89.1094,551.8047 Q90.2031,551.1875 91.4375,551.1875 Q92.1719,551.1875 92.8203,551.3516 Q93.4688,551.5156 94.0156,551.875 Z " /><text fill="#000000" font-family="sans-serif" font-size="12" lengthAdjust="spacingAndGlyphs" textLength="115" x="111.75" y="560.9102">DeliveryByScooterDB</text>
        <line style="stroke: #A80036; stroke-width: 1.5;" x1="7" x2="299" y1="572" y2="572" />
        <line style="stroke: #A80036; stroke-width: 1.5;" x1="7" x2="299" y1="580" y2="580" /><text fill="#000000" font-family="sans-serif" font-size="11" lengthAdjust="spacingAndGlyphs" textLength="282" x="12" y="595.4189">+getDeliveryByScooterByEmailCourier("started",userEmail)</text><text fill="#000000" font-family="sans-serif" font-size="11" lengthAdjust="spacingAndGlyphs" textLength="214" x="12" y="609.2549">+getScooterByemailCourierOnDel(userEmail)</text><text fill="#000000" font-family="sans-serif" font-size="11" lengthAdjust="spacingAndGlyphs" textLength="137" x="12" y="623.0908">+updateDeliveryByScooter()</text>
        <!--class SpotDB-->
        <rect fill="#FEFECE" filter="url(#f1pkyv0l1m8ywz)" height="89.5078" id="SpotDB" style="stroke: #A80036; stroke-width: 1.5;" width="170" x="376" y="420" />
        <ellipse cx="435.75" cy="436" fill="#ADD1B2" rx="11" ry="11" style="stroke: #A80036; stroke-width: 1.0;" />
        <path d="M438.5156,431.875 Q438.6719,431.6563 438.8594,431.5469 Q439.0469,431.4375 439.2656,431.4375 Q439.6406,431.4375 439.875,431.6953 Q440.1094,431.9531 440.1094,432.5625 L440.1094,434.0156 Q440.1094,434.625 439.875,434.8906 Q439.6406,435.1563 439.2656,435.1563 Q438.9219,435.1563 438.7188,434.9531 Q438.5156,434.7656 438.4063,434.25 Q438.3594,433.8906 438.1719,433.7031 Q437.8438,433.3281 437.2344,433.1094 Q436.625,432.8906 436,432.8906 Q435.2344,432.8906 434.6016,433.2188 Q433.9688,433.5469 433.4766,434.2969 Q432.9844,435.0469 432.9844,436.0781 L432.9844,437.1719 Q432.9844,438.4063 433.875,439.2266 Q434.7656,440.0469 436.3594,440.0469 Q437.2969,440.0469 437.9531,439.7969 Q438.3438,439.6406 438.7656,439.2031 Q439.0313,438.9375 439.1797,438.8594 Q439.3281,438.7813 439.5313,438.7813 Q439.8594,438.7813 440.1172,439.0391 Q440.375,439.2969 440.375,439.6406 Q440.375,439.9844 440.0313,440.3906 Q439.5313,440.9688 438.7344,441.2969 Q437.6563,441.75 436.3594,441.75 Q434.8438,441.75 433.6406,441.125 Q432.6563,440.625 431.9688,439.5547 Q431.2813,438.4844 431.2813,437.2031 L431.2813,436.0469 Q431.2813,434.7188 431.8984,433.5703 Q432.5156,432.4219 433.6094,431.8047 Q434.7031,431.1875 435.9375,431.1875 Q436.6719,431.1875 437.3203,431.3516 Q437.9688,431.5156 438.5156,431.875 Z " /><text fill="#000000" font-family="sans-serif" font-size="12" lengthAdjust="spacingAndGlyphs" textLength="42" x="456.25" y="440.9102">SpotDB</text>
        <line style="stroke: #A80036; stroke-width: 1.5;" x1="377" x2="545" y1="452" y2="452" />
        <line style="stroke: #A80036; stroke-width: 1.5;" x1="377" x2="545" y1="460" y2="460" /><text fill="#000000" font-family="sans-serif" font-size="11" lengthAdjust="spacingAndGlyphs" textLength="101" x="382" y="475.4189">+getAvailableSpots()</text><text fill="#000000" font-family="sans-serif" font-size="11" lengthAdjust="spacingAndGlyphs" textLength="113" x="382" y="489.2549">+getSpot(idSpot,idPark)</text><text fill="#000000" font-family="sans-serif" font-size="11" lengthAdjust="spacingAndGlyphs" textLength="158" x="382" y="503.0908">+updateSpot(id,idPark,idScooter)</text>
        <!--class DeliveryByScooter-->
        <rect fill="#FEFECE" filter="url(#f1pkyv0l1m8ywz)" height="117.1797" id="DeliveryByScooter" style="stroke: #A80036; stroke-width: 1.5;" width="149" x="363.5" y="897" />
        <ellipse cx="387.05" cy="913" fill="#ADD1B2" rx="11" ry="11" style="stroke: #A80036; stroke-width: 1.0;" />
        <path d="M389.8156,908.875 Q389.9719,908.6563 390.1594,908.5469 Q390.3469,908.4375 390.5656,908.4375 Q390.9406,908.4375 391.175,908.6953 Q391.4094,908.9531 391.4094,909.5625 L391.4094,911.0156 Q391.4094,911.625 391.175,911.8906 Q390.9406,912.1563 390.5656,912.1563 Q390.2219,912.1563 390.0188,911.9531 Q389.8156,911.7656 389.7063,911.25 Q389.6594,910.8906 389.4719,910.7031 Q389.1438,910.3281 388.5344,910.1094 Q387.925,909.8906 387.3,909.8906 Q386.5344,909.8906 385.9016,910.2188 Q385.2688,910.5469 384.7766,911.2969 Q384.2844,912.0469 384.2844,913.0781 L384.2844,914.1719 Q384.2844,915.4063 385.175,916.2266 Q386.0656,917.0469 387.6594,917.0469 Q388.5969,917.0469 389.2531,916.7969 Q389.6438,916.6406 390.0656,916.2031 Q390.3313,915.9375 390.4797,915.8594 Q390.6281,915.7813 390.8313,915.7813 Q391.1594,915.7813 391.4172,916.0391 Q391.675,916.2969 391.675,916.6406 Q391.675,916.9844 391.3313,917.3906 Q390.8313,917.9688 390.0344,918.2969 Q388.9563,918.75 387.6594,918.75 Q386.1438,918.75 384.9406,918.125 Q383.9563,917.625 383.2688,916.5547 Q382.5813,915.4844 382.5813,914.2031 L382.5813,913.0469 Q382.5813,911.7188 383.1984,910.5703 Q383.8156,909.4219 384.9094,908.8047 Q386.0031,908.1875 387.2375,908.1875 Q387.9719,908.1875 388.6203,908.3516 Q389.2688,908.5156 389.8156,908.875 Z " /><text fill="#000000" font-family="sans-serif" font-size="12" lengthAdjust="spacingAndGlyphs" textLength="98" x="402.95" y="917.9102">DeliveryByScooter</text>
        <line style="stroke: #A80036; stroke-width: 1.5;" x1="364.5" x2="511.5" y1="929" y2="929" /><text fill="#000000" font-family="sans-serif" font-size="11" lengthAdjust="spacingAndGlyphs" textLength="137" x="369.5" y="944.4189">-Integer deliveryByScooterId</text><text fill="#000000" font-family="sans-serif" font-size="11" lengthAdjust="spacingAndGlyphs" textLength="65" x="369.5" y="958.2549">-String status</text>
        <line style="stroke: #A80036; stroke-width: 1.5;" x1="364.5" x2="511.5" y1="964.6719" y2="964.6719" /><text fill="#000000" font-family="sans-serif" font-size="11" lengthAdjust="spacingAndGlyphs" textLength="86" x="369.5" y="980.0908">-super(deliveryId)</text><text fill="#000000" font-family="sans-serif" font-size="11" lengthAdjust="spacingAndGlyphs" textLength="106" x="369.5" y="993.9268">+setStatus("finished")</text><text fill="#000000" font-family="sans-serif" font-size="11" lengthAdjust="spacingAndGlyphs" textLength="47" x="369.5" y="1007.7627">+update()</text>
        <!--class Vehicle-->
        <rect fill="#FEFECE" filter="url(#f1pkyv0l1m8ywz)" height="61.8359" id="Vehicle" style="stroke: #A80036; stroke-width: 1.5;" width="110" x="878" y="434" />
        <ellipse cx="910.1" cy="450" fill="#ADD1B2" rx="11" ry="11" style="stroke: #A80036; stroke-width: 1.0;" />
        <path d="M912.8656,445.875 Q913.0219,445.6563 913.2094,445.5469 Q913.3969,445.4375 913.6156,445.4375 Q913.9906,445.4375 914.225,445.6953 Q914.4594,445.9531 914.4594,446.5625 L914.4594,448.0156 Q914.4594,448.625 914.225,448.8906 Q913.9906,449.1563 913.6156,449.1563 Q913.2719,449.1563 913.0688,448.9531 Q912.8656,448.7656 912.7563,448.25 Q912.7094,447.8906 912.5219,447.7031 Q912.1938,447.3281 911.5844,447.1094 Q910.975,446.8906 910.35,446.8906 Q909.5844,446.8906 908.9516,447.2188 Q908.3188,447.5469 907.8266,448.2969 Q907.3344,449.0469 907.3344,450.0781 L907.3344,451.1719 Q907.3344,452.4063 908.225,453.2266 Q909.1156,454.0469 910.7094,454.0469 Q911.6469,454.0469 912.3031,453.7969 Q912.6938,453.6406 913.1156,453.2031 Q913.3813,452.9375 913.5297,452.8594 Q913.6781,452.7813 913.8813,452.7813 Q914.2094,452.7813 914.4672,453.0391 Q914.725,453.2969 914.725,453.6406 Q914.725,453.9844 914.3813,454.3906 Q913.8813,454.9688 913.0844,455.2969 Q912.0063,455.75 910.7094,455.75 Q909.1938,455.75 907.9906,455.125 Q907.0063,454.625 906.3188,453.5547 Q905.6313,452.4844 905.6313,451.2031 L905.6313,450.0469 Q905.6313,448.7188 906.2484,447.5703 Q906.8656,446.4219 907.9594,445.8047 Q909.0531,445.1875 910.2875,445.1875 Q911.0219,445.1875 911.6703,445.3516 Q912.3188,445.5156 912.8656,445.875 Z " /><text fill="#000000" font-family="sans-serif" font-size="12" lengthAdjust="spacingAndGlyphs" textLength="40" x="927.9" y="454.9102">Vehicle</text>
        <line style="stroke: #A80036; stroke-width: 1.5;" x1="879" x2="987" y1="466" y2="466" />
        <line style="stroke: #A80036; stroke-width: 1.5;" x1="879" x2="987" y1="474" y2="474" /><text fill="#000000" font-family="sans-serif" font-size="11" lengthAdjust="spacingAndGlyphs" textLength="98" x="884" y="489.4189">+setBattery(battery)</text>
        <!--class ScooterDB-->
        <rect fill="#FEFECE" filter="url(#f1pkyv0l1m8ywz)" height="61.8359" id="ScooterDB" style="stroke: #A80036; stroke-width: 1.5;" width="171" x="1023.5" y="434" />
        <ellipse cx="1075.25" cy="450" fill="#ADD1B2" rx="11" ry="11" style="stroke: #A80036; stroke-width: 1.0;" />
        <path d="M1078.0156,445.875 Q1078.1719,445.6563 1078.3594,445.5469 Q1078.5469,445.4375 1078.7656,445.4375 Q1079.1406,445.4375 1079.375,445.6953 Q1079.6094,445.9531 1079.6094,446.5625 L1079.6094,448.0156 Q1079.6094,448.625 1079.375,448.8906 Q1079.1406,449.1563 1078.7656,449.1563 Q1078.4219,449.1563 1078.2188,448.9531 Q1078.0156,448.7656 1077.9063,448.25 Q1077.8594,447.8906 1077.6719,447.7031 Q1077.3438,447.3281 1076.7344,447.1094 Q1076.125,446.8906 1075.5,446.8906 Q1074.7344,446.8906 1074.1016,447.2188 Q1073.4688,447.5469 1072.9766,448.2969 Q1072.4844,449.0469 1072.4844,450.0781 L1072.4844,451.1719 Q1072.4844,452.4063 1073.375,453.2266 Q1074.2656,454.0469 1075.8594,454.0469 Q1076.7969,454.0469 1077.4531,453.7969 Q1077.8438,453.6406 1078.2656,453.2031 Q1078.5313,452.9375 1078.6797,452.8594 Q1078.8281,452.7813 1079.0313,452.7813 Q1079.3594,452.7813 1079.6172,453.0391 Q1079.875,453.2969 1079.875,453.6406 Q1079.875,453.9844 1079.5313,454.3906 Q1079.0313,454.9688 1078.2344,455.2969 Q1077.1563,455.75 1075.8594,455.75 Q1074.3438,455.75 1073.1406,455.125 Q1072.1563,454.625 1071.4688,453.5547 Q1070.7813,452.4844 1070.7813,451.2031 L1070.7813,450.0469 Q1070.7813,448.7188 1071.3984,447.5703 Q1072.0156,446.4219 1073.1094,445.8047 Q1074.2031,445.1875 1075.4375,445.1875 Q1076.1719,445.1875 1076.8203,445.3516 Q1077.4688,445.5156 1078.0156,445.875 Z " /><text fill="#000000" font-family="sans-serif" font-size="12" lengthAdjust="spacingAndGlyphs" textLength="59" x="1095.75" y="454.9102">ScooterDB</text>
        <line style="stroke: #A80036; stroke-width: 1.5;" x1="1024.5" x2="1193.5" y1="466" y2="466" />
        <line style="stroke: #A80036; stroke-width: 1.5;" x1="1024.5" x2="1193.5" y1="474" y2="474" /><text fill="#000000" font-family="sans-serif" font-size="11" lengthAdjust="spacingAndGlyphs" textLength="159" x="1029.5" y="489.4189">+updatScooterBattery(battery,id)</text>
        <!--class Courier-->
        <rect fill="#FEFECE" filter="url(#f1pkyv0l1m8ywz)" height="158.6875" id="Courier" style="stroke: #A80036; stroke-width: 1.5;" width="157" x="359.5" y="660" />
        <ellipse cx="413.25" cy="676" fill="#ADD1B2" rx="11" ry="11" style="stroke: #A80036; stroke-width: 1.0;" />
        <path d="M416.0156,671.875 Q416.1719,671.6563 416.3594,671.5469 Q416.5469,671.4375 416.7656,671.4375 Q417.1406,671.4375 417.375,671.6953 Q417.6094,671.9531 417.6094,672.5625 L417.6094,674.0156 Q417.6094,674.625 417.375,674.8906 Q417.1406,675.1563 416.7656,675.1563 Q416.4219,675.1563 416.2188,674.9531 Q416.0156,674.7656 415.9063,674.25 Q415.8594,673.8906 415.6719,673.7031 Q415.3438,673.3281 414.7344,673.1094 Q414.125,672.8906 413.5,672.8906 Q412.7344,672.8906 412.1016,673.2188 Q411.4688,673.5469 410.9766,674.2969 Q410.4844,675.0469 410.4844,676.0781 L410.4844,677.1719 Q410.4844,678.4063 411.375,679.2266 Q412.2656,680.0469 413.8594,680.0469 Q414.7969,680.0469 415.4531,679.7969 Q415.8438,679.6406 416.2656,679.2031 Q416.5313,678.9375 416.6797,678.8594 Q416.8281,678.7813 417.0313,678.7813 Q417.3594,678.7813 417.6172,679.0391 Q417.875,679.2969 417.875,679.6406 Q417.875,679.9844 417.5313,680.3906 Q417.0313,680.9688 416.2344,681.2969 Q415.1563,681.75 413.8594,681.75 Q412.3438,681.75 411.1406,681.125 Q410.1563,680.625 409.4688,679.5547 Q408.7813,678.4844 408.7813,677.2031 L408.7813,676.0469 Q408.7813,674.7188 409.3984,673.5703 Q410.0156,672.4219 411.1094,671.8047 Q412.2031,671.1875 413.4375,671.1875 Q414.1719,671.1875 414.8203,671.3516 Q415.4688,671.5156 416.0156,671.875 Z " /><text fill="#000000" font-family="sans-serif" font-size="12" lengthAdjust="spacingAndGlyphs" textLength="41" x="433.75" y="680.9102">Courier</text>
        <line style="stroke: #A80036; stroke-width: 1.5;" x1="360.5" x2="515.5" y1="692" y2="692" /><text fill="#000000" font-family="sans-serif" font-size="11" lengthAdjust="spacingAndGlyphs" textLength="61" x="365.5" y="707.4189">-String name</text><text fill="#000000" font-family="sans-serif" font-size="11" lengthAdjust="spacingAndGlyphs" textLength="59" x="365.5" y="721.2549">-String email</text><text fill="#000000" font-family="sans-serif" font-size="11" lengthAdjust="spacingAndGlyphs" textLength="107" x="365.5" y="735.0908">-Integer phoneNumber</text><text fill="#000000" font-family="sans-serif" font-size="11" lengthAdjust="spacingAndGlyphs" textLength="145" x="365.5" y="748.9268">-Integer socialSecurityNumber</text><text fill="#000000" font-family="sans-serif" font-size="11" lengthAdjust="spacingAndGlyphs" textLength="52" x="365.5" y="762.7627">-Integer nif</text><text fill="#000000" font-family="sans-serif" font-size="11" lengthAdjust="spacingAndGlyphs" textLength="65" x="365.5" y="776.5986">-String status</text>
        <line style="stroke: #A80036; stroke-width: 1.5;" x1="360.5" x2="515.5" y1="783.0156" y2="783.0156" /><text fill="#000000" font-family="sans-serif" font-size="11" lengthAdjust="spacingAndGlyphs" textLength="110" x="365.5" y="798.4346">+setStatus("available")</text><text fill="#000000" font-family="sans-serif" font-size="11" lengthAdjust="spacingAndGlyphs" textLength="47" x="365.5" y="812.2705">+update()</text>
        <!--link FinishDeliveryUI to DeliveryController-->
        <path d="M712,56.005 C712,70.475 712,90.41 712,111.782 " fill="none" id="FinishDeliveryUI-DeliveryController" style="stroke: #A80036; stroke-width: 1.0; stroke-dasharray: 7.0,7.0;" />
        <polygon fill="#A80036" points="712,116.947,716,107.947,712,111.947,708,107.947,712,116.947" style="stroke: #A80036; stroke-width: 1.0;" />
        <!--link DeliveryController to CourierDB-->
        <path d="M712,359.075 C712,378.814 712,398.241 712,414.91 " fill="none" id="DeliveryController-CourierDB" style="stroke: #A80036; stroke-width: 1.0; stroke-dasharray: 7.0,7.0;" />
        <polygon fill="#A80036" points="712,419.992,716,410.992,712,414.992,708,410.992,712,419.992" style="stroke: #A80036; stroke-width: 1.0;" />
        <!--link DeliveryController to DeliveryByScooterDB-->
        <path d="M612.765,257.671 C523.396,278.255 391.884,318.24 297,389 C244.651,428.039 202.858,491.396 178.056,535.247 " fill="none" id="DeliveryController-DeliveryByScooterDB" style="stroke: #A80036; stroke-width: 1.0; stroke-dasharray: 7.0,7.0;" />
        <polygon fill="#A80036" points="175.562,539.694,183.4552,533.8035,178.0092,535.3338,176.4789,529.8879,175.562,539.694" style="stroke: #A80036; stroke-width: 1.0;" />
        <!--link DeliveryController to DeliveryByScooter-->
        <path d="M811.279,251.074 C982.5,276.45 1306.36,347.002 1212,510 C1059.07,774.174 683.213,894.983 518.05,936.6423 " fill="none" id="DeliveryController-DeliveryByScooter" style="stroke: #A80036; stroke-width: 1.0; stroke-dasharray: 7.0,7.0;" />
        <polygon fill="#A80036" points="512.745,937.9716,522.447,939.6661,517.5953,936.7573,520.5041,931.9056,512.745,937.9716" style="stroke: #A80036; stroke-width: 1.0;" />
        <!--link DeliveryController to SpotDB-->
        <path d="M612.798,327.926 C579.095,358.138 542.742,390.725 514.063,416.433 " fill="none" id="DeliveryController-SpotDB" style="stroke: #A80036; stroke-width: 1.0; stroke-dasharray: 7.0,7.0;" />
        <polygon fill="#A80036" points="510.248,419.853,519.6196,416.8242,513.9711,416.5156,514.2797,410.8672,510.248,419.853" style="stroke: #A80036; stroke-width: 1.0;" />
        <!--link DeliveryController to ScooterDB-->
        <path d="M811.156,295.197 C886.851,338.097 988.515,395.715 1051.35,431.325 " fill="none" id="DeliveryController-ScooterDB" style="stroke: #A80036; stroke-width: 1.0; stroke-dasharray: 7.0,7.0;" />
        <polygon fill="#A80036" points="1055.8,433.85,1049.9507,425.9263,1051.4526,431.3801,1045.9988,432.882,1055.8,433.85" style="stroke: #A80036; stroke-width: 1.0;" />
        <!--link DeliveryController to Vehicle-->
        <path d="M811.187,339.982 C842.992,372.363 876.06,406.03 899.703,430.101 " fill="none" id="DeliveryController-Vehicle" style="stroke: #A80036; stroke-width: 1.0; stroke-dasharray: 7.0,7.0;" />
        <polygon fill="#A80036" points="903.415,433.88,899.9613,424.6565,899.911,430.3132,894.2544,430.2629,903.415,433.88" style="stroke: #A80036; stroke-width: 1.0;" />
        <!--link DeliveryController to Courier-->
        <path d="M612.963,259.574 C528.799,282.857 413.117,329.914 358,420 C313.817,492.214 347.805,587.812 384.145,655.37 " fill="none" id="DeliveryController-Courier" style="stroke: #A80036; stroke-width: 1.0; stroke-dasharray: 7.0,7.0;" />
        <polygon fill="#A80036" points="386.541,659.779,385.7559,649.9615,384.1525,655.3864,378.7277,653.783,386.541,659.779" style="stroke: #A80036; stroke-width: 1.0;" />
        <!--link Courier to DeliveryByScooter-->
        <path d="M438,819.274 C438,845.016 438,873.106 438,896.98 " fill="none" id="Courier-DeliveryByScooter" style="stroke: #A80036; stroke-width: 1.0;" /><text fill="#000000" font-family="sans-serif" font-size="13" lengthAdjust="spacingAndGlyphs" textLength="44" x="439" y="863.4951">finishes</text>
        <polygon fill="#000000" points="456.5,872.3516,459.5,878.3516,462.5,872.3516,456.5,872.3516" style="stroke: #000000; stroke-width: 1.0;" /><text fill="#000000" font-family="sans-serif" font-size="13" lengthAdjust="spacingAndGlyphs" textLength="7" x="430.7102" y="840.0654">1</text><text fill="#000000" font-family="sans-serif" font-size="13" lengthAdjust="spacingAndGlyphs" textLength="7" x="430.5516" y="885.9633">1</text>
        <!--link CourierDB to Courier-->
        <path d="M667.673,510.085 C626.93,550.605 565.601,611.598 516.564,660.366 " fill="none" id="CourierDB-Courier" style="stroke: #A80036; stroke-width: 1.0;" />
        <polygon fill="#000000" points="640,583.6758,634,586.6758,640,589.6758,640,583.6758" style="stroke: #000000; stroke-width: 1.0;" /><text fill="#000000" font-family="sans-serif" font-size="13" lengthAdjust="spacingAndGlyphs" textLength="46" x="646" y="590.4951">updates</text><text fill="#000000" font-family="sans-serif" font-size="13" lengthAdjust="spacingAndGlyphs" textLength="7" x="653.9473" y="531.1045">1</text><text fill="#000000" font-family="sans-serif" font-size="13" lengthAdjust="spacingAndGlyphs" textLength="5" x="524.5437" y="649.3165">*</text>
        <!--link DeliveryByScooterDB to DeliveryByScooter-->
        <path d="M171.462,630.066 C193.283,679.162 232.792,759.453 281,819 C304.788,848.383 335.474,876.457 363.398,899.354 " fill="none" id="DeliveryByScooterDB-DeliveryByScooter" style="stroke: #A80036; stroke-width: 1.0;" /><text fill="#000000" font-family="sans-serif" font-size="13" lengthAdjust="spacingAndGlyphs" textLength="46" x="282" y="744.9951">updates</text>
        <polygon fill="#000000" points="300.5,753.8516,303.5,759.8516,306.5,753.8516,300.5,753.8516" style="stroke: #000000; stroke-width: 1.0;" /><text fill="#000000" font-family="sans-serif" font-size="13" lengthAdjust="spacingAndGlyphs" textLength="7" x="166.566" y="651.0828">1</text><text fill="#000000" font-family="sans-serif" font-size="13" lengthAdjust="spacingAndGlyphs" textLength="5" x="350.4469" y="890.2429">*</text>
        <!--
@startuml
skinparam classAttributeIconSize 0

class FinishDeliveryUI {

}

class DeliveryController {
  +getCourierByEmail(userEmail)
  +getDeliveryByScooter("started")
  +getEmailPharmacy()
  +getAvailableSpots(email)
  +getScooter()
  +getSpot(idSpot,idPark)
  +getBatteryScooter()
  +changeScooter(battery)
  +updateScooter()
  +changeCourier("available")
  +updateCourier()
  +updateSpot(true,scooter)
  +changeDeliveryByScooter("finished")
  +updateDeliveryByScooter()

}

class CourierDB {
  +getCourier(userEmail)
  +email=getEmailPharmacyByEmailCourier(userEmail)
  +updateCourier()
}

class DeliveryByScooterDB {
  +getDeliveryByScooterByEmailCourier("started",userEmail)
  +getScooterByemailCourierOnDel(userEmail)
  +updateDeliveryByScooter()
}

class SpotDB{
  +getAvailableSpots()
  +getSpot(idSpot,idPark)
  +updateSpot(id,idPark,idScooter)
}

class DeliveryByScooter {
  -super(deliveryId)
  -Integer deliveryByScooterId
  -String status
  +setStatus("finished")
  +update()

}

class Vehicle{
  +setBattery(battery)
}

class ScooterDB {
  +updatScooterBattery(battery,id)
}

class Courier {
  -String name
  -String email
  -Integer phoneNumber
  -Integer socialSecurityNumber
  -Integer nif
  -String status
  +setStatus("available")
  +update()
}


FinishDeliveryUI ..> DeliveryController
DeliveryController ..> CourierDB
DeliveryController ..> DeliveryByScooterDB
DeliveryController ..> DeliveryByScooter
DeliveryController ..>SpotDB
DeliveryController ..> ScooterDB
DeliveryController ..> Vehicle
DeliveryController ..> Courier

Courier "1" - - "1" DeliveryByScooter : finishes >

CourierDB "1" - - "*" Courier : updates >

DeliveryByScooterDB "1" - - "*" DeliveryByScooter : updates >

@enduml

PlantUML version 1.2018.14(Fri Dec 21 16:33:16 GMT 2018)
(GPL source distribution)
Java Runtime: Java(TM) SE Runtime Environment
JVM: Java HotSpot(TM) 64-Bit Server VM
Java Version: 1.8.0_251-b08
Operating System: Windows 10
OS Version: 10.0
Default Encoding: Cp1252
Language: pt
Country: PT
-->
    </g>
</svg>