<?xml version="1.0" encoding="UTF-8" standalone="no"?><svg xmlns="http://www.w3.org/2000/svg" xmlns:xlink="http://www.w3.org/1999/xlink" contentScriptType="application/ecmascript" contentStyleType="text/css" height="659px" preserveAspectRatio="none" style="width:807px;height:659px;" version="1.1" viewBox="0 0 807 659" width="807px" zoomAndPan="magnify"><defs><filter height="300%" id="f16w9g35iqdr80" width="300%" x="-1" y="-1"><feGaussianBlur result="blurOut" stdDeviation="2.0"/><feColorMatrix in="blurOut" result="blurOut2" type="matrix" values="0 0 0 0 0 0 0 0 0 0 0 0 0 0 0 0 0 0 .4 0"/><feOffset dx="4.0" dy="4.0" in="blurOut2" result="blurOut3"/><feBlend in="SourceGraphic" in2="blurOut3" mode="normal"/></filter></defs><g><!--class UpdateDroneUI--><rect fill="#FEFECE" filter="url(#f16w9g35iqdr80)" height="48" id="UpdateDroneUI" style="stroke: #A80036; stroke-width: 1.5;" width="118" x="212" y="8"/><ellipse cx="227" cy="24" fill="#ADD1B2" rx="11" ry="11" style="stroke: #A80036; stroke-width: 1.0;"/><path d="M229.7656,19.875 Q229.9219,19.6563 230.1094,19.5469 Q230.2969,19.4375 230.5156,19.4375 Q230.8906,19.4375 231.125,19.6953 Q231.3594,19.9531 231.3594,20.5625 L231.3594,22.0156 Q231.3594,22.625 231.125,22.8906 Q230.8906,23.1563 230.5156,23.1563 Q230.1719,23.1563 229.9688,22.9531 Q229.7656,22.7656 229.6563,22.25 Q229.6094,21.8906 229.4219,21.7031 Q229.0938,21.3281 228.4844,21.1094 Q227.875,20.8906 227.25,20.8906 Q226.4844,20.8906 225.8516,21.2188 Q225.2188,21.5469 224.7266,22.2969 Q224.2344,23.0469 224.2344,24.0781 L224.2344,25.1719 Q224.2344,26.4063 225.125,27.2266 Q226.0156,28.0469 227.6094,28.0469 Q228.5469,28.0469 229.2031,27.7969 Q229.5938,27.6406 230.0156,27.2031 Q230.2813,26.9375 230.4297,26.8594 Q230.5781,26.7813 230.7813,26.7813 Q231.1094,26.7813 231.3672,27.0391 Q231.625,27.2969 231.625,27.6406 Q231.625,27.9844 231.2813,28.3906 Q230.7813,28.9688 229.9844,29.2969 Q228.9063,29.75 227.6094,29.75 Q226.0938,29.75 224.8906,29.125 Q223.9063,28.625 223.2188,27.5547 Q222.5313,26.4844 222.5313,25.2031 L222.5313,24.0469 Q222.5313,22.7188 223.1484,21.5703 Q223.7656,20.4219 224.8594,19.8047 Q225.9531,19.1875 227.1875,19.1875 Q227.9219,19.1875 228.5703,19.3516 Q229.2188,19.5156 229.7656,19.875 Z "/><text fill="#000000" font-family="sans-serif" font-size="12" lengthAdjust="spacingAndGlyphs" textLength="86" x="241" y="28.9102">UpdateDroneUI</text><line style="stroke: #A80036; stroke-width: 1.5;" x1="213" x2="329" y1="40" y2="40"/><line style="stroke: #A80036; stroke-width: 1.5;" x1="213" x2="329" y1="48" y2="48"/><!--class UpdateDroneController--><rect fill="#FEFECE" filter="url(#f16w9g35iqdr80)" height="131.0156" id="UpdateDroneController" style="stroke: #A80036; stroke-width: 1.5;" width="225" x="158.5" y="117"/><ellipse cx="202.75" cy="133" fill="#ADD1B2" rx="11" ry="11" style="stroke: #A80036; stroke-width: 1.0;"/><path d="M205.5156,128.875 Q205.6719,128.6563 205.8594,128.5469 Q206.0469,128.4375 206.2656,128.4375 Q206.6406,128.4375 206.875,128.6953 Q207.1094,128.9531 207.1094,129.5625 L207.1094,131.0156 Q207.1094,131.625 206.875,131.8906 Q206.6406,132.1563 206.2656,132.1563 Q205.9219,132.1563 205.7188,131.9531 Q205.5156,131.7656 205.4063,131.25 Q205.3594,130.8906 205.1719,130.7031 Q204.8438,130.3281 204.2344,130.1094 Q203.625,129.8906 203,129.8906 Q202.2344,129.8906 201.6016,130.2188 Q200.9688,130.5469 200.4766,131.2969 Q199.9844,132.0469 199.9844,133.0781 L199.9844,134.1719 Q199.9844,135.4063 200.875,136.2266 Q201.7656,137.0469 203.3594,137.0469 Q204.2969,137.0469 204.9531,136.7969 Q205.3438,136.6406 205.7656,136.2031 Q206.0313,135.9375 206.1797,135.8594 Q206.3281,135.7813 206.5313,135.7813 Q206.8594,135.7813 207.1172,136.0391 Q207.375,136.2969 207.375,136.6406 Q207.375,136.9844 207.0313,137.3906 Q206.5313,137.9688 205.7344,138.2969 Q204.6563,138.75 203.3594,138.75 Q201.8438,138.75 200.6406,138.125 Q199.6563,137.625 198.9688,136.5547 Q198.2813,135.4844 198.2813,134.2031 L198.2813,133.0469 Q198.2813,131.7188 198.8984,130.5703 Q199.5156,129.4219 200.6094,128.8047 Q201.7031,128.1875 202.9375,128.1875 Q203.6719,128.1875 204.3203,128.3516 Q204.9688,128.5156 205.5156,128.875 Z "/><text fill="#000000" font-family="sans-serif" font-size="12" lengthAdjust="spacingAndGlyphs" textLength="128" x="223.25" y="137.9102">UpdateDroneController</text><line style="stroke: #A80036; stroke-width: 1.5;" x1="159.5" x2="382.5" y1="149" y2="149"/><line style="stroke: #A80036; stroke-width: 1.5;" x1="159.5" x2="382.5" y1="157" y2="157"/><text fill="#000000" font-family="sans-serif" font-size="11" lengthAdjust="spacingAndGlyphs" textLength="182" x="164.5" y="172.4189">+List&lt;Pharmacy&gt; getPharmaciesList()</text><text fill="#000000" font-family="sans-serif" font-size="11" lengthAdjust="spacingAndGlyphs" textLength="186" x="164.5" y="186.2549">+getPharmacyByEmail(PharmacyEmail)</text><text fill="#000000" font-family="sans-serif" font-size="11" lengthAdjust="spacingAndGlyphs" textLength="142" x="164.5" y="200.0908">+List&lt;Drone&gt; getDronesList()</text><text fill="#000000" font-family="sans-serif" font-size="11" lengthAdjust="spacingAndGlyphs" textLength="132" x="164.5" y="213.9268">+getScoooterByID(droneID)</text><text fill="#000000" font-family="sans-serif" font-size="11" lengthAdjust="spacingAndGlyphs" textLength="213" x="164.5" y="227.7627">+changeDrone(capacity,power,maxBattery)</text><text fill="#000000" font-family="sans-serif" font-size="11" lengthAdjust="spacingAndGlyphs" textLength="76" x="164.5" y="241.5986">+updateDrone()</text><!--class PharmacyDB--><rect fill="#FEFECE" filter="url(#f16w9g35iqdr80)" height="75.6719" id="PharmacyDB" style="stroke: #A80036; stroke-width: 1.5;" width="212" x="6" y="322.5"/><ellipse cx="71.75" cy="338.5" fill="#ADD1B2" rx="11" ry="11" style="stroke: #A80036; stroke-width: 1.0;"/><path d="M74.5156,334.375 Q74.6719,334.1563 74.8594,334.0469 Q75.0469,333.9375 75.2656,333.9375 Q75.6406,333.9375 75.875,334.1953 Q76.1094,334.4531 76.1094,335.0625 L76.1094,336.5156 Q76.1094,337.125 75.875,337.3906 Q75.6406,337.6563 75.2656,337.6563 Q74.9219,337.6563 74.7188,337.4531 Q74.5156,337.2656 74.4063,336.75 Q74.3594,336.3906 74.1719,336.2031 Q73.8438,335.8281 73.2344,335.6094 Q72.625,335.3906 72,335.3906 Q71.2344,335.3906 70.6016,335.7188 Q69.9688,336.0469 69.4766,336.7969 Q68.9844,337.5469 68.9844,338.5781 L68.9844,339.6719 Q68.9844,340.9063 69.875,341.7266 Q70.7656,342.5469 72.3594,342.5469 Q73.2969,342.5469 73.9531,342.2969 Q74.3438,342.1406 74.7656,341.7031 Q75.0313,341.4375 75.1797,341.3594 Q75.3281,341.2813 75.5313,341.2813 Q75.8594,341.2813 76.1172,341.5391 Q76.375,341.7969 76.375,342.1406 Q76.375,342.4844 76.0313,342.8906 Q75.5313,343.4688 74.7344,343.7969 Q73.6563,344.25 72.3594,344.25 Q70.8438,344.25 69.6406,343.625 Q68.6563,343.125 67.9688,342.0547 Q67.2813,340.9844 67.2813,339.7031 L67.2813,338.5469 Q67.2813,337.2188 67.8984,336.0703 Q68.5156,334.9219 69.6094,334.3047 Q70.7031,333.6875 71.9375,333.6875 Q72.6719,333.6875 73.3203,333.8516 Q73.9688,334.0156 74.5156,334.375 Z "/><text fill="#000000" font-family="sans-serif" font-size="12" lengthAdjust="spacingAndGlyphs" textLength="72" x="92.25" y="343.4102">PharmacyDB</text><line style="stroke: #A80036; stroke-width: 1.5;" x1="7" x2="217" y1="354.5" y2="354.5"/><line style="stroke: #A80036; stroke-width: 1.5;" x1="7" x2="217" y1="362.5" y2="362.5"/><text fill="#000000" font-family="sans-serif" font-size="11" lengthAdjust="spacingAndGlyphs" textLength="177" x="12" y="377.9189">+List&lt;Pharmacy&gt; getAllPharmacies()</text><text fill="#000000" font-family="sans-serif" font-size="11" lengthAdjust="spacingAndGlyphs" textLength="200" x="12" y="391.7549">+Pharmacy getPharmacy(PharmacyEmail)</text><!--class DroneDB--><rect fill="#FEFECE" filter="url(#f16w9g35iqdr80)" height="89.5078" id="DroneDB" style="stroke: #A80036; stroke-width: 1.5;" width="195" x="461.5" y="315.5"/><ellipse cx="529.25" cy="331.5" fill="#ADD1B2" rx="11" ry="11" style="stroke: #A80036; stroke-width: 1.0;"/><path d="M532.0156,327.375 Q532.1719,327.1563 532.3594,327.0469 Q532.5469,326.9375 532.7656,326.9375 Q533.1406,326.9375 533.375,327.1953 Q533.6094,327.4531 533.6094,328.0625 L533.6094,329.5156 Q533.6094,330.125 533.375,330.3906 Q533.1406,330.6563 532.7656,330.6563 Q532.4219,330.6563 532.2188,330.4531 Q532.0156,330.2656 531.9063,329.75 Q531.8594,329.3906 531.6719,329.2031 Q531.3438,328.8281 530.7344,328.6094 Q530.125,328.3906 529.5,328.3906 Q528.7344,328.3906 528.1016,328.7188 Q527.4688,329.0469 526.9766,329.7969 Q526.4844,330.5469 526.4844,331.5781 L526.4844,332.6719 Q526.4844,333.9063 527.375,334.7266 Q528.2656,335.5469 529.8594,335.5469 Q530.7969,335.5469 531.4531,335.2969 Q531.8438,335.1406 532.2656,334.7031 Q532.5313,334.4375 532.6797,334.3594 Q532.8281,334.2813 533.0313,334.2813 Q533.3594,334.2813 533.6172,334.5391 Q533.875,334.7969 533.875,335.1406 Q533.875,335.4844 533.5313,335.8906 Q533.0313,336.4688 532.2344,336.7969 Q531.1563,337.25 529.8594,337.25 Q528.3438,337.25 527.1406,336.625 Q526.1563,336.125 525.4688,335.0547 Q524.7813,333.9844 524.7813,332.7031 L524.7813,331.5469 Q524.7813,330.2188 525.3984,329.0703 Q526.0156,327.9219 527.1094,327.3047 Q528.2031,326.6875 529.4375,326.6875 Q530.1719,326.6875 530.8203,326.8516 Q531.4688,327.0156 532.0156,327.375 Z "/><text fill="#000000" font-family="sans-serif" font-size="12" lengthAdjust="spacingAndGlyphs" textLength="51" x="549.75" y="336.4102">DroneDB</text><line style="stroke: #A80036; stroke-width: 1.5;" x1="462.5" x2="655.5" y1="347.5" y2="347.5"/><line style="stroke: #A80036; stroke-width: 1.5;" x1="462.5" x2="655.5" y1="355.5" y2="355.5"/><text fill="#000000" font-family="sans-serif" font-size="11" lengthAdjust="spacingAndGlyphs" textLength="183" x="467.5" y="370.9189">+List&lt;Drone&gt; getAllDrones(pharEmail)</text><text fill="#000000" font-family="sans-serif" font-size="11" lengthAdjust="spacingAndGlyphs" textLength="95" x="467.5" y="384.7549">+getDrone(droneID)</text><text fill="#000000" font-family="sans-serif" font-size="11" lengthAdjust="spacingAndGlyphs" textLength="90" x="467.5" y="398.5908">+update(scoooter)</text><!--class Drone--><rect fill="#FEFECE" filter="url(#f16w9g35iqdr80)" height="158.6875" id="Drone" style="stroke: #A80036; stroke-width: 1.5;" width="151" x="437.5" y="490"/><ellipse cx="491.75" cy="506" fill="#ADD1B2" rx="11" ry="11" style="stroke: #A80036; stroke-width: 1.0;"/><path d="M494.5156,501.875 Q494.6719,501.6563 494.8594,501.5469 Q495.0469,501.4375 495.2656,501.4375 Q495.6406,501.4375 495.875,501.6953 Q496.1094,501.9531 496.1094,502.5625 L496.1094,504.0156 Q496.1094,504.625 495.875,504.8906 Q495.6406,505.1563 495.2656,505.1563 Q494.9219,505.1563 494.7188,504.9531 Q494.5156,504.7656 494.4063,504.25 Q494.3594,503.8906 494.1719,503.7031 Q493.8438,503.3281 493.2344,503.1094 Q492.625,502.8906 492,502.8906 Q491.2344,502.8906 490.6016,503.2188 Q489.9688,503.5469 489.4766,504.2969 Q488.9844,505.0469 488.9844,506.0781 L488.9844,507.1719 Q488.9844,508.4063 489.875,509.2266 Q490.7656,510.0469 492.3594,510.0469 Q493.2969,510.0469 493.9531,509.7969 Q494.3438,509.6406 494.7656,509.2031 Q495.0313,508.9375 495.1797,508.8594 Q495.3281,508.7813 495.5313,508.7813 Q495.8594,508.7813 496.1172,509.0391 Q496.375,509.2969 496.375,509.6406 Q496.375,509.9844 496.0313,510.3906 Q495.5313,510.9688 494.7344,511.2969 Q493.6563,511.75 492.3594,511.75 Q490.8438,511.75 489.6406,511.125 Q488.6563,510.625 487.9688,509.5547 Q487.2813,508.4844 487.2813,507.2031 L487.2813,506.0469 Q487.2813,504.7188 487.8984,503.5703 Q488.5156,502.4219 489.6094,501.8047 Q490.7031,501.1875 491.9375,501.1875 Q492.6719,501.1875 493.3203,501.3516 Q493.9688,501.5156 494.5156,501.875 Z "/><text fill="#000000" font-family="sans-serif" font-size="12" lengthAdjust="spacingAndGlyphs" textLength="34" x="512.25" y="510.9102">Drone</text><line style="stroke: #A80036; stroke-width: 1.5;" x1="438.5" x2="587.5" y1="522" y2="522"/><text fill="#000000" font-family="sans-serif" font-size="11" lengthAdjust="spacingAndGlyphs" textLength="43" x="443.5" y="537.4189">-String id</text><text fill="#000000" font-family="sans-serif" font-size="11" lengthAdjust="spacingAndGlyphs" textLength="81" x="443.5" y="551.2549">-Double capacity</text><text fill="#000000" font-family="sans-serif" font-size="11" lengthAdjust="spacingAndGlyphs" textLength="72" x="443.5" y="565.0908">-Double power</text><text fill="#000000" font-family="sans-serif" font-size="11" lengthAdjust="spacingAndGlyphs" textLength="92" x="443.5" y="578.9268">-Double maxPower</text><text fill="#000000" font-family="sans-serif" font-size="11" lengthAdjust="spacingAndGlyphs" textLength="74" x="443.5" y="592.7627">-Integer battery</text><line style="stroke: #A80036; stroke-width: 1.5;" x1="438.5" x2="587.5" y1="599.1797" y2="599.1797"/><text fill="#000000" font-family="sans-serif" font-size="11" lengthAdjust="spacingAndGlyphs" textLength="112" x="443.5" y="614.5986">+setCapacity(capacity)</text><text fill="#000000" font-family="sans-serif" font-size="11" lengthAdjust="spacingAndGlyphs" textLength="93" x="443.5" y="628.4346">+setPower(power)</text><text fill="#000000" font-family="sans-serif" font-size="11" lengthAdjust="spacingAndGlyphs" textLength="139" x="443.5" y="642.2705">+setMaxBattery(maxBattery)</text><!--class Pharmacy--><rect fill="#FEFECE" filter="url(#f16w9g35iqdr80)" height="103.3438" id="Pharmacy" style="stroke: #A80036; stroke-width: 1.5;" width="102" x="324" y="309"/><ellipse cx="345.75" cy="325" fill="#ADD1B2" rx="11" ry="11" style="stroke: #A80036; stroke-width: 1.0;"/><path d="M348.5156,320.875 Q348.6719,320.6563 348.8594,320.5469 Q349.0469,320.4375 349.2656,320.4375 Q349.6406,320.4375 349.875,320.6953 Q350.1094,320.9531 350.1094,321.5625 L350.1094,323.0156 Q350.1094,323.625 349.875,323.8906 Q349.6406,324.1563 349.2656,324.1563 Q348.9219,324.1563 348.7188,323.9531 Q348.5156,323.7656 348.4063,323.25 Q348.3594,322.8906 348.1719,322.7031 Q347.8438,322.3281 347.2344,322.1094 Q346.625,321.8906 346,321.8906 Q345.2344,321.8906 344.6016,322.2188 Q343.9688,322.5469 343.4766,323.2969 Q342.9844,324.0469 342.9844,325.0781 L342.9844,326.1719 Q342.9844,327.4063 343.875,328.2266 Q344.7656,329.0469 346.3594,329.0469 Q347.2969,329.0469 347.9531,328.7969 Q348.3438,328.6406 348.7656,328.2031 Q349.0313,327.9375 349.1797,327.8594 Q349.3281,327.7813 349.5313,327.7813 Q349.8594,327.7813 350.1172,328.0391 Q350.375,328.2969 350.375,328.6406 Q350.375,328.9844 350.0313,329.3906 Q349.5313,329.9688 348.7344,330.2969 Q347.6563,330.75 346.3594,330.75 Q344.8438,330.75 343.6406,330.125 Q342.6563,329.625 341.9688,328.5547 Q341.2813,327.4844 341.2813,326.2031 L341.2813,325.0469 Q341.2813,323.7188 341.8984,322.5703 Q342.5156,321.4219 343.6094,320.8047 Q344.7031,320.1875 345.9375,320.1875 Q346.6719,320.1875 347.3203,320.3516 Q347.9688,320.5156 348.5156,320.875 Z "/><text fill="#000000" font-family="sans-serif" font-size="12" lengthAdjust="spacingAndGlyphs" textLength="55" x="361.25" y="329.9102">Pharmacy</text><line style="stroke: #A80036; stroke-width: 1.5;" x1="325" x2="425" y1="341" y2="341"/><text fill="#000000" font-family="sans-serif" font-size="11" lengthAdjust="spacingAndGlyphs" textLength="90" x="330" y="356.4189">-String designation</text><text fill="#000000" font-family="sans-serif" font-size="11" lengthAdjust="spacingAndGlyphs" textLength="77" x="330" y="370.2549">-Adress adress</text><text fill="#000000" font-family="sans-serif" font-size="11" lengthAdjust="spacingAndGlyphs" textLength="81" x="330" y="384.0908">-Integer parkMax</text><line style="stroke: #A80036; stroke-width: 1.5;" x1="325" x2="425" y1="390.5078" y2="390.5078"/><text fill="#000000" font-family="sans-serif" font-size="11" lengthAdjust="spacingAndGlyphs" textLength="84" x="330" y="405.9268">+String getEmail()</text><!--class Administrator--><rect fill="#FEFECE" filter="url(#f16w9g35iqdr80)" height="61.8359" id="Administrator" style="stroke: #A80036; stroke-width: 1.5;" width="105" x="691.5" y="329.5"/><ellipse cx="706.5" cy="345.5" fill="#ADD1B2" rx="11" ry="11" style="stroke: #A80036; stroke-width: 1.0;"/><path d="M709.2656,341.375 Q709.4219,341.1563 709.6094,341.0469 Q709.7969,340.9375 710.0156,340.9375 Q710.3906,340.9375 710.625,341.1953 Q710.8594,341.4531 710.8594,342.0625 L710.8594,343.5156 Q710.8594,344.125 710.625,344.3906 Q710.3906,344.6563 710.0156,344.6563 Q709.6719,344.6563 709.4688,344.4531 Q709.2656,344.2656 709.1563,343.75 Q709.1094,343.3906 708.9219,343.2031 Q708.5938,342.8281 707.9844,342.6094 Q707.375,342.3906 706.75,342.3906 Q705.9844,342.3906 705.3516,342.7188 Q704.7188,343.0469 704.2266,343.7969 Q703.7344,344.5469 703.7344,345.5781 L703.7344,346.6719 Q703.7344,347.9063 704.625,348.7266 Q705.5156,349.5469 707.1094,349.5469 Q708.0469,349.5469 708.7031,349.2969 Q709.0938,349.1406 709.5156,348.7031 Q709.7813,348.4375 709.9297,348.3594 Q710.0781,348.2813 710.2813,348.2813 Q710.6094,348.2813 710.8672,348.5391 Q711.125,348.7969 711.125,349.1406 Q711.125,349.4844 710.7813,349.8906 Q710.2813,350.4688 709.4844,350.7969 Q708.4063,351.25 707.1094,351.25 Q705.5938,351.25 704.3906,350.625 Q703.4063,350.125 702.7188,349.0547 Q702.0313,347.9844 702.0313,346.7031 L702.0313,345.5469 Q702.0313,344.2188 702.6484,343.0703 Q703.2656,341.9219 704.3594,341.3047 Q705.4531,340.6875 706.6875,340.6875 Q707.4219,340.6875 708.0703,340.8516 Q708.7188,341.0156 709.2656,341.375 Z "/><text fill="#000000" font-family="sans-serif" font-size="12" lengthAdjust="spacingAndGlyphs" textLength="73" x="720.5" y="350.4102">Administrator</text><line style="stroke: #A80036; stroke-width: 1.5;" x1="692.5" x2="795.5" y1="361.5" y2="361.5"/><text fill="#000000" font-family="sans-serif" font-size="11" lengthAdjust="spacingAndGlyphs" textLength="59" x="697.5" y="376.9189">-String email</text><line style="stroke: #A80036; stroke-width: 1.5;" x1="692.5" x2="795.5" y1="383.3359" y2="383.3359"/><!--link UpdateDroneUI to UpdateDroneController--><path d="M271,56.2 C271,71.24 271,91.7 271,111.72 " fill="none" id="UpdateDroneUI-UpdateDroneController" style="stroke: #A80036; stroke-width: 1.0; stroke-dasharray: 7.0,7.0;"/><polygon fill="#A80036" points="271,116.8,275,107.8,271,111.8,267,107.8,271,116.8" style="stroke: #A80036; stroke-width: 1.0;"/><!--link UpdateDroneController to PharmacyDB--><path d="M212.7,248.04 C191.42,271.59 167.96,297.56 149.04,318.5 " fill="none" id="UpdateDroneController-PharmacyDB" style="stroke: #A80036; stroke-width: 1.0; stroke-dasharray: 7.0,7.0;"/><polygon fill="#A80036" points="145.56,322.35,154.5539,318.3362,148.9048,318.6335,148.6075,312.9845,145.56,322.35" style="stroke: #A80036; stroke-width: 1.0;"/><!--link UpdateDroneController to Drone--><path d="M268.24,248.19 C269.05,296.5 276.45,362.45 306,412 C335.78,461.94 388.15,501.31 432.76,528.06 " fill="none" id="UpdateDroneController-Drone" style="stroke: #A80036; stroke-width: 1.0; stroke-dasharray: 7.0,7.0;"/><polygon fill="#A80036" points="437.33,530.78,431.639,522.7418,433.0325,528.2243,427.55,529.6178,437.33,530.78" style="stroke: #A80036; stroke-width: 1.0;"/><!--link UpdateDroneController to Pharmacy--><path d="M309.14,248.04 C320.04,266.49 331.82,286.42 342.36,304.26 " fill="none" id="UpdateDroneController-Pharmacy" style="stroke: #A80036; stroke-width: 1.0; stroke-dasharray: 7.0,7.0;"/><polygon fill="#A80036" points="345.01,308.75,343.8719,298.9671,342.4649,304.4462,336.9858,303.0393,345.01,308.75" style="stroke: #A80036; stroke-width: 1.0;"/><!--link Administrator to Drone--><path d="M710.41,391.6 C679.62,419.19 632.83,461.12 592.53,497.23 " fill="none" id="Administrator-Drone" style="stroke: #A80036; stroke-width: 1.0;"/><polygon fill="#A80036" points="588.65,500.71,598.0277,497.7003,592.3799,497.3802,592.7001,491.7324,588.65,500.71" style="stroke: #A80036; stroke-width: 1.0;"/><text fill="#000000" font-family="sans-serif" font-size="13" lengthAdjust="spacingAndGlyphs" textLength="109" x="650" y="456.4951">add/remove/update</text><text fill="#000000" font-family="sans-serif" font-size="13" lengthAdjust="spacingAndGlyphs" textLength="7" x="696.1079" y="412.8437">1</text><text fill="#000000" font-family="sans-serif" font-size="13" lengthAdjust="spacingAndGlyphs" textLength="5" x="596.7092" y="490.3204">*</text><!--link Pharmacy to Drone--><path d="M408.76,412.14 C424.32,435.48 443.15,463.72 460.5,489.75 " fill="none" id="Pharmacy-Drone" style="stroke: #A80036; stroke-width: 1.0;"/><text fill="#000000" font-family="sans-serif" font-size="13" lengthAdjust="spacingAndGlyphs" textLength="21" x="441" y="456.4951">has</text><polygon fill="#000000" points="447,465.3516,450,471.3516,453,465.3516,447,465.3516" style="stroke: #000000; stroke-width: 1.0;"/><text fill="#000000" font-family="sans-serif" font-size="13" lengthAdjust="spacingAndGlyphs" textLength="7" x="406.0153" y="434.0225">1</text><text fill="#000000" font-family="sans-serif" font-size="13" lengthAdjust="spacingAndGlyphs" textLength="5" x="450.4297" y="479.1863">*</text><!--link DroneDB to Drone--><path d="M549.19,405.65 C543.75,430.11 536.83,461.25 530.5,489.74 " fill="none" id="DroneDB-Drone" style="stroke: #A80036; stroke-width: 1.0;"/><text fill="#000000" font-family="sans-serif" font-size="13" lengthAdjust="spacingAndGlyphs" textLength="46" x="541" y="456.4951">updates</text><polygon fill="#000000" points="559.5,465.3516,562.5,471.3516,565.5,465.3516,559.5,465.3516" style="stroke: #000000; stroke-width: 1.0;"/><text fill="#000000" font-family="sans-serif" font-size="13" lengthAdjust="spacingAndGlyphs" textLength="7" x="540.4015" y="426.3438">1</text><text fill="#000000" font-family="sans-serif" font-size="13" lengthAdjust="spacingAndGlyphs" textLength="5" x="526.8828" y="479.1754">*</text><!--
@startuml
skinparam classAttributeIconSize 0

class UpdateDroneUI {

}

class UpdateDroneController {
  +List<Pharmacy> getPharmaciesList()
  +getPharmacyByEmail(PharmacyEmail)
  +List<Drone> getDronesList()
  +getScoooterByID(droneID)
  +changeDrone(capacity,power,maxBattery)
  +updateDrone()
}

class PharmacyDB {
  +List<Pharmacy> getAllPharmacies()
  +Pharmacy getPharmacy(PharmacyEmail)
}

class DroneDB {
  +List<Drone> getAllDrones(pharEmail)
  +getDrone(droneID)
  +update(scoooter)
}

class Drone {
  -String id
  -Double capacity
  -Double power
  -Double maxPower
  -Integer battery
  +setCapacity(capacity)
  +setPower(power)
  +setMaxBattery(maxBattery)
}

class Pharmacy {
  -String designation
  -Adress adress
  -Integer parkMax
  +String getEmail()
}

class Administrator {
  -String email
}

UpdateDroneUI ..> UpdateDroneController
UpdateDroneController ..> PharmacyDB
UpdateDroneController ..> Drone
UpdateDroneController ..> Pharmacy

Administrator "1" - -> "*" Drone : add/remove/update

Pharmacy "1" - - "*" Drone : has >

DroneDB "1" - - "*" Drone: updates >

@enduml

PlantUML version 1.2018.14(Fri Dec 21 16:33:16 GMT 2018)
(GPL source distribution)
Java Runtime: Java(TM) SE Runtime Environment
JVM: Java HotSpot(TM) 64-Bit Server VM
Java Version: 1.8.0_271-b09
Operating System: Windows 10
OS Version: 10.0
Default Encoding: Cp1252
Language: pt
Country: PT
--></g></svg>