<?xml version="1.0" encoding="UTF-8" standalone="no"?><svg xmlns="http://www.w3.org/2000/svg" xmlns:xlink="http://www.w3.org/1999/xlink" contentScriptType="application/ecmascript" contentStyleType="text/css" height="356px" preserveAspectRatio="none" style="width:865px;height:356px;" version="1.1" viewBox="0 0 865 356" width="865px" zoomAndPan="magnify"><defs><filter height="300%" id="fcysel802fdrg" width="300%" x="-1" y="-1"><feGaussianBlur result="blurOut" stdDeviation="2.0"/><feColorMatrix in="blurOut" result="blurOut2" type="matrix" values="0 0 0 0 0 0 0 0 0 0 0 0 0 0 0 0 0 0 .4 0"/><feOffset dx="4.0" dy="4.0" in="blurOut2" result="blurOut3"/><feBlend in="SourceGraphic" in2="blurOut3" mode="normal"/></filter></defs><g><!--class Platform--><rect fill="#FEFECE" filter="url(#fcysel802fdrg)" height="53.8359" id="Platform" style="stroke: #A80036; stroke-width: 1.5;" width="112" x="6" y="119.5"/><ellipse cx="36.3" cy="135.5" fill="#ADD1B2" rx="11" ry="11" style="stroke: #A80036; stroke-width: 1.0;"/><path d="M39.0656,131.375 Q39.2219,131.1563 39.4094,131.0469 Q39.5969,130.9375 39.8156,130.9375 Q40.1906,130.9375 40.425,131.1953 Q40.6594,131.4531 40.6594,132.0625 L40.6594,133.5156 Q40.6594,134.125 40.425,134.3906 Q40.1906,134.6563 39.8156,134.6563 Q39.4719,134.6563 39.2688,134.4531 Q39.0656,134.2656 38.9563,133.75 Q38.9094,133.3906 38.7219,133.2031 Q38.3938,132.8281 37.7844,132.6094 Q37.175,132.3906 36.55,132.3906 Q35.7844,132.3906 35.1516,132.7188 Q34.5188,133.0469 34.0266,133.7969 Q33.5344,134.5469 33.5344,135.5781 L33.5344,136.6719 Q33.5344,137.9063 34.425,138.7266 Q35.3156,139.5469 36.9094,139.5469 Q37.8469,139.5469 38.5031,139.2969 Q38.8938,139.1406 39.3156,138.7031 Q39.5813,138.4375 39.7297,138.3594 Q39.8781,138.2813 40.0813,138.2813 Q40.4094,138.2813 40.6672,138.5391 Q40.925,138.7969 40.925,139.1406 Q40.925,139.4844 40.5813,139.8906 Q40.0813,140.4688 39.2844,140.7969 Q38.2063,141.25 36.9094,141.25 Q35.3938,141.25 34.1906,140.625 Q33.2063,140.125 32.5188,139.0547 Q31.8312,137.9844 31.8312,136.7031 L31.8312,135.5469 Q31.8312,134.2188 32.4484,133.0703 Q33.0656,131.9219 34.1594,131.3047 Q35.2531,130.6875 36.4875,130.6875 Q37.2219,130.6875 37.8703,130.8516 Q38.5188,131.0156 39.0656,131.375 Z "/><text fill="#000000" font-family="sans-serif" font-size="12" lengthAdjust="spacingAndGlyphs" textLength="46" x="53.7" y="140.4102">Platform</text><line style="stroke: #A80036; stroke-width: 1.5;" x1="7" x2="117" y1="151.5" y2="151.5"/><rect fill="none" height="6" style="stroke: #C82930; stroke-width: 1.0;" width="6" x="14" y="160.918"/><text fill="#000000" font-family="sans-serif" font-size="11" lengthAdjust="spacingAndGlyphs" textLength="86" x="26" y="166.9189">String designation</text><!--class User--><rect fill="#FEFECE" filter="url(#fcysel802fdrg)" height="81.5078" id="User" style="stroke: #A80036; stroke-width: 1.5;" width="107" x="506.5" y="8.5"/><ellipse cx="543.1" cy="24.5" fill="#ADD1B2" rx="11" ry="11" style="stroke: #A80036; stroke-width: 1.0;"/><path d="M545.8656,20.375 Q546.0219,20.1563 546.2094,20.0469 Q546.3969,19.9375 546.6156,19.9375 Q546.9906,19.9375 547.225,20.1953 Q547.4594,20.4531 547.4594,21.0625 L547.4594,22.5156 Q547.4594,23.125 547.225,23.3906 Q546.9906,23.6563 546.6156,23.6563 Q546.2719,23.6563 546.0688,23.4531 Q545.8656,23.2656 545.7563,22.75 Q545.7094,22.3906 545.5219,22.2031 Q545.1938,21.8281 544.5844,21.6094 Q543.975,21.3906 543.35,21.3906 Q542.5844,21.3906 541.9516,21.7188 Q541.3188,22.0469 540.8266,22.7969 Q540.3344,23.5469 540.3344,24.5781 L540.3344,25.6719 Q540.3344,26.9063 541.225,27.7266 Q542.1156,28.5469 543.7094,28.5469 Q544.6469,28.5469 545.3031,28.2969 Q545.6938,28.1406 546.1156,27.7031 Q546.3813,27.4375 546.5297,27.3594 Q546.6781,27.2813 546.8813,27.2813 Q547.2094,27.2813 547.4672,27.5391 Q547.725,27.7969 547.725,28.1406 Q547.725,28.4844 547.3813,28.8906 Q546.8813,29.4688 546.0844,29.7969 Q545.0063,30.25 543.7094,30.25 Q542.1938,30.25 540.9906,29.625 Q540.0063,29.125 539.3188,28.0547 Q538.6313,26.9844 538.6313,25.7031 L538.6313,24.5469 Q538.6313,23.2188 539.2484,22.0703 Q539.8656,20.9219 540.9594,20.3047 Q542.0531,19.6875 543.2875,19.6875 Q544.0219,19.6875 544.6703,19.8516 Q545.3188,20.0156 545.8656,20.375 Z "/><text fill="#000000" font-family="sans-serif" font-size="12" lengthAdjust="spacingAndGlyphs" textLength="27" x="561.9" y="29.4102">User</text><line style="stroke: #A80036; stroke-width: 1.5;" x1="507.5" x2="612.5" y1="40.5" y2="40.5"/><rect fill="none" height="6" style="stroke: #C82930; stroke-width: 1.0;" width="6" x="514.5" y="49.918"/><text fill="#000000" font-family="sans-serif" font-size="11" lengthAdjust="spacingAndGlyphs" textLength="57" x="526.5" y="55.9189">String name</text><rect fill="none" height="6" style="stroke: #C82930; stroke-width: 1.0;" width="6" x="514.5" y="63.7539"/><text fill="#000000" font-family="sans-serif" font-size="11" lengthAdjust="spacingAndGlyphs" textLength="55" x="526.5" y="69.7549">String email</text><rect fill="none" height="6" style="stroke: #C82930; stroke-width: 1.0;" width="6" x="514.5" y="77.5898"/><text fill="#000000" font-family="sans-serif" font-size="11" lengthAdjust="spacingAndGlyphs" textLength="81" x="526.5" y="83.5908">String password</text><!--class Administrator--><rect fill="#FEFECE" filter="url(#fcysel802fdrg)" height="53.8359" id="Administrator" style="stroke: #A80036; stroke-width: 1.5;" width="105" x="275" y="119.5"/><ellipse cx="290" cy="135.5" fill="#ADD1B2" rx="11" ry="11" style="stroke: #A80036; stroke-width: 1.0;"/><path d="M292.7656,131.375 Q292.9219,131.1563 293.1094,131.0469 Q293.2969,130.9375 293.5156,130.9375 Q293.8906,130.9375 294.125,131.1953 Q294.3594,131.4531 294.3594,132.0625 L294.3594,133.5156 Q294.3594,134.125 294.125,134.3906 Q293.8906,134.6563 293.5156,134.6563 Q293.1719,134.6563 292.9688,134.4531 Q292.7656,134.2656 292.6563,133.75 Q292.6094,133.3906 292.4219,133.2031 Q292.0938,132.8281 291.4844,132.6094 Q290.875,132.3906 290.25,132.3906 Q289.4844,132.3906 288.8516,132.7188 Q288.2188,133.0469 287.7266,133.7969 Q287.2344,134.5469 287.2344,135.5781 L287.2344,136.6719 Q287.2344,137.9063 288.125,138.7266 Q289.0156,139.5469 290.6094,139.5469 Q291.5469,139.5469 292.2031,139.2969 Q292.5938,139.1406 293.0156,138.7031 Q293.2813,138.4375 293.4297,138.3594 Q293.5781,138.2813 293.7813,138.2813 Q294.1094,138.2813 294.3672,138.5391 Q294.625,138.7969 294.625,139.1406 Q294.625,139.4844 294.2813,139.8906 Q293.7813,140.4688 292.9844,140.7969 Q291.9063,141.25 290.6094,141.25 Q289.0938,141.25 287.8906,140.625 Q286.9063,140.125 286.2188,139.0547 Q285.5313,137.9844 285.5313,136.7031 L285.5313,135.5469 Q285.5313,134.2188 286.1484,133.0703 Q286.7656,131.9219 287.8594,131.3047 Q288.9531,130.6875 290.1875,130.6875 Q290.9219,130.6875 291.5703,130.8516 Q292.2188,131.0156 292.7656,131.375 Z "/><text fill="#000000" font-family="sans-serif" font-size="12" lengthAdjust="spacingAndGlyphs" textLength="73" x="304" y="140.4102">Administrator</text><line style="stroke: #A80036; stroke-width: 1.5;" x1="276" x2="379" y1="151.5" y2="151.5"/><rect fill="none" height="6" style="stroke: #C82930; stroke-width: 1.0;" width="6" x="283" y="160.918"/><text fill="#000000" font-family="sans-serif" font-size="11" lengthAdjust="spacingAndGlyphs" textLength="55" x="295" y="166.9189">String email</text><!--class Drone--><rect fill="#FEFECE" filter="url(#fcysel802fdrg)" height="109.1797" id="Drone" style="stroke: #A80036; stroke-width: 1.5;" width="114" x="729" y="92"/><ellipse cx="765.6" cy="108" fill="#ADD1B2" rx="11" ry="11" style="stroke: #A80036; stroke-width: 1.0;"/><path d="M768.3656,103.875 Q768.5219,103.6563 768.7094,103.5469 Q768.8969,103.4375 769.1156,103.4375 Q769.4906,103.4375 769.725,103.6953 Q769.9594,103.9531 769.9594,104.5625 L769.9594,106.0156 Q769.9594,106.625 769.725,106.8906 Q769.4906,107.1563 769.1156,107.1563 Q768.7719,107.1563 768.5688,106.9531 Q768.3656,106.7656 768.2563,106.25 Q768.2094,105.8906 768.0219,105.7031 Q767.6938,105.3281 767.0844,105.1094 Q766.475,104.8906 765.85,104.8906 Q765.0844,104.8906 764.4516,105.2188 Q763.8188,105.5469 763.3266,106.2969 Q762.8344,107.0469 762.8344,108.0781 L762.8344,109.1719 Q762.8344,110.4063 763.725,111.2266 Q764.6156,112.0469 766.2094,112.0469 Q767.1469,112.0469 767.8031,111.7969 Q768.1938,111.6406 768.6156,111.2031 Q768.8813,110.9375 769.0297,110.8594 Q769.1781,110.7813 769.3813,110.7813 Q769.7094,110.7813 769.9672,111.0391 Q770.225,111.2969 770.225,111.6406 Q770.225,111.9844 769.8813,112.3906 Q769.3813,112.9688 768.5844,113.2969 Q767.5063,113.75 766.2094,113.75 Q764.6938,113.75 763.4906,113.125 Q762.5063,112.625 761.8188,111.5547 Q761.1313,110.4844 761.1313,109.2031 L761.1313,108.0469 Q761.1313,106.7188 761.7484,105.5703 Q762.3656,104.4219 763.4594,103.8047 Q764.5531,103.1875 765.7875,103.1875 Q766.5219,103.1875 767.1703,103.3516 Q767.8188,103.5156 768.3656,103.875 Z "/><text fill="#000000" font-family="sans-serif" font-size="12" lengthAdjust="spacingAndGlyphs" textLength="34" x="784.4" y="112.9102">Drone</text><line style="stroke: #A80036; stroke-width: 1.5;" x1="730" x2="842" y1="124" y2="124"/><rect fill="none" height="6" style="stroke: #C82930; stroke-width: 1.0;" width="6" x="737" y="133.418"/><text fill="#000000" font-family="sans-serif" font-size="11" lengthAdjust="spacingAndGlyphs" textLength="39" x="749" y="139.4189">String id</text><rect fill="none" height="6" style="stroke: #C82930; stroke-width: 1.0;" width="6" x="737" y="147.2539"/><text fill="#000000" font-family="sans-serif" font-size="11" lengthAdjust="spacingAndGlyphs" textLength="77" x="749" y="153.2549">Double capacity</text><rect fill="none" height="6" style="stroke: #C82930; stroke-width: 1.0;" width="6" x="737" y="161.0898"/><text fill="#000000" font-family="sans-serif" font-size="11" lengthAdjust="spacingAndGlyphs" textLength="68" x="749" y="167.0908">Double power</text><rect fill="none" height="6" style="stroke: #C82930; stroke-width: 1.0;" width="6" x="737" y="174.9258"/><text fill="#000000" font-family="sans-serif" font-size="11" lengthAdjust="spacingAndGlyphs" textLength="88" x="749" y="180.9268">Double maxPower</text><rect fill="none" height="6" style="stroke: #C82930; stroke-width: 1.0;" width="6" x="737" y="188.7617"/><text fill="#000000" font-family="sans-serif" font-size="11" lengthAdjust="spacingAndGlyphs" textLength="70" x="749" y="194.7627">Integer battery</text><!--class Pharmacy--><rect fill="#FEFECE" filter="url(#fcysel802fdrg)" height="81.5078" id="Pharmacy" style="stroke: #A80036; stroke-width: 1.5;" width="112" x="504" y="216.5"/><ellipse cx="530.25" cy="232.5" fill="#ADD1B2" rx="11" ry="11" style="stroke: #A80036; stroke-width: 1.0;"/><path d="M533.0156,228.375 Q533.1719,228.1563 533.3594,228.0469 Q533.5469,227.9375 533.7656,227.9375 Q534.1406,227.9375 534.375,228.1953 Q534.6094,228.4531 534.6094,229.0625 L534.6094,230.5156 Q534.6094,231.125 534.375,231.3906 Q534.1406,231.6563 533.7656,231.6563 Q533.4219,231.6563 533.2188,231.4531 Q533.0156,231.2656 532.9063,230.75 Q532.8594,230.3906 532.6719,230.2031 Q532.3438,229.8281 531.7344,229.6094 Q531.125,229.3906 530.5,229.3906 Q529.7344,229.3906 529.1016,229.7188 Q528.4688,230.0469 527.9766,230.7969 Q527.4844,231.5469 527.4844,232.5781 L527.4844,233.6719 Q527.4844,234.9063 528.375,235.7266 Q529.2656,236.5469 530.8594,236.5469 Q531.7969,236.5469 532.4531,236.2969 Q532.8438,236.1406 533.2656,235.7031 Q533.5313,235.4375 533.6797,235.3594 Q533.8281,235.2813 534.0313,235.2813 Q534.3594,235.2813 534.6172,235.5391 Q534.875,235.7969 534.875,236.1406 Q534.875,236.4844 534.5313,236.8906 Q534.0313,237.4688 533.2344,237.7969 Q532.1563,238.25 530.8594,238.25 Q529.3438,238.25 528.1406,237.625 Q527.1563,237.125 526.4688,236.0547 Q525.7813,234.9844 525.7813,233.7031 L525.7813,232.5469 Q525.7813,231.2188 526.3984,230.0703 Q527.0156,228.9219 528.1094,228.3047 Q529.2031,227.6875 530.4375,227.6875 Q531.1719,227.6875 531.8203,227.8516 Q532.4688,228.0156 533.0156,228.375 Z "/><text fill="#000000" font-family="sans-serif" font-size="12" lengthAdjust="spacingAndGlyphs" textLength="55" x="546.75" y="237.4102">Pharmacy</text><line style="stroke: #A80036; stroke-width: 1.5;" x1="505" x2="615" y1="248.5" y2="248.5"/><rect fill="none" height="6" style="stroke: #C82930; stroke-width: 1.0;" width="6" x="512" y="257.918"/><text fill="#000000" font-family="sans-serif" font-size="11" lengthAdjust="spacingAndGlyphs" textLength="86" x="524" y="263.9189">String designation</text><rect fill="none" height="6" style="stroke: #C82930; stroke-width: 1.0;" width="6" x="512" y="271.7539"/><text fill="#000000" font-family="sans-serif" font-size="11" lengthAdjust="spacingAndGlyphs" textLength="55" x="524" y="277.7549">String email</text><rect fill="none" height="6" style="stroke: #C82930; stroke-width: 1.0;" width="6" x="512" y="285.5898"/><text fill="#000000" font-family="sans-serif" font-size="11" lengthAdjust="spacingAndGlyphs" textLength="77" x="524" y="291.5908">Integer parkMax</text><!--class Address--><rect fill="#FEFECE" filter="url(#fcysel802fdrg)" height="109.1797" id="Address" style="stroke: #A80036; stroke-width: 1.5;" width="136" x="718" y="236"/><ellipse cx="759.1" cy="252" fill="#ADD1B2" rx="11" ry="11" style="stroke: #A80036; stroke-width: 1.0;"/><path d="M761.8656,247.875 Q762.0219,247.6563 762.2094,247.5469 Q762.3969,247.4375 762.6156,247.4375 Q762.9906,247.4375 763.225,247.6953 Q763.4594,247.9531 763.4594,248.5625 L763.4594,250.0156 Q763.4594,250.625 763.225,250.8906 Q762.9906,251.1563 762.6156,251.1563 Q762.2719,251.1563 762.0688,250.9531 Q761.8656,250.7656 761.7563,250.25 Q761.7094,249.8906 761.5219,249.7031 Q761.1938,249.3281 760.5844,249.1094 Q759.975,248.8906 759.35,248.8906 Q758.5844,248.8906 757.9516,249.2188 Q757.3188,249.5469 756.8266,250.2969 Q756.3344,251.0469 756.3344,252.0781 L756.3344,253.1719 Q756.3344,254.4063 757.225,255.2266 Q758.1156,256.0469 759.7094,256.0469 Q760.6469,256.0469 761.3031,255.7969 Q761.6938,255.6406 762.1156,255.2031 Q762.3813,254.9375 762.5297,254.8594 Q762.6781,254.7813 762.8813,254.7813 Q763.2094,254.7813 763.4672,255.0391 Q763.725,255.2969 763.725,255.6406 Q763.725,255.9844 763.3813,256.3906 Q762.8813,256.9688 762.0844,257.2969 Q761.0063,257.75 759.7094,257.75 Q758.1938,257.75 756.9906,257.125 Q756.0063,256.625 755.3188,255.5547 Q754.6313,254.4844 754.6313,253.2031 L754.6313,252.0469 Q754.6313,250.7188 755.2484,249.5703 Q755.8656,248.4219 756.9594,247.8047 Q758.0531,247.1875 759.2875,247.1875 Q760.0219,247.1875 760.6703,247.3516 Q761.3188,247.5156 761.8656,247.875 Z "/><text fill="#000000" font-family="sans-serif" font-size="12" lengthAdjust="spacingAndGlyphs" textLength="46" x="778.9" y="256.9102">Address</text><line style="stroke: #A80036; stroke-width: 1.5;" x1="719" x2="853" y1="268" y2="268"/><rect fill="none" height="6" style="stroke: #C82930; stroke-width: 1.0;" width="6" x="726" y="277.418"/><text fill="#000000" font-family="sans-serif" font-size="11" lengthAdjust="spacingAndGlyphs" textLength="59" x="738" y="283.4189">String street</text><rect fill="none" height="6" style="stroke: #C82930; stroke-width: 1.0;" width="6" x="726" y="291.2539"/><text fill="#000000" font-family="sans-serif" font-size="11" lengthAdjust="spacingAndGlyphs" textLength="85" x="738" y="297.2549">String postalCode</text><rect fill="none" height="6" style="stroke: #C82930; stroke-width: 1.0;" width="6" x="726" y="305.0898"/><text fill="#000000" font-family="sans-serif" font-size="11" lengthAdjust="spacingAndGlyphs" textLength="72" x="738" y="311.0908">Integer number</text><rect fill="none" height="6" style="stroke: #C82930; stroke-width: 1.0;" width="6" x="726" y="318.9258"/><text fill="#000000" font-family="sans-serif" font-size="11" lengthAdjust="spacingAndGlyphs" textLength="64" x="738" y="324.9268">String locality</text><rect fill="none" height="6" style="stroke: #C82930; stroke-width: 1.0;" width="6" x="726" y="332.7617"/><text fill="#000000" font-family="sans-serif" font-size="11" lengthAdjust="spacingAndGlyphs" textLength="110" x="738" y="338.7627">String GPSCoordinates</text><!--link Platform to Administrator--><path d="M118.24,146.5 C164.42,146.5 229.79,146.5 274.91,146.5 " fill="none" id="Platform-Administrator" style="stroke: #A80036; stroke-width: 1.0;"/><text fill="#000000" font-family="sans-serif" font-size="13" lengthAdjust="spacingAndGlyphs" textLength="82" x="149" y="142.9951">has registered</text><polygon fill="#000000" points="234,136.1758,240,139.1758,234,142.1758,234,136.1758" style="stroke: #000000; stroke-width: 1.0;"/><text fill="#000000" font-family="sans-serif" font-size="13" lengthAdjust="spacingAndGlyphs" textLength="7" x="125.8942" y="161.0531">1</text><text fill="#000000" font-family="sans-serif" font-size="13" lengthAdjust="spacingAndGlyphs" textLength="5" x="262.163" y="161.1564">*</text><!--link Platform to User--><path d="M118.09,128.73 C128,125.8 138.27,122.93 148,120.5 C263.1,91.78 292.94,88.73 410,69.5 C441.94,64.25 477.89,59.4 506.48,55.78 " fill="none" id="Platform-User" style="stroke: #A80036; stroke-width: 1.0;"/><text fill="#000000" font-family="sans-serif" font-size="13" lengthAdjust="spacingAndGlyphs" textLength="82" x="280" y="71.9951">has registered</text><polygon fill="#000000" points="365,65.1758,371,68.1758,365,71.1758,365,65.1758" style="stroke: #000000; stroke-width: 1.0;"/><text fill="#000000" font-family="sans-serif" font-size="13" lengthAdjust="spacingAndGlyphs" textLength="7" x="126.0974" y="140.9469">1</text><text fill="#000000" font-family="sans-serif" font-size="13" lengthAdjust="spacingAndGlyphs" textLength="5" x="493.6022" y="71.3426">*</text><!--link Platform to Pharmacy--><path d="M118.34,164.56 C160.85,177.98 221.21,196.04 275,208.5 C353.84,226.77 446.43,241.51 503.92,249.89 " fill="none" id="Platform-Pharmacy" style="stroke: #A80036; stroke-width: 1.0;"/><text fill="#000000" font-family="sans-serif" font-size="13" lengthAdjust="spacingAndGlyphs" textLength="82" x="280" y="204.9951">has registered</text><polygon fill="#000000" points="365,198.1758,371,201.1758,365,204.1758,365,198.1758" style="stroke: #000000; stroke-width: 1.0;"/><text fill="#000000" font-family="sans-serif" font-size="13" lengthAdjust="spacingAndGlyphs" textLength="7" x="126.007" y="181.4271">1</text><text fill="#000000" font-family="sans-serif" font-size="13" lengthAdjust="spacingAndGlyphs" textLength="7" x="488.9139" y="263.4942">1</text><!--link Administrator to Pharmacy--><path d="M377.33,173.61 C388.02,179.33 399.33,185.23 410,190.5 C440.64,205.64 475.45,221.37 503.71,233.78 " fill="none" id="Administrator-Pharmacy" style="stroke: #A80036; stroke-width: 1.0;"/><text fill="#000000" font-family="sans-serif" font-size="13" lengthAdjust="spacingAndGlyphs" textLength="43" x="411" y="186.9951">creates</text><polygon fill="#000000" points="457,180.1758,463,183.1758,457,186.1758,457,180.1758" style="stroke: #000000; stroke-width: 1.0;"/><text fill="#000000" font-family="sans-serif" font-size="13" lengthAdjust="spacingAndGlyphs" textLength="7" x="380.4647" y="194.8418">1</text><text fill="#000000" font-family="sans-serif" font-size="13" lengthAdjust="spacingAndGlyphs" textLength="7" x="489.0494" y="245.315">1</text><!--link Administrator to User--><path d="M380.13,126.95 C406.56,116.74 439.16,103.83 468,91.5 C480.48,86.17 493.8,80.18 506.3,74.44 " fill="none" id="Administrator-User" style="stroke: #A80036; stroke-width: 1.0;"/><text fill="#000000" font-family="sans-serif" font-size="13" lengthAdjust="spacingAndGlyphs" textLength="36" x="414.5" y="87.9951">act as</text><polygon fill="#000000" points="453.5,81.1758,459.5,84.1758,453.5,87.1758,453.5,81.1758" style="stroke: #000000; stroke-width: 1.0;"/><text fill="#000000" font-family="sans-serif" font-size="13" lengthAdjust="spacingAndGlyphs" textLength="22" x="387.8849" y="139.0689">0..1</text><text fill="#000000" font-family="sans-serif" font-size="13" lengthAdjust="spacingAndGlyphs" textLength="7" x="491.6138" y="92.4181">1</text><!--link Administrator to Drone--><path d="M380.42,146.5 C466.89,146.5 639.67,146.5 728.85,146.5 " fill="none" id="Administrator-Drone" style="stroke: #A80036; stroke-width: 1.0;"/><text fill="#000000" font-family="sans-serif" font-size="13" lengthAdjust="spacingAndGlyphs" textLength="109" x="499" y="142.9951">add/remove/update</text><polygon fill="#000000" points="611,136.1758,617,139.1758,611,142.1758,611,136.1758" style="stroke: #000000; stroke-width: 1.0;"/><text fill="#000000" font-family="sans-serif" font-size="13" lengthAdjust="spacingAndGlyphs" textLength="7" x="388.0014" y="161.1048">1</text><text fill="#000000" font-family="sans-serif" font-size="13" lengthAdjust="spacingAndGlyphs" textLength="5" x="715.8345" y="161.0817">*</text><!--link Pharmacy to Address--><path d="M616.08,265.61 C646.78,270.14 685.26,275.81 717.73,280.59 " fill="none" id="Pharmacy-Address" style="stroke: #A80036; stroke-width: 1.0;"/><text fill="#000000" font-family="sans-serif" font-size="13" lengthAdjust="spacingAndGlyphs" textLength="21" x="653" y="266.9951">has</text><polygon fill="#000000" points="677,260.1758,683,263.1758,677,266.1758,677,260.1758" style="stroke: #000000; stroke-width: 1.0;"/><text fill="#000000" font-family="sans-serif" font-size="13" lengthAdjust="spacingAndGlyphs" textLength="7" x="624.0861" y="281.3266">1</text><text fill="#000000" font-family="sans-serif" font-size="13" lengthAdjust="spacingAndGlyphs" textLength="7" x="702.8802" y="293.8856">1</text><!--link Pharmacy to Drone--><path d="M616.08,230.2 C650.41,213.19 694.46,191.37 728.96,174.27 " fill="none" id="Pharmacy-Drone" style="stroke: #A80036; stroke-width: 1.0;"/><text fill="#000000" font-family="sans-serif" font-size="13" lengthAdjust="spacingAndGlyphs" textLength="21" x="653" y="191.9951">has</text><polygon fill="#000000" points="677,185.1758,683,188.1758,677,191.1758,677,185.1758" style="stroke: #000000; stroke-width: 1.0;"/><text fill="#000000" font-family="sans-serif" font-size="13" lengthAdjust="spacingAndGlyphs" textLength="7" x="624.0861" y="241.1584">1</text><text fill="#000000" font-family="sans-serif" font-size="13" lengthAdjust="spacingAndGlyphs" textLength="5" x="715.9593" y="192.5833">*</text><!--
@startuml

hide methods
left to right direction

class Platform {
  -String designation
}

class User {
  -String name
  -String email
  -String password
}

class Administrator {
  -String email
}

class Drone {
  -String id
  -Double capacity
  -Double power
  -Double maxPower
  -Integer battery
}

class Pharmacy {
  -String designation
  -String email
  -Integer parkMax
}

class Address {
  -String street
  -String postalCode
  -Integer number
  -String locality
  -String GPSCoordinates
}

Platform "1" - - "*" Administrator : has registered >
Platform "1" - - "*" User : has registered >
Platform "1" - - "1" Pharmacy : has registered >

Administrator "1" - - "1" Pharmacy : creates >
Administrator "0..1" - - "1" User : act as >
Administrator "1" - - "*" Drone : add/remove/update >

Pharmacy "1" - - "1" Address : has >
Pharmacy "1" - - "*" Drone : has >
@enduml

PlantUML version 1.2018.14(Fri Dec 21 16:33:16 GMT 2018)
(GPL source distribution)
Java Runtime: Java(TM) SE Runtime Environment
JVM: Java HotSpot(TM) 64-Bit Server VM
Java Version: 1.8.0_271-b09
Operating System: Windows 10
OS Version: 10.0
Default Encoding: Cp1252
Language: pt
Country: PT
--></g></svg>