<?xml version="1.0" encoding="UTF-8" standalone="no"?><svg xmlns="http://www.w3.org/2000/svg" xmlns:xlink="http://www.w3.org/1999/xlink" contentScriptType="application/ecmascript" contentStyleType="text/css" height="261px" preserveAspectRatio="none" style="width:908px;height:261px;" version="1.1" viewBox="0 0 908 261" width="908px" zoomAndPan="magnify">
    <defs>
        <filter height="300%" id="f1cerookl7ayaq" width="300%" x="-1" y="-1">
            <feGaussianBlur result="blurOut" stdDeviation="2.0" />
            <feColorMatrix in="blurOut" result="blurOut2" type="matrix" values="0 0 0 0 0 0 0 0 0 0 0 0 0 0 0 0 0 0 .4 0" />
            <feOffset dx="4.0" dy="4.0" in="blurOut2" result="blurOut3" />
            <feBlend in="SourceGraphic" in2="blurOut3" mode="normal" />
        </filter>
    </defs>
    <g>
        <!--class Platform-->
        <rect fill="#FEFECE" filter="url(#f1cerookl7ayaq)" height="53.8359" id="Platform" style="stroke: #A80036; stroke-width: 1.5;" width="112" x="6" y="62" />
        <ellipse cx="36.3" cy="78" fill="#ADD1B2" rx="11" ry="11" style="stroke: #A80036; stroke-width: 1.0;" />
        <path d="M39.0656,73.875 Q39.2219,73.6563 39.4094,73.5469 Q39.5969,73.4375 39.8156,73.4375 Q40.1906,73.4375 40.425,73.6953 Q40.6594,73.9531 40.6594,74.5625 L40.6594,76.0156 Q40.6594,76.625 40.425,76.8906 Q40.1906,77.1563 39.8156,77.1563 Q39.4719,77.1563 39.2688,76.9531 Q39.0656,76.7656 38.9563,76.25 Q38.9094,75.8906 38.7219,75.7031 Q38.3938,75.3281 37.7844,75.1094 Q37.175,74.8906 36.55,74.8906 Q35.7844,74.8906 35.1516,75.2188 Q34.5188,75.5469 34.0266,76.2969 Q33.5344,77.0469 33.5344,78.0781 L33.5344,79.1719 Q33.5344,80.4063 34.425,81.2266 Q35.3156,82.0469 36.9094,82.0469 Q37.8469,82.0469 38.5031,81.7969 Q38.8938,81.6406 39.3156,81.2031 Q39.5813,80.9375 39.7297,80.8594 Q39.8781,80.7813 40.0813,80.7813 Q40.4094,80.7813 40.6672,81.0391 Q40.925,81.2969 40.925,81.6406 Q40.925,81.9844 40.5813,82.3906 Q40.0813,82.9688 39.2844,83.2969 Q38.2063,83.75 36.9094,83.75 Q35.3938,83.75 34.1906,83.125 Q33.2063,82.625 32.5188,81.5547 Q31.8313,80.4844 31.8313,79.2031 L31.8313,78.0469 Q31.8313,76.7188 32.4484,75.5703 Q33.0656,74.4219 34.1594,73.8047 Q35.2531,73.1875 36.4875,73.1875 Q37.2219,73.1875 37.8703,73.3516 Q38.5188,73.5156 39.0656,73.875 Z " /><text fill="#000000" font-family="sans-serif" font-size="12" lengthAdjust="spacingAndGlyphs" textLength="46" x="53.7" y="82.9102">Platform</text>
        <line style="stroke: #A80036; stroke-width: 1.5;" x1="7" x2="117" y1="94" y2="94" />
        <rect fill="none" height="6" style="stroke: #C82930; stroke-width: 1.0;" width="6" x="14" y="103.418" /><text fill="#000000" font-family="sans-serif" font-size="11" lengthAdjust="spacingAndGlyphs" textLength="86" x="26" y="109.4189">String designation</text>
        <!--class Scooter-->
        <rect fill="#FEFECE" filter="url(#f1cerookl7ayaq)" height="123.0156" id="Scooter" style="stroke: #A80036; stroke-width: 1.5;" width="125" x="772" y="24.5" />
        <ellipse cx="809.95" cy="40.5" fill="#ADD1B2" rx="11" ry="11" style="stroke: #A80036; stroke-width: 1.0;" />
        <path d="M812.7156,36.375 Q812.8719,36.1563 813.0594,36.0469 Q813.2469,35.9375 813.4656,35.9375 Q813.8406,35.9375 814.075,36.1953 Q814.3094,36.4531 814.3094,37.0625 L814.3094,38.5156 Q814.3094,39.125 814.075,39.3906 Q813.8406,39.6563 813.4656,39.6563 Q813.1219,39.6563 812.9188,39.4531 Q812.7156,39.2656 812.6063,38.75 Q812.5594,38.3906 812.3719,38.2031 Q812.0438,37.8281 811.4344,37.6094 Q810.825,37.3906 810.2,37.3906 Q809.4344,37.3906 808.8016,37.7188 Q808.1688,38.0469 807.6766,38.7969 Q807.1844,39.5469 807.1844,40.5781 L807.1844,41.6719 Q807.1844,42.9063 808.075,43.7266 Q808.9656,44.5469 810.5594,44.5469 Q811.4969,44.5469 812.1531,44.2969 Q812.5438,44.1406 812.9656,43.7031 Q813.2313,43.4375 813.3797,43.3594 Q813.5281,43.2813 813.7313,43.2813 Q814.0594,43.2813 814.3172,43.5391 Q814.575,43.7969 814.575,44.1406 Q814.575,44.4844 814.2313,44.8906 Q813.7313,45.4688 812.9344,45.7969 Q811.8563,46.25 810.5594,46.25 Q809.0438,46.25 807.8406,45.625 Q806.8563,45.125 806.1688,44.0547 Q805.4813,42.9844 805.4813,41.7031 L805.4813,40.5469 Q805.4813,39.2188 806.0984,38.0703 Q806.7156,36.9219 807.8094,36.3047 Q808.9031,35.6875 810.1375,35.6875 Q810.8719,35.6875 811.5203,35.8516 Q812.1688,36.0156 812.7156,36.375 Z " /><text fill="#000000" font-family="sans-serif" font-size="12" lengthAdjust="spacingAndGlyphs" textLength="42" x="829.05" y="45.4102">Scooter</text>
        <line style="stroke: #A80036; stroke-width: 1.5;" x1="773" x2="896" y1="56.5" y2="56.5" />
        <rect fill="none" height="6" style="stroke: #C82930; stroke-width: 1.0;" width="6" x="780" y="65.918" /><text fill="#000000" font-family="sans-serif" font-size="11" lengthAdjust="spacingAndGlyphs" textLength="39" x="792" y="71.9189">String id</text>
        <rect fill="none" height="6" style="stroke: #C82930; stroke-width: 1.0;" width="6" x="780" y="79.7539" /><text fill="#000000" font-family="sans-serif" font-size="11" lengthAdjust="spacingAndGlyphs" textLength="77" x="792" y="85.7549">Double capacity</text>
        <rect fill="none" height="6" style="stroke: #C82930; stroke-width: 1.0;" width="6" x="780" y="93.5898" /><text fill="#000000" font-family="sans-serif" font-size="11" lengthAdjust="spacingAndGlyphs" textLength="68" x="792" y="99.5908">Double power</text>
        <rect fill="none" height="6" style="stroke: #C82930; stroke-width: 1.0;" width="6" x="780" y="107.4258" /><text fill="#000000" font-family="sans-serif" font-size="11" lengthAdjust="spacingAndGlyphs" textLength="70" x="792" y="113.4268">Integer battery</text>
        <rect fill="none" height="6" style="stroke: #C82930; stroke-width: 1.0;" width="6" x="780" y="121.2617" /><text fill="#000000" font-family="sans-serif" font-size="11" lengthAdjust="spacingAndGlyphs" textLength="99" x="792" y="127.2627">Boolean isCharching</text>
        <rect fill="none" height="6" style="stroke: #C82930; stroke-width: 1.0;" width="6" x="780" y="135.0977" /><text fill="#000000" font-family="sans-serif" font-size="11" lengthAdjust="spacingAndGlyphs" textLength="83" x="792" y="141.0986">Boolean isParked</text>
        <!--class Order-->
        <rect fill="#FEFECE" filter="url(#f1cerookl7ayaq)" height="67.6719" id="Order" style="stroke: #A80036; stroke-width: 1.5;" width="95" x="787" y="183" />
        <ellipse cx="816.4" cy="199" fill="#ADD1B2" rx="11" ry="11" style="stroke: #A80036; stroke-width: 1.0;" />
        <path d="M819.1656,194.875 Q819.3219,194.6563 819.5094,194.5469 Q819.6969,194.4375 819.9156,194.4375 Q820.2906,194.4375 820.525,194.6953 Q820.7594,194.9531 820.7594,195.5625 L820.7594,197.0156 Q820.7594,197.625 820.525,197.8906 Q820.2906,198.1563 819.9156,198.1563 Q819.5719,198.1563 819.3688,197.9531 Q819.1656,197.7656 819.0563,197.25 Q819.0094,196.8906 818.8219,196.7031 Q818.4938,196.3281 817.8844,196.1094 Q817.275,195.8906 816.65,195.8906 Q815.8844,195.8906 815.2516,196.2188 Q814.6188,196.5469 814.1266,197.2969 Q813.6344,198.0469 813.6344,199.0781 L813.6344,200.1719 Q813.6344,201.4063 814.525,202.2266 Q815.4156,203.0469 817.0094,203.0469 Q817.9469,203.0469 818.6031,202.7969 Q818.9938,202.6406 819.4156,202.2031 Q819.6813,201.9375 819.8297,201.8594 Q819.9781,201.7813 820.1813,201.7813 Q820.5094,201.7813 820.7672,202.0391 Q821.025,202.2969 821.025,202.6406 Q821.025,202.9844 820.6813,203.3906 Q820.1813,203.9688 819.3844,204.2969 Q818.3063,204.75 817.0094,204.75 Q815.4938,204.75 814.2906,204.125 Q813.3063,203.625 812.6188,202.5547 Q811.9313,201.4844 811.9313,200.2031 L811.9313,199.0469 Q811.9313,197.7188 812.5484,196.5703 Q813.1656,195.4219 814.2594,194.8047 Q815.3531,194.1875 816.5875,194.1875 Q817.3219,194.1875 817.9703,194.3516 Q818.6188,194.5156 819.1656,194.875 Z " /><text fill="#000000" font-family="sans-serif" font-size="12" lengthAdjust="spacingAndGlyphs" textLength="31" x="833.6" y="203.9102">Order</text>
        <line style="stroke: #A80036; stroke-width: 1.5;" x1="788" x2="881" y1="215" y2="215" />
        <rect fill="none" height="6" style="stroke: #C82930; stroke-width: 1.0;" width="6" x="795" y="224.418" /><text fill="#000000" font-family="sans-serif" font-size="11" lengthAdjust="spacingAndGlyphs" textLength="52" x="807" y="230.4189">Double fee</text>
        <rect fill="none" height="6" style="stroke: #C82930; stroke-width: 1.0;" width="6" x="795" y="238.2539" /><text fill="#000000" font-family="sans-serif" font-size="11" lengthAdjust="spacingAndGlyphs" textLength="69" x="807" y="244.2549">Integer credits</text>
        <!--class Courier-->
        <rect fill="#FEFECE" filter="url(#f1cerookl7ayaq)" height="123.0156" id="Courier" style="stroke: #A80036; stroke-width: 1.5;" width="167" x="275" y="27.5" />
        <ellipse cx="333.75" cy="43.5" fill="#ADD1B2" rx="11" ry="11" style="stroke: #A80036; stroke-width: 1.0;" />
        <path d="M336.5156,39.375 Q336.6719,39.1563 336.8594,39.0469 Q337.0469,38.9375 337.2656,38.9375 Q337.6406,38.9375 337.875,39.1953 Q338.1094,39.4531 338.1094,40.0625 L338.1094,41.5156 Q338.1094,42.125 337.875,42.3906 Q337.6406,42.6563 337.2656,42.6563 Q336.9219,42.6563 336.7188,42.4531 Q336.5156,42.2656 336.4063,41.75 Q336.3594,41.3906 336.1719,41.2031 Q335.8438,40.8281 335.2344,40.6094 Q334.625,40.3906 334,40.3906 Q333.2344,40.3906 332.6016,40.7188 Q331.9688,41.0469 331.4766,41.7969 Q330.9844,42.5469 330.9844,43.5781 L330.9844,44.6719 Q330.9844,45.9063 331.875,46.7266 Q332.7656,47.5469 334.3594,47.5469 Q335.2969,47.5469 335.9531,47.2969 Q336.3438,47.1406 336.7656,46.7031 Q337.0313,46.4375 337.1797,46.3594 Q337.3281,46.2813 337.5313,46.2813 Q337.8594,46.2813 338.1172,46.5391 Q338.375,46.7969 338.375,47.1406 Q338.375,47.4844 338.0313,47.8906 Q337.5313,48.4688 336.7344,48.7969 Q335.6563,49.25 334.3594,49.25 Q332.8438,49.25 331.6406,48.625 Q330.6563,48.125 329.9688,47.0547 Q329.2813,45.9844 329.2813,44.7031 L329.2813,43.5469 Q329.2813,42.2188 329.8984,41.0703 Q330.5156,39.9219 331.6094,39.3047 Q332.7031,38.6875 333.9375,38.6875 Q334.6719,38.6875 335.3203,38.8516 Q335.9688,39.0156 336.5156,39.375 Z " /><text fill="#000000" font-family="sans-serif" font-size="12" lengthAdjust="spacingAndGlyphs" textLength="41" x="354.25" y="48.4102">Courier</text>
        <line style="stroke: #A80036; stroke-width: 1.5;" x1="276" x2="441" y1="59.5" y2="59.5" />
        <rect fill="none" height="6" style="stroke: #C82930; stroke-width: 1.0;" width="6" x="283" y="68.918" /><text fill="#000000" font-family="sans-serif" font-size="11" lengthAdjust="spacingAndGlyphs" textLength="57" x="295" y="74.9189">String name</text>
        <rect fill="none" height="6" style="stroke: #C82930; stroke-width: 1.0;" width="6" x="283" y="82.7539" /><text fill="#000000" font-family="sans-serif" font-size="11" lengthAdjust="spacingAndGlyphs" textLength="55" x="295" y="88.7549">String email</text>
        <rect fill="none" height="6" style="stroke: #C82930; stroke-width: 1.0;" width="6" x="283" y="96.5898" /><text fill="#000000" font-family="sans-serif" font-size="11" lengthAdjust="spacingAndGlyphs" textLength="103" x="295" y="102.5908">Integer phoneNumber</text>
        <rect fill="none" height="6" style="stroke: #C82930; stroke-width: 1.0;" width="6" x="283" y="110.4258" /><text fill="#000000" font-family="sans-serif" font-size="11" lengthAdjust="spacingAndGlyphs" textLength="141" x="295" y="116.4268">Integer socialSecurityNumber</text>
        <rect fill="none" height="6" style="stroke: #C82930; stroke-width: 1.0;" width="6" x="283" y="124.2617" /><text fill="#000000" font-family="sans-serif" font-size="11" lengthAdjust="spacingAndGlyphs" textLength="48" x="295" y="130.2627">Integer nif</text>
        <rect fill="none" height="6" style="stroke: #C82930; stroke-width: 1.0;" width="6" x="283" y="138.0977" /><text fill="#000000" font-family="sans-serif" font-size="11" lengthAdjust="spacingAndGlyphs" textLength="61" x="295" y="144.0986">String status</text>
        <!--class User-->
        <rect fill="#FEFECE" filter="url(#f1cerookl7ayaq)" height="81.5078" id="User" style="stroke: #A80036; stroke-width: 1.5;" width="107" x="568" y="8" />
        <ellipse cx="604.6" cy="24" fill="#ADD1B2" rx="11" ry="11" style="stroke: #A80036; stroke-width: 1.0;" />
        <path d="M607.3656,19.875 Q607.5219,19.6563 607.7094,19.5469 Q607.8969,19.4375 608.1156,19.4375 Q608.4906,19.4375 608.725,19.6953 Q608.9594,19.9531 608.9594,20.5625 L608.9594,22.0156 Q608.9594,22.625 608.725,22.8906 Q608.4906,23.1563 608.1156,23.1563 Q607.7719,23.1563 607.5688,22.9531 Q607.3656,22.7656 607.2563,22.25 Q607.2094,21.8906 607.0219,21.7031 Q606.6938,21.3281 606.0844,21.1094 Q605.475,20.8906 604.85,20.8906 Q604.0844,20.8906 603.4516,21.2188 Q602.8188,21.5469 602.3266,22.2969 Q601.8344,23.0469 601.8344,24.0781 L601.8344,25.1719 Q601.8344,26.4063 602.725,27.2266 Q603.6156,28.0469 605.2094,28.0469 Q606.1469,28.0469 606.8031,27.7969 Q607.1938,27.6406 607.6156,27.2031 Q607.8813,26.9375 608.0297,26.8594 Q608.1781,26.7813 608.3813,26.7813 Q608.7094,26.7813 608.9672,27.0391 Q609.225,27.2969 609.225,27.6406 Q609.225,27.9844 608.8813,28.3906 Q608.3813,28.9688 607.5844,29.2969 Q606.5063,29.75 605.2094,29.75 Q603.6938,29.75 602.4906,29.125 Q601.5063,28.625 600.8188,27.5547 Q600.1313,26.4844 600.1313,25.2031 L600.1313,24.0469 Q600.1313,22.7188 600.7484,21.5703 Q601.3656,20.4219 602.4594,19.8047 Q603.5531,19.1875 604.7875,19.1875 Q605.5219,19.1875 606.1703,19.3516 Q606.8188,19.5156 607.3656,19.875 Z " /><text fill="#000000" font-family="sans-serif" font-size="12" lengthAdjust="spacingAndGlyphs" textLength="27" x="623.4" y="28.9102">User</text>
        <line style="stroke: #A80036; stroke-width: 1.5;" x1="569" x2="674" y1="40" y2="40" />
        <rect fill="none" height="6" style="stroke: #C82930; stroke-width: 1.0;" width="6" x="576" y="49.418" /><text fill="#000000" font-family="sans-serif" font-size="11" lengthAdjust="spacingAndGlyphs" textLength="57" x="588" y="55.4189">String name</text>
        <rect fill="none" height="6" style="stroke: #C82930; stroke-width: 1.0;" width="6" x="576" y="63.2539" /><text fill="#000000" font-family="sans-serif" font-size="11" lengthAdjust="spacingAndGlyphs" textLength="55" x="588" y="69.2549">String email</text>
        <rect fill="none" height="6" style="stroke: #C82930; stroke-width: 1.0;" width="6" x="576" y="77.0898" /><text fill="#000000" font-family="sans-serif" font-size="11" lengthAdjust="spacingAndGlyphs" textLength="81" x="588" y="83.0908">String password</text>
        <!--class Delivery-->
        <rect fill="#FEFECE" filter="url(#f1cerookl7ayaq)" height="53.8359" id="Delivery" style="stroke: #A80036; stroke-width: 1.5;" width="109" x="567" y="125" />
        <ellipse cx="597.3" cy="141" fill="#ADD1B2" rx="11" ry="11" style="stroke: #A80036; stroke-width: 1.0;" />
        <path d="M600.0656,136.875 Q600.2219,136.6563 600.4094,136.5469 Q600.5969,136.4375 600.8156,136.4375 Q601.1906,136.4375 601.425,136.6953 Q601.6594,136.9531 601.6594,137.5625 L601.6594,139.0156 Q601.6594,139.625 601.425,139.8906 Q601.1906,140.1563 600.8156,140.1563 Q600.4719,140.1563 600.2688,139.9531 Q600.0656,139.7656 599.9563,139.25 Q599.9094,138.8906 599.7219,138.7031 Q599.3938,138.3281 598.7844,138.1094 Q598.175,137.8906 597.55,137.8906 Q596.7844,137.8906 596.1516,138.2188 Q595.5188,138.5469 595.0266,139.2969 Q594.5344,140.0469 594.5344,141.0781 L594.5344,142.1719 Q594.5344,143.4063 595.425,144.2266 Q596.3156,145.0469 597.9094,145.0469 Q598.8469,145.0469 599.5031,144.7969 Q599.8938,144.6406 600.3156,144.2031 Q600.5813,143.9375 600.7297,143.8594 Q600.8781,143.7813 601.0813,143.7813 Q601.4094,143.7813 601.6672,144.0391 Q601.925,144.2969 601.925,144.6406 Q601.925,144.9844 601.5813,145.3906 Q601.0813,145.9688 600.2844,146.2969 Q599.2063,146.75 597.9094,146.75 Q596.3938,146.75 595.1906,146.125 Q594.2063,145.625 593.5188,144.5547 Q592.8313,143.4844 592.8313,142.2031 L592.8313,141.0469 Q592.8313,139.7188 593.4484,138.5703 Q594.0656,137.4219 595.1594,136.8047 Q596.2531,136.1875 597.4875,136.1875 Q598.2219,136.1875 598.8703,136.3516 Q599.5188,136.5156 600.0656,136.875 Z " /><text fill="#000000" font-family="sans-serif" font-size="12" lengthAdjust="spacingAndGlyphs" textLength="43" x="614.7" y="145.9102">Delivery</text>
        <line style="stroke: #A80036; stroke-width: 1.5;" x1="568" x2="675" y1="157" y2="157" />
        <rect fill="none" height="6" style="stroke: #C82930; stroke-width: 1.0;" width="6" x="575" y="166.418" /><text fill="#000000" font-family="sans-serif" font-size="11" lengthAdjust="spacingAndGlyphs" textLength="83" x="587" y="172.4189">Integer idDelivery</text>
        <!--link Courier to User-->
        <path d="M442.082,76.344 C483.301,70.027 531.927,62.574 567.997,57.046 " fill="none" id="Courier-User" style="stroke: #A80036; stroke-width: 1.0;" /><text fill="#000000" font-family="sans-serif" font-size="13" lengthAdjust="spacingAndGlyphs" textLength="36" x="480" y="58.4951">act as</text>
        <polygon fill="#000000" points="519,51.6758,525,54.6758,519,57.6758,519,51.6758" style="stroke: #000000; stroke-width: 1.0;" /><text fill="#000000" font-family="sans-serif" font-size="13" lengthAdjust="spacingAndGlyphs" textLength="22" x="449.9146" y="89.4675">0..1</text><text fill="#000000" font-family="sans-serif" font-size="13" lengthAdjust="spacingAndGlyphs" textLength="7" x="552.981" y="72.8569">1</text>
        <!--link Courier to Delivery-->
        <path d="M442.082,108.934 C482.853,118.775 530.871,130.365 566.816,139.042 " fill="none" id="Courier-Delivery" style="stroke: #A80036; stroke-width: 1.0;" /><text fill="#000000" font-family="sans-serif" font-size="13" lengthAdjust="spacingAndGlyphs" textLength="50" x="473" y="113.4951">performs</text>
        <polygon fill="#000000" points="526,106.6758,532,109.6758,526,112.6758,526,106.6758" style="stroke: #000000; stroke-width: 1.0;" /><text fill="#000000" font-family="sans-serif" font-size="13" lengthAdjust="spacingAndGlyphs" textLength="7" x="450.1099" y="125.0198">1</text><text fill="#000000" font-family="sans-serif" font-size="13" lengthAdjust="spacingAndGlyphs" textLength="5" x="554.1319" y="151.9055">*</text>
        <!--link Platform to Courier-->
        <path d="M118.048,89 C162.166,89 224.761,89 274.888,89 " fill="none" id="Platform-Courier" style="stroke: #A80036; stroke-width: 1.0;" /><text fill="#000000" font-family="sans-serif" font-size="13" lengthAdjust="spacingAndGlyphs" textLength="82" x="149" y="85.4951">has registered</text>
        <polygon fill="#000000" points="234,78.6758,240,81.6758,234,84.6758,234,78.6758" style="stroke: #000000; stroke-width: 1.0;" /><text fill="#000000" font-family="sans-serif" font-size="13" lengthAdjust="spacingAndGlyphs" textLength="7" x="126.0498" y="103.6048">1</text><text fill="#000000" font-family="sans-serif" font-size="13" lengthAdjust="spacingAndGlyphs" textLength="5" x="261.9496" y="103.2481">*</text>
        <!--link Delivery to Order-->
        <path d="M676.017,168.4863 C710.203,179.0174 754.097,192.5392 786.856,202.6311 " fill="none" id="Delivery-Order" style="stroke: #A80036; stroke-width: 1.0;" /><text fill="#000000" font-family="sans-serif" font-size="13" lengthAdjust="spacingAndGlyphs" textLength="21" x="707" y="174.4951">has</text>
        <polygon fill="#000000" points="731,167.6758,737,170.6758,731,173.6758,731,167.6758" style="stroke: #000000; stroke-width: 1.0;" /><text fill="#000000" font-family="sans-serif" font-size="13" lengthAdjust="spacingAndGlyphs" textLength="7" x="684.1756" y="185.4611">1</text><text fill="#000000" font-family="sans-serif" font-size="13" lengthAdjust="spacingAndGlyphs" textLength="5" x="773.8643" y="215.1653">*</text>
        <!--link Delivery to Scooter-->
        <path d="M676.017,135.26 C705.197,126.133 741.45,114.793 771.815,105.295 " fill="none" id="Delivery-Scooter" style="stroke: #A80036; stroke-width: 1.0;" /><text fill="#000000" font-family="sans-serif" font-size="13" lengthAdjust="spacingAndGlyphs" textLength="21" x="707" y="112.4951">has</text>
        <polygon fill="#000000" points="731,105.6758,737,108.6758,731,111.6758,731,105.6758" style="stroke: #000000; stroke-width: 1.0;" /><text fill="#000000" font-family="sans-serif" font-size="13" lengthAdjust="spacingAndGlyphs" textLength="7" x="684.1756" y="147.5623">1</text><text fill="#000000" font-family="sans-serif" font-size="13" lengthAdjust="spacingAndGlyphs" textLength="7" x="757.1624" y="121.9655">1</text>
        <!--
@startuml

hide methods
left to right direction

class Platform {
  -String designation
}

class Scooter {
  -String id
  -Double capacity
  -Double power
  -Integer battery
  -Boolean isCharching
  -Boolean isParked
}

class Order{
  -Double fee
  -Integer credits
}

class Courier {
  -String name
  -String email
  -Integer phoneNumber
  -Integer socialSecurityNumber
  -Integer nif
  -String status
}

class User {
  -String name
  -String email
  -String password
}

class Delivery{
  -Integer idDelivery
}

Courier "0..1" - - "1" User : act as >
Courier "1" - - "*" Delivery :performs >

Platform "1" - - "*" Courier : has registered >

Delivery "1" - -"*" Order : has >
Delivery "1" - - "1"Scooter : has >
@enduml

PlantUML version 1.2018.14(Fri Dec 21 16:33:16 GMT 2018)
(GPL source distribution)
Java Runtime: Java(TM) SE Runtime Environment
JVM: Java HotSpot(TM) 64-Bit Server VM
Java Version: 1.8.0_251-b08
Operating System: Windows 10
OS Version: 10.0
Default Encoding: Cp1252
Language: pt
Country: PT
-->
    </g>
</svg>