<?xml version="1.0" encoding="UTF-8" standalone="no"?><svg xmlns="http://www.w3.org/2000/svg" xmlns:xlink="http://www.w3.org/1999/xlink" contentScriptType="application/ecmascript" contentStyleType="text/css" height="734px" preserveAspectRatio="none" style="width:956px;height:734px;" version="1.1" viewBox="0 0 956 734" width="956px" zoomAndPan="magnify"><defs><filter height="300%" id="f1gprn8tyokpct" width="300%" x="-1" y="-1"><feGaussianBlur result="blurOut" stdDeviation="2.0"/><feColorMatrix in="blurOut" result="blurOut2" type="matrix" values="0 0 0 0 0 0 0 0 0 0 0 0 0 0 0 0 0 0 .4 0"/><feOffset dx="4.0" dy="4.0" in="blurOut2" result="blurOut3"/><feBlend in="SourceGraphic" in2="blurOut3" mode="normal"/></filter></defs><g><!--class Platform--><rect fill="#FEFECE" filter="url(#f1gprn8tyokpct)" height="53.8359" id="Platform" style="stroke: #A80036; stroke-width: 1.5;" width="112" x="33.5" y="525"/><ellipse cx="63.8" cy="541" fill="#ADD1B2" rx="11" ry="11" style="stroke: #A80036; stroke-width: 1.0;"/><path d="M66.5656,536.875 Q66.7219,536.6563 66.9094,536.5469 Q67.0969,536.4375 67.3156,536.4375 Q67.6906,536.4375 67.925,536.6953 Q68.1594,536.9531 68.1594,537.5625 L68.1594,539.0156 Q68.1594,539.625 67.925,539.8906 Q67.6906,540.1563 67.3156,540.1563 Q66.9719,540.1563 66.7688,539.9531 Q66.5656,539.7656 66.4563,539.25 Q66.4094,538.8906 66.2219,538.7031 Q65.8938,538.3281 65.2844,538.1094 Q64.675,537.8906 64.05,537.8906 Q63.2844,537.8906 62.6516,538.2188 Q62.0188,538.5469 61.5266,539.2969 Q61.0344,540.0469 61.0344,541.0781 L61.0344,542.1719 Q61.0344,543.4063 61.925,544.2266 Q62.8156,545.0469 64.4094,545.0469 Q65.3469,545.0469 66.0031,544.7969 Q66.3938,544.6406 66.8156,544.2031 Q67.0813,543.9375 67.2297,543.8594 Q67.3781,543.7813 67.5813,543.7813 Q67.9094,543.7813 68.1672,544.0391 Q68.425,544.2969 68.425,544.6406 Q68.425,544.9844 68.0813,545.3906 Q67.5813,545.9688 66.7844,546.2969 Q65.7063,546.75 64.4094,546.75 Q62.8938,546.75 61.6906,546.125 Q60.7063,545.625 60.0188,544.5547 Q59.3313,543.4844 59.3313,542.2031 L59.3313,541.0469 Q59.3313,539.7188 59.9484,538.5703 Q60.5656,537.4219 61.6594,536.8047 Q62.7531,536.1875 63.9875,536.1875 Q64.7219,536.1875 65.3703,536.3516 Q66.0188,536.5156 66.5656,536.875 Z "/><text fill="#000000" font-family="sans-serif" font-size="12" lengthAdjust="spacingAndGlyphs" textLength="46" x="81.2" y="545.9102">Platform</text><line style="stroke: #A80036; stroke-width: 1.5;" x1="34.5" x2="144.5" y1="557" y2="557"/><rect fill="none" height="6" style="stroke: #C82930; stroke-width: 1.0;" width="6" x="41.5" y="566.418"/><text fill="#000000" font-family="sans-serif" font-size="11" lengthAdjust="spacingAndGlyphs" textLength="86" x="53.5" y="572.4189">String designation</text><!--class User--><rect fill="#FEFECE" filter="url(#f1gprn8tyokpct)" height="81.5078" id="User" style="stroke: #A80036; stroke-width: 1.5;" width="107" x="348.5" y="642"/><ellipse cx="385.1" cy="658" fill="#ADD1B2" rx="11" ry="11" style="stroke: #A80036; stroke-width: 1.0;"/><path d="M387.8656,653.875 Q388.0219,653.6563 388.2094,653.5469 Q388.3969,653.4375 388.6156,653.4375 Q388.9906,653.4375 389.225,653.6953 Q389.4594,653.9531 389.4594,654.5625 L389.4594,656.0156 Q389.4594,656.625 389.225,656.8906 Q388.9906,657.1563 388.6156,657.1563 Q388.2719,657.1563 388.0688,656.9531 Q387.8656,656.7656 387.7563,656.25 Q387.7094,655.8906 387.5219,655.7031 Q387.1938,655.3281 386.5844,655.1094 Q385.975,654.8906 385.35,654.8906 Q384.5844,654.8906 383.9516,655.2188 Q383.3188,655.5469 382.8266,656.2969 Q382.3344,657.0469 382.3344,658.0781 L382.3344,659.1719 Q382.3344,660.4063 383.225,661.2266 Q384.1156,662.0469 385.7094,662.0469 Q386.6469,662.0469 387.3031,661.7969 Q387.6938,661.6406 388.1156,661.2031 Q388.3813,660.9375 388.5297,660.8594 Q388.6781,660.7813 388.8813,660.7813 Q389.2094,660.7813 389.4672,661.0391 Q389.725,661.2969 389.725,661.6406 Q389.725,661.9844 389.3813,662.3906 Q388.8813,662.9688 388.0844,663.2969 Q387.0063,663.75 385.7094,663.75 Q384.1938,663.75 382.9906,663.125 Q382.0063,662.625 381.3188,661.5547 Q380.6313,660.4844 380.6313,659.2031 L380.6313,658.0469 Q380.6313,656.7188 381.2484,655.5703 Q381.8656,654.4219 382.9594,653.8047 Q384.0531,653.1875 385.2875,653.1875 Q386.0219,653.1875 386.6703,653.3516 Q387.3188,653.5156 387.8656,653.875 Z "/><text fill="#000000" font-family="sans-serif" font-size="12" lengthAdjust="spacingAndGlyphs" textLength="27" x="403.9" y="662.9102">User</text><line style="stroke: #A80036; stroke-width: 1.5;" x1="349.5" x2="454.5" y1="674" y2="674"/><rect fill="none" height="6" style="stroke: #C82930; stroke-width: 1.0;" width="6" x="356.5" y="683.418"/><text fill="#000000" font-family="sans-serif" font-size="11" lengthAdjust="spacingAndGlyphs" textLength="57" x="368.5" y="689.4189">String name</text><rect fill="none" height="6" style="stroke: #C82930; stroke-width: 1.0;" width="6" x="356.5" y="697.2539"/><text fill="#000000" font-family="sans-serif" font-size="11" lengthAdjust="spacingAndGlyphs" textLength="55" x="368.5" y="703.2549">String email</text><rect fill="none" height="6" style="stroke: #C82930; stroke-width: 1.0;" width="6" x="356.5" y="711.0898"/><text fill="#000000" font-family="sans-serif" font-size="11" lengthAdjust="spacingAndGlyphs" textLength="81" x="368.5" y="717.0908">String password</text><!--class Courier--><rect fill="#FEFECE" filter="url(#f1gprn8tyokpct)" height="109.1797" id="Courier" style="stroke: #A80036; stroke-width: 1.5;" width="167" x="6" y="238.5"/><ellipse cx="64.75" cy="254.5" fill="#ADD1B2" rx="11" ry="11" style="stroke: #A80036; stroke-width: 1.0;"/><path d="M67.5156,250.375 Q67.6719,250.1563 67.8594,250.0469 Q68.0469,249.9375 68.2656,249.9375 Q68.6406,249.9375 68.875,250.1953 Q69.1094,250.4531 69.1094,251.0625 L69.1094,252.5156 Q69.1094,253.125 68.875,253.3906 Q68.6406,253.6563 68.2656,253.6563 Q67.9219,253.6563 67.7188,253.4531 Q67.5156,253.2656 67.4063,252.75 Q67.3594,252.3906 67.1719,252.2031 Q66.8438,251.8281 66.2344,251.6094 Q65.625,251.3906 65,251.3906 Q64.2344,251.3906 63.6016,251.7188 Q62.9688,252.0469 62.4766,252.7969 Q61.9844,253.5469 61.9844,254.5781 L61.9844,255.6719 Q61.9844,256.9063 62.875,257.7266 Q63.7656,258.5469 65.3594,258.5469 Q66.2969,258.5469 66.9531,258.2969 Q67.3438,258.1406 67.7656,257.7031 Q68.0313,257.4375 68.1797,257.3594 Q68.3281,257.2813 68.5313,257.2813 Q68.8594,257.2813 69.1172,257.5391 Q69.375,257.7969 69.375,258.1406 Q69.375,258.4844 69.0313,258.8906 Q68.5313,259.4688 67.7344,259.7969 Q66.6563,260.25 65.3594,260.25 Q63.8438,260.25 62.6406,259.625 Q61.6563,259.125 60.9688,258.0547 Q60.2813,256.9844 60.2813,255.7031 L60.2813,254.5469 Q60.2813,253.2188 60.8984,252.0703 Q61.5156,250.9219 62.6094,250.3047 Q63.7031,249.6875 64.9375,249.6875 Q65.6719,249.6875 66.3203,249.8516 Q66.9688,250.0156 67.5156,250.375 Z "/><text fill="#000000" font-family="sans-serif" font-size="12" lengthAdjust="spacingAndGlyphs" textLength="41" x="85.25" y="259.4102">Courier</text><line style="stroke: #A80036; stroke-width: 1.5;" x1="7" x2="172" y1="270.5" y2="270.5"/><rect fill="none" height="6" style="stroke: #C82930; stroke-width: 1.0;" width="6" x="14" y="279.918"/><text fill="#000000" font-family="sans-serif" font-size="11" lengthAdjust="spacingAndGlyphs" textLength="57" x="26" y="285.9189">String name</text><rect fill="none" height="6" style="stroke: #C82930; stroke-width: 1.0;" width="6" x="14" y="293.7539"/><text fill="#000000" font-family="sans-serif" font-size="11" lengthAdjust="spacingAndGlyphs" textLength="55" x="26" y="299.7549">String email</text><rect fill="none" height="6" style="stroke: #C82930; stroke-width: 1.0;" width="6" x="14" y="307.5898"/><text fill="#000000" font-family="sans-serif" font-size="11" lengthAdjust="spacingAndGlyphs" textLength="103" x="26" y="313.5908">Integer phoneNumber</text><rect fill="none" height="6" style="stroke: #C82930; stroke-width: 1.0;" width="6" x="14" y="321.4258"/><text fill="#000000" font-family="sans-serif" font-size="11" lengthAdjust="spacingAndGlyphs" textLength="141" x="26" y="327.4268">Integer socialSecurityNumber</text><rect fill="none" height="6" style="stroke: #C82930; stroke-width: 1.0;" width="6" x="14" y="335.2617"/><text fill="#000000" font-family="sans-serif" font-size="11" lengthAdjust="spacingAndGlyphs" textLength="48" x="26" y="341.2627">Integer nif</text><!--class Order--><rect fill="#FEFECE" filter="url(#f1gprn8tyokpct)" height="53.8359" id="Order" style="stroke: #A80036; stroke-width: 1.5;" width="103" x="604.5" y="525"/><ellipse cx="637.5" cy="541" fill="#ADD1B2" rx="11" ry="11" style="stroke: #A80036; stroke-width: 1.0;"/><path d="M640.2656,536.875 Q640.4219,536.6563 640.6094,536.5469 Q640.7969,536.4375 641.0156,536.4375 Q641.3906,536.4375 641.625,536.6953 Q641.8594,536.9531 641.8594,537.5625 L641.8594,539.0156 Q641.8594,539.625 641.625,539.8906 Q641.3906,540.1563 641.0156,540.1563 Q640.6719,540.1563 640.4688,539.9531 Q640.2656,539.7656 640.1563,539.25 Q640.1094,538.8906 639.9219,538.7031 Q639.5938,538.3281 638.9844,538.1094 Q638.375,537.8906 637.75,537.8906 Q636.9844,537.8906 636.3516,538.2188 Q635.7188,538.5469 635.2266,539.2969 Q634.7344,540.0469 634.7344,541.0781 L634.7344,542.1719 Q634.7344,543.4063 635.625,544.2266 Q636.5156,545.0469 638.1094,545.0469 Q639.0469,545.0469 639.7031,544.7969 Q640.0938,544.6406 640.5156,544.2031 Q640.7813,543.9375 640.9297,543.8594 Q641.0781,543.7813 641.2813,543.7813 Q641.6094,543.7813 641.8672,544.0391 Q642.125,544.2969 642.125,544.6406 Q642.125,544.9844 641.7813,545.3906 Q641.2813,545.9688 640.4844,546.2969 Q639.4063,546.75 638.1094,546.75 Q636.5938,546.75 635.3906,546.125 Q634.4063,545.625 633.7188,544.5547 Q633.0313,543.4844 633.0313,542.2031 L633.0313,541.0469 Q633.0313,539.7188 633.6484,538.5703 Q634.2656,537.4219 635.3594,536.8047 Q636.4531,536.1875 637.6875,536.1875 Q638.4219,536.1875 639.0703,536.3516 Q639.7188,536.5156 640.2656,536.875 Z "/><text fill="#000000" font-family="sans-serif" font-size="12" lengthAdjust="spacingAndGlyphs" textLength="31" x="655.5" y="545.9102">Order</text><line style="stroke: #A80036; stroke-width: 1.5;" x1="605.5" x2="706.5" y1="557" y2="557"/><rect fill="none" height="6" style="stroke: #C82930; stroke-width: 1.0;" width="6" x="612.5" y="566.418"/><text fill="#000000" font-family="sans-serif" font-size="11" lengthAdjust="spacingAndGlyphs" textLength="77" x="624.5" y="572.4189">Double distance</text><!--class Client--><rect fill="#FEFECE" filter="url(#f1gprn8tyokpct)" height="109.1797" id="Client" style="stroke: #A80036; stroke-width: 1.5;" width="144" x="330" y="497.5"/><ellipse cx="381.75" cy="513.5" fill="#ADD1B2" rx="11" ry="11" style="stroke: #A80036; stroke-width: 1.0;"/><path d="M384.5156,509.375 Q384.6719,509.1563 384.8594,509.0469 Q385.0469,508.9375 385.2656,508.9375 Q385.6406,508.9375 385.875,509.1953 Q386.1094,509.4531 386.1094,510.0625 L386.1094,511.5156 Q386.1094,512.125 385.875,512.3906 Q385.6406,512.6563 385.2656,512.6563 Q384.9219,512.6563 384.7188,512.4531 Q384.5156,512.2656 384.4063,511.75 Q384.3594,511.3906 384.1719,511.2031 Q383.8438,510.8281 383.2344,510.6094 Q382.625,510.3906 382,510.3906 Q381.2344,510.3906 380.6016,510.7188 Q379.9688,511.0469 379.4766,511.7969 Q378.9844,512.5469 378.9844,513.5781 L378.9844,514.6719 Q378.9844,515.9063 379.875,516.7266 Q380.7656,517.5469 382.3594,517.5469 Q383.2969,517.5469 383.9531,517.2969 Q384.3438,517.1406 384.7656,516.7031 Q385.0313,516.4375 385.1797,516.3594 Q385.3281,516.2813 385.5313,516.2813 Q385.8594,516.2813 386.1172,516.5391 Q386.375,516.7969 386.375,517.1406 Q386.375,517.4844 386.0313,517.8906 Q385.5313,518.4688 384.7344,518.7969 Q383.6563,519.25 382.3594,519.25 Q380.8438,519.25 379.6406,518.625 Q378.6563,518.125 377.9688,517.0547 Q377.2813,515.9844 377.2813,514.7031 L377.2813,513.5469 Q377.2813,512.2188 377.8984,511.0703 Q378.5156,509.9219 379.6094,509.3047 Q380.7031,508.6875 381.9375,508.6875 Q382.6719,508.6875 383.3203,508.8516 Q383.9688,509.0156 384.5156,509.375 Z "/><text fill="#000000" font-family="sans-serif" font-size="12" lengthAdjust="spacingAndGlyphs" textLength="32" x="402.25" y="518.4102">Client</text><line style="stroke: #A80036; stroke-width: 1.5;" x1="331" x2="473" y1="529.5" y2="529.5"/><rect fill="none" height="6" style="stroke: #C82930; stroke-width: 1.0;" width="6" x="338" y="538.918"/><text fill="#000000" font-family="sans-serif" font-size="11" lengthAdjust="spacingAndGlyphs" textLength="57" x="350" y="544.9189">String name</text><rect fill="none" height="6" style="stroke: #C82930; stroke-width: 1.0;" width="6" x="338" y="552.7539"/><text fill="#000000" font-family="sans-serif" font-size="11" lengthAdjust="spacingAndGlyphs" textLength="55" x="350" y="558.7549">String email</text><rect fill="none" height="6" style="stroke: #C82930; stroke-width: 1.0;" width="6" x="338" y="566.5898"/><text fill="#000000" font-family="sans-serif" font-size="11" lengthAdjust="spacingAndGlyphs" textLength="118" x="350" y="572.5908">String creditCardNumber</text><rect fill="none" height="6" style="stroke: #C82930; stroke-width: 1.0;" width="6" x="338" y="580.4258"/><text fill="#000000" font-family="sans-serif" font-size="11" lengthAdjust="spacingAndGlyphs" textLength="80" x="350" y="586.4268">Date validityDate</text><rect fill="none" height="6" style="stroke: #C82930; stroke-width: 1.0;" width="6" x="338" y="594.2617"/><text fill="#000000" font-family="sans-serif" font-size="11" lengthAdjust="spacingAndGlyphs" textLength="54" x="350" y="600.2627">Integer ccv</text><!--class Product--><rect fill="#FEFECE" filter="url(#f1gprn8tyokpct)" height="109.1797" id="Product" style="stroke: #A80036; stroke-width: 1.5;" width="110" x="822" y="385.5"/><ellipse cx="853.2" cy="401.5" fill="#ADD1B2" rx="11" ry="11" style="stroke: #A80036; stroke-width: 1.0;"/><path d="M855.9656,397.375 Q856.1219,397.1563 856.3094,397.0469 Q856.4969,396.9375 856.7156,396.9375 Q857.0906,396.9375 857.325,397.1953 Q857.5594,397.4531 857.5594,398.0625 L857.5594,399.5156 Q857.5594,400.125 857.325,400.3906 Q857.0906,400.6563 856.7156,400.6563 Q856.3719,400.6563 856.1688,400.4531 Q855.9656,400.2656 855.8563,399.75 Q855.8094,399.3906 855.6219,399.2031 Q855.2938,398.8281 854.6844,398.6094 Q854.075,398.3906 853.45,398.3906 Q852.6844,398.3906 852.0516,398.7188 Q851.4188,399.0469 850.9266,399.7969 Q850.4344,400.5469 850.4344,401.5781 L850.4344,402.6719 Q850.4344,403.9063 851.325,404.7266 Q852.2156,405.5469 853.8094,405.5469 Q854.7469,405.5469 855.4031,405.2969 Q855.7938,405.1406 856.2156,404.7031 Q856.4813,404.4375 856.6297,404.3594 Q856.7781,404.2813 856.9813,404.2813 Q857.3094,404.2813 857.5672,404.5391 Q857.825,404.7969 857.825,405.1406 Q857.825,405.4844 857.4813,405.8906 Q856.9813,406.4688 856.1844,406.7969 Q855.1063,407.25 853.8094,407.25 Q852.2938,407.25 851.0906,406.625 Q850.1063,406.125 849.4188,405.0547 Q848.7313,403.9844 848.7313,402.7031 L848.7313,401.5469 Q848.7313,400.2188 849.3484,399.0703 Q849.9656,397.9219 851.0594,397.3047 Q852.1531,396.6875 853.3875,396.6875 Q854.1219,396.6875 854.7703,396.8516 Q855.4188,397.0156 855.9656,397.375 Z "/><text fill="#000000" font-family="sans-serif" font-size="12" lengthAdjust="spacingAndGlyphs" textLength="42" x="870.8" y="406.4102">Product</text><line style="stroke: #A80036; stroke-width: 1.5;" x1="823" x2="931" y1="417.5" y2="417.5"/><rect fill="none" height="6" style="stroke: #C82930; stroke-width: 1.0;" width="6" x="830" y="426.918"/><text fill="#000000" font-family="sans-serif" font-size="11" lengthAdjust="spacingAndGlyphs" textLength="57" x="842" y="432.9189">String name</text><rect fill="none" height="6" style="stroke: #C82930; stroke-width: 1.0;" width="6" x="830" y="440.7539"/><text fill="#000000" font-family="sans-serif" font-size="11" lengthAdjust="spacingAndGlyphs" textLength="79" x="842" y="446.7549">String reference</text><rect fill="none" height="6" style="stroke: #C82930; stroke-width: 1.0;" width="6" x="830" y="454.5898"/><text fill="#000000" font-family="sans-serif" font-size="11" lengthAdjust="spacingAndGlyphs" textLength="84" x="842" y="460.5908">String description</text><rect fill="none" height="6" style="stroke: #C82930; stroke-width: 1.0;" width="6" x="830" y="468.4258"/><text fill="#000000" font-family="sans-serif" font-size="11" lengthAdjust="spacingAndGlyphs" textLength="60" x="842" y="474.4268">Double price</text><rect fill="none" height="6" style="stroke: #C82930; stroke-width: 1.0;" width="6" x="830" y="482.2617"/><text fill="#000000" font-family="sans-serif" font-size="11" lengthAdjust="spacingAndGlyphs" textLength="71" x="842" y="488.2627">Integer amount</text><!--class Scooter--><rect fill="#FEFECE" filter="url(#f1gprn8tyokpct)" height="109.1797" id="Scooter" style="stroke: #A80036; stroke-width: 1.5;" width="114" x="599" y="60.5"/><ellipse cx="632" cy="76.5" fill="#ADD1B2" rx="11" ry="11" style="stroke: #A80036; stroke-width: 1.0;"/><path d="M634.7656,72.375 Q634.9219,72.1563 635.1094,72.0469 Q635.2969,71.9375 635.5156,71.9375 Q635.8906,71.9375 636.125,72.1953 Q636.3594,72.4531 636.3594,73.0625 L636.3594,74.5156 Q636.3594,75.125 636.125,75.3906 Q635.8906,75.6563 635.5156,75.6563 Q635.1719,75.6563 634.9688,75.4531 Q634.7656,75.2656 634.6563,74.75 Q634.6094,74.3906 634.4219,74.2031 Q634.0938,73.8281 633.4844,73.6094 Q632.875,73.3906 632.25,73.3906 Q631.4844,73.3906 630.8516,73.7188 Q630.2188,74.0469 629.7266,74.7969 Q629.2344,75.5469 629.2344,76.5781 L629.2344,77.6719 Q629.2344,78.9063 630.125,79.7266 Q631.0156,80.5469 632.6094,80.5469 Q633.5469,80.5469 634.2031,80.2969 Q634.5938,80.1406 635.0156,79.7031 Q635.2813,79.4375 635.4297,79.3594 Q635.5781,79.2813 635.7813,79.2813 Q636.1094,79.2813 636.3672,79.5391 Q636.625,79.7969 636.625,80.1406 Q636.625,80.4844 636.2813,80.8906 Q635.7813,81.4688 634.9844,81.7969 Q633.9063,82.25 632.6094,82.25 Q631.0938,82.25 629.8906,81.625 Q628.9063,81.125 628.2188,80.0547 Q627.5313,78.9844 627.5313,77.7031 L627.5313,76.5469 Q627.5313,75.2188 628.1484,74.0703 Q628.7656,72.9219 629.8594,72.3047 Q630.9531,71.6875 632.1875,71.6875 Q632.9219,71.6875 633.5703,71.8516 Q634.2188,72.0156 634.7656,72.375 Z "/><text fill="#000000" font-family="sans-serif" font-size="12" lengthAdjust="spacingAndGlyphs" textLength="42" x="650" y="81.4102">Scooter</text><line style="stroke: #A80036; stroke-width: 1.5;" x1="600" x2="712" y1="92.5" y2="92.5"/><rect fill="none" height="6" style="stroke: #C82930; stroke-width: 1.0;" width="6" x="607" y="101.918"/><text fill="#000000" font-family="sans-serif" font-size="11" lengthAdjust="spacingAndGlyphs" textLength="39" x="619" y="107.9189">String id</text><rect fill="none" height="6" style="stroke: #C82930; stroke-width: 1.0;" width="6" x="607" y="115.7539"/><text fill="#000000" font-family="sans-serif" font-size="11" lengthAdjust="spacingAndGlyphs" textLength="77" x="619" y="121.7549">Double capacity</text><rect fill="none" height="6" style="stroke: #C82930; stroke-width: 1.0;" width="6" x="607" y="129.5898"/><text fill="#000000" font-family="sans-serif" font-size="11" lengthAdjust="spacingAndGlyphs" textLength="68" x="619" y="135.5908">Double power</text><rect fill="none" height="6" style="stroke: #C82930; stroke-width: 1.0;" width="6" x="607" y="143.4258"/><text fill="#000000" font-family="sans-serif" font-size="11" lengthAdjust="spacingAndGlyphs" textLength="88" x="619" y="149.4268">Double maxPower</text><rect fill="none" height="6" style="stroke: #C82930; stroke-width: 1.0;" width="6" x="607" y="157.2617"/><text fill="#000000" font-family="sans-serif" font-size="11" lengthAdjust="spacingAndGlyphs" textLength="70" x="619" y="163.2627">Integer battery</text><!--class Administrator--><rect fill="#FEFECE" filter="url(#f1gprn8tyokpct)" height="53.8359" id="Administrator" style="stroke: #A80036; stroke-width: 1.5;" width="105" x="37" y="633"/><ellipse cx="52" cy="649" fill="#ADD1B2" rx="11" ry="11" style="stroke: #A80036; stroke-width: 1.0;"/><path d="M54.7656,644.875 Q54.9219,644.6563 55.1094,644.5469 Q55.2969,644.4375 55.5156,644.4375 Q55.8906,644.4375 56.125,644.6953 Q56.3594,644.9531 56.3594,645.5625 L56.3594,647.0156 Q56.3594,647.625 56.125,647.8906 Q55.8906,648.1563 55.5156,648.1563 Q55.1719,648.1563 54.9688,647.9531 Q54.7656,647.7656 54.6563,647.25 Q54.6094,646.8906 54.4219,646.7031 Q54.0938,646.3281 53.4844,646.1094 Q52.875,645.8906 52.25,645.8906 Q51.4844,645.8906 50.8516,646.2188 Q50.2188,646.5469 49.7266,647.2969 Q49.2344,648.0469 49.2344,649.0781 L49.2344,650.1719 Q49.2344,651.4063 50.125,652.2266 Q51.0156,653.0469 52.6094,653.0469 Q53.5469,653.0469 54.2031,652.7969 Q54.5938,652.6406 55.0156,652.2031 Q55.2813,651.9375 55.4297,651.8594 Q55.5781,651.7813 55.7813,651.7813 Q56.1094,651.7813 56.3672,652.0391 Q56.625,652.2969 56.625,652.6406 Q56.625,652.9844 56.2813,653.3906 Q55.7813,653.9688 54.9844,654.2969 Q53.9063,654.75 52.6094,654.75 Q51.0938,654.75 49.8906,654.125 Q48.9063,653.625 48.2188,652.5547 Q47.5313,651.4844 47.5313,650.2031 L47.5313,649.0469 Q47.5313,647.7188 48.1484,646.5703 Q48.7656,645.4219 49.8594,644.8047 Q50.9531,644.1875 52.1875,644.1875 Q52.9219,644.1875 53.5703,644.3516 Q54.2188,644.5156 54.7656,644.875 Z "/><text fill="#000000" font-family="sans-serif" font-size="12" lengthAdjust="spacingAndGlyphs" textLength="73" x="66" y="653.9102">Administrator</text><line style="stroke: #A80036; stroke-width: 1.5;" x1="38" x2="141" y1="665" y2="665"/><rect fill="none" height="6" style="stroke: #C82930; stroke-width: 1.0;" width="6" x="45" y="674.418"/><text fill="#000000" font-family="sans-serif" font-size="11" lengthAdjust="spacingAndGlyphs" textLength="55" x="57" y="680.4189">String email</text><!--class Pharmacy--><rect fill="#FEFECE" filter="url(#f1gprn8tyokpct)" height="67.6719" id="Pharmacy" style="stroke: #A80036; stroke-width: 1.5;" width="112" x="346" y="226"/><ellipse cx="372.25" cy="242" fill="#ADD1B2" rx="11" ry="11" style="stroke: #A80036; stroke-width: 1.0;"/><path d="M375.0156,237.875 Q375.1719,237.6563 375.3594,237.5469 Q375.5469,237.4375 375.7656,237.4375 Q376.1406,237.4375 376.375,237.6953 Q376.6094,237.9531 376.6094,238.5625 L376.6094,240.0156 Q376.6094,240.625 376.375,240.8906 Q376.1406,241.1563 375.7656,241.1563 Q375.4219,241.1563 375.2188,240.9531 Q375.0156,240.7656 374.9063,240.25 Q374.8594,239.8906 374.6719,239.7031 Q374.3438,239.3281 373.7344,239.1094 Q373.125,238.8906 372.5,238.8906 Q371.7344,238.8906 371.1016,239.2188 Q370.4688,239.5469 369.9766,240.2969 Q369.4844,241.0469 369.4844,242.0781 L369.4844,243.1719 Q369.4844,244.4063 370.375,245.2266 Q371.2656,246.0469 372.8594,246.0469 Q373.7969,246.0469 374.4531,245.7969 Q374.8438,245.6406 375.2656,245.2031 Q375.5313,244.9375 375.6797,244.8594 Q375.8281,244.7813 376.0313,244.7813 Q376.3594,244.7813 376.6172,245.0391 Q376.875,245.2969 376.875,245.6406 Q376.875,245.9844 376.5313,246.3906 Q376.0313,246.9688 375.2344,247.2969 Q374.1563,247.75 372.8594,247.75 Q371.3438,247.75 370.1406,247.125 Q369.1563,246.625 368.4688,245.5547 Q367.7813,244.4844 367.7813,243.2031 L367.7813,242.0469 Q367.7813,240.7188 368.3984,239.5703 Q369.0156,238.4219 370.1094,237.8047 Q371.2031,237.1875 372.4375,237.1875 Q373.1719,237.1875 373.8203,237.3516 Q374.4688,237.5156 375.0156,237.875 Z "/><text fill="#000000" font-family="sans-serif" font-size="12" lengthAdjust="spacingAndGlyphs" textLength="55" x="388.75" y="246.9102">Pharmacy</text><line style="stroke: #A80036; stroke-width: 1.5;" x1="347" x2="457" y1="258" y2="258"/><rect fill="none" height="6" style="stroke: #C82930; stroke-width: 1.0;" width="6" x="354" y="267.418"/><text fill="#000000" font-family="sans-serif" font-size="11" lengthAdjust="spacingAndGlyphs" textLength="86" x="366" y="273.4189">String designation</text><rect fill="none" height="6" style="stroke: #C82930; stroke-width: 1.0;" width="6" x="354" y="281.2539"/><text fill="#000000" font-family="sans-serif" font-size="11" lengthAdjust="spacingAndGlyphs" textLength="55" x="366" y="287.2549">String email</text><!--class Address--><rect fill="#FEFECE" filter="url(#f1gprn8tyokpct)" height="109.1797" id="Address" style="stroke: #A80036; stroke-width: 1.5;" width="136" x="809" y="529.5"/><ellipse cx="850.1" cy="545.5" fill="#ADD1B2" rx="11" ry="11" style="stroke: #A80036; stroke-width: 1.0;"/><path d="M852.8656,541.375 Q853.0219,541.1563 853.2094,541.0469 Q853.3969,540.9375 853.6156,540.9375 Q853.9906,540.9375 854.225,541.1953 Q854.4594,541.4531 854.4594,542.0625 L854.4594,543.5156 Q854.4594,544.125 854.225,544.3906 Q853.9906,544.6563 853.6156,544.6563 Q853.2719,544.6563 853.0688,544.4531 Q852.8656,544.2656 852.7563,543.75 Q852.7094,543.3906 852.5219,543.2031 Q852.1938,542.8281 851.5844,542.6094 Q850.975,542.3906 850.35,542.3906 Q849.5844,542.3906 848.9516,542.7188 Q848.3188,543.0469 847.8266,543.7969 Q847.3344,544.5469 847.3344,545.5781 L847.3344,546.6719 Q847.3344,547.9063 848.225,548.7266 Q849.1156,549.5469 850.7094,549.5469 Q851.6469,549.5469 852.3031,549.2969 Q852.6938,549.1406 853.1156,548.7031 Q853.3813,548.4375 853.5297,548.3594 Q853.6781,548.2813 853.8813,548.2813 Q854.2094,548.2813 854.4672,548.5391 Q854.725,548.7969 854.725,549.1406 Q854.725,549.4844 854.3813,549.8906 Q853.8813,550.4688 853.0844,550.7969 Q852.0063,551.25 850.7094,551.25 Q849.1938,551.25 847.9906,550.625 Q847.0063,550.125 846.3188,549.0547 Q845.6313,547.9844 845.6313,546.7031 L845.6313,545.5469 Q845.6313,544.2188 846.2484,543.0703 Q846.8656,541.9219 847.9594,541.3047 Q849.0531,540.6875 850.2875,540.6875 Q851.0219,540.6875 851.6703,540.8516 Q852.3188,541.0156 852.8656,541.375 Z "/><text fill="#000000" font-family="sans-serif" font-size="12" lengthAdjust="spacingAndGlyphs" textLength="46" x="869.9" y="550.4102">Address</text><line style="stroke: #A80036; stroke-width: 1.5;" x1="810" x2="944" y1="561.5" y2="561.5"/><rect fill="none" height="6" style="stroke: #C82930; stroke-width: 1.0;" width="6" x="817" y="570.918"/><text fill="#000000" font-family="sans-serif" font-size="11" lengthAdjust="spacingAndGlyphs" textLength="59" x="829" y="576.9189">String street</text><rect fill="none" height="6" style="stroke: #C82930; stroke-width: 1.0;" width="6" x="817" y="584.7539"/><text fill="#000000" font-family="sans-serif" font-size="11" lengthAdjust="spacingAndGlyphs" textLength="85" x="829" y="590.7549">String postalCode</text><rect fill="none" height="6" style="stroke: #C82930; stroke-width: 1.0;" width="6" x="817" y="598.5898"/><text fill="#000000" font-family="sans-serif" font-size="11" lengthAdjust="spacingAndGlyphs" textLength="72" x="829" y="604.5908">Integer number</text><rect fill="none" height="6" style="stroke: #C82930; stroke-width: 1.0;" width="6" x="817" y="612.4258"/><text fill="#000000" font-family="sans-serif" font-size="11" lengthAdjust="spacingAndGlyphs" textLength="64" x="829" y="618.4268">String locality</text><rect fill="none" height="6" style="stroke: #C82930; stroke-width: 1.0;" width="6" x="817" y="626.2617"/><text fill="#000000" font-family="sans-serif" font-size="11" lengthAdjust="spacingAndGlyphs" textLength="110" x="829" y="632.2627">String GPSCoordinates</text><!--class Drone--><rect fill="#FEFECE" filter="url(#f1gprn8tyokpct)" height="109.1797" id="Drone" style="stroke: #A80036; stroke-width: 1.5;" width="114" x="599" y="204.5"/><ellipse cx="635.6" cy="220.5" fill="#ADD1B2" rx="11" ry="11" style="stroke: #A80036; stroke-width: 1.0;"/><path d="M638.3656,216.375 Q638.5219,216.1563 638.7094,216.0469 Q638.8969,215.9375 639.1156,215.9375 Q639.4906,215.9375 639.725,216.1953 Q639.9594,216.4531 639.9594,217.0625 L639.9594,218.5156 Q639.9594,219.125 639.725,219.3906 Q639.4906,219.6563 639.1156,219.6563 Q638.7719,219.6563 638.5688,219.4531 Q638.3656,219.2656 638.2563,218.75 Q638.2094,218.3906 638.0219,218.2031 Q637.6938,217.8281 637.0844,217.6094 Q636.475,217.3906 635.85,217.3906 Q635.0844,217.3906 634.4516,217.7188 Q633.8188,218.0469 633.3266,218.7969 Q632.8344,219.5469 632.8344,220.5781 L632.8344,221.6719 Q632.8344,222.9063 633.725,223.7266 Q634.6156,224.5469 636.2094,224.5469 Q637.1469,224.5469 637.8031,224.2969 Q638.1938,224.1406 638.6156,223.7031 Q638.8813,223.4375 639.0297,223.3594 Q639.1781,223.2813 639.3813,223.2813 Q639.7094,223.2813 639.9672,223.5391 Q640.225,223.7969 640.225,224.1406 Q640.225,224.4844 639.8813,224.8906 Q639.3813,225.4688 638.5844,225.7969 Q637.5063,226.25 636.2094,226.25 Q634.6938,226.25 633.4906,225.625 Q632.5063,225.125 631.8188,224.0547 Q631.1313,222.9844 631.1313,221.7031 L631.1313,220.5469 Q631.1313,219.2188 631.7484,218.0703 Q632.3656,216.9219 633.4594,216.3047 Q634.5531,215.6875 635.7875,215.6875 Q636.5219,215.6875 637.1703,215.8516 Q637.8188,216.0156 638.3656,216.375 Z "/><text fill="#000000" font-family="sans-serif" font-size="12" lengthAdjust="spacingAndGlyphs" textLength="34" x="654.4" y="225.4102">Drone</text><line style="stroke: #A80036; stroke-width: 1.5;" x1="600" x2="712" y1="236.5" y2="236.5"/><rect fill="none" height="6" style="stroke: #C82930; stroke-width: 1.0;" width="6" x="607" y="245.918"/><text fill="#000000" font-family="sans-serif" font-size="11" lengthAdjust="spacingAndGlyphs" textLength="39" x="619" y="251.9189">String id</text><rect fill="none" height="6" style="stroke: #C82930; stroke-width: 1.0;" width="6" x="607" y="259.7539"/><text fill="#000000" font-family="sans-serif" font-size="11" lengthAdjust="spacingAndGlyphs" textLength="77" x="619" y="265.7549">Double capacity</text><rect fill="none" height="6" style="stroke: #C82930; stroke-width: 1.0;" width="6" x="607" y="273.5898"/><text fill="#000000" font-family="sans-serif" font-size="11" lengthAdjust="spacingAndGlyphs" textLength="68" x="619" y="279.5908">Double power</text><rect fill="none" height="6" style="stroke: #C82930; stroke-width: 1.0;" width="6" x="607" y="287.4258"/><text fill="#000000" font-family="sans-serif" font-size="11" lengthAdjust="spacingAndGlyphs" textLength="88" x="619" y="293.4268">Double maxPower</text><rect fill="none" height="6" style="stroke: #C82930; stroke-width: 1.0;" width="6" x="607" y="301.2617"/><text fill="#000000" font-family="sans-serif" font-size="11" lengthAdjust="spacingAndGlyphs" textLength="70" x="619" y="307.2627">Integer battery</text><!--class Delivery--><rect fill="#FEFECE" filter="url(#f1gprn8tyokpct)" height="53.8359" id="Delivery" style="stroke: #A80036; stroke-width: 1.5;" width="75" x="364.5" y="408"/><ellipse cx="379.5" cy="424" fill="#ADD1B2" rx="11" ry="11" style="stroke: #A80036; stroke-width: 1.0;"/><path d="M382.2656,419.875 Q382.4219,419.6563 382.6094,419.5469 Q382.7969,419.4375 383.0156,419.4375 Q383.3906,419.4375 383.625,419.6953 Q383.8594,419.9531 383.8594,420.5625 L383.8594,422.0156 Q383.8594,422.625 383.625,422.8906 Q383.3906,423.1563 383.0156,423.1563 Q382.6719,423.1563 382.4688,422.9531 Q382.2656,422.7656 382.1563,422.25 Q382.1094,421.8906 381.9219,421.7031 Q381.5938,421.3281 380.9844,421.1094 Q380.375,420.8906 379.75,420.8906 Q378.9844,420.8906 378.3516,421.2188 Q377.7188,421.5469 377.2266,422.2969 Q376.7344,423.0469 376.7344,424.0781 L376.7344,425.1719 Q376.7344,426.4063 377.625,427.2266 Q378.5156,428.0469 380.1094,428.0469 Q381.0469,428.0469 381.7031,427.7969 Q382.0938,427.6406 382.5156,427.2031 Q382.7813,426.9375 382.9297,426.8594 Q383.0781,426.7813 383.2813,426.7813 Q383.6094,426.7813 383.8672,427.0391 Q384.125,427.2969 384.125,427.6406 Q384.125,427.9844 383.7813,428.3906 Q383.2813,428.9688 382.4844,429.2969 Q381.4063,429.75 380.1094,429.75 Q378.5938,429.75 377.3906,429.125 Q376.4063,428.625 375.7188,427.5547 Q375.0313,426.4844 375.0313,425.2031 L375.0313,424.0469 Q375.0313,422.7188 375.6484,421.5703 Q376.2656,420.4219 377.3594,419.8047 Q378.4531,419.1875 379.6875,419.1875 Q380.4219,419.1875 381.0703,419.3516 Q381.7188,419.5156 382.2656,419.875 Z "/><text fill="#000000" font-family="sans-serif" font-size="12" lengthAdjust="spacingAndGlyphs" textLength="43" x="393.5" y="428.9102">Delivery</text><line style="stroke: #A80036; stroke-width: 1.5;" x1="365.5" x2="438.5" y1="440" y2="440"/><rect fill="none" height="6" style="stroke: #C82930; stroke-width: 1.0;" width="6" x="372.5" y="449.418"/><text fill="#000000" font-family="sans-serif" font-size="11" lengthAdjust="spacingAndGlyphs" textLength="44" x="384.5" y="455.4189">Integer id</text><!--link Platform to User--><path d="M145.653,575.269 C202.988,599.459 292.073,637.0436 348.43,660.8208 " fill="none" id="Platform-User" style="stroke: #A80036; stroke-width: 1.0;"/><text fill="#000000" font-family="sans-serif" font-size="13" lengthAdjust="spacingAndGlyphs" textLength="82" x="204" y="597.4951">has registered</text><polygon fill="#000000" points="289,590.6758,295,593.6758,289,596.6758,289,590.6758" style="stroke: #000000; stroke-width: 1.0;"/><text fill="#000000" font-family="sans-serif" font-size="13" lengthAdjust="spacingAndGlyphs" textLength="7" x="153.6689" y="593.0005">1</text><text fill="#000000" font-family="sans-serif" font-size="13" lengthAdjust="spacingAndGlyphs" textLength="5" x="335.5452" y="672.3813">*</text><!--link Platform to Pharmacy--><path d="M113.509,524.729 C134.951,500.444 168.694,464.99 203,440 C242.203,411.443 262.69,420.989 300,390 C333.089,362.517 362.179,322.418 380.537,294.035 " fill="none" id="Platform-Pharmacy" style="stroke: #A80036; stroke-width: 1.0;"/><text fill="#000000" font-family="sans-serif" font-size="13" lengthAdjust="spacingAndGlyphs" textLength="82" x="204" y="386.4951">has registered</text><polygon fill="#000000" points="289,379.6758,295,382.6758,289,385.6758,289,379.6758" style="stroke: #000000; stroke-width: 1.0;"/><text fill="#000000" font-family="sans-serif" font-size="13" lengthAdjust="spacingAndGlyphs" textLength="7" x="111.2517" y="514.1273">1</text><text fill="#000000" font-family="sans-serif" font-size="13" lengthAdjust="spacingAndGlyphs" textLength="7" x="369.0905" y="315.0781">1</text><!--link Platform to Client--><path d="M145.653,552 C197.063,552 273.999,552 329.98,552 " fill="none" id="Platform-Client" style="stroke: #A80036; stroke-width: 1.0;"/><text fill="#000000" font-family="sans-serif" font-size="13" lengthAdjust="spacingAndGlyphs" textLength="82" x="204" y="548.4951">has registered</text><polygon fill="#000000" points="289,541.6758,295,544.6758,289,547.6758,289,541.6758" style="stroke: #000000; stroke-width: 1.0;"/><text fill="#000000" font-family="sans-serif" font-size="13" lengthAdjust="spacingAndGlyphs" textLength="7" x="153.6689" y="566.6048">1</text><text fill="#000000" font-family="sans-serif" font-size="13" lengthAdjust="spacingAndGlyphs" textLength="5" x="316.8294" y="566.3795">*</text><!--link Client to Product--><path d="M465.939,497.412 C477.931,489.361 490.861,482.08 504,477 C610.995,435.632 747.575,433.749 821.883,436.549 " fill="none" id="Client-Product" style="stroke: #A80036; stroke-width: 1.0;"/><text fill="#000000" font-family="sans-serif" font-size="13" lengthAdjust="spacingAndGlyphs" textLength="21" x="639" y="433.4951">buy</text><polygon fill="#000000" points="663,426.6758,669,429.6758,663,432.6758,663,426.6758" style="stroke: #000000; stroke-width: 1.0;"/><text fill="#000000" font-family="sans-serif" font-size="13" lengthAdjust="spacingAndGlyphs" textLength="7" x="467.0605" y="486.5084">1</text><text fill="#000000" font-family="sans-serif" font-size="13" lengthAdjust="spacingAndGlyphs" textLength="5" x="809.1407" y="450.6669">*</text><!--link Client to Order--><path d="M474.165,555.965 C484.18,556.394 494.347,556.761 504,557 C532.88,557.714 540.123,557.839 569,557 C580.362,556.67 592.557,556.095 604.089,555.45 " fill="none" id="Client-Order" style="stroke: #A80036; stroke-width: 1.0;"/><text fill="#000000" font-family="sans-serif" font-size="13" lengthAdjust="spacingAndGlyphs" textLength="50" x="505" y="553.4951">performs</text><polygon fill="#000000" points="558,546.6758,564,549.6758,558,552.6758,558,546.6758" style="stroke: #000000; stroke-width: 1.0;"/><text fill="#000000" font-family="sans-serif" font-size="13" lengthAdjust="spacingAndGlyphs" textLength="7" x="481.968" y="570.7029">1</text><text fill="#000000" font-family="sans-serif" font-size="13" lengthAdjust="spacingAndGlyphs" textLength="5" x="591.4375" y="570.5915">*</text><!--link Client to Address--><path d="M474.299,580.825 C510.912,594.099 556.627,608.357 599,615 C649.055,622.847 662.557,619.754 713,615 C744.833,612 779.706,605.773 808.997,599.682 " fill="none" id="Client-Address" style="stroke: #A80036; stroke-width: 1.0;"/><text fill="#000000" font-family="sans-serif" font-size="13" lengthAdjust="spacingAndGlyphs" textLength="21" x="639" y="611.4951">has</text><polygon fill="#000000" points="663,604.6758,669,607.6758,663,610.6758,663,604.6758" style="stroke: #000000; stroke-width: 1.0;"/><text fill="#000000" font-family="sans-serif" font-size="13" lengthAdjust="spacingAndGlyphs" textLength="7" x="482.1158" y="598.1266">1</text><text fill="#000000" font-family="sans-serif" font-size="13" lengthAdjust="spacingAndGlyphs" textLength="7" x="794.1764" y="615.7767">1</text><!--link Order to Product--><path d="M707.581,531.854 C729.815,522.533 756.037,510.901 779,499 C793.175,491.654 808.091,483.049 821.86,474.719 " fill="none" id="Order-Product" style="stroke: #A80036; stroke-width: 1.0;"/><text fill="#000000" font-family="sans-serif" font-size="13" lengthAdjust="spacingAndGlyphs" textLength="21" x="744" y="495.4951">has</text><polygon fill="#000000" points="768,488.6758,774,491.6758,768,494.6758,768,488.6758" style="stroke: #000000; stroke-width: 1.0;"/><text fill="#000000" font-family="sans-serif" font-size="13" lengthAdjust="spacingAndGlyphs" textLength="7" x="715.671" y="543.603">1</text><text fill="#000000" font-family="sans-serif" font-size="13" lengthAdjust="spacingAndGlyphs" textLength="5" x="809.1146" y="493.966">*</text><!--link Order to Address--><path d="M707.518,559.382 C737.582,563.775 776.102,569.403 808.719,574.169 " fill="none" id="Order-Address" style="stroke: #A80036; stroke-width: 1.0;"/><text fill="#000000" font-family="sans-serif" font-size="13" lengthAdjust="spacingAndGlyphs" textLength="21" x="744" y="561.4951">has</text><polygon fill="#000000" points="768,554.6758,774,557.6758,768,560.6758,768,554.6758" style="stroke: #000000; stroke-width: 1.0;"/><text fill="#000000" font-family="sans-serif" font-size="13" lengthAdjust="spacingAndGlyphs" textLength="7" x="715.5988" y="575.1742">1</text><text fill="#000000" font-family="sans-serif" font-size="13" lengthAdjust="spacingAndGlyphs" textLength="7" x="793.868" y="587.4733">1</text><!--link Delivery to Order--><path d="M439.643,452.013 C483.052,472.167 555.615,505.857 604.371,528.494 " fill="none" id="Delivery-Order" style="stroke: #A80036; stroke-width: 1.0;"/><text fill="#000000" font-family="sans-serif" font-size="13" lengthAdjust="spacingAndGlyphs" textLength="21" x="519.5" y="479.4951">has</text><polygon fill="#000000" points="543.5,472.6758,549.5,475.6758,543.5,478.6758,543.5,472.6758" style="stroke: #000000; stroke-width: 1.0;"/><text fill="#000000" font-family="sans-serif" font-size="13" lengthAdjust="spacingAndGlyphs" textLength="7" x="447.4859" y="470.3254">1</text><text fill="#000000" font-family="sans-serif" font-size="13" lengthAdjust="spacingAndGlyphs" textLength="5" x="591.4208" y="539.7495">*</text><!--link Pharmacy to Product--><path d="M423.481,225.823 C472.847,147.815 602.503,-31.081 713,43 C828.417,120.379 862.178,295.716 872.002,385.216 " fill="none" id="Pharmacy-Product" style="stroke: #A80036; stroke-width: 1.0;"/><text fill="#000000" font-family="sans-serif" font-size="13" lengthAdjust="spacingAndGlyphs" textLength="21" x="639" y="22.4951">has</text><polygon fill="#000000" points="663,15.6758,669,18.6758,663,21.6758,663,15.6758" style="stroke: #000000; stroke-width: 1.0;"/><text fill="#000000" font-family="sans-serif" font-size="13" lengthAdjust="spacingAndGlyphs" textLength="7" x="420.021" y="215.0814">1</text><text fill="#000000" font-family="sans-serif" font-size="13" lengthAdjust="spacingAndGlyphs" textLength="5" x="866.0413" y="374.6779">*</text><!--link Courier to Pharmacy--><path d="M173.3,284.2 C227.914,278.396 297.947,270.952 345.835,265.863 " fill="none" id="Courier-Pharmacy" style="stroke: #A80036; stroke-width: 1.0;"/><text fill="#000000" font-family="sans-serif" font-size="13" lengthAdjust="spacingAndGlyphs" textLength="78" x="206" y="268.4951">associated to</text><polygon fill="#000000" points="287,261.6758,293,264.6758,287,267.6758,287,261.6758" style="stroke: #000000; stroke-width: 1.0;"/><text fill="#000000" font-family="sans-serif" font-size="13" lengthAdjust="spacingAndGlyphs" textLength="5" x="180.9861" y="297.6315">*</text><text fill="#000000" font-family="sans-serif" font-size="13" lengthAdjust="spacingAndGlyphs" textLength="7" x="330.8175" y="281.2666">1</text><!--link Courier to Delivery--><path d="M173.031,315 C212.53,327.012 259.849,343.618 300,364 C323.89,376.128 348.53,393.339 367.492,407.779 " fill="none" id="Courier-Delivery" style="stroke: #A80036; stroke-width: 1.0;"/><text fill="#000000" font-family="sans-serif" font-size="13" lengthAdjust="spacingAndGlyphs" textLength="28" x="231" y="321.4951">does</text><polygon fill="#000000" points="262,314.6758,268,317.6758,262,320.6758,262,314.6758" style="stroke: #000000; stroke-width: 1.0;"/><text fill="#000000" font-family="sans-serif" font-size="13" lengthAdjust="spacingAndGlyphs" textLength="7" x="181.0542" y="331.2687">1</text><text fill="#000000" font-family="sans-serif" font-size="13" lengthAdjust="spacingAndGlyphs" textLength="5" x="353.9339" y="397.1889">*</text><!--link Pharmacy to Address--><path d="M458.294,284.509 C534.905,318.877 668.892,380.583 713,411 C746.132,433.848 751.977,443.176 779,473 C793.684,489.205 794.869,495.31 809,512 C813.855,517.734 819.02,523.624 824.245,529.446 " fill="none" id="Pharmacy-Address" style="stroke: #A80036; stroke-width: 1.0;"/><text fill="#000000" font-family="sans-serif" font-size="13" lengthAdjust="spacingAndGlyphs" textLength="21" x="639" y="346.4951">has</text><polygon fill="#000000" points="663,339.6758,669,342.6758,663,345.6758,663,339.6758" style="stroke: #000000; stroke-width: 1.0;"/><text fill="#000000" font-family="sans-serif" font-size="13" lengthAdjust="spacingAndGlyphs" textLength="7" x="465.9551" y="302.2129">1</text><text fill="#000000" font-family="sans-serif" font-size="13" lengthAdjust="spacingAndGlyphs" textLength="7" x="809.6857" y="518.547">1</text><!--link Pharmacy to Scooter--><path d="M458.302,228.179 C500.029,204.17 557.049,171.36 598.956,147.248 " fill="none" id="Pharmacy-Scooter" style="stroke: #A80036; stroke-width: 1.0;"/><text fill="#000000" font-family="sans-serif" font-size="13" lengthAdjust="spacingAndGlyphs" textLength="21" x="519.5" y="163.4951">has</text><polygon fill="#000000" points="543.5,156.6758,549.5,159.6758,543.5,162.6758,543.5,156.6758" style="stroke: #000000; stroke-width: 1.0;"/><text fill="#000000" font-family="sans-serif" font-size="13" lengthAdjust="spacingAndGlyphs" textLength="7" x="465.9641" y="238.6656">1</text><text fill="#000000" font-family="sans-serif" font-size="13" lengthAdjust="spacingAndGlyphs" textLength="5" x="585.9548" y="166.163">*</text><!--link Pharmacy to Drone--><path d="M458.302,259.781 C500.029,259.615 557.049,259.389 598.956,259.222 " fill="none" id="Pharmacy-Drone" style="stroke: #A80036; stroke-width: 1.0;"/><text fill="#000000" font-family="sans-serif" font-size="13" lengthAdjust="spacingAndGlyphs" textLength="21" x="519.5" y="256.4951">has</text><polygon fill="#000000" points="543.5,249.6758,549.5,252.6758,543.5,255.6758,543.5,249.6758" style="stroke: #000000; stroke-width: 1.0;"/><text fill="#000000" font-family="sans-serif" font-size="13" lengthAdjust="spacingAndGlyphs" textLength="7" x="465.9641" y="274.3166">1</text><text fill="#000000" font-family="sans-serif" font-size="13" lengthAdjust="spacingAndGlyphs" textLength="5" x="585.9548" y="273.8335">*</text><!--link Administrator to User--><path d="M142.197,667.9086 C161.265,670.5573 183.075,673.2728 203,675 C252.184,679.2634 308.442,681.2608 348.39,682.193 " fill="none" id="Administrator-User" style="stroke: #A80036; stroke-width: 1.0;"/><text fill="#000000" font-family="sans-serif" font-size="13" lengthAdjust="spacingAndGlyphs" textLength="36" x="227" y="671.4951">act as</text><polygon fill="#000000" points="266,664.6758,272,667.6758,266,670.6758,266,664.6758" style="stroke: #000000; stroke-width: 1.0;"/><text fill="#000000" font-family="sans-serif" font-size="13" lengthAdjust="spacingAndGlyphs" textLength="22" x="149.9601" y="683.374">0..1</text><text fill="#000000" font-family="sans-serif" font-size="13" lengthAdjust="spacingAndGlyphs" textLength="7" x="333.3589" y="696.759">1</text><!--link Administrator to Delivery--><path d="M134.479,632.96 C148.153,622.954 162.404,610.676 173,597 C193.982,569.921 179.155,550.596 203,526 C247.766,479.823 320.391,454.846 364.134,443.275 " fill="none" id="Administrator-Delivery" style="stroke: #A80036; stroke-width: 1.0;"/><text fill="#000000" font-family="sans-serif" font-size="13" lengthAdjust="spacingAndGlyphs" textLength="43" x="223.5" y="462.4951">creates</text><polygon fill="#000000" points="269.5,455.6758,275.5,458.6758,269.5,461.6758,269.5,455.6758" style="stroke: #000000; stroke-width: 1.0;"/><text fill="#000000" font-family="sans-serif" font-size="13" lengthAdjust="spacingAndGlyphs" textLength="7" x="137.5895" y="621.977">1</text><text fill="#000000" font-family="sans-serif" font-size="13" lengthAdjust="spacingAndGlyphs" textLength="5" x="351.4392" y="459.9217">*</text><!--
@startuml

hide methods
left to right direction

class Platform {
  -String designation
}

class User {
  -String name
  -String email
  -String password
}

class Courier {
  -String name
  -String email
  -Integer phoneNumber
  -Integer socialSecurityNumber
  -Integer nif
}

class Order {
  -Double distance
}

class Client {
  -String name
  -String email
  -String creditCardNumber
  -Date validityDate
  -Integer ccv
}

class Product {
  -String name
  -String reference
  -String description
  -Double price
  -Integer amount
}

class Scooter {
  -String id
  -Double capacity
  -Double power
  -Double maxPower
  -Integer battery
}

class Administrator {
  -String email
}

class Pharmacy {
  -String designation
  -String email
}

class Address {
  -String street
  -String postalCode
  -Integer number
  -String locality
  -String GPSCoordinates
}

class Drone {
  -String id
  -Double capacity
  -Double power
  -Double maxPower
  -Integer battery
}

class Delivery {

  -Integer id

}

Platform "1" - - "*" User : has registered >
Platform "1" - - "1" Pharmacy : has registered >
Platform "1" - - "*" Client : has registered >

Client "1" - - "*" Product : buy >
Client "1" - - "*" Order : performs >
Client "1" - - "1" Address : has >

Order "1" - - "*" Product : has >
Order "1" - - "1" Address : has >

Delivery "1" - - "*" Order : has >

Pharmacy "1" - - "*" Product : has >

Courier "*" - - "1" Pharmacy : associated to >
Courier "1" - - "*" Delivery : does >

Pharmacy "1" - - "1" Address : has >
Pharmacy "1" - - "*" Scooter : has >
Pharmacy "1" - - "*" Drone : has >

Administrator "0..1" - - "1" User : act as >
Administrator "1" - - "*" Delivery : creates >


@enduml

PlantUML version 1.2018.14(Fri Dec 21 16:33:16 GMT 2018)
(GPL source distribution)
Java Runtime: Java(TM) SE Runtime Environment
JVM: Java HotSpot(TM) 64-Bit Server VM
Java Version: 1.8.0_221-b11
Operating System: Windows 10
OS Version: 10.0
Default Encoding: Cp1252
Language: pt
Country: PT
--></g></svg>