<?xml version="1.0" encoding="UTF-8" standalone="no"?><svg xmlns="http://www.w3.org/2000/svg" xmlns:xlink="http://www.w3.org/1999/xlink" contentScriptType="application/ecmascript" contentStyleType="text/css" height="984px" preserveAspectRatio="none" style="width:1265px;height:984px;" version="1.1" viewBox="0 0 1265 984" width="1265px" zoomAndPan="magnify"><defs><filter height="300%" id="f15n5nxvqt34du" width="300%" x="-1" y="-1"><feGaussianBlur result="blurOut" stdDeviation="2.0"/><feColorMatrix in="blurOut" result="blurOut2" type="matrix" values="0 0 0 0 0 0 0 0 0 0 0 0 0 0 0 0 0 0 .4 0"/><feOffset dx="4.0" dy="4.0" in="blurOut2" result="blurOut3"/><feBlend in="SourceGraphic" in2="blurOut3" mode="normal"/></filter></defs><g><!--class CreateDeliveryUI--><rect fill="#FEFECE" filter="url(#f15n5nxvqt34du)" height="48" id="CreateDeliveryUI" style="stroke: #A80036; stroke-width: 1.5;" width="124" x="487.5" y="8"/><ellipse cx="502.5" cy="24" fill="#ADD1B2" rx="11" ry="11" style="stroke: #A80036; stroke-width: 1.0;"/><path d="M505.2656,19.875 Q505.4219,19.6563 505.6094,19.5469 Q505.7969,19.4375 506.0156,19.4375 Q506.3906,19.4375 506.625,19.6953 Q506.8594,19.9531 506.8594,20.5625 L506.8594,22.0156 Q506.8594,22.625 506.625,22.8906 Q506.3906,23.1563 506.0156,23.1563 Q505.6719,23.1563 505.4688,22.9531 Q505.2656,22.7656 505.1563,22.25 Q505.1094,21.8906 504.9219,21.7031 Q504.5938,21.3281 503.9844,21.1094 Q503.375,20.8906 502.75,20.8906 Q501.9844,20.8906 501.3516,21.2188 Q500.7188,21.5469 500.2266,22.2969 Q499.7344,23.0469 499.7344,24.0781 L499.7344,25.1719 Q499.7344,26.4063 500.625,27.2266 Q501.5156,28.0469 503.1094,28.0469 Q504.0469,28.0469 504.7031,27.7969 Q505.0938,27.6406 505.5156,27.2031 Q505.7813,26.9375 505.9297,26.8594 Q506.0781,26.7813 506.2813,26.7813 Q506.6094,26.7813 506.8672,27.0391 Q507.125,27.2969 507.125,27.6406 Q507.125,27.9844 506.7813,28.3906 Q506.2813,28.9688 505.4844,29.2969 Q504.4063,29.75 503.1094,29.75 Q501.5938,29.75 500.3906,29.125 Q499.4063,28.625 498.7188,27.5547 Q498.0313,26.4844 498.0313,25.2031 L498.0313,24.0469 Q498.0313,22.7188 498.6484,21.5703 Q499.2656,20.4219 500.3594,19.8047 Q501.4531,19.1875 502.6875,19.1875 Q503.4219,19.1875 504.0703,19.3516 Q504.7188,19.5156 505.2656,19.875 Z "/><text fill="#000000" font-family="sans-serif" font-size="12" lengthAdjust="spacingAndGlyphs" textLength="92" x="516.5" y="28.9102">CreateDeliveryUI</text><line style="stroke: #A80036; stroke-width: 1.5;" x1="488.5" x2="610.5" y1="40" y2="40"/><line style="stroke: #A80036; stroke-width: 1.5;" x1="488.5" x2="610.5" y1="48" y2="48"/><!--class DeliveryController--><rect fill="#FEFECE" filter="url(#f15n5nxvqt34du)" height="172.5234" id="DeliveryController" style="stroke: #A80036; stroke-width: 1.5;" width="275" x="412" y="117"/><ellipse cx="496.75" cy="133" fill="#ADD1B2" rx="11" ry="11" style="stroke: #A80036; stroke-width: 1.0;"/><path d="M499.5156,128.875 Q499.6719,128.6563 499.8594,128.5469 Q500.0469,128.4375 500.2656,128.4375 Q500.6406,128.4375 500.875,128.6953 Q501.1094,128.9531 501.1094,129.5625 L501.1094,131.0156 Q501.1094,131.625 500.875,131.8906 Q500.6406,132.1563 500.2656,132.1563 Q499.9219,132.1563 499.7188,131.9531 Q499.5156,131.7656 499.4063,131.25 Q499.3594,130.8906 499.1719,130.7031 Q498.8438,130.3281 498.2344,130.1094 Q497.625,129.8906 497,129.8906 Q496.2344,129.8906 495.6016,130.2188 Q494.9688,130.5469 494.4766,131.2969 Q493.9844,132.0469 493.9844,133.0781 L493.9844,134.1719 Q493.9844,135.4063 494.875,136.2266 Q495.7656,137.0469 497.3594,137.0469 Q498.2969,137.0469 498.9531,136.7969 Q499.3438,136.6406 499.7656,136.2031 Q500.0313,135.9375 500.1797,135.8594 Q500.3281,135.7813 500.5313,135.7813 Q500.8594,135.7813 501.1172,136.0391 Q501.375,136.2969 501.375,136.6406 Q501.375,136.9844 501.0313,137.3906 Q500.5313,137.9688 499.7344,138.2969 Q498.6563,138.75 497.3594,138.75 Q495.8438,138.75 494.6406,138.125 Q493.6563,137.625 492.9688,136.5547 Q492.2813,135.4844 492.2813,134.2031 L492.2813,133.0469 Q492.2813,131.7188 492.8984,130.5703 Q493.5156,129.4219 494.6094,128.8047 Q495.7031,128.1875 496.9375,128.1875 Q497.6719,128.1875 498.3203,128.3516 Q498.9688,128.5156 499.5156,128.875 Z "/><text fill="#000000" font-family="sans-serif" font-size="12" lengthAdjust="spacingAndGlyphs" textLength="97" x="517.25" y="137.9102">DeliveryController</text><line style="stroke: #A80036; stroke-width: 1.5;" x1="413" x2="686" y1="149" y2="149"/><line style="stroke: #A80036; stroke-width: 1.5;" x1="413" x2="686" y1="157" y2="157"/><text fill="#000000" font-family="sans-serif" font-size="11" lengthAdjust="spacingAndGlyphs" textLength="182" x="418" y="172.4189">+List&lt;Pharmacy&gt; getPharmaciesList()</text><text fill="#000000" font-family="sans-serif" font-size="11" lengthAdjust="spacingAndGlyphs" textLength="186" x="418" y="186.2549">+getPharmacyByEmail(PharmacyEmail)</text><text fill="#000000" font-family="sans-serif" font-size="11" lengthAdjust="spacingAndGlyphs" textLength="176" x="418" y="200.0908">+createGraphForScooterDeliveries()</text><text fill="#000000" font-family="sans-serif" font-size="11" lengthAdjust="spacingAndGlyphs" textLength="215" x="418" y="213.9268">+createDeliveryForScooter(orderList1, phar)</text><text fill="#000000" font-family="sans-serif" font-size="11" lengthAdjust="spacingAndGlyphs" textLength="203" x="418" y="227.7627">+createDeliveryForDrone(orderList1,phar)</text><text fill="#000000" font-family="sans-serif" font-size="11" lengthAdjust="spacingAndGlyphs" textLength="231" x="418" y="241.5986">+createDeliveryByDrone(drone,orderList1,phar)</text><text fill="#000000" font-family="sans-serif" font-size="11" lengthAdjust="spacingAndGlyphs" textLength="249" x="418" y="255.4346">+createDeliveryByScooter(phar,scooter,orderList1)</text><text fill="#000000" font-family="sans-serif" font-size="11" lengthAdjust="spacingAndGlyphs" textLength="263" x="418" y="269.2705">+getBatteryWasteForScooter(orderList1,phar,scooter)</text><text fill="#000000" font-family="sans-serif" font-size="11" lengthAdjust="spacingAndGlyphs" textLength="245" x="418" y="283.1064">+getBatteryWasteForDrone(orderList1,phar,drone)</text><!--class DeliveryByDrone--><rect fill="#FEFECE" filter="url(#f15n5nxvqt34du)" height="75.6719" id="DeliveryByDrone" style="stroke: #A80036; stroke-width: 1.5;" width="161" x="1093" y="716.5"/><ellipse cx="1125.55" cy="732.5" fill="#ADD1B2" rx="11" ry="11" style="stroke: #A80036; stroke-width: 1.0;"/><path d="M1128.3156,728.375 Q1128.4719,728.1563 1128.6594,728.0469 Q1128.8469,727.9375 1129.0656,727.9375 Q1129.4406,727.9375 1129.675,728.1953 Q1129.9094,728.4531 1129.9094,729.0625 L1129.9094,730.5156 Q1129.9094,731.125 1129.675,731.3906 Q1129.4406,731.6563 1129.0656,731.6563 Q1128.7219,731.6563 1128.5188,731.4531 Q1128.3156,731.2656 1128.2063,730.75 Q1128.1594,730.3906 1127.9719,730.2031 Q1127.6438,729.8281 1127.0344,729.6094 Q1126.425,729.3906 1125.8,729.3906 Q1125.0344,729.3906 1124.4016,729.7188 Q1123.7688,730.0469 1123.2766,730.7969 Q1122.7844,731.5469 1122.7844,732.5781 L1122.7844,733.6719 Q1122.7844,734.9063 1123.675,735.7266 Q1124.5656,736.5469 1126.1594,736.5469 Q1127.0969,736.5469 1127.7531,736.2969 Q1128.1438,736.1406 1128.5656,735.7031 Q1128.8313,735.4375 1128.9797,735.3594 Q1129.1281,735.2813 1129.3313,735.2813 Q1129.6594,735.2813 1129.9172,735.5391 Q1130.175,735.7969 1130.175,736.1406 Q1130.175,736.4844 1129.8313,736.8906 Q1129.3313,737.4688 1128.5344,737.7969 Q1127.4563,738.25 1126.1594,738.25 Q1124.6438,738.25 1123.4406,737.625 Q1122.4563,737.125 1121.7688,736.0547 Q1121.0813,734.9844 1121.0813,733.7031 L1121.0813,732.5469 Q1121.0813,731.2188 1121.6984,730.0703 Q1122.3156,728.9219 1123.4094,728.3047 Q1124.5031,727.6875 1125.7375,727.6875 Q1126.4719,727.6875 1127.1203,727.8516 Q1127.7688,728.0156 1128.3156,728.375 Z "/><text fill="#000000" font-family="sans-serif" font-size="12" lengthAdjust="spacingAndGlyphs" textLength="90" x="1143.45" y="737.4102">DeliveryByDrone</text><line style="stroke: #A80036; stroke-width: 1.5;" x1="1094" x2="1253" y1="748.5" y2="748.5"/><text fill="#000000" font-family="sans-serif" font-size="11" lengthAdjust="spacingAndGlyphs" textLength="131" x="1099" y="763.9189">-Integer deliveryByDroneId;</text><text fill="#000000" font-family="sans-serif" font-size="11" lengthAdjust="spacingAndGlyphs" textLength="149" x="1099" y="777.7549">-String deliveryByDroneStatus;</text><line style="stroke: #A80036; stroke-width: 1.5;" x1="1094" x2="1253" y1="784.1719" y2="784.1719"/><!--class DeliveryByScooter--><rect fill="#FEFECE" filter="url(#f15n5nxvqt34du)" height="75.6719" id="DeliveryByScooter" style="stroke: #A80036; stroke-width: 1.5;" width="170" x="887.5" y="716.5"/><ellipse cx="920.5" cy="732.5" fill="#ADD1B2" rx="11" ry="11" style="stroke: #A80036; stroke-width: 1.0;"/><path d="M923.2656,728.375 Q923.4219,728.1563 923.6094,728.0469 Q923.7969,727.9375 924.0156,727.9375 Q924.3906,727.9375 924.625,728.1953 Q924.8594,728.4531 924.8594,729.0625 L924.8594,730.5156 Q924.8594,731.125 924.625,731.3906 Q924.3906,731.6563 924.0156,731.6563 Q923.6719,731.6563 923.4688,731.4531 Q923.2656,731.2656 923.1563,730.75 Q923.1094,730.3906 922.9219,730.2031 Q922.5938,729.8281 921.9844,729.6094 Q921.375,729.3906 920.75,729.3906 Q919.9844,729.3906 919.3516,729.7188 Q918.7188,730.0469 918.2266,730.7969 Q917.7344,731.5469 917.7344,732.5781 L917.7344,733.6719 Q917.7344,734.9063 918.625,735.7266 Q919.5156,736.5469 921.1094,736.5469 Q922.0469,736.5469 922.7031,736.2969 Q923.0938,736.1406 923.5156,735.7031 Q923.7813,735.4375 923.9297,735.3594 Q924.0781,735.2813 924.2813,735.2813 Q924.6094,735.2813 924.8672,735.5391 Q925.125,735.7969 925.125,736.1406 Q925.125,736.4844 924.7813,736.8906 Q924.2813,737.4688 923.4844,737.7969 Q922.4063,738.25 921.1094,738.25 Q919.5938,738.25 918.3906,737.625 Q917.4063,737.125 916.7188,736.0547 Q916.0313,734.9844 916.0313,733.7031 L916.0313,732.5469 Q916.0313,731.2188 916.6484,730.0703 Q917.2656,728.9219 918.3594,728.3047 Q919.4531,727.6875 920.6875,727.6875 Q921.4219,727.6875 922.0703,727.8516 Q922.7188,728.0156 923.2656,728.375 Z "/><text fill="#000000" font-family="sans-serif" font-size="12" lengthAdjust="spacingAndGlyphs" textLength="98" x="938.5" y="737.4102">DeliveryByScooter</text><line style="stroke: #A80036; stroke-width: 1.5;" x1="888.5" x2="1056.5" y1="748.5" y2="748.5"/><text fill="#000000" font-family="sans-serif" font-size="11" lengthAdjust="spacingAndGlyphs" textLength="140" x="893.5" y="763.9189">-Integer deliveryByScooterId;</text><text fill="#000000" font-family="sans-serif" font-size="11" lengthAdjust="spacingAndGlyphs" textLength="158" x="893.5" y="777.7549">-String deliveryByScooterStatus;</text><line style="stroke: #A80036; stroke-width: 1.5;" x1="888.5" x2="1056.5" y1="784.1719" y2="784.1719"/><!--class FileReader--><rect fill="#FEFECE" filter="url(#f15n5nxvqt34du)" height="75.6719" id="FileReader" style="stroke: #A80036; stroke-width: 1.5;" width="129" x="6" y="351"/><ellipse cx="37.2" cy="367" fill="#ADD1B2" rx="11" ry="11" style="stroke: #A80036; stroke-width: 1.0;"/><path d="M39.9656,362.875 Q40.1219,362.6563 40.3094,362.5469 Q40.4969,362.4375 40.7156,362.4375 Q41.0906,362.4375 41.325,362.6953 Q41.5594,362.9531 41.5594,363.5625 L41.5594,365.0156 Q41.5594,365.625 41.325,365.8906 Q41.0906,366.1563 40.7156,366.1563 Q40.3719,366.1563 40.1688,365.9531 Q39.9656,365.7656 39.8563,365.25 Q39.8094,364.8906 39.6219,364.7031 Q39.2938,364.3281 38.6844,364.1094 Q38.075,363.8906 37.45,363.8906 Q36.6844,363.8906 36.0516,364.2188 Q35.4188,364.5469 34.9266,365.2969 Q34.4344,366.0469 34.4344,367.0781 L34.4344,368.1719 Q34.4344,369.4063 35.325,370.2266 Q36.2156,371.0469 37.8094,371.0469 Q38.7469,371.0469 39.4031,370.7969 Q39.7938,370.6406 40.2156,370.2031 Q40.4813,369.9375 40.6297,369.8594 Q40.7781,369.7813 40.9813,369.7813 Q41.3094,369.7813 41.5672,370.0391 Q41.825,370.2969 41.825,370.6406 Q41.825,370.9844 41.4813,371.3906 Q40.9813,371.9688 40.1844,372.2969 Q39.1063,372.75 37.8094,372.75 Q36.2938,372.75 35.0906,372.125 Q34.1063,371.625 33.4188,370.5547 Q32.7313,369.4844 32.7313,368.2031 L32.7313,367.0469 Q32.7313,365.7188 33.3484,364.5703 Q33.9656,363.4219 35.0594,362.8047 Q36.1531,362.1875 37.3875,362.1875 Q38.1219,362.1875 38.7703,362.3516 Q39.4188,362.5156 39.9656,362.875 Z "/><text fill="#000000" font-family="sans-serif" font-size="12" lengthAdjust="spacingAndGlyphs" textLength="61" x="54.8" y="371.9102">FileReader</text><line style="stroke: #A80036; stroke-width: 1.5;" x1="7" x2="134" y1="383" y2="383"/><line style="stroke: #A80036; stroke-width: 1.5;" x1="7" x2="134" y1="391" y2="391"/><text fill="#000000" font-family="sans-serif" font-size="11" lengthAdjust="spacingAndGlyphs" textLength="59" x="12" y="406.4189">+getGraph()</text><text fill="#000000" font-family="sans-serif" font-size="11" lengthAdjust="spacingAndGlyphs" textLength="117" x="12" y="420.2549">+getCoordinatesGraph()</text><!--class DeliveryCreation--><rect fill="#FEFECE" filter="url(#f15n5nxvqt34du)" height="75.6719" id="DeliveryCreation" style="stroke: #A80036; stroke-width: 1.5;" width="220" x="170.5" y="351"/><ellipse cx="231.25" cy="367" fill="#ADD1B2" rx="11" ry="11" style="stroke: #A80036; stroke-width: 1.0;"/><path d="M234.0156,362.875 Q234.1719,362.6563 234.3594,362.5469 Q234.5469,362.4375 234.7656,362.4375 Q235.1406,362.4375 235.375,362.6953 Q235.6094,362.9531 235.6094,363.5625 L235.6094,365.0156 Q235.6094,365.625 235.375,365.8906 Q235.1406,366.1563 234.7656,366.1563 Q234.4219,366.1563 234.2188,365.9531 Q234.0156,365.7656 233.9063,365.25 Q233.8594,364.8906 233.6719,364.7031 Q233.3438,364.3281 232.7344,364.1094 Q232.125,363.8906 231.5,363.8906 Q230.7344,363.8906 230.1016,364.2188 Q229.4688,364.5469 228.9766,365.2969 Q228.4844,366.0469 228.4844,367.0781 L228.4844,368.1719 Q228.4844,369.4063 229.375,370.2266 Q230.2656,371.0469 231.8594,371.0469 Q232.7969,371.0469 233.4531,370.7969 Q233.8438,370.6406 234.2656,370.2031 Q234.5313,369.9375 234.6797,369.8594 Q234.8281,369.7813 235.0313,369.7813 Q235.3594,369.7813 235.6172,370.0391 Q235.875,370.2969 235.875,370.6406 Q235.875,370.9844 235.5313,371.3906 Q235.0313,371.9688 234.2344,372.2969 Q233.1563,372.75 231.8594,372.75 Q230.3438,372.75 229.1406,372.125 Q228.1563,371.625 227.4688,370.5547 Q226.7813,369.4844 226.7813,368.2031 L226.7813,367.0469 Q226.7813,365.7188 227.3984,364.5703 Q228.0156,363.4219 229.1094,362.8047 Q230.2031,362.1875 231.4375,362.1875 Q232.1719,362.1875 232.8203,362.3516 Q233.4688,362.5156 234.0156,362.875 Z "/><text fill="#000000" font-family="sans-serif" font-size="12" lengthAdjust="spacingAndGlyphs" textLength="90" x="251.75" y="371.9102">DeliveryCreation</text><line style="stroke: #A80036; stroke-width: 1.5;" x1="171.5" x2="389.5" y1="383" y2="383"/><line style="stroke: #A80036; stroke-width: 1.5;" x1="171.5" x2="389.5" y1="391" y2="391"/><text fill="#000000" font-family="sans-serif" font-size="11" lengthAdjust="spacingAndGlyphs" textLength="179" x="176.5" y="406.4189">+deliveryData(orderList1,graph,phar)</text><text fill="#000000" font-family="sans-serif" font-size="11" lengthAdjust="spacingAndGlyphs" textLength="208" x="176.5" y="420.2549">+deliveryDroneData(ordersList,graph,phar)</text><!--class PharmacyDB--><rect fill="#FEFECE" filter="url(#f15n5nxvqt34du)" height="75.6719" id="PharmacyDB" style="stroke: #A80036; stroke-width: 1.5;" width="212" x="638.5" y="351"/><ellipse cx="704.25" cy="367" fill="#ADD1B2" rx="11" ry="11" style="stroke: #A80036; stroke-width: 1.0;"/><path d="M707.0156,362.875 Q707.1719,362.6563 707.3594,362.5469 Q707.5469,362.4375 707.7656,362.4375 Q708.1406,362.4375 708.375,362.6953 Q708.6094,362.9531 708.6094,363.5625 L708.6094,365.0156 Q708.6094,365.625 708.375,365.8906 Q708.1406,366.1563 707.7656,366.1563 Q707.4219,366.1563 707.2188,365.9531 Q707.0156,365.7656 706.9063,365.25 Q706.8594,364.8906 706.6719,364.7031 Q706.3438,364.3281 705.7344,364.1094 Q705.125,363.8906 704.5,363.8906 Q703.7344,363.8906 703.1016,364.2188 Q702.4688,364.5469 701.9766,365.2969 Q701.4844,366.0469 701.4844,367.0781 L701.4844,368.1719 Q701.4844,369.4063 702.375,370.2266 Q703.2656,371.0469 704.8594,371.0469 Q705.7969,371.0469 706.4531,370.7969 Q706.8438,370.6406 707.2656,370.2031 Q707.5313,369.9375 707.6797,369.8594 Q707.8281,369.7813 708.0313,369.7813 Q708.3594,369.7813 708.6172,370.0391 Q708.875,370.2969 708.875,370.6406 Q708.875,370.9844 708.5313,371.3906 Q708.0313,371.9688 707.2344,372.2969 Q706.1563,372.75 704.8594,372.75 Q703.3438,372.75 702.1406,372.125 Q701.1563,371.625 700.4688,370.5547 Q699.7813,369.4844 699.7813,368.2031 L699.7813,367.0469 Q699.7813,365.7188 700.3984,364.5703 Q701.0156,363.4219 702.1094,362.8047 Q703.2031,362.1875 704.4375,362.1875 Q705.1719,362.1875 705.8203,362.3516 Q706.4688,362.5156 707.0156,362.875 Z "/><text fill="#000000" font-family="sans-serif" font-size="12" lengthAdjust="spacingAndGlyphs" textLength="72" x="724.75" y="371.9102">PharmacyDB</text><line style="stroke: #A80036; stroke-width: 1.5;" x1="639.5" x2="849.5" y1="383" y2="383"/><line style="stroke: #A80036; stroke-width: 1.5;" x1="639.5" x2="849.5" y1="391" y2="391"/><text fill="#000000" font-family="sans-serif" font-size="11" lengthAdjust="spacingAndGlyphs" textLength="177" x="644.5" y="406.4189">+List&lt;Pharmacy&gt; getAllPharmacies()</text><text fill="#000000" font-family="sans-serif" font-size="11" lengthAdjust="spacingAndGlyphs" textLength="200" x="644.5" y="420.2549">+Pharmacy getPharmacy(PharmacyEmail)</text><!--class Pharmacy--><rect fill="#FEFECE" filter="url(#f15n5nxvqt34du)" height="89.5078" id="Pharmacy" style="stroke: #A80036; stroke-width: 1.5;" width="102" x="586.5" y="535"/><ellipse cx="608.25" cy="551" fill="#ADD1B2" rx="11" ry="11" style="stroke: #A80036; stroke-width: 1.0;"/><path d="M611.0156,546.875 Q611.1719,546.6563 611.3594,546.5469 Q611.5469,546.4375 611.7656,546.4375 Q612.1406,546.4375 612.375,546.6953 Q612.6094,546.9531 612.6094,547.5625 L612.6094,549.0156 Q612.6094,549.625 612.375,549.8906 Q612.1406,550.1563 611.7656,550.1563 Q611.4219,550.1563 611.2188,549.9531 Q611.0156,549.7656 610.9063,549.25 Q610.8594,548.8906 610.6719,548.7031 Q610.3438,548.3281 609.7344,548.1094 Q609.125,547.8906 608.5,547.8906 Q607.7344,547.8906 607.1016,548.2188 Q606.4688,548.5469 605.9766,549.2969 Q605.4844,550.0469 605.4844,551.0781 L605.4844,552.1719 Q605.4844,553.4063 606.375,554.2266 Q607.2656,555.0469 608.8594,555.0469 Q609.7969,555.0469 610.4531,554.7969 Q610.8438,554.6406 611.2656,554.2031 Q611.5313,553.9375 611.6797,553.8594 Q611.8281,553.7813 612.0313,553.7813 Q612.3594,553.7813 612.6172,554.0391 Q612.875,554.2969 612.875,554.6406 Q612.875,554.9844 612.5313,555.3906 Q612.0313,555.9688 611.2344,556.2969 Q610.1563,556.75 608.8594,556.75 Q607.3438,556.75 606.1406,556.125 Q605.1563,555.625 604.4688,554.5547 Q603.7813,553.4844 603.7813,552.2031 L603.7813,551.0469 Q603.7813,549.7188 604.3984,548.5703 Q605.0156,547.4219 606.1094,546.8047 Q607.2031,546.1875 608.4375,546.1875 Q609.1719,546.1875 609.8203,546.3516 Q610.4688,546.5156 611.0156,546.875 Z "/><text fill="#000000" font-family="sans-serif" font-size="12" lengthAdjust="spacingAndGlyphs" textLength="55" x="623.75" y="555.9102">Pharmacy</text><line style="stroke: #A80036; stroke-width: 1.5;" x1="587.5" x2="687.5" y1="567" y2="567"/><text fill="#000000" font-family="sans-serif" font-size="11" lengthAdjust="spacingAndGlyphs" textLength="90" x="592.5" y="582.4189">-String designation</text><text fill="#000000" font-family="sans-serif" font-size="11" lengthAdjust="spacingAndGlyphs" textLength="59" x="592.5" y="596.2549">-String email</text><line style="stroke: #A80036; stroke-width: 1.5;" x1="587.5" x2="687.5" y1="602.6719" y2="602.6719"/><text fill="#000000" font-family="sans-serif" font-size="11" lengthAdjust="spacingAndGlyphs" textLength="84" x="592.5" y="618.0908">+String getEmail()</text><!--class Park--><rect fill="#FEFECE" filter="url(#f15n5nxvqt34du)" height="103.3438" id="Park" style="stroke: #A80036; stroke-width: 1.5;" width="126" x="633.5" y="703"/><ellipse cx="679.75" cy="719" fill="#ADD1B2" rx="11" ry="11" style="stroke: #A80036; stroke-width: 1.0;"/><path d="M682.5156,714.875 Q682.6719,714.6563 682.8594,714.5469 Q683.0469,714.4375 683.2656,714.4375 Q683.6406,714.4375 683.875,714.6953 Q684.1094,714.9531 684.1094,715.5625 L684.1094,717.0156 Q684.1094,717.625 683.875,717.8906 Q683.6406,718.1563 683.2656,718.1563 Q682.9219,718.1563 682.7188,717.9531 Q682.5156,717.7656 682.4063,717.25 Q682.3594,716.8906 682.1719,716.7031 Q681.8438,716.3281 681.2344,716.1094 Q680.625,715.8906 680,715.8906 Q679.2344,715.8906 678.6016,716.2188 Q677.9688,716.5469 677.4766,717.2969 Q676.9844,718.0469 676.9844,719.0781 L676.9844,720.1719 Q676.9844,721.4063 677.875,722.2266 Q678.7656,723.0469 680.3594,723.0469 Q681.2969,723.0469 681.9531,722.7969 Q682.3438,722.6406 682.7656,722.2031 Q683.0313,721.9375 683.1797,721.8594 Q683.3281,721.7813 683.5313,721.7813 Q683.8594,721.7813 684.1172,722.0391 Q684.375,722.2969 684.375,722.6406 Q684.375,722.9844 684.0313,723.3906 Q683.5313,723.9688 682.7344,724.2969 Q681.6563,724.75 680.3594,724.75 Q678.8438,724.75 677.6406,724.125 Q676.6563,723.625 675.9688,722.5547 Q675.2813,721.4844 675.2813,720.2031 L675.2813,719.0469 Q675.2813,717.7188 675.8984,716.5703 Q676.5156,715.4219 677.6094,714.8047 Q678.7031,714.1875 679.9375,714.1875 Q680.6719,714.1875 681.3203,714.3516 Q681.9688,714.5156 682.5156,714.875 Z "/><text fill="#000000" font-family="sans-serif" font-size="12" lengthAdjust="spacingAndGlyphs" textLength="25" x="700.25" y="723.9102">Park</text><line style="stroke: #A80036; stroke-width: 1.5;" x1="634.5" x2="758.5" y1="735" y2="735"/><text fill="#000000" font-family="sans-serif" font-size="11" lengthAdjust="spacingAndGlyphs" textLength="48" x="639.5" y="750.4189">-Integer id</text><text fill="#000000" font-family="sans-serif" font-size="11" lengthAdjust="spacingAndGlyphs" textLength="90" x="639.5" y="764.2549">-String designation</text><text fill="#000000" font-family="sans-serif" font-size="11" lengthAdjust="spacingAndGlyphs" textLength="109" x="639.5" y="778.0908">-Integer spotsCapacity</text><text fill="#000000" font-family="sans-serif" font-size="11" lengthAdjust="spacingAndGlyphs" textLength="114" x="639.5" y="791.9268">-Double powerCapacity</text><line style="stroke: #A80036; stroke-width: 1.5;" x1="634.5" x2="758.5" y1="798.3438" y2="798.3438"/><!--class ParkDB--><rect fill="#FEFECE" filter="url(#f15n5nxvqt34du)" height="48" id="ParkDB" style="stroke: #A80036; stroke-width: 1.5;" width="74" x="760.5" y="457"/><ellipse cx="775.5" cy="473" fill="#ADD1B2" rx="11" ry="11" style="stroke: #A80036; stroke-width: 1.0;"/><path d="M778.2656,468.875 Q778.4219,468.6563 778.6094,468.5469 Q778.7969,468.4375 779.0156,468.4375 Q779.3906,468.4375 779.625,468.6953 Q779.8594,468.9531 779.8594,469.5625 L779.8594,471.0156 Q779.8594,471.625 779.625,471.8906 Q779.3906,472.1563 779.0156,472.1563 Q778.6719,472.1563 778.4688,471.9531 Q778.2656,471.7656 778.1563,471.25 Q778.1094,470.8906 777.9219,470.7031 Q777.5938,470.3281 776.9844,470.1094 Q776.375,469.8906 775.75,469.8906 Q774.9844,469.8906 774.3516,470.2188 Q773.7188,470.5469 773.2266,471.2969 Q772.7344,472.0469 772.7344,473.0781 L772.7344,474.1719 Q772.7344,475.4063 773.625,476.2266 Q774.5156,477.0469 776.1094,477.0469 Q777.0469,477.0469 777.7031,476.7969 Q778.0938,476.6406 778.5156,476.2031 Q778.7813,475.9375 778.9297,475.8594 Q779.0781,475.7813 779.2813,475.7813 Q779.6094,475.7813 779.8672,476.0391 Q780.125,476.2969 780.125,476.6406 Q780.125,476.9844 779.7813,477.3906 Q779.2813,477.9688 778.4844,478.2969 Q777.4063,478.75 776.1094,478.75 Q774.5938,478.75 773.3906,478.125 Q772.4063,477.625 771.7188,476.5547 Q771.0313,475.4844 771.0313,474.2031 L771.0313,473.0469 Q771.0313,471.7188 771.6484,470.5703 Q772.2656,469.4219 773.3594,468.8047 Q774.4531,468.1875 775.6875,468.1875 Q776.4219,468.1875 777.0703,468.3516 Q777.7188,468.5156 778.2656,468.875 Z "/><text fill="#000000" font-family="sans-serif" font-size="12" lengthAdjust="spacingAndGlyphs" textLength="42" x="789.5" y="477.9102">ParkDB</text><line style="stroke: #A80036; stroke-width: 1.5;" x1="761.5" x2="833.5" y1="489" y2="489"/><line style="stroke: #A80036; stroke-width: 1.5;" x1="761.5" x2="833.5" y1="497" y2="497"/><!--class Spot--><rect fill="#FEFECE" filter="url(#f15n5nxvqt34du)" height="89.5078" id="Spot" style="stroke: #A80036; stroke-width: 1.5;" width="111" x="641" y="884"/><ellipse cx="680.3" cy="900" fill="#ADD1B2" rx="11" ry="11" style="stroke: #A80036; stroke-width: 1.0;"/><path d="M683.0656,895.875 Q683.2219,895.6563 683.4094,895.5469 Q683.5969,895.4375 683.8156,895.4375 Q684.1906,895.4375 684.425,895.6953 Q684.6594,895.9531 684.6594,896.5625 L684.6594,898.0156 Q684.6594,898.625 684.425,898.8906 Q684.1906,899.1563 683.8156,899.1563 Q683.4719,899.1563 683.2688,898.9531 Q683.0656,898.7656 682.9563,898.25 Q682.9094,897.8906 682.7219,897.7031 Q682.3938,897.3281 681.7844,897.1094 Q681.175,896.8906 680.55,896.8906 Q679.7844,896.8906 679.1516,897.2188 Q678.5188,897.5469 678.0266,898.2969 Q677.5344,899.0469 677.5344,900.0781 L677.5344,901.1719 Q677.5344,902.4063 678.425,903.2266 Q679.3156,904.0469 680.9094,904.0469 Q681.8469,904.0469 682.5031,903.7969 Q682.8938,903.6406 683.3156,903.2031 Q683.5813,902.9375 683.7297,902.8594 Q683.8781,902.7813 684.0813,902.7813 Q684.4094,902.7813 684.6672,903.0391 Q684.925,903.2969 684.925,903.6406 Q684.925,903.9844 684.5813,904.3906 Q684.0813,904.9688 683.2844,905.2969 Q682.2063,905.75 680.9094,905.75 Q679.3938,905.75 678.1906,905.125 Q677.2063,904.625 676.5188,903.5547 Q675.8313,902.4844 675.8313,901.2031 L675.8313,900.0469 Q675.8313,898.7188 676.4484,897.5703 Q677.0656,896.4219 678.1594,895.8047 Q679.2531,895.1875 680.4875,895.1875 Q681.2219,895.1875 681.8703,895.3516 Q682.5188,895.5156 683.0656,895.875 Z "/><text fill="#000000" font-family="sans-serif" font-size="12" lengthAdjust="spacingAndGlyphs" textLength="25" x="699.7" y="904.9102">Spot</text><line style="stroke: #A80036; stroke-width: 1.5;" x1="642" x2="751" y1="916" y2="916"/><text fill="#000000" font-family="sans-serif" font-size="11" lengthAdjust="spacingAndGlyphs" textLength="48" x="647" y="931.4189">-Integer id</text><text fill="#000000" font-family="sans-serif" font-size="11" lengthAdjust="spacingAndGlyphs" textLength="99" x="647" y="945.2549">-String chargingSpot</text><text fill="#000000" font-family="sans-serif" font-size="11" lengthAdjust="spacingAndGlyphs" textLength="69" x="647" y="959.0908">-Integer idPark</text><line style="stroke: #A80036; stroke-width: 1.5;" x1="642" x2="751" y1="965.5078" y2="965.5078"/><!--class SpotDB--><rect fill="#FEFECE" filter="url(#f15n5nxvqt34du)" height="48" id="SpotDB" style="stroke: #A80036; stroke-width: 1.5;" width="74" x="917.5" y="457"/><ellipse cx="932.5" cy="473" fill="#ADD1B2" rx="11" ry="11" style="stroke: #A80036; stroke-width: 1.0;"/><path d="M935.2656,468.875 Q935.4219,468.6563 935.6094,468.5469 Q935.7969,468.4375 936.0156,468.4375 Q936.3906,468.4375 936.625,468.6953 Q936.8594,468.9531 936.8594,469.5625 L936.8594,471.0156 Q936.8594,471.625 936.625,471.8906 Q936.3906,472.1563 936.0156,472.1563 Q935.6719,472.1563 935.4688,471.9531 Q935.2656,471.7656 935.1563,471.25 Q935.1094,470.8906 934.9219,470.7031 Q934.5938,470.3281 933.9844,470.1094 Q933.375,469.8906 932.75,469.8906 Q931.9844,469.8906 931.3516,470.2188 Q930.7188,470.5469 930.2266,471.2969 Q929.7344,472.0469 929.7344,473.0781 L929.7344,474.1719 Q929.7344,475.4063 930.625,476.2266 Q931.5156,477.0469 933.1094,477.0469 Q934.0469,477.0469 934.7031,476.7969 Q935.0938,476.6406 935.5156,476.2031 Q935.7813,475.9375 935.9297,475.8594 Q936.0781,475.7813 936.2813,475.7813 Q936.6094,475.7813 936.8672,476.0391 Q937.125,476.2969 937.125,476.6406 Q937.125,476.9844 936.7813,477.3906 Q936.2813,477.9688 935.4844,478.2969 Q934.4063,478.75 933.1094,478.75 Q931.5938,478.75 930.3906,478.125 Q929.4063,477.625 928.7188,476.5547 Q928.0313,475.4844 928.0313,474.2031 L928.0313,473.0469 Q928.0313,471.7188 928.6484,470.5703 Q929.2656,469.4219 930.3594,468.8047 Q931.4531,468.1875 932.6875,468.1875 Q933.4219,468.1875 934.0703,468.3516 Q934.7188,468.5156 935.2656,468.875 Z "/><text fill="#000000" font-family="sans-serif" font-size="12" lengthAdjust="spacingAndGlyphs" textLength="42" x="946.5" y="477.9102">SpotDB</text><line style="stroke: #A80036; stroke-width: 1.5;" x1="918.5" x2="990.5" y1="489" y2="489"/><line style="stroke: #A80036; stroke-width: 1.5;" x1="918.5" x2="990.5" y1="497" y2="497"/><!--class Administrator--><rect fill="#FEFECE" filter="url(#f15n5nxvqt34du)" height="61.8359" id="Administrator" style="stroke: #A80036; stroke-width: 1.5;" width="105" x="920" y="549"/><ellipse cx="935" cy="565" fill="#ADD1B2" rx="11" ry="11" style="stroke: #A80036; stroke-width: 1.0;"/><path d="M937.7656,560.875 Q937.9219,560.6563 938.1094,560.5469 Q938.2969,560.4375 938.5156,560.4375 Q938.8906,560.4375 939.125,560.6953 Q939.3594,560.9531 939.3594,561.5625 L939.3594,563.0156 Q939.3594,563.625 939.125,563.8906 Q938.8906,564.1563 938.5156,564.1563 Q938.1719,564.1563 937.9688,563.9531 Q937.7656,563.7656 937.6563,563.25 Q937.6094,562.8906 937.4219,562.7031 Q937.0938,562.3281 936.4844,562.1094 Q935.875,561.8906 935.25,561.8906 Q934.4844,561.8906 933.8516,562.2188 Q933.2188,562.5469 932.7266,563.2969 Q932.2344,564.0469 932.2344,565.0781 L932.2344,566.1719 Q932.2344,567.4063 933.125,568.2266 Q934.0156,569.0469 935.6094,569.0469 Q936.5469,569.0469 937.2031,568.7969 Q937.5938,568.6406 938.0156,568.2031 Q938.2813,567.9375 938.4297,567.8594 Q938.5781,567.7813 938.7813,567.7813 Q939.1094,567.7813 939.3672,568.0391 Q939.625,568.2969 939.625,568.6406 Q939.625,568.9844 939.2813,569.3906 Q938.7813,569.9688 937.9844,570.2969 Q936.9063,570.75 935.6094,570.75 Q934.0938,570.75 932.8906,570.125 Q931.9063,569.625 931.2188,568.5547 Q930.5313,567.4844 930.5313,566.2031 L930.5313,565.0469 Q930.5313,563.7188 931.1484,562.5703 Q931.7656,561.4219 932.8594,560.8047 Q933.9531,560.1875 935.1875,560.1875 Q935.9219,560.1875 936.5703,560.3516 Q937.2188,560.5156 937.7656,560.875 Z "/><text fill="#000000" font-family="sans-serif" font-size="12" lengthAdjust="spacingAndGlyphs" textLength="73" x="949" y="569.9102">Administrator</text><line style="stroke: #A80036; stroke-width: 1.5;" x1="921" x2="1024" y1="581" y2="581"/><text fill="#000000" font-family="sans-serif" font-size="11" lengthAdjust="spacingAndGlyphs" textLength="59" x="926" y="596.4189">-String email</text><line style="stroke: #A80036; stroke-width: 1.5;" x1="921" x2="1024" y1="602.8359" y2="602.8359"/><!--link CreateDeliveryUI to DeliveryController--><path d="M549.5,56.213 C549.5,70.924 549.5,91.001 549.5,111.567 " fill="none" id="CreateDeliveryUI-DeliveryController" style="stroke: #A80036; stroke-width: 1.0; stroke-dasharray: 7.0,7.0;"/><polygon fill="#A80036" points="549.5,116.803,553.5,107.803,549.5,111.803,545.5,107.803,549.5,116.803" style="stroke: #A80036; stroke-width: 1.0;"/><!--link DeliveryController to PharmacyDB--><path d="M640.435,290.072 C661.481,309.877 682.938,330.068 700.857,346.931 " fill="none" id="DeliveryController-PharmacyDB" style="stroke: #A80036; stroke-width: 1.0; stroke-dasharray: 7.0,7.0;"/><polygon fill="#A80036" points="704.861,350.698,701.0485,341.617,701.22,347.2712,695.5657,347.4426,704.861,350.698" style="stroke: #A80036; stroke-width: 1.0;"/><!--link DeliveryController to Pharmacy--><path d="M569.689,290.418 C587.112,364.563 611.662,469.042 625.945,529.827 " fill="none" id="DeliveryController-Pharmacy" style="stroke: #A80036; stroke-width: 1.0; stroke-dasharray: 7.0,7.0;"/><polygon fill="#A80036" points="627.125,534.848,628.9591,525.1714,625.9807,529.9807,621.1714,527.0023,627.125,534.848" style="stroke: #A80036; stroke-width: 1.0;"/><!--link DeliveryController to Park--><path d="M535.887,290.339 C525.848,378.317 521.064,517.131 568.5,625 C581.856,655.37 605.9,682.508 629.572,703.93 " fill="none" id="DeliveryController-Park" style="stroke: #A80036; stroke-width: 1.0; stroke-dasharray: 7.0,7.0;"/><polygon fill="#A80036" points="633.367,707.319,629.3171,698.3413,629.6371,703.9891,623.9893,704.3091,633.367,707.319" style="stroke: #A80036; stroke-width: 1.0;"/><!--link DeliveryController to Spot--><path d="M475.879,290.4 C457.792,319.49 443.5,353.417 443.5,388 C443.5,388 443.5,388 443.5,755.5 C443.5,848.355 561.275,894.8037 636.112,914.9457 " fill="none" id="DeliveryController-Spot" style="stroke: #A80036; stroke-width: 1.0; stroke-dasharray: 7.0,7.0;"/><polygon fill="#A80036" points="640.978,916.2346,633.3019,910.0639,636.1446,914.9546,631.2539,917.7973,640.978,916.2346" style="stroke: #A80036; stroke-width: 1.0;"/><!--link DeliveryController to ParkDB--><path d="M687.221,231.45 C754.04,252.204 828.369,288.41 868.5,351 C886.732,379.435 883.64,396.805 868.5,427 C861.991,439.981 850.627,450.596 838.874,458.824 " fill="none" id="DeliveryController-ParkDB" style="stroke: #A80036; stroke-width: 1.0; stroke-dasharray: 7.0,7.0;"/><polygon fill="#A80036" points="834.535,461.747,844.234,460.0352,838.6816,458.9531,839.7637,453.4007,834.535,461.747" style="stroke: #A80036; stroke-width: 1.0;"/><!--link DeliveryController to SpotDB--><path d="M687.049,238.853 C746.376,257.397 814.782,284.004 870.5,320 C916.841,349.938 939.153,414.244 948.582,451.575 " fill="none" id="DeliveryController-SpotDB" style="stroke: #A80036; stroke-width: 1.0; stroke-dasharray: 7.0,7.0;"/><polygon fill="#A80036" points="949.881,456.879,951.6271,447.1862,948.6925,452.0223,943.8564,449.0877,949.881,456.879" style="stroke: #A80036; stroke-width: 1.0;"/><!--link DeliveryController to FileReader--><path d="M411.702,252.656 C334.9,280.167 237.823,316.058 152.5,351 C148.361,352.695 144.121,354.474 139.855,356.297 " fill="none" id="DeliveryController-FileReader" style="stroke: #A80036; stroke-width: 1.0; stroke-dasharray: 7.0,7.0;"/><polygon fill="#A80036" points="135.22,358.29,145.0681,358.4091,139.8133,356.3147,141.9077,351.0599,135.22,358.29" style="stroke: #A80036; stroke-width: 1.0;"/><!--link DeliveryController to DeliveryCreation--><path d="M424.057,290.072 C394.406,310.298 364.165,330.927 339.134,348.002 " fill="none" id="DeliveryController-DeliveryCreation" style="stroke: #A80036; stroke-width: 1.0; stroke-dasharray: 7.0,7.0;"/><polygon fill="#A80036" points="334.843,350.929,344.532,349.1619,338.9736,348.1115,340.024,342.553,334.843,350.929" style="stroke: #A80036; stroke-width: 1.0;"/><!--link Administrator to DeliveryByScooter--><path d="M972.5,611.047 C972.5,638.696 972.5,679.992 972.5,711.013 " fill="none" id="Administrator-DeliveryByScooter" style="stroke: #A80036; stroke-width: 1.0;"/><polygon fill="#A80036" points="972.5,716.289,976.5,707.289,972.5,711.289,968.5,707.289,972.5,716.289" style="stroke: #A80036; stroke-width: 1.0;"/><text fill="#000000" font-family="sans-serif" font-size="13" lengthAdjust="spacingAndGlyphs" textLength="43" x="973.5" y="669.4951">creates</text><text fill="#000000" font-family="sans-serif" font-size="13" lengthAdjust="spacingAndGlyphs" textLength="7" x="964.8109" y="632.2803">1</text><text fill="#000000" font-family="sans-serif" font-size="13" lengthAdjust="spacingAndGlyphs" textLength="5" x="967.0547" y="705.6133">*</text><!--link Administrator to DeliveryByDrone--><path d="M1007.51,611.047 C1040.39,639.267 1089.84,681.704 1126.22,712.922 " fill="none" id="Administrator-DeliveryByDrone" style="stroke: #A80036; stroke-width: 1.0;"/><polygon fill="#A80036" points="1130.14,716.289,1125.9165,707.3917,1126.3461,713.0322,1120.7056,713.4619,1130.14,716.289" style="stroke: #A80036; stroke-width: 1.0;"/><text fill="#000000" font-family="sans-serif" font-size="13" lengthAdjust="spacingAndGlyphs" textLength="43" x="1079.5" y="669.4951">creates</text><text fill="#000000" font-family="sans-serif" font-size="13" lengthAdjust="spacingAndGlyphs" textLength="7" x="1006.7159" y="632.2803">1</text><text fill="#000000" font-family="sans-serif" font-size="13" lengthAdjust="spacingAndGlyphs" textLength="5" x="1116.9712" y="705.6133">*</text><!--link Administrator to Park--><path d="M941.613,611.088 C920.892,630.289 892.383,654.883 864.5,673 C833.094,693.407 795.723,711.824 764.211,725.875 " fill="none" id="Administrator-Park" style="stroke: #A80036; stroke-width: 1.0;"/><polygon fill="#A80036" points="759.606,727.917,769.4549,727.9267,764.1771,725.8908,766.213,720.613,759.606,727.917" style="stroke: #A80036; stroke-width: 1.0;"/><text fill="#000000" font-family="sans-serif" font-size="13" lengthAdjust="spacingAndGlyphs" textLength="21" x="890.5" y="669.4951">add</text><text fill="#000000" font-family="sans-serif" font-size="13" lengthAdjust="spacingAndGlyphs" textLength="7" x="927.8431" y="632.3293">1</text><text fill="#000000" font-family="sans-serif" font-size="13" lengthAdjust="spacingAndGlyphs" textLength="5" x="767.6017" y="721.1978">*</text><!--link Park to Spot--><path d="M696.5,806.323 C696.5,829.236 696.5,856.188 696.5,878.8934 " fill="none" id="Park-Spot" style="stroke: #A80036; stroke-width: 1.0;"/><polygon fill="#A80036" points="696.5,883.9687,700.5,874.9687,696.5,878.9687,692.5,874.9687,696.5,883.9687" style="stroke: #A80036; stroke-width: 1.0;"/><text fill="#000000" font-family="sans-serif" font-size="13" lengthAdjust="spacingAndGlyphs" textLength="21" x="697.5" y="850.4951">has</text><text fill="#000000" font-family="sans-serif" font-size="13" lengthAdjust="spacingAndGlyphs" textLength="7" x="689.0297" y="827.8574">1</text><text fill="#000000" font-family="sans-serif" font-size="13" lengthAdjust="spacingAndGlyphs" textLength="5" x="691.1016" y="873.0795">*</text><!--link ParkDB to Park--><path d="M788.889,505.148 C773.136,547.493 739.272,638.523 717.212,697.825 " fill="none" id="ParkDB-Park" style="stroke: #A80036; stroke-width: 1.0;"/><polygon fill="#A80036" points="715.38,702.749,722.2666,695.7081,717.1231,698.0627,714.7685,692.9191,715.38,702.749" style="stroke: #A80036; stroke-width: 1.0;"/><text fill="#000000" font-family="sans-serif" font-size="13" lengthAdjust="spacingAndGlyphs" textLength="21" x="777.5" y="585.4951">has</text><text fill="#000000" font-family="sans-serif" font-size="13" lengthAdjust="spacingAndGlyphs" textLength="7" x="778.9369" y="526.522">1</text><text fill="#000000" font-family="sans-serif" font-size="13" lengthAdjust="spacingAndGlyphs" textLength="5" x="712.5811" y="692.2156">*</text><!--link SpotDB to Spot--><path d="M929.313,505.09 C920.314,513.982 910.445,524.524 902.5,535 C865.324,584.019 859.62,599.299 833.5,655 C803.11,719.806 809.956,742.204 777.5,806 C764.639,831.28 747.604,857.696 732.476,879.4566 " fill="none" id="SpotDB-Spot" style="stroke: #A80036; stroke-width: 1.0;"/><polygon fill="#A80036" points="729.478,883.7449,737.9137,878.6617,732.3434,879.6474,731.3577,874.0771,729.478,883.7449" style="stroke: #A80036; stroke-width: 1.0;"/><text fill="#000000" font-family="sans-serif" font-size="13" lengthAdjust="spacingAndGlyphs" textLength="21" x="834.5" y="669.4951">has</text><text fill="#000000" font-family="sans-serif" font-size="13" lengthAdjust="spacingAndGlyphs" textLength="7" x="915.3205" y="526.4499">1</text><text fill="#000000" font-family="sans-serif" font-size="13" lengthAdjust="spacingAndGlyphs" textLength="5" x="729.1449" y="873.15">*</text><!--link PharmacyDB to Pharmacy--><path d="M723.36,427.34 C706.7,456.768 683.334,498.042 665.182,530.103 " fill="none" id="PharmacyDB-Pharmacy" style="stroke: #A80036; stroke-width: 1.0;"/><polygon fill="#A80036" points="662.543,534.764,670.4572,528.9018,665.0058,530.4126,663.495,524.9613,662.543,534.764" style="stroke: #A80036; stroke-width: 1.0;"/><text fill="#000000" font-family="sans-serif" font-size="13" lengthAdjust="spacingAndGlyphs" textLength="21" x="705.5" y="486.4951">has</text><text fill="#000000" font-family="sans-serif" font-size="13" lengthAdjust="spacingAndGlyphs" textLength="7" x="712.433" y="448.2747">1</text><text fill="#000000" font-family="sans-serif" font-size="13" lengthAdjust="spacingAndGlyphs" textLength="5" x="660.9949" y="524.172">*</text><!--link Pharmacy to Park--><path d="M652.694,625.423 C660.249,647.511 669.455,674.427 677.474,697.873 " fill="none" id="Pharmacy-Park" style="stroke: #A80036; stroke-width: 1.0;"/><polygon fill="#A80036" points="679.166,702.821,680.0403,693.011,677.5489,698.0897,672.4702,695.5984,679.166,702.821" style="stroke: #A80036; stroke-width: 1.0;"/><text fill="#000000" font-family="sans-serif" font-size="13" lengthAdjust="spacingAndGlyphs" textLength="21" x="670.5" y="669.4951">has</text><text fill="#000000" font-family="sans-serif" font-size="13" lengthAdjust="spacingAndGlyphs" textLength="7" x="647.2654" y="646.1535">1</text><text fill="#000000" font-family="sans-serif" font-size="13" lengthAdjust="spacingAndGlyphs" textLength="5" x="671.5008" y="692.2973">*</text><!--
@startuml
skinparam classAttributeIconSize 0

class CreateDeliveryUI {

}

class DeliveryController {

  +List<Pharmacy> getPharmaciesList()
  +getPharmacyByEmail(PharmacyEmail)
  +createGraphForScooterDeliveries()
  +createDeliveryForScooter(orderList1, phar)
  +createDeliveryForDrone(orderList1,phar)
  +createDeliveryByDrone(drone,orderList1,phar)
  +createDeliveryByScooter(phar,scooter,orderList1)
  +getBatteryWasteForScooter(orderList1,phar,scooter)
  +getBatteryWasteForDrone(orderList1,phar,drone)
}

class DeliveryByDrone {
  -Integer deliveryByDroneId;
  -String deliveryByDroneStatus;
}

class DeliveryByScooter {
  -Integer deliveryByScooterId;
  -String deliveryByScooterStatus;
}

class FileReader {

  +getGraph()
  +getCoordinatesGraph()
}

class DeliveryCreation {

  +deliveryData(orderList1,graph,phar)
  +deliveryDroneData(ordersList,graph,phar)
}

class PharmacyDB {
  +List<Pharmacy> getAllPharmacies()
  +Pharmacy getPharmacy(PharmacyEmail)
}

class Pharmacy {
  -String designation
  -String email

  +String getEmail()
}


class Park {
    -Integer id
    -String designation
    -Integer spotsCapacity
    -Double powerCapacity
}

class ParkDB {

}

class Spot {
    -Integer id
    -String chargingSpot
    -Integer idPark
}

class SpotDB {

}

class Administrator {
  -String email
}

CreateDeliveryUI ..> DeliveryController
DeliveryController ..> PharmacyDB
DeliveryController ..> Pharmacy
DeliveryController ..> Park
DeliveryController ..> Spot
DeliveryController ..> ParkDB
DeliveryController ..> SpotDB
DeliveryController ..> FileReader
DeliveryController ..> DeliveryCreation

Administrator "1" - -> "*" DeliveryByScooter : creates

Administrator "1" - -> "*" DeliveryByDrone : creates

Administrator "1" - -> "*" Park : add

Park "1" - -> "*" Spot : has

ParkDB "1" - -> "*" Park : has

SpotDB "1" - -> "*" Spot : has

PharmacyDB "1" - -> "*" Pharmacy : has

Pharmacy "1" - -> "*" Park : has


@enduml

PlantUML version 1.2018.14(Fri Dec 21 16:33:16 GMT 2018)
(GPL source distribution)
Java Runtime: Java(TM) SE Runtime Environment
JVM: Java HotSpot(TM) 64-Bit Server VM
Java Version: 1.8.0_221-b11
Operating System: Windows 10
OS Version: 10.0
Default Encoding: Cp1252
Language: pt
Country: PT
--></g></svg>