<?xml version="1.0" encoding="UTF-8" standalone="no"?><svg xmlns="http://www.w3.org/2000/svg" xmlns:xlink="http://www.w3.org/1999/xlink" contentScriptType="application/ecmascript" contentStyleType="text/css" height="618px" preserveAspectRatio="none" style="width:825px;height:618px;" version="1.1" viewBox="0 0 825 618" width="825px" zoomAndPan="magnify"><defs><filter height="300%" id="fvfd77oszam28" width="300%" x="-1" y="-1"><feGaussianBlur result="blurOut" stdDeviation="2.0"/><feColorMatrix in="blurOut" result="blurOut2" type="matrix" values="0 0 0 0 0 0 0 0 0 0 0 0 0 0 0 0 0 0 .4 0"/><feOffset dx="4.0" dy="4.0" in="blurOut2" result="blurOut3"/><feBlend in="SourceGraphic" in2="blurOut3" mode="normal"/></filter></defs><g><!--class RemoveScooterUI--><rect fill="#FEFECE" filter="url(#fvfd77oszam28)" height="48" id="RemoveScooterUI" style="stroke: #A80036; stroke-width: 1.5;" width="132" x="205" y="8"/><ellipse cx="220" cy="24" fill="#ADD1B2" rx="11" ry="11" style="stroke: #A80036; stroke-width: 1.0;"/><path d="M222.7656,19.875 Q222.9219,19.6563 223.1094,19.5469 Q223.2969,19.4375 223.5156,19.4375 Q223.8906,19.4375 224.125,19.6953 Q224.3594,19.9531 224.3594,20.5625 L224.3594,22.0156 Q224.3594,22.625 224.125,22.8906 Q223.8906,23.1563 223.5156,23.1563 Q223.1719,23.1563 222.9688,22.9531 Q222.7656,22.7656 222.6563,22.25 Q222.6094,21.8906 222.4219,21.7031 Q222.0938,21.3281 221.4844,21.1094 Q220.875,20.8906 220.25,20.8906 Q219.4844,20.8906 218.8516,21.2188 Q218.2188,21.5469 217.7266,22.2969 Q217.2344,23.0469 217.2344,24.0781 L217.2344,25.1719 Q217.2344,26.4063 218.125,27.2266 Q219.0156,28.0469 220.6094,28.0469 Q221.5469,28.0469 222.2031,27.7969 Q222.5938,27.6406 223.0156,27.2031 Q223.2813,26.9375 223.4297,26.8594 Q223.5781,26.7813 223.7813,26.7813 Q224.1094,26.7813 224.3672,27.0391 Q224.625,27.2969 224.625,27.6406 Q224.625,27.9844 224.2813,28.3906 Q223.7813,28.9688 222.9844,29.2969 Q221.9063,29.75 220.6094,29.75 Q219.0938,29.75 217.8906,29.125 Q216.9063,28.625 216.2188,27.5547 Q215.5313,26.4844 215.5313,25.2031 L215.5313,24.0469 Q215.5313,22.7188 216.1484,21.5703 Q216.7656,20.4219 217.8594,19.8047 Q218.9531,19.1875 220.1875,19.1875 Q220.9219,19.1875 221.5703,19.3516 Q222.2188,19.5156 222.7656,19.875 Z "/><text fill="#000000" font-family="sans-serif" font-size="12" lengthAdjust="spacingAndGlyphs" textLength="100" x="234" y="28.9102">RemoveScooterUI</text><line style="stroke: #A80036; stroke-width: 1.5;" x1="206" x2="336" y1="40" y2="40"/><line style="stroke: #A80036; stroke-width: 1.5;" x1="206" x2="336" y1="48" y2="48"/><!--class RemoveScooterController--><rect fill="#FEFECE" filter="url(#fvfd77oszam28)" height="117.1797" id="RemoveScooterController" style="stroke: #A80036; stroke-width: 1.5;" width="198" x="172" y="117"/><ellipse cx="197.8" cy="133" fill="#ADD1B2" rx="11" ry="11" style="stroke: #A80036; stroke-width: 1.0;"/><path d="M200.5656,128.875 Q200.7219,128.6563 200.9094,128.5469 Q201.0969,128.4375 201.3156,128.4375 Q201.6906,128.4375 201.925,128.6953 Q202.1594,128.9531 202.1594,129.5625 L202.1594,131.0156 Q202.1594,131.625 201.925,131.8906 Q201.6906,132.1563 201.3156,132.1563 Q200.9719,132.1563 200.7688,131.9531 Q200.5656,131.7656 200.4563,131.25 Q200.4094,130.8906 200.2219,130.7031 Q199.8938,130.3281 199.2844,130.1094 Q198.675,129.8906 198.05,129.8906 Q197.2844,129.8906 196.6516,130.2188 Q196.0188,130.5469 195.5266,131.2969 Q195.0344,132.0469 195.0344,133.0781 L195.0344,134.1719 Q195.0344,135.4063 195.925,136.2266 Q196.8156,137.0469 198.4094,137.0469 Q199.3469,137.0469 200.0031,136.7969 Q200.3938,136.6406 200.8156,136.2031 Q201.0813,135.9375 201.2297,135.8594 Q201.3781,135.7813 201.5813,135.7813 Q201.9094,135.7813 202.1672,136.0391 Q202.425,136.2969 202.425,136.6406 Q202.425,136.9844 202.0813,137.3906 Q201.5813,137.9688 200.7844,138.2969 Q199.7063,138.75 198.4094,138.75 Q196.8938,138.75 195.6906,138.125 Q194.7063,137.625 194.0188,136.5547 Q193.3313,135.4844 193.3313,134.2031 L193.3313,133.0469 Q193.3313,131.7188 193.9484,130.5703 Q194.5656,129.4219 195.6594,128.8047 Q196.7531,128.1875 197.9875,128.1875 Q198.7219,128.1875 199.3703,128.3516 Q200.0188,128.5156 200.5656,128.875 Z "/><text fill="#000000" font-family="sans-serif" font-size="12" lengthAdjust="spacingAndGlyphs" textLength="142" x="214.2" y="137.9102">RemoveScooterController</text><line style="stroke: #A80036; stroke-width: 1.5;" x1="173" x2="369" y1="149" y2="149"/><line style="stroke: #A80036; stroke-width: 1.5;" x1="173" x2="369" y1="157" y2="157"/><text fill="#000000" font-family="sans-serif" font-size="11" lengthAdjust="spacingAndGlyphs" textLength="182" x="178" y="172.4189">+List&lt;Pharmacy&gt; getPharmaciesList()</text><text fill="#000000" font-family="sans-serif" font-size="11" lengthAdjust="spacingAndGlyphs" textLength="186" x="178" y="186.2549">+getPharmacyByEmail(PharmacyEmail)</text><text fill="#000000" font-family="sans-serif" font-size="11" lengthAdjust="spacingAndGlyphs" textLength="160" x="178" y="200.0908">+List&lt;Scooter&gt; getScootersList()</text><text fill="#000000" font-family="sans-serif" font-size="11" lengthAdjust="spacingAndGlyphs" textLength="141" x="178" y="213.9268">+getScoooterByID(scooterID)</text><text fill="#000000" font-family="sans-serif" font-size="11" lengthAdjust="spacingAndGlyphs" textLength="88" x="178" y="227.7627">+removeScooter()</text><!--class PharmacyDB--><rect fill="#FEFECE" filter="url(#fvfd77oszam28)" height="75.6719" id="PharmacyDB" style="stroke: #A80036; stroke-width: 1.5;" width="212" x="6" y="308.5"/><ellipse cx="71.75" cy="324.5" fill="#ADD1B2" rx="11" ry="11" style="stroke: #A80036; stroke-width: 1.0;"/><path d="M74.5156,320.375 Q74.6719,320.1563 74.8594,320.0469 Q75.0469,319.9375 75.2656,319.9375 Q75.6406,319.9375 75.875,320.1953 Q76.1094,320.4531 76.1094,321.0625 L76.1094,322.5156 Q76.1094,323.125 75.875,323.3906 Q75.6406,323.6563 75.2656,323.6563 Q74.9219,323.6563 74.7188,323.4531 Q74.5156,323.2656 74.4063,322.75 Q74.3594,322.3906 74.1719,322.2031 Q73.8438,321.8281 73.2344,321.6094 Q72.625,321.3906 72,321.3906 Q71.2344,321.3906 70.6016,321.7188 Q69.9688,322.0469 69.4766,322.7969 Q68.9844,323.5469 68.9844,324.5781 L68.9844,325.6719 Q68.9844,326.9063 69.875,327.7266 Q70.7656,328.5469 72.3594,328.5469 Q73.2969,328.5469 73.9531,328.2969 Q74.3438,328.1406 74.7656,327.7031 Q75.0313,327.4375 75.1797,327.3594 Q75.3281,327.2813 75.5313,327.2813 Q75.8594,327.2813 76.1172,327.5391 Q76.375,327.7969 76.375,328.1406 Q76.375,328.4844 76.0313,328.8906 Q75.5313,329.4688 74.7344,329.7969 Q73.6563,330.25 72.3594,330.25 Q70.8438,330.25 69.6406,329.625 Q68.6563,329.125 67.9688,328.0547 Q67.2813,326.9844 67.2813,325.7031 L67.2813,324.5469 Q67.2813,323.2188 67.8984,322.0703 Q68.5156,320.9219 69.6094,320.3047 Q70.7031,319.6875 71.9375,319.6875 Q72.6719,319.6875 73.3203,319.8516 Q73.9688,320.0156 74.5156,320.375 Z "/><text fill="#000000" font-family="sans-serif" font-size="12" lengthAdjust="spacingAndGlyphs" textLength="72" x="92.25" y="329.4102">PharmacyDB</text><line style="stroke: #A80036; stroke-width: 1.5;" x1="7" x2="217" y1="340.5" y2="340.5"/><line style="stroke: #A80036; stroke-width: 1.5;" x1="7" x2="217" y1="348.5" y2="348.5"/><text fill="#000000" font-family="sans-serif" font-size="11" lengthAdjust="spacingAndGlyphs" textLength="177" x="12" y="363.9189">+List&lt;Pharmacy&gt; getAllPharmacies()</text><text fill="#000000" font-family="sans-serif" font-size="11" lengthAdjust="spacingAndGlyphs" textLength="200" x="12" y="377.7549">+Pharmacy getPharmacy(PharmacyEmail)</text><!--class ScooterDB--><rect fill="#FEFECE" filter="url(#fvfd77oszam28)" height="89.5078" id="ScooterDB" style="stroke: #A80036; stroke-width: 1.5;" width="213" x="461.5" y="301.5"/><ellipse cx="534.25" cy="317.5" fill="#ADD1B2" rx="11" ry="11" style="stroke: #A80036; stroke-width: 1.0;"/><path d="M537.0156,313.375 Q537.1719,313.1563 537.3594,313.0469 Q537.5469,312.9375 537.7656,312.9375 Q538.1406,312.9375 538.375,313.1953 Q538.6094,313.4531 538.6094,314.0625 L538.6094,315.5156 Q538.6094,316.125 538.375,316.3906 Q538.1406,316.6563 537.7656,316.6563 Q537.4219,316.6563 537.2188,316.4531 Q537.0156,316.2656 536.9063,315.75 Q536.8594,315.3906 536.6719,315.2031 Q536.3438,314.8281 535.7344,314.6094 Q535.125,314.3906 534.5,314.3906 Q533.7344,314.3906 533.1016,314.7188 Q532.4688,315.0469 531.9766,315.7969 Q531.4844,316.5469 531.4844,317.5781 L531.4844,318.6719 Q531.4844,319.9063 532.375,320.7266 Q533.2656,321.5469 534.8594,321.5469 Q535.7969,321.5469 536.4531,321.2969 Q536.8438,321.1406 537.2656,320.7031 Q537.5313,320.4375 537.6797,320.3594 Q537.8281,320.2813 538.0313,320.2813 Q538.3594,320.2813 538.6172,320.5391 Q538.875,320.7969 538.875,321.1406 Q538.875,321.4844 538.5313,321.8906 Q538.0313,322.4688 537.2344,322.7969 Q536.1563,323.25 534.8594,323.25 Q533.3438,323.25 532.1406,322.625 Q531.1563,322.125 530.4688,321.0547 Q529.7813,319.9844 529.7813,318.7031 L529.7813,317.5469 Q529.7813,316.2188 530.3984,315.0703 Q531.0156,313.9219 532.1094,313.3047 Q533.2031,312.6875 534.4375,312.6875 Q535.1719,312.6875 535.8203,312.8516 Q536.4688,313.0156 537.0156,313.375 Z "/><text fill="#000000" font-family="sans-serif" font-size="12" lengthAdjust="spacingAndGlyphs" textLength="59" x="554.75" y="322.4102">ScooterDB</text><line style="stroke: #A80036; stroke-width: 1.5;" x1="462.5" x2="673.5" y1="333.5" y2="333.5"/><line style="stroke: #A80036; stroke-width: 1.5;" x1="462.5" x2="673.5" y1="341.5" y2="341.5"/><text fill="#000000" font-family="sans-serif" font-size="11" lengthAdjust="spacingAndGlyphs" textLength="201" x="467.5" y="356.9189">+List&lt;Scooter&gt; getAllScooters(pharEmail)</text><text fill="#000000" font-family="sans-serif" font-size="11" lengthAdjust="spacingAndGlyphs" textLength="113" x="467.5" y="370.7549">+getScooter(scooterID)</text><text fill="#000000" font-family="sans-serif" font-size="11" lengthAdjust="spacingAndGlyphs" textLength="102" x="467.5" y="384.5908">+remove(scoooterID)</text><!--class Scooter--><rect fill="#FEFECE" filter="url(#fvfd77oszam28)" height="131.0156" id="Scooter" style="stroke: #A80036; stroke-width: 1.5;" width="104" x="467" y="476"/><ellipse cx="495.5" cy="492" fill="#ADD1B2" rx="11" ry="11" style="stroke: #A80036; stroke-width: 1.0;"/><path d="M498.2656,487.875 Q498.4219,487.6563 498.6094,487.5469 Q498.7969,487.4375 499.0156,487.4375 Q499.3906,487.4375 499.625,487.6953 Q499.8594,487.9531 499.8594,488.5625 L499.8594,490.0156 Q499.8594,490.625 499.625,490.8906 Q499.3906,491.1563 499.0156,491.1563 Q498.6719,491.1563 498.4688,490.9531 Q498.2656,490.7656 498.1563,490.25 Q498.1094,489.8906 497.9219,489.7031 Q497.5938,489.3281 496.9844,489.1094 Q496.375,488.8906 495.75,488.8906 Q494.9844,488.8906 494.3516,489.2188 Q493.7188,489.5469 493.2266,490.2969 Q492.7344,491.0469 492.7344,492.0781 L492.7344,493.1719 Q492.7344,494.4063 493.625,495.2266 Q494.5156,496.0469 496.1094,496.0469 Q497.0469,496.0469 497.7031,495.7969 Q498.0938,495.6406 498.5156,495.2031 Q498.7813,494.9375 498.9297,494.8594 Q499.0781,494.7813 499.2813,494.7813 Q499.6094,494.7813 499.8672,495.0391 Q500.125,495.2969 500.125,495.6406 Q500.125,495.9844 499.7813,496.3906 Q499.2813,496.9688 498.4844,497.2969 Q497.4063,497.75 496.1094,497.75 Q494.5938,497.75 493.3906,497.125 Q492.4063,496.625 491.7188,495.5547 Q491.0313,494.4844 491.0313,493.2031 L491.0313,492.0469 Q491.0313,490.7188 491.6484,489.5703 Q492.2656,488.4219 493.3594,487.8047 Q494.4531,487.1875 495.6875,487.1875 Q496.4219,487.1875 497.0703,487.3516 Q497.7188,487.5156 498.2656,487.875 Z "/><text fill="#000000" font-family="sans-serif" font-size="12" lengthAdjust="spacingAndGlyphs" textLength="42" x="512.5" y="496.9102">Scooter</text><line style="stroke: #A80036; stroke-width: 1.5;" x1="468" x2="570" y1="508" y2="508"/><text fill="#000000" font-family="sans-serif" font-size="11" lengthAdjust="spacingAndGlyphs" textLength="43" x="473" y="523.4189">-String id</text><text fill="#000000" font-family="sans-serif" font-size="11" lengthAdjust="spacingAndGlyphs" textLength="81" x="473" y="537.2549">-Double capacity</text><text fill="#000000" font-family="sans-serif" font-size="11" lengthAdjust="spacingAndGlyphs" textLength="72" x="473" y="551.0908">-Double power</text><text fill="#000000" font-family="sans-serif" font-size="11" lengthAdjust="spacingAndGlyphs" textLength="92" x="473" y="564.9268">-Double maxPower</text><text fill="#000000" font-family="sans-serif" font-size="11" lengthAdjust="spacingAndGlyphs" textLength="74" x="473" y="578.7627">-Integer battery</text><line style="stroke: #A80036; stroke-width: 1.5;" x1="468" x2="570" y1="585.1797" y2="585.1797"/><text fill="#000000" font-family="sans-serif" font-size="11" lengthAdjust="spacingAndGlyphs" textLength="69" x="473" y="600.5986">+String getID()</text><!--class Pharmacy--><rect fill="#FEFECE" filter="url(#fvfd77oszam28)" height="103.3438" id="Pharmacy" style="stroke: #A80036; stroke-width: 1.5;" width="102" x="324" y="295"/><ellipse cx="345.75" cy="311" fill="#ADD1B2" rx="11" ry="11" style="stroke: #A80036; stroke-width: 1.0;"/><path d="M348.5156,306.875 Q348.6719,306.6563 348.8594,306.5469 Q349.0469,306.4375 349.2656,306.4375 Q349.6406,306.4375 349.875,306.6953 Q350.1094,306.9531 350.1094,307.5625 L350.1094,309.0156 Q350.1094,309.625 349.875,309.8906 Q349.6406,310.1563 349.2656,310.1563 Q348.9219,310.1563 348.7188,309.9531 Q348.5156,309.7656 348.4063,309.25 Q348.3594,308.8906 348.1719,308.7031 Q347.8438,308.3281 347.2344,308.1094 Q346.625,307.8906 346,307.8906 Q345.2344,307.8906 344.6016,308.2188 Q343.9688,308.5469 343.4766,309.2969 Q342.9844,310.0469 342.9844,311.0781 L342.9844,312.1719 Q342.9844,313.4063 343.875,314.2266 Q344.7656,315.0469 346.3594,315.0469 Q347.2969,315.0469 347.9531,314.7969 Q348.3438,314.6406 348.7656,314.2031 Q349.0313,313.9375 349.1797,313.8594 Q349.3281,313.7813 349.5313,313.7813 Q349.8594,313.7813 350.1172,314.0391 Q350.375,314.2969 350.375,314.6406 Q350.375,314.9844 350.0313,315.3906 Q349.5313,315.9688 348.7344,316.2969 Q347.6563,316.75 346.3594,316.75 Q344.8438,316.75 343.6406,316.125 Q342.6563,315.625 341.9688,314.5547 Q341.2813,313.4844 341.2813,312.2031 L341.2813,311.0469 Q341.2813,309.7188 341.8984,308.5703 Q342.5156,307.4219 343.6094,306.8047 Q344.7031,306.1875 345.9375,306.1875 Q346.6719,306.1875 347.3203,306.3516 Q347.9688,306.5156 348.5156,306.875 Z "/><text fill="#000000" font-family="sans-serif" font-size="12" lengthAdjust="spacingAndGlyphs" textLength="55" x="361.25" y="315.9102">Pharmacy</text><line style="stroke: #A80036; stroke-width: 1.5;" x1="325" x2="425" y1="327" y2="327"/><text fill="#000000" font-family="sans-serif" font-size="11" lengthAdjust="spacingAndGlyphs" textLength="90" x="330" y="342.4189">-String designation</text><text fill="#000000" font-family="sans-serif" font-size="11" lengthAdjust="spacingAndGlyphs" textLength="77" x="330" y="356.2549">-Adress adress</text><text fill="#000000" font-family="sans-serif" font-size="11" lengthAdjust="spacingAndGlyphs" textLength="81" x="330" y="370.0908">-Integer parkMax</text><line style="stroke: #A80036; stroke-width: 1.5;" x1="325" x2="425" y1="376.5078" y2="376.5078"/><text fill="#000000" font-family="sans-serif" font-size="11" lengthAdjust="spacingAndGlyphs" textLength="84" x="330" y="391.9268">+String getEmail()</text><!--class Administrator--><rect fill="#FEFECE" filter="url(#fvfd77oszam28)" height="61.8359" id="Administrator" style="stroke: #A80036; stroke-width: 1.5;" width="105" x="709.5" y="315.5"/><ellipse cx="724.5" cy="331.5" fill="#ADD1B2" rx="11" ry="11" style="stroke: #A80036; stroke-width: 1.0;"/><path d="M727.2656,327.375 Q727.4219,327.1563 727.6094,327.0469 Q727.7969,326.9375 728.0156,326.9375 Q728.3906,326.9375 728.625,327.1953 Q728.8594,327.4531 728.8594,328.0625 L728.8594,329.5156 Q728.8594,330.125 728.625,330.3906 Q728.3906,330.6563 728.0156,330.6563 Q727.6719,330.6563 727.4688,330.4531 Q727.2656,330.2656 727.1563,329.75 Q727.1094,329.3906 726.9219,329.2031 Q726.5938,328.8281 725.9844,328.6094 Q725.375,328.3906 724.75,328.3906 Q723.9844,328.3906 723.3516,328.7188 Q722.7188,329.0469 722.2266,329.7969 Q721.7344,330.5469 721.7344,331.5781 L721.7344,332.6719 Q721.7344,333.9063 722.625,334.7266 Q723.5156,335.5469 725.1094,335.5469 Q726.0469,335.5469 726.7031,335.2969 Q727.0938,335.1406 727.5156,334.7031 Q727.7813,334.4375 727.9297,334.3594 Q728.0781,334.2813 728.2813,334.2813 Q728.6094,334.2813 728.8672,334.5391 Q729.125,334.7969 729.125,335.1406 Q729.125,335.4844 728.7813,335.8906 Q728.2813,336.4688 727.4844,336.7969 Q726.4063,337.25 725.1094,337.25 Q723.5938,337.25 722.3906,336.625 Q721.4063,336.125 720.7188,335.0547 Q720.0313,333.9844 720.0313,332.7031 L720.0313,331.5469 Q720.0313,330.2188 720.6484,329.0703 Q721.2656,327.9219 722.3594,327.3047 Q723.4531,326.6875 724.6875,326.6875 Q725.4219,326.6875 726.0703,326.8516 Q726.7188,327.0156 727.2656,327.375 Z "/><text fill="#000000" font-family="sans-serif" font-size="12" lengthAdjust="spacingAndGlyphs" textLength="73" x="738.5" y="336.4102">Administrator</text><line style="stroke: #A80036; stroke-width: 1.5;" x1="710.5" x2="813.5" y1="347.5" y2="347.5"/><text fill="#000000" font-family="sans-serif" font-size="11" lengthAdjust="spacingAndGlyphs" textLength="59" x="715.5" y="362.9189">-String email</text><line style="stroke: #A80036; stroke-width: 1.5;" x1="710.5" x2="813.5" y1="369.3359" y2="369.3359"/><!--link RemoveScooterUI to RemoveScooterController--><path d="M271,56.049 C271,71.282 271,92.037 271,111.92 " fill="none" id="RemoveScooterUI-RemoveScooterController" style="stroke: #A80036; stroke-width: 1.0; stroke-dasharray: 7.0,7.0;"/><polygon fill="#A80036" points="271,116.952,275,107.952,271,111.952,267,107.952,271,116.952" style="stroke: #A80036; stroke-width: 1.0;"/><!--link RemoveScooterController to PharmacyDB--><path d="M216.726,234.188 C194.96,257.322 170.38,283.448 150.505,304.573 " fill="none" id="RemoveScooterController-PharmacyDB" style="stroke: #A80036; stroke-width: 1.0; stroke-dasharray: 7.0,7.0;"/><polygon fill="#A80036" points="146.851,308.457,155.932,304.6445,150.2778,304.816,150.1064,299.1617,146.851,308.457" style="stroke: #A80036; stroke-width: 1.0;"/><!--link RemoveScooterController to Scooter--><path d="M267.852,234.15 C267.974,281.662 274.643,348.965 306,398 C342.921,455.735 412.523,495.582 462.113,518.1655 " fill="none" id="RemoveScooterController-Scooter" style="stroke: #A80036; stroke-width: 1.0; stroke-dasharray: 7.0,7.0;"/><polygon fill="#A80036" points="466.848,520.2971,460.2837,512.9547,462.2888,518.2443,456.9993,520.2494,466.848,520.2971" style="stroke: #A80036; stroke-width: 1.0;"/><!--link RemoveScooterController to Pharmacy--><path d="M306.5,234.188 C317.675,252.347 329.984,272.349 341.048,290.328 " fill="none" id="RemoveScooterController-Pharmacy" style="stroke: #A80036; stroke-width: 1.0; stroke-dasharray: 7.0,7.0;"/><polygon fill="#A80036" points="343.833,294.853,342.5239,285.0915,341.213,290.5944,335.7101,289.2836,343.833,294.853" style="stroke: #A80036; stroke-width: 1.0;"/><!--link Administrator to Scooter--><path d="M724.031,377.656 C684.123,409.353 620.91,459.559 575.218,495.85 " fill="none" id="Administrator-Scooter" style="stroke: #A80036; stroke-width: 1.0;"/><polygon fill="#A80036" points="571.13,499.097,580.6655,496.6323,575.0455,495.9875,575.6902,490.3675,571.13,499.097" style="stroke: #A80036; stroke-width: 1.0;"/><text fill="#000000" font-family="sans-serif" font-size="13" lengthAdjust="spacingAndGlyphs" textLength="109" x="656" y="442.4951">add/remove/update</text><text fill="#000000" font-family="sans-serif" font-size="13" lengthAdjust="spacingAndGlyphs" textLength="7" x="708.8668" y="398.9107">1</text><text fill="#000000" font-family="sans-serif" font-size="13" lengthAdjust="spacingAndGlyphs" textLength="5" x="579.1538" y="489.2138">*</text><!--link Pharmacy to Scooter--><path d="M412.834,398.208 C430.583,421.997 451.939,450.619 470.828,475.936 " fill="none" id="Pharmacy-Scooter" style="stroke: #A80036; stroke-width: 1.0;"/><text fill="#000000" font-family="sans-serif" font-size="13" lengthAdjust="spacingAndGlyphs" textLength="21" x="448" y="442.4951">has</text><polygon fill="#000000" points="454,451.3516,457,457.3516,460,451.3516,454,451.3516" style="stroke: #000000; stroke-width: 1.0;"/><text fill="#000000" font-family="sans-serif" font-size="13" lengthAdjust="spacingAndGlyphs" textLength="7" x="410.4476" y="419.7269">1</text><text fill="#000000" font-family="sans-serif" font-size="13" lengthAdjust="spacingAndGlyphs" textLength="5" x="459.9691" y="464.9447">*</text><!--link ScooterDB to Scooter--><path d="M556.758,391.778 C550.429,416.707 542.411,448.289 535.393,475.932 " fill="none" id="ScooterDB-Scooter" style="stroke: #A80036; stroke-width: 1.0;"/><text fill="#000000" font-family="sans-serif" font-size="13" lengthAdjust="spacingAndGlyphs" textLength="48" x="547" y="442.4951">removes</text><polygon fill="#000000" points="566.5,451.3516,569.5,457.3516,572.5,451.3516,566.5,451.3516" style="stroke: #000000; stroke-width: 1.0;"/><text fill="#000000" font-family="sans-serif" font-size="13" lengthAdjust="spacingAndGlyphs" textLength="7" x="547.777" y="412.489">1</text><text fill="#000000" font-family="sans-serif" font-size="13" lengthAdjust="spacingAndGlyphs" textLength="5" x="531.9994" y="464.9402">*</text><!--
@startuml
skinparam classAttributeIconSize 0

class RemoveScooterUI {

}

class RemoveScooterController {
  +List<Pharmacy> getPharmaciesList()
  +getPharmacyByEmail(PharmacyEmail)
  +List<Scooter> getScootersList()
  +getScoooterByID(scooterID)
  +removeScooter()
}

class PharmacyDB {
  +List<Pharmacy> getAllPharmacies()
  +Pharmacy getPharmacy(PharmacyEmail)
}

class ScooterDB {
  +List<Scooter> getAllScooters(pharEmail)
  +getScooter(scooterID)
  +remove(scoooterID)
}

class Scooter {
  -String id
  -Double capacity
  -Double power
  -Double maxPower
  -Integer battery
  +String getID()
}

class Pharmacy {
  -String designation
  -Adress adress
  -Integer parkMax
  +String getEmail()
}

class Administrator {
  -String email
}

RemoveScooterUI ..> RemoveScooterController
RemoveScooterController ..> PharmacyDB
RemoveScooterController ..> Scooter
RemoveScooterController ..> Pharmacy

Administrator "1" - -> "*" Scooter : add/remove/update

Pharmacy "1" - - "*" Scooter : has >

ScooterDB "1" - - "*" Scooter: removes >

@enduml

PlantUML version 1.2018.14(Fri Dec 21 16:33:16 GMT 2018)
(GPL source distribution)
Java Runtime: Java(TM) SE Runtime Environment
JVM: Java HotSpot(TM) 64-Bit Server VM
Java Version: 1.8.0_261-b12
Operating System: Windows 10
OS Version: 10.0
Default Encoding: Cp1252
Language: pt
Country: PT
--></g></svg>