<?xml version="1.0" encoding="UTF-8" standalone="no"?><svg xmlns="http://www.w3.org/2000/svg" xmlns:xlink="http://www.w3.org/1999/xlink" contentScriptType="application/ecmascript" contentStyleType="text/css" height="485px" preserveAspectRatio="none" style="width:894px;height:485px;" version="1.1" viewBox="0 0 894 485" width="894px" zoomAndPan="magnify"><defs><filter height="300%" id="fde57wz164ow9" width="300%" x="-1" y="-1"><feGaussianBlur result="blurOut" stdDeviation="2.0"/><feColorMatrix in="blurOut" result="blurOut2" type="matrix" values="0 0 0 0 0 0 0 0 0 0 0 0 0 0 0 0 0 0 .4 0"/><feOffset dx="4.0" dy="4.0" in="blurOut2" result="blurOut3"/><feBlend in="SourceGraphic" in2="blurOut3" mode="normal"/></filter></defs><g><!--class Platform--><rect fill="#FEFECE" filter="url(#fde57wz164ow9)" height="53.8359" id="Platform" style="stroke: #A80036; stroke-width: 1.5;" width="112" x="6" y="116.5"/><ellipse cx="36.3" cy="132.5" fill="#ADD1B2" rx="11" ry="11" style="stroke: #A80036; stroke-width: 1.0;"/><path d="M39.0656,128.375 Q39.2219,128.1563 39.4094,128.0469 Q39.5969,127.9375 39.8156,127.9375 Q40.1906,127.9375 40.425,128.1953 Q40.6594,128.4531 40.6594,129.0625 L40.6594,130.5156 Q40.6594,131.125 40.425,131.3906 Q40.1906,131.6563 39.8156,131.6563 Q39.4719,131.6563 39.2688,131.4531 Q39.0656,131.2656 38.9563,130.75 Q38.9094,130.3906 38.7219,130.2031 Q38.3938,129.8281 37.7844,129.6094 Q37.175,129.3906 36.55,129.3906 Q35.7844,129.3906 35.1516,129.7188 Q34.5188,130.0469 34.0266,130.7969 Q33.5344,131.5469 33.5344,132.5781 L33.5344,133.6719 Q33.5344,134.9063 34.425,135.7266 Q35.3156,136.5469 36.9094,136.5469 Q37.8469,136.5469 38.5031,136.2969 Q38.8938,136.1406 39.3156,135.7031 Q39.5813,135.4375 39.7297,135.3594 Q39.8781,135.2813 40.0813,135.2813 Q40.4094,135.2813 40.6672,135.5391 Q40.925,135.7969 40.925,136.1406 Q40.925,136.4844 40.5813,136.8906 Q40.0813,137.4688 39.2844,137.7969 Q38.2063,138.25 36.9094,138.25 Q35.3938,138.25 34.1906,137.625 Q33.2063,137.125 32.5188,136.0547 Q31.8312,134.9844 31.8312,133.7031 L31.8312,132.5469 Q31.8312,131.2188 32.4484,130.0703 Q33.0656,128.9219 34.1594,128.3047 Q35.2531,127.6875 36.4875,127.6875 Q37.2219,127.6875 37.8703,127.8516 Q38.5188,128.0156 39.0656,128.375 Z "/><text fill="#000000" font-family="sans-serif" font-size="12" lengthAdjust="spacingAndGlyphs" textLength="46" x="53.7" y="137.4102">Platform</text><line style="stroke: #A80036; stroke-width: 1.5;" x1="7" x2="117" y1="148.5" y2="148.5"/><rect fill="none" height="6" style="stroke: #C82930; stroke-width: 1.0;" width="6" x="14" y="157.918"/><text fill="#000000" font-family="sans-serif" font-size="11" lengthAdjust="spacingAndGlyphs" textLength="86" x="26" y="163.9189">String designation</text><!--class Pharmacy--><rect fill="#FEFECE" filter="url(#fde57wz164ow9)" height="81.5078" id="Pharmacy" style="stroke: #A80036; stroke-width: 1.5;" width="112" x="291" y="8.5"/><ellipse cx="317.25" cy="24.5" fill="#ADD1B2" rx="11" ry="11" style="stroke: #A80036; stroke-width: 1.0;"/><path d="M320.0156,20.375 Q320.1719,20.1563 320.3594,20.0469 Q320.5469,19.9375 320.7656,19.9375 Q321.1406,19.9375 321.375,20.1953 Q321.6094,20.4531 321.6094,21.0625 L321.6094,22.5156 Q321.6094,23.125 321.375,23.3906 Q321.1406,23.6563 320.7656,23.6563 Q320.4219,23.6563 320.2188,23.4531 Q320.0156,23.2656 319.9063,22.75 Q319.8594,22.3906 319.6719,22.2031 Q319.3438,21.8281 318.7344,21.6094 Q318.125,21.3906 317.5,21.3906 Q316.7344,21.3906 316.1016,21.7188 Q315.4688,22.0469 314.9766,22.7969 Q314.4844,23.5469 314.4844,24.5781 L314.4844,25.6719 Q314.4844,26.9063 315.375,27.7266 Q316.2656,28.5469 317.8594,28.5469 Q318.7969,28.5469 319.4531,28.2969 Q319.8438,28.1406 320.2656,27.7031 Q320.5313,27.4375 320.6797,27.3594 Q320.8281,27.2813 321.0313,27.2813 Q321.3594,27.2813 321.6172,27.5391 Q321.875,27.7969 321.875,28.1406 Q321.875,28.4844 321.5313,28.8906 Q321.0313,29.4688 320.2344,29.7969 Q319.1563,30.25 317.8594,30.25 Q316.3438,30.25 315.1406,29.625 Q314.1563,29.125 313.4688,28.0547 Q312.7813,26.9844 312.7813,25.7031 L312.7813,24.5469 Q312.7813,23.2188 313.3984,22.0703 Q314.0156,20.9219 315.1094,20.3047 Q316.2031,19.6875 317.4375,19.6875 Q318.1719,19.6875 318.8203,19.8516 Q319.4688,20.0156 320.0156,20.375 Z "/><text fill="#000000" font-family="sans-serif" font-size="12" lengthAdjust="spacingAndGlyphs" textLength="55" x="333.75" y="29.4102">Pharmacy</text><line style="stroke: #A80036; stroke-width: 1.5;" x1="292" x2="402" y1="40.5" y2="40.5"/><rect fill="none" height="6" style="stroke: #C82930; stroke-width: 1.0;" width="6" x="299" y="49.918"/><text fill="#000000" font-family="sans-serif" font-size="11" lengthAdjust="spacingAndGlyphs" textLength="86" x="311" y="55.9189">String designation</text><rect fill="none" height="6" style="stroke: #C82930; stroke-width: 1.0;" width="6" x="299" y="63.7539"/><text fill="#000000" font-family="sans-serif" font-size="11" lengthAdjust="spacingAndGlyphs" textLength="55" x="311" y="69.7549">String email</text><rect fill="none" height="6" style="stroke: #C82930; stroke-width: 1.0;" width="6" x="299" y="77.5898"/><text fill="#000000" font-family="sans-serif" font-size="11" lengthAdjust="spacingAndGlyphs" textLength="72" x="311" y="83.5908">String parkMax</text><!--class User--><rect fill="#FEFECE" filter="url(#fde57wz164ow9)" height="81.5078" id="User" style="stroke: #A80036; stroke-width: 1.5;" width="107" x="544" y="104.5"/><ellipse cx="580.6" cy="120.5" fill="#ADD1B2" rx="11" ry="11" style="stroke: #A80036; stroke-width: 1.0;"/><path d="M583.3656,116.375 Q583.5219,116.1563 583.7094,116.0469 Q583.8969,115.9375 584.1156,115.9375 Q584.4906,115.9375 584.725,116.1953 Q584.9594,116.4531 584.9594,117.0625 L584.9594,118.5156 Q584.9594,119.125 584.725,119.3906 Q584.4906,119.6563 584.1156,119.6563 Q583.7719,119.6563 583.5688,119.4531 Q583.3656,119.2656 583.2563,118.75 Q583.2094,118.3906 583.0219,118.2031 Q582.6938,117.8281 582.0844,117.6094 Q581.475,117.3906 580.85,117.3906 Q580.0844,117.3906 579.4516,117.7188 Q578.8188,118.0469 578.3266,118.7969 Q577.8344,119.5469 577.8344,120.5781 L577.8344,121.6719 Q577.8344,122.9063 578.725,123.7266 Q579.6156,124.5469 581.2094,124.5469 Q582.1469,124.5469 582.8031,124.2969 Q583.1938,124.1406 583.6156,123.7031 Q583.8813,123.4375 584.0297,123.3594 Q584.1781,123.2813 584.3813,123.2813 Q584.7094,123.2813 584.9672,123.5391 Q585.225,123.7969 585.225,124.1406 Q585.225,124.4844 584.8813,124.8906 Q584.3813,125.4688 583.5844,125.7969 Q582.5063,126.25 581.2094,126.25 Q579.6938,126.25 578.4906,125.625 Q577.5063,125.125 576.8188,124.0547 Q576.1313,122.9844 576.1313,121.7031 L576.1313,120.5469 Q576.1313,119.2188 576.7484,118.0703 Q577.3656,116.9219 578.4594,116.3047 Q579.5531,115.6875 580.7875,115.6875 Q581.5219,115.6875 582.1703,115.8516 Q582.8188,116.0156 583.3656,116.375 Z "/><text fill="#000000" font-family="sans-serif" font-size="12" lengthAdjust="spacingAndGlyphs" textLength="27" x="599.4" y="125.4102">User</text><line style="stroke: #A80036; stroke-width: 1.5;" x1="545" x2="650" y1="136.5" y2="136.5"/><rect fill="none" height="6" style="stroke: #C82930; stroke-width: 1.0;" width="6" x="552" y="145.918"/><text fill="#000000" font-family="sans-serif" font-size="11" lengthAdjust="spacingAndGlyphs" textLength="57" x="564" y="151.9189">String name</text><rect fill="none" height="6" style="stroke: #C82930; stroke-width: 1.0;" width="6" x="552" y="159.7539"/><text fill="#000000" font-family="sans-serif" font-size="11" lengthAdjust="spacingAndGlyphs" textLength="55" x="564" y="165.7549">String email</text><rect fill="none" height="6" style="stroke: #C82930; stroke-width: 1.0;" width="6" x="552" y="173.5898"/><text fill="#000000" font-family="sans-serif" font-size="11" lengthAdjust="spacingAndGlyphs" textLength="81" x="564" y="179.5908">String password</text><!--class Client--><rect fill="#FEFECE" filter="url(#fde57wz164ow9)" height="109.1797" id="Client" style="stroke: #A80036; stroke-width: 1.5;" width="144" x="275" y="214"/><ellipse cx="326.75" cy="230" fill="#ADD1B2" rx="11" ry="11" style="stroke: #A80036; stroke-width: 1.0;"/><path d="M329.5156,225.875 Q329.6719,225.6563 329.8594,225.5469 Q330.0469,225.4375 330.2656,225.4375 Q330.6406,225.4375 330.875,225.6953 Q331.1094,225.9531 331.1094,226.5625 L331.1094,228.0156 Q331.1094,228.625 330.875,228.8906 Q330.6406,229.1563 330.2656,229.1563 Q329.9219,229.1563 329.7188,228.9531 Q329.5156,228.7656 329.4063,228.25 Q329.3594,227.8906 329.1719,227.7031 Q328.8438,227.3281 328.2344,227.1094 Q327.625,226.8906 327,226.8906 Q326.2344,226.8906 325.6016,227.2188 Q324.9688,227.5469 324.4766,228.2969 Q323.9844,229.0469 323.9844,230.0781 L323.9844,231.1719 Q323.9844,232.4063 324.875,233.2266 Q325.7656,234.0469 327.3594,234.0469 Q328.2969,234.0469 328.9531,233.7969 Q329.3438,233.6406 329.7656,233.2031 Q330.0313,232.9375 330.1797,232.8594 Q330.3281,232.7813 330.5313,232.7813 Q330.8594,232.7813 331.1172,233.0391 Q331.375,233.2969 331.375,233.6406 Q331.375,233.9844 331.0313,234.3906 Q330.5313,234.9688 329.7344,235.2969 Q328.6563,235.75 327.3594,235.75 Q325.8438,235.75 324.6406,235.125 Q323.6563,234.625 322.9688,233.5547 Q322.2813,232.4844 322.2813,231.2031 L322.2813,230.0469 Q322.2813,228.7188 322.8984,227.5703 Q323.5156,226.4219 324.6094,225.8047 Q325.7031,225.1875 326.9375,225.1875 Q327.6719,225.1875 328.3203,225.3516 Q328.9688,225.5156 329.5156,225.875 Z "/><text fill="#000000" font-family="sans-serif" font-size="12" lengthAdjust="spacingAndGlyphs" textLength="32" x="347.25" y="234.9102">Client</text><line style="stroke: #A80036; stroke-width: 1.5;" x1="276" x2="418" y1="246" y2="246"/><rect fill="none" height="6" style="stroke: #C82930; stroke-width: 1.0;" width="6" x="283" y="255.418"/><text fill="#000000" font-family="sans-serif" font-size="11" lengthAdjust="spacingAndGlyphs" textLength="57" x="295" y="261.4189">String name</text><rect fill="none" height="6" style="stroke: #C82930; stroke-width: 1.0;" width="6" x="283" y="269.2539"/><text fill="#000000" font-family="sans-serif" font-size="11" lengthAdjust="spacingAndGlyphs" textLength="55" x="295" y="275.2549">String email</text><rect fill="none" height="6" style="stroke: #C82930; stroke-width: 1.0;" width="6" x="283" y="283.0898"/><text fill="#000000" font-family="sans-serif" font-size="11" lengthAdjust="spacingAndGlyphs" textLength="118" x="295" y="289.0908">String creditCardNumber</text><rect fill="none" height="6" style="stroke: #C82930; stroke-width: 1.0;" width="6" x="283" y="296.9258"/><text fill="#000000" font-family="sans-serif" font-size="11" lengthAdjust="spacingAndGlyphs" textLength="80" x="295" y="302.9268">Date validityDate</text><rect fill="none" height="6" style="stroke: #C82930; stroke-width: 1.0;" width="6" x="283" y="310.7617"/><text fill="#000000" font-family="sans-serif" font-size="11" lengthAdjust="spacingAndGlyphs" textLength="54" x="295" y="316.7627">Integer ccv</text><!--class Product--><rect fill="#FEFECE" filter="url(#fde57wz164ow9)" height="109.1797" id="Product" style="stroke: #A80036; stroke-width: 1.5;" width="110" x="760" y="218"/><ellipse cx="791.2" cy="234" fill="#ADD1B2" rx="11" ry="11" style="stroke: #A80036; stroke-width: 1.0;"/><path d="M793.9656,229.875 Q794.1219,229.6563 794.3094,229.5469 Q794.4969,229.4375 794.7156,229.4375 Q795.0906,229.4375 795.325,229.6953 Q795.5594,229.9531 795.5594,230.5625 L795.5594,232.0156 Q795.5594,232.625 795.325,232.8906 Q795.0906,233.1563 794.7156,233.1563 Q794.3719,233.1563 794.1688,232.9531 Q793.9656,232.7656 793.8563,232.25 Q793.8094,231.8906 793.6219,231.7031 Q793.2938,231.3281 792.6844,231.1094 Q792.075,230.8906 791.45,230.8906 Q790.6844,230.8906 790.0516,231.2188 Q789.4188,231.5469 788.9266,232.2969 Q788.4344,233.0469 788.4344,234.0781 L788.4344,235.1719 Q788.4344,236.4063 789.325,237.2266 Q790.2156,238.0469 791.8094,238.0469 Q792.7469,238.0469 793.4031,237.7969 Q793.7938,237.6406 794.2156,237.2031 Q794.4813,236.9375 794.6297,236.8594 Q794.7781,236.7813 794.9813,236.7813 Q795.3094,236.7813 795.5672,237.0391 Q795.825,237.2969 795.825,237.6406 Q795.825,237.9844 795.4813,238.3906 Q794.9813,238.9688 794.1844,239.2969 Q793.1063,239.75 791.8094,239.75 Q790.2938,239.75 789.0906,239.125 Q788.1063,238.625 787.4188,237.5547 Q786.7313,236.4844 786.7313,235.2031 L786.7313,234.0469 Q786.7313,232.7188 787.3484,231.5703 Q787.9656,230.4219 789.0594,229.8047 Q790.1531,229.1875 791.3875,229.1875 Q792.1219,229.1875 792.7703,229.3516 Q793.4188,229.5156 793.9656,229.875 Z "/><text fill="#000000" font-family="sans-serif" font-size="12" lengthAdjust="spacingAndGlyphs" textLength="42" x="808.8" y="238.9102">Product</text><line style="stroke: #A80036; stroke-width: 1.5;" x1="761" x2="869" y1="250" y2="250"/><rect fill="none" height="6" style="stroke: #C82930; stroke-width: 1.0;" width="6" x="768" y="259.418"/><text fill="#000000" font-family="sans-serif" font-size="11" lengthAdjust="spacingAndGlyphs" textLength="57" x="780" y="265.4189">String name</text><rect fill="none" height="6" style="stroke: #C82930; stroke-width: 1.0;" width="6" x="768" y="273.2539"/><text fill="#000000" font-family="sans-serif" font-size="11" lengthAdjust="spacingAndGlyphs" textLength="79" x="780" y="279.2549">String reference</text><rect fill="none" height="6" style="stroke: #C82930; stroke-width: 1.0;" width="6" x="768" y="287.0898"/><text fill="#000000" font-family="sans-serif" font-size="11" lengthAdjust="spacingAndGlyphs" textLength="84" x="780" y="293.0908">String description</text><rect fill="none" height="6" style="stroke: #C82930; stroke-width: 1.0;" width="6" x="768" y="300.9258"/><text fill="#000000" font-family="sans-serif" font-size="11" lengthAdjust="spacingAndGlyphs" textLength="60" x="780" y="306.9268">Double price</text><rect fill="none" height="6" style="stroke: #C82930; stroke-width: 1.0;" width="6" x="768" y="314.7617"/><text fill="#000000" font-family="sans-serif" font-size="11" lengthAdjust="spacingAndGlyphs" textLength="71" x="780" y="320.7627">Integer amount</text><!--class Address--><rect fill="#FEFECE" filter="url(#fde57wz164ow9)" height="109.1797" id="Address" style="stroke: #A80036; stroke-width: 1.5;" width="136" x="747" y="365"/><ellipse cx="788.1" cy="381" fill="#ADD1B2" rx="11" ry="11" style="stroke: #A80036; stroke-width: 1.0;"/><path d="M790.8656,376.875 Q791.0219,376.6563 791.2094,376.5469 Q791.3969,376.4375 791.6156,376.4375 Q791.9906,376.4375 792.225,376.6953 Q792.4594,376.9531 792.4594,377.5625 L792.4594,379.0156 Q792.4594,379.625 792.225,379.8906 Q791.9906,380.1563 791.6156,380.1563 Q791.2719,380.1563 791.0688,379.9531 Q790.8656,379.7656 790.7563,379.25 Q790.7094,378.8906 790.5219,378.7031 Q790.1938,378.3281 789.5844,378.1094 Q788.975,377.8906 788.35,377.8906 Q787.5844,377.8906 786.9516,378.2188 Q786.3188,378.5469 785.8266,379.2969 Q785.3344,380.0469 785.3344,381.0781 L785.3344,382.1719 Q785.3344,383.4063 786.225,384.2266 Q787.1156,385.0469 788.7094,385.0469 Q789.6469,385.0469 790.3031,384.7969 Q790.6938,384.6406 791.1156,384.2031 Q791.3813,383.9375 791.5297,383.8594 Q791.6781,383.7813 791.8813,383.7813 Q792.2094,383.7813 792.4672,384.0391 Q792.725,384.2969 792.725,384.6406 Q792.725,384.9844 792.3813,385.3906 Q791.8813,385.9688 791.0844,386.2969 Q790.0063,386.75 788.7094,386.75 Q787.1938,386.75 785.9906,386.125 Q785.0063,385.625 784.3188,384.5547 Q783.6313,383.4844 783.6313,382.2031 L783.6313,381.0469 Q783.6313,379.7188 784.2484,378.5703 Q784.8656,377.4219 785.9594,376.8047 Q787.0531,376.1875 788.2875,376.1875 Q789.0219,376.1875 789.6703,376.3516 Q790.3188,376.5156 790.8656,376.875 Z "/><text fill="#000000" font-family="sans-serif" font-size="12" lengthAdjust="spacingAndGlyphs" textLength="46" x="807.9" y="385.9102">Address</text><line style="stroke: #A80036; stroke-width: 1.5;" x1="748" x2="882" y1="397" y2="397"/><rect fill="none" height="6" style="stroke: #C82930; stroke-width: 1.0;" width="6" x="755" y="406.418"/><text fill="#000000" font-family="sans-serif" font-size="11" lengthAdjust="spacingAndGlyphs" textLength="59" x="767" y="412.4189">String street</text><rect fill="none" height="6" style="stroke: #C82930; stroke-width: 1.0;" width="6" x="755" y="420.2539"/><text fill="#000000" font-family="sans-serif" font-size="11" lengthAdjust="spacingAndGlyphs" textLength="85" x="767" y="426.2549">String postalCode</text><rect fill="none" height="6" style="stroke: #C82930; stroke-width: 1.0;" width="6" x="755" y="434.0898"/><text fill="#000000" font-family="sans-serif" font-size="11" lengthAdjust="spacingAndGlyphs" textLength="72" x="767" y="440.0908">Integer number</text><rect fill="none" height="6" style="stroke: #C82930; stroke-width: 1.0;" width="6" x="755" y="447.9258"/><text fill="#000000" font-family="sans-serif" font-size="11" lengthAdjust="spacingAndGlyphs" textLength="64" x="767" y="453.9268">String locality</text><rect fill="none" height="6" style="stroke: #C82930; stroke-width: 1.0;" width="6" x="755" y="461.7617"/><text fill="#000000" font-family="sans-serif" font-size="11" lengthAdjust="spacingAndGlyphs" textLength="110" x="767" y="467.7627">String GPSCoordinates</text><!--class Order--><rect fill="#FEFECE" filter="url(#fde57wz164ow9)" height="67.6719" id="Order" style="stroke: #A80036; stroke-width: 1.5;" width="95" x="550" y="312.5"/><ellipse cx="579.4" cy="328.5" fill="#ADD1B2" rx="11" ry="11" style="stroke: #A80036; stroke-width: 1.0;"/><path d="M582.1656,324.375 Q582.3219,324.1563 582.5094,324.0469 Q582.6969,323.9375 582.9156,323.9375 Q583.2906,323.9375 583.525,324.1953 Q583.7594,324.4531 583.7594,325.0625 L583.7594,326.5156 Q583.7594,327.125 583.525,327.3906 Q583.2906,327.6563 582.9156,327.6563 Q582.5719,327.6563 582.3688,327.4531 Q582.1656,327.2656 582.0563,326.75 Q582.0094,326.3906 581.8219,326.2031 Q581.4938,325.8281 580.8844,325.6094 Q580.275,325.3906 579.65,325.3906 Q578.8844,325.3906 578.2516,325.7188 Q577.6188,326.0469 577.1266,326.7969 Q576.6344,327.5469 576.6344,328.5781 L576.6344,329.6719 Q576.6344,330.9063 577.525,331.7266 Q578.4156,332.5469 580.0094,332.5469 Q580.9469,332.5469 581.6031,332.2969 Q581.9938,332.1406 582.4156,331.7031 Q582.6813,331.4375 582.8297,331.3594 Q582.9781,331.2813 583.1813,331.2813 Q583.5094,331.2813 583.7672,331.5391 Q584.025,331.7969 584.025,332.1406 Q584.025,332.4844 583.6813,332.8906 Q583.1813,333.4688 582.3844,333.7969 Q581.3063,334.25 580.0094,334.25 Q578.4938,334.25 577.2906,333.625 Q576.3063,333.125 575.6188,332.0547 Q574.9313,330.9844 574.9313,329.7031 L574.9313,328.5469 Q574.9313,327.2188 575.5484,326.0703 Q576.1656,324.9219 577.2594,324.3047 Q578.3531,323.6875 579.5875,323.6875 Q580.3219,323.6875 580.9703,323.8516 Q581.6188,324.0156 582.1656,324.375 Z "/><text fill="#000000" font-family="sans-serif" font-size="12" lengthAdjust="spacingAndGlyphs" textLength="31" x="596.6" y="333.4102">Order</text><line style="stroke: #A80036; stroke-width: 1.5;" x1="551" x2="644" y1="344.5" y2="344.5"/><rect fill="none" height="6" style="stroke: #C82930; stroke-width: 1.0;" width="6" x="558" y="353.918"/><text fill="#000000" font-family="sans-serif" font-size="11" lengthAdjust="spacingAndGlyphs" textLength="52" x="570" y="359.9189">Double fee</text><rect fill="none" height="6" style="stroke: #C82930; stroke-width: 1.0;" width="6" x="558" y="367.7539"/><text fill="#000000" font-family="sans-serif" font-size="11" lengthAdjust="spacingAndGlyphs" textLength="69" x="570" y="373.7549">Integer credits</text><!--link Platform to User--><path d="M118.08,143.71 C221.25,144.09 442.29,144.92 543.69,145.3 " fill="none" id="Platform-User" style="stroke: #A80036; stroke-width: 1.0;"/><text fill="#000000" font-family="sans-serif" font-size="13" lengthAdjust="spacingAndGlyphs" textLength="82" x="299.5" y="140.9951">has registered</text><polygon fill="#000000" points="384.5,134.1758,390.5,137.1758,384.5,140.1758,384.5,134.1758" style="stroke: #000000; stroke-width: 1.0;"/><text fill="#000000" font-family="sans-serif" font-size="13" lengthAdjust="spacingAndGlyphs" textLength="7" x="126.0861" y="158.343">1</text><text fill="#000000" font-family="sans-serif" font-size="13" lengthAdjust="spacingAndGlyphs" textLength="5" x="531.1233" y="159.8999">*</text><!--link Platform to Client--><path d="M113.42,170.54 C124.71,176.33 136.69,182.27 148,187.5 C189.47,206.67 236.79,226.12 274.78,241.15 " fill="none" id="Platform-Client" style="stroke: #A80036; stroke-width: 1.0;"/><text fill="#000000" font-family="sans-serif" font-size="13" lengthAdjust="spacingAndGlyphs" textLength="82" x="149" y="183.9951">has registered</text><polygon fill="#000000" points="234,177.1758,240,180.1758,234,183.1758,234,177.1758" style="stroke: #000000; stroke-width: 1.0;"/><text fill="#000000" font-family="sans-serif" font-size="13" lengthAdjust="spacingAndGlyphs" textLength="7" x="116.9025" y="191.7565">1</text><text fill="#000000" font-family="sans-serif" font-size="13" lengthAdjust="spacingAndGlyphs" textLength="5" x="262.0745" y="252.6585">*</text><!--link Platform to Pharmacy--><path d="M118.24,125.15 C168.1,108.59 241.08,84.35 290.9,67.8 " fill="none" id="Platform-Pharmacy" style="stroke: #A80036; stroke-width: 1.0;"/><text fill="#000000" font-family="sans-serif" font-size="13" lengthAdjust="spacingAndGlyphs" textLength="82" x="149" y="81.9951">has registered</text><polygon fill="#000000" points="234,75.1758,240,78.1758,234,81.1758,234,75.1758" style="stroke: #000000; stroke-width: 1.0;"/><text fill="#000000" font-family="sans-serif" font-size="13" lengthAdjust="spacingAndGlyphs" textLength="7" x="125.8942" y="137.3521">1</text><text fill="#000000" font-family="sans-serif" font-size="13" lengthAdjust="spacingAndGlyphs" textLength="7" x="275.8912" y="84.8859">1</text><!--link Client to User--><path d="M419.22,234.08 C448.62,219.78 483,202.95 514,187.5 C523.64,182.7 533.88,177.53 543.75,172.52 " fill="none" id="Client-User" style="stroke: #A80036; stroke-width: 1.0;"/><text fill="#000000" font-family="sans-serif" font-size="13" lengthAdjust="spacingAndGlyphs" textLength="36" x="457" y="183.9951">act as</text><polygon fill="#000000" points="496,177.1758,502,180.1758,496,183.1758,496,177.1758" style="stroke: #000000; stroke-width: 1.0;"/><text fill="#000000" font-family="sans-serif" font-size="13" lengthAdjust="spacingAndGlyphs" textLength="22" x="426.8918" y="245.1474">0..1</text><text fill="#000000" font-family="sans-serif" font-size="13" lengthAdjust="spacingAndGlyphs" textLength="7" x="529.057" y="190.7776">1</text><!--link Client to Product--><path d="M419.03,269.11 C512.66,269.91 675.37,271.31 759.75,272.03 " fill="none" id="Client-Product" style="stroke: #A80036; stroke-width: 1.0;"/><text fill="#000000" font-family="sans-serif" font-size="13" lengthAdjust="spacingAndGlyphs" textLength="21" x="580.5" y="265.9951">buy</text><polygon fill="#000000" points="604.5,259.1758,610.5,262.1758,604.5,265.1758,604.5,259.1758" style="stroke: #000000; stroke-width: 1.0;"/><text fill="#000000" font-family="sans-serif" font-size="13" lengthAdjust="spacingAndGlyphs" textLength="7" x="426.819" y="283.5019">1</text><text fill="#000000" font-family="sans-serif" font-size="13" lengthAdjust="spacingAndGlyphs" textLength="5" x="746.9898" y="286.5485">*</text><!--link Client to Order--><path d="M419.21,290.85 C461.09,304 512.86,320.25 549.63,331.79 " fill="none" id="Client-Order" style="stroke: #A80036; stroke-width: 1.0;"/><text fill="#000000" font-family="sans-serif" font-size="13" lengthAdjust="spacingAndGlyphs" textLength="50" x="450" y="296.9951">performs</text><polygon fill="#000000" points="503,290.1758,509,293.1758,503,296.1758,503,290.1758" style="stroke: #000000; stroke-width: 1.0;"/><text fill="#000000" font-family="sans-serif" font-size="13" lengthAdjust="spacingAndGlyphs" textLength="7" x="427.0176" y="307.4838">1</text><text fill="#000000" font-family="sans-serif" font-size="13" lengthAdjust="spacingAndGlyphs" textLength="5" x="536.9171" y="344.3097">*</text><!--link Client to Address--><path d="M400.65,323.22 C437.23,357.17 489.12,397.77 544,416.5 C610.21,439.1 690.99,436.37 746.85,430.16 " fill="none" id="Client-Address" style="stroke: #A80036; stroke-width: 1.0;"/><text fill="#000000" font-family="sans-serif" font-size="13" lengthAdjust="spacingAndGlyphs" textLength="21" x="580.5" y="412.9951">has</text><polygon fill="#000000" points="604.5,406.1758,610.5,409.1758,604.5,412.1758,604.5,406.1758" style="stroke: #000000; stroke-width: 1.0;"/><text fill="#000000" font-family="sans-serif" font-size="13" lengthAdjust="spacingAndGlyphs" textLength="7" x="400.0755" y="344.7621">1</text><text fill="#000000" font-family="sans-serif" font-size="13" lengthAdjust="spacingAndGlyphs" textLength="7" x="732.0133" y="445.7055">1</text><!--link Order to Product--><path d="M645.26,330.44 C678.93,318.88 724.45,303.25 759.72,291.14 " fill="none" id="Order-Product" style="stroke: #A80036; stroke-width: 1.0;"/><text fill="#000000" font-family="sans-serif" font-size="13" lengthAdjust="spacingAndGlyphs" textLength="21" x="682" y="302.9951">has</text><polygon fill="#000000" points="706,296.1758,712,299.1758,706,302.1758,706,296.1758" style="stroke: #000000; stroke-width: 1.0;"/><text fill="#000000" font-family="sans-serif" font-size="13" lengthAdjust="spacingAndGlyphs" textLength="7" x="653.1092" y="342.753">1</text><text fill="#000000" font-family="sans-serif" font-size="13" lengthAdjust="spacingAndGlyphs" textLength="5" x="746.9558" y="308.2264">*</text><!--link Order to Address--><path d="M645.26,362.34 C674.97,372.4 713.9,385.59 746.89,396.77 " fill="none" id="Order-Address" style="stroke: #A80036; stroke-width: 1.0;"/><text fill="#000000" font-family="sans-serif" font-size="13" lengthAdjust="spacingAndGlyphs" textLength="21" x="682" y="371.9951">has</text><polygon fill="#000000" points="706,365.1758,712,368.1758,706,371.1758,706,365.1758" style="stroke: #000000; stroke-width: 1.0;"/><text fill="#000000" font-family="sans-serif" font-size="13" lengthAdjust="spacingAndGlyphs" textLength="7" x="653.1092" y="379.5377">1</text><text fill="#000000" font-family="sans-serif" font-size="13" lengthAdjust="spacingAndGlyphs" textLength="7" x="732.0577" y="408.6634">1</text><!--
@startuml

hide methods
left to right direction

class Platform {
  -String designation
}
class Pharmacy {
  -String designation
  -String email
  -String parkMax
}

class User {
  -String name
  -String email
  -String password
}

class Client {
  -String name
  -String email
  -String creditCardNumber
  -Date validityDate
  -Integer ccv
}

class Product {
  -String name
  -String reference
  -String description
  -Double price
  -Integer amount
}

class Address {
  -String street
  -String postalCode
  -Integer number
  -String locality
  -String GPSCoordinates
}

class Order {
  -Double fee
  -Integer credits
}

Platform "1" - - "*" User : has registered >
Platform "1" - - "*" Client : has registered >
Platform "1" - - "1" Pharmacy :has registered >

Client "0..1" - - "1" User : act as >
Client "1" - - "*" Product : buy >
Client "1" - - "*" Order : performs >
Client "1" - - "1" Address : has >

Order "1" - - "*" Product : has >
Order "1" - - "1" Address : has >

@enduml

PlantUML version 1.2018.14(Fri Dec 21 16:33:16 GMT 2018)
(GPL source distribution)
Java Runtime: Java(TM) SE Runtime Environment
JVM: Java HotSpot(TM) 64-Bit Server VM
Java Version: 1.8.0_271-b09
Operating System: Windows 10
OS Version: 10.0
Default Encoding: Cp1252
Language: pt
Country: PT
--></g></svg>