<?xml version="1.0" encoding="UTF-8" standalone="no"?><svg xmlns="http://www.w3.org/2000/svg" xmlns:xlink="http://www.w3.org/1999/xlink" contentScriptType="application/ecmascript" contentStyleType="text/css" height="1984px" preserveAspectRatio="none" style="width:483px;height:1984px;" version="1.1" viewBox="0 0 483 1984" width="483px" zoomAndPan="magnify"><defs><filter height="300%" id="f14eb29168cvs5" width="300%" x="-1" y="-1"><feGaussianBlur result="blurOut" stdDeviation="2.0"/><feColorMatrix in="blurOut" result="blurOut2" type="matrix" values="0 0 0 0 0 0 0 0 0 0 0 0 0 0 0 0 0 0 .4 0"/><feOffset dx="4.0" dy="4.0" in="blurOut2" result="blurOut3"/><feBlend in="SourceGraphic" in2="blurOut3" mode="normal"/></filter></defs><g><ellipse cx="326.4659" cy="812.3932" fill="#FEFECE" filter="url(#f14eb29168cvs5)" rx="89.9659" ry="20.3932" style="stroke: #A80036; stroke-width: 1.5;"/><text fill="#000000" font-family="sans-serif" font-size="14" lengthAdjust="spacingAndGlyphs" textLength="150" x="251.4659" y="817.6979">UC1 - Create Pharmacy</text><ellipse cx="326.535" cy="736.307" fill="#FEFECE" filter="url(#f14eb29168cvs5)" rx="89.535" ry="20.307" style="stroke: #A80036; stroke-width: 1.5;"/><text fill="#000000" font-family="sans-serif" font-size="14" lengthAdjust="spacingAndGlyphs" textLength="149" x="252.035" y="741.6117">UC2 - User Registration</text><ellipse cx="326.4197" cy="616.2839" fill="#FEFECE" filter="url(#f14eb29168cvs5)" rx="81.9197" ry="18.7839" style="stroke: #A80036; stroke-width: 1.5;"/><text fill="#000000" font-family="sans-serif" font-size="14" lengthAdjust="spacingAndGlyphs" textLength="131" x="260.9197" y="621.5886">UC3 - Perform Order</text><ellipse cx="326.3297" cy="888.5659" fill="#FEFECE" filter="url(#f14eb29168cvs5)" rx="90.8297" ry="20.5659" style="stroke: #A80036; stroke-width: 1.5;"/><text fill="#000000" font-family="sans-serif" font-size="14" lengthAdjust="spacingAndGlyphs" textLength="152" x="250.3297" y="893.8706">UC4 - Update Pharmacy</text><ellipse cx="326.3923" cy="964.3785" fill="#FEFECE" filter="url(#f14eb29168cvs5)" rx="87.3923" ry="19.8785" style="stroke: #A80036; stroke-width: 1.5;"/><text fill="#000000" font-family="sans-serif" font-size="14" lengthAdjust="spacingAndGlyphs" textLength="144" x="254.3923" y="969.6832">UC5 - Product Delivery</text><ellipse cx="326.6143" cy="1037.7229" fill="#FEFECE" filter="url(#f14eb29168cvs5)" rx="76.6143" ry="17.7229" style="stroke: #A80036; stroke-width: 1.5;"/><text fill="#000000" font-family="sans-serif" font-size="14" lengthAdjust="spacingAndGlyphs" textLength="118" x="267.6143" y="1043.0275">UC6 - Add Scooter</text><ellipse cx="326.3193" cy="1110.4639" fill="#FEFECE" filter="url(#f14eb29168cvs5)" rx="87.8193" ry="19.9639" style="stroke: #A80036; stroke-width: 1.5;"/><text fill="#000000" font-family="sans-serif" font-size="14" lengthAdjust="spacingAndGlyphs" textLength="145" x="253.8193" y="1115.7685">UC7 - Remove Scooter</text><ellipse cx="326.3478" cy="1185.3696" fill="#FEFECE" filter="url(#f14eb29168cvs5)" rx="84.8478" ry="19.3696" style="stroke: #A80036; stroke-width: 1.5;"/><text fill="#000000" font-family="sans-serif" font-size="14" lengthAdjust="spacingAndGlyphs" textLength="138" x="257.3478" y="1190.6742">UC8 - Update Scooter</text><ellipse cx="326.3945" cy="1262.3789" fill="#FEFECE" filter="url(#f14eb29168cvs5)" rx="97.3945" ry="21.8789" style="stroke: #A80036; stroke-width: 1.5;"/><text fill="#000000" font-family="sans-serif" font-size="14" lengthAdjust="spacingAndGlyphs" textLength="167" x="242.8945" y="1267.6836">UC9 - Courier Registration</text><ellipse cx="326.3974" cy="1340.4795" fill="#FEFECE" filter="url(#f14eb29168cvs5)" rx="90.3974" ry="20.4795" style="stroke: #A80036; stroke-width: 1.5;"/><text fill="#000000" font-family="sans-serif" font-size="14" lengthAdjust="spacingAndGlyphs" textLength="151" x="250.8974" y="1345.7842">UC10 - Remove Courier</text><ellipse cx="326.6328" cy="279.6266" fill="#FEFECE" filter="url(#f14eb29168cvs5)" rx="78.6328" ry="18.1266" style="stroke: #A80036; stroke-width: 1.5;"/><text fill="#000000" font-family="sans-serif" font-size="14" lengthAdjust="spacingAndGlyphs" textLength="123" x="265.1328" y="284.9312">UC11 - Notify Client</text><ellipse cx="326.3935" cy="356.5787" fill="#FEFECE" filter="url(#f14eb29168cvs5)" rx="105.8935" ry="23.5787" style="stroke: #A80036; stroke-width: 1.5;"/><text fill="#000000" font-family="sans-serif" font-size="14" lengthAdjust="spacingAndGlyphs" textLength="186" x="233.3935" y="361.8834">UC12 - Send Email to Courier</text><ellipse cx="326.3574" cy="1414.3715" fill="#FEFECE" filter="url(#f14eb29168cvs5)" rx="79.8574" ry="18.3715" style="stroke: #A80036; stroke-width: 1.5;"/><text fill="#000000" font-family="sans-serif" font-size="14" lengthAdjust="spacingAndGlyphs" textLength="126" x="263.3574" y="1419.6762">UC13 - Add Product</text><ellipse cx="326.2628" cy="1488.6526" fill="#FEFECE" filter="url(#f14eb29168cvs5)" rx="91.2628" ry="20.6526" style="stroke: #A80036; stroke-width: 1.5;"/><text fill="#000000" font-family="sans-serif" font-size="14" lengthAdjust="spacingAndGlyphs" textLength="153" x="249.7628" y="1493.9572">UC14 - Remove Product</text><ellipse cx="326.7471" cy="1564.5494" fill="#FEFECE" filter="url(#f14eb29168cvs5)" rx="88.2471" ry="20.0494" style="stroke: #A80036; stroke-width: 1.5;"/><text fill="#000000" font-family="sans-serif" font-size="14" lengthAdjust="spacingAndGlyphs" textLength="146" x="253.7471" y="1569.8541">UC15 - Update Product</text><ellipse cx="326.5583" cy="30.4117" fill="#FEFECE" filter="url(#f14eb29168cvs5)" rx="100.0583" ry="22.4117" style="stroke: #A80036; stroke-width: 1.5;"/><text fill="#000000" font-family="sans-serif" font-size="14" lengthAdjust="spacingAndGlyphs" textLength="173" x="240.0583" y="35.7163">UC16 - Parking the Scooter</text><ellipse cx="326.5137" cy="113.4027" fill="#FEFECE" filter="url(#f14eb29168cvs5)" rx="115.0137" ry="25.4027" style="stroke: #A80036; stroke-width: 1.5;"/><text fill="#000000" font-family="sans-serif" font-size="14" lengthAdjust="spacingAndGlyphs" textLength="206" x="223.5137" y="118.7074">UC17 - Start Delivery By Scooter</text><ellipse cx="326.5083" cy="1647.5017" fill="#FEFECE" filter="url(#f14eb29168cvs5)" rx="128.0083" ry="28.0017" style="stroke: #A80036; stroke-width: 1.5;"/><text fill="#000000" font-family="sans-serif" font-size="14" lengthAdjust="spacingAndGlyphs" textLength="234" x="209.5083" y="1652.8063">UC18 - Create Scooters/Drones Park</text><ellipse cx="326.4235" cy="446.6847" fill="#FEFECE" filter="url(#f14eb29168cvs5)" rx="146.4235" ry="31.6847" style="stroke: #A80036; stroke-width: 1.5;"/><text fill="#000000" font-family="sans-serif" font-size="14" lengthAdjust="spacingAndGlyphs" textLength="273" x="189.9235" y="451.9894">UC19 - Search Product Nearby Pharmacies</text><ellipse cx="326.3153" cy="1728.5631" fill="#FEFECE" filter="url(#f14eb29168cvs5)" rx="75.8153" ry="17.5631" style="stroke: #A80036; stroke-width: 1.5;"/><text fill="#000000" font-family="sans-serif" font-size="14" lengthAdjust="spacingAndGlyphs" textLength="116" x="268.3153" y="1733.8677">UC21 - Add Drone</text><ellipse cx="326.5226" cy="537.3045" fill="#FEFECE" filter="url(#f14eb29168cvs5)" rx="109.5226" ry="24.3045" style="stroke: #A80036; stroke-width: 1.5;"/><text fill="#000000" font-family="sans-serif" font-size="14" lengthAdjust="spacingAndGlyphs" textLength="194" x="229.5226" y="542.6092">UC22 - Notify Client of Delivery</text><ellipse cx="326.5066" cy="1800.7013" fill="#FEFECE" filter="url(#f14eb29168cvs5)" rx="84.0066" ry="19.2013" style="stroke: #A80036; stroke-width: 1.5;"/><text fill="#000000" font-family="sans-serif" font-size="14" lengthAdjust="spacingAndGlyphs" textLength="136" x="258.5066" y="1806.006">UC24 - Update Drone</text><ellipse cx="326.7025" cy="200.6405" fill="#FEFECE" filter="url(#f14eb29168cvs5)" rx="118.7025" ry="26.1405" style="stroke: #A80036; stroke-width: 1.5;"/><text fill="#000000" font-family="sans-serif" font-size="14" lengthAdjust="spacingAndGlyphs" textLength="214" x="219.7025" y="205.9452">UC25 - Finish Delivery By Scooter</text><ellipse cx="326.4661" cy="1874.2932" fill="#FEFECE" filter="url(#f14eb29168cvs5)" rx="86.9661" ry="19.7932" style="stroke: #A80036; stroke-width: 1.5;"/><text fill="#000000" font-family="sans-serif" font-size="14" lengthAdjust="spacingAndGlyphs" textLength="143" x="254.9661" y="1879.5979">UC27 - Remove Drone</text><ellipse cx="326.63" cy="1951.526" fill="#FEFECE" filter="url(#f14eb29168cvs5)" rx="95.63" ry="21.526" style="stroke: #A80036; stroke-width: 1.5;"/><text fill="#000000" font-family="sans-serif" font-size="14" lengthAdjust="spacingAndGlyphs" textLength="163" x="245.13" y="1956.8307">UC28 - Parking the Drone</text><!--entity ADM--><ellipse cx="63" cy="1345" fill="#FEFECE" filter="url(#f14eb29168cvs5)" rx="8" ry="8" style="stroke: #A80036; stroke-width: 2.0;"/><path d="M63,1353 L63,1380 M50,1361 L76,1361 M63,1380 L50,1395 M63,1380 L76,1395 " fill="none" filter="url(#f14eb29168cvs5)" style="stroke: #A80036; stroke-width: 2.0;"/><text fill="#000000" font-family="sans-serif" font-size="14" lengthAdjust="spacingAndGlyphs" textLength="83" x="21.5" y="1416.5332">Administrator</text><!--entity NUSER--><ellipse cx="63" cy="704" fill="#FEFECE" filter="url(#f14eb29168cvs5)" rx="8" ry="8" style="stroke: #A80036; stroke-width: 2.0;"/><path d="M63,712 L63,739 M50,720 L76,720 M63,739 L50,754 M63,739 L76,754 " fill="none" filter="url(#f14eb29168cvs5)" style="stroke: #A80036; stroke-width: 2.0;"/><text fill="#000000" font-family="sans-serif" font-size="14" lengthAdjust="spacingAndGlyphs" textLength="114" x="6" y="775.5332">Unregistered User</text><!--entity CLI--><ellipse cx="63" cy="584" fill="#FEFECE" filter="url(#f14eb29168cvs5)" rx="8" ry="8" style="stroke: #A80036; stroke-width: 2.0;"/><path d="M63,592 L63,619 M50,600 L76,600 M63,619 L50,634 M63,619 L76,634 " fill="none" filter="url(#f14eb29168cvs5)" style="stroke: #A80036; stroke-width: 2.0;"/><text fill="#000000" font-family="sans-serif" font-size="14" lengthAdjust="spacingAndGlyphs" textLength="36" x="45" y="655.5332">Client</text><!--entity COU--><ellipse cx="63" cy="81" fill="#FEFECE" filter="url(#f14eb29168cvs5)" rx="8" ry="8" style="stroke: #A80036; stroke-width: 2.0;"/><path d="M63,89 L63,116 M50,97 L76,97 M63,116 L50,131 M63,116 L76,131 " fill="none" filter="url(#f14eb29168cvs5)" style="stroke: #A80036; stroke-width: 2.0;"/><text fill="#000000" font-family="sans-serif" font-size="14" lengthAdjust="spacingAndGlyphs" textLength="47" x="39.5" y="152.5332">Courier</text><!--entity SYS--><ellipse cx="63" cy="369" fill="#FEFECE" filter="url(#f14eb29168cvs5)" rx="8" ry="8" style="stroke: #A80036; stroke-width: 2.0;"/><path d="M63,377 L63,404 M50,385 L76,385 M63,404 L50,419 M63,404 L76,419 " fill="none" filter="url(#f14eb29168cvs5)" style="stroke: #A80036; stroke-width: 2.0;"/><text fill="#000000" font-family="sans-serif" font-size="14" lengthAdjust="spacingAndGlyphs" textLength="46" x="40" y="440.5332">System</text><!--link ADM to UC1--><path d="M67.7345,1334.649 C78.4239,1221.816 112.78,920.38 180,850.5 C194.745,835.17 214.841,825.75 235.389,820.03 " fill="none" id="ADM-UC1" style="stroke: #A80036; stroke-width: 1.0;"/><polygon fill="#A80036" points="240.337,818.72,230.6138,817.1516,235.5029,819.9972,232.6573,824.8862,240.337,818.72" style="stroke: #A80036; stroke-width: 1.0;"/><!--link ADM to UC4--><path d="M69.4983,1334.732 C83.2951,1233.938 122.445,985.61 180,927.5 C195.078,912.28 215.408,902.8 236.084,896.96 " fill="none" id="ADM-UC4" style="stroke: #A80036; stroke-width: 1.0;"/><polygon fill="#A80036" points="241.061,895.62,231.3314,894.0919,236.2322,896.9172,233.4069,901.818,241.061,895.62" style="stroke: #A80036; stroke-width: 1.0;"/><!--link ADM to UC5--><path d="M64.4322,1334.954 C67.6127,1257.363 85.8117,1092.584 180,1002.5 C195.895,987.298 217.086,977.986 238.365,972.33 " fill="none" id="ADM-UC5" style="stroke: #A80036; stroke-width: 1.0;"/><polygon fill="#A80036" points="243.482,971.04,233.7769,969.3631,238.6339,972.2631,235.7339,977.1201,243.482,971.04" style="stroke: #A80036; stroke-width: 1.0;"/><!--link ADM to UC6--><path d="M67.9284,1334.962 C76.3595,1268.948 102.2656,1142.287 180,1073.5 C198.467,1057.159 223.198,1047.983 247.026,1042.906 " fill="none" id="ADM-UC6" style="stroke: #A80036; stroke-width: 1.0;"/><polygon fill="#A80036" points="252.094,1041.884,242.4808,1039.7423,247.1927,1042.8725,244.0625,1047.5844,252.094,1041.884" style="stroke: #A80036; stroke-width: 1.0;"/><!--link ADM to UC7--><path d="M74.1259,1334.804 C88.6643,1282.95 120.506,1196.482 180,1148.5 C197.382,1134.482 219.391,1125.589 240.994,1119.961 " fill="none" id="ADM-UC7" style="stroke: #A80036; stroke-width: 1.0;"/><polygon fill="#A80036" points="245.887,1118.739,236.186,1117.0386,241.036,1119.9503,238.1242,1124.8002,245.887,1118.739" style="stroke: #A80036; stroke-width: 1.0;"/><!--link ADM to UC8--><path d="M85.542,1334.881 C105.4153,1299.837 138.15,1251.541 180,1223.5 C199.66,1210.327 223.639,1201.718 246.414,1196.093 " fill="none" id="ADM-UC8" style="stroke: #A80036; stroke-width: 1.0;"/><polygon fill="#A80036" points="251.559,1194.868,241.8771,1193.0621,246.6951,1196.0265,243.7307,1200.8444,251.559,1194.868" style="stroke: #A80036; stroke-width: 1.0;"/><!--link ADM to UC9--><path d="M104.6594,1346.823 C126.154,1331.766 153.517,1314.362 180,1302.5 C201.875,1292.702 226.698,1284.798 249.569,1278.686 " fill="none" id="ADM-UC9" style="stroke: #A80036; stroke-width: 1.0;"/><polygon fill="#A80036" points="254.418,1277.409,244.6961,1275.8324,249.5828,1278.6821,246.7331,1283.5687,254.418,1277.409" style="stroke: #A80036; stroke-width: 1.0;"/><!--link ADM to UC10--><path d="M104.5725,1371.759 C141.737,1366.501 197.853,1358.561 244.228,1351.999 " fill="none" id="ADM-UC10" style="stroke: #A80036; stroke-width: 1.0;"/><polygon fill="#A80036" points="249.257,1351.288,239.7856,1348.5876,244.3063,1351.9881,240.9057,1356.5088,249.257,1351.288" style="stroke: #A80036; stroke-width: 1.0;"/><!--link ADM to UC13--><path d="M104.5725,1383.241 C144.021,1388.822 204.821,1397.425 252.66,1404.194 " fill="none" id="ADM-UC13" style="stroke: #A80036; stroke-width: 1.0;"/><polygon fill="#A80036" points="257.836,1404.926,249.4847,1399.7052,252.8853,1404.2259,248.3646,1407.6264,257.836,1404.926" style="stroke: #A80036; stroke-width: 1.0;"/><!--link ADM to UC14--><path d="M104.71,1407.448 C126.218,1422.127 153.578,1439.061 180,1450.5 C202.591,1460.281 228.28,1468.012 251.72,1473.876 " fill="none" id="ADM-UC14" style="stroke: #A80036; stroke-width: 1.0;"/><polygon fill="#A80036" points="256.686,1475.099,248.9035,1469.0631,251.831,1473.9035,246.9906,1476.831,256.686,1475.099" style="stroke: #A80036; stroke-width: 1.0;"/><!--link ADM to UC15--><path d="M86.6774,1420.091 C106.821,1453.875 139.342,1499.724 180,1526.5 C199.257,1539.182 222.545,1547.637 244.791,1553.271 " fill="none" id="ADM-UC15" style="stroke: #A80036; stroke-width: 1.0;"/><polygon fill="#A80036" points="249.818,1554.502,242.0267,1548.4774,244.9613,1553.3135,240.1252,1556.2481,249.818,1554.502" style="stroke: #A80036; stroke-width: 1.0;"/><!--link ADM to UC18--><path d="M75.0883,1420.372 C90.3684,1471.043 122.73,1554.52 180,1602.5 C192.674,1613.118 207.837,1621.234 223.518,1627.436 " fill="none" id="ADM-UC18" style="stroke: #A80036; stroke-width: 1.0;"/><polygon fill="#A80036" points="228.399,1629.3,221.4168,1622.3538,223.7276,1627.5172,218.5643,1629.828,228.399,1629.3" style="stroke: #A80036; stroke-width: 1.0;"/><!--link ADM to UC21--><path d="M67.1564,1420.07 C74.5674,1488.234 99.1477,1621.504 180,1693.5 C198.386,1709.872 223.097,1718.92 246.93,1723.822 " fill="none" id="ADM-UC21" style="stroke: #A80036; stroke-width: 1.0;"/><polygon fill="#A80036" points="252,1724.806,243.9272,1719.1642,247.0916,1723.8532,242.4027,1727.0176,252,1724.806" style="stroke: #A80036; stroke-width: 1.0;"/><!--link ADM to UC24--><path d="M63.9254,1420.076 C66.198,1499.46 82.8567,1670.439 180,1763.5 C196.448,1779.257 218.622,1788.568 240.696,1793.997 " fill="none" id="ADM-UC24" style="stroke: #A80036; stroke-width: 1.0;"/><polygon fill="#A80036" points="245.7,1795.164,237.8436,1789.2245,240.8307,1794.0284,236.0267,1797.0155,245.7,1795.164" style="stroke: #A80036; stroke-width: 1.0;"/><!--link ADM to UC27--><path d="M69.1657,1420.12 C82.419,1522.497 120.802,1778.184 180,1837.5 C195.426,1852.957 216.34,1862.259 237.496,1867.78 " fill="none" id="ADM-UC27" style="stroke: #A80036; stroke-width: 1.0;"/><polygon fill="#A80036" points="242.587,1869.037,234.8082,1862.9962,237.7328,1867.8384,232.8906,1870.763,242.587,1869.037" style="stroke: #A80036; stroke-width: 1.0;"/><!--link ADM to UC28--><path d="M67.5891,1420.144 C78.0174,1533.963 111.983,1841.111 180,1912.5 C193.886,1927.0748 212.577,1936.4108 231.927,1942.3407 " fill="none" id="ADM-UC28" style="stroke: #A80036; stroke-width: 1.0;"/><polygon fill="#A80036" points="236.859,1943.776,229.3352,1937.4205,232.0582,1942.3789,227.0998,1945.1018,236.859,1943.776" style="stroke: #A80036; stroke-width: 1.0;"/><!--link NUSER to UC2--><path d="M120.098,736.5 C152.629,736.5 194.432,736.5 231.825,736.5 " fill="none" id="NUSER-UC2" style="stroke: #A80036; stroke-width: 1.0;"/><polygon fill="#A80036" points="236.833,736.5,227.833,732.5,231.833,736.5,227.833,740.5,236.833,736.5" style="stroke: #A80036; stroke-width: 1.0;"/><!--link CLI to UC3--><path d="M81.1577,616.5 C112.813,616.5 182.362,616.5 239.195,616.5 " fill="none" id="CLI-UC3" style="stroke: #A80036; stroke-width: 1.0;"/><polygon fill="#A80036" points="244.305,616.5,235.305,612.5,239.305,616.5,235.305,620.5,244.305,616.5" style="stroke: #A80036; stroke-width: 1.0;"/><!--link COU to UC16--><path d="M86.9038,104.34 C110.155,95.2 147.29,81.04 180,70.5 C204.095,62.74 230.729,55.14 254.554,48.68 " fill="none" id="COU-UC16" style="stroke: #A80036; stroke-width: 1.0;"/><polygon fill="#A80036" points="259.593,47.32,249.8617,45.8027,254.7656,48.6225,251.9458,53.5264,259.593,47.32" style="stroke: #A80036; stroke-width: 1.0;"/><!--link COU to UC17--><path d="M86.749,113.5 C113.73,113.5 160.765,113.5 205.993,113.5 " fill="none" id="COU-UC17" style="stroke: #A80036; stroke-width: 1.0;"/><polygon fill="#A80036" points="211.213,113.5,202.213,109.5,206.213,113.5,202.213,117.5,211.213,113.5" style="stroke: #A80036; stroke-width: 1.0;"/><!--link COU to UC25--><path d="M86.5261,122.32 C109.793,131.31 147.223,145.48 180,156.5 C202.325,164.01 226.769,171.63 249.14,178.37 " fill="none" id="COU-UC25" style="stroke: #A80036; stroke-width: 1.0;"/><polygon fill="#A80036" points="254.178,179.88,246.7122,173.4564,249.3901,178.4393,244.4072,181.1171,254.178,179.88" style="stroke: #A80036; stroke-width: 1.0;"/><!--link SYS to UC11--><path d="M86.2292,380.76 C108.378,361.18 144.167,332.38 180,315.5 C203.835,304.27 231.576,296.29 256.405,290.75 " fill="none" id="SYS-UC11" style="stroke: #A80036; stroke-width: 1.0;"/><polygon fill="#A80036" points="261.33,289.68,251.6837,287.6926,256.4452,290.747,253.3909,295.5084,261.33,289.68" style="stroke: #A80036; stroke-width: 1.0;"/><!--link SYS to UC12--><path d="M86.2953,397.66 C119.439,391.96 183.548,380.93 237.06,371.72 " fill="none" id="SYS-UC12" style="stroke: #A80036; stroke-width: 1.0;"/><polygon fill="#A80036" points="242.204,370.83,232.6558,368.4151,237.2765,371.6784,234.0132,376.2991,242.204,370.83" style="stroke: #A80036; stroke-width: 1.0;"/><!--link SYS to UC19--><path d="M86.2953,405.34 C113.347,409.99 161.026,418.2 206.736,426.06 " fill="none" id="SYS-UC19" style="stroke: #A80036; stroke-width: 1.0;"/><polygon fill="#A80036" points="211.723,426.92,203.5322,421.4509,206.7955,426.0716,202.1748,429.3349,211.723,426.92" style="stroke: #A80036; stroke-width: 1.0;"/><!--link SYS to UC22--><path d="M86.0205,423.95 C108.015,445.19 143.692,476.55 180,495.5 C198.989,505.41 220.627,513.27 241.306,519.37 " fill="none" id="SYS-UC22" style="stroke: #A80036; stroke-width: 1.0;"/><polygon fill="#A80036" points="246.259,520.81,238.7285,514.4624,241.4567,519.4179,236.5012,522.1461,246.259,520.81" style="stroke: #A80036; stroke-width: 1.0;"/><!--
@startuml

usecase UC1 as "UC1 - Create Pharmacy"
usecase UC2 as "UC2 - User Registration"
usecase UC3 as "UC3 - Perform Order"
usecase UC4 as "UC4 - Update Pharmacy"
usecase UC5 as "UC5 - Product Delivery"
usecase UC6 as "UC6 - Add Scooter"
usecase UC7 as "UC7 - Remove Scooter"
usecase UC8 as "UC8 - Update Scooter"
usecase UC9 as "UC9 - Courier Registration"
usecase UC10 as "UC10 - Remove Courier"
usecase UC11 as "UC11 - Notify Client"
usecase UC12 as "UC12 - Send Email to Courier"
usecase UC13 as "UC13 - Add Product"
usecase UC14 as "UC14 - Remove Product"
usecase UC15 as "UC15 - Update Product"
usecase UC16 as "UC16 - Parking the Scooter"
usecase UC17 as "UC17 - Start Delivery By Scooter"
usecase UC18 as "UC18 - Create Scooters/Drones Park"
usecase UC19 as "UC19 - Search Product Nearby Pharmacies"
usecase UC21 as "UC21 - Add Drone"
usecase UC22 as "UC22 - Notify Client of Delivery"
usecase UC24 as "UC24 - Update Drone"
usecase UC25 as "UC25 - Finish Delivery By Scooter"
usecase UC27 as "UC27 - Remove Drone"
usecase UC28 as "UC28 - Parking the Drone"

actor "Administrator" as ADM
actor "Unregistered User" as NUSER
actor "Client" as CLI
actor "Courier" as COU
actor "System" as SYS

left to right direction

ADM - ->(UC1)
ADM - ->(UC4)
ADM - ->(UC5)
ADM - ->(UC6)
ADM - ->(UC7)
ADM - ->(UC8)
ADM - ->(UC9)
ADM - ->(UC10)
ADM - ->(UC13)
ADM - ->(UC14)
ADM - ->(UC15)
ADM - ->(UC18)
ADM - ->(UC21)
ADM - ->(UC24)
ADM - ->(UC27)
ADM - ->(UC28)


NUSER - ->(UC2)

CLI - ->(UC3)

COU - ->(UC16)
COU - ->(UC17)
COU - ->(UC25)

SYS - ->(UC11)
SYS - ->(UC12)
SYS - ->(UC19)
SYS - ->(UC22)

@enduml

PlantUML version 1.2018.14(Fri Dec 21 16:33:16 GMT 2018)
(GPL source distribution)
Java Runtime: Java(TM) SE Runtime Environment
JVM: Java HotSpot(TM) 64-Bit Server VM
Java Version: 1.8.0_221-b11
Operating System: Windows 10
OS Version: 10.0
Default Encoding: Cp1252
Language: pt
Country: PT
--></g></svg>