<?xml version="1.0" encoding="UTF-8" standalone="no"?><svg xmlns="http://www.w3.org/2000/svg" xmlns:xlink="http://www.w3.org/1999/xlink" contentScriptType="application/ecmascript" contentStyleType="text/css" height="300px" preserveAspectRatio="none" style="width:742px;height:300px;" version="1.1" viewBox="0 0 742 300" width="742px" zoomAndPan="magnify"><defs><filter height="300%" id="f1vxs1wcqxjjwf" width="300%" x="-1" y="-1"><feGaussianBlur result="blurOut" stdDeviation="2.0"/><feColorMatrix in="blurOut" result="blurOut2" type="matrix" values="0 0 0 0 0 0 0 0 0 0 0 0 0 0 0 0 0 0 .4 0"/><feOffset dx="4.0" dy="4.0" in="blurOut2" result="blurOut3"/><feBlend in="SourceGraphic" in2="blurOut3" mode="normal"/></filter></defs><g><!--class Platform--><rect fill="#FEFECE" filter="url(#f1vxs1wcqxjjwf)" height="53.8359" id="Platform" style="stroke: #A80036; stroke-width: 1.5;" width="112" x="6" y="121.5"/><ellipse cx="36.3" cy="137.5" fill="#ADD1B2" rx="11" ry="11" style="stroke: #A80036; stroke-width: 1.0;"/><path d="M39.0656,133.375 Q39.2219,133.1563 39.4094,133.0469 Q39.5969,132.9375 39.8156,132.9375 Q40.1906,132.9375 40.425,133.1953 Q40.6594,133.4531 40.6594,134.0625 L40.6594,135.5156 Q40.6594,136.125 40.425,136.3906 Q40.1906,136.6563 39.8156,136.6563 Q39.4719,136.6563 39.2688,136.4531 Q39.0656,136.2656 38.9563,135.75 Q38.9094,135.3906 38.7219,135.2031 Q38.3938,134.8281 37.7844,134.6094 Q37.175,134.3906 36.55,134.3906 Q35.7844,134.3906 35.1516,134.7188 Q34.5188,135.0469 34.0266,135.7969 Q33.5344,136.5469 33.5344,137.5781 L33.5344,138.6719 Q33.5344,139.9063 34.425,140.7266 Q35.3156,141.5469 36.9094,141.5469 Q37.8469,141.5469 38.5031,141.2969 Q38.8938,141.1406 39.3156,140.7031 Q39.5813,140.4375 39.7297,140.3594 Q39.8781,140.2813 40.0813,140.2813 Q40.4094,140.2813 40.6672,140.5391 Q40.925,140.7969 40.925,141.1406 Q40.925,141.4844 40.5813,141.8906 Q40.0813,142.4688 39.2844,142.7969 Q38.2063,143.25 36.9094,143.25 Q35.3938,143.25 34.1906,142.625 Q33.2063,142.125 32.5188,141.0547 Q31.8312,139.9844 31.8312,138.7031 L31.8312,137.5469 Q31.8312,136.2188 32.4484,135.0703 Q33.0656,133.9219 34.1594,133.3047 Q35.2531,132.6875 36.4875,132.6875 Q37.2219,132.6875 37.8703,132.8516 Q38.5188,133.0156 39.0656,133.375 Z "/><text fill="#000000" font-family="sans-serif" font-size="12" lengthAdjust="spacingAndGlyphs" textLength="46" x="53.7" y="142.4102">Platform</text><line style="stroke: #A80036; stroke-width: 1.5;" x1="7" x2="117" y1="153.5" y2="153.5"/><rect fill="none" height="6" style="stroke: #C82930; stroke-width: 1.0;" width="6" x="14" y="162.918"/><text fill="#000000" font-family="sans-serif" font-size="11" lengthAdjust="spacingAndGlyphs" textLength="86" x="26" y="168.9189">String designation</text><!--class Administrator--><rect fill="#FEFECE" filter="url(#f1vxs1wcqxjjwf)" height="67.6719" id="Administrator" style="stroke: #A80036; stroke-width: 1.5;" width="105" x="275" y="114.5"/><ellipse cx="290" cy="130.5" fill="#ADD1B2" rx="11" ry="11" style="stroke: #A80036; stroke-width: 1.0;"/><path d="M292.7656,126.375 Q292.9219,126.1563 293.1094,126.0469 Q293.2969,125.9375 293.5156,125.9375 Q293.8906,125.9375 294.125,126.1953 Q294.3594,126.4531 294.3594,127.0625 L294.3594,128.5156 Q294.3594,129.125 294.125,129.3906 Q293.8906,129.6563 293.5156,129.6563 Q293.1719,129.6563 292.9688,129.4531 Q292.7656,129.2656 292.6563,128.75 Q292.6094,128.3906 292.4219,128.2031 Q292.0938,127.8281 291.4844,127.6094 Q290.875,127.3906 290.25,127.3906 Q289.4844,127.3906 288.8516,127.7188 Q288.2188,128.0469 287.7266,128.7969 Q287.2344,129.5469 287.2344,130.5781 L287.2344,131.6719 Q287.2344,132.9063 288.125,133.7266 Q289.0156,134.5469 290.6094,134.5469 Q291.5469,134.5469 292.2031,134.2969 Q292.5938,134.1406 293.0156,133.7031 Q293.2813,133.4375 293.4297,133.3594 Q293.5781,133.2813 293.7813,133.2813 Q294.1094,133.2813 294.3672,133.5391 Q294.625,133.7969 294.625,134.1406 Q294.625,134.4844 294.2813,134.8906 Q293.7813,135.4688 292.9844,135.7969 Q291.9063,136.25 290.6094,136.25 Q289.0938,136.25 287.8906,135.625 Q286.9063,135.125 286.2188,134.0547 Q285.5313,132.9844 285.5313,131.7031 L285.5313,130.5469 Q285.5313,129.2188 286.1484,128.0703 Q286.7656,126.9219 287.8594,126.3047 Q288.9531,125.6875 290.1875,125.6875 Q290.9219,125.6875 291.5703,125.8516 Q292.2188,126.0156 292.7656,126.375 Z "/><text fill="#000000" font-family="sans-serif" font-size="12" lengthAdjust="spacingAndGlyphs" textLength="73" x="304" y="135.4102">Administrator</text><line style="stroke: #A80036; stroke-width: 1.5;" x1="276" x2="379" y1="146.5" y2="146.5"/><rect fill="none" height="6" style="stroke: #C82930; stroke-width: 1.0;" width="6" x="283" y="155.918"/><text fill="#000000" font-family="sans-serif" font-size="11" lengthAdjust="spacingAndGlyphs" textLength="57" x="295" y="161.9189">String name</text><rect fill="none" height="6" style="stroke: #C82930; stroke-width: 1.0;" width="6" x="283" y="169.7539"/><text fill="#000000" font-family="sans-serif" font-size="11" lengthAdjust="spacingAndGlyphs" textLength="55" x="295" y="175.7549">String email</text><!--class Scooter--><rect fill="#FEFECE" filter="url(#f1vxs1wcqxjjwf)" height="123.0156" id="Scooter" style="stroke: #A80036; stroke-width: 1.5;" width="125" x="585" y="8"/><ellipse cx="622.95" cy="24" fill="#ADD1B2" rx="11" ry="11" style="stroke: #A80036; stroke-width: 1.0;"/><path d="M625.7156,19.875 Q625.8719,19.6563 626.0594,19.5469 Q626.2469,19.4375 626.4656,19.4375 Q626.8406,19.4375 627.075,19.6953 Q627.3094,19.9531 627.3094,20.5625 L627.3094,22.0156 Q627.3094,22.625 627.075,22.8906 Q626.8406,23.1563 626.4656,23.1563 Q626.1219,23.1563 625.9188,22.9531 Q625.7156,22.7656 625.6063,22.25 Q625.5594,21.8906 625.3719,21.7031 Q625.0438,21.3281 624.4344,21.1094 Q623.825,20.8906 623.2,20.8906 Q622.4344,20.8906 621.8016,21.2188 Q621.1688,21.5469 620.6766,22.2969 Q620.1844,23.0469 620.1844,24.0781 L620.1844,25.1719 Q620.1844,26.4063 621.075,27.2266 Q621.9656,28.0469 623.5594,28.0469 Q624.4969,28.0469 625.1531,27.7969 Q625.5438,27.6406 625.9656,27.2031 Q626.2313,26.9375 626.3797,26.8594 Q626.5281,26.7813 626.7313,26.7813 Q627.0594,26.7813 627.3172,27.0391 Q627.575,27.2969 627.575,27.6406 Q627.575,27.9844 627.2313,28.3906 Q626.7313,28.9688 625.9344,29.2969 Q624.8563,29.75 623.5594,29.75 Q622.0438,29.75 620.8406,29.125 Q619.8563,28.625 619.1688,27.5547 Q618.4813,26.4844 618.4813,25.2031 L618.4813,24.0469 Q618.4813,22.7188 619.0984,21.5703 Q619.7156,20.4219 620.8094,19.8047 Q621.9031,19.1875 623.1375,19.1875 Q623.8719,19.1875 624.5203,19.3516 Q625.1688,19.5156 625.7156,19.875 Z "/><text fill="#000000" font-family="sans-serif" font-size="12" lengthAdjust="spacingAndGlyphs" textLength="42" x="642.05" y="28.9102">Scooter</text><line style="stroke: #A80036; stroke-width: 1.5;" x1="586" x2="709" y1="40" y2="40"/><rect fill="none" height="6" style="stroke: #C82930; stroke-width: 1.0;" width="6" x="593" y="49.418"/><text fill="#000000" font-family="sans-serif" font-size="11" lengthAdjust="spacingAndGlyphs" textLength="39" x="605" y="55.4189">String id</text><rect fill="none" height="6" style="stroke: #C82930; stroke-width: 1.0;" width="6" x="593" y="63.2539"/><text fill="#000000" font-family="sans-serif" font-size="11" lengthAdjust="spacingAndGlyphs" textLength="77" x="605" y="69.2549">Double capacity</text><rect fill="none" height="6" style="stroke: #C82930; stroke-width: 1.0;" width="6" x="593" y="77.0898"/><text fill="#000000" font-family="sans-serif" font-size="11" lengthAdjust="spacingAndGlyphs" textLength="68" x="605" y="83.0908">Double power</text><rect fill="none" height="6" style="stroke: #C82930; stroke-width: 1.0;" width="6" x="593" y="90.9258"/><text fill="#000000" font-family="sans-serif" font-size="11" lengthAdjust="spacingAndGlyphs" textLength="70" x="605" y="96.9268">Integer battery</text><rect fill="none" height="6" style="stroke: #C82930; stroke-width: 1.0;" width="6" x="593" y="104.7617"/><text fill="#000000" font-family="sans-serif" font-size="11" lengthAdjust="spacingAndGlyphs" textLength="99" x="605" y="110.7627">Boolean isCharching</text><rect fill="none" height="6" style="stroke: #C82930; stroke-width: 1.0;" width="6" x="593" y="118.5977"/><text fill="#000000" font-family="sans-serif" font-size="11" lengthAdjust="spacingAndGlyphs" textLength="83" x="605" y="124.5986">Boolean isParked</text><!--class Courier--><rect fill="#FEFECE" filter="url(#f1vxs1wcqxjjwf)" height="123.0156" id="Courier" style="stroke: #A80036; stroke-width: 1.5;" width="167" x="564" y="166"/><ellipse cx="622.75" cy="182" fill="#ADD1B2" rx="11" ry="11" style="stroke: #A80036; stroke-width: 1.0;"/><path d="M625.5156,177.875 Q625.6719,177.6563 625.8594,177.5469 Q626.0469,177.4375 626.2656,177.4375 Q626.6406,177.4375 626.875,177.6953 Q627.1094,177.9531 627.1094,178.5625 L627.1094,180.0156 Q627.1094,180.625 626.875,180.8906 Q626.6406,181.1563 626.2656,181.1563 Q625.9219,181.1563 625.7188,180.9531 Q625.5156,180.7656 625.4063,180.25 Q625.3594,179.8906 625.1719,179.7031 Q624.8438,179.3281 624.2344,179.1094 Q623.625,178.8906 623,178.8906 Q622.2344,178.8906 621.6016,179.2188 Q620.9688,179.5469 620.4766,180.2969 Q619.9844,181.0469 619.9844,182.0781 L619.9844,183.1719 Q619.9844,184.4063 620.875,185.2266 Q621.7656,186.0469 623.3594,186.0469 Q624.2969,186.0469 624.9531,185.7969 Q625.3438,185.6406 625.7656,185.2031 Q626.0313,184.9375 626.1797,184.8594 Q626.3281,184.7813 626.5313,184.7813 Q626.8594,184.7813 627.1172,185.0391 Q627.375,185.2969 627.375,185.6406 Q627.375,185.9844 627.0313,186.3906 Q626.5313,186.9688 625.7344,187.2969 Q624.6563,187.75 623.3594,187.75 Q621.8438,187.75 620.6406,187.125 Q619.6563,186.625 618.9688,185.5547 Q618.2813,184.4844 618.2813,183.2031 L618.2813,182.0469 Q618.2813,180.7188 618.8984,179.5703 Q619.5156,178.4219 620.6094,177.8047 Q621.7031,177.1875 622.9375,177.1875 Q623.6719,177.1875 624.3203,177.3516 Q624.9688,177.5156 625.5156,177.875 Z "/><text fill="#000000" font-family="sans-serif" font-size="12" lengthAdjust="spacingAndGlyphs" textLength="41" x="643.25" y="186.9102">Courier</text><line style="stroke: #A80036; stroke-width: 1.5;" x1="565" x2="730" y1="198" y2="198"/><rect fill="none" height="6" style="stroke: #C82930; stroke-width: 1.0;" width="6" x="572" y="207.418"/><text fill="#000000" font-family="sans-serif" font-size="11" lengthAdjust="spacingAndGlyphs" textLength="57" x="584" y="213.4189">String name</text><rect fill="none" height="6" style="stroke: #C82930; stroke-width: 1.0;" width="6" x="572" y="221.2539"/><text fill="#000000" font-family="sans-serif" font-size="11" lengthAdjust="spacingAndGlyphs" textLength="55" x="584" y="227.2549">String email</text><rect fill="none" height="6" style="stroke: #C82930; stroke-width: 1.0;" width="6" x="572" y="235.0898"/><text fill="#000000" font-family="sans-serif" font-size="11" lengthAdjust="spacingAndGlyphs" textLength="103" x="584" y="241.0908">Integer phoneNumber</text><rect fill="none" height="6" style="stroke: #C82930; stroke-width: 1.0;" width="6" x="572" y="248.9258"/><text fill="#000000" font-family="sans-serif" font-size="11" lengthAdjust="spacingAndGlyphs" textLength="141" x="584" y="254.9268">Integer socialSecurityNumber</text><rect fill="none" height="6" style="stroke: #C82930; stroke-width: 1.0;" width="6" x="572" y="262.7617"/><text fill="#000000" font-family="sans-serif" font-size="11" lengthAdjust="spacingAndGlyphs" textLength="48" x="584" y="268.7627">Integer nif</text><rect fill="none" height="6" style="stroke: #C82930; stroke-width: 1.0;" width="6" x="572" y="276.5977"/><text fill="#000000" font-family="sans-serif" font-size="11" lengthAdjust="spacingAndGlyphs" textLength="61" x="584" y="282.5986">String status</text><!--link Platform to Administrator--><path d="M118.24,148.5 C164.42,148.5 229.79,148.5 274.91,148.5 " fill="none" id="Platform-Administrator" style="stroke: #A80036; stroke-width: 1.0;"/><text fill="#000000" font-family="sans-serif" font-size="13" lengthAdjust="spacingAndGlyphs" textLength="82" x="149" y="144.9951">has registered</text><polygon fill="#000000" points="234,138.1758,240,141.1758,234,144.1758,234,138.1758" style="stroke: #000000; stroke-width: 1.0;"/><text fill="#000000" font-family="sans-serif" font-size="13" lengthAdjust="spacingAndGlyphs" textLength="7" x="125.8942" y="163.0531">1</text><text fill="#000000" font-family="sans-serif" font-size="13" lengthAdjust="spacingAndGlyphs" textLength="5" x="262.163" y="163.1679">*</text><!--link Administrator to Scooter--><path d="M380.3,135.63 C436.27,121.73 525.4,99.58 584.91,84.8 " fill="none" id="Administrator-Scooter" style="stroke: #A80036; stroke-width: 1.0;"/><text fill="#000000" font-family="sans-serif" font-size="13" lengthAdjust="spacingAndGlyphs" textLength="109" x="411" y="96.9951">add/remove/update</text><polygon fill="#000000" points="523,90.1758,529,93.1758,523,96.1758,523,90.1758" style="stroke: #000000; stroke-width: 1.0;"/><text fill="#000000" font-family="sans-serif" font-size="13" lengthAdjust="spacingAndGlyphs" textLength="7" x="387.8653" y="148.5164">1</text><text fill="#000000" font-family="sans-serif" font-size="13" lengthAdjust="spacingAndGlyphs" textLength="5" x="571.9772" y="101.1553">*</text><!--link Administrator to Courier--><path d="M380.3,161.37 C430.02,173.72 505.91,192.57 563.96,207 " fill="none" id="Administrator-Courier" style="stroke: #A80036; stroke-width: 1.0;"/><text fill="#000000" font-family="sans-serif" font-size="13" lengthAdjust="spacingAndGlyphs" textLength="46" x="442.5" y="166.9951">manage</text><polygon fill="#000000" points="491.5,160.1758,497.5,163.1758,491.5,166.1758,491.5,160.1758" style="stroke: #000000; stroke-width: 1.0;"/><text fill="#000000" font-family="sans-serif" font-size="13" lengthAdjust="spacingAndGlyphs" textLength="7" x="387.8653" y="177.7152">1</text><text fill="#000000" font-family="sans-serif" font-size="13" lengthAdjust="spacingAndGlyphs" textLength="5" x="551.0282" y="219.3583">*</text><!--
@startuml

hide methods
left to right direction

class Platform {
  -String designation
}

class Administrator {
  -String name
  -String email
}

class Scooter {
  -String id
  -Double capacity
  -Double power
  -Integer battery
  -Boolean isCharching
  -Boolean isParked
}

class Courier {
  -String name
  -String email
  -Integer phoneNumber
  -Integer socialSecurityNumber
  -Integer nif
  -String status
}

Platform "1" - - "*" Administrator : has registered >

Administrator "1" - - "*" Scooter : add/remove/update >
Administrator "1" - - "*" Courier : manage >

@enduml

PlantUML version 1.2018.14(Fri Dec 21 16:33:16 GMT 2018)
(GPL source distribution)
Java Runtime: Java(TM) SE Runtime Environment
JVM: Java HotSpot(TM) Client VM
Java Version: 1.8.0_251-b08
Operating System: Windows 10
OS Version: 10.0
Default Encoding: Cp1252
Language: en
Country: US
--></g></svg>