<?xml version="1.0" encoding="UTF-8" standalone="no"?><svg xmlns="http://www.w3.org/2000/svg" xmlns:xlink="http://www.w3.org/1999/xlink" contentScriptType="application/ecmascript" contentStyleType="text/css" height="618px" preserveAspectRatio="none" style="width:807px;height:618px;" version="1.1" viewBox="0 0 807 618" width="807px" zoomAndPan="magnify"><defs><filter height="300%" id="fyepqy2jq5gom" width="300%" x="-1" y="-1"><feGaussianBlur result="blurOut" stdDeviation="2.0"/><feColorMatrix in="blurOut" result="blurOut2" type="matrix" values="0 0 0 0 0 0 0 0 0 0 0 0 0 0 0 0 0 0 .4 0"/><feOffset dx="4.0" dy="4.0" in="blurOut2" result="blurOut3"/><feBlend in="SourceGraphic" in2="blurOut3" mode="normal"/></filter></defs><g><!--class RemoveDroneUI--><rect fill="#FEFECE" filter="url(#fyepqy2jq5gom)" height="48" id="RemoveDroneUI" style="stroke: #A80036; stroke-width: 1.5;" width="124" x="209" y="8"/><ellipse cx="224" cy="24" fill="#ADD1B2" rx="11" ry="11" style="stroke: #A80036; stroke-width: 1.0;"/><path d="M226.7656,19.875 Q226.9219,19.6563 227.1094,19.5469 Q227.2969,19.4375 227.5156,19.4375 Q227.8906,19.4375 228.125,19.6953 Q228.3594,19.9531 228.3594,20.5625 L228.3594,22.0156 Q228.3594,22.625 228.125,22.8906 Q227.8906,23.1563 227.5156,23.1563 Q227.1719,23.1563 226.9688,22.9531 Q226.7656,22.7656 226.6563,22.25 Q226.6094,21.8906 226.4219,21.7031 Q226.0938,21.3281 225.4844,21.1094 Q224.875,20.8906 224.25,20.8906 Q223.4844,20.8906 222.8516,21.2188 Q222.2188,21.5469 221.7266,22.2969 Q221.2344,23.0469 221.2344,24.0781 L221.2344,25.1719 Q221.2344,26.4063 222.125,27.2266 Q223.0156,28.0469 224.6094,28.0469 Q225.5469,28.0469 226.2031,27.7969 Q226.5938,27.6406 227.0156,27.2031 Q227.2813,26.9375 227.4297,26.8594 Q227.5781,26.7813 227.7813,26.7813 Q228.1094,26.7813 228.3672,27.0391 Q228.625,27.2969 228.625,27.6406 Q228.625,27.9844 228.2813,28.3906 Q227.7813,28.9688 226.9844,29.2969 Q225.9063,29.75 224.6094,29.75 Q223.0938,29.75 221.8906,29.125 Q220.9063,28.625 220.2188,27.5547 Q219.5313,26.4844 219.5313,25.2031 L219.5313,24.0469 Q219.5313,22.7188 220.1484,21.5703 Q220.7656,20.4219 221.8594,19.8047 Q222.9531,19.1875 224.1875,19.1875 Q224.9219,19.1875 225.5703,19.3516 Q226.2188,19.5156 226.7656,19.875 Z "/><text fill="#000000" font-family="sans-serif" font-size="12" lengthAdjust="spacingAndGlyphs" textLength="92" x="238" y="28.9102">RemoveDroneUI</text><line style="stroke: #A80036; stroke-width: 1.5;" x1="210" x2="332" y1="40" y2="40"/><line style="stroke: #A80036; stroke-width: 1.5;" x1="210" x2="332" y1="48" y2="48"/><!--class RemoveDroneController--><rect fill="#FEFECE" filter="url(#fyepqy2jq5gom)" height="117.1797" id="RemoveDroneController" style="stroke: #A80036; stroke-width: 1.5;" width="198" x="172" y="117"/><ellipse cx="201.4" cy="133" fill="#ADD1B2" rx="11" ry="11" style="stroke: #A80036; stroke-width: 1.0;"/><path d="M204.1656,128.875 Q204.3219,128.6563 204.5094,128.5469 Q204.6969,128.4375 204.9156,128.4375 Q205.2906,128.4375 205.525,128.6953 Q205.7594,128.9531 205.7594,129.5625 L205.7594,131.0156 Q205.7594,131.625 205.525,131.8906 Q205.2906,132.1563 204.9156,132.1563 Q204.5719,132.1563 204.3688,131.9531 Q204.1656,131.7656 204.0563,131.25 Q204.0094,130.8906 203.8219,130.7031 Q203.4938,130.3281 202.8844,130.1094 Q202.275,129.8906 201.65,129.8906 Q200.8844,129.8906 200.2516,130.2188 Q199.6188,130.5469 199.1266,131.2969 Q198.6344,132.0469 198.6344,133.0781 L198.6344,134.1719 Q198.6344,135.4063 199.525,136.2266 Q200.4156,137.0469 202.0094,137.0469 Q202.9469,137.0469 203.6031,136.7969 Q203.9938,136.6406 204.4156,136.2031 Q204.6813,135.9375 204.8297,135.8594 Q204.9781,135.7813 205.1813,135.7813 Q205.5094,135.7813 205.7672,136.0391 Q206.025,136.2969 206.025,136.6406 Q206.025,136.9844 205.6813,137.3906 Q205.1813,137.9688 204.3844,138.2969 Q203.3063,138.75 202.0094,138.75 Q200.4938,138.75 199.2906,138.125 Q198.3063,137.625 197.6188,136.5547 Q196.9313,135.4844 196.9313,134.2031 L196.9313,133.0469 Q196.9313,131.7188 197.5484,130.5703 Q198.1656,129.4219 199.2594,128.8047 Q200.3531,128.1875 201.5875,128.1875 Q202.3219,128.1875 202.9703,128.3516 Q203.6188,128.5156 204.1656,128.875 Z "/><text fill="#000000" font-family="sans-serif" font-size="12" lengthAdjust="spacingAndGlyphs" textLength="134" x="218.6" y="137.9102">RemoveDroneController</text><line style="stroke: #A80036; stroke-width: 1.5;" x1="173" x2="369" y1="149" y2="149"/><line style="stroke: #A80036; stroke-width: 1.5;" x1="173" x2="369" y1="157" y2="157"/><text fill="#000000" font-family="sans-serif" font-size="11" lengthAdjust="spacingAndGlyphs" textLength="182" x="178" y="172.4189">+List&lt;Pharmacy&gt; getPharmaciesList()</text><text fill="#000000" font-family="sans-serif" font-size="11" lengthAdjust="spacingAndGlyphs" textLength="186" x="178" y="186.2549">+getPharmacyByEmail(PharmacyEmail)</text><text fill="#000000" font-family="sans-serif" font-size="11" lengthAdjust="spacingAndGlyphs" textLength="142" x="178" y="200.0908">+List&lt;Drone&gt; getDronesList()</text><text fill="#000000" font-family="sans-serif" font-size="11" lengthAdjust="spacingAndGlyphs" textLength="117" x="178" y="213.9268">+getDroneByID(droneID)</text><text fill="#000000" font-family="sans-serif" font-size="11" lengthAdjust="spacingAndGlyphs" textLength="79" x="178" y="227.7627">+removeDrone()</text><!--class PharmacyDB--><rect fill="#FEFECE" filter="url(#fyepqy2jq5gom)" height="75.6719" id="PharmacyDB" style="stroke: #A80036; stroke-width: 1.5;" width="212" x="6" y="308.5"/><ellipse cx="71.75" cy="324.5" fill="#ADD1B2" rx="11" ry="11" style="stroke: #A80036; stroke-width: 1.0;"/><path d="M74.5156,320.375 Q74.6719,320.1563 74.8594,320.0469 Q75.0469,319.9375 75.2656,319.9375 Q75.6406,319.9375 75.875,320.1953 Q76.1094,320.4531 76.1094,321.0625 L76.1094,322.5156 Q76.1094,323.125 75.875,323.3906 Q75.6406,323.6563 75.2656,323.6563 Q74.9219,323.6563 74.7188,323.4531 Q74.5156,323.2656 74.4063,322.75 Q74.3594,322.3906 74.1719,322.2031 Q73.8438,321.8281 73.2344,321.6094 Q72.625,321.3906 72,321.3906 Q71.2344,321.3906 70.6016,321.7188 Q69.9688,322.0469 69.4766,322.7969 Q68.9844,323.5469 68.9844,324.5781 L68.9844,325.6719 Q68.9844,326.9063 69.875,327.7266 Q70.7656,328.5469 72.3594,328.5469 Q73.2969,328.5469 73.9531,328.2969 Q74.3438,328.1406 74.7656,327.7031 Q75.0313,327.4375 75.1797,327.3594 Q75.3281,327.2813 75.5313,327.2813 Q75.8594,327.2813 76.1172,327.5391 Q76.375,327.7969 76.375,328.1406 Q76.375,328.4844 76.0313,328.8906 Q75.5313,329.4688 74.7344,329.7969 Q73.6563,330.25 72.3594,330.25 Q70.8438,330.25 69.6406,329.625 Q68.6563,329.125 67.9688,328.0547 Q67.2813,326.9844 67.2813,325.7031 L67.2813,324.5469 Q67.2813,323.2188 67.8984,322.0703 Q68.5156,320.9219 69.6094,320.3047 Q70.7031,319.6875 71.9375,319.6875 Q72.6719,319.6875 73.3203,319.8516 Q73.9688,320.0156 74.5156,320.375 Z "/><text fill="#000000" font-family="sans-serif" font-size="12" lengthAdjust="spacingAndGlyphs" textLength="72" x="92.25" y="329.4102">PharmacyDB</text><line style="stroke: #A80036; stroke-width: 1.5;" x1="7" x2="217" y1="340.5" y2="340.5"/><line style="stroke: #A80036; stroke-width: 1.5;" x1="7" x2="217" y1="348.5" y2="348.5"/><text fill="#000000" font-family="sans-serif" font-size="11" lengthAdjust="spacingAndGlyphs" textLength="177" x="12" y="363.9189">+List&lt;Pharmacy&gt; getAllPharmacies()</text><text fill="#000000" font-family="sans-serif" font-size="11" lengthAdjust="spacingAndGlyphs" textLength="200" x="12" y="377.7549">+Pharmacy getPharmacy(PharmacyEmail)</text><!--class DroneDB--><rect fill="#FEFECE" filter="url(#fyepqy2jq5gom)" height="89.5078" id="DroneDB" style="stroke: #A80036; stroke-width: 1.5;" width="195" x="461.5" y="301.5"/><ellipse cx="529.25" cy="317.5" fill="#ADD1B2" rx="11" ry="11" style="stroke: #A80036; stroke-width: 1.0;"/><path d="M532.0156,313.375 Q532.1719,313.1563 532.3594,313.0469 Q532.5469,312.9375 532.7656,312.9375 Q533.1406,312.9375 533.375,313.1953 Q533.6094,313.4531 533.6094,314.0625 L533.6094,315.5156 Q533.6094,316.125 533.375,316.3906 Q533.1406,316.6563 532.7656,316.6563 Q532.4219,316.6563 532.2188,316.4531 Q532.0156,316.2656 531.9063,315.75 Q531.8594,315.3906 531.6719,315.2031 Q531.3438,314.8281 530.7344,314.6094 Q530.125,314.3906 529.5,314.3906 Q528.7344,314.3906 528.1016,314.7188 Q527.4688,315.0469 526.9766,315.7969 Q526.4844,316.5469 526.4844,317.5781 L526.4844,318.6719 Q526.4844,319.9063 527.375,320.7266 Q528.2656,321.5469 529.8594,321.5469 Q530.7969,321.5469 531.4531,321.2969 Q531.8438,321.1406 532.2656,320.7031 Q532.5313,320.4375 532.6797,320.3594 Q532.8281,320.2813 533.0313,320.2813 Q533.3594,320.2813 533.6172,320.5391 Q533.875,320.7969 533.875,321.1406 Q533.875,321.4844 533.5313,321.8906 Q533.0313,322.4688 532.2344,322.7969 Q531.1563,323.25 529.8594,323.25 Q528.3438,323.25 527.1406,322.625 Q526.1563,322.125 525.4688,321.0547 Q524.7813,319.9844 524.7813,318.7031 L524.7813,317.5469 Q524.7813,316.2188 525.3984,315.0703 Q526.0156,313.9219 527.1094,313.3047 Q528.2031,312.6875 529.4375,312.6875 Q530.1719,312.6875 530.8203,312.8516 Q531.4688,313.0156 532.0156,313.375 Z "/><text fill="#000000" font-family="sans-serif" font-size="12" lengthAdjust="spacingAndGlyphs" textLength="51" x="549.75" y="322.4102">DroneDB</text><line style="stroke: #A80036; stroke-width: 1.5;" x1="462.5" x2="655.5" y1="333.5" y2="333.5"/><line style="stroke: #A80036; stroke-width: 1.5;" x1="462.5" x2="655.5" y1="341.5" y2="341.5"/><text fill="#000000" font-family="sans-serif" font-size="11" lengthAdjust="spacingAndGlyphs" textLength="183" x="467.5" y="356.9189">+List&lt;Drone&gt; getAllDrones(pharEmail)</text><text fill="#000000" font-family="sans-serif" font-size="11" lengthAdjust="spacingAndGlyphs" textLength="95" x="467.5" y="370.7549">+getDrone(droneID)</text><text fill="#000000" font-family="sans-serif" font-size="11" lengthAdjust="spacingAndGlyphs" textLength="87" x="467.5" y="384.5908">+remove(droneID)</text><!--class Drone--><rect fill="#FEFECE" filter="url(#fyepqy2jq5gom)" height="131.0156" id="Drone" style="stroke: #A80036; stroke-width: 1.5;" width="104" x="461" y="476"/><ellipse cx="493.1" cy="492" fill="#ADD1B2" rx="11" ry="11" style="stroke: #A80036; stroke-width: 1.0;"/><path d="M495.8656,487.875 Q496.0219,487.6563 496.2094,487.5469 Q496.3969,487.4375 496.6156,487.4375 Q496.9906,487.4375 497.225,487.6953 Q497.4594,487.9531 497.4594,488.5625 L497.4594,490.0156 Q497.4594,490.625 497.225,490.8906 Q496.9906,491.1563 496.6156,491.1563 Q496.2719,491.1563 496.0688,490.9531 Q495.8656,490.7656 495.7563,490.25 Q495.7094,489.8906 495.5219,489.7031 Q495.1938,489.3281 494.5844,489.1094 Q493.975,488.8906 493.35,488.8906 Q492.5844,488.8906 491.9516,489.2188 Q491.3188,489.5469 490.8266,490.2969 Q490.3344,491.0469 490.3344,492.0781 L490.3344,493.1719 Q490.3344,494.4063 491.225,495.2266 Q492.1156,496.0469 493.7094,496.0469 Q494.6469,496.0469 495.3031,495.7969 Q495.6938,495.6406 496.1156,495.2031 Q496.3813,494.9375 496.5297,494.8594 Q496.6781,494.7813 496.8813,494.7813 Q497.2094,494.7813 497.4672,495.0391 Q497.725,495.2969 497.725,495.6406 Q497.725,495.9844 497.3813,496.3906 Q496.8813,496.9688 496.0844,497.2969 Q495.0063,497.75 493.7094,497.75 Q492.1938,497.75 490.9906,497.125 Q490.0063,496.625 489.3188,495.5547 Q488.6313,494.4844 488.6313,493.2031 L488.6313,492.0469 Q488.6313,490.7188 489.2484,489.5703 Q489.8656,488.4219 490.9594,487.8047 Q492.0531,487.1875 493.2875,487.1875 Q494.0219,487.1875 494.6703,487.3516 Q495.3188,487.5156 495.8656,487.875 Z "/><text fill="#000000" font-family="sans-serif" font-size="12" lengthAdjust="spacingAndGlyphs" textLength="34" x="510.9" y="496.9102">Drone</text><line style="stroke: #A80036; stroke-width: 1.5;" x1="462" x2="564" y1="508" y2="508"/><text fill="#000000" font-family="sans-serif" font-size="11" lengthAdjust="spacingAndGlyphs" textLength="43" x="467" y="523.4189">-String id</text><text fill="#000000" font-family="sans-serif" font-size="11" lengthAdjust="spacingAndGlyphs" textLength="81" x="467" y="537.2549">-Double capacity</text><text fill="#000000" font-family="sans-serif" font-size="11" lengthAdjust="spacingAndGlyphs" textLength="72" x="467" y="551.0908">-Double power</text><text fill="#000000" font-family="sans-serif" font-size="11" lengthAdjust="spacingAndGlyphs" textLength="92" x="467" y="564.9268">-Double maxPower</text><text fill="#000000" font-family="sans-serif" font-size="11" lengthAdjust="spacingAndGlyphs" textLength="74" x="467" y="578.7627">-Integer battery</text><line style="stroke: #A80036; stroke-width: 1.5;" x1="462" x2="564" y1="585.1797" y2="585.1797"/><text fill="#000000" font-family="sans-serif" font-size="11" lengthAdjust="spacingAndGlyphs" textLength="69" x="467" y="600.5986">+String getID()</text><!--class Pharmacy--><rect fill="#FEFECE" filter="url(#fyepqy2jq5gom)" height="103.3438" id="Pharmacy" style="stroke: #A80036; stroke-width: 1.5;" width="102" x="324" y="295"/><ellipse cx="345.75" cy="311" fill="#ADD1B2" rx="11" ry="11" style="stroke: #A80036; stroke-width: 1.0;"/><path d="M348.5156,306.875 Q348.6719,306.6563 348.8594,306.5469 Q349.0469,306.4375 349.2656,306.4375 Q349.6406,306.4375 349.875,306.6953 Q350.1094,306.9531 350.1094,307.5625 L350.1094,309.0156 Q350.1094,309.625 349.875,309.8906 Q349.6406,310.1563 349.2656,310.1563 Q348.9219,310.1563 348.7188,309.9531 Q348.5156,309.7656 348.4063,309.25 Q348.3594,308.8906 348.1719,308.7031 Q347.8438,308.3281 347.2344,308.1094 Q346.625,307.8906 346,307.8906 Q345.2344,307.8906 344.6016,308.2188 Q343.9688,308.5469 343.4766,309.2969 Q342.9844,310.0469 342.9844,311.0781 L342.9844,312.1719 Q342.9844,313.4063 343.875,314.2266 Q344.7656,315.0469 346.3594,315.0469 Q347.2969,315.0469 347.9531,314.7969 Q348.3438,314.6406 348.7656,314.2031 Q349.0313,313.9375 349.1797,313.8594 Q349.3281,313.7813 349.5313,313.7813 Q349.8594,313.7813 350.1172,314.0391 Q350.375,314.2969 350.375,314.6406 Q350.375,314.9844 350.0313,315.3906 Q349.5313,315.9688 348.7344,316.2969 Q347.6563,316.75 346.3594,316.75 Q344.8438,316.75 343.6406,316.125 Q342.6563,315.625 341.9688,314.5547 Q341.2813,313.4844 341.2813,312.2031 L341.2813,311.0469 Q341.2813,309.7188 341.8984,308.5703 Q342.5156,307.4219 343.6094,306.8047 Q344.7031,306.1875 345.9375,306.1875 Q346.6719,306.1875 347.3203,306.3516 Q347.9688,306.5156 348.5156,306.875 Z "/><text fill="#000000" font-family="sans-serif" font-size="12" lengthAdjust="spacingAndGlyphs" textLength="55" x="361.25" y="315.9102">Pharmacy</text><line style="stroke: #A80036; stroke-width: 1.5;" x1="325" x2="425" y1="327" y2="327"/><text fill="#000000" font-family="sans-serif" font-size="11" lengthAdjust="spacingAndGlyphs" textLength="90" x="330" y="342.4189">-String designation</text><text fill="#000000" font-family="sans-serif" font-size="11" lengthAdjust="spacingAndGlyphs" textLength="77" x="330" y="356.2549">-Adress adress</text><text fill="#000000" font-family="sans-serif" font-size="11" lengthAdjust="spacingAndGlyphs" textLength="81" x="330" y="370.0908">-Integer parkMax</text><line style="stroke: #A80036; stroke-width: 1.5;" x1="325" x2="425" y1="376.5078" y2="376.5078"/><text fill="#000000" font-family="sans-serif" font-size="11" lengthAdjust="spacingAndGlyphs" textLength="84" x="330" y="391.9268">+String getEmail()</text><!--class Administrator--><rect fill="#FEFECE" filter="url(#fyepqy2jq5gom)" height="61.8359" id="Administrator" style="stroke: #A80036; stroke-width: 1.5;" width="105" x="691.5" y="315.5"/><ellipse cx="706.5" cy="331.5" fill="#ADD1B2" rx="11" ry="11" style="stroke: #A80036; stroke-width: 1.0;"/><path d="M709.2656,327.375 Q709.4219,327.1563 709.6094,327.0469 Q709.7969,326.9375 710.0156,326.9375 Q710.3906,326.9375 710.625,327.1953 Q710.8594,327.4531 710.8594,328.0625 L710.8594,329.5156 Q710.8594,330.125 710.625,330.3906 Q710.3906,330.6563 710.0156,330.6563 Q709.6719,330.6563 709.4688,330.4531 Q709.2656,330.2656 709.1563,329.75 Q709.1094,329.3906 708.9219,329.2031 Q708.5938,328.8281 707.9844,328.6094 Q707.375,328.3906 706.75,328.3906 Q705.9844,328.3906 705.3516,328.7188 Q704.7188,329.0469 704.2266,329.7969 Q703.7344,330.5469 703.7344,331.5781 L703.7344,332.6719 Q703.7344,333.9063 704.625,334.7266 Q705.5156,335.5469 707.1094,335.5469 Q708.0469,335.5469 708.7031,335.2969 Q709.0938,335.1406 709.5156,334.7031 Q709.7813,334.4375 709.9297,334.3594 Q710.0781,334.2813 710.2813,334.2813 Q710.6094,334.2813 710.8672,334.5391 Q711.125,334.7969 711.125,335.1406 Q711.125,335.4844 710.7813,335.8906 Q710.2813,336.4688 709.4844,336.7969 Q708.4063,337.25 707.1094,337.25 Q705.5938,337.25 704.3906,336.625 Q703.4063,336.125 702.7188,335.0547 Q702.0313,333.9844 702.0313,332.7031 L702.0313,331.5469 Q702.0313,330.2188 702.6484,329.0703 Q703.2656,327.9219 704.3594,327.3047 Q705.4531,326.6875 706.6875,326.6875 Q707.4219,326.6875 708.0703,326.8516 Q708.7188,327.0156 709.2656,327.375 Z "/><text fill="#000000" font-family="sans-serif" font-size="12" lengthAdjust="spacingAndGlyphs" textLength="73" x="720.5" y="336.4102">Administrator</text><line style="stroke: #A80036; stroke-width: 1.5;" x1="692.5" x2="795.5" y1="347.5" y2="347.5"/><text fill="#000000" font-family="sans-serif" font-size="11" lengthAdjust="spacingAndGlyphs" textLength="59" x="697.5" y="362.9189">-String email</text><line style="stroke: #A80036; stroke-width: 1.5;" x1="692.5" x2="795.5" y1="369.3359" y2="369.3359"/><!--link RemoveDroneUI to RemoveDroneController--><path d="M271,56.049 C271,71.282 271,92.037 271,111.92 " fill="none" id="RemoveDroneUI-RemoveDroneController" style="stroke: #A80036; stroke-width: 1.0; stroke-dasharray: 7.0,7.0;"/><polygon fill="#A80036" points="271,116.952,275,107.952,271,111.952,267,107.952,271,116.952" style="stroke: #A80036; stroke-width: 1.0;"/><!--link RemoveDroneController to PharmacyDB--><path d="M216.726,234.188 C194.96,257.322 170.38,283.448 150.505,304.573 " fill="none" id="RemoveDroneController-PharmacyDB" style="stroke: #A80036; stroke-width: 1.0; stroke-dasharray: 7.0,7.0;"/><polygon fill="#A80036" points="146.851,308.457,155.932,304.6445,150.2778,304.816,150.1064,299.1617,146.851,308.457" style="stroke: #A80036; stroke-width: 1.0;"/><!--link RemoveDroneController to Drone--><path d="M268.021,234.042 C268.245,281.49 274.97,348.758 306,398 C341.491,454.32 408.208,494.125 456.321,517.0952 " fill="none" id="RemoveDroneController-Drone" style="stroke: #A80036; stroke-width: 1.0; stroke-dasharray: 7.0,7.0;"/><polygon fill="#A80036" points="460.918,519.2655,454.4886,511.8048,456.397,517.13,451.0718,519.0384,460.918,519.2655" style="stroke: #A80036; stroke-width: 1.0;"/><!--link RemoveDroneController to Pharmacy--><path d="M306.5,234.188 C317.675,252.347 329.984,272.349 341.048,290.328 " fill="none" id="RemoveDroneController-Pharmacy" style="stroke: #A80036; stroke-width: 1.0; stroke-dasharray: 7.0,7.0;"/><polygon fill="#A80036" points="343.833,294.853,342.5239,285.0915,341.213,290.5944,335.7101,289.2836,343.833,294.853" style="stroke: #A80036; stroke-width: 1.0;"/><!--link Administrator to Drone--><path d="M707.906,377.656 C670.708,408.736 612.21,457.61 568.999,493.713 " fill="none" id="Administrator-Drone" style="stroke: #A80036; stroke-width: 1.0;"/><polygon fill="#A80036" points="565.129,496.946,574.5999,494.2437,568.9655,493.7396,569.4696,488.1053,565.129,496.946" style="stroke: #A80036; stroke-width: 1.0;"/><text fill="#000000" font-family="sans-serif" font-size="13" lengthAdjust="spacingAndGlyphs" textLength="109" x="643" y="442.4951">add/remove/update</text><text fill="#000000" font-family="sans-serif" font-size="13" lengthAdjust="spacingAndGlyphs" textLength="7" x="693.1109" y="398.9107">1</text><text fill="#000000" font-family="sans-serif" font-size="13" lengthAdjust="spacingAndGlyphs" textLength="5" x="573.1526" y="486.7469">*</text><!--link Pharmacy to Drone--><path d="M411.258,398.208 C428.268,421.997 448.733,450.619 466.835,475.936 " fill="none" id="Pharmacy-Drone" style="stroke: #A80036; stroke-width: 1.0;"/><text fill="#000000" font-family="sans-serif" font-size="13" lengthAdjust="spacingAndGlyphs" textLength="21" x="445" y="442.4951">has</text><polygon fill="#000000" points="451,451.3516,454,457.3516,457,451.3516,451,451.3516" style="stroke: #000000; stroke-width: 1.0;"/><text fill="#000000" font-family="sans-serif" font-size="13" lengthAdjust="spacingAndGlyphs" textLength="7" x="408.6599" y="419.7269">1</text><text fill="#000000" font-family="sans-serif" font-size="13" lengthAdjust="spacingAndGlyphs" textLength="5" x="456.2081" y="464.9447">*</text><!--link DroneDB to Drone--><path d="M548.447,391.778 C542.505,416.707 534.978,448.289 528.389,475.932 " fill="none" id="DroneDB-Drone" style="stroke: #A80036; stroke-width: 1.0;"/><text fill="#000000" font-family="sans-serif" font-size="13" lengthAdjust="spacingAndGlyphs" textLength="48" x="539" y="442.4951">removes</text><polygon fill="#000000" points="558.5,451.3516,561.5,457.3516,564.5,451.3516,558.5,451.3516" style="stroke: #000000; stroke-width: 1.0;"/><text fill="#000000" font-family="sans-serif" font-size="13" lengthAdjust="spacingAndGlyphs" textLength="7" x="539.5586" y="412.489">1</text><text fill="#000000" font-family="sans-serif" font-size="13" lengthAdjust="spacingAndGlyphs" textLength="5" x="524.8793" y="464.9402">*</text><!--
@startuml
skinparam classAttributeIconSize 0

class RemoveDroneUI {

}

class RemoveDroneController {
  +List<Pharmacy> getPharmaciesList()
  +getPharmacyByEmail(PharmacyEmail)
  +List<Drone> getDronesList()
  +getDroneByID(droneID)
  +removeDrone()
}

class PharmacyDB {
  +List<Pharmacy> getAllPharmacies()
  +Pharmacy getPharmacy(PharmacyEmail)
}

class DroneDB {
  +List<Drone> getAllDrones(pharEmail)
  +getDrone(droneID)
  +remove(droneID)
}

class Drone {
  -String id
  -Double capacity
  -Double power
  -Double maxPower
  -Integer battery
  +String getID()
}

class Pharmacy {
  -String designation
  -Adress adress
  -Integer parkMax
  +String getEmail()
}

class Administrator {
  -String email
}

RemoveDroneUI ..> RemoveDroneController
RemoveDroneController ..> PharmacyDB
RemoveDroneController ..> Drone
RemoveDroneController ..> Pharmacy

Administrator "1" - -> "*" Drone : add/remove/update

Pharmacy "1" - - "*" Drone : has >

DroneDB "1" - - "*" Drone: removes >

@enduml

PlantUML version 1.2018.14(Fri Dec 21 16:33:16 GMT 2018)
(GPL source distribution)
Java Runtime: Java(TM) SE Runtime Environment
JVM: Java HotSpot(TM) 64-Bit Server VM
Java Version: 1.8.0_261-b12
Operating System: Windows 10
OS Version: 10.0
Default Encoding: Cp1252
Language: pt
Country: PT
--></g></svg>