<?xml version="1.0" encoding="UTF-8" standalone="no"?><svg xmlns="http://www.w3.org/2000/svg" xmlns:xlink="http://www.w3.org/1999/xlink" contentScriptType="application/ecmascript" contentStyleType="text/css" height="772px" preserveAspectRatio="none" style="width:393px;height:772px;" version="1.1" viewBox="0 0 393 772" width="393px" zoomAndPan="magnify"><defs><filter height="300%" id="fepv48tudg0co" width="300%" x="-1" y="-1"><feGaussianBlur result="blurOut" stdDeviation="2.0"/><feColorMatrix in="blurOut" result="blurOut2" type="matrix" values="0 0 0 0 0 0 0 0 0 0 0 0 0 0 0 0 0 0 .4 0"/><feOffset dx="4.0" dy="4.0" in="blurOut2" result="blurOut3"/><feBlend in="SourceGraphic" in2="blurOut3" mode="normal"/></filter></defs><g><!--class UpdatePharmacyUI--><rect fill="#FEFECE" filter="url(#fepv48tudg0co)" height="48" id="UpdatePharmacyUI" style="stroke: #A80036; stroke-width: 1.5;" width="139" x="107" y="8"/><ellipse cx="122" cy="24" fill="#ADD1B2" rx="11" ry="11" style="stroke: #A80036; stroke-width: 1.0;"/><path d="M124.7656,19.875 Q124.9219,19.6563 125.1094,19.5469 Q125.2969,19.4375 125.5156,19.4375 Q125.8906,19.4375 126.125,19.6953 Q126.3594,19.9531 126.3594,20.5625 L126.3594,22.0156 Q126.3594,22.625 126.125,22.8906 Q125.8906,23.1563 125.5156,23.1563 Q125.1719,23.1563 124.9688,22.9531 Q124.7656,22.7656 124.6563,22.25 Q124.6094,21.8906 124.4219,21.7031 Q124.0938,21.3281 123.4844,21.1094 Q122.875,20.8906 122.25,20.8906 Q121.4844,20.8906 120.8516,21.2188 Q120.2188,21.5469 119.7266,22.2969 Q119.2344,23.0469 119.2344,24.0781 L119.2344,25.1719 Q119.2344,26.4063 120.125,27.2266 Q121.0156,28.0469 122.6094,28.0469 Q123.5469,28.0469 124.2031,27.7969 Q124.5938,27.6406 125.0156,27.2031 Q125.2813,26.9375 125.4297,26.8594 Q125.5781,26.7813 125.7813,26.7813 Q126.1094,26.7813 126.3672,27.0391 Q126.625,27.2969 126.625,27.6406 Q126.625,27.9844 126.2813,28.3906 Q125.7813,28.9688 124.9844,29.2969 Q123.9063,29.75 122.6094,29.75 Q121.0938,29.75 119.8906,29.125 Q118.9063,28.625 118.2188,27.5547 Q117.5313,26.4844 117.5313,25.2031 L117.5313,24.0469 Q117.5313,22.7188 118.1484,21.5703 Q118.7656,20.4219 119.8594,19.8047 Q120.9531,19.1875 122.1875,19.1875 Q122.9219,19.1875 123.5703,19.3516 Q124.2188,19.5156 124.7656,19.875 Z "/><text fill="#000000" font-family="sans-serif" font-size="12" lengthAdjust="spacingAndGlyphs" textLength="107" x="136" y="28.9102">UpdatePharmacyUI</text><line style="stroke: #A80036; stroke-width: 1.5;" x1="108" x2="245" y1="40" y2="40"/><line style="stroke: #A80036; stroke-width: 1.5;" x1="108" x2="245" y1="48" y2="48"/><!--class UpdatePharmacyController--><rect fill="#FEFECE" filter="url(#fepv48tudg0co)" height="103.3438" id="UpdatePharmacyController" style="stroke: #A80036; stroke-width: 1.5;" width="198" x="77.5" y="117"/><ellipse cx="100.15" cy="133" fill="#ADD1B2" rx="11" ry="11" style="stroke: #A80036; stroke-width: 1.0;"/><path d="M102.9156,128.875 Q103.0719,128.6563 103.2594,128.5469 Q103.4469,128.4375 103.6656,128.4375 Q104.0406,128.4375 104.275,128.6953 Q104.5094,128.9531 104.5094,129.5625 L104.5094,131.0156 Q104.5094,131.625 104.275,131.8906 Q104.0406,132.1563 103.6656,132.1563 Q103.3219,132.1563 103.1188,131.9531 Q102.9156,131.7656 102.8063,131.25 Q102.7594,130.8906 102.5719,130.7031 Q102.2438,130.3281 101.6344,130.1094 Q101.025,129.8906 100.4,129.8906 Q99.6344,129.8906 99.0016,130.2188 Q98.3688,130.5469 97.8766,131.2969 Q97.3844,132.0469 97.3844,133.0781 L97.3844,134.1719 Q97.3844,135.4063 98.275,136.2266 Q99.1656,137.0469 100.7594,137.0469 Q101.6969,137.0469 102.3531,136.7969 Q102.7438,136.6406 103.1656,136.2031 Q103.4313,135.9375 103.5797,135.8594 Q103.7281,135.7813 103.9313,135.7813 Q104.2594,135.7813 104.5172,136.0391 Q104.775,136.2969 104.775,136.6406 Q104.775,136.9844 104.4313,137.3906 Q103.9313,137.9688 103.1344,138.2969 Q102.0563,138.75 100.7594,138.75 Q99.2438,138.75 98.0406,138.125 Q97.0563,137.625 96.3688,136.5547 Q95.6813,135.4844 95.6813,134.2031 L95.6813,133.0469 Q95.6813,131.7188 96.2984,130.5703 Q96.9156,129.4219 98.0094,128.8047 Q99.1031,128.1875 100.3375,128.1875 Q101.0719,128.1875 101.7203,128.3516 Q102.3688,128.5156 102.9156,128.875 Z "/><text fill="#000000" font-family="sans-serif" font-size="12" lengthAdjust="spacingAndGlyphs" textLength="149" x="115.85" y="137.9102">UpdatePharmacyController</text><line style="stroke: #A80036; stroke-width: 1.5;" x1="78.5" x2="274.5" y1="149" y2="149"/><line style="stroke: #A80036; stroke-width: 1.5;" x1="78.5" x2="274.5" y1="157" y2="157"/><text fill="#000000" font-family="sans-serif" font-size="11" lengthAdjust="spacingAndGlyphs" textLength="102" x="83.5" y="172.4189">+getPharmaciesList()</text><text fill="#000000" font-family="sans-serif" font-size="11" lengthAdjust="spacingAndGlyphs" textLength="186" x="83.5" y="186.2549">+getPharmacyByEmail(PharmacyEmail)</text><text fill="#000000" font-family="sans-serif" font-size="11" lengthAdjust="spacingAndGlyphs" textLength="139" x="83.5" y="200.0908">+changePharmacy(parkMax)</text><text fill="#000000" font-family="sans-serif" font-size="11" lengthAdjust="spacingAndGlyphs" textLength="95" x="83.5" y="213.9268">+updatePharmacy()</text><!--class PharmacyDB--><rect fill="#FEFECE" filter="url(#fepv48tudg0co)" height="89.5078" id="PharmacyDB" style="stroke: #A80036; stroke-width: 1.5;" width="161" x="6" y="281"/><ellipse cx="46.65" cy="297" fill="#ADD1B2" rx="11" ry="11" style="stroke: #A80036; stroke-width: 1.0;"/><path d="M49.4156,292.875 Q49.5719,292.6563 49.7594,292.5469 Q49.9469,292.4375 50.1656,292.4375 Q50.5406,292.4375 50.775,292.6953 Q51.0094,292.9531 51.0094,293.5625 L51.0094,295.0156 Q51.0094,295.625 50.775,295.8906 Q50.5406,296.1563 50.1656,296.1563 Q49.8219,296.1563 49.6188,295.9531 Q49.4156,295.7656 49.3063,295.25 Q49.2594,294.8906 49.0719,294.7031 Q48.7438,294.3281 48.1344,294.1094 Q47.525,293.8906 46.9,293.8906 Q46.1344,293.8906 45.5016,294.2188 Q44.8688,294.5469 44.3766,295.2969 Q43.8844,296.0469 43.8844,297.0781 L43.8844,298.1719 Q43.8844,299.4063 44.775,300.2266 Q45.6656,301.0469 47.2594,301.0469 Q48.1969,301.0469 48.8531,300.7969 Q49.2438,300.6406 49.6656,300.2031 Q49.9313,299.9375 50.0797,299.8594 Q50.2281,299.7813 50.4313,299.7813 Q50.7594,299.7813 51.0172,300.0391 Q51.275,300.2969 51.275,300.6406 Q51.275,300.9844 50.9313,301.3906 Q50.4313,301.9688 49.6344,302.2969 Q48.5563,302.75 47.2594,302.75 Q45.7438,302.75 44.5406,302.125 Q43.5563,301.625 42.8688,300.5547 Q42.1813,299.4844 42.1813,298.2031 L42.1813,297.0469 Q42.1813,295.7188 42.7984,294.5703 Q43.4156,293.4219 44.5094,292.8047 Q45.6031,292.1875 46.8375,292.1875 Q47.5719,292.1875 48.2203,292.3516 Q48.8688,292.5156 49.4156,292.875 Z "/><text fill="#000000" font-family="sans-serif" font-size="12" lengthAdjust="spacingAndGlyphs" textLength="72" x="66.35" y="301.9102">PharmacyDB</text><line style="stroke: #A80036; stroke-width: 1.5;" x1="7" x2="166" y1="313" y2="313"/><line style="stroke: #A80036; stroke-width: 1.5;" x1="7" x2="166" y1="321" y2="321"/><text fill="#000000" font-family="sans-serif" font-size="11" lengthAdjust="spacingAndGlyphs" textLength="97" x="12" y="336.4189">+getAllPharmacies()</text><text fill="#000000" font-family="sans-serif" font-size="11" lengthAdjust="spacingAndGlyphs" textLength="149" x="12" y="350.2549">+getPharmacy(PharmacyEmail)</text><text fill="#000000" font-family="sans-serif" font-size="11" lengthAdjust="spacingAndGlyphs" textLength="69" x="12" y="364.0908">+update(phar)</text><!--class Address--><rect fill="#FEFECE" filter="url(#fepv48tudg0co)" height="117.1797" id="Address" style="stroke: #A80036; stroke-width: 1.5;" width="131" x="155" y="644"/><ellipse cx="193.85" cy="660" fill="#ADD1B2" rx="11" ry="11" style="stroke: #A80036; stroke-width: 1.0;"/><path d="M196.6156,655.875 Q196.7719,655.6563 196.9594,655.5469 Q197.1469,655.4375 197.3656,655.4375 Q197.7406,655.4375 197.975,655.6953 Q198.2094,655.9531 198.2094,656.5625 L198.2094,658.0156 Q198.2094,658.625 197.975,658.8906 Q197.7406,659.1563 197.3656,659.1563 Q197.0219,659.1563 196.8188,658.9531 Q196.6156,658.7656 196.5063,658.25 Q196.4594,657.8906 196.2719,657.7031 Q195.9438,657.3281 195.3344,657.1094 Q194.725,656.8906 194.1,656.8906 Q193.3344,656.8906 192.7016,657.2188 Q192.0688,657.5469 191.5766,658.2969 Q191.0844,659.0469 191.0844,660.0781 L191.0844,661.1719 Q191.0844,662.4063 191.975,663.2266 Q192.8656,664.0469 194.4594,664.0469 Q195.3969,664.0469 196.0531,663.7969 Q196.4438,663.6406 196.8656,663.2031 Q197.1313,662.9375 197.2797,662.8594 Q197.4281,662.7813 197.6313,662.7813 Q197.9594,662.7813 198.2172,663.0391 Q198.475,663.2969 198.475,663.6406 Q198.475,663.9844 198.1313,664.3906 Q197.6313,664.9688 196.8344,665.2969 Q195.7563,665.75 194.4594,665.75 Q192.9438,665.75 191.7406,665.125 Q190.7563,664.625 190.0688,663.5547 Q189.3813,662.4844 189.3813,661.2031 L189.3813,660.0469 Q189.3813,658.7188 189.9984,657.5703 Q190.6156,656.4219 191.7094,655.8047 Q192.8031,655.1875 194.0375,655.1875 Q194.7719,655.1875 195.4203,655.3516 Q196.0688,655.5156 196.6156,655.875 Z "/><text fill="#000000" font-family="sans-serif" font-size="12" lengthAdjust="spacingAndGlyphs" textLength="46" x="213.15" y="664.9102">Address</text><line style="stroke: #A80036; stroke-width: 1.5;" x1="156" x2="285" y1="676" y2="676"/><text fill="#000000" font-family="sans-serif" font-size="11" lengthAdjust="spacingAndGlyphs" textLength="63" x="161" y="691.4189">-String street</text><text fill="#000000" font-family="sans-serif" font-size="11" lengthAdjust="spacingAndGlyphs" textLength="89" x="161" y="705.2549">-String postalCode</text><text fill="#000000" font-family="sans-serif" font-size="11" lengthAdjust="spacingAndGlyphs" textLength="76" x="161" y="719.0908">-Double number</text><text fill="#000000" font-family="sans-serif" font-size="11" lengthAdjust="spacingAndGlyphs" textLength="73" x="161" y="732.9268">-Double locality</text><text fill="#000000" font-family="sans-serif" font-size="11" lengthAdjust="spacingAndGlyphs" textLength="119" x="161" y="746.7627">-Double GPSCoordinates</text><line style="stroke: #A80036; stroke-width: 1.5;" x1="156" x2="285" y1="753.1797" y2="753.1797"/><!--class Pharmacy--><rect fill="#FEFECE" filter="url(#fepv48tudg0co)" height="117.1797" id="Pharmacy" style="stroke: #A80036; stroke-width: 1.5;" width="123" x="159" y="449"/><ellipse cx="190.2" cy="465" fill="#ADD1B2" rx="11" ry="11" style="stroke: #A80036; stroke-width: 1.0;"/><path d="M192.9656,460.875 Q193.1219,460.6563 193.3094,460.5469 Q193.4969,460.4375 193.7156,460.4375 Q194.0906,460.4375 194.325,460.6953 Q194.5594,460.9531 194.5594,461.5625 L194.5594,463.0156 Q194.5594,463.625 194.325,463.8906 Q194.0906,464.1563 193.7156,464.1563 Q193.3719,464.1563 193.1688,463.9531 Q192.9656,463.7656 192.8563,463.25 Q192.8094,462.8906 192.6219,462.7031 Q192.2938,462.3281 191.6844,462.1094 Q191.075,461.8906 190.45,461.8906 Q189.6844,461.8906 189.0516,462.2188 Q188.4188,462.5469 187.9266,463.2969 Q187.4344,464.0469 187.4344,465.0781 L187.4344,466.1719 Q187.4344,467.4063 188.325,468.2266 Q189.2156,469.0469 190.8094,469.0469 Q191.7469,469.0469 192.4031,468.7969 Q192.7938,468.6406 193.2156,468.2031 Q193.4813,467.9375 193.6297,467.8594 Q193.7781,467.7813 193.9813,467.7813 Q194.3094,467.7813 194.5672,468.0391 Q194.825,468.2969 194.825,468.6406 Q194.825,468.9844 194.4813,469.3906 Q193.9813,469.9688 193.1844,470.2969 Q192.1063,470.75 190.8094,470.75 Q189.2938,470.75 188.0906,470.125 Q187.1063,469.625 186.4188,468.5547 Q185.7313,467.4844 185.7313,466.2031 L185.7313,465.0469 Q185.7313,463.7188 186.3484,462.5703 Q186.9656,461.4219 188.0594,460.8047 Q189.1531,460.1875 190.3875,460.1875 Q191.1219,460.1875 191.7703,460.3516 Q192.4188,460.5156 192.9656,460.875 Z "/><text fill="#000000" font-family="sans-serif" font-size="12" lengthAdjust="spacingAndGlyphs" textLength="55" x="207.8" y="469.9102">Pharmacy</text><line style="stroke: #A80036; stroke-width: 1.5;" x1="160" x2="281" y1="481" y2="481"/><text fill="#000000" font-family="sans-serif" font-size="11" lengthAdjust="spacingAndGlyphs" textLength="90" x="165" y="496.4189">-String designation</text><text fill="#000000" font-family="sans-serif" font-size="11" lengthAdjust="spacingAndGlyphs" textLength="59" x="165" y="510.2549">-String email</text><text fill="#000000" font-family="sans-serif" font-size="11" lengthAdjust="spacingAndGlyphs" textLength="81" x="165" y="524.0908">-Integer parkMax</text><line style="stroke: #A80036; stroke-width: 1.5;" x1="160" x2="281" y1="530.5078" y2="530.5078"/><text fill="#000000" font-family="sans-serif" font-size="11" lengthAdjust="spacingAndGlyphs" textLength="111" x="165" y="545.9268">+setParkMax(parkMax)</text><text fill="#000000" font-family="sans-serif" font-size="11" lengthAdjust="spacingAndGlyphs" textLength="47" x="165" y="559.7627">+update()</text><!--class Administrator--><rect fill="#FEFECE" filter="url(#fepv48tudg0co)" height="75.6719" id="Administrator" style="stroke: #A80036; stroke-width: 1.5;" width="105" x="274" y="288"/><ellipse cx="289" cy="304" fill="#ADD1B2" rx="11" ry="11" style="stroke: #A80036; stroke-width: 1.0;"/><path d="M291.7656,299.875 Q291.9219,299.6563 292.1094,299.5469 Q292.2969,299.4375 292.5156,299.4375 Q292.8906,299.4375 293.125,299.6953 Q293.3594,299.9531 293.3594,300.5625 L293.3594,302.0156 Q293.3594,302.625 293.125,302.8906 Q292.8906,303.1563 292.5156,303.1563 Q292.1719,303.1563 291.9688,302.9531 Q291.7656,302.7656 291.6563,302.25 Q291.6094,301.8906 291.4219,301.7031 Q291.0938,301.3281 290.4844,301.1094 Q289.875,300.8906 289.25,300.8906 Q288.4844,300.8906 287.8516,301.2188 Q287.2188,301.5469 286.7266,302.2969 Q286.2344,303.0469 286.2344,304.0781 L286.2344,305.1719 Q286.2344,306.4063 287.125,307.2266 Q288.0156,308.0469 289.6094,308.0469 Q290.5469,308.0469 291.2031,307.7969 Q291.5938,307.6406 292.0156,307.2031 Q292.2813,306.9375 292.4297,306.8594 Q292.5781,306.7813 292.7813,306.7813 Q293.1094,306.7813 293.3672,307.0391 Q293.625,307.2969 293.625,307.6406 Q293.625,307.9844 293.2813,308.3906 Q292.7813,308.9688 291.9844,309.2969 Q290.9063,309.75 289.6094,309.75 Q288.0938,309.75 286.8906,309.125 Q285.9063,308.625 285.2188,307.5547 Q284.5313,306.4844 284.5313,305.2031 L284.5313,304.0469 Q284.5313,302.7188 285.1484,301.5703 Q285.7656,300.4219 286.8594,299.8047 Q287.9531,299.1875 289.1875,299.1875 Q289.9219,299.1875 290.5703,299.3516 Q291.2188,299.5156 291.7656,299.875 Z "/><text fill="#000000" font-family="sans-serif" font-size="12" lengthAdjust="spacingAndGlyphs" textLength="73" x="303" y="308.9102">Administrator</text><line style="stroke: #A80036; stroke-width: 1.5;" x1="275" x2="378" y1="320" y2="320"/><text fill="#000000" font-family="sans-serif" font-size="11" lengthAdjust="spacingAndGlyphs" textLength="61" x="280" y="335.4189">-String name</text><text fill="#000000" font-family="sans-serif" font-size="11" lengthAdjust="spacingAndGlyphs" textLength="59" x="280" y="349.2549">-String email</text><line style="stroke: #A80036; stroke-width: 1.5;" x1="275" x2="378" y1="355.6719" y2="355.6719"/><!--link UpdatePharmacyUI to UpdatePharmacyController--><path d="M176.5,56.121 C176.5,71.363 176.5,92.018 176.5,111.402 " fill="none" id="UpdatePharmacyUI-UpdatePharmacyController" style="stroke: #A80036; stroke-width: 1.0; stroke-dasharray: 7.0,7.0;"/><polygon fill="#A80036" points="176.5,116.83,180.5,107.83,176.5,111.83,172.5,107.83,176.5,116.83" style="stroke: #A80036; stroke-width: 1.0;"/><!--link UpdatePharmacyController to Pharmacy--><path d="M183.135,220.317 C190.938,280.082 203.892,379.3 212.313,443.793 " fill="none" id="UpdatePharmacyController-Pharmacy" style="stroke: #A80036; stroke-width: 1.0; stroke-dasharray: 7.0,7.0;"/><polygon fill="#A80036" points="212.961,448.762,215.7623,439.3199,212.3138,443.8041,207.8296,440.3555,212.961,448.762" style="stroke: #A80036; stroke-width: 1.0;"/><!--link UpdatePharmacyController to PharmacyDB--><path d="M147.031,220.417 C136.633,238.381 124.975,258.523 114.687,276.299 " fill="none" id="UpdatePharmacyController-PharmacyDB" style="stroke: #A80036; stroke-width: 1.0; stroke-dasharray: 7.0,7.0;"/><polygon fill="#A80036" points="112.102,280.765,120.0713,274.9779,114.6059,276.4371,113.1467,270.9717,112.102,280.765" style="stroke: #A80036; stroke-width: 1.0;"/><!--link Administrator to Pharmacy--><path d="M304.537,364.193 C290.894,387.296 273.014,417.573 257.255,444.259 " fill="none" id="Administrator-Pharmacy" style="stroke: #A80036; stroke-width: 1.0;"/><polygon fill="#A80036" points="254.543,448.852,262.5639,443.1366,257.0856,444.5467,255.6755,439.0685,254.543,448.852" style="stroke: #A80036; stroke-width: 1.0;"/><text fill="#000000" font-family="sans-serif" font-size="13" lengthAdjust="spacingAndGlyphs" textLength="100" x="281.5" y="415.4951">creates/manages</text><text fill="#000000" font-family="sans-serif" font-size="13" lengthAdjust="spacingAndGlyphs" textLength="7" x="293.4788" y="385.1043">1</text><text fill="#000000" font-family="sans-serif" font-size="13" lengthAdjust="spacingAndGlyphs" textLength="7" x="251.2654" y="438.2349">1</text><!--link PharmacyDB to Pharmacy--><path d="M119.624,371.371 C136.108,393.453 156.305,420.508 174.286,444.593 " fill="none" id="PharmacyDB-Pharmacy" style="stroke: #A80036; stroke-width: 1.0;"/><polygon fill="#A80036" points="177.383,448.742,175.2066,439.1366,174.3928,444.7346,168.7948,443.9209,177.383,448.742" style="stroke: #A80036; stroke-width: 1.0;"/><text fill="#000000" font-family="sans-serif" font-size="13" lengthAdjust="spacingAndGlyphs" textLength="33" x="154.5" y="415.4951">saves</text><text fill="#000000" font-family="sans-serif" font-size="13" lengthAdjust="spacingAndGlyphs" textLength="7" x="116.6047" y="392.0945">1</text><text fill="#000000" font-family="sans-serif" font-size="13" lengthAdjust="spacingAndGlyphs" textLength="5" x="166.8234" y="438.1115">*</text><!--link Pharmacy to Address--><path d="M220.5,566.145 C220.5,588.967 220.5,615.269 220.5,638.583 " fill="none" id="Pharmacy-Address" style="stroke: #A80036; stroke-width: 1.0;"/><polygon fill="#A80036" points="220.5,643.819,224.5,634.819,220.5,638.819,216.5,634.819,220.5,643.819" style="stroke: #A80036; stroke-width: 1.0;"/><text fill="#000000" font-family="sans-serif" font-size="13" lengthAdjust="spacingAndGlyphs" textLength="21" x="221.5" y="610.4951">has</text><text fill="#000000" font-family="sans-serif" font-size="13" lengthAdjust="spacingAndGlyphs" textLength="7" x="213.0734" y="587.773">1</text><text fill="#000000" font-family="sans-serif" font-size="13" lengthAdjust="spacingAndGlyphs" textLength="7" x="213.0734" y="633.1978">1</text><!--
@startuml
skinparam classAttributeIconSize 0

class UpdatePharmacyUI {

}

class UpdatePharmacyController {

  +getPharmaciesList()
  +getPharmacyByEmail(PharmacyEmail)
  +changePharmacy(parkMax)
  +updatePharmacy()
}

class PharmacyDB {
  
  +getAllPharmacies()
  +getPharmacy(PharmacyEmail)
  +update(phar)
}

class Address {

  -String street
  -String postalCode
  -Double number
  -Double locality
  -Double GPSCoordinates
}

class Pharmacy {

  -String designation
  -String email
  -Integer parkMax

  +setParkMax(parkMax)
  +update()
}

class Administrator {

  -String name
  -String email
}

UpdatePharmacyUI ..> UpdatePharmacyController
UpdatePharmacyController ..> Pharmacy
UpdatePharmacyController ..> PharmacyDB

Administrator "1" - -> "1" Pharmacy : creates/manages

PharmacyDB "1" - -> "*" Pharmacy : saves

Pharmacy "1" - -> "1" Address : has



@enduml

PlantUML version 1.2018.14(Fri Dec 21 16:33:16 GMT 2018)
(GPL source distribution)
Java Runtime: Java(TM) SE Runtime Environment
JVM: Java HotSpot(TM) 64-Bit Server VM
Java Version: 1.8.0_221-b11
Operating System: Windows 10
OS Version: 10.0
Default Encoding: Cp1252
Language: pt
Country: PT
--></g></svg>