<?xml version="1.0" encoding="UTF-8" standalone="no"?><svg xmlns="http://www.w3.org/2000/svg" xmlns:xlink="http://www.w3.org/1999/xlink" contentScriptType="application/ecmascript" contentStyleType="text/css" height="238px" preserveAspectRatio="none" style="width:910px;height:238px;" version="1.1" viewBox="0 0 910 238" width="910px" zoomAndPan="magnify"><defs><filter height="300%" id="f3bxjq8pv06uc" width="300%" x="-1" y="-1"><feGaussianBlur result="blurOut" stdDeviation="2.0"/><feColorMatrix in="blurOut" result="blurOut2" type="matrix" values="0 0 0 0 0 0 0 0 0 0 0 0 0 0 0 0 0 0 .4 0"/><feOffset dx="4.0" dy="4.0" in="blurOut2" result="blurOut3"/><feBlend in="SourceGraphic" in2="blurOut3" mode="normal"/></filter></defs><g><!--class Platform--><rect fill="#FEFECE" filter="url(#f3bxjq8pv06uc)" height="53.8359" id="Platform" style="stroke: #A80036; stroke-width: 1.5;" width="112" x="6" y="87"/><ellipse cx="36.3" cy="103" fill="#ADD1B2" rx="11" ry="11" style="stroke: #A80036; stroke-width: 1.0;"/><path d="M39.0656,98.875 Q39.2219,98.6563 39.4094,98.5469 Q39.5969,98.4375 39.8156,98.4375 Q40.1906,98.4375 40.425,98.6953 Q40.6594,98.9531 40.6594,99.5625 L40.6594,101.0156 Q40.6594,101.625 40.425,101.8906 Q40.1906,102.1563 39.8156,102.1563 Q39.4719,102.1563 39.2688,101.9531 Q39.0656,101.7656 38.9563,101.25 Q38.9094,100.8906 38.7219,100.7031 Q38.3938,100.3281 37.7844,100.1094 Q37.175,99.8906 36.55,99.8906 Q35.7844,99.8906 35.1516,100.2188 Q34.5188,100.5469 34.0266,101.2969 Q33.5344,102.0469 33.5344,103.0781 L33.5344,104.1719 Q33.5344,105.4063 34.425,106.2266 Q35.3156,107.0469 36.9094,107.0469 Q37.8469,107.0469 38.5031,106.7969 Q38.8938,106.6406 39.3156,106.2031 Q39.5813,105.9375 39.7297,105.8594 Q39.8781,105.7813 40.0813,105.7813 Q40.4094,105.7813 40.6672,106.0391 Q40.925,106.2969 40.925,106.6406 Q40.925,106.9844 40.5813,107.3906 Q40.0813,107.9688 39.2844,108.2969 Q38.2063,108.75 36.9094,108.75 Q35.3938,108.75 34.1906,108.125 Q33.2063,107.625 32.5188,106.5547 Q31.8313,105.4844 31.8313,104.2031 L31.8313,103.0469 Q31.8313,101.7188 32.4484,100.5703 Q33.0656,99.4219 34.1594,98.8047 Q35.2531,98.1875 36.4875,98.1875 Q37.2219,98.1875 37.8703,98.3516 Q38.5188,98.5156 39.0656,98.875 Z "/><text fill="#000000" font-family="sans-serif" font-size="12" lengthAdjust="spacingAndGlyphs" textLength="46" x="53.7" y="107.9102">Platform</text><line style="stroke: #A80036; stroke-width: 1.5;" x1="7" x2="117" y1="119" y2="119"/><rect fill="none" height="6" style="stroke: #C82930; stroke-width: 1.0;" width="6" x="14" y="128.418"/><text fill="#000000" font-family="sans-serif" font-size="11" lengthAdjust="spacingAndGlyphs" textLength="86" x="26" y="134.4189">String designation</text><!--class Pharmacy--><rect fill="#FEFECE" filter="url(#f3bxjq8pv06uc)" height="81.5078" id="Pharmacy" style="stroke: #A80036; stroke-width: 1.5;" width="112" x="555" y="22"/><ellipse cx="581.25" cy="38" fill="#ADD1B2" rx="11" ry="11" style="stroke: #A80036; stroke-width: 1.0;"/><path d="M584.0156,33.875 Q584.1719,33.6563 584.3594,33.5469 Q584.5469,33.4375 584.7656,33.4375 Q585.1406,33.4375 585.375,33.6953 Q585.6094,33.9531 585.6094,34.5625 L585.6094,36.0156 Q585.6094,36.625 585.375,36.8906 Q585.1406,37.1563 584.7656,37.1563 Q584.4219,37.1563 584.2188,36.9531 Q584.0156,36.7656 583.9063,36.25 Q583.8594,35.8906 583.6719,35.7031 Q583.3438,35.3281 582.7344,35.1094 Q582.125,34.8906 581.5,34.8906 Q580.7344,34.8906 580.1016,35.2188 Q579.4688,35.5469 578.9766,36.2969 Q578.4844,37.0469 578.4844,38.0781 L578.4844,39.1719 Q578.4844,40.4063 579.375,41.2266 Q580.2656,42.0469 581.8594,42.0469 Q582.7969,42.0469 583.4531,41.7969 Q583.8438,41.6406 584.2656,41.2031 Q584.5313,40.9375 584.6797,40.8594 Q584.8281,40.7813 585.0313,40.7813 Q585.3594,40.7813 585.6172,41.0391 Q585.875,41.2969 585.875,41.6406 Q585.875,41.9844 585.5313,42.3906 Q585.0313,42.9688 584.2344,43.2969 Q583.1563,43.75 581.8594,43.75 Q580.3438,43.75 579.1406,43.125 Q578.1563,42.625 577.4688,41.5547 Q576.7813,40.4844 576.7813,39.2031 L576.7813,38.0469 Q576.7813,36.7188 577.3984,35.5703 Q578.0156,34.4219 579.1094,33.8047 Q580.2031,33.1875 581.4375,33.1875 Q582.1719,33.1875 582.8203,33.3516 Q583.4688,33.5156 584.0156,33.875 Z "/><text fill="#000000" font-family="sans-serif" font-size="12" lengthAdjust="spacingAndGlyphs" textLength="55" x="597.75" y="42.9102">Pharmacy</text><line style="stroke: #A80036; stroke-width: 1.5;" x1="556" x2="666" y1="54" y2="54"/><rect fill="none" height="6" style="stroke: #C82930; stroke-width: 1.0;" width="6" x="563" y="63.418"/><text fill="#000000" font-family="sans-serif" font-size="11" lengthAdjust="spacingAndGlyphs" textLength="86" x="575" y="69.4189">String designation</text><rect fill="none" height="6" style="stroke: #C82930; stroke-width: 1.0;" width="6" x="563" y="77.2539"/><text fill="#000000" font-family="sans-serif" font-size="11" lengthAdjust="spacingAndGlyphs" textLength="55" x="575" y="83.2549">String email</text><rect fill="none" height="6" style="stroke: #C82930; stroke-width: 1.0;" width="6" x="563" y="91.0898"/><text fill="#000000" font-family="sans-serif" font-size="11" lengthAdjust="spacingAndGlyphs" textLength="77" x="575" y="97.0908">Integer parkMax</text><!--class Address--><rect fill="#FEFECE" filter="url(#f3bxjq8pv06uc)" height="109.1797" id="Address" style="stroke: #A80036; stroke-width: 1.5;" width="136" x="763" y="8.5"/><ellipse cx="804.1" cy="24.5" fill="#ADD1B2" rx="11" ry="11" style="stroke: #A80036; stroke-width: 1.0;"/><path d="M806.8656,20.375 Q807.0219,20.1563 807.2094,20.0469 Q807.3969,19.9375 807.6156,19.9375 Q807.9906,19.9375 808.225,20.1953 Q808.4594,20.4531 808.4594,21.0625 L808.4594,22.5156 Q808.4594,23.125 808.225,23.3906 Q807.9906,23.6563 807.6156,23.6563 Q807.2719,23.6563 807.0688,23.4531 Q806.8656,23.2656 806.7563,22.75 Q806.7094,22.3906 806.5219,22.2031 Q806.1938,21.8281 805.5844,21.6094 Q804.975,21.3906 804.35,21.3906 Q803.5844,21.3906 802.9516,21.7188 Q802.3188,22.0469 801.8266,22.7969 Q801.3344,23.5469 801.3344,24.5781 L801.3344,25.6719 Q801.3344,26.9063 802.225,27.7266 Q803.1156,28.5469 804.7094,28.5469 Q805.6469,28.5469 806.3031,28.2969 Q806.6938,28.1406 807.1156,27.7031 Q807.3813,27.4375 807.5297,27.3594 Q807.6781,27.2813 807.8813,27.2813 Q808.2094,27.2813 808.4672,27.5391 Q808.725,27.7969 808.725,28.1406 Q808.725,28.4844 808.3813,28.8906 Q807.8813,29.4688 807.0844,29.7969 Q806.0063,30.25 804.7094,30.25 Q803.1938,30.25 801.9906,29.625 Q801.0063,29.125 800.3188,28.0547 Q799.6313,26.9844 799.6313,25.7031 L799.6313,24.5469 Q799.6313,23.2188 800.2484,22.0703 Q800.8656,20.9219 801.9594,20.3047 Q803.0531,19.6875 804.2875,19.6875 Q805.0219,19.6875 805.6703,19.8516 Q806.3188,20.0156 806.8656,20.375 Z "/><text fill="#000000" font-family="sans-serif" font-size="12" lengthAdjust="spacingAndGlyphs" textLength="46" x="823.9" y="29.4102">Address</text><line style="stroke: #A80036; stroke-width: 1.5;" x1="764" x2="898" y1="40.5" y2="40.5"/><rect fill="none" height="6" style="stroke: #C82930; stroke-width: 1.0;" width="6" x="771" y="49.918"/><text fill="#000000" font-family="sans-serif" font-size="11" lengthAdjust="spacingAndGlyphs" textLength="59" x="783" y="55.9189">String street</text><rect fill="none" height="6" style="stroke: #C82930; stroke-width: 1.0;" width="6" x="771" y="63.7539"/><text fill="#000000" font-family="sans-serif" font-size="11" lengthAdjust="spacingAndGlyphs" textLength="85" x="783" y="69.7549">String postalCode</text><rect fill="none" height="6" style="stroke: #C82930; stroke-width: 1.0;" width="6" x="771" y="77.5898"/><text fill="#000000" font-family="sans-serif" font-size="11" lengthAdjust="spacingAndGlyphs" textLength="72" x="783" y="83.5908">Integer number</text><rect fill="none" height="6" style="stroke: #C82930; stroke-width: 1.0;" width="6" x="771" y="91.4258"/><text fill="#000000" font-family="sans-serif" font-size="11" lengthAdjust="spacingAndGlyphs" textLength="64" x="783" y="97.4268">String locality</text><rect fill="none" height="6" style="stroke: #C82930; stroke-width: 1.0;" width="6" x="771" y="105.2617"/><text fill="#000000" font-family="sans-serif" font-size="11" lengthAdjust="spacingAndGlyphs" textLength="110" x="783" y="111.2627">String GPSCoordinates</text><!--class User--><rect fill="#FEFECE" filter="url(#f3bxjq8pv06uc)" height="81.5078" id="User" style="stroke: #A80036; stroke-width: 1.5;" width="107" x="557.5" y="146"/><ellipse cx="594.1" cy="162" fill="#ADD1B2" rx="11" ry="11" style="stroke: #A80036; stroke-width: 1.0;"/><path d="M596.8656,157.875 Q597.0219,157.6563 597.2094,157.5469 Q597.3969,157.4375 597.6156,157.4375 Q597.9906,157.4375 598.225,157.6953 Q598.4594,157.9531 598.4594,158.5625 L598.4594,160.0156 Q598.4594,160.625 598.225,160.8906 Q597.9906,161.1563 597.6156,161.1563 Q597.2719,161.1563 597.0688,160.9531 Q596.8656,160.7656 596.7563,160.25 Q596.7094,159.8906 596.5219,159.7031 Q596.1938,159.3281 595.5844,159.1094 Q594.975,158.8906 594.35,158.8906 Q593.5844,158.8906 592.9516,159.2188 Q592.3188,159.5469 591.8266,160.2969 Q591.3344,161.0469 591.3344,162.0781 L591.3344,163.1719 Q591.3344,164.4063 592.225,165.2266 Q593.1156,166.0469 594.7094,166.0469 Q595.6469,166.0469 596.3031,165.7969 Q596.6938,165.6406 597.1156,165.2031 Q597.3813,164.9375 597.5297,164.8594 Q597.6781,164.7813 597.8813,164.7813 Q598.2094,164.7813 598.4672,165.0391 Q598.725,165.2969 598.725,165.6406 Q598.725,165.9844 598.3813,166.3906 Q597.8813,166.9688 597.0844,167.2969 Q596.0063,167.75 594.7094,167.75 Q593.1938,167.75 591.9906,167.125 Q591.0063,166.625 590.3188,165.5547 Q589.6313,164.4844 589.6313,163.2031 L589.6313,162.0469 Q589.6313,160.7188 590.2484,159.5703 Q590.8656,158.4219 591.9594,157.8047 Q593.0531,157.1875 594.2875,157.1875 Q595.0219,157.1875 595.6703,157.3516 Q596.3188,157.5156 596.8656,157.875 Z "/><text fill="#000000" font-family="sans-serif" font-size="12" lengthAdjust="spacingAndGlyphs" textLength="27" x="612.9" y="166.9102">User</text><line style="stroke: #A80036; stroke-width: 1.5;" x1="558.5" x2="663.5" y1="178" y2="178"/><rect fill="none" height="6" style="stroke: #C82930; stroke-width: 1.0;" width="6" x="565.5" y="187.418"/><text fill="#000000" font-family="sans-serif" font-size="11" lengthAdjust="spacingAndGlyphs" textLength="57" x="577.5" y="193.4189">String name</text><rect fill="none" height="6" style="stroke: #C82930; stroke-width: 1.0;" width="6" x="565.5" y="201.2539"/><text fill="#000000" font-family="sans-serif" font-size="11" lengthAdjust="spacingAndGlyphs" textLength="55" x="577.5" y="207.2549">String email</text><rect fill="none" height="6" style="stroke: #C82930; stroke-width: 1.0;" width="6" x="565.5" y="215.0898"/><text fill="#000000" font-family="sans-serif" font-size="11" lengthAdjust="spacingAndGlyphs" textLength="81" x="577.5" y="221.0908">String password</text><!--class Administrator--><rect fill="#FEFECE" filter="url(#f3bxjq8pv06uc)" height="67.6719" id="Administrator" style="stroke: #A80036; stroke-width: 1.5;" width="105" x="275" y="80"/><ellipse cx="290" cy="96" fill="#ADD1B2" rx="11" ry="11" style="stroke: #A80036; stroke-width: 1.0;"/><path d="M292.7656,91.875 Q292.9219,91.6563 293.1094,91.5469 Q293.2969,91.4375 293.5156,91.4375 Q293.8906,91.4375 294.125,91.6953 Q294.3594,91.9531 294.3594,92.5625 L294.3594,94.0156 Q294.3594,94.625 294.125,94.8906 Q293.8906,95.1563 293.5156,95.1563 Q293.1719,95.1563 292.9688,94.9531 Q292.7656,94.7656 292.6563,94.25 Q292.6094,93.8906 292.4219,93.7031 Q292.0938,93.3281 291.4844,93.1094 Q290.875,92.8906 290.25,92.8906 Q289.4844,92.8906 288.8516,93.2188 Q288.2188,93.5469 287.7266,94.2969 Q287.2344,95.0469 287.2344,96.0781 L287.2344,97.1719 Q287.2344,98.4063 288.125,99.2266 Q289.0156,100.0469 290.6094,100.0469 Q291.5469,100.0469 292.2031,99.7969 Q292.5938,99.6406 293.0156,99.2031 Q293.2813,98.9375 293.4297,98.8594 Q293.5781,98.7813 293.7813,98.7813 Q294.1094,98.7813 294.3672,99.0391 Q294.625,99.2969 294.625,99.6406 Q294.625,99.9844 294.2813,100.3906 Q293.7813,100.9688 292.9844,101.2969 Q291.9063,101.75 290.6094,101.75 Q289.0938,101.75 287.8906,101.125 Q286.9063,100.625 286.2188,99.5547 Q285.5313,98.4844 285.5313,97.2031 L285.5313,96.0469 Q285.5313,94.7188 286.1484,93.5703 Q286.7656,92.4219 287.8594,91.8047 Q288.9531,91.1875 290.1875,91.1875 Q290.9219,91.1875 291.5703,91.3516 Q292.2188,91.5156 292.7656,91.875 Z "/><text fill="#000000" font-family="sans-serif" font-size="12" lengthAdjust="spacingAndGlyphs" textLength="73" x="304" y="100.9102">Administrator</text><line style="stroke: #A80036; stroke-width: 1.5;" x1="276" x2="379" y1="112" y2="112"/><rect fill="none" height="6" style="stroke: #C82930; stroke-width: 1.0;" width="6" x="283" y="121.418"/><text fill="#000000" font-family="sans-serif" font-size="11" lengthAdjust="spacingAndGlyphs" textLength="57" x="295" y="127.4189">String name</text><rect fill="none" height="6" style="stroke: #C82930; stroke-width: 1.0;" width="6" x="283" y="135.2539"/><text fill="#000000" font-family="sans-serif" font-size="11" lengthAdjust="spacingAndGlyphs" textLength="55" x="295" y="141.2549">String email</text><!--link Platform to Pharmacy--><path d="M118.095,96.25 C128.002,93.315 138.27,90.439 148,88 C311.226,47.085 357.012,43.152 525,53 C534.642,53.565 544.867,54.488 554.758,55.551 " fill="none" id="Platform-Pharmacy" style="stroke: #A80036; stroke-width: 1.0;"/><text fill="#000000" font-family="sans-serif" font-size="13" lengthAdjust="spacingAndGlyphs" textLength="82" x="280" y="45.4951">has registered</text><polygon fill="#000000" points="365,38.6758,371,41.6758,365,44.6758,365,38.6758" style="stroke: #000000; stroke-width: 1.0;"/><text fill="#000000" font-family="sans-serif" font-size="13" lengthAdjust="spacingAndGlyphs" textLength="7" x="126.1031" y="108.4696">1</text><text fill="#000000" font-family="sans-serif" font-size="13" lengthAdjust="spacingAndGlyphs" textLength="7" x="540.1036" y="69.1708">1</text><!--link Platform to Administrator--><path d="M118.238,114 C164.417,114 229.787,114 274.915,114 " fill="none" id="Platform-Administrator" style="stroke: #A80036; stroke-width: 1.0;"/><text fill="#000000" font-family="sans-serif" font-size="13" lengthAdjust="spacingAndGlyphs" textLength="82" x="149" y="110.4951">has registered</text><polygon fill="#000000" points="234,103.6758,240,106.6758,234,109.6758,234,103.6758" style="stroke: #000000; stroke-width: 1.0;"/><text fill="#000000" font-family="sans-serif" font-size="13" lengthAdjust="spacingAndGlyphs" textLength="7" x="125.8919" y="128.5531">1</text><text fill="#000000" font-family="sans-serif" font-size="13" lengthAdjust="spacingAndGlyphs" textLength="7" x="260.028" y="128.6679">1</text><!--link Platform to User--><path d="M118.048,137.4146 C160.157,154.0269 220.125,174.9225 275,184 C373.697,200.3266 490.995,196.0686 557.344,191.5164 " fill="none" id="Platform-User" style="stroke: #A80036; stroke-width: 1.0;"/><text fill="#000000" font-family="sans-serif" font-size="13" lengthAdjust="spacingAndGlyphs" textLength="82" x="280" y="180.4951">has registered</text><polygon fill="#000000" points="365,173.6758,371,176.6758,365,179.6758,365,173.6758" style="stroke: #000000; stroke-width: 1.0;"/><text fill="#000000" font-family="sans-serif" font-size="13" lengthAdjust="spacingAndGlyphs" textLength="7" x="126.0498" y="155.1657">1</text><text fill="#000000" font-family="sans-serif" font-size="13" lengthAdjust="spacingAndGlyphs" textLength="5" x="544.4471" y="206.831">*</text><!--link Pharmacy to Address--><path d="M667.011,63 C696.148,63 732.17,63 762.935,63 " fill="none" id="Pharmacy-Address" style="stroke: #A80036; stroke-width: 1.0;"/><text fill="#000000" font-family="sans-serif" font-size="13" lengthAdjust="spacingAndGlyphs" textLength="21" x="698" y="59.4951">has</text><polygon fill="#000000" points="722,52.6758,728,55.6758,722,58.6758,722,52.6758" style="stroke: #000000; stroke-width: 1.0;"/><text fill="#000000" font-family="sans-serif" font-size="13" lengthAdjust="spacingAndGlyphs" textLength="7" x="675.0078" y="77.6268">1</text><text fill="#000000" font-family="sans-serif" font-size="13" lengthAdjust="spacingAndGlyphs" textLength="7" x="748.1076" y="77.3795">1</text><!--link Administrator to User--><path d="M380.131,127.389 C430.447,140.4374 506.574,160.1791 557.264,173.3241 " fill="none" id="Administrator-User" style="stroke: #A80036; stroke-width: 1.0;"/><text fill="#000000" font-family="sans-serif" font-size="13" lengthAdjust="spacingAndGlyphs" textLength="43" x="439.5" y="131.4951">acts as</text><polygon fill="#000000" points="485.5,124.6758,491.5,127.6758,485.5,130.6758,485.5,124.6758" style="stroke: #000000; stroke-width: 1.0;"/><text fill="#000000" font-family="sans-serif" font-size="13" lengthAdjust="spacingAndGlyphs" textLength="22" x="387.886" y="143.5323">0..1</text><text fill="#000000" font-family="sans-serif" font-size="13" lengthAdjust="spacingAndGlyphs" textLength="7" x="542.5729" y="186.1132">1</text><!--link Administrator to Pharmacy--><path d="M380.131,104.646 C429.653,95.674 504.179,82.172 554.846,72.992 " fill="none" id="Administrator-Pharmacy" style="stroke: #A80036; stroke-width: 1.0;"/><text fill="#000000" font-family="sans-serif" font-size="13" lengthAdjust="spacingAndGlyphs" textLength="100" x="411" y="75.4951">creates/manages</text><polygon fill="#000000" points="514,68.6758,520,71.6758,514,74.6758,514,68.6758" style="stroke: #000000; stroke-width: 1.0;"/><text fill="#000000" font-family="sans-serif" font-size="13" lengthAdjust="spacingAndGlyphs" textLength="7" x="388.0244" y="117.9985">1</text><text fill="#000000" font-family="sans-serif" font-size="13" lengthAdjust="spacingAndGlyphs" textLength="7" x="539.83" y="88.9615">1</text><!--
@startuml

hide methods
left to right direction

class Platform {
  -String designation
}

class Pharmacy {
  -String designation
  -String email
  -Integer parkMax
}

class Address {
  -String street
  -String postalCode
  -Integer number
  -String locality
  -String GPSCoordinates
}

class User {
  -String name
  -String email
  -String password
}

class Administrator {
  -String name
  -String email
}

Platform "1" - - "1" Pharmacy : has registered >
Platform "1" - - "1" Administrator : has registered >
Platform "1" - - "*" User : has registered >

Pharmacy "1" - - "1" Address : has >

Administrator "0..1" - - "1" User : acts as >
Administrator "1" - - "1" Pharmacy : creates/manages >


@enduml

PlantUML version 1.2018.14(Fri Dec 21 16:33:16 GMT 2018)
(GPL source distribution)
Java Runtime: Java(TM) SE Runtime Environment
JVM: Java HotSpot(TM) 64-Bit Server VM
Java Version: 1.8.0_221-b11
Operating System: Windows 10
OS Version: 10.0
Default Encoding: Cp1252
Language: pt
Country: PT
--></g></svg>