<?xml version="1.0" encoding="UTF-8" standalone="no"?><svg xmlns="http://www.w3.org/2000/svg" xmlns:xlink="http://www.w3.org/1999/xlink" contentScriptType="application/ecmascript" contentStyleType="text/css" height="1098px" preserveAspectRatio="none" style="width:511px;height:1098px;" version="1.1" viewBox="0 0 511 1098" width="511px" zoomAndPan="magnify"><defs><filter height="300%" id="f1uumttluev0bi" width="300%" x="-1" y="-1"><feGaussianBlur result="blurOut" stdDeviation="2.0"/><feColorMatrix in="blurOut" result="blurOut2" type="matrix" values="0 0 0 0 0 0 0 0 0 0 0 0 0 0 0 0 0 0 .4 0"/><feOffset dx="4.0" dy="4.0" in="blurOut2" result="blurOut3"/><feBlend in="SourceGraphic" in2="blurOut3" mode="normal"/></filter></defs><g><!--class PerformOrderUI--><rect fill="#FEFECE" filter="url(#f1uumttluev0bi)" height="48" id="PerformOrderUI" style="stroke: #A80036; stroke-width: 1.5;" width="119" x="99.5" y="8"/><ellipse cx="114.5" cy="24" fill="#ADD1B2" rx="11" ry="11" style="stroke: #A80036; stroke-width: 1.0;"/><path d="M117.2656,19.875 Q117.4219,19.6563 117.6094,19.5469 Q117.7969,19.4375 118.0156,19.4375 Q118.3906,19.4375 118.625,19.6953 Q118.8594,19.9531 118.8594,20.5625 L118.8594,22.0156 Q118.8594,22.625 118.625,22.8906 Q118.3906,23.1563 118.0156,23.1563 Q117.6719,23.1563 117.4688,22.9531 Q117.2656,22.7656 117.1563,22.25 Q117.1094,21.8906 116.9219,21.7031 Q116.5938,21.3281 115.9844,21.1094 Q115.375,20.8906 114.75,20.8906 Q113.9844,20.8906 113.3516,21.2188 Q112.7188,21.5469 112.2266,22.2969 Q111.7344,23.0469 111.7344,24.0781 L111.7344,25.1719 Q111.7344,26.4063 112.625,27.2266 Q113.5156,28.0469 115.1094,28.0469 Q116.0469,28.0469 116.7031,27.7969 Q117.0938,27.6406 117.5156,27.2031 Q117.7813,26.9375 117.9297,26.8594 Q118.0781,26.7813 118.2813,26.7813 Q118.6094,26.7813 118.8672,27.0391 Q119.125,27.2969 119.125,27.6406 Q119.125,27.9844 118.7813,28.3906 Q118.2813,28.9688 117.4844,29.2969 Q116.4063,29.75 115.1094,29.75 Q113.5938,29.75 112.3906,29.125 Q111.4063,28.625 110.7188,27.5547 Q110.0313,26.4844 110.0313,25.2031 L110.0313,24.0469 Q110.0313,22.7188 110.6484,21.5703 Q111.2656,20.4219 112.3594,19.8047 Q113.4531,19.1875 114.6875,19.1875 Q115.4219,19.1875 116.0703,19.3516 Q116.7188,19.5156 117.2656,19.875 Z "/><text fill="#000000" font-family="sans-serif" font-size="12" lengthAdjust="spacingAndGlyphs" textLength="87" x="128.5" y="28.9102">PerformOrderUI</text><line style="stroke: #A80036; stroke-width: 1.5;" x1="100.5" x2="217.5" y1="40" y2="40"/><line style="stroke: #A80036; stroke-width: 1.5;" x1="100.5" x2="217.5" y1="48" y2="48"/><!--class PerformOrderController--><rect fill="#FEFECE" filter="url(#f1uumttluev0bi)" height="48" id="PerformOrderController" style="stroke: #A80036; stroke-width: 1.5;" width="161" x="78.5" y="117"/><ellipse cx="93.5" cy="133" fill="#ADD1B2" rx="11" ry="11" style="stroke: #A80036; stroke-width: 1.0;"/><path d="M96.2656,128.875 Q96.4219,128.6563 96.6094,128.5469 Q96.7969,128.4375 97.0156,128.4375 Q97.3906,128.4375 97.625,128.6953 Q97.8594,128.9531 97.8594,129.5625 L97.8594,131.0156 Q97.8594,131.625 97.625,131.8906 Q97.3906,132.1563 97.0156,132.1563 Q96.6719,132.1563 96.4688,131.9531 Q96.2656,131.7656 96.1563,131.25 Q96.1094,130.8906 95.9219,130.7031 Q95.5938,130.3281 94.9844,130.1094 Q94.375,129.8906 93.75,129.8906 Q92.9844,129.8906 92.3516,130.2188 Q91.7188,130.5469 91.2266,131.2969 Q90.7344,132.0469 90.7344,133.0781 L90.7344,134.1719 Q90.7344,135.4063 91.625,136.2266 Q92.5156,137.0469 94.1094,137.0469 Q95.0469,137.0469 95.7031,136.7969 Q96.0938,136.6406 96.5156,136.2031 Q96.7813,135.9375 96.9297,135.8594 Q97.0781,135.7813 97.2813,135.7813 Q97.6094,135.7813 97.8672,136.0391 Q98.125,136.2969 98.125,136.6406 Q98.125,136.9844 97.7813,137.3906 Q97.2813,137.9688 96.4844,138.2969 Q95.4063,138.75 94.1094,138.75 Q92.5938,138.75 91.3906,138.125 Q90.4063,137.625 89.7188,136.5547 Q89.0313,135.4844 89.0313,134.2031 L89.0313,133.0469 Q89.0313,131.7188 89.6484,130.5703 Q90.2656,129.4219 91.3594,128.8047 Q92.4531,128.1875 93.6875,128.1875 Q94.4219,128.1875 95.0703,128.3516 Q95.7188,128.5156 96.2656,128.875 Z "/><text fill="#000000" font-family="sans-serif" font-size="12" lengthAdjust="spacingAndGlyphs" textLength="129" x="107.5" y="137.9102">PerformOrderController</text><line style="stroke: #A80036; stroke-width: 1.5;" x1="79.5" x2="238.5" y1="149" y2="149"/><line style="stroke: #A80036; stroke-width: 1.5;" x1="79.5" x2="238.5" y1="157" y2="157"/><!--class OrderDB--><rect fill="#FEFECE" filter="url(#f1uumttluev0bi)" height="48" id="OrderDB" style="stroke: #A80036; stroke-width: 1.5;" width="80" x="119" y="304"/><ellipse cx="134" cy="320" fill="#ADD1B2" rx="11" ry="11" style="stroke: #A80036; stroke-width: 1.0;"/><path d="M136.7656,315.875 Q136.9219,315.6563 137.1094,315.5469 Q137.2969,315.4375 137.5156,315.4375 Q137.8906,315.4375 138.125,315.6953 Q138.3594,315.9531 138.3594,316.5625 L138.3594,318.0156 Q138.3594,318.625 138.125,318.8906 Q137.8906,319.1563 137.5156,319.1563 Q137.1719,319.1563 136.9688,318.9531 Q136.7656,318.7656 136.6563,318.25 Q136.6094,317.8906 136.4219,317.7031 Q136.0938,317.3281 135.4844,317.1094 Q134.875,316.8906 134.25,316.8906 Q133.4844,316.8906 132.8516,317.2188 Q132.2188,317.5469 131.7266,318.2969 Q131.2344,319.0469 131.2344,320.0781 L131.2344,321.1719 Q131.2344,322.4063 132.125,323.2266 Q133.0156,324.0469 134.6094,324.0469 Q135.5469,324.0469 136.2031,323.7969 Q136.5938,323.6406 137.0156,323.2031 Q137.2813,322.9375 137.4297,322.8594 Q137.5781,322.7813 137.7813,322.7813 Q138.1094,322.7813 138.3672,323.0391 Q138.625,323.2969 138.625,323.6406 Q138.625,323.9844 138.2813,324.3906 Q137.7813,324.9688 136.9844,325.2969 Q135.9063,325.75 134.6094,325.75 Q133.0938,325.75 131.8906,325.125 Q130.9063,324.625 130.2188,323.5547 Q129.5313,322.4844 129.5313,321.2031 L129.5313,320.0469 Q129.5313,318.7188 130.1484,317.5703 Q130.7656,316.4219 131.8594,315.8047 Q132.9531,315.1875 134.1875,315.1875 Q134.9219,315.1875 135.5703,315.3516 Q136.2188,315.5156 136.7656,315.875 Z "/><text fill="#000000" font-family="sans-serif" font-size="12" lengthAdjust="spacingAndGlyphs" textLength="48" x="148" y="324.9102">OrderDB</text><line style="stroke: #A80036; stroke-width: 1.5;" x1="120" x2="198" y1="336" y2="336"/><line style="stroke: #A80036; stroke-width: 1.5;" x1="120" x2="198" y1="344" y2="344"/><!--class ProductOrderDB--><rect fill="#FEFECE" filter="url(#f1uumttluev0bi)" height="48" id="ProductOrderDB" style="stroke: #A80036; stroke-width: 1.5;" width="122" x="6" y="529"/><ellipse cx="21" cy="545" fill="#ADD1B2" rx="11" ry="11" style="stroke: #A80036; stroke-width: 1.0;"/><path d="M23.7656,540.875 Q23.9219,540.6563 24.1094,540.5469 Q24.2969,540.4375 24.5156,540.4375 Q24.8906,540.4375 25.125,540.6953 Q25.3594,540.9531 25.3594,541.5625 L25.3594,543.0156 Q25.3594,543.625 25.125,543.8906 Q24.8906,544.1563 24.5156,544.1563 Q24.1719,544.1563 23.9688,543.9531 Q23.7656,543.7656 23.6563,543.25 Q23.6094,542.8906 23.4219,542.7031 Q23.0938,542.3281 22.4844,542.1094 Q21.875,541.8906 21.25,541.8906 Q20.4844,541.8906 19.8516,542.2188 Q19.2188,542.5469 18.7266,543.2969 Q18.2344,544.0469 18.2344,545.0781 L18.2344,546.1719 Q18.2344,547.4063 19.125,548.2266 Q20.0156,549.0469 21.6094,549.0469 Q22.5469,549.0469 23.2031,548.7969 Q23.5938,548.6406 24.0156,548.2031 Q24.2813,547.9375 24.4297,547.8594 Q24.5781,547.7813 24.7813,547.7813 Q25.1094,547.7813 25.3672,548.0391 Q25.625,548.2969 25.625,548.6406 Q25.625,548.9844 25.2813,549.3906 Q24.7813,549.9688 23.9844,550.2969 Q22.9063,550.75 21.6094,550.75 Q20.0938,550.75 18.8906,550.125 Q17.9063,549.625 17.2188,548.5547 Q16.5313,547.4844 16.5313,546.2031 L16.5313,545.0469 Q16.5313,543.7188 17.1484,542.5703 Q17.7656,541.4219 18.8594,540.8047 Q19.9531,540.1875 21.1875,540.1875 Q21.9219,540.1875 22.5703,540.3516 Q23.2188,540.5156 23.7656,540.875 Z "/><text fill="#000000" font-family="sans-serif" font-size="12" lengthAdjust="spacingAndGlyphs" textLength="90" x="35" y="549.9102">ProductOrderDB</text><line style="stroke: #A80036; stroke-width: 1.5;" x1="7" x2="127" y1="561" y2="561"/><line style="stroke: #A80036; stroke-width: 1.5;" x1="7" x2="127" y1="569" y2="569"/><!--class Product--><rect fill="#FEFECE" filter="url(#f1uumttluev0bi)" height="117.1797" id="Product" style="stroke: #A80036; stroke-width: 1.5;" width="100" x="37" y="970"/><ellipse cx="63.7" cy="986" fill="#ADD1B2" rx="11" ry="11" style="stroke: #A80036; stroke-width: 1.0;"/><path d="M66.4656,981.875 Q66.6219,981.6563 66.8094,981.5469 Q66.9969,981.4375 67.2156,981.4375 Q67.5906,981.4375 67.825,981.6953 Q68.0594,981.9531 68.0594,982.5625 L68.0594,984.0156 Q68.0594,984.625 67.825,984.8906 Q67.5906,985.1563 67.2156,985.1563 Q66.8719,985.1563 66.6688,984.9531 Q66.4656,984.7656 66.3563,984.25 Q66.3094,983.8906 66.1219,983.7031 Q65.7938,983.3281 65.1844,983.1094 Q64.575,982.8906 63.95,982.8906 Q63.1844,982.8906 62.5516,983.2188 Q61.9188,983.5469 61.4266,984.2969 Q60.9344,985.0469 60.9344,986.0781 L60.9344,987.1719 Q60.9344,988.4063 61.825,989.2266 Q62.7156,990.0469 64.3094,990.0469 Q65.2469,990.0469 65.9031,989.7969 Q66.2938,989.6406 66.7156,989.2031 Q66.9813,988.9375 67.1297,988.8594 Q67.2781,988.7813 67.4813,988.7813 Q67.8094,988.7813 68.0672,989.0391 Q68.325,989.2969 68.325,989.6406 Q68.325,989.9844 67.9813,990.3906 Q67.4813,990.9688 66.6844,991.2969 Q65.6063,991.75 64.3094,991.75 Q62.7938,991.75 61.5906,991.125 Q60.6063,990.625 59.9188,989.5547 Q59.2313,988.4844 59.2313,987.2031 L59.2313,986.0469 Q59.2313,984.7188 59.8484,983.5703 Q60.4656,982.4219 61.5594,981.8047 Q62.6531,981.1875 63.8875,981.1875 Q64.6219,981.1875 65.2703,981.3516 Q65.9188,981.5156 66.4656,981.875 Z "/><text fill="#000000" font-family="sans-serif" font-size="12" lengthAdjust="spacingAndGlyphs" textLength="42" x="80.3" y="990.9102">Product</text><line style="stroke: #A80036; stroke-width: 1.5;" x1="38" x2="136" y1="1002" y2="1002"/><text fill="#000000" font-family="sans-serif" font-size="11" lengthAdjust="spacingAndGlyphs" textLength="61" x="43" y="1017.4189">-String name</text><text fill="#000000" font-family="sans-serif" font-size="11" lengthAdjust="spacingAndGlyphs" textLength="83" x="43" y="1031.2549">-String reference</text><text fill="#000000" font-family="sans-serif" font-size="11" lengthAdjust="spacingAndGlyphs" textLength="88" x="43" y="1045.0908">-String description</text><text fill="#000000" font-family="sans-serif" font-size="11" lengthAdjust="spacingAndGlyphs" textLength="64" x="43" y="1058.9268">-Double price</text><text fill="#000000" font-family="sans-serif" font-size="11" lengthAdjust="spacingAndGlyphs" textLength="75" x="43" y="1072.7627">-Integer amount</text><line style="stroke: #A80036; stroke-width: 1.5;" x1="38" x2="136" y1="1079.1797" y2="1079.1797"/><!--class Order--><rect fill="#FEFECE" filter="url(#f1uumttluev0bi)" height="75.6719" id="Order" style="stroke: #A80036; stroke-width: 1.5;" width="95" x="111.5" y="627.5"/><ellipse cx="140.9" cy="643.5" fill="#ADD1B2" rx="11" ry="11" style="stroke: #A80036; stroke-width: 1.0;"/><path d="M143.6656,639.375 Q143.8219,639.1563 144.0094,639.0469 Q144.1969,638.9375 144.4156,638.9375 Q144.7906,638.9375 145.025,639.1953 Q145.2594,639.4531 145.2594,640.0625 L145.2594,641.5156 Q145.2594,642.125 145.025,642.3906 Q144.7906,642.6563 144.4156,642.6563 Q144.0719,642.6563 143.8688,642.4531 Q143.6656,642.2656 143.5563,641.75 Q143.5094,641.3906 143.3219,641.2031 Q142.9938,640.8281 142.3844,640.6094 Q141.775,640.3906 141.15,640.3906 Q140.3844,640.3906 139.7516,640.7188 Q139.1188,641.0469 138.6266,641.7969 Q138.1344,642.5469 138.1344,643.5781 L138.1344,644.6719 Q138.1344,645.9063 139.025,646.7266 Q139.9156,647.5469 141.5094,647.5469 Q142.4469,647.5469 143.1031,647.2969 Q143.4938,647.1406 143.9156,646.7031 Q144.1813,646.4375 144.3297,646.3594 Q144.4781,646.2813 144.6813,646.2813 Q145.0094,646.2813 145.2672,646.5391 Q145.525,646.7969 145.525,647.1406 Q145.525,647.4844 145.1813,647.8906 Q144.6813,648.4688 143.8844,648.7969 Q142.8063,649.25 141.5094,649.25 Q139.9938,649.25 138.7906,648.625 Q137.8063,648.125 137.1188,647.0547 Q136.4313,645.9844 136.4313,644.7031 L136.4313,643.5469 Q136.4313,642.2188 137.0484,641.0703 Q137.6656,639.9219 138.7594,639.3047 Q139.8531,638.6875 141.0875,638.6875 Q141.8219,638.6875 142.4703,638.8516 Q143.1188,639.0156 143.6656,639.375 Z "/><text fill="#000000" font-family="sans-serif" font-size="12" lengthAdjust="spacingAndGlyphs" textLength="31" x="158.1" y="648.4102">Order</text><line style="stroke: #A80036; stroke-width: 1.5;" x1="112.5" x2="205.5" y1="659.5" y2="659.5"/><text fill="#000000" font-family="sans-serif" font-size="11" lengthAdjust="spacingAndGlyphs" textLength="54" x="117.5" y="674.9189">-int idOrder</text><text fill="#000000" font-family="sans-serif" font-size="11" lengthAdjust="spacingAndGlyphs" textLength="83" x="117.5" y="688.7549">-double finalPrice</text><line style="stroke: #A80036; stroke-width: 1.5;" x1="112.5" x2="205.5" y1="695.1719" y2="695.1719"/><!--class ProductOrder--><rect fill="#FEFECE" filter="url(#f1uumttluev0bi)" height="89.5078" id="ProductOrder" style="stroke: #A80036; stroke-width: 1.5;" width="105" x="34.5" y="802"/><ellipse cx="49.5" cy="818" fill="#ADD1B2" rx="11" ry="11" style="stroke: #A80036; stroke-width: 1.0;"/><path d="M52.2656,813.875 Q52.4219,813.6563 52.6094,813.5469 Q52.7969,813.4375 53.0156,813.4375 Q53.3906,813.4375 53.625,813.6953 Q53.8594,813.9531 53.8594,814.5625 L53.8594,816.0156 Q53.8594,816.625 53.625,816.8906 Q53.3906,817.1563 53.0156,817.1563 Q52.6719,817.1563 52.4688,816.9531 Q52.2656,816.7656 52.1563,816.25 Q52.1094,815.8906 51.9219,815.7031 Q51.5938,815.3281 50.9844,815.1094 Q50.375,814.8906 49.75,814.8906 Q48.9844,814.8906 48.3516,815.2188 Q47.7188,815.5469 47.2266,816.2969 Q46.7344,817.0469 46.7344,818.0781 L46.7344,819.1719 Q46.7344,820.4063 47.625,821.2266 Q48.5156,822.0469 50.1094,822.0469 Q51.0469,822.0469 51.7031,821.7969 Q52.0938,821.6406 52.5156,821.2031 Q52.7813,820.9375 52.9297,820.8594 Q53.0781,820.7813 53.2813,820.7813 Q53.6094,820.7813 53.8672,821.0391 Q54.125,821.2969 54.125,821.6406 Q54.125,821.9844 53.7813,822.3906 Q53.2813,822.9688 52.4844,823.2969 Q51.4063,823.75 50.1094,823.75 Q48.5938,823.75 47.3906,823.125 Q46.4063,822.625 45.7188,821.5547 Q45.0313,820.4844 45.0313,819.2031 L45.0313,818.0469 Q45.0313,816.7188 45.6484,815.5703 Q46.2656,814.4219 47.3594,813.8047 Q48.4531,813.1875 49.6875,813.1875 Q50.4219,813.1875 51.0703,813.3516 Q51.7188,813.5156 52.2656,813.875 Z "/><text fill="#000000" font-family="sans-serif" font-size="12" lengthAdjust="spacingAndGlyphs" textLength="73" x="63.5" y="822.9102">ProductOrder</text><line style="stroke: #A80036; stroke-width: 1.5;" x1="35.5" x2="138.5" y1="834" y2="834"/><text fill="#000000" font-family="sans-serif" font-size="11" lengthAdjust="spacingAndGlyphs" textLength="66" x="40.5" y="849.4189">-int reference</text><text fill="#000000" font-family="sans-serif" font-size="11" lengthAdjust="spacingAndGlyphs" textLength="54" x="40.5" y="863.2549">-int idOrder</text><text fill="#000000" font-family="sans-serif" font-size="11" lengthAdjust="spacingAndGlyphs" textLength="53" x="40.5" y="877.0908">-int amount</text><line style="stroke: #A80036; stroke-width: 1.5;" x1="35.5" x2="138.5" y1="883.5078" y2="883.5078"/><!--class Client--><rect fill="#FEFECE" filter="url(#f1uumttluev0bi)" height="117.1797" id="Client" style="stroke: #A80036; stroke-width: 1.5;" width="134" x="217" y="382"/><ellipse cx="263.75" cy="398" fill="#ADD1B2" rx="11" ry="11" style="stroke: #A80036; stroke-width: 1.0;"/><path d="M266.5156,393.875 Q266.6719,393.6563 266.8594,393.5469 Q267.0469,393.4375 267.2656,393.4375 Q267.6406,393.4375 267.875,393.6953 Q268.1094,393.9531 268.1094,394.5625 L268.1094,396.0156 Q268.1094,396.625 267.875,396.8906 Q267.6406,397.1563 267.2656,397.1563 Q266.9219,397.1563 266.7188,396.9531 Q266.5156,396.7656 266.4063,396.25 Q266.3594,395.8906 266.1719,395.7031 Q265.8438,395.3281 265.2344,395.1094 Q264.625,394.8906 264,394.8906 Q263.2344,394.8906 262.6016,395.2188 Q261.9688,395.5469 261.4766,396.2969 Q260.9844,397.0469 260.9844,398.0781 L260.9844,399.1719 Q260.9844,400.4063 261.875,401.2266 Q262.7656,402.0469 264.3594,402.0469 Q265.2969,402.0469 265.9531,401.7969 Q266.3438,401.6406 266.7656,401.2031 Q267.0313,400.9375 267.1797,400.8594 Q267.3281,400.7813 267.5313,400.7813 Q267.8594,400.7813 268.1172,401.0391 Q268.375,401.2969 268.375,401.6406 Q268.375,401.9844 268.0313,402.3906 Q267.5313,402.9688 266.7344,403.2969 Q265.6563,403.75 264.3594,403.75 Q262.8438,403.75 261.6406,403.125 Q260.6563,402.625 259.9688,401.5547 Q259.2813,400.4844 259.2813,399.2031 L259.2813,398.0469 Q259.2813,396.7188 259.8984,395.5703 Q260.5156,394.4219 261.6094,393.8047 Q262.7031,393.1875 263.9375,393.1875 Q264.6719,393.1875 265.3203,393.3516 Q265.9688,393.5156 266.5156,393.875 Z "/><text fill="#000000" font-family="sans-serif" font-size="12" lengthAdjust="spacingAndGlyphs" textLength="32" x="284.25" y="402.9102">Client</text><line style="stroke: #A80036; stroke-width: 1.5;" x1="218" x2="350" y1="414" y2="414"/><text fill="#000000" font-family="sans-serif" font-size="11" lengthAdjust="spacingAndGlyphs" textLength="61" x="223" y="429.4189">-String name</text><text fill="#000000" font-family="sans-serif" font-size="11" lengthAdjust="spacingAndGlyphs" textLength="59" x="223" y="443.2549">-String email</text><text fill="#000000" font-family="sans-serif" font-size="11" lengthAdjust="spacingAndGlyphs" textLength="122" x="223" y="457.0908">-String creditCardNumber</text><text fill="#000000" font-family="sans-serif" font-size="11" lengthAdjust="spacingAndGlyphs" textLength="84" x="223" y="470.9268">-Date validityDate</text><text fill="#000000" font-family="sans-serif" font-size="11" lengthAdjust="spacingAndGlyphs" textLength="58" x="223" y="484.7627">-Integer ccv</text><line style="stroke: #A80036; stroke-width: 1.5;" x1="218" x2="350" y1="491.1797" y2="491.1797"/><!--class Adress--><rect fill="#FEFECE" filter="url(#f1uumttluev0bi)" height="117.1797" id="Adress" style="stroke: #A80036; stroke-width: 1.5;" width="126" x="374" y="607"/><ellipse cx="413.75" cy="623" fill="#ADD1B2" rx="11" ry="11" style="stroke: #A80036; stroke-width: 1.0;"/><path d="M416.5156,618.875 Q416.6719,618.6563 416.8594,618.5469 Q417.0469,618.4375 417.2656,618.4375 Q417.6406,618.4375 417.875,618.6953 Q418.1094,618.9531 418.1094,619.5625 L418.1094,621.0156 Q418.1094,621.625 417.875,621.8906 Q417.6406,622.1563 417.2656,622.1563 Q416.9219,622.1563 416.7188,621.9531 Q416.5156,621.7656 416.4063,621.25 Q416.3594,620.8906 416.1719,620.7031 Q415.8438,620.3281 415.2344,620.1094 Q414.625,619.8906 414,619.8906 Q413.2344,619.8906 412.6016,620.2188 Q411.9688,620.5469 411.4766,621.2969 Q410.9844,622.0469 410.9844,623.0781 L410.9844,624.1719 Q410.9844,625.4063 411.875,626.2266 Q412.7656,627.0469 414.3594,627.0469 Q415.2969,627.0469 415.9531,626.7969 Q416.3438,626.6406 416.7656,626.2031 Q417.0313,625.9375 417.1797,625.8594 Q417.3281,625.7813 417.5313,625.7813 Q417.8594,625.7813 418.1172,626.0391 Q418.375,626.2969 418.375,626.6406 Q418.375,626.9844 418.0313,627.3906 Q417.5313,627.9688 416.7344,628.2969 Q415.6563,628.75 414.3594,628.75 Q412.8438,628.75 411.6406,628.125 Q410.6563,627.625 409.9688,626.5547 Q409.2813,625.4844 409.2813,624.2031 L409.2813,623.0469 Q409.2813,621.7188 409.8984,620.5703 Q410.5156,619.4219 411.6094,618.8047 Q412.7031,618.1875 413.9375,618.1875 Q414.6719,618.1875 415.3203,618.3516 Q415.9688,618.5156 416.5156,618.875 Z "/><text fill="#000000" font-family="sans-serif" font-size="12" lengthAdjust="spacingAndGlyphs" textLength="39" x="433.25" y="627.9102">Adress</text><line style="stroke: #A80036; stroke-width: 1.5;" x1="375" x2="499" y1="639" y2="639"/><text fill="#000000" font-family="sans-serif" font-size="11" lengthAdjust="spacingAndGlyphs" textLength="63" x="380" y="654.4189">-String street</text><text fill="#000000" font-family="sans-serif" font-size="11" lengthAdjust="spacingAndGlyphs" textLength="89" x="380" y="668.2549">-String postalCode</text><text fill="#000000" font-family="sans-serif" font-size="11" lengthAdjust="spacingAndGlyphs" textLength="76" x="380" y="682.0908">-Integer number</text><text fill="#000000" font-family="sans-serif" font-size="11" lengthAdjust="spacingAndGlyphs" textLength="68" x="380" y="695.9268">-String locality</text><text fill="#000000" font-family="sans-serif" font-size="11" lengthAdjust="spacingAndGlyphs" textLength="114" x="380" y="709.7627">-String GPSCoordinates</text><line style="stroke: #A80036; stroke-width: 1.5;" x1="375" x2="499" y1="716.1797" y2="716.1797"/><!--class ClientDB--><rect fill="#FEFECE" filter="url(#f1uumttluev0bi)" height="48" id="ClientDB" style="stroke: #A80036; stroke-width: 1.5;" width="81" x="227.5" y="226"/><ellipse cx="242.5" cy="242" fill="#ADD1B2" rx="11" ry="11" style="stroke: #A80036; stroke-width: 1.0;"/><path d="M245.2656,237.875 Q245.4219,237.6563 245.6094,237.5469 Q245.7969,237.4375 246.0156,237.4375 Q246.3906,237.4375 246.625,237.6953 Q246.8594,237.9531 246.8594,238.5625 L246.8594,240.0156 Q246.8594,240.625 246.625,240.8906 Q246.3906,241.1563 246.0156,241.1563 Q245.6719,241.1563 245.4688,240.9531 Q245.2656,240.7656 245.1563,240.25 Q245.1094,239.8906 244.9219,239.7031 Q244.5938,239.3281 243.9844,239.1094 Q243.375,238.8906 242.75,238.8906 Q241.9844,238.8906 241.3516,239.2188 Q240.7188,239.5469 240.2266,240.2969 Q239.7344,241.0469 239.7344,242.0781 L239.7344,243.1719 Q239.7344,244.4063 240.625,245.2266 Q241.5156,246.0469 243.1094,246.0469 Q244.0469,246.0469 244.7031,245.7969 Q245.0938,245.6406 245.5156,245.2031 Q245.7813,244.9375 245.9297,244.8594 Q246.0781,244.7813 246.2813,244.7813 Q246.6094,244.7813 246.8672,245.0391 Q247.125,245.2969 247.125,245.6406 Q247.125,245.9844 246.7813,246.3906 Q246.2813,246.9688 245.4844,247.2969 Q244.4063,247.75 243.1094,247.75 Q241.5938,247.75 240.3906,247.125 Q239.4063,246.625 238.7188,245.5547 Q238.0313,244.4844 238.0313,243.2031 L238.0313,242.0469 Q238.0313,240.7188 238.6484,239.5703 Q239.2656,238.4219 240.3594,237.8047 Q241.4531,237.1875 242.6875,237.1875 Q243.4219,237.1875 244.0703,237.3516 Q244.7188,237.5156 245.2656,237.875 Z "/><text fill="#000000" font-family="sans-serif" font-size="12" lengthAdjust="spacingAndGlyphs" textLength="49" x="256.5" y="246.9102">ClientDB</text><line style="stroke: #A80036; stroke-width: 1.5;" x1="228.5" x2="307.5" y1="258" y2="258"/><line style="stroke: #A80036; stroke-width: 1.5;" x1="228.5" x2="307.5" y1="266" y2="266"/><!--class User--><rect fill="#FEFECE" filter="url(#f1uumttluev0bi)" height="89.5078" id="User" style="stroke: #A80036; stroke-width: 1.5;" width="97" x="241.5" y="620.5"/><ellipse cx="273.6" cy="636.5" fill="#ADD1B2" rx="11" ry="11" style="stroke: #A80036; stroke-width: 1.0;"/><path d="M276.3656,632.375 Q276.5219,632.1563 276.7094,632.0469 Q276.8969,631.9375 277.1156,631.9375 Q277.4906,631.9375 277.725,632.1953 Q277.9594,632.4531 277.9594,633.0625 L277.9594,634.5156 Q277.9594,635.125 277.725,635.3906 Q277.4906,635.6563 277.1156,635.6563 Q276.7719,635.6563 276.5688,635.4531 Q276.3656,635.2656 276.2563,634.75 Q276.2094,634.3906 276.0219,634.2031 Q275.6938,633.8281 275.0844,633.6094 Q274.475,633.3906 273.85,633.3906 Q273.0844,633.3906 272.4516,633.7188 Q271.8188,634.0469 271.3266,634.7969 Q270.8344,635.5469 270.8344,636.5781 L270.8344,637.6719 Q270.8344,638.9063 271.725,639.7266 Q272.6156,640.5469 274.2094,640.5469 Q275.1469,640.5469 275.8031,640.2969 Q276.1938,640.1406 276.6156,639.7031 Q276.8813,639.4375 277.0297,639.3594 Q277.1781,639.2813 277.3813,639.2813 Q277.7094,639.2813 277.9672,639.5391 Q278.225,639.7969 278.225,640.1406 Q278.225,640.4844 277.8813,640.8906 Q277.3813,641.4688 276.5844,641.7969 Q275.5063,642.25 274.2094,642.25 Q272.6938,642.25 271.4906,641.625 Q270.5063,641.125 269.8188,640.0547 Q269.1313,638.9844 269.1313,637.7031 L269.1313,636.5469 Q269.1313,635.2188 269.7484,634.0703 Q270.3656,632.9219 271.4594,632.3047 Q272.5531,631.6875 273.7875,631.6875 Q274.5219,631.6875 275.1703,631.8516 Q275.8188,632.0156 276.3656,632.375 Z "/><text fill="#000000" font-family="sans-serif" font-size="12" lengthAdjust="spacingAndGlyphs" textLength="27" x="291.4" y="641.4102">User</text><line style="stroke: #A80036; stroke-width: 1.5;" x1="242.5" x2="337.5" y1="652.5" y2="652.5"/><text fill="#000000" font-family="sans-serif" font-size="11" lengthAdjust="spacingAndGlyphs" textLength="61" x="247.5" y="667.9189">-String name</text><text fill="#000000" font-family="sans-serif" font-size="11" lengthAdjust="spacingAndGlyphs" textLength="53" x="247.5" y="681.7549">-String mail</text><text fill="#000000" font-family="sans-serif" font-size="11" lengthAdjust="spacingAndGlyphs" textLength="85" x="247.5" y="695.5908">-String password</text><line style="stroke: #A80036; stroke-width: 1.5;" x1="242.5" x2="337.5" y1="702.0078" y2="702.0078"/><!--link PerformOrderUI to PerformOrderController--><path d="M159,56.22 C159,72.48 159,94.32 159,111.62 " fill="none" id="PerformOrderUI-PerformOrderController" style="stroke: #A80036; stroke-width: 1.0; stroke-dasharray: 7.0,7.0;"/><polygon fill="#A80036" points="159,116.83,163,107.83,159,111.83,155,107.83,159,116.83" style="stroke: #A80036; stroke-width: 1.0;"/><!--link PerformOrderController to ProductOrderDB--><path d="M148.99,165.14 C135.97,196.16 113.43,253.22 101,304 C81.85,382.24 72.61,477.2 68.96,523.64 " fill="none" id="PerformOrderController-ProductOrderDB" style="stroke: #A80036; stroke-width: 1.0; stroke-dasharray: 7.0,7.0;"/><polygon fill="#A80036" points="68.57,528.79,73.2523,520.1253,68.9557,523.8049,65.2761,519.5083,68.57,528.79" style="stroke: #A80036; stroke-width: 1.0;"/><!--link PerformOrderController to OrderDB--><path d="M159,165.06 C159,198.94 159,262.11 159,298.74 " fill="none" id="PerformOrderController-OrderDB" style="stroke: #A80036; stroke-width: 1.0; stroke-dasharray: 7.0,7.0;"/><polygon fill="#A80036" points="159,303.94,163,294.94,159,298.94,155,294.94,159,303.94" style="stroke: #A80036; stroke-width: 1.0;"/><!--link PerformOrderController to ClientDB--><path d="M182.65,165.22 C199.65,181.9 222.62,204.45 240.44,221.95 " fill="none" id="PerformOrderController-ClientDB" style="stroke: #A80036; stroke-width: 1.0; stroke-dasharray: 7.0,7.0;"/><polygon fill="#A80036" points="244.39,225.83,240.7802,216.6665,240.826,222.3232,235.1693,222.369,244.39,225.83" style="stroke: #A80036; stroke-width: 1.0;"/><!--link ClientDB to Client--><path d="M269.96,274.11 C272.12,299.51 275.67,341.37 278.66,376.62 " fill="none" id="ClientDB-Client" style="stroke: #A80036; stroke-width: 1.0; stroke-dasharray: 7.0,7.0;"/><polygon fill="#A80036" points="279.1,381.78,282.341,372.4797,278.686,376.7972,274.3685,373.1421,279.1,381.78" style="stroke: #A80036; stroke-width: 1.0;"/><!--link OrderDB to Order--><path d="M159,352.06 C159,407.87 159,550.86 159,622.4 " fill="none" id="OrderDB-Order" style="stroke: #A80036; stroke-width: 1.0; stroke-dasharray: 7.0,7.0;"/><polygon fill="#A80036" points="159,627.43,163,618.43,159,622.43,155,618.43,159,627.43" style="stroke: #A80036; stroke-width: 1.0;"/><!--link ProductOrderDB to ProductOrder--><path d="M68.6,577.4 C71.85,624.79 79.26,732.99 83.62,796.66 " fill="none" id="ProductOrderDB-ProductOrder" style="stroke: #A80036; stroke-width: 1.0; stroke-dasharray: 7.0,7.0;"/><polygon fill="#A80036" points="83.98,801.92,87.3531,792.6668,83.637,796.9318,79.372,793.2156,83.98,801.92" style="stroke: #A80036; stroke-width: 1.0;"/><!--link Client to Order--><path d="M251.65,499.22 C229.98,537.88 201.95,587.87 182.42,622.71 " fill="none" id="Client-Order" style="stroke: #A80036; stroke-width: 1.0;"/><polygon fill="#A80036" points="179.85,627.31,187.7322,621.4048,182.2891,622.9453,180.7486,617.5022,179.85,627.31" style="stroke: #A80036; stroke-width: 1.0;"/><text fill="#000000" font-family="sans-serif" font-size="13" lengthAdjust="spacingAndGlyphs" textLength="29" x="234" y="558.4951">add&gt;</text><text fill="#000000" font-family="sans-serif" font-size="13" lengthAdjust="spacingAndGlyphs" textLength="7" x="240.2808" y="520.8571">1</text><text fill="#000000" font-family="sans-serif" font-size="13" lengthAdjust="spacingAndGlyphs" textLength="5" x="178.1186" y="616.6381">*</text><!--link Client to Adress--><path d="M336.77,499.03 C344.88,508.77 352.91,518.98 360,529 C376.27,551.98 392.03,578.67 405.02,602.25 " fill="none" id="Client-Adress" style="stroke: #A80036; stroke-width: 1.0;"/><polygon fill="#A80036" points="407.58,606.93,406.7685,597.1146,405.1797,602.5438,399.7506,600.9551,407.58,606.93" style="stroke: #A80036; stroke-width: 1.0;"/><text fill="#000000" font-family="sans-serif" font-size="13" lengthAdjust="spacingAndGlyphs" textLength="21" x="391" y="558.4951">has</text><polygon fill="#000000" points="397,567.3516,400,573.3516,403,567.3516,397,567.3516" style="stroke: #000000; stroke-width: 1.0;"/><text fill="#000000" font-family="sans-serif" font-size="13" lengthAdjust="spacingAndGlyphs" textLength="5" x="337.8967" y="520.6439">*</text><text fill="#000000" font-family="sans-serif" font-size="13" lengthAdjust="spacingAndGlyphs" textLength="7" x="396.5679" y="596.3224">1</text><!--link Client to User--><path d="M285.55,499.22 C286.52,535.11 287.75,580.78 288.67,615.01 " fill="none" id="Client-User" style="stroke: #A80036; stroke-width: 1.0;"/><polygon fill="#A80036" points="288.81,620.4,292.5773,611.3002,288.6815,615.4017,284.58,611.5058,288.81,620.4" style="stroke: #A80036; stroke-width: 1.0;"/><text fill="#000000" font-family="sans-serif" font-size="13" lengthAdjust="spacingAndGlyphs" textLength="50" x="288" y="558.4951">acts has</text><polygon fill="#000000" points="308.5,567.3516,311.5,573.3516,314.5,567.3516,308.5,567.3516" style="stroke: #000000; stroke-width: 1.0;"/><text fill="#000000" font-family="sans-serif" font-size="13" lengthAdjust="spacingAndGlyphs" textLength="7" x="278.3123" y="520.8571">1</text><text fill="#000000" font-family="sans-serif" font-size="13" lengthAdjust="spacingAndGlyphs" textLength="7" x="281.0625" y="609.4995">1</text><!--link Order to ProductOrder--><path d="M144.08,703.69 C132.63,732.24 116.79,771.74 104.7,801.88 " fill="none" id="Order-ProductOrder" style="stroke: #A80036; stroke-width: 1.0;"/><text fill="#000000" font-family="sans-serif" font-size="13" lengthAdjust="spacingAndGlyphs" textLength="21" x="124" y="768.4951">has</text><polygon fill="#000000" points="130,777.3516,133,783.3516,136,777.3516,130,777.3516" style="stroke: #000000; stroke-width: 1.0;"/><text fill="#000000" font-family="sans-serif" font-size="13" lengthAdjust="spacingAndGlyphs" textLength="7" x="134.1443" y="724.6008">1</text><text fill="#000000" font-family="sans-serif" font-size="13" lengthAdjust="spacingAndGlyphs" textLength="5" x="102.0275" y="791.3057">*</text><!--link ProductOrder to Product--><path d="M87,892.37 C87,915.73 87,944.65 87,969.74 " fill="none" id="ProductOrder-Product" style="stroke: #A80036; stroke-width: 1.0;"/><text fill="#000000" font-family="sans-serif" font-size="13" lengthAdjust="spacingAndGlyphs" textLength="21" x="88" y="936.4951">has</text><polygon fill="#000000" points="94,945.3516,97,951.3516,100,945.3516,94,945.3516" style="stroke: #000000; stroke-width: 1.0;"/><text fill="#000000" font-family="sans-serif" font-size="13" lengthAdjust="spacingAndGlyphs" textLength="5" x="81.6641" y="913.0934">*</text><text fill="#000000" font-family="sans-serif" font-size="13" lengthAdjust="spacingAndGlyphs" textLength="7" x="79.5734" y="959.1092">1</text><!--
@startuml
skinparam classAttributeIconSize 0


class PerformOrderUI {

}

class PerformOrderController {

}

class OrderDB {

}

class ProductOrderDB {

}

class Product {
  -String name
  -String reference
  -String description
  -Double price
  -Integer amount

}

class Order {
  - int idOrder
  - double finalPrice
}

class ProductOrder {
  -int reference
  -int idOrder
  -int amount
}

class Client {
  -String name
  -String email
  -String creditCardNumber
  -Date validityDate
  -Integer ccv

}

class Adress {
  -String street
  -String postalCode
  -Integer number
  -String locality
  -String GPSCoordinates

}

class ClientDB {

}

class User {
  -String name
  -String mail
  -String password
}

PerformOrderUI ..> PerformOrderController
PerformOrderController ..> ProductOrderDB
PerformOrderController ..> OrderDB
PerformOrderController ..> ClientDB
ClientDB ..> Client
OrderDB  ..>  Order
ProductOrderDB ..> ProductOrder

Client "1" - -> "*" Order : add>

Client "*" - -> "1" Adress: has >

Client "1" - -> "1" User : acts has >

Order "1" - - "*" ProductOrder : has >

ProductOrder "*" - - "1" Product : has >



@enduml

PlantUML version 1.2018.14(Fri Dec 21 16:33:16 GMT 2018)
(GPL source distribution)
Java Runtime: Java(TM) SE Runtime Environment
JVM: Java HotSpot(TM) 64-Bit Server VM
Java Version: 1.8.0_271-b09
Operating System: Windows 10
OS Version: 10.0
Default Encoding: Cp1252
Language: pt
Country: PT
--></g></svg>