<?xml version="1.0" encoding="UTF-8" standalone="no"?><svg xmlns="http://www.w3.org/2000/svg" xmlns:xlink="http://www.w3.org/1999/xlink" contentScriptType="application/ecmascript" contentStyleType="text/css" height="631px" preserveAspectRatio="none" style="width:778px;height:631px;" version="1.1" viewBox="0 0 778 631" width="778px" zoomAndPan="magnify"><defs><filter height="300%" id="f17d7umrjb6zg7" width="300%" x="-1" y="-1"><feGaussianBlur result="blurOut" stdDeviation="2.0"/><feColorMatrix in="blurOut" result="blurOut2" type="matrix" values="0 0 0 0 0 0 0 0 0 0 0 0 0 0 0 0 0 0 .4 0"/><feOffset dx="4.0" dy="4.0" in="blurOut2" result="blurOut3"/><feBlend in="SourceGraphic" in2="blurOut3" mode="normal"/></filter></defs><g><!--class RemoveProductUI--><rect fill="#FEFECE" filter="url(#f17d7umrjb6zg7)" height="48" id="RemoveProductUI" style="stroke: #A80036; stroke-width: 1.5;" width="132" x="205" y="8"/><ellipse cx="220" cy="24" fill="#ADD1B2" rx="11" ry="11" style="stroke: #A80036; stroke-width: 1.0;"/><path d="M222.7656,19.875 Q222.9219,19.6563 223.1094,19.5469 Q223.2969,19.4375 223.5156,19.4375 Q223.8906,19.4375 224.125,19.6953 Q224.3594,19.9531 224.3594,20.5625 L224.3594,22.0156 Q224.3594,22.625 224.125,22.8906 Q223.8906,23.1563 223.5156,23.1563 Q223.1719,23.1563 222.9688,22.9531 Q222.7656,22.7656 222.6563,22.25 Q222.6094,21.8906 222.4219,21.7031 Q222.0938,21.3281 221.4844,21.1094 Q220.875,20.8906 220.25,20.8906 Q219.4844,20.8906 218.8516,21.2188 Q218.2188,21.5469 217.7266,22.2969 Q217.2344,23.0469 217.2344,24.0781 L217.2344,25.1719 Q217.2344,26.4063 218.125,27.2266 Q219.0156,28.0469 220.6094,28.0469 Q221.5469,28.0469 222.2031,27.7969 Q222.5938,27.6406 223.0156,27.2031 Q223.2813,26.9375 223.4297,26.8594 Q223.5781,26.7813 223.7813,26.7813 Q224.1094,26.7813 224.3672,27.0391 Q224.625,27.2969 224.625,27.6406 Q224.625,27.9844 224.2813,28.3906 Q223.7813,28.9688 222.9844,29.2969 Q221.9063,29.75 220.6094,29.75 Q219.0938,29.75 217.8906,29.125 Q216.9063,28.625 216.2188,27.5547 Q215.5313,26.4844 215.5313,25.2031 L215.5313,24.0469 Q215.5313,22.7188 216.1484,21.5703 Q216.7656,20.4219 217.8594,19.8047 Q218.9531,19.1875 220.1875,19.1875 Q220.9219,19.1875 221.5703,19.3516 Q222.2188,19.5156 222.7656,19.875 Z "/><text fill="#000000" font-family="sans-serif" font-size="12" lengthAdjust="spacingAndGlyphs" textLength="100" x="234" y="28.9102">RemoveProductUI</text><line style="stroke: #A80036; stroke-width: 1.5;" x1="206" x2="336" y1="40" y2="40"/><line style="stroke: #A80036; stroke-width: 1.5;" x1="206" x2="336" y1="48" y2="48"/><!--class RemoveProductController--><rect fill="#FEFECE" filter="url(#f17d7umrjb6zg7)" height="117.1797" id="RemoveProductController" style="stroke: #A80036; stroke-width: 1.5;" width="230" x="156" y="117"/><ellipse cx="196.2" cy="133" fill="#ADD1B2" rx="11" ry="11" style="stroke: #A80036; stroke-width: 1.0;"/><path d="M198.9656,128.875 Q199.1219,128.6563 199.3094,128.5469 Q199.4969,128.4375 199.7156,128.4375 Q200.0906,128.4375 200.325,128.6953 Q200.5594,128.9531 200.5594,129.5625 L200.5594,131.0156 Q200.5594,131.625 200.325,131.8906 Q200.0906,132.1563 199.7156,132.1563 Q199.3719,132.1563 199.1688,131.9531 Q198.9656,131.7656 198.8563,131.25 Q198.8094,130.8906 198.6219,130.7031 Q198.2938,130.3281 197.6844,130.1094 Q197.075,129.8906 196.45,129.8906 Q195.6844,129.8906 195.0516,130.2188 Q194.4188,130.5469 193.9266,131.2969 Q193.4344,132.0469 193.4344,133.0781 L193.4344,134.1719 Q193.4344,135.4063 194.325,136.2266 Q195.2156,137.0469 196.8094,137.0469 Q197.7469,137.0469 198.4031,136.7969 Q198.7938,136.6406 199.2156,136.2031 Q199.4813,135.9375 199.6297,135.8594 Q199.7781,135.7813 199.9813,135.7813 Q200.3094,135.7813 200.5672,136.0391 Q200.825,136.2969 200.825,136.6406 Q200.825,136.9844 200.4813,137.3906 Q199.9813,137.9688 199.1844,138.2969 Q198.1063,138.75 196.8094,138.75 Q195.2938,138.75 194.0906,138.125 Q193.1063,137.625 192.4188,136.5547 Q191.7313,135.4844 191.7313,134.2031 L191.7313,133.0469 Q191.7313,131.7188 192.3484,130.5703 Q192.9656,129.4219 194.0594,128.8047 Q195.1531,128.1875 196.3875,128.1875 Q197.1219,128.1875 197.7703,128.3516 Q198.4188,128.5156 198.9656,128.875 Z "/><text fill="#000000" font-family="sans-serif" font-size="12" lengthAdjust="spacingAndGlyphs" textLength="142" x="215.8" y="137.9102">RemoveProductController</text><line style="stroke: #A80036; stroke-width: 1.5;" x1="157" x2="385" y1="149" y2="149"/><line style="stroke: #A80036; stroke-width: 1.5;" x1="157" x2="385" y1="157" y2="157"/><text fill="#000000" font-family="sans-serif" font-size="11" lengthAdjust="spacingAndGlyphs" textLength="182" x="162" y="172.4189">+List&lt;Pharmacy&gt; getPharmaciesList()</text><text fill="#000000" font-family="sans-serif" font-size="11" lengthAdjust="spacingAndGlyphs" textLength="186" x="162" y="186.2549">+getPharmacyByEmail(PharmacyEmail)</text><text fill="#000000" font-family="sans-serif" font-size="11" lengthAdjust="spacingAndGlyphs" textLength="158" x="162" y="200.0908">+List&lt;Product&gt; getProductsList()</text><text fill="#000000" font-family="sans-serif" font-size="11" lengthAdjust="spacingAndGlyphs" textLength="218" x="162" y="213.9268">+getProductByReference(procuctReference)</text><text fill="#000000" font-family="sans-serif" font-size="11" lengthAdjust="spacingAndGlyphs" textLength="87" x="162" y="227.7627">+removeProduct()</text><!--class PharmacyDB--><rect fill="#FEFECE" filter="url(#f17d7umrjb6zg7)" height="75.6719" id="PharmacyDB" style="stroke: #A80036; stroke-width: 1.5;" width="212" x="6" y="308.5"/><ellipse cx="71.75" cy="324.5" fill="#ADD1B2" rx="11" ry="11" style="stroke: #A80036; stroke-width: 1.0;"/><path d="M74.5156,320.375 Q74.6719,320.1563 74.8594,320.0469 Q75.0469,319.9375 75.2656,319.9375 Q75.6406,319.9375 75.875,320.1953 Q76.1094,320.4531 76.1094,321.0625 L76.1094,322.5156 Q76.1094,323.125 75.875,323.3906 Q75.6406,323.6563 75.2656,323.6563 Q74.9219,323.6563 74.7188,323.4531 Q74.5156,323.2656 74.4063,322.75 Q74.3594,322.3906 74.1719,322.2031 Q73.8438,321.8281 73.2344,321.6094 Q72.625,321.3906 72,321.3906 Q71.2344,321.3906 70.6016,321.7188 Q69.9688,322.0469 69.4766,322.7969 Q68.9844,323.5469 68.9844,324.5781 L68.9844,325.6719 Q68.9844,326.9063 69.875,327.7266 Q70.7656,328.5469 72.3594,328.5469 Q73.2969,328.5469 73.9531,328.2969 Q74.3438,328.1406 74.7656,327.7031 Q75.0313,327.4375 75.1797,327.3594 Q75.3281,327.2813 75.5313,327.2813 Q75.8594,327.2813 76.1172,327.5391 Q76.375,327.7969 76.375,328.1406 Q76.375,328.4844 76.0313,328.8906 Q75.5313,329.4688 74.7344,329.7969 Q73.6563,330.25 72.3594,330.25 Q70.8438,330.25 69.6406,329.625 Q68.6563,329.125 67.9688,328.0547 Q67.2813,326.9844 67.2813,325.7031 L67.2813,324.5469 Q67.2813,323.2188 67.8984,322.0703 Q68.5156,320.9219 69.6094,320.3047 Q70.7031,319.6875 71.9375,319.6875 Q72.6719,319.6875 73.3203,319.8516 Q73.9688,320.0156 74.5156,320.375 Z "/><text fill="#000000" font-family="sans-serif" font-size="12" lengthAdjust="spacingAndGlyphs" textLength="72" x="92.25" y="329.4102">PharmacyDB</text><line style="stroke: #A80036; stroke-width: 1.5;" x1="7" x2="217" y1="340.5" y2="340.5"/><line style="stroke: #A80036; stroke-width: 1.5;" x1="7" x2="217" y1="348.5" y2="348.5"/><text fill="#000000" font-family="sans-serif" font-size="11" lengthAdjust="spacingAndGlyphs" textLength="177" x="12" y="363.9189">+List&lt;Pharmacy&gt; getAllPharmacies()</text><text fill="#000000" font-family="sans-serif" font-size="11" lengthAdjust="spacingAndGlyphs" textLength="200" x="12" y="377.7549">+Pharmacy getPharmacy(PharmacyEmail)</text><!--class ProductDB--><rect fill="#FEFECE" filter="url(#f17d7umrjb6zg7)" height="89.5078" id="ProductDB" style="stroke: #A80036; stroke-width: 1.5;" width="166" x="461" y="301.5"/><ellipse cx="510.25" cy="317.5" fill="#ADD1B2" rx="11" ry="11" style="stroke: #A80036; stroke-width: 1.0;"/><path d="M513.0156,313.375 Q513.1719,313.1563 513.3594,313.0469 Q513.5469,312.9375 513.7656,312.9375 Q514.1406,312.9375 514.375,313.1953 Q514.6094,313.4531 514.6094,314.0625 L514.6094,315.5156 Q514.6094,316.125 514.375,316.3906 Q514.1406,316.6563 513.7656,316.6563 Q513.4219,316.6563 513.2188,316.4531 Q513.0156,316.2656 512.9063,315.75 Q512.8594,315.3906 512.6719,315.2031 Q512.3438,314.8281 511.7344,314.6094 Q511.125,314.3906 510.5,314.3906 Q509.7344,314.3906 509.1016,314.7188 Q508.4688,315.0469 507.9766,315.7969 Q507.4844,316.5469 507.4844,317.5781 L507.4844,318.6719 Q507.4844,319.9063 508.375,320.7266 Q509.2656,321.5469 510.8594,321.5469 Q511.7969,321.5469 512.4531,321.2969 Q512.8438,321.1406 513.2656,320.7031 Q513.5313,320.4375 513.6797,320.3594 Q513.8281,320.2813 514.0313,320.2813 Q514.3594,320.2813 514.6172,320.5391 Q514.875,320.7969 514.875,321.1406 Q514.875,321.4844 514.5313,321.8906 Q514.0313,322.4688 513.2344,322.7969 Q512.1563,323.25 510.8594,323.25 Q509.3438,323.25 508.1406,322.625 Q507.1563,322.125 506.4688,321.0547 Q505.7813,319.9844 505.7813,318.7031 L505.7813,317.5469 Q505.7813,316.2188 506.3984,315.0703 Q507.0156,313.9219 508.1094,313.3047 Q509.2031,312.6875 510.4375,312.6875 Q511.1719,312.6875 511.8203,312.8516 Q512.4688,313.0156 513.0156,313.375 Z "/><text fill="#000000" font-family="sans-serif" font-size="12" lengthAdjust="spacingAndGlyphs" textLength="59" x="530.75" y="322.4102">ProductDB</text><line style="stroke: #A80036; stroke-width: 1.5;" x1="462" x2="626" y1="333.5" y2="333.5"/><line style="stroke: #A80036; stroke-width: 1.5;" x1="462" x2="626" y1="341.5" y2="341.5"/><text fill="#000000" font-family="sans-serif" font-size="11" lengthAdjust="spacingAndGlyphs" textLength="153" x="467" y="356.9189">+List&lt;Product&gt; getAllProducts()</text><text fill="#000000" font-family="sans-serif" font-size="11" lengthAdjust="spacingAndGlyphs" textLength="154" x="467" y="370.7549">+getProduct(procuctReference)</text><text fill="#000000" font-family="sans-serif" font-size="11" lengthAdjust="spacingAndGlyphs" textLength="138" x="467" y="384.5908">+remove(productReference)</text><!--class Product--><rect fill="#FEFECE" filter="url(#f17d7umrjb6zg7)" height="144.8516" id="Product" style="stroke: #A80036; stroke-width: 1.5;" width="123" x="439.5" y="476"/><ellipse cx="476.55" cy="492" fill="#ADD1B2" rx="11" ry="11" style="stroke: #A80036; stroke-width: 1.0;"/><path d="M479.3156,487.875 Q479.4719,487.6563 479.6594,487.5469 Q479.8469,487.4375 480.0656,487.4375 Q480.4406,487.4375 480.675,487.6953 Q480.9094,487.9531 480.9094,488.5625 L480.9094,490.0156 Q480.9094,490.625 480.675,490.8906 Q480.4406,491.1563 480.0656,491.1563 Q479.7219,491.1563 479.5188,490.9531 Q479.3156,490.7656 479.2063,490.25 Q479.1594,489.8906 478.9719,489.7031 Q478.6438,489.3281 478.0344,489.1094 Q477.425,488.8906 476.8,488.8906 Q476.0344,488.8906 475.4016,489.2188 Q474.7688,489.5469 474.2766,490.2969 Q473.7844,491.0469 473.7844,492.0781 L473.7844,493.1719 Q473.7844,494.4063 474.675,495.2266 Q475.5656,496.0469 477.1594,496.0469 Q478.0969,496.0469 478.7531,495.7969 Q479.1438,495.6406 479.5656,495.2031 Q479.8313,494.9375 479.9797,494.8594 Q480.1281,494.7813 480.3313,494.7813 Q480.6594,494.7813 480.9172,495.0391 Q481.175,495.2969 481.175,495.6406 Q481.175,495.9844 480.8313,496.3906 Q480.3313,496.9688 479.5344,497.2969 Q478.4563,497.75 477.1594,497.75 Q475.6438,497.75 474.4406,497.125 Q473.4563,496.625 472.7688,495.5547 Q472.0813,494.4844 472.0813,493.2031 L472.0813,492.0469 Q472.0813,490.7188 472.6984,489.5703 Q473.3156,488.4219 474.4094,487.8047 Q475.5031,487.1875 476.7375,487.1875 Q477.4719,487.1875 478.1203,487.3516 Q478.7688,487.5156 479.3156,487.875 Z "/><text fill="#000000" font-family="sans-serif" font-size="12" lengthAdjust="spacingAndGlyphs" textLength="42" x="495.45" y="496.9102">Product</text><line style="stroke: #A80036; stroke-width: 1.5;" x1="440.5" x2="561.5" y1="508" y2="508"/><text fill="#000000" font-family="sans-serif" font-size="11" lengthAdjust="spacingAndGlyphs" textLength="83" x="445.5" y="523.4189">-String reference</text><text fill="#000000" font-family="sans-serif" font-size="11" lengthAdjust="spacingAndGlyphs" textLength="61" x="445.5" y="537.2549">-String name</text><text fill="#000000" font-family="sans-serif" font-size="11" lengthAdjust="spacingAndGlyphs" textLength="88" x="445.5" y="551.0908">-String description</text><text fill="#000000" font-family="sans-serif" font-size="11" lengthAdjust="spacingAndGlyphs" textLength="64" x="445.5" y="564.9268">-Double price</text><text fill="#000000" font-family="sans-serif" font-size="11" lengthAdjust="spacingAndGlyphs" textLength="73" x="445.5" y="578.7627">-Double weight</text><text fill="#000000" font-family="sans-serif" font-size="11" lengthAdjust="spacingAndGlyphs" textLength="75" x="445.5" y="592.5986">-Integer amount</text><line style="stroke: #A80036; stroke-width: 1.5;" x1="440.5" x2="561.5" y1="599.0156" y2="599.0156"/><text fill="#000000" font-family="sans-serif" font-size="11" lengthAdjust="spacingAndGlyphs" textLength="111" x="445.5" y="614.4346">+String getReference()</text><!--class Pharmacy--><rect fill="#FEFECE" filter="url(#f17d7umrjb6zg7)" height="103.3438" id="Pharmacy" style="stroke: #A80036; stroke-width: 1.5;" width="102" x="324" y="295"/><ellipse cx="345.75" cy="311" fill="#ADD1B2" rx="11" ry="11" style="stroke: #A80036; stroke-width: 1.0;"/><path d="M348.5156,306.875 Q348.6719,306.6563 348.8594,306.5469 Q349.0469,306.4375 349.2656,306.4375 Q349.6406,306.4375 349.875,306.6953 Q350.1094,306.9531 350.1094,307.5625 L350.1094,309.0156 Q350.1094,309.625 349.875,309.8906 Q349.6406,310.1563 349.2656,310.1563 Q348.9219,310.1563 348.7188,309.9531 Q348.5156,309.7656 348.4063,309.25 Q348.3594,308.8906 348.1719,308.7031 Q347.8438,308.3281 347.2344,308.1094 Q346.625,307.8906 346,307.8906 Q345.2344,307.8906 344.6016,308.2188 Q343.9688,308.5469 343.4766,309.2969 Q342.9844,310.0469 342.9844,311.0781 L342.9844,312.1719 Q342.9844,313.4063 343.875,314.2266 Q344.7656,315.0469 346.3594,315.0469 Q347.2969,315.0469 347.9531,314.7969 Q348.3438,314.6406 348.7656,314.2031 Q349.0313,313.9375 349.1797,313.8594 Q349.3281,313.7813 349.5313,313.7813 Q349.8594,313.7813 350.1172,314.0391 Q350.375,314.2969 350.375,314.6406 Q350.375,314.9844 350.0313,315.3906 Q349.5313,315.9688 348.7344,316.2969 Q347.6563,316.75 346.3594,316.75 Q344.8438,316.75 343.6406,316.125 Q342.6563,315.625 341.9688,314.5547 Q341.2813,313.4844 341.2813,312.2031 L341.2813,311.0469 Q341.2813,309.7188 341.8984,308.5703 Q342.5156,307.4219 343.6094,306.8047 Q344.7031,306.1875 345.9375,306.1875 Q346.6719,306.1875 347.3203,306.3516 Q347.9688,306.5156 348.5156,306.875 Z "/><text fill="#000000" font-family="sans-serif" font-size="12" lengthAdjust="spacingAndGlyphs" textLength="55" x="361.25" y="315.9102">Pharmacy</text><line style="stroke: #A80036; stroke-width: 1.5;" x1="325" x2="425" y1="327" y2="327"/><text fill="#000000" font-family="sans-serif" font-size="11" lengthAdjust="spacingAndGlyphs" textLength="90" x="330" y="342.4189">-String designation</text><text fill="#000000" font-family="sans-serif" font-size="11" lengthAdjust="spacingAndGlyphs" textLength="77" x="330" y="356.2549">-Adress adress</text><text fill="#000000" font-family="sans-serif" font-size="11" lengthAdjust="spacingAndGlyphs" textLength="81" x="330" y="370.0908">-Integer parkMax</text><line style="stroke: #A80036; stroke-width: 1.5;" x1="325" x2="425" y1="376.5078" y2="376.5078"/><text fill="#000000" font-family="sans-serif" font-size="11" lengthAdjust="spacingAndGlyphs" textLength="84" x="330" y="391.9268">+String getEmail()</text><!--class Administrator--><rect fill="#FEFECE" filter="url(#f17d7umrjb6zg7)" height="61.8359" id="Administrator" style="stroke: #A80036; stroke-width: 1.5;" width="105" x="662.5" y="315.5"/><ellipse cx="677.5" cy="331.5" fill="#ADD1B2" rx="11" ry="11" style="stroke: #A80036; stroke-width: 1.0;"/><path d="M680.2656,327.375 Q680.4219,327.1563 680.6094,327.0469 Q680.7969,326.9375 681.0156,326.9375 Q681.3906,326.9375 681.625,327.1953 Q681.8594,327.4531 681.8594,328.0625 L681.8594,329.5156 Q681.8594,330.125 681.625,330.3906 Q681.3906,330.6563 681.0156,330.6563 Q680.6719,330.6563 680.4688,330.4531 Q680.2656,330.2656 680.1563,329.75 Q680.1094,329.3906 679.9219,329.2031 Q679.5938,328.8281 678.9844,328.6094 Q678.375,328.3906 677.75,328.3906 Q676.9844,328.3906 676.3516,328.7188 Q675.7188,329.0469 675.2266,329.7969 Q674.7344,330.5469 674.7344,331.5781 L674.7344,332.6719 Q674.7344,333.9063 675.625,334.7266 Q676.5156,335.5469 678.1094,335.5469 Q679.0469,335.5469 679.7031,335.2969 Q680.0938,335.1406 680.5156,334.7031 Q680.7813,334.4375 680.9297,334.3594 Q681.0781,334.2813 681.2813,334.2813 Q681.6094,334.2813 681.8672,334.5391 Q682.125,334.7969 682.125,335.1406 Q682.125,335.4844 681.7813,335.8906 Q681.2813,336.4688 680.4844,336.7969 Q679.4063,337.25 678.1094,337.25 Q676.5938,337.25 675.3906,336.625 Q674.4063,336.125 673.7188,335.0547 Q673.0313,333.9844 673.0313,332.7031 L673.0313,331.5469 Q673.0313,330.2188 673.6484,329.0703 Q674.2656,327.9219 675.3594,327.3047 Q676.4531,326.6875 677.6875,326.6875 Q678.4219,326.6875 679.0703,326.8516 Q679.7188,327.0156 680.2656,327.375 Z "/><text fill="#000000" font-family="sans-serif" font-size="12" lengthAdjust="spacingAndGlyphs" textLength="73" x="691.5" y="336.4102">Administrator</text><line style="stroke: #A80036; stroke-width: 1.5;" x1="663.5" x2="766.5" y1="347.5" y2="347.5"/><text fill="#000000" font-family="sans-serif" font-size="11" lengthAdjust="spacingAndGlyphs" textLength="59" x="668.5" y="362.9189">-String email</text><line style="stroke: #A80036; stroke-width: 1.5;" x1="663.5" x2="766.5" y1="369.3359" y2="369.3359"/><!--link RemoveProductUI to RemoveProductController--><path d="M271,56.05 C271,71.28 271,92.04 271,111.92 " fill="none" id="RemoveProductUI-RemoveProductController" style="stroke: #A80036; stroke-width: 1.0; stroke-dasharray: 7.0,7.0;"/><polygon fill="#A80036" points="271,116.95,275,107.95,271,111.95,267,107.95,271,116.95" style="stroke: #A80036; stroke-width: 1.0;"/><!--link RemoveProductController to PharmacyDB--><path d="M216.73,234.19 C194.96,257.32 170.38,283.45 150.51,304.57 " fill="none" id="RemoveProductController-PharmacyDB" style="stroke: #A80036; stroke-width: 1.0; stroke-dasharray: 7.0,7.0;"/><polygon fill="#A80036" points="146.85,308.46,155.9231,304.6287,150.2692,304.8119,150.0861,299.158,146.85,308.46" style="stroke: #A80036; stroke-width: 1.0;"/><!--link RemoveProductController to Product--><path d="M268.69,234.11 C269.35,281.29 276.34,348.15 306,398 C336.26,448.86 390.99,488.5 434.79,514.15 " fill="none" id="RemoveProductController-Product" style="stroke: #A80036; stroke-width: 1.0; stroke-dasharray: 7.0,7.0;"/><polygon fill="#A80036" points="439.26,516.74,433.4867,508.7607,434.9365,514.2286,429.4685,515.6784,439.26,516.74" style="stroke: #A80036; stroke-width: 1.0;"/><!--link RemoveProductController to Pharmacy--><path d="M306.5,234.19 C317.67,252.35 329.98,272.35 341.05,290.33 " fill="none" id="RemoveProductController-Pharmacy" style="stroke: #A80036; stroke-width: 1.0; stroke-dasharray: 7.0,7.0;"/><polygon fill="#A80036" points="343.83,294.85,342.5289,285.0875,341.2135,290.5893,335.7117,289.2739,343.83,294.85" style="stroke: #A80036; stroke-width: 1.0;"/><!--link Administrator to Product--><path d="M682.5,377.88 C651.8,406.56 604.87,450.43 566.41,486.37 " fill="none" id="Administrator-Product" style="stroke: #A80036; stroke-width: 1.0;"/><polygon fill="#A80036" points="562.72,489.82,572.0283,486.6021,566.3748,486.4079,566.569,480.7544,562.72,489.82" style="stroke: #A80036; stroke-width: 1.0;"/><text fill="#000000" font-family="sans-serif" font-size="13" lengthAdjust="spacingAndGlyphs" textLength="109" x="628" y="442.4951">add/remove/update</text><text fill="#000000" font-family="sans-serif" font-size="13" lengthAdjust="spacingAndGlyphs" textLength="7" x="668.6375" y="398.9311">1</text><text fill="#000000" font-family="sans-serif" font-size="13" lengthAdjust="spacingAndGlyphs" textLength="5" x="570.5468" y="479.219">*</text><!--link Pharmacy to Product--><path d="M406.96,398.23 C421.76,421.72 439.61,450.05 455.76,475.69 " fill="none" id="Pharmacy-Product" style="stroke: #A80036; stroke-width: 1.0;"/><text fill="#000000" font-family="sans-serif" font-size="13" lengthAdjust="spacingAndGlyphs" textLength="21" x="436" y="442.4951">has</text><polygon fill="#000000" points="442,451.3516,445,457.3516,448,451.3516,442,451.3516" style="stroke: #000000; stroke-width: 1.0;"/><text fill="#000000" font-family="sans-serif" font-size="13" lengthAdjust="spacingAndGlyphs" textLength="7" x="403.7843" y="419.7519">1</text><text fill="#000000" font-family="sans-serif" font-size="13" lengthAdjust="spacingAndGlyphs" textLength="5" x="446.0606" y="465.255">*</text><!--link ProductDB to Product--><path d="M534.46,391.89 C529.16,416.51 522.45,447.74 516.43,475.75 " fill="none" id="ProductDB-Product" style="stroke: #A80036; stroke-width: 1.0;"/><text fill="#000000" font-family="sans-serif" font-size="13" lengthAdjust="spacingAndGlyphs" textLength="48" x="527" y="442.4951">removes</text><polygon fill="#000000" points="546.5,451.3516,549.5,457.3516,552.5,451.3516,546.5,451.3516" style="stroke: #000000; stroke-width: 1.0;"/><text fill="#000000" font-family="sans-serif" font-size="13" lengthAdjust="spacingAndGlyphs" textLength="7" x="525.7078" y="412.6161">1</text><text fill="#000000" font-family="sans-serif" font-size="13" lengthAdjust="spacingAndGlyphs" textLength="5" x="512.7634" y="464.9436">*</text><!--
@startuml
skinparam classAttributeIconSize 0

class RemoveProductUI {

}

class RemoveProductController {
  +List<Pharmacy> getPharmaciesList()
  +getPharmacyByEmail(PharmacyEmail)
  +List<Product> getProductsList()
  +getProductByReference(procuctReference)
  +removeProduct()
}

class PharmacyDB {
  +List<Pharmacy> getAllPharmacies()
  +Pharmacy getPharmacy(PharmacyEmail)
}

class ProductDB {
  +List<Product> getAllProducts()
  +getProduct(procuctReference)
  +remove(productReference)
}

class Product {
  -String reference
  -String name
  -String description
  -Double price
  -Double weight
  -Integer amount
  +String getReference()
}

class Pharmacy {
  -String designation
  -Adress adress
  -Integer parkMax
  +String getEmail()
}

class Administrator {
  -String email
}

RemoveProductUI ..> RemoveProductController
RemoveProductController ..> PharmacyDB
RemoveProductController ..> Product
RemoveProductController ..> Pharmacy

Administrator "1" - -> "*" Product : add/remove/update

Pharmacy "1" - - "*" Product : has >

ProductDB "1" - - "*" Product: removes >

@enduml

PlantUML version 1.2018.14(Fri Dec 21 16:33:16 GMT 2018)
(GPL source distribution)
Java Runtime: Java(TM) SE Runtime Environment
JVM: Java HotSpot(TM) 64-Bit Server VM
Java Version: 1.8.0_271-b09
Operating System: Windows 10
OS Version: 10.0
Default Encoding: Cp1252
Language: pt
Country: PT
--></g></svg>