<?xml version="1.0" encoding="UTF-8" standalone="no"?><svg xmlns="http://www.w3.org/2000/svg" xmlns:xlink="http://www.w3.org/1999/xlink" contentScriptType="application/ecmascript" contentStyleType="text/css" height="952px" preserveAspectRatio="none" style="width:1502px;height:952px;" version="1.1" viewBox="0 0 1502 952" width="1502px" zoomAndPan="magnify"><defs><filter height="300%" id="f28e4by18k6t0" width="300%" x="-1" y="-1"><feGaussianBlur result="blurOut" stdDeviation="2.0"/><feColorMatrix in="blurOut" result="blurOut2" type="matrix" values="0 0 0 0 0 0 0 0 0 0 0 0 0 0 0 0 0 0 .4 0"/><feOffset dx="4.0" dy="4.0" in="blurOut2" result="blurOut3"/><feBlend in="SourceGraphic" in2="blurOut3" mode="normal"/></filter></defs><g><!--class Platform--><rect fill="#FEFECE" filter="url(#f28e4by18k6t0)" height="53.8359" id="Platform" style="stroke: #A80036; stroke-width: 1.5;" width="112" x="6" y="298.5"/><ellipse cx="36.3" cy="314.5" fill="#ADD1B2" rx="11" ry="11" style="stroke: #A80036; stroke-width: 1.0;"/><path d="M39.0656,310.375 Q39.2219,310.1563 39.4094,310.0469 Q39.5969,309.9375 39.8156,309.9375 Q40.1906,309.9375 40.425,310.1953 Q40.6594,310.4531 40.6594,311.0625 L40.6594,312.5156 Q40.6594,313.125 40.425,313.3906 Q40.1906,313.6563 39.8156,313.6563 Q39.4719,313.6563 39.2688,313.4531 Q39.0656,313.2656 38.9563,312.75 Q38.9094,312.3906 38.7219,312.2031 Q38.3938,311.8281 37.7844,311.6094 Q37.175,311.3906 36.55,311.3906 Q35.7844,311.3906 35.1516,311.7188 Q34.5188,312.0469 34.0266,312.7969 Q33.5344,313.5469 33.5344,314.5781 L33.5344,315.6719 Q33.5344,316.9063 34.425,317.7266 Q35.3156,318.5469 36.9094,318.5469 Q37.8469,318.5469 38.5031,318.2969 Q38.8938,318.1406 39.3156,317.7031 Q39.5813,317.4375 39.7297,317.3594 Q39.8781,317.2813 40.0813,317.2813 Q40.4094,317.2813 40.6672,317.5391 Q40.925,317.7969 40.925,318.1406 Q40.925,318.4844 40.5813,318.8906 Q40.0813,319.4688 39.2844,319.7969 Q38.2063,320.25 36.9094,320.25 Q35.3938,320.25 34.1906,319.625 Q33.2063,319.125 32.5188,318.0547 Q31.8313,316.9844 31.8313,315.7031 L31.8313,314.5469 Q31.8313,313.2188 32.4484,312.0703 Q33.0656,310.9219 34.1594,310.3047 Q35.2531,309.6875 36.4875,309.6875 Q37.2219,309.6875 37.8703,309.8516 Q38.5188,310.0156 39.0656,310.375 Z "/><text fill="#000000" font-family="sans-serif" font-size="12" lengthAdjust="spacingAndGlyphs" textLength="46" x="53.7" y="319.4102">Platform</text><line style="stroke: #A80036; stroke-width: 1.5;" x1="7" x2="117" y1="330.5" y2="330.5"/><rect fill="none" height="6" style="stroke: #C82930; stroke-width: 1.0;" width="6" x="14" y="339.918"/><text fill="#000000" font-family="sans-serif" font-size="11" lengthAdjust="spacingAndGlyphs" textLength="86" x="26" y="345.9189">String designation</text><!--class User--><rect fill="#FEFECE" filter="url(#f28e4by18k6t0)" height="81.5078" id="User" style="stroke: #A80036; stroke-width: 1.5;" width="107" x="896.5" y="289.5"/><ellipse cx="933.1" cy="305.5" fill="#ADD1B2" rx="11" ry="11" style="stroke: #A80036; stroke-width: 1.0;"/><path d="M935.8656,301.375 Q936.0219,301.1563 936.2094,301.0469 Q936.3969,300.9375 936.6156,300.9375 Q936.9906,300.9375 937.225,301.1953 Q937.4594,301.4531 937.4594,302.0625 L937.4594,303.5156 Q937.4594,304.125 937.225,304.3906 Q936.9906,304.6563 936.6156,304.6563 Q936.2719,304.6563 936.0688,304.4531 Q935.8656,304.2656 935.7563,303.75 Q935.7094,303.3906 935.5219,303.2031 Q935.1938,302.8281 934.5844,302.6094 Q933.975,302.3906 933.35,302.3906 Q932.5844,302.3906 931.9516,302.7188 Q931.3188,303.0469 930.8266,303.7969 Q930.3344,304.5469 930.3344,305.5781 L930.3344,306.6719 Q930.3344,307.9063 931.225,308.7266 Q932.1156,309.5469 933.7094,309.5469 Q934.6469,309.5469 935.3031,309.2969 Q935.6938,309.1406 936.1156,308.7031 Q936.3813,308.4375 936.5297,308.3594 Q936.6781,308.2813 936.8813,308.2813 Q937.2094,308.2813 937.4672,308.5391 Q937.725,308.7969 937.725,309.1406 Q937.725,309.4844 937.3813,309.8906 Q936.8813,310.4688 936.0844,310.7969 Q935.0063,311.25 933.7094,311.25 Q932.1938,311.25 930.9906,310.625 Q930.0063,310.125 929.3188,309.0547 Q928.6313,307.9844 928.6313,306.7031 L928.6313,305.5469 Q928.6313,304.2188 929.2484,303.0703 Q929.8656,301.9219 930.9594,301.3047 Q932.0531,300.6875 933.2875,300.6875 Q934.0219,300.6875 934.6703,300.8516 Q935.3188,301.0156 935.8656,301.375 Z "/><text fill="#000000" font-family="sans-serif" font-size="12" lengthAdjust="spacingAndGlyphs" textLength="27" x="951.9" y="310.4102">User</text><line style="stroke: #A80036; stroke-width: 1.5;" x1="897.5" x2="1002.5" y1="321.5" y2="321.5"/><rect fill="none" height="6" style="stroke: #C82930; stroke-width: 1.0;" width="6" x="904.5" y="330.918"/><text fill="#000000" font-family="sans-serif" font-size="11" lengthAdjust="spacingAndGlyphs" textLength="57" x="916.5" y="336.9189">String name</text><rect fill="none" height="6" style="stroke: #C82930; stroke-width: 1.0;" width="6" x="904.5" y="344.7539"/><text fill="#000000" font-family="sans-serif" font-size="11" lengthAdjust="spacingAndGlyphs" textLength="55" x="916.5" y="350.7549">String email</text><rect fill="none" height="6" style="stroke: #C82930; stroke-width: 1.0;" width="6" x="904.5" y="358.5898"/><text fill="#000000" font-family="sans-serif" font-size="11" lengthAdjust="spacingAndGlyphs" textLength="81" x="916.5" y="364.5908">String password</text><!--class Administrator--><rect fill="#FEFECE" filter="url(#f28e4by18k6t0)" height="53.8359" id="Administrator" style="stroke: #A80036; stroke-width: 1.5;" width="105" x="275" y="450.5"/><ellipse cx="290" cy="466.5" fill="#ADD1B2" rx="11" ry="11" style="stroke: #A80036; stroke-width: 1.0;"/><path d="M292.7656,462.375 Q292.9219,462.1563 293.1094,462.0469 Q293.2969,461.9375 293.5156,461.9375 Q293.8906,461.9375 294.125,462.1953 Q294.3594,462.4531 294.3594,463.0625 L294.3594,464.5156 Q294.3594,465.125 294.125,465.3906 Q293.8906,465.6563 293.5156,465.6563 Q293.1719,465.6563 292.9688,465.4531 Q292.7656,465.2656 292.6563,464.75 Q292.6094,464.3906 292.4219,464.2031 Q292.0938,463.8281 291.4844,463.6094 Q290.875,463.3906 290.25,463.3906 Q289.4844,463.3906 288.8516,463.7188 Q288.2188,464.0469 287.7266,464.7969 Q287.2344,465.5469 287.2344,466.5781 L287.2344,467.6719 Q287.2344,468.9063 288.125,469.7266 Q289.0156,470.5469 290.6094,470.5469 Q291.5469,470.5469 292.2031,470.2969 Q292.5938,470.1406 293.0156,469.7031 Q293.2813,469.4375 293.4297,469.3594 Q293.5781,469.2813 293.7813,469.2813 Q294.1094,469.2813 294.3672,469.5391 Q294.625,469.7969 294.625,470.1406 Q294.625,470.4844 294.2813,470.8906 Q293.7813,471.4688 292.9844,471.7969 Q291.9063,472.25 290.6094,472.25 Q289.0938,472.25 287.8906,471.625 Q286.9063,471.125 286.2188,470.0547 Q285.5313,468.9844 285.5313,467.7031 L285.5313,466.5469 Q285.5313,465.2188 286.1484,464.0703 Q286.7656,462.9219 287.8594,462.3047 Q288.9531,461.6875 290.1875,461.6875 Q290.9219,461.6875 291.5703,461.8516 Q292.2188,462.0156 292.7656,462.375 Z "/><text fill="#000000" font-family="sans-serif" font-size="12" lengthAdjust="spacingAndGlyphs" textLength="73" x="304" y="471.4102">Administrator</text><line style="stroke: #A80036; stroke-width: 1.5;" x1="276" x2="379" y1="482.5" y2="482.5"/><rect fill="none" height="6" style="stroke: #C82930; stroke-width: 1.0;" width="6" x="283" y="491.918"/><text fill="#000000" font-family="sans-serif" font-size="11" lengthAdjust="spacingAndGlyphs" textLength="55" x="295" y="497.9189">String email</text><!--class Client--><rect fill="#FEFECE" filter="url(#f28e4by18k6t0)" height="109.1797" id="Client" style="stroke: #A80036; stroke-width: 1.5;" width="144" x="548.5" y="55"/><ellipse cx="600.25" cy="71" fill="#ADD1B2" rx="11" ry="11" style="stroke: #A80036; stroke-width: 1.0;"/><path d="M603.0156,66.875 Q603.1719,66.6563 603.3594,66.5469 Q603.5469,66.4375 603.7656,66.4375 Q604.1406,66.4375 604.375,66.6953 Q604.6094,66.9531 604.6094,67.5625 L604.6094,69.0156 Q604.6094,69.625 604.375,69.8906 Q604.1406,70.1563 603.7656,70.1563 Q603.4219,70.1563 603.2188,69.9531 Q603.0156,69.7656 602.9063,69.25 Q602.8594,68.8906 602.6719,68.7031 Q602.3438,68.3281 601.7344,68.1094 Q601.125,67.8906 600.5,67.8906 Q599.7344,67.8906 599.1016,68.2188 Q598.4688,68.5469 597.9766,69.2969 Q597.4844,70.0469 597.4844,71.0781 L597.4844,72.1719 Q597.4844,73.4063 598.375,74.2266 Q599.2656,75.0469 600.8594,75.0469 Q601.7969,75.0469 602.4531,74.7969 Q602.8438,74.6406 603.2656,74.2031 Q603.5313,73.9375 603.6797,73.8594 Q603.8281,73.7813 604.0313,73.7813 Q604.3594,73.7813 604.6172,74.0391 Q604.875,74.2969 604.875,74.6406 Q604.875,74.9844 604.5313,75.3906 Q604.0313,75.9688 603.2344,76.2969 Q602.1563,76.75 600.8594,76.75 Q599.3438,76.75 598.1406,76.125 Q597.1563,75.625 596.4688,74.5547 Q595.7813,73.4844 595.7813,72.2031 L595.7813,71.0469 Q595.7813,69.7188 596.3984,68.5703 Q597.0156,67.4219 598.1094,66.8047 Q599.2031,66.1875 600.4375,66.1875 Q601.1719,66.1875 601.8203,66.3516 Q602.4688,66.5156 603.0156,66.875 Z "/><text fill="#000000" font-family="sans-serif" font-size="12" lengthAdjust="spacingAndGlyphs" textLength="32" x="620.75" y="75.9102">Client</text><line style="stroke: #A80036; stroke-width: 1.5;" x1="549.5" x2="691.5" y1="87" y2="87"/><rect fill="none" height="6" style="stroke: #C82930; stroke-width: 1.0;" width="6" x="556.5" y="96.418"/><text fill="#000000" font-family="sans-serif" font-size="11" lengthAdjust="spacingAndGlyphs" textLength="57" x="568.5" y="102.4189">String name</text><rect fill="none" height="6" style="stroke: #C82930; stroke-width: 1.0;" width="6" x="556.5" y="110.2539"/><text fill="#000000" font-family="sans-serif" font-size="11" lengthAdjust="spacingAndGlyphs" textLength="55" x="568.5" y="116.2549">String email</text><rect fill="none" height="6" style="stroke: #C82930; stroke-width: 1.0;" width="6" x="556.5" y="124.0898"/><text fill="#000000" font-family="sans-serif" font-size="11" lengthAdjust="spacingAndGlyphs" textLength="118" x="568.5" y="130.0908">String creditCardNumber</text><rect fill="none" height="6" style="stroke: #C82930; stroke-width: 1.0;" width="6" x="556.5" y="137.9258"/><text fill="#000000" font-family="sans-serif" font-size="11" lengthAdjust="spacingAndGlyphs" textLength="80" x="568.5" y="143.9268">Date validityDate</text><rect fill="none" height="6" style="stroke: #C82930; stroke-width: 1.0;" width="6" x="556.5" y="151.7617"/><text fill="#000000" font-family="sans-serif" font-size="11" lengthAdjust="spacingAndGlyphs" textLength="54" x="568.5" y="157.7627">Integer ccv</text><!--class Pharmacy--><rect fill="#FEFECE" filter="url(#f28e4by18k6t0)" height="67.6719" id="Pharmacy" style="stroke: #A80036; stroke-width: 1.5;" width="112" x="894" y="609.5"/><ellipse cx="920.25" cy="625.5" fill="#ADD1B2" rx="11" ry="11" style="stroke: #A80036; stroke-width: 1.0;"/><path d="M923.0156,621.375 Q923.1719,621.1563 923.3594,621.0469 Q923.5469,620.9375 923.7656,620.9375 Q924.1406,620.9375 924.375,621.1953 Q924.6094,621.4531 924.6094,622.0625 L924.6094,623.5156 Q924.6094,624.125 924.375,624.3906 Q924.1406,624.6563 923.7656,624.6563 Q923.4219,624.6563 923.2188,624.4531 Q923.0156,624.2656 922.9063,623.75 Q922.8594,623.3906 922.6719,623.2031 Q922.3438,622.8281 921.7344,622.6094 Q921.125,622.3906 920.5,622.3906 Q919.7344,622.3906 919.1016,622.7188 Q918.4688,623.0469 917.9766,623.7969 Q917.4844,624.5469 917.4844,625.5781 L917.4844,626.6719 Q917.4844,627.9063 918.375,628.7266 Q919.2656,629.5469 920.8594,629.5469 Q921.7969,629.5469 922.4531,629.2969 Q922.8438,629.1406 923.2656,628.7031 Q923.5313,628.4375 923.6797,628.3594 Q923.8281,628.2813 924.0313,628.2813 Q924.3594,628.2813 924.6172,628.5391 Q924.875,628.7969 924.875,629.1406 Q924.875,629.4844 924.5313,629.8906 Q924.0313,630.4688 923.2344,630.7969 Q922.1563,631.25 920.8594,631.25 Q919.3438,631.25 918.1406,630.625 Q917.1563,630.125 916.4688,629.0547 Q915.7813,627.9844 915.7813,626.7031 L915.7813,625.5469 Q915.7813,624.2188 916.3984,623.0703 Q917.0156,621.9219 918.1094,621.3047 Q919.2031,620.6875 920.4375,620.6875 Q921.1719,620.6875 921.8203,620.8516 Q922.4688,621.0156 923.0156,621.375 Z "/><text fill="#000000" font-family="sans-serif" font-size="12" lengthAdjust="spacingAndGlyphs" textLength="55" x="936.75" y="630.4102">Pharmacy</text><line style="stroke: #A80036; stroke-width: 1.5;" x1="895" x2="1005" y1="641.5" y2="641.5"/><rect fill="none" height="6" style="stroke: #C82930; stroke-width: 1.0;" width="6" x="902" y="650.918"/><text fill="#000000" font-family="sans-serif" font-size="11" lengthAdjust="spacingAndGlyphs" textLength="86" x="914" y="656.9189">String designation</text><rect fill="none" height="6" style="stroke: #C82930; stroke-width: 1.0;" width="6" x="902" y="664.7539"/><text fill="#000000" font-family="sans-serif" font-size="11" lengthAdjust="spacingAndGlyphs" textLength="55" x="914" y="670.7549">String email</text><!--class Address--><rect fill="#FEFECE" filter="url(#f28e4by18k6t0)" height="123.0156" id="Address" style="stroke: #A80036; stroke-width: 1.5;" width="136" x="1355" y="32"/><ellipse cx="1396.1" cy="48" fill="#ADD1B2" rx="11" ry="11" style="stroke: #A80036; stroke-width: 1.0;"/><path d="M1398.8656,43.875 Q1399.0219,43.6563 1399.2094,43.5469 Q1399.3969,43.4375 1399.6156,43.4375 Q1399.9906,43.4375 1400.225,43.6953 Q1400.4594,43.9531 1400.4594,44.5625 L1400.4594,46.0156 Q1400.4594,46.625 1400.225,46.8906 Q1399.9906,47.1563 1399.6156,47.1563 Q1399.2719,47.1563 1399.0688,46.9531 Q1398.8656,46.7656 1398.7563,46.25 Q1398.7094,45.8906 1398.5219,45.7031 Q1398.1938,45.3281 1397.5844,45.1094 Q1396.975,44.8906 1396.35,44.8906 Q1395.5844,44.8906 1394.9516,45.2188 Q1394.3188,45.5469 1393.8266,46.2969 Q1393.3344,47.0469 1393.3344,48.0781 L1393.3344,49.1719 Q1393.3344,50.4063 1394.225,51.2266 Q1395.1156,52.0469 1396.7094,52.0469 Q1397.6469,52.0469 1398.3031,51.7969 Q1398.6938,51.6406 1399.1156,51.2031 Q1399.3813,50.9375 1399.5297,50.8594 Q1399.6781,50.7813 1399.8813,50.7813 Q1400.2094,50.7813 1400.4672,51.0391 Q1400.725,51.2969 1400.725,51.6406 Q1400.725,51.9844 1400.3813,52.3906 Q1399.8813,52.9688 1399.0844,53.2969 Q1398.0063,53.75 1396.7094,53.75 Q1395.1938,53.75 1393.9906,53.125 Q1393.0063,52.625 1392.3188,51.5547 Q1391.6313,50.4844 1391.6313,49.2031 L1391.6313,48.0469 Q1391.6313,46.7188 1392.2484,45.5703 Q1392.8656,44.4219 1393.9594,43.8047 Q1395.0531,43.1875 1396.2875,43.1875 Q1397.0219,43.1875 1397.6703,43.3516 Q1398.3188,43.5156 1398.8656,43.875 Z "/><text fill="#000000" font-family="sans-serif" font-size="12" lengthAdjust="spacingAndGlyphs" textLength="46" x="1415.9" y="52.9102">Address</text><line style="stroke: #A80036; stroke-width: 1.5;" x1="1356" x2="1490" y1="64" y2="64"/><rect fill="none" height="6" style="stroke: #C82930; stroke-width: 1.0;" width="6" x="1363" y="73.418"/><text fill="#000000" font-family="sans-serif" font-size="11" lengthAdjust="spacingAndGlyphs" textLength="59" x="1375" y="79.4189">String street</text><rect fill="none" height="6" style="stroke: #C82930; stroke-width: 1.0;" width="6" x="1363" y="87.2539"/><text fill="#000000" font-family="sans-serif" font-size="11" lengthAdjust="spacingAndGlyphs" textLength="85" x="1375" y="93.2549">String postalCode</text><rect fill="none" height="6" style="stroke: #C82930; stroke-width: 1.0;" width="6" x="1363" y="101.0898"/><text fill="#000000" font-family="sans-serif" font-size="11" lengthAdjust="spacingAndGlyphs" textLength="72" x="1375" y="107.0908">Integer number</text><rect fill="none" height="6" style="stroke: #C82930; stroke-width: 1.0;" width="6" x="1363" y="114.9258"/><text fill="#000000" font-family="sans-serif" font-size="11" lengthAdjust="spacingAndGlyphs" textLength="64" x="1375" y="120.9268">String locality</text><rect fill="none" height="6" style="stroke: #C82930; stroke-width: 1.0;" width="6" x="1363" y="128.7617"/><text fill="#000000" font-family="sans-serif" font-size="11" lengthAdjust="spacingAndGlyphs" textLength="110" x="1375" y="134.7627">String GPSCoordinates</text><rect fill="none" height="6" style="stroke: #C82930; stroke-width: 1.0;" width="6" x="1363" y="142.5977"/><text fill="#000000" font-family="sans-serif" font-size="11" lengthAdjust="spacingAndGlyphs" textLength="79" x="1375" y="148.5986">Integer elevation</text><!--class Order--><rect fill="#FEFECE" filter="url(#f28e4by18k6t0)" height="67.6719" id="Order" style="stroke: #A80036; stroke-width: 1.5;" width="106" x="1130.5" y="59.5"/><ellipse cx="1164.85" cy="75.5" fill="#ADD1B2" rx="11" ry="11" style="stroke: #A80036; stroke-width: 1.0;"/><path d="M1167.6156,71.375 Q1167.7719,71.1563 1167.9594,71.0469 Q1168.1469,70.9375 1168.3656,70.9375 Q1168.7406,70.9375 1168.975,71.1953 Q1169.2094,71.4531 1169.2094,72.0625 L1169.2094,73.5156 Q1169.2094,74.125 1168.975,74.3906 Q1168.7406,74.6563 1168.3656,74.6563 Q1168.0219,74.6563 1167.8188,74.4531 Q1167.6156,74.2656 1167.5063,73.75 Q1167.4594,73.3906 1167.2719,73.2031 Q1166.9438,72.8281 1166.3344,72.6094 Q1165.725,72.3906 1165.1,72.3906 Q1164.3344,72.3906 1163.7016,72.7188 Q1163.0688,73.0469 1162.5766,73.7969 Q1162.0844,74.5469 1162.0844,75.5781 L1162.0844,76.6719 Q1162.0844,77.9063 1162.975,78.7266 Q1163.8656,79.5469 1165.4594,79.5469 Q1166.3969,79.5469 1167.0531,79.2969 Q1167.4438,79.1406 1167.8656,78.7031 Q1168.1313,78.4375 1168.2797,78.3594 Q1168.4281,78.2813 1168.6313,78.2813 Q1168.9594,78.2813 1169.2172,78.5391 Q1169.475,78.7969 1169.475,79.1406 Q1169.475,79.4844 1169.1313,79.8906 Q1168.6313,80.4688 1167.8344,80.7969 Q1166.7563,81.25 1165.4594,81.25 Q1163.9438,81.25 1162.7406,80.625 Q1161.7563,80.125 1161.0688,79.0547 Q1160.3813,77.9844 1160.3813,76.7031 L1160.3813,75.5469 Q1160.3813,74.2188 1160.9984,73.0703 Q1161.6156,71.9219 1162.7094,71.3047 Q1163.8031,70.6875 1165.0375,70.6875 Q1165.7719,70.6875 1166.4203,70.8516 Q1167.0688,71.0156 1167.6156,71.375 Z "/><text fill="#000000" font-family="sans-serif" font-size="12" lengthAdjust="spacingAndGlyphs" textLength="31" x="1183.15" y="80.4102">Order</text><line style="stroke: #A80036; stroke-width: 1.5;" x1="1131.5" x2="1235.5" y1="91.5" y2="91.5"/><rect fill="none" height="6" style="stroke: #C82930; stroke-width: 1.0;" width="6" x="1138.5" y="100.918"/><text fill="#000000" font-family="sans-serif" font-size="11" lengthAdjust="spacingAndGlyphs" textLength="72" x="1150.5" y="106.9189">Integer idOrder</text><rect fill="none" height="6" style="stroke: #C82930; stroke-width: 1.0;" width="6" x="1138.5" y="114.7539"/><text fill="#000000" font-family="sans-serif" font-size="11" lengthAdjust="spacingAndGlyphs" textLength="80" x="1150.5" y="120.7549">Double finalPrice</text><!--class Scooter--><rect fill="#FEFECE" filter="url(#f28e4by18k6t0)" height="123.0156" id="Scooter" style="stroke: #A80036; stroke-width: 1.5;" width="117" x="1125" y="234"/><ellipse cx="1159.35" cy="250" fill="#ADD1B2" rx="11" ry="11" style="stroke: #A80036; stroke-width: 1.0;"/><path d="M1162.1156,245.875 Q1162.2719,245.6563 1162.4594,245.5469 Q1162.6469,245.4375 1162.8656,245.4375 Q1163.2406,245.4375 1163.475,245.6953 Q1163.7094,245.9531 1163.7094,246.5625 L1163.7094,248.0156 Q1163.7094,248.625 1163.475,248.8906 Q1163.2406,249.1563 1162.8656,249.1563 Q1162.5219,249.1563 1162.3188,248.9531 Q1162.1156,248.7656 1162.0063,248.25 Q1161.9594,247.8906 1161.7719,247.7031 Q1161.4438,247.3281 1160.8344,247.1094 Q1160.225,246.8906 1159.6,246.8906 Q1158.8344,246.8906 1158.2016,247.2188 Q1157.5688,247.5469 1157.0766,248.2969 Q1156.5844,249.0469 1156.5844,250.0781 L1156.5844,251.1719 Q1156.5844,252.4063 1157.475,253.2266 Q1158.3656,254.0469 1159.9594,254.0469 Q1160.8969,254.0469 1161.5531,253.7969 Q1161.9438,253.6406 1162.3656,253.2031 Q1162.6313,252.9375 1162.7797,252.8594 Q1162.9281,252.7813 1163.1313,252.7813 Q1163.4594,252.7813 1163.7172,253.0391 Q1163.975,253.2969 1163.975,253.6406 Q1163.975,253.9844 1163.6313,254.3906 Q1163.1313,254.9688 1162.3344,255.2969 Q1161.2563,255.75 1159.9594,255.75 Q1158.4438,255.75 1157.2406,255.125 Q1156.2563,254.625 1155.5688,253.5547 Q1154.8813,252.4844 1154.8813,251.2031 L1154.8813,250.0469 Q1154.8813,248.7188 1155.4984,247.5703 Q1156.1156,246.4219 1157.2094,245.8047 Q1158.3031,245.1875 1159.5375,245.1875 Q1160.2719,245.1875 1160.9203,245.3516 Q1161.5688,245.5156 1162.1156,245.875 Z "/><text fill="#000000" font-family="sans-serif" font-size="12" lengthAdjust="spacingAndGlyphs" textLength="42" x="1177.65" y="254.9102">Scooter</text><line style="stroke: #A80036; stroke-width: 1.5;" x1="1126" x2="1241" y1="266" y2="266"/><rect fill="none" height="6" style="stroke: #C82930; stroke-width: 1.0;" width="6" x="1133" y="275.418"/><text fill="#000000" font-family="sans-serif" font-size="11" lengthAdjust="spacingAndGlyphs" textLength="39" x="1145" y="281.4189">String id</text><rect fill="none" height="6" style="stroke: #C82930; stroke-width: 1.0;" width="6" x="1133" y="289.2539"/><text fill="#000000" font-family="sans-serif" font-size="11" lengthAdjust="spacingAndGlyphs" textLength="77" x="1145" y="295.2549">Double capacity</text><rect fill="none" height="6" style="stroke: #C82930; stroke-width: 1.0;" width="6" x="1133" y="303.0898"/><text fill="#000000" font-family="sans-serif" font-size="11" lengthAdjust="spacingAndGlyphs" textLength="68" x="1145" y="309.0908">Double power</text><rect fill="none" height="6" style="stroke: #C82930; stroke-width: 1.0;" width="6" x="1133" y="316.9258"/><text fill="#000000" font-family="sans-serif" font-size="11" lengthAdjust="spacingAndGlyphs" textLength="91" x="1145" y="322.9268">Double maxBattery</text><rect fill="none" height="6" style="stroke: #C82930; stroke-width: 1.0;" width="6" x="1133" y="330.7617"/><text fill="#000000" font-family="sans-serif" font-size="11" lengthAdjust="spacingAndGlyphs" textLength="70" x="1145" y="336.7627">Integer battery</text><rect fill="none" height="6" style="stroke: #C82930; stroke-width: 1.0;" width="6" x="1133" y="344.5977"/><text fill="#000000" font-family="sans-serif" font-size="11" lengthAdjust="spacingAndGlyphs" textLength="69" x="1145" y="350.5986">Double weight</text><!--class Drone--><rect fill="#FEFECE" filter="url(#f28e4by18k6t0)" height="123.0156" id="Drone" style="stroke: #A80036; stroke-width: 1.5;" width="117" x="1125" y="818"/><ellipse cx="1162.95" cy="834" fill="#ADD1B2" rx="11" ry="11" style="stroke: #A80036; stroke-width: 1.0;"/><path d="M1165.7156,829.875 Q1165.8719,829.6563 1166.0594,829.5469 Q1166.2469,829.4375 1166.4656,829.4375 Q1166.8406,829.4375 1167.075,829.6953 Q1167.3094,829.9531 1167.3094,830.5625 L1167.3094,832.0156 Q1167.3094,832.625 1167.075,832.8906 Q1166.8406,833.1563 1166.4656,833.1563 Q1166.1219,833.1563 1165.9188,832.9531 Q1165.7156,832.7656 1165.6063,832.25 Q1165.5594,831.8906 1165.3719,831.7031 Q1165.0438,831.3281 1164.4344,831.1094 Q1163.825,830.8906 1163.2,830.8906 Q1162.4344,830.8906 1161.8016,831.2188 Q1161.1688,831.5469 1160.6766,832.2969 Q1160.1844,833.0469 1160.1844,834.0781 L1160.1844,835.1719 Q1160.1844,836.4063 1161.075,837.2266 Q1161.9656,838.0469 1163.5594,838.0469 Q1164.4969,838.0469 1165.1531,837.7969 Q1165.5438,837.6406 1165.9656,837.2031 Q1166.2313,836.9375 1166.3797,836.8594 Q1166.5281,836.7813 1166.7313,836.7813 Q1167.0594,836.7813 1167.3172,837.0391 Q1167.575,837.2969 1167.575,837.6406 Q1167.575,837.9844 1167.2313,838.3906 Q1166.7313,838.9688 1165.9344,839.2969 Q1164.8563,839.75 1163.5594,839.75 Q1162.0438,839.75 1160.8406,839.125 Q1159.8563,838.625 1159.1688,837.5547 Q1158.4813,836.4844 1158.4813,835.2031 L1158.4813,834.0469 Q1158.4813,832.7188 1159.0984,831.5703 Q1159.7156,830.4219 1160.8094,829.8047 Q1161.9031,829.1875 1163.1375,829.1875 Q1163.8719,829.1875 1164.5203,829.3516 Q1165.1688,829.5156 1165.7156,829.875 Z "/><text fill="#000000" font-family="sans-serif" font-size="12" lengthAdjust="spacingAndGlyphs" textLength="34" x="1182.05" y="838.9102">Drone</text><line style="stroke: #A80036; stroke-width: 1.5;" x1="1126" x2="1241" y1="850" y2="850"/><rect fill="none" height="6" style="stroke: #C82930; stroke-width: 1.0;" width="6" x="1133" y="859.418"/><text fill="#000000" font-family="sans-serif" font-size="11" lengthAdjust="spacingAndGlyphs" textLength="44" x="1145" y="865.4189">Integer id</text><rect fill="none" height="6" style="stroke: #C82930; stroke-width: 1.0;" width="6" x="1133" y="873.2539"/><text fill="#000000" font-family="sans-serif" font-size="11" lengthAdjust="spacingAndGlyphs" textLength="77" x="1145" y="879.2549">Double capacity</text><rect fill="none" height="6" style="stroke: #C82930; stroke-width: 1.0;" width="6" x="1133" y="887.0898"/><text fill="#000000" font-family="sans-serif" font-size="11" lengthAdjust="spacingAndGlyphs" textLength="68" x="1145" y="893.0908">Double power</text><rect fill="none" height="6" style="stroke: #C82930; stroke-width: 1.0;" width="6" x="1133" y="900.9258"/><text fill="#000000" font-family="sans-serif" font-size="11" lengthAdjust="spacingAndGlyphs" textLength="91" x="1145" y="906.9268">Double maxBattery</text><rect fill="none" height="6" style="stroke: #C82930; stroke-width: 1.0;" width="6" x="1133" y="914.7617"/><text fill="#000000" font-family="sans-serif" font-size="11" lengthAdjust="spacingAndGlyphs" textLength="70" x="1145" y="920.7627">Integer battery</text><rect fill="none" height="6" style="stroke: #C82930; stroke-width: 1.0;" width="6" x="1133" y="928.5977"/><text fill="#000000" font-family="sans-serif" font-size="11" lengthAdjust="spacingAndGlyphs" textLength="69" x="1145" y="934.5986">Double weight</text><!--class Product--><rect fill="#FEFECE" filter="url(#f28e4by18k6t0)" height="109.1797" id="Product" style="stroke: #A80036; stroke-width: 1.5;" width="110" x="1368" y="396"/><ellipse cx="1399.2" cy="412" fill="#ADD1B2" rx="11" ry="11" style="stroke: #A80036; stroke-width: 1.0;"/><path d="M1401.9656,407.875 Q1402.1219,407.6563 1402.3094,407.5469 Q1402.4969,407.4375 1402.7156,407.4375 Q1403.0906,407.4375 1403.325,407.6953 Q1403.5594,407.9531 1403.5594,408.5625 L1403.5594,410.0156 Q1403.5594,410.625 1403.325,410.8906 Q1403.0906,411.1563 1402.7156,411.1563 Q1402.3719,411.1563 1402.1688,410.9531 Q1401.9656,410.7656 1401.8563,410.25 Q1401.8094,409.8906 1401.6219,409.7031 Q1401.2938,409.3281 1400.6844,409.1094 Q1400.075,408.8906 1399.45,408.8906 Q1398.6844,408.8906 1398.0516,409.2188 Q1397.4188,409.5469 1396.9266,410.2969 Q1396.4344,411.0469 1396.4344,412.0781 L1396.4344,413.1719 Q1396.4344,414.4063 1397.325,415.2266 Q1398.2156,416.0469 1399.8094,416.0469 Q1400.7469,416.0469 1401.4031,415.7969 Q1401.7938,415.6406 1402.2156,415.2031 Q1402.4813,414.9375 1402.6297,414.8594 Q1402.7781,414.7813 1402.9813,414.7813 Q1403.3094,414.7813 1403.5672,415.0391 Q1403.825,415.2969 1403.825,415.6406 Q1403.825,415.9844 1403.4813,416.3906 Q1402.9813,416.9688 1402.1844,417.2969 Q1401.1063,417.75 1399.8094,417.75 Q1398.2938,417.75 1397.0906,417.125 Q1396.1063,416.625 1395.4188,415.5547 Q1394.7313,414.4844 1394.7313,413.2031 L1394.7313,412.0469 Q1394.7313,410.7188 1395.3484,409.5703 Q1395.9656,408.4219 1397.0594,407.8047 Q1398.1531,407.1875 1399.3875,407.1875 Q1400.1219,407.1875 1400.7703,407.3516 Q1401.4188,407.5156 1401.9656,407.875 Z "/><text fill="#000000" font-family="sans-serif" font-size="12" lengthAdjust="spacingAndGlyphs" textLength="42" x="1416.8" y="416.9102">Product</text><line style="stroke: #A80036; stroke-width: 1.5;" x1="1369" x2="1477" y1="428" y2="428"/><rect fill="none" height="6" style="stroke: #C82930; stroke-width: 1.0;" width="6" x="1376" y="437.418"/><text fill="#000000" font-family="sans-serif" font-size="11" lengthAdjust="spacingAndGlyphs" textLength="79" x="1388" y="443.4189">String reference</text><rect fill="none" height="6" style="stroke: #C82930; stroke-width: 1.0;" width="6" x="1376" y="451.2539"/><text fill="#000000" font-family="sans-serif" font-size="11" lengthAdjust="spacingAndGlyphs" textLength="57" x="1388" y="457.2549">String name</text><rect fill="none" height="6" style="stroke: #C82930; stroke-width: 1.0;" width="6" x="1376" y="465.0898"/><text fill="#000000" font-family="sans-serif" font-size="11" lengthAdjust="spacingAndGlyphs" textLength="84" x="1388" y="471.0908">String description</text><rect fill="none" height="6" style="stroke: #C82930; stroke-width: 1.0;" width="6" x="1376" y="478.9258"/><text fill="#000000" font-family="sans-serif" font-size="11" lengthAdjust="spacingAndGlyphs" textLength="60" x="1388" y="484.9268">Double price</text><rect fill="none" height="6" style="stroke: #C82930; stroke-width: 1.0;" width="6" x="1376" y="492.7617"/><text fill="#000000" font-family="sans-serif" font-size="11" lengthAdjust="spacingAndGlyphs" textLength="69" x="1388" y="498.7627">Double weight</text><!--class Courier--><rect fill="#FEFECE" filter="url(#f28e4by18k6t0)" height="95.3438" id="Courier" style="stroke: #A80036; stroke-width: 1.5;" width="167" x="537" y="430"/><ellipse cx="595.75" cy="446" fill="#ADD1B2" rx="11" ry="11" style="stroke: #A80036; stroke-width: 1.0;"/><path d="M598.5156,441.875 Q598.6719,441.6563 598.8594,441.5469 Q599.0469,441.4375 599.2656,441.4375 Q599.6406,441.4375 599.875,441.6953 Q600.1094,441.9531 600.1094,442.5625 L600.1094,444.0156 Q600.1094,444.625 599.875,444.8906 Q599.6406,445.1563 599.2656,445.1563 Q598.9219,445.1563 598.7188,444.9531 Q598.5156,444.7656 598.4063,444.25 Q598.3594,443.8906 598.1719,443.7031 Q597.8438,443.3281 597.2344,443.1094 Q596.625,442.8906 596,442.8906 Q595.2344,442.8906 594.6016,443.2188 Q593.9688,443.5469 593.4766,444.2969 Q592.9844,445.0469 592.9844,446.0781 L592.9844,447.1719 Q592.9844,448.4063 593.875,449.2266 Q594.7656,450.0469 596.3594,450.0469 Q597.2969,450.0469 597.9531,449.7969 Q598.3438,449.6406 598.7656,449.2031 Q599.0313,448.9375 599.1797,448.8594 Q599.3281,448.7813 599.5313,448.7813 Q599.8594,448.7813 600.1172,449.0391 Q600.375,449.2969 600.375,449.6406 Q600.375,449.9844 600.0313,450.3906 Q599.5313,450.9688 598.7344,451.2969 Q597.6563,451.75 596.3594,451.75 Q594.8438,451.75 593.6406,451.125 Q592.6563,450.625 591.9688,449.5547 Q591.2813,448.4844 591.2813,447.2031 L591.2813,446.0469 Q591.2813,444.7188 591.8984,443.5703 Q592.5156,442.4219 593.6094,441.8047 Q594.7031,441.1875 595.9375,441.1875 Q596.6719,441.1875 597.3203,441.3516 Q597.9688,441.5156 598.5156,441.875 Z "/><text fill="#000000" font-family="sans-serif" font-size="12" lengthAdjust="spacingAndGlyphs" textLength="41" x="616.25" y="450.9102">Courier</text><line style="stroke: #A80036; stroke-width: 1.5;" x1="538" x2="703" y1="462" y2="462"/><rect fill="none" height="6" style="stroke: #C82930; stroke-width: 1.0;" width="6" x="545" y="471.418"/><text fill="#000000" font-family="sans-serif" font-size="11" lengthAdjust="spacingAndGlyphs" textLength="48" x="557" y="477.4189">Integer nif</text><rect fill="none" height="6" style="stroke: #C82930; stroke-width: 1.0;" width="6" x="545" y="485.2539"/><text fill="#000000" font-family="sans-serif" font-size="11" lengthAdjust="spacingAndGlyphs" textLength="103" x="557" y="491.2549">Integer phoneNumber</text><rect fill="none" height="6" style="stroke: #C82930; stroke-width: 1.0;" width="6" x="545" y="499.0898"/><text fill="#000000" font-family="sans-serif" font-size="11" lengthAdjust="spacingAndGlyphs" textLength="141" x="557" y="505.0908">Double socialSecurityNumber</text><rect fill="none" height="6" style="stroke: #C82930; stroke-width: 1.0;" width="6" x="545" y="512.9258"/><text fill="#000000" font-family="sans-serif" font-size="11" lengthAdjust="spacingAndGlyphs" textLength="61" x="557" y="518.9268">String status</text><!--class Delivery--><rect fill="#FEFECE" filter="url(#f28e4by18k6t0)" height="53.8359" id="Delivery" style="stroke: #A80036; stroke-width: 1.5;" width="109" x="895.5" y="406.5"/><ellipse cx="925.8" cy="422.5" fill="#ADD1B2" rx="11" ry="11" style="stroke: #A80036; stroke-width: 1.0;"/><path d="M928.5656,418.375 Q928.7219,418.1563 928.9094,418.0469 Q929.0969,417.9375 929.3156,417.9375 Q929.6906,417.9375 929.925,418.1953 Q930.1594,418.4531 930.1594,419.0625 L930.1594,420.5156 Q930.1594,421.125 929.925,421.3906 Q929.6906,421.6563 929.3156,421.6563 Q928.9719,421.6563 928.7688,421.4531 Q928.5656,421.2656 928.4563,420.75 Q928.4094,420.3906 928.2219,420.2031 Q927.8938,419.8281 927.2844,419.6094 Q926.675,419.3906 926.05,419.3906 Q925.2844,419.3906 924.6516,419.7188 Q924.0188,420.0469 923.5266,420.7969 Q923.0344,421.5469 923.0344,422.5781 L923.0344,423.6719 Q923.0344,424.9063 923.925,425.7266 Q924.8156,426.5469 926.4094,426.5469 Q927.3469,426.5469 928.0031,426.2969 Q928.3938,426.1406 928.8156,425.7031 Q929.0813,425.4375 929.2297,425.3594 Q929.3781,425.2813 929.5813,425.2813 Q929.9094,425.2813 930.1672,425.5391 Q930.425,425.7969 930.425,426.1406 Q930.425,426.4844 930.0813,426.8906 Q929.5813,427.4688 928.7844,427.7969 Q927.7063,428.25 926.4094,428.25 Q924.8938,428.25 923.6906,427.625 Q922.7063,427.125 922.0188,426.0547 Q921.3313,424.9844 921.3313,423.7031 L921.3313,422.5469 Q921.3313,421.2188 921.9484,420.0703 Q922.5656,418.9219 923.6594,418.3047 Q924.7531,417.6875 925.9875,417.6875 Q926.7219,417.6875 927.3703,417.8516 Q928.0188,418.0156 928.5656,418.375 Z "/><text fill="#000000" font-family="sans-serif" font-size="12" lengthAdjust="spacingAndGlyphs" textLength="43" x="943.2" y="427.4102">Delivery</text><line style="stroke: #A80036; stroke-width: 1.5;" x1="896.5" x2="1003.5" y1="438.5" y2="438.5"/><rect fill="none" height="6" style="stroke: #C82930; stroke-width: 1.0;" width="6" x="903.5" y="447.918"/><text fill="#000000" font-family="sans-serif" font-size="11" lengthAdjust="spacingAndGlyphs" textLength="83" x="915.5" y="453.9189">Integer idDelivery</text><!--class Park--><rect fill="#FEFECE" filter="url(#f28e4by18k6t0)" height="109.1797" id="Park" style="stroke: #A80036; stroke-width: 1.5;" width="151" x="1108" y="674"/><ellipse cx="1166.75" cy="690" fill="#ADD1B2" rx="11" ry="11" style="stroke: #A80036; stroke-width: 1.0;"/><path d="M1169.5156,685.875 Q1169.6719,685.6563 1169.8594,685.5469 Q1170.0469,685.4375 1170.2656,685.4375 Q1170.6406,685.4375 1170.875,685.6953 Q1171.1094,685.9531 1171.1094,686.5625 L1171.1094,688.0156 Q1171.1094,688.625 1170.875,688.8906 Q1170.6406,689.1563 1170.2656,689.1563 Q1169.9219,689.1563 1169.7188,688.9531 Q1169.5156,688.7656 1169.4063,688.25 Q1169.3594,687.8906 1169.1719,687.7031 Q1168.8438,687.3281 1168.2344,687.1094 Q1167.625,686.8906 1167,686.8906 Q1166.2344,686.8906 1165.6016,687.2188 Q1164.9688,687.5469 1164.4766,688.2969 Q1163.9844,689.0469 1163.9844,690.0781 L1163.9844,691.1719 Q1163.9844,692.4063 1164.875,693.2266 Q1165.7656,694.0469 1167.3594,694.0469 Q1168.2969,694.0469 1168.9531,693.7969 Q1169.3438,693.6406 1169.7656,693.2031 Q1170.0313,692.9375 1170.1797,692.8594 Q1170.3281,692.7813 1170.5313,692.7813 Q1170.8594,692.7813 1171.1172,693.0391 Q1171.375,693.2969 1171.375,693.6406 Q1171.375,693.9844 1171.0313,694.3906 Q1170.5313,694.9688 1169.7344,695.2969 Q1168.6563,695.75 1167.3594,695.75 Q1165.8438,695.75 1164.6406,695.125 Q1163.6563,694.625 1162.9688,693.5547 Q1162.2813,692.4844 1162.2813,691.2031 L1162.2813,690.0469 Q1162.2813,688.7188 1162.8984,687.5703 Q1163.5156,686.4219 1164.6094,685.8047 Q1165.7031,685.1875 1166.9375,685.1875 Q1167.6719,685.1875 1168.3203,685.3516 Q1168.9688,685.5156 1169.5156,685.875 Z "/><text fill="#000000" font-family="sans-serif" font-size="12" lengthAdjust="spacingAndGlyphs" textLength="25" x="1187.25" y="694.9102">Park</text><line style="stroke: #A80036; stroke-width: 1.5;" x1="1109" x2="1258" y1="706" y2="706"/><rect fill="none" height="6" style="stroke: #C82930; stroke-width: 1.0;" width="6" x="1116" y="715.418"/><text fill="#000000" font-family="sans-serif" font-size="11" lengthAdjust="spacingAndGlyphs" textLength="44" x="1128" y="721.4189">Integer id</text><rect fill="none" height="6" style="stroke: #C82930; stroke-width: 1.0;" width="6" x="1116" y="729.2539"/><text fill="#000000" font-family="sans-serif" font-size="11" lengthAdjust="spacingAndGlyphs" textLength="86" x="1128" y="735.2549">String designation</text><rect fill="none" height="6" style="stroke: #C82930; stroke-width: 1.0;" width="6" x="1116" y="743.0898"/><text fill="#000000" font-family="sans-serif" font-size="11" lengthAdjust="spacingAndGlyphs" textLength="105" x="1128" y="749.0908">Integer spotsCapacity</text><rect fill="none" height="6" style="stroke: #C82930; stroke-width: 1.0;" width="6" x="1116" y="756.9258"/><text fill="#000000" font-family="sans-serif" font-size="11" lengthAdjust="spacingAndGlyphs" textLength="110" x="1128" y="762.9268">Double powerCapacity</text><rect fill="none" height="6" style="stroke: #C82930; stroke-width: 1.0;" width="6" x="1116" y="770.7617"/><text fill="#000000" font-family="sans-serif" font-size="11" lengthAdjust="spacingAndGlyphs" textLength="125" x="1128" y="776.7627">Integer chargingScooters;</text><!--class Spot--><rect fill="#FEFECE" filter="url(#f28e4by18k6t0)" height="81.5078" id="Spot" style="stroke: #A80036; stroke-width: 1.5;" width="121" x="1362.5" y="687.5"/><ellipse cx="1406.3" cy="703.5" fill="#ADD1B2" rx="11" ry="11" style="stroke: #A80036; stroke-width: 1.0;"/><path d="M1409.0656,699.375 Q1409.2219,699.1563 1409.4094,699.0469 Q1409.5969,698.9375 1409.8156,698.9375 Q1410.1906,698.9375 1410.425,699.1953 Q1410.6594,699.4531 1410.6594,700.0625 L1410.6594,701.5156 Q1410.6594,702.125 1410.425,702.3906 Q1410.1906,702.6563 1409.8156,702.6563 Q1409.4719,702.6563 1409.2688,702.4531 Q1409.0656,702.2656 1408.9563,701.75 Q1408.9094,701.3906 1408.7219,701.2031 Q1408.3938,700.8281 1407.7844,700.6094 Q1407.175,700.3906 1406.55,700.3906 Q1405.7844,700.3906 1405.1516,700.7188 Q1404.5188,701.0469 1404.0266,701.7969 Q1403.5344,702.5469 1403.5344,703.5781 L1403.5344,704.6719 Q1403.5344,705.9063 1404.425,706.7266 Q1405.3156,707.5469 1406.9094,707.5469 Q1407.8469,707.5469 1408.5031,707.2969 Q1408.8938,707.1406 1409.3156,706.7031 Q1409.5813,706.4375 1409.7297,706.3594 Q1409.8781,706.2813 1410.0813,706.2813 Q1410.4094,706.2813 1410.6672,706.5391 Q1410.925,706.7969 1410.925,707.1406 Q1410.925,707.4844 1410.5813,707.8906 Q1410.0813,708.4688 1409.2844,708.7969 Q1408.2063,709.25 1406.9094,709.25 Q1405.3938,709.25 1404.1906,708.625 Q1403.2063,708.125 1402.5188,707.0547 Q1401.8313,705.9844 1401.8313,704.7031 L1401.8313,703.5469 Q1401.8313,702.2188 1402.4484,701.0703 Q1403.0656,699.9219 1404.1594,699.3047 Q1405.2531,698.6875 1406.4875,698.6875 Q1407.2219,698.6875 1407.8703,698.8516 Q1408.5188,699.0156 1409.0656,699.375 Z "/><text fill="#000000" font-family="sans-serif" font-size="12" lengthAdjust="spacingAndGlyphs" textLength="25" x="1426.7" y="708.4102">Spot</text><line style="stroke: #A80036; stroke-width: 1.5;" x1="1363.5" x2="1482.5" y1="719.5" y2="719.5"/><rect fill="none" height="6" style="stroke: #C82930; stroke-width: 1.0;" width="6" x="1370.5" y="728.918"/><text fill="#000000" font-family="sans-serif" font-size="11" lengthAdjust="spacingAndGlyphs" textLength="44" x="1382.5" y="734.9189">Integer id</text><rect fill="none" height="6" style="stroke: #C82930; stroke-width: 1.0;" width="6" x="1370.5" y="742.7539"/><text fill="#000000" font-family="sans-serif" font-size="11" lengthAdjust="spacingAndGlyphs" textLength="95" x="1382.5" y="748.7549">String chargingSpot</text><rect fill="none" height="6" style="stroke: #C82930; stroke-width: 1.0;" width="6" x="1370.5" y="756.5898"/><text fill="#000000" font-family="sans-serif" font-size="11" lengthAdjust="spacingAndGlyphs" textLength="65" x="1382.5" y="762.5908">Integer idPark</text><!--link Platform to Administrator--><path d="M110.109,352.675 C157.923,380.256 231.529,422.716 279.356,450.305 " fill="none" id="Platform-Administrator" style="stroke: #A80036; stroke-width: 1.0;"/><text fill="#000000" font-family="sans-serif" font-size="13" lengthAdjust="spacingAndGlyphs" textLength="82" x="149" y="370.9951">has registered</text><polygon fill="#000000" points="234,364.1758,240,367.1758,234,370.1758,234,364.1758" style="stroke: #000000; stroke-width: 1.0;"/><text fill="#000000" font-family="sans-serif" font-size="13" lengthAdjust="spacingAndGlyphs" textLength="7" x="112.8666" y="373.921">1</text><text fill="#000000" font-family="sans-serif" font-size="13" lengthAdjust="spacingAndGlyphs" textLength="5" x="262.6446" y="439.7209">*</text><!--link Platform to User--><path d="M118.089,325.811 C277.82,326.712 739.739,329.319 896.349,330.203 " fill="none" id="Platform-User" style="stroke: #A80036; stroke-width: 1.0;"/><text fill="#000000" font-family="sans-serif" font-size="13" lengthAdjust="spacingAndGlyphs" textLength="82" x="411" y="322.9951">has registered</text><polygon fill="#000000" points="496,316.1758,502,319.1758,496,322.1758,496,316.1758" style="stroke: #000000; stroke-width: 1.0;"/><text fill="#000000" font-family="sans-serif" font-size="13" lengthAdjust="spacingAndGlyphs" textLength="7" x="126.0963" y="340.4576">1</text><text fill="#000000" font-family="sans-serif" font-size="13" lengthAdjust="spacingAndGlyphs" textLength="5" x="883.4528" y="344.8407">*</text><!--link Platform to Pharmacy--><path d="M79.1727,352.556 C122.385,421.861 248.324,605.112 410,673.5 C593.403,751.079 662.69,719.347 858,680.5 C869.876,678.138 882.164,674.24 893.723,669.84 " fill="none" id="Platform-Pharmacy" style="stroke: #A80036; stroke-width: 1.0;"/><text fill="#000000" font-family="sans-serif" font-size="13" lengthAdjust="spacingAndGlyphs" textLength="82" x="411" y="669.9951">has registered</text><polygon fill="#000000" points="496,663.1758,502,666.1758,496,669.1758,496,663.1758" style="stroke: #000000; stroke-width: 1.0;"/><text fill="#000000" font-family="sans-serif" font-size="13" lengthAdjust="spacingAndGlyphs" textLength="7" x="75.1636" y="373.776">1</text><text fill="#000000" font-family="sans-serif" font-size="13" lengthAdjust="spacingAndGlyphs" textLength="7" x="879.0641" y="687.7785">1</text><!--link Platform to Client--><path d="M81.9124,298.091 C97.4054,277.654 121.102,250.598 148,234.5 C276.254,157.74 451.783,127.407 548.435,115.97 " fill="none" id="Platform-Client" style="stroke: #A80036; stroke-width: 1.0;"/><text fill="#000000" font-family="sans-serif" font-size="13" lengthAdjust="spacingAndGlyphs" textLength="82" x="280" y="142.9951">has registered</text><polygon fill="#000000" points="365,136.1758,371,139.1758,365,142.1758,365,136.1758" style="stroke: #000000; stroke-width: 1.0;"/><text fill="#000000" font-family="sans-serif" font-size="13" lengthAdjust="spacingAndGlyphs" textLength="7" x="78.7078" y="287.4574">1</text><text fill="#000000" font-family="sans-serif" font-size="13" lengthAdjust="spacingAndGlyphs" textLength="5" x="535.2795" y="131.0572">*</text><!--link Administrator to User--><path d="M380.21,460.91 C390.094,457.766 400.362,454.517 410,451.5 C466.349,433.86 479.749,426.948 537,412.5 C664.815,380.244 817.529,352.659 896.264,339.229 " fill="none" id="Administrator-User" style="stroke: #A80036; stroke-width: 1.0;"/><text fill="#000000" font-family="sans-serif" font-size="13" lengthAdjust="spacingAndGlyphs" textLength="36" x="596" y="371.9951">act as</text><polygon fill="#000000" points="635,365.1758,641,368.1758,635,371.1758,635,365.1758" style="stroke: #000000; stroke-width: 1.0;"/><text fill="#000000" font-family="sans-serif" font-size="13" lengthAdjust="spacingAndGlyphs" textLength="22" x="387.9747" y="473.3896">0..1</text><text fill="#000000" font-family="sans-serif" font-size="13" lengthAdjust="spacingAndGlyphs" textLength="7" x="881.5729" y="355.0288">1</text><!--link Administrator to Pharmacy--><path d="M337.958,504.576 C349.856,534.306 373.289,580.942 410,604.5 C561.803,701.914 789.583,675.011 893.614,655.572 " fill="none" id="Administrator-Pharmacy" style="stroke: #A80036; stroke-width: 1.0;"/><text fill="#000000" font-family="sans-serif" font-size="13" lengthAdjust="spacingAndGlyphs" textLength="100" x="564" y="653.9951">creates/manages</text><polygon fill="#000000" points="667,647.1758,673,650.1758,667,653.1758,667,647.1758" style="stroke: #000000; stroke-width: 1.0;"/><text fill="#000000" font-family="sans-serif" font-size="13" lengthAdjust="spacingAndGlyphs" textLength="7" x="341.0113" y="525.8004">1</text><text fill="#000000" font-family="sans-serif" font-size="13" lengthAdjust="spacingAndGlyphs" textLength="7" x="878.9411" y="653.6324">1</text><!--link Administrator to Scooter--><path d="M357.801,450.276 C372.782,437.094 391.681,421.553 410,409.5 C544.829,320.787 577.013,282.968 734,245.5 C806.872,228.108 1021.18,264.608 1124.92,284.184 " fill="none" id="Administrator-Scooter" style="stroke: #A80036; stroke-width: 1.0;"/><text fill="#000000" font-family="sans-serif" font-size="13" lengthAdjust="spacingAndGlyphs" textLength="109" x="735" y="236.9951">add/remove/update</text><polygon fill="#000000" points="847,230.1758,853,233.1758,847,236.1758,847,230.1758" style="stroke: #000000; stroke-width: 1.0;"/><text fill="#000000" font-family="sans-serif" font-size="13" lengthAdjust="spacingAndGlyphs" textLength="7" x="356.9987" y="439.6852">1</text><text fill="#000000" font-family="sans-serif" font-size="13" lengthAdjust="spacingAndGlyphs" textLength="5" x="1112.0941" y="297.2758">*</text><!--link Administrator to Product--><path d="M380.347,497.348 C422.025,512.399 482.417,532.196 537,542.5 C677.324,568.989 715.864,570.274 858,556.5 C940.94,548.463 960.135,536.048 1042,520.5 C1157.99,498.47 1294.1,473.646 1367.85,460.281 " fill="none" id="Administrator-Product" style="stroke: #A80036; stroke-width: 1.0;"/><text fill="#000000" font-family="sans-serif" font-size="13" lengthAdjust="spacingAndGlyphs" textLength="109" x="889" y="522.9951">add/remove/update</text><polygon fill="#000000" points="1001,516.1758,1007,519.1758,1001,522.1758,1001,516.1758" style="stroke: #000000; stroke-width: 1.0;"/><text fill="#000000" font-family="sans-serif" font-size="13" lengthAdjust="spacingAndGlyphs" textLength="7" x="387.9186" y="514.6198">1</text><text fill="#000000" font-family="sans-serif" font-size="13" lengthAdjust="spacingAndGlyphs" textLength="5" x="1355.1033" y="476.177">*</text><!--link Administrator to Drone--><path d="M333.536,504.683 C342.204,543.772 363.677,615.537 410,655.5 C520.423,750.762 964.924,839.694 1124.83,869.2072 " fill="none" id="Administrator-Drone" style="stroke: #A80036; stroke-width: 1.0;"/><text fill="#000000" font-family="sans-serif" font-size="13" lengthAdjust="spacingAndGlyphs" textLength="109" x="735" y="780.9951">add/remove/update</text><polygon fill="#000000" points="847,774.1758,853,777.1758,847,780.1758,847,774.1758" style="stroke: #000000; stroke-width: 1.0;"/><text fill="#000000" font-family="sans-serif" font-size="13" lengthAdjust="spacingAndGlyphs" textLength="7" x="327.0908" y="525.9308">1</text><text fill="#000000" font-family="sans-serif" font-size="13" lengthAdjust="spacingAndGlyphs" textLength="5" x="1111.9926" y="882.4301">*</text><!--link Administrator to Courier--><path d="M380.19,477.5 C423.634,477.5 486.53,477.5 536.94,477.5 " fill="none" id="Administrator-Courier" style="stroke: #A80036; stroke-width: 1.0;"/><text fill="#000000" font-family="sans-serif" font-size="13" lengthAdjust="spacingAndGlyphs" textLength="46" x="429" y="473.9951">manage</text><polygon fill="#000000" points="478,467.1758,484,470.1758,478,473.1758,478,467.1758" style="stroke: #000000; stroke-width: 1.0;"/><text fill="#000000" font-family="sans-serif" font-size="13" lengthAdjust="spacingAndGlyphs" textLength="7" x="388.0917" y="492.1564">1</text><text fill="#000000" font-family="sans-serif" font-size="13" lengthAdjust="spacingAndGlyphs" textLength="5" x="524.0063" y="491.733">*</text><!--link Pharmacy to Product--><path d="M1006.14,633.615 C1028.61,629.112 1054.73,623.267 1078,616.5 C1190.49,583.787 1222.43,581.086 1325,524.5 C1339.56,516.468 1354.31,506.404 1367.77,496.309 " fill="none" id="Pharmacy-Product" style="stroke: #A80036; stroke-width: 1.0;"/><text fill="#000000" font-family="sans-serif" font-size="13" lengthAdjust="spacingAndGlyphs" textLength="21" x="1166.5" y="554.9951">has</text><polygon fill="#000000" points="1190.5,548.1758,1196.5,551.1758,1190.5,554.1758,1190.5,548.1758" style="stroke: #000000; stroke-width: 1.0;"/><text fill="#000000" font-family="sans-serif" font-size="13" lengthAdjust="spacingAndGlyphs" textLength="7" x="1014.1541" y="646.9025">1</text><text fill="#000000" font-family="sans-serif" font-size="13" lengthAdjust="spacingAndGlyphs" textLength="5" x="1355.0125" y="517.0462">*</text><!--link Pharmacy to Address--><path d="M997.084,609.44 C1072.44,553.176 1217.79,442.116 1259,392.5 C1320.19,318.819 1369.21,218.655 1396.96,155.032 " fill="none" id="Pharmacy-Address" style="stroke: #A80036; stroke-width: 1.0;"/><polygon fill="#000000" points="1172.5,385.5,1175.5,379.5,1178.5,385.5,1172.5,385.5" style="stroke: #000000; stroke-width: 1.0;"/><text fill="#000000" font-family="sans-serif" font-size="13" lengthAdjust="spacingAndGlyphs" textLength="21" x="1166.5" y="401.9951">has</text><text fill="#000000" font-family="sans-serif" font-size="13" lengthAdjust="spacingAndGlyphs" textLength="7" x="998.6646" y="598.7215">1</text><text fill="#000000" font-family="sans-serif" font-size="13" lengthAdjust="spacingAndGlyphs" textLength="7" x="1386.5444" y="176.5862">1</text><!--link Pharmacy to Park--><path d="M1006.02,668.007 C1017.82,672.998 1030.26,678.072 1042,682.5 C1063.13,690.47 1086.34,698.397 1107.7,705.367 " fill="none" id="Pharmacy-Park" style="stroke: #A80036; stroke-width: 1.0;"/><text fill="#000000" font-family="sans-serif" font-size="13" lengthAdjust="spacingAndGlyphs" textLength="21" x="1043" y="678.9951">has</text><polygon fill="#000000" points="1067,672.1758,1073,675.1758,1067,678.1758,1067,672.1758" style="stroke: #000000; stroke-width: 1.0;"/><text fill="#000000" font-family="sans-serif" font-size="13" lengthAdjust="spacingAndGlyphs" textLength="7" x="1014.018" y="685.9159">1</text><text fill="#000000" font-family="sans-serif" font-size="13" lengthAdjust="spacingAndGlyphs" textLength="5" x="1094.9923" y="717.3809">*</text><!--link Pharmacy to Scooter--><path d="M980.352,609.252 C990.887,596.257 1002.501,581.073 1012,566.5 C1061.94,489.888 1057.03,460.432 1108,384.5 C1114.06,375.465 1120.89,366.282 1127.87,357.415 " fill="none" id="Pharmacy-Scooter" style="stroke: #A80036; stroke-width: 1.0;"/><polygon fill="#000000" points="1049,428.5,1052,422.5,1055,428.5,1049,428.5" style="stroke: #000000; stroke-width: 1.0;"/><text fill="#000000" font-family="sans-serif" font-size="13" lengthAdjust="spacingAndGlyphs" textLength="21" x="1043" y="444.9951">has</text><text fill="#000000" font-family="sans-serif" font-size="13" lengthAdjust="spacingAndGlyphs" textLength="7" x="978.4707" y="598.7584">1</text><text fill="#000000" font-family="sans-serif" font-size="13" lengthAdjust="spacingAndGlyphs" textLength="5" x="1116.512" y="378.5754">*</text><!--link Pharmacy to Drone--><path d="M984.415,677.564 C1021.1,714.965 1080.67,775.691 1124.92,820.797 " fill="none" id="Pharmacy-Drone" style="stroke: #A80036; stroke-width: 1.0;"/><text fill="#000000" font-family="sans-serif" font-size="13" lengthAdjust="spacingAndGlyphs" textLength="21" x="1043" y="735.9951">has</text><polygon fill="#000000" points="1049,744.8516,1052,750.8516,1055,744.8516,1049,744.8516" style="stroke: #000000; stroke-width: 1.0;"/><text fill="#000000" font-family="sans-serif" font-size="13" lengthAdjust="spacingAndGlyphs" textLength="7" x="982.9217" y="698.6123">1</text><text fill="#000000" font-family="sans-serif" font-size="13" lengthAdjust="spacingAndGlyphs" textLength="5" x="1112.0941" y="827.8173">*</text><!--link Park to Spot--><path d="M1259.32,728.5 C1292.5,728.5 1331,728.5 1362.21,728.5 " fill="none" id="Park-Spot" style="stroke: #A80036; stroke-width: 1.0;"/><text fill="#000000" font-family="sans-serif" font-size="13" lengthAdjust="spacingAndGlyphs" textLength="21" x="1290" y="724.9951">has</text><polygon fill="#000000" points="1314,718.1758,1320,721.1758,1314,724.1758,1314,718.1758" style="stroke: #000000; stroke-width: 1.0;"/><text fill="#000000" font-family="sans-serif" font-size="13" lengthAdjust="spacingAndGlyphs" textLength="7" x="1266.8802" y="742.7658">1</text><text fill="#000000" font-family="sans-serif" font-size="13" lengthAdjust="spacingAndGlyphs" textLength="5" x="1349.4965" y="743.0215">*</text><!--link Courier to User--><path d="M704.105,452.422 C714.171,449.4 724.316,446.369 734,443.5 C789.023,427.199 807.431,434.629 858,407.5 C875.69,398.01 893.039,384.657 907.766,371.73 " fill="none" id="Courier-User" style="stroke: #A80036; stroke-width: 1.0;"/><text fill="#000000" font-family="sans-serif" font-size="13" lengthAdjust="spacingAndGlyphs" textLength="36" x="771.5" y="403.9951">act as</text><polygon fill="#000000" points="810.5,397.1758,816.5,400.1758,810.5,403.1758,810.5,397.1758" style="stroke: #000000; stroke-width: 1.0;"/><text fill="#000000" font-family="sans-serif" font-size="13" lengthAdjust="spacingAndGlyphs" textLength="22" x="711.9395" y="464.5032">0..1</text><text fill="#000000" font-family="sans-serif" font-size="13" lengthAdjust="spacingAndGlyphs" textLength="7" x="894.0488" y="392.5177">1</text><!--link Courier to Pharmacy--><path d="M704.142,519.389 C763.453,549.452 841.756,589.141 893.664,615.452 " fill="none" id="Courier-Pharmacy" style="stroke: #A80036; stroke-width: 1.0;"/><text fill="#000000" font-family="sans-serif" font-size="13" lengthAdjust="spacingAndGlyphs" textLength="78" x="750.5" y="531.9951">associated to</text><polygon fill="#000000" points="831.5,525.1758,837.5,528.1758,831.5,531.1758,831.5,525.1758" style="stroke: #000000; stroke-width: 1.0;"/><text fill="#000000" font-family="sans-serif" font-size="13" lengthAdjust="spacingAndGlyphs" textLength="5" x="712.0832" y="537.4836">*</text><text fill="#000000" font-family="sans-serif" font-size="13" lengthAdjust="spacingAndGlyphs" textLength="7" x="878.9975" y="626.422">1</text><!--link Courier to Delivery--><path d="M704.023,479.092 C749.78,478.534 807.478,475.448 858,465.5 C870.324,463.073 883.237,459.322 895.337,455.23 " fill="none" id="Courier-Delivery" style="stroke: #A80036; stroke-width: 1.0;"/><text fill="#000000" font-family="sans-serif" font-size="13" lengthAdjust="spacingAndGlyphs" textLength="50" x="764.5" y="461.9951">performs</text><polygon fill="#000000" points="817.5,455.1758,823.5,458.1758,817.5,461.1758,817.5,455.1758" style="stroke: #000000; stroke-width: 1.0;"/><text fill="#000000" font-family="sans-serif" font-size="13" lengthAdjust="spacingAndGlyphs" textLength="7" x="712.0454" y="493.4717">1</text><text fill="#000000" font-family="sans-serif" font-size="13" lengthAdjust="spacingAndGlyphs" textLength="5" x="882.6557" y="472.7547">*</text><!--link Client to User--><path d="M648.081,164.01 C667.456,198.372 696.793,241.089 734,267.5 C780.796,300.717 802.936,287.338 858,303.5 C870.334,307.12 883.599,311.041 896.084,314.743 " fill="none" id="Client-User" style="stroke: #A80036; stroke-width: 1.0;"/><text fill="#000000" font-family="sans-serif" font-size="13" lengthAdjust="spacingAndGlyphs" textLength="36" x="771.5" y="263.9951">act as</text><polygon fill="#000000" points="810.5,257.1758,816.5,260.1758,810.5,263.1758,810.5,257.1758" style="stroke: #000000; stroke-width: 1.0;"/><text fill="#000000" font-family="sans-serif" font-size="13" lengthAdjust="spacingAndGlyphs" textLength="22" x="628.2054" y="185.5252">0..1</text><text fill="#000000" font-family="sans-serif" font-size="13" lengthAdjust="spacingAndGlyphs" textLength="7" x="881.3687" y="309.1025">1</text><!--link Client to Product--><path d="M692.593,114.509 C838.434,125.885 1165.6,157.377 1259,216.5 C1268.11,222.268 1340.34,328.597 1385.54,395.918 " fill="none" id="Client-Product" style="stroke: #A80036; stroke-width: 1.0;"/><text fill="#000000" font-family="sans-serif" font-size="13" lengthAdjust="spacingAndGlyphs" textLength="21" x="1043" y="151.9951">buy</text><polygon fill="#000000" points="1067,145.1758,1073,148.1758,1067,151.1758,1067,145.1758" style="stroke: #000000; stroke-width: 1.0;"/><text fill="#000000" font-family="sans-serif" font-size="13" lengthAdjust="spacingAndGlyphs" textLength="7" x="700.3885" y="129.3545">1</text><text fill="#000000" font-family="sans-serif" font-size="13" lengthAdjust="spacingAndGlyphs" textLength="5" x="1375.1704" y="385.0152">*</text><!--link Client to Order--><path d="M692.551,107.474 C806.948,104.211 1029.33,97.868 1130.34,94.988 " fill="none" id="Client-Order" style="stroke: #A80036; stroke-width: 1.0;"/><text fill="#000000" font-family="sans-serif" font-size="13" lengthAdjust="spacingAndGlyphs" textLength="50" x="918.5" y="93.9951">performs</text><polygon fill="#000000" points="971.5,87.1758,977.5,90.1758,971.5,93.1758,971.5,87.1758" style="stroke: #000000; stroke-width: 1.0;"/><text fill="#000000" font-family="sans-serif" font-size="13" lengthAdjust="spacingAndGlyphs" textLength="7" x="700.3422" y="121.594">1</text><text fill="#000000" font-family="sans-serif" font-size="13" lengthAdjust="spacingAndGlyphs" textLength="5" x="1117.5128" y="109.8652">*</text><!--link Client to Address--><path d="M692.787,87.864 C706.374,84.309 720.552,80.981 734,78.5 C964.001,36.071 1027.8,7.175 1259,42.5 C1291.24,47.426 1325.87,57.535 1354.88,67.463 " fill="none" id="Client-Address" style="stroke: #A80036; stroke-width: 1.0;"/><text fill="#000000" font-family="sans-serif" font-size="13" lengthAdjust="spacingAndGlyphs" textLength="21" x="1043" y="22.9951">has</text><polygon fill="#000000" points="1067,16.1758,1073,19.1758,1067,22.1758,1067,16.1758" style="stroke: #000000; stroke-width: 1.0;"/><text fill="#000000" font-family="sans-serif" font-size="13" lengthAdjust="spacingAndGlyphs" textLength="7" x="700.6025" y="99.9618">1</text><text fill="#000000" font-family="sans-serif" font-size="13" lengthAdjust="spacingAndGlyphs" textLength="7" x="1340.0466" y="79.0037">1</text><!--link Order to Product--><path d="M1231.93,127.738 C1241.52,135.883 1251.09,144.991 1259,154.5 C1321.85,230.033 1372.24,333.443 1399.56,395.914 " fill="none" id="Order-Product" style="stroke: #A80036; stroke-width: 1.0;"/><text fill="#000000" font-family="sans-serif" font-size="13" lengthAdjust="spacingAndGlyphs" textLength="21" x="1290" y="193.9951">has</text><polygon fill="#000000" points="1296,202.8516,1299,208.8516,1302,202.8516,1296,202.8516" style="stroke: #000000; stroke-width: 1.0;"/><text fill="#000000" font-family="sans-serif" font-size="13" lengthAdjust="spacingAndGlyphs" textLength="7" x="1232.6523" y="148.5512">1</text><text fill="#000000" font-family="sans-serif" font-size="13" lengthAdjust="spacingAndGlyphs" textLength="5" x="1391.0743" y="385.0107">*</text><!--link Order to Address--><path d="M1236.62,93.5 C1271.3,93.5 1317.2,93.5 1354.64,93.5 " fill="none" id="Order-Address" style="stroke: #A80036; stroke-width: 1.0;"/><text fill="#000000" font-family="sans-serif" font-size="13" lengthAdjust="spacingAndGlyphs" textLength="21" x="1290" y="89.9951">has</text><polygon fill="#000000" points="1314,83.1758,1320,86.1758,1314,89.1758,1314,83.1758" style="stroke: #000000; stroke-width: 1.0;"/><text fill="#000000" font-family="sans-serif" font-size="13" lengthAdjust="spacingAndGlyphs" textLength="7" x="1244.5822" y="108.1679">1</text><text fill="#000000" font-family="sans-serif" font-size="13" lengthAdjust="spacingAndGlyphs" textLength="7" x="1339.7803" y="107.8885">1</text><!--link Delivery to Order--><path d="M993.814,406.489 C1000.342,401.315 1006.67,395.593 1012,389.5 C1030.59,368.251 1028.4,358.242 1042,333.5 C1070.76,281.183 1077.86,268.039 1108,216.5 C1125.71,186.219 1146.42,152.127 1161.5,127.528 " fill="none" id="Delivery-Order" style="stroke: #A80036; stroke-width: 1.0;"/><polygon fill="#000000" points="1049,261.5,1052,255.5,1055,261.5,1049,261.5" style="stroke: #000000; stroke-width: 1.0;"/><text fill="#000000" font-family="sans-serif" font-size="13" lengthAdjust="spacingAndGlyphs" textLength="21" x="1043" y="277.9951">has</text><text fill="#000000" font-family="sans-serif" font-size="13" lengthAdjust="spacingAndGlyphs" textLength="7" x="996.6405" y="395.513">1</text><text fill="#000000" font-family="sans-serif" font-size="13" lengthAdjust="spacingAndGlyphs" textLength="5" x="1152.1359" y="148.5699">*</text><!--link Delivery to Scooter--><path d="M996.461,406.4 C1033.2,384.5 1085.14,353.537 1124.81,329.891 " fill="none" id="Delivery-Scooter" style="stroke: #A80036; stroke-width: 1.0;"/><text fill="#000000" font-family="sans-serif" font-size="13" lengthAdjust="spacingAndGlyphs" textLength="21" x="1043" y="355.9951">has</text><polygon fill="#000000" points="1067,349.1758,1073,352.1758,1067,355.1758,1067,349.1758" style="stroke: #000000; stroke-width: 1.0;"/><text fill="#000000" font-family="sans-serif" font-size="13" lengthAdjust="spacingAndGlyphs" textLength="7" x="1008.0145" y="395.8379">1</text><text fill="#000000" font-family="sans-serif" font-size="13" lengthAdjust="spacingAndGlyphs" textLength="7" x="1109.8419" y="348.839">1</text><!--
@startuml

hide methods
left to right direction

class Platform {
  -String designation
}

class User {
  -String name
  -String email
  -String password
}

class Administrator {
  -String email
}

class Client {
  -String name
  -String email
  -String creditCardNumber
  -Date validityDate
  -Integer ccv
}

class Pharmacy {
  -String designation
  -String email
}

class Address {
  -String street
  -String postalCode
  -Integer number
  -String locality
  -String GPSCoordinates
  -Integer elevation
}

class Order {
  -Integer idOrder
  -Double finalPrice
}

class Scooter {
  -String id
  -Double capacity
  -Double power
  -Double maxBattery
  -Integer battery
  -Double weight
}

class Drone {
  -Integer id
  -Double capacity
  -Double power
  -Double maxBattery
  -Integer battery
  -Double weight
}

class Product {
  -String reference
  -String name
  -String description
  -Double price
  -Double weight
}

class Courier {
  -Integer nif
  -Integer phoneNumber
  -Double socialSecurityNumber
  -String status
}

class Delivery{
  -Integer idDelivery
}

class Park {
  -Integer id
  -String designation
  -Integer spotsCapacity
  -Double powerCapacity
  -Integer chargingScooters;
}

class Spot {
  -Integer id
  -String chargingSpot
  -Integer idPark
}

Platform "1" - - "*" Administrator : has registered >
Platform "1" - - "*" User : has registered >
Platform "1" - - "1" Pharmacy : has registered >
Platform "1" - - "*" Client : has registered >

Administrator "0..1" - - "1" User : act as >
Administrator "1" - - "1" Pharmacy : creates/manages >
Administrator "1" - - "*" Scooter : add/remove/update >
Administrator "1" - - "*" Product : add/remove/update >
Administrator "1" - - "*" Drone : add/remove/update >
Administrator "1" - - "*" Courier : manage >

Pharmacy "1" - - "*" Product : has >
Pharmacy "1" - - "1" Address : has >
Pharmacy "1" - - "*" Park : has >
Pharmacy "1" - - "*" Scooter : has >
Pharmacy "1" - - "*" Drone : has >

Park "1" - - "*" Spot : has >

Courier "0..1" - - "1" User : act as >
Courier "*" - - "1" Pharmacy : associated to >
Courier "1" - - "*" Delivery :performs >

Client "0..1" - - "1" User : act as >
Client "1" - - "*" Product : buy >
Client "1" - - "*" Order : performs >
Client "1" - - "1" Address : has >

Order "1" - - "*" Product : has >
Order "1" - - "1" Address : has >

Delivery "1" - -"*" Order : has >
Delivery "1" - - "1"Scooter : has >

@enduml

PlantUML version 1.2018.14(Fri Dec 21 16:33:16 GMT 2018)
(GPL source distribution)
Java Runtime: Java(TM) SE Runtime Environment
JVM: Java HotSpot(TM) 64-Bit Server VM
Java Version: 1.8.0_261-b12
Operating System: Windows 10
OS Version: 10.0
Default Encoding: Cp1252
Language: pt
Country: PT
--></g></svg>