<?xml version="1.0" encoding="UTF-8" standalone="no"?><svg xmlns="http://www.w3.org/2000/svg" xmlns:xlink="http://www.w3.org/1999/xlink" contentScriptType="application/ecmascript" contentStyleType="text/css" height="1026px" preserveAspectRatio="none" style="width:779px;height:1026px;" version="1.1" viewBox="0 0 779 1026" width="779px" zoomAndPan="magnify"><defs><filter height="300%" id="fekw3d2a3qq4q" width="300%" x="-1" y="-1"><feGaussianBlur result="blurOut" stdDeviation="2.0"/><feColorMatrix in="blurOut" result="blurOut2" type="matrix" values="0 0 0 0 0 0 0 0 0 0 0 0 0 0 0 0 0 0 .4 0"/><feOffset dx="4.0" dy="4.0" in="blurOut2" result="blurOut3"/><feBlend in="SourceGraphic" in2="blurOut3" mode="normal"/></filter></defs><g><!--class AddParkUI--><rect fill="#FEFECE" filter="url(#fekw3d2a3qq4q)" height="48" id="AddParkUI" style="stroke: #A80036; stroke-width: 1.5;" width="90" x="404" y="8"/><ellipse cx="419" cy="24" fill="#ADD1B2" rx="11" ry="11" style="stroke: #A80036; stroke-width: 1.0;"/><path d="M421.7656,19.875 Q421.9219,19.6563 422.1094,19.5469 Q422.2969,19.4375 422.5156,19.4375 Q422.8906,19.4375 423.125,19.6953 Q423.3594,19.9531 423.3594,20.5625 L423.3594,22.0156 Q423.3594,22.625 423.125,22.8906 Q422.8906,23.1563 422.5156,23.1563 Q422.1719,23.1563 421.9688,22.9531 Q421.7656,22.7656 421.6563,22.25 Q421.6094,21.8906 421.4219,21.7031 Q421.0938,21.3281 420.4844,21.1094 Q419.875,20.8906 419.25,20.8906 Q418.4844,20.8906 417.8516,21.2188 Q417.2188,21.5469 416.7266,22.2969 Q416.2344,23.0469 416.2344,24.0781 L416.2344,25.1719 Q416.2344,26.4063 417.125,27.2266 Q418.0156,28.0469 419.6094,28.0469 Q420.5469,28.0469 421.2031,27.7969 Q421.5938,27.6406 422.0156,27.2031 Q422.2813,26.9375 422.4297,26.8594 Q422.5781,26.7813 422.7813,26.7813 Q423.1094,26.7813 423.3672,27.0391 Q423.625,27.2969 423.625,27.6406 Q423.625,27.9844 423.2813,28.3906 Q422.7813,28.9688 421.9844,29.2969 Q420.9063,29.75 419.6094,29.75 Q418.0938,29.75 416.8906,29.125 Q415.9063,28.625 415.2188,27.5547 Q414.5313,26.4844 414.5313,25.2031 L414.5313,24.0469 Q414.5313,22.7188 415.1484,21.5703 Q415.7656,20.4219 416.8594,19.8047 Q417.9531,19.1875 419.1875,19.1875 Q419.9219,19.1875 420.5703,19.3516 Q421.2188,19.5156 421.7656,19.875 Z "/><text fill="#000000" font-family="sans-serif" font-size="12" lengthAdjust="spacingAndGlyphs" textLength="58" x="433" y="28.9102">AddParkUI</text><line style="stroke: #A80036; stroke-width: 1.5;" x1="405" x2="493" y1="40" y2="40"/><line style="stroke: #A80036; stroke-width: 1.5;" x1="405" x2="493" y1="48" y2="48"/><!--class AddParkController--><rect fill="#FEFECE" filter="url(#fekw3d2a3qq4q)" height="117.1797" id="AddParkController" style="stroke: #A80036; stroke-width: 1.5;" width="279" x="309.5" y="117"/><ellipse cx="394.75" cy="133" fill="#ADD1B2" rx="11" ry="11" style="stroke: #A80036; stroke-width: 1.0;"/><path d="M397.5156,128.875 Q397.6719,128.6563 397.8594,128.5469 Q398.0469,128.4375 398.2656,128.4375 Q398.6406,128.4375 398.875,128.6953 Q399.1094,128.9531 399.1094,129.5625 L399.1094,131.0156 Q399.1094,131.625 398.875,131.8906 Q398.6406,132.1563 398.2656,132.1563 Q397.9219,132.1563 397.7188,131.9531 Q397.5156,131.7656 397.4063,131.25 Q397.3594,130.8906 397.1719,130.7031 Q396.8438,130.3281 396.2344,130.1094 Q395.625,129.8906 395,129.8906 Q394.2344,129.8906 393.6016,130.2188 Q392.9688,130.5469 392.4766,131.2969 Q391.9844,132.0469 391.9844,133.0781 L391.9844,134.1719 Q391.9844,135.4063 392.875,136.2266 Q393.7656,137.0469 395.3594,137.0469 Q396.2969,137.0469 396.9531,136.7969 Q397.3438,136.6406 397.7656,136.2031 Q398.0313,135.9375 398.1797,135.8594 Q398.3281,135.7813 398.5313,135.7813 Q398.8594,135.7813 399.1172,136.0391 Q399.375,136.2969 399.375,136.6406 Q399.375,136.9844 399.0313,137.3906 Q398.5313,137.9688 397.7344,138.2969 Q396.6563,138.75 395.3594,138.75 Q393.8438,138.75 392.6406,138.125 Q391.6563,137.625 390.9688,136.5547 Q390.2813,135.4844 390.2813,134.2031 L390.2813,133.0469 Q390.2813,131.7188 390.8984,130.5703 Q391.5156,129.4219 392.6094,128.8047 Q393.7031,128.1875 394.9375,128.1875 Q395.6719,128.1875 396.3203,128.3516 Q396.9688,128.5156 397.5156,128.875 Z "/><text fill="#000000" font-family="sans-serif" font-size="12" lengthAdjust="spacingAndGlyphs" textLength="100" x="415.25" y="137.9102">AddParkController</text><line style="stroke: #A80036; stroke-width: 1.5;" x1="310.5" x2="587.5" y1="149" y2="149"/><line style="stroke: #A80036; stroke-width: 1.5;" x1="310.5" x2="587.5" y1="157" y2="157"/><text fill="#000000" font-family="sans-serif" font-size="11" lengthAdjust="spacingAndGlyphs" textLength="182" x="315.5" y="172.4189">+List&lt;Pharmacy&gt; getPharmaciesList()</text><text fill="#000000" font-family="sans-serif" font-size="11" lengthAdjust="spacingAndGlyphs" textLength="186" x="315.5" y="186.2549">+getPharmacyByEmail(PharmacyEmail)</text><text fill="#000000" font-family="sans-serif" font-size="11" lengthAdjust="spacingAndGlyphs" textLength="267" x="315.5" y="200.0908">+newPark(designation, spotsCapacity, powerCapacity)</text><text fill="#000000" font-family="sans-serif" font-size="11" lengthAdjust="spacingAndGlyphs" textLength="77" x="315.5" y="213.9268">+newSpots(list)</text><text fill="#000000" font-family="sans-serif" font-size="11" lengthAdjust="spacingAndGlyphs" textLength="53" x="315.5" y="227.7627">+addPark()</text><!--class PharmacyDB--><rect fill="#FEFECE" filter="url(#fekw3d2a3qq4q)" height="75.6719" id="PharmacyDB" style="stroke: #A80036; stroke-width: 1.5;" width="212" x="6" y="295"/><ellipse cx="71.75" cy="311" fill="#ADD1B2" rx="11" ry="11" style="stroke: #A80036; stroke-width: 1.0;"/><path d="M74.5156,306.875 Q74.6719,306.6563 74.8594,306.5469 Q75.0469,306.4375 75.2656,306.4375 Q75.6406,306.4375 75.875,306.6953 Q76.1094,306.9531 76.1094,307.5625 L76.1094,309.0156 Q76.1094,309.625 75.875,309.8906 Q75.6406,310.1563 75.2656,310.1563 Q74.9219,310.1563 74.7188,309.9531 Q74.5156,309.7656 74.4063,309.25 Q74.3594,308.8906 74.1719,308.7031 Q73.8438,308.3281 73.2344,308.1094 Q72.625,307.8906 72,307.8906 Q71.2344,307.8906 70.6016,308.2188 Q69.9688,308.5469 69.4766,309.2969 Q68.9844,310.0469 68.9844,311.0781 L68.9844,312.1719 Q68.9844,313.4063 69.875,314.2266 Q70.7656,315.0469 72.3594,315.0469 Q73.2969,315.0469 73.9531,314.7969 Q74.3438,314.6406 74.7656,314.2031 Q75.0313,313.9375 75.1797,313.8594 Q75.3281,313.7813 75.5313,313.7813 Q75.8594,313.7813 76.1172,314.0391 Q76.375,314.2969 76.375,314.6406 Q76.375,314.9844 76.0313,315.3906 Q75.5313,315.9688 74.7344,316.2969 Q73.6563,316.75 72.3594,316.75 Q70.8438,316.75 69.6406,316.125 Q68.6563,315.625 67.9688,314.5547 Q67.2813,313.4844 67.2813,312.2031 L67.2813,311.0469 Q67.2813,309.7188 67.8984,308.5703 Q68.5156,307.4219 69.6094,306.8047 Q70.7031,306.1875 71.9375,306.1875 Q72.6719,306.1875 73.3203,306.3516 Q73.9688,306.5156 74.5156,306.875 Z "/><text fill="#000000" font-family="sans-serif" font-size="12" lengthAdjust="spacingAndGlyphs" textLength="72" x="92.25" y="315.9102">PharmacyDB</text><line style="stroke: #A80036; stroke-width: 1.5;" x1="7" x2="217" y1="327" y2="327"/><line style="stroke: #A80036; stroke-width: 1.5;" x1="7" x2="217" y1="335" y2="335"/><text fill="#000000" font-family="sans-serif" font-size="11" lengthAdjust="spacingAndGlyphs" textLength="177" x="12" y="350.4189">+List&lt;Pharmacy&gt; getAllPharmacies()</text><text fill="#000000" font-family="sans-serif" font-size="11" lengthAdjust="spacingAndGlyphs" textLength="200" x="12" y="364.2549">+Pharmacy getPharmacy(PharmacyEmail)</text><!--class Pharmacy--><rect fill="#FEFECE" filter="url(#fekw3d2a3qq4q)" height="89.5078" id="Pharmacy" style="stroke: #A80036; stroke-width: 1.5;" width="102" x="175" y="507"/><ellipse cx="196.75" cy="523" fill="#ADD1B2" rx="11" ry="11" style="stroke: #A80036; stroke-width: 1.0;"/><path d="M199.5156,518.875 Q199.6719,518.6563 199.8594,518.5469 Q200.0469,518.4375 200.2656,518.4375 Q200.6406,518.4375 200.875,518.6953 Q201.1094,518.9531 201.1094,519.5625 L201.1094,521.0156 Q201.1094,521.625 200.875,521.8906 Q200.6406,522.1563 200.2656,522.1563 Q199.9219,522.1563 199.7188,521.9531 Q199.5156,521.7656 199.4063,521.25 Q199.3594,520.8906 199.1719,520.7031 Q198.8438,520.3281 198.2344,520.1094 Q197.625,519.8906 197,519.8906 Q196.2344,519.8906 195.6016,520.2188 Q194.9688,520.5469 194.4766,521.2969 Q193.9844,522.0469 193.9844,523.0781 L193.9844,524.1719 Q193.9844,525.4063 194.875,526.2266 Q195.7656,527.0469 197.3594,527.0469 Q198.2969,527.0469 198.9531,526.7969 Q199.3438,526.6406 199.7656,526.2031 Q200.0313,525.9375 200.1797,525.8594 Q200.3281,525.7813 200.5313,525.7813 Q200.8594,525.7813 201.1172,526.0391 Q201.375,526.2969 201.375,526.6406 Q201.375,526.9844 201.0313,527.3906 Q200.5313,527.9688 199.7344,528.2969 Q198.6563,528.75 197.3594,528.75 Q195.8438,528.75 194.6406,528.125 Q193.6563,527.625 192.9688,526.5547 Q192.2813,525.4844 192.2813,524.2031 L192.2813,523.0469 Q192.2813,521.7188 192.8984,520.5703 Q193.5156,519.4219 194.6094,518.8047 Q195.7031,518.1875 196.9375,518.1875 Q197.6719,518.1875 198.3203,518.3516 Q198.9688,518.5156 199.5156,518.875 Z "/><text fill="#000000" font-family="sans-serif" font-size="12" lengthAdjust="spacingAndGlyphs" textLength="55" x="212.25" y="527.9102">Pharmacy</text><line style="stroke: #A80036; stroke-width: 1.5;" x1="176" x2="276" y1="539" y2="539"/><text fill="#000000" font-family="sans-serif" font-size="11" lengthAdjust="spacingAndGlyphs" textLength="90" x="181" y="554.4189">-String designation</text><text fill="#000000" font-family="sans-serif" font-size="11" lengthAdjust="spacingAndGlyphs" textLength="59" x="181" y="568.2549">-String email</text><line style="stroke: #A80036; stroke-width: 1.5;" x1="176" x2="276" y1="574.6719" y2="574.6719"/><text fill="#000000" font-family="sans-serif" font-size="11" lengthAdjust="spacingAndGlyphs" textLength="84" x="181" y="590.0908">+String getEmail()</text><!--class Address--><rect fill="#FEFECE" filter="url(#fekw3d2a3qq4q)" height="131.0156" id="Address" style="stroke: #A80036; stroke-width: 1.5;" width="126" x="161" y="682"/><ellipse cx="197.6" cy="698" fill="#ADD1B2" rx="11" ry="11" style="stroke: #A80036; stroke-width: 1.0;"/><path d="M200.3656,693.875 Q200.5219,693.6563 200.7094,693.5469 Q200.8969,693.4375 201.1156,693.4375 Q201.4906,693.4375 201.725,693.6953 Q201.9594,693.9531 201.9594,694.5625 L201.9594,696.0156 Q201.9594,696.625 201.725,696.8906 Q201.4906,697.1563 201.1156,697.1563 Q200.7719,697.1563 200.5688,696.9531 Q200.3656,696.7656 200.2563,696.25 Q200.2094,695.8906 200.0219,695.7031 Q199.6938,695.3281 199.0844,695.1094 Q198.475,694.8906 197.85,694.8906 Q197.0844,694.8906 196.4516,695.2188 Q195.8188,695.5469 195.3266,696.2969 Q194.8344,697.0469 194.8344,698.0781 L194.8344,699.1719 Q194.8344,700.4063 195.725,701.2266 Q196.6156,702.0469 198.2094,702.0469 Q199.1469,702.0469 199.8031,701.7969 Q200.1938,701.6406 200.6156,701.2031 Q200.8813,700.9375 201.0297,700.8594 Q201.1781,700.7813 201.3813,700.7813 Q201.7094,700.7813 201.9672,701.0391 Q202.225,701.2969 202.225,701.6406 Q202.225,701.9844 201.8813,702.3906 Q201.3813,702.9688 200.5844,703.2969 Q199.5063,703.75 198.2094,703.75 Q196.6938,703.75 195.4906,703.125 Q194.5063,702.625 193.8188,701.5547 Q193.1313,700.4844 193.1313,699.2031 L193.1313,698.0469 Q193.1313,696.7188 193.7484,695.5703 Q194.3656,694.4219 195.4594,693.8047 Q196.5531,693.1875 197.7875,693.1875 Q198.5219,693.1875 199.1703,693.3516 Q199.8188,693.5156 200.3656,693.875 Z "/><text fill="#000000" font-family="sans-serif" font-size="12" lengthAdjust="spacingAndGlyphs" textLength="46" x="216.4" y="702.9102">Address</text><line style="stroke: #A80036; stroke-width: 1.5;" x1="162" x2="286" y1="714" y2="714"/><text fill="#000000" font-family="sans-serif" font-size="11" lengthAdjust="spacingAndGlyphs" textLength="63" x="167" y="729.4189">-String street</text><text fill="#000000" font-family="sans-serif" font-size="11" lengthAdjust="spacingAndGlyphs" textLength="89" x="167" y="743.2549">-String postalCode</text><text fill="#000000" font-family="sans-serif" font-size="11" lengthAdjust="spacingAndGlyphs" textLength="76" x="167" y="757.0908">-Integer number</text><text fill="#000000" font-family="sans-serif" font-size="11" lengthAdjust="spacingAndGlyphs" textLength="68" x="167" y="770.9268">-String locality</text><text fill="#000000" font-family="sans-serif" font-size="11" lengthAdjust="spacingAndGlyphs" textLength="114" x="167" y="784.7627">-String GPSCoordinates</text><text fill="#000000" font-family="sans-serif" font-size="11" lengthAdjust="spacingAndGlyphs" textLength="83" x="167" y="798.5986">-Integer elevation</text><line style="stroke: #A80036; stroke-width: 1.5;" x1="162" x2="286" y1="805.0156" y2="805.0156"/><!--class Park--><rect fill="#FEFECE" filter="url(#fekw3d2a3qq4q)" height="144.8516" id="Park" style="stroke: #A80036; stroke-width: 1.5;" width="257" x="322.5" y="675"/><ellipse cx="434.25" cy="691" fill="#ADD1B2" rx="11" ry="11" style="stroke: #A80036; stroke-width: 1.0;"/><path d="M437.0156,686.875 Q437.1719,686.6563 437.3594,686.5469 Q437.5469,686.4375 437.7656,686.4375 Q438.1406,686.4375 438.375,686.6953 Q438.6094,686.9531 438.6094,687.5625 L438.6094,689.0156 Q438.6094,689.625 438.375,689.8906 Q438.1406,690.1563 437.7656,690.1563 Q437.4219,690.1563 437.2188,689.9531 Q437.0156,689.7656 436.9063,689.25 Q436.8594,688.8906 436.6719,688.7031 Q436.3438,688.3281 435.7344,688.1094 Q435.125,687.8906 434.5,687.8906 Q433.7344,687.8906 433.1016,688.2188 Q432.4688,688.5469 431.9766,689.2969 Q431.4844,690.0469 431.4844,691.0781 L431.4844,692.1719 Q431.4844,693.4063 432.375,694.2266 Q433.2656,695.0469 434.8594,695.0469 Q435.7969,695.0469 436.4531,694.7969 Q436.8438,694.6406 437.2656,694.2031 Q437.5313,693.9375 437.6797,693.8594 Q437.8281,693.7813 438.0313,693.7813 Q438.3594,693.7813 438.6172,694.0391 Q438.875,694.2969 438.875,694.6406 Q438.875,694.9844 438.5313,695.3906 Q438.0313,695.9688 437.2344,696.2969 Q436.1563,696.75 434.8594,696.75 Q433.3438,696.75 432.1406,696.125 Q431.1563,695.625 430.4688,694.5547 Q429.7813,693.4844 429.7813,692.2031 L429.7813,691.0469 Q429.7813,689.7188 430.3984,688.5703 Q431.0156,687.4219 432.1094,686.8047 Q433.2031,686.1875 434.4375,686.1875 Q435.1719,686.1875 435.8203,686.3516 Q436.4688,686.5156 437.0156,686.875 Z "/><text fill="#000000" font-family="sans-serif" font-size="12" lengthAdjust="spacingAndGlyphs" textLength="25" x="454.75" y="695.9102">Park</text><line style="stroke: #A80036; stroke-width: 1.5;" x1="323.5" x2="578.5" y1="707" y2="707"/><text fill="#000000" font-family="sans-serif" font-size="11" lengthAdjust="spacingAndGlyphs" textLength="48" x="328.5" y="722.4189">-Integer id</text><text fill="#000000" font-family="sans-serif" font-size="11" lengthAdjust="spacingAndGlyphs" textLength="90" x="328.5" y="736.2549">-String designation</text><text fill="#000000" font-family="sans-serif" font-size="11" lengthAdjust="spacingAndGlyphs" textLength="109" x="328.5" y="750.0908">-Integer spotsCapacity</text><text fill="#000000" font-family="sans-serif" font-size="11" lengthAdjust="spacingAndGlyphs" textLength="114" x="328.5" y="763.9268">-Double powerCapacity</text><text fill="#000000" font-family="sans-serif" font-size="11" lengthAdjust="spacingAndGlyphs" textLength="126" x="328.5" y="777.7627">-Integer chargingScooters</text><line style="stroke: #A80036; stroke-width: 1.5;" x1="323.5" x2="578.5" y1="784.1797" y2="784.1797"/><text fill="#000000" font-family="sans-serif" font-size="11" lengthAdjust="spacingAndGlyphs" textLength="245" x="328.5" y="799.5986">+Park(designation, spotsCapacity, powerCapacity)</text><text fill="#000000" font-family="sans-serif" font-size="11" lengthAdjust="spacingAndGlyphs" textLength="84" x="328.5" y="813.4346">+save(pharEmail)</text><!--class ParkDB--><rect fill="#FEFECE" filter="url(#fekw3d2a3qq4q)" height="75.6719" id="ParkDB" style="stroke: #A80036; stroke-width: 1.5;" width="135" x="435.5" y="401"/><ellipse cx="477.95" cy="417" fill="#ADD1B2" rx="11" ry="11" style="stroke: #A80036; stroke-width: 1.0;"/><path d="M480.7156,412.875 Q480.8719,412.6563 481.0594,412.5469 Q481.2469,412.4375 481.4656,412.4375 Q481.8406,412.4375 482.075,412.6953 Q482.3094,412.9531 482.3094,413.5625 L482.3094,415.0156 Q482.3094,415.625 482.075,415.8906 Q481.8406,416.1563 481.4656,416.1563 Q481.1219,416.1563 480.9188,415.9531 Q480.7156,415.7656 480.6063,415.25 Q480.5594,414.8906 480.3719,414.7031 Q480.0438,414.3281 479.4344,414.1094 Q478.825,413.8906 478.2,413.8906 Q477.4344,413.8906 476.8016,414.2188 Q476.1688,414.5469 475.6766,415.2969 Q475.1844,416.0469 475.1844,417.0781 L475.1844,418.1719 Q475.1844,419.4063 476.075,420.2266 Q476.9656,421.0469 478.5594,421.0469 Q479.4969,421.0469 480.1531,420.7969 Q480.5438,420.6406 480.9656,420.2031 Q481.2313,419.9375 481.3797,419.8594 Q481.5281,419.7813 481.7313,419.7813 Q482.0594,419.7813 482.3172,420.0391 Q482.575,420.2969 482.575,420.6406 Q482.575,420.9844 482.2313,421.3906 Q481.7313,421.9688 480.9344,422.2969 Q479.8563,422.75 478.5594,422.75 Q477.0438,422.75 475.8406,422.125 Q474.8563,421.625 474.1688,420.5547 Q473.4813,419.4844 473.4813,418.2031 L473.4813,417.0469 Q473.4813,415.7188 474.0984,414.5703 Q474.7156,413.4219 475.8094,412.8047 Q476.9031,412.1875 478.1375,412.1875 Q478.8719,412.1875 479.5203,412.3516 Q480.1688,412.5156 480.7156,412.875 Z "/><text fill="#000000" font-family="sans-serif" font-size="12" lengthAdjust="spacingAndGlyphs" textLength="42" x="498.05" y="421.9102">ParkDB</text><line style="stroke: #A80036; stroke-width: 1.5;" x1="436.5" x2="569.5" y1="433" y2="433"/><line style="stroke: #A80036; stroke-width: 1.5;" x1="436.5" x2="569.5" y1="441" y2="441"/><text fill="#000000" font-family="sans-serif" font-size="11" lengthAdjust="spacingAndGlyphs" textLength="123" x="441.5" y="456.4189">+addPark(park,pharEmail)</text><text fill="#000000" font-family="sans-serif" font-size="11" lengthAdjust="spacingAndGlyphs" textLength="117" x="441.5" y="470.2549">+getLastPark(pharEmail)</text><!--class Spot--><rect fill="#FEFECE" filter="url(#fekw3d2a3qq4q)" height="117.1797" id="Spot" style="stroke: #A80036; stroke-width: 1.5;" width="126" x="584" y="898"/><ellipse cx="630.25" cy="914" fill="#ADD1B2" rx="11" ry="11" style="stroke: #A80036; stroke-width: 1.0;"/><path d="M633.0156,909.875 Q633.1719,909.6563 633.3594,909.5469 Q633.5469,909.4375 633.7656,909.4375 Q634.1406,909.4375 634.375,909.6953 Q634.6094,909.9531 634.6094,910.5625 L634.6094,912.0156 Q634.6094,912.625 634.375,912.8906 Q634.1406,913.1563 633.7656,913.1563 Q633.4219,913.1563 633.2188,912.9531 Q633.0156,912.7656 632.9063,912.25 Q632.8594,911.8906 632.6719,911.7031 Q632.3438,911.3281 631.7344,911.1094 Q631.125,910.8906 630.5,910.8906 Q629.7344,910.8906 629.1016,911.2188 Q628.4688,911.5469 627.9766,912.2969 Q627.4844,913.0469 627.4844,914.0781 L627.4844,915.1719 Q627.4844,916.4063 628.375,917.2266 Q629.2656,918.0469 630.8594,918.0469 Q631.7969,918.0469 632.4531,917.7969 Q632.8438,917.6406 633.2656,917.2031 Q633.5313,916.9375 633.6797,916.8594 Q633.8281,916.7813 634.0313,916.7813 Q634.3594,916.7813 634.6172,917.0391 Q634.875,917.2969 634.875,917.6406 Q634.875,917.9844 634.5313,918.3906 Q634.0313,918.9688 633.2344,919.2969 Q632.1563,919.75 630.8594,919.75 Q629.3438,919.75 628.1406,919.125 Q627.1563,918.625 626.4688,917.5547 Q625.7813,916.4844 625.7813,915.2031 L625.7813,914.0469 Q625.7813,912.7188 626.3984,911.5703 Q627.0156,910.4219 628.1094,909.8047 Q629.2031,909.1875 630.4375,909.1875 Q631.1719,909.1875 631.8203,909.3516 Q632.4688,909.5156 633.0156,909.875 Z "/><text fill="#000000" font-family="sans-serif" font-size="12" lengthAdjust="spacingAndGlyphs" textLength="25" x="650.75" y="918.9102">Spot</text><line style="stroke: #A80036; stroke-width: 1.5;" x1="585" x2="709" y1="930" y2="930"/><text fill="#000000" font-family="sans-serif" font-size="11" lengthAdjust="spacingAndGlyphs" textLength="48" x="590" y="945.4189">-Integer id</text><text fill="#000000" font-family="sans-serif" font-size="11" lengthAdjust="spacingAndGlyphs" textLength="99" x="590" y="959.2549">-String chargingSpot</text><text fill="#000000" font-family="sans-serif" font-size="11" lengthAdjust="spacingAndGlyphs" textLength="69" x="590" y="973.0908">-Integer idPark</text><line style="stroke: #A80036; stroke-width: 1.5;" x1="585" x2="709" y1="979.5078" y2="979.5078"/><text fill="#000000" font-family="sans-serif" font-size="11" lengthAdjust="spacingAndGlyphs" textLength="114" x="590" y="994.9268">+Spot(id, chargingSpot)</text><text fill="#000000" font-family="sans-serif" font-size="11" lengthAdjust="spacingAndGlyphs" textLength="46" x="590" y="1008.7627">+save(id)</text><!--class SpotDB--><rect fill="#FEFECE" filter="url(#fekw3d2a3qq4q)" height="61.8359" id="SpotDB" style="stroke: #A80036; stroke-width: 1.5;" width="98" x="670" y="408"/><ellipse cx="695.8" cy="424" fill="#ADD1B2" rx="11" ry="11" style="stroke: #A80036; stroke-width: 1.0;"/><path d="M698.5656,419.875 Q698.7219,419.6563 698.9094,419.5469 Q699.0969,419.4375 699.3156,419.4375 Q699.6906,419.4375 699.925,419.6953 Q700.1594,419.9531 700.1594,420.5625 L700.1594,422.0156 Q700.1594,422.625 699.925,422.8906 Q699.6906,423.1563 699.3156,423.1563 Q698.9719,423.1563 698.7688,422.9531 Q698.5656,422.7656 698.4563,422.25 Q698.4094,421.8906 698.2219,421.7031 Q697.8938,421.3281 697.2844,421.1094 Q696.675,420.8906 696.05,420.8906 Q695.2844,420.8906 694.6516,421.2188 Q694.0188,421.5469 693.5266,422.2969 Q693.0344,423.0469 693.0344,424.0781 L693.0344,425.1719 Q693.0344,426.4063 693.925,427.2266 Q694.8156,428.0469 696.4094,428.0469 Q697.3469,428.0469 698.0031,427.7969 Q698.3938,427.6406 698.8156,427.2031 Q699.0813,426.9375 699.2297,426.8594 Q699.3781,426.7813 699.5813,426.7813 Q699.9094,426.7813 700.1672,427.0391 Q700.425,427.2969 700.425,427.6406 Q700.425,427.9844 700.0813,428.3906 Q699.5813,428.9688 698.7844,429.2969 Q697.7063,429.75 696.4094,429.75 Q694.8938,429.75 693.6906,429.125 Q692.7063,428.625 692.0188,427.5547 Q691.3313,426.4844 691.3313,425.2031 L691.3313,424.0469 Q691.3313,422.7188 691.9484,421.5703 Q692.5656,420.4219 693.6594,419.8047 Q694.7531,419.1875 695.9875,419.1875 Q696.7219,419.1875 697.3703,419.3516 Q698.0188,419.5156 698.5656,419.875 Z "/><text fill="#000000" font-family="sans-serif" font-size="12" lengthAdjust="spacingAndGlyphs" textLength="42" x="712.2" y="428.9102">SpotDB</text><line style="stroke: #A80036; stroke-width: 1.5;" x1="671" x2="767" y1="440" y2="440"/><line style="stroke: #A80036; stroke-width: 1.5;" x1="671" x2="767" y1="448" y2="448"/><text fill="#000000" font-family="sans-serif" font-size="11" lengthAdjust="spacingAndGlyphs" textLength="86" x="676" y="463.4189">+addSpot(spot,id)</text><!--class Administrator--><rect fill="#FEFECE" filter="url(#fekw3d2a3qq4q)" height="61.8359" id="Administrator" style="stroke: #A80036; stroke-width: 1.5;" width="105" x="395.5" y="521"/><ellipse cx="410.5" cy="537" fill="#ADD1B2" rx="11" ry="11" style="stroke: #A80036; stroke-width: 1.0;"/><path d="M413.2656,532.875 Q413.4219,532.6563 413.6094,532.5469 Q413.7969,532.4375 414.0156,532.4375 Q414.3906,532.4375 414.625,532.6953 Q414.8594,532.9531 414.8594,533.5625 L414.8594,535.0156 Q414.8594,535.625 414.625,535.8906 Q414.3906,536.1563 414.0156,536.1563 Q413.6719,536.1563 413.4688,535.9531 Q413.2656,535.7656 413.1563,535.25 Q413.1094,534.8906 412.9219,534.7031 Q412.5938,534.3281 411.9844,534.1094 Q411.375,533.8906 410.75,533.8906 Q409.9844,533.8906 409.3516,534.2188 Q408.7188,534.5469 408.2266,535.2969 Q407.7344,536.0469 407.7344,537.0781 L407.7344,538.1719 Q407.7344,539.4063 408.625,540.2266 Q409.5156,541.0469 411.1094,541.0469 Q412.0469,541.0469 412.7031,540.7969 Q413.0938,540.6406 413.5156,540.2031 Q413.7813,539.9375 413.9297,539.8594 Q414.0781,539.7813 414.2813,539.7813 Q414.6094,539.7813 414.8672,540.0391 Q415.125,540.2969 415.125,540.6406 Q415.125,540.9844 414.7813,541.3906 Q414.2813,541.9688 413.4844,542.2969 Q412.4063,542.75 411.1094,542.75 Q409.5938,542.75 408.3906,542.125 Q407.4063,541.625 406.7188,540.5547 Q406.0313,539.4844 406.0313,538.2031 L406.0313,537.0469 Q406.0313,535.7188 406.6484,534.5703 Q407.2656,533.4219 408.3594,532.8047 Q409.4531,532.1875 410.6875,532.1875 Q411.4219,532.1875 412.0703,532.3516 Q412.7188,532.5156 413.2656,532.875 Z "/><text fill="#000000" font-family="sans-serif" font-size="12" lengthAdjust="spacingAndGlyphs" textLength="73" x="424.5" y="541.9102">Administrator</text><line style="stroke: #A80036; stroke-width: 1.5;" x1="396.5" x2="499.5" y1="553" y2="553"/><text fill="#000000" font-family="sans-serif" font-size="11" lengthAdjust="spacingAndGlyphs" textLength="59" x="401.5" y="568.4189">-String email</text><line style="stroke: #A80036; stroke-width: 1.5;" x1="396.5" x2="499.5" y1="574.8359" y2="574.8359"/><!--link AddParkUI to AddParkController--><path d="M449,56.049 C449,71.282 449,92.037 449,111.92 " fill="none" id="AddParkUI-AddParkController" style="stroke: #A80036; stroke-width: 1.0; stroke-dasharray: 7.0,7.0;"/><polygon fill="#A80036" points="449,116.952,453,107.952,449,111.952,445,107.952,449,116.952" style="stroke: #A80036; stroke-width: 1.0;"/><!--link AddParkController to PharmacyDB--><path d="M311.268,234.075 C289.001,243.813 266.279,254.01 245,264 C226.064,272.889 205.856,282.928 187.059,292.509 " fill="none" id="AddParkController-PharmacyDB" style="stroke: #A80036; stroke-width: 1.0; stroke-dasharray: 7.0,7.0;"/><polygon fill="#A80036" points="182.312,294.934,192.1465,294.4026,186.7648,292.6597,188.5077,287.278,182.312,294.934" style="stroke: #A80036; stroke-width: 1.0;"/><!--link AddParkController to Pharmacy--><path d="M345.08,234.132 C334.267,243.109 324.24,253.079 316,264 C261.853,335.764 239.831,440.803 231.214,501.907 " fill="none" id="AddParkController-Pharmacy" style="stroke: #A80036; stroke-width: 1.0; stroke-dasharray: 7.0,7.0;"/><polygon fill="#A80036" points="230.518,506.954,235.7097,498.5847,231.2009,502.0009,227.7847,497.492,230.518,506.954" style="stroke: #A80036; stroke-width: 1.0;"/><!--link AddParkController to Park--><path d="M424.978,234.062 C394.243,315.461 348.326,468.599 378,597 C383.762,621.932 394.279,647.512 405.569,670.306 " fill="none" id="AddParkController-Park" style="stroke: #A80036; stroke-width: 1.0; stroke-dasharray: 7.0,7.0;"/><polygon fill="#A80036" points="407.836,674.827,407.3775,664.9888,405.5948,670.3574,400.2262,668.5748,407.836,674.827" style="stroke: #A80036; stroke-width: 1.0;"/><!--link AddParkController to Spot--><path d="M584.895,234.003 C619.446,258.02 647,290.258 647,332 C647,332 647,332 647,748.5 C647,796.921 647,851.714 647,892.758 " fill="none" id="AddParkController-Spot" style="stroke: #A80036; stroke-width: 1.0; stroke-dasharray: 7.0,7.0;"/><polygon fill="#A80036" points="647,897.947,651,888.947,647,892.947,643,888.947,647,897.947" style="stroke: #A80036; stroke-width: 1.0;"/><!--link AddParkController to ParkDB--><path d="M460.917,234.211 C470.996,283.018 485.203,351.816 494.257,395.661 " fill="none" id="AddParkController-ParkDB" style="stroke: #A80036; stroke-width: 1.0; stroke-dasharray: 7.0,7.0;"/><polygon fill="#A80036" points="495.28,400.616,497.3769,390.993,494.2687,395.7193,489.5423,392.6111,495.28,400.616" style="stroke: #A80036; stroke-width: 1.0;"/><!--link AddParkController to SpotDB--><path d="M588.646,208.005 C619.985,220.849 650.557,238.842 673,264 C707.439,302.604 716.572,364.055 718.727,402.653 " fill="none" id="AddParkController-SpotDB" style="stroke: #A80036; stroke-width: 1.0; stroke-dasharray: 7.0,7.0;"/><polygon fill="#A80036" points="718.977,407.709,722.5273,398.5223,718.7299,402.7151,714.5371,398.9177,718.977,407.709" style="stroke: #A80036; stroke-width: 1.0;"/><!--link Administrator to Park--><path d="M448.469,583.234 C448.827,606.345 449.338,639.269 449.806,669.505 " fill="none" id="Administrator-Park" style="stroke: #A80036; stroke-width: 1.0;"/><polygon fill="#A80036" points="449.887,674.723,453.7476,665.6623,449.8098,669.7236,445.7486,665.7858,449.887,674.723" style="stroke: #A80036; stroke-width: 1.0;"/><text fill="#000000" font-family="sans-serif" font-size="13" lengthAdjust="spacingAndGlyphs" textLength="21" x="451" y="641.4951">add</text><text fill="#000000" font-family="sans-serif" font-size="13" lengthAdjust="spacingAndGlyphs" textLength="7" x="440.8912" y="604.2572">1</text><text fill="#000000" font-family="sans-serif" font-size="13" lengthAdjust="spacingAndGlyphs" textLength="5" x="444.5144" y="663.9138">*</text><!--link Park to Spot--><path d="M518.727,820.028 C541.623,844.209 566.965,870.973 589.035,894.282 " fill="none" id="Park-Spot" style="stroke: #A80036; stroke-width: 1.0;"/><polygon fill="#A80036" points="592.549,897.993,589.2655,888.7076,589.1112,894.3623,583.4565,894.208,592.549,897.993" style="stroke: #A80036; stroke-width: 1.0;"/><text fill="#000000" font-family="sans-serif" font-size="13" lengthAdjust="spacingAndGlyphs" textLength="21" x="562" y="864.4951">has</text><text fill="#000000" font-family="sans-serif" font-size="13" lengthAdjust="spacingAndGlyphs" textLength="7" x="517.8486" y="841.2223">1</text><text fill="#000000" font-family="sans-serif" font-size="13" lengthAdjust="spacingAndGlyphs" textLength="5" x="580.2522" y="886.9779">*</text><!--link ParkDB to Park--><path d="M512.864,477.164 C519.873,509.211 526.646,556.569 518,597 C512.703,621.771 502.982,647.401 492.557,670.295 " fill="none" id="ParkDB-Park" style="stroke: #A80036; stroke-width: 1.0;"/><polygon fill="#A80036" points="490.464,674.836,497.8644,668.3372,492.5572,670.2952,490.5992,664.9881,490.464,674.836" style="stroke: #A80036; stroke-width: 1.0;"/><text fill="#000000" font-family="sans-serif" font-size="13" lengthAdjust="spacingAndGlyphs" textLength="21" x="524" y="557.4951">has</text><text fill="#000000" font-family="sans-serif" font-size="13" lengthAdjust="spacingAndGlyphs" textLength="7" x="506.8783" y="498.0707">1</text><text fill="#000000" font-family="sans-serif" font-size="13" lengthAdjust="spacingAndGlyphs" textLength="5" x="489.2759" y="664.0384">*</text><!--link SpotDB to Spot--><path d="M717.647,470.121 C714.08,540.418 702.578,720.536 673,868 C671.374,876.106 669.331,884.543 667.108,892.838 " fill="none" id="SpotDB-Spot" style="stroke: #A80036; stroke-width: 1.0;"/><polygon fill="#A80036" points="665.703,897.981,671.9349,890.3545,667.0216,893.158,664.2181,888.2447,665.703,897.981" style="stroke: #A80036; stroke-width: 1.0;"/><text fill="#000000" font-family="sans-serif" font-size="13" lengthAdjust="spacingAndGlyphs" textLength="21" x="706" y="641.4951">has</text><text fill="#000000" font-family="sans-serif" font-size="13" lengthAdjust="spacingAndGlyphs" textLength="7" x="709.6916" y="491.3688">1</text><text fill="#000000" font-family="sans-serif" font-size="13" lengthAdjust="spacingAndGlyphs" textLength="5" x="662.779" y="886.9644">*</text><!--link PharmacyDB to Pharmacy--><path d="M131.597,371.304 C150.561,407.402 179.414,462.324 200.23,501.947 " fill="none" id="PharmacyDB-Pharmacy" style="stroke: #A80036; stroke-width: 1.0;"/><polygon fill="#A80036" points="202.727,506.7,202.0812,496.8723,200.4011,502.2739,194.9995,500.5938,202.727,506.7" style="stroke: #A80036; stroke-width: 1.0;"/><text fill="#000000" font-family="sans-serif" font-size="13" lengthAdjust="spacingAndGlyphs" textLength="21" x="187" y="444.4951">has</text><text fill="#000000" font-family="sans-serif" font-size="13" lengthAdjust="spacingAndGlyphs" textLength="7" x="127.1625" y="392.233">1</text><text fill="#000000" font-family="sans-serif" font-size="13" lengthAdjust="spacingAndGlyphs" textLength="5" x="193.7805" y="496.0982">*</text><!--link Pharmacy to Address--><path d="M225.541,597.393 C225.299,620.824 224.996,650.118 224.723,676.525 " fill="none" id="Pharmacy-Address" style="stroke: #A80036; stroke-width: 1.0;"/><polygon fill="#A80036" points="224.669,681.765,228.7614,672.8066,224.7204,676.7653,220.7618,672.7243,224.669,681.765" style="stroke: #A80036; stroke-width: 1.0;"/><text fill="#000000" font-family="sans-serif" font-size="13" lengthAdjust="spacingAndGlyphs" textLength="21" x="227" y="641.4951">has</text><text fill="#000000" font-family="sans-serif" font-size="13" lengthAdjust="spacingAndGlyphs" textLength="7" x="218.009" y="618.1195">1</text><text fill="#000000" font-family="sans-serif" font-size="13" lengthAdjust="spacingAndGlyphs" textLength="7" x="217.3594" y="671.2137">1</text><!--link Pharmacy to Park--><path d="M253.325,597.341 C264.457,613.415 278.195,631.036 293,645 C302.822,654.265 313.602,663.188 324.771,671.638 " fill="none" id="Pharmacy-Park" style="stroke: #A80036; stroke-width: 1.0;"/><polygon fill="#A80036" points="328.903,674.73,324.0942,666.1349,324.8999,671.7341,319.3007,672.5399,328.903,674.73" style="stroke: #A80036; stroke-width: 1.0;"/><text fill="#000000" font-family="sans-serif" font-size="13" lengthAdjust="spacingAndGlyphs" textLength="21" x="294" y="641.4951">has</text><text fill="#000000" font-family="sans-serif" font-size="13" lengthAdjust="spacingAndGlyphs" textLength="7" x="249.5265" y="618.0605">1</text><text fill="#000000" font-family="sans-serif" font-size="13" lengthAdjust="spacingAndGlyphs" textLength="5" x="311.0539" y="663.9215">*</text><!--
@startuml
skinparam classAttributeIconSize 0

class AddParkUI {

}

class AddParkController {

  +List<Pharmacy> getPharmaciesList()
  +getPharmacyByEmail(PharmacyEmail)
  +newPark(designation, spotsCapacity, powerCapacity)
  +newSpots(list)
  +addPark()
}

class PharmacyDB {
  +List<Pharmacy> getAllPharmacies()
  +Pharmacy getPharmacy(PharmacyEmail)
}

class Pharmacy {
  -String designation
  -String email

  +String getEmail()
}

class Address {

  -String street
  -String postalCode
  -Integer number
  -String locality
  -String GPSCoordinates
  -Integer elevation
}

class Park {
    -Integer id
    -String designation
    -Integer spotsCapacity
    -Double powerCapacity
    -Integer chargingScooters

    +Park(designation, spotsCapacity, powerCapacity)
    +save(pharEmail)
}

class ParkDB {

  +addPark(park,pharEmail)
  +getLastPark(pharEmail)
}

class Spot {
    -Integer id
    -String chargingSpot
    -Integer idPark

    +Spot(id, chargingSpot)
    +save(id)
}

class SpotDB {
  +addSpot(spot,id)
}

class Administrator {
  -String email
}

AddParkUI ..> AddParkController
AddParkController ..> PharmacyDB
AddParkController ..> Pharmacy
AddParkController ..> Park
AddParkController ..> Spot
AddParkController ..> ParkDB
AddParkController ..> SpotDB

Administrator "1" - -> "*" Park : add

Park "1" - -> "*" Spot : has

ParkDB "1" - -> "*" Park : has

SpotDB "1" - -> "*" Spot : has

PharmacyDB "1" - -> "*" Pharmacy : has

Pharmacy "1" - -> "1" Address : has
Pharmacy "1" - -> "*" Park : has


@enduml

PlantUML version 1.2018.14(Fri Dec 21 16:33:16 GMT 2018)
(GPL source distribution)
Java Runtime: Java(TM) SE Runtime Environment
JVM: Java HotSpot(TM) 64-Bit Server VM
Java Version: 1.8.0_221-b11
Operating System: Windows 10
OS Version: 10.0
Default Encoding: Cp1252
Language: pt
Country: PT
--></g></svg>