<?xml version="1.0" encoding="UTF-8" standalone="no"?><svg xmlns="http://www.w3.org/2000/svg" xmlns:xlink="http://www.w3.org/1999/xlink" contentScriptType="application/ecmascript" contentStyleType="text/css" height="310px" preserveAspectRatio="none" style="width:1139px;height:310px;" version="1.1" viewBox="0 0 1139 310" width="1139px" zoomAndPan="magnify"><defs><filter height="300%" id="f8xhv5zssjjy2" width="300%" x="-1" y="-1"><feGaussianBlur result="blurOut" stdDeviation="2.0"/><feColorMatrix in="blurOut" result="blurOut2" type="matrix" values="0 0 0 0 0 0 0 0 0 0 0 0 0 0 0 0 0 0 .4 0"/><feOffset dx="4.0" dy="4.0" in="blurOut2" result="blurOut3"/><feBlend in="SourceGraphic" in2="blurOut3" mode="normal"/></filter></defs><g><!--class Platform--><rect fill="#FEFECE" filter="url(#f8xhv5zssjjy2)" height="53.8359" id="Platform" style="stroke: #A80036; stroke-width: 1.5;" width="112" x="6" y="186"/><ellipse cx="36.3" cy="202" fill="#ADD1B2" rx="11" ry="11" style="stroke: #A80036; stroke-width: 1.0;"/><path d="M39.0656,197.875 Q39.2219,197.6563 39.4094,197.5469 Q39.5969,197.4375 39.8156,197.4375 Q40.1906,197.4375 40.425,197.6953 Q40.6594,197.9531 40.6594,198.5625 L40.6594,200.0156 Q40.6594,200.625 40.425,200.8906 Q40.1906,201.1563 39.8156,201.1563 Q39.4719,201.1563 39.2688,200.9531 Q39.0656,200.7656 38.9563,200.25 Q38.9094,199.8906 38.7219,199.7031 Q38.3938,199.3281 37.7844,199.1094 Q37.175,198.8906 36.55,198.8906 Q35.7844,198.8906 35.1516,199.2188 Q34.5188,199.5469 34.0266,200.2969 Q33.5344,201.0469 33.5344,202.0781 L33.5344,203.1719 Q33.5344,204.4063 34.425,205.2266 Q35.3156,206.0469 36.9094,206.0469 Q37.8469,206.0469 38.5031,205.7969 Q38.8938,205.6406 39.3156,205.2031 Q39.5813,204.9375 39.7297,204.8594 Q39.8781,204.7813 40.0813,204.7813 Q40.4094,204.7813 40.6672,205.0391 Q40.925,205.2969 40.925,205.6406 Q40.925,205.9844 40.5813,206.3906 Q40.0813,206.9688 39.2844,207.2969 Q38.2063,207.75 36.9094,207.75 Q35.3938,207.75 34.1906,207.125 Q33.2063,206.625 32.5188,205.5547 Q31.8313,204.4844 31.8313,203.2031 L31.8313,202.0469 Q31.8313,200.7188 32.4484,199.5703 Q33.0656,198.4219 34.1594,197.8047 Q35.2531,197.1875 36.4875,197.1875 Q37.2219,197.1875 37.8703,197.3516 Q38.5188,197.5156 39.0656,197.875 Z "/><text fill="#000000" font-family="sans-serif" font-size="12" lengthAdjust="spacingAndGlyphs" textLength="46" x="53.7" y="206.9102">Platform</text><line style="stroke: #A80036; stroke-width: 1.5;" x1="7" x2="117" y1="218" y2="218"/><rect fill="none" height="6" style="stroke: #C82930; stroke-width: 1.0;" width="6" x="14" y="227.418"/><text fill="#000000" font-family="sans-serif" font-size="11" lengthAdjust="spacingAndGlyphs" textLength="86" x="26" y="233.4189">String designation</text><!--class Pharmacy--><rect fill="#FEFECE" filter="url(#f8xhv5zssjjy2)" height="67.6719" id="Pharmacy" style="stroke: #A80036; stroke-width: 1.5;" width="112" x="555" y="105"/><ellipse cx="581.25" cy="121" fill="#ADD1B2" rx="11" ry="11" style="stroke: #A80036; stroke-width: 1.0;"/><path d="M584.0156,116.875 Q584.1719,116.6563 584.3594,116.5469 Q584.5469,116.4375 584.7656,116.4375 Q585.1406,116.4375 585.375,116.6953 Q585.6094,116.9531 585.6094,117.5625 L585.6094,119.0156 Q585.6094,119.625 585.375,119.8906 Q585.1406,120.1563 584.7656,120.1563 Q584.4219,120.1563 584.2188,119.9531 Q584.0156,119.7656 583.9063,119.25 Q583.8594,118.8906 583.6719,118.7031 Q583.3438,118.3281 582.7344,118.1094 Q582.125,117.8906 581.5,117.8906 Q580.7344,117.8906 580.1016,118.2188 Q579.4688,118.5469 578.9766,119.2969 Q578.4844,120.0469 578.4844,121.0781 L578.4844,122.1719 Q578.4844,123.4063 579.375,124.2266 Q580.2656,125.0469 581.8594,125.0469 Q582.7969,125.0469 583.4531,124.7969 Q583.8438,124.6406 584.2656,124.2031 Q584.5313,123.9375 584.6797,123.8594 Q584.8281,123.7813 585.0313,123.7813 Q585.3594,123.7813 585.6172,124.0391 Q585.875,124.2969 585.875,124.6406 Q585.875,124.9844 585.5313,125.3906 Q585.0313,125.9688 584.2344,126.2969 Q583.1563,126.75 581.8594,126.75 Q580.3438,126.75 579.1406,126.125 Q578.1563,125.625 577.4688,124.5547 Q576.7813,123.4844 576.7813,122.2031 L576.7813,121.0469 Q576.7813,119.7188 577.3984,118.5703 Q578.0156,117.4219 579.1094,116.8047 Q580.2031,116.1875 581.4375,116.1875 Q582.1719,116.1875 582.8203,116.3516 Q583.4688,116.5156 584.0156,116.875 Z "/><text fill="#000000" font-family="sans-serif" font-size="12" lengthAdjust="spacingAndGlyphs" textLength="55" x="597.75" y="125.9102">Pharmacy</text><line style="stroke: #A80036; stroke-width: 1.5;" x1="556" x2="666" y1="137" y2="137"/><rect fill="none" height="6" style="stroke: #C82930; stroke-width: 1.0;" width="6" x="563" y="146.418"/><text fill="#000000" font-family="sans-serif" font-size="11" lengthAdjust="spacingAndGlyphs" textLength="86" x="575" y="152.4189">String designation</text><rect fill="none" height="6" style="stroke: #C82930; stroke-width: 1.0;" width="6" x="563" y="160.2539"/><text fill="#000000" font-family="sans-serif" font-size="11" lengthAdjust="spacingAndGlyphs" textLength="55" x="575" y="166.2549">String email</text><!--class Park--><rect fill="#FEFECE" filter="url(#f8xhv5zssjjy2)" height="109.1797" id="Park" style="stroke: #A80036; stroke-width: 1.5;" width="148" x="763" y="8.5"/><ellipse cx="820.25" cy="24.5" fill="#ADD1B2" rx="11" ry="11" style="stroke: #A80036; stroke-width: 1.0;"/><path d="M823.0156,20.375 Q823.1719,20.1563 823.3594,20.0469 Q823.5469,19.9375 823.7656,19.9375 Q824.1406,19.9375 824.375,20.1953 Q824.6094,20.4531 824.6094,21.0625 L824.6094,22.5156 Q824.6094,23.125 824.375,23.3906 Q824.1406,23.6563 823.7656,23.6563 Q823.4219,23.6563 823.2188,23.4531 Q823.0156,23.2656 822.9063,22.75 Q822.8594,22.3906 822.6719,22.2031 Q822.3438,21.8281 821.7344,21.6094 Q821.125,21.3906 820.5,21.3906 Q819.7344,21.3906 819.1016,21.7188 Q818.4688,22.0469 817.9766,22.7969 Q817.4844,23.5469 817.4844,24.5781 L817.4844,25.6719 Q817.4844,26.9063 818.375,27.7266 Q819.2656,28.5469 820.8594,28.5469 Q821.7969,28.5469 822.4531,28.2969 Q822.8438,28.1406 823.2656,27.7031 Q823.5313,27.4375 823.6797,27.3594 Q823.8281,27.2813 824.0313,27.2813 Q824.3594,27.2813 824.6172,27.5391 Q824.875,27.7969 824.875,28.1406 Q824.875,28.4844 824.5313,28.8906 Q824.0313,29.4688 823.2344,29.7969 Q822.1563,30.25 820.8594,30.25 Q819.3438,30.25 818.1406,29.625 Q817.1563,29.125 816.4688,28.0547 Q815.7813,26.9844 815.7813,25.7031 L815.7813,24.5469 Q815.7813,23.2188 816.3984,22.0703 Q817.0156,20.9219 818.1094,20.3047 Q819.2031,19.6875 820.4375,19.6875 Q821.1719,19.6875 821.8203,19.8516 Q822.4688,20.0156 823.0156,20.375 Z "/><text fill="#000000" font-family="sans-serif" font-size="12" lengthAdjust="spacingAndGlyphs" textLength="25" x="840.75" y="29.4102">Park</text><line style="stroke: #A80036; stroke-width: 1.5;" x1="764" x2="910" y1="40.5" y2="40.5"/><rect fill="none" height="6" style="stroke: #C82930; stroke-width: 1.0;" width="6" x="771" y="49.918"/><text fill="#000000" font-family="sans-serif" font-size="11" lengthAdjust="spacingAndGlyphs" textLength="44" x="783" y="55.9189">Integer id</text><rect fill="none" height="6" style="stroke: #C82930; stroke-width: 1.0;" width="6" x="771" y="63.7539"/><text fill="#000000" font-family="sans-serif" font-size="11" lengthAdjust="spacingAndGlyphs" textLength="86" x="783" y="69.7549">String designation</text><rect fill="none" height="6" style="stroke: #C82930; stroke-width: 1.0;" width="6" x="771" y="77.5898"/><text fill="#000000" font-family="sans-serif" font-size="11" lengthAdjust="spacingAndGlyphs" textLength="105" x="783" y="83.5908">Integer spotsCapacity</text><rect fill="none" height="6" style="stroke: #C82930; stroke-width: 1.0;" width="6" x="771" y="91.4258"/><text fill="#000000" font-family="sans-serif" font-size="11" lengthAdjust="spacingAndGlyphs" textLength="110" x="783" y="97.4268">Double powerCapacity</text><rect fill="none" height="6" style="stroke: #C82930; stroke-width: 1.0;" width="6" x="771" y="105.2617"/><text fill="#000000" font-family="sans-serif" font-size="11" lengthAdjust="spacingAndGlyphs" textLength="122" x="783" y="111.2627">Integer chargingScooters</text><!--class Spot--><rect fill="#FEFECE" filter="url(#f8xhv5zssjjy2)" height="81.5078" id="Spot" style="stroke: #A80036; stroke-width: 1.5;" width="121" x="1007" y="22"/><ellipse cx="1050.8" cy="38" fill="#ADD1B2" rx="11" ry="11" style="stroke: #A80036; stroke-width: 1.0;"/><path d="M1053.5656,33.875 Q1053.7219,33.6563 1053.9094,33.5469 Q1054.0969,33.4375 1054.3156,33.4375 Q1054.6906,33.4375 1054.925,33.6953 Q1055.1594,33.9531 1055.1594,34.5625 L1055.1594,36.0156 Q1055.1594,36.625 1054.925,36.8906 Q1054.6906,37.1563 1054.3156,37.1563 Q1053.9719,37.1563 1053.7688,36.9531 Q1053.5656,36.7656 1053.4563,36.25 Q1053.4094,35.8906 1053.2219,35.7031 Q1052.8938,35.3281 1052.2844,35.1094 Q1051.675,34.8906 1051.05,34.8906 Q1050.2844,34.8906 1049.6516,35.2188 Q1049.0188,35.5469 1048.5266,36.2969 Q1048.0344,37.0469 1048.0344,38.0781 L1048.0344,39.1719 Q1048.0344,40.4063 1048.925,41.2266 Q1049.8156,42.0469 1051.4094,42.0469 Q1052.3469,42.0469 1053.0031,41.7969 Q1053.3938,41.6406 1053.8156,41.2031 Q1054.0813,40.9375 1054.2297,40.8594 Q1054.3781,40.7813 1054.5813,40.7813 Q1054.9094,40.7813 1055.1672,41.0391 Q1055.425,41.2969 1055.425,41.6406 Q1055.425,41.9844 1055.0813,42.3906 Q1054.5813,42.9688 1053.7844,43.2969 Q1052.7063,43.75 1051.4094,43.75 Q1049.8938,43.75 1048.6906,43.125 Q1047.7063,42.625 1047.0188,41.5547 Q1046.3313,40.4844 1046.3313,39.2031 L1046.3313,38.0469 Q1046.3313,36.7188 1046.9484,35.5703 Q1047.5656,34.4219 1048.6594,33.8047 Q1049.7531,33.1875 1050.9875,33.1875 Q1051.7219,33.1875 1052.3703,33.3516 Q1053.0188,33.5156 1053.5656,33.875 Z "/><text fill="#000000" font-family="sans-serif" font-size="12" lengthAdjust="spacingAndGlyphs" textLength="25" x="1071.2" y="42.9102">Spot</text><line style="stroke: #A80036; stroke-width: 1.5;" x1="1008" x2="1127" y1="54" y2="54"/><rect fill="none" height="6" style="stroke: #C82930; stroke-width: 1.0;" width="6" x="1015" y="63.418"/><text fill="#000000" font-family="sans-serif" font-size="11" lengthAdjust="spacingAndGlyphs" textLength="44" x="1027" y="69.4189">Integer id</text><rect fill="none" height="6" style="stroke: #C82930; stroke-width: 1.0;" width="6" x="1015" y="77.2539"/><text fill="#000000" font-family="sans-serif" font-size="11" lengthAdjust="spacingAndGlyphs" textLength="95" x="1027" y="83.2549">String chargingSpot</text><rect fill="none" height="6" style="stroke: #C82930; stroke-width: 1.0;" width="6" x="1015" y="91.0898"/><text fill="#000000" font-family="sans-serif" font-size="11" lengthAdjust="spacingAndGlyphs" textLength="65" x="1027" y="97.0908">Integer idPark</text><!--class Address--><rect fill="#FEFECE" filter="url(#f8xhv5zssjjy2)" height="123.0156" id="Address" style="stroke: #A80036; stroke-width: 1.5;" width="136" x="769" y="152.5"/><ellipse cx="810.1" cy="168.5" fill="#ADD1B2" rx="11" ry="11" style="stroke: #A80036; stroke-width: 1.0;"/><path d="M812.8656,164.375 Q813.0219,164.1563 813.2094,164.0469 Q813.3969,163.9375 813.6156,163.9375 Q813.9906,163.9375 814.225,164.1953 Q814.4594,164.4531 814.4594,165.0625 L814.4594,166.5156 Q814.4594,167.125 814.225,167.3906 Q813.9906,167.6563 813.6156,167.6563 Q813.2719,167.6563 813.0688,167.4531 Q812.8656,167.2656 812.7563,166.75 Q812.7094,166.3906 812.5219,166.2031 Q812.1938,165.8281 811.5844,165.6094 Q810.975,165.3906 810.35,165.3906 Q809.5844,165.3906 808.9516,165.7188 Q808.3188,166.0469 807.8266,166.7969 Q807.3344,167.5469 807.3344,168.5781 L807.3344,169.6719 Q807.3344,170.9063 808.225,171.7266 Q809.1156,172.5469 810.7094,172.5469 Q811.6469,172.5469 812.3031,172.2969 Q812.6938,172.1406 813.1156,171.7031 Q813.3813,171.4375 813.5297,171.3594 Q813.6781,171.2813 813.8813,171.2813 Q814.2094,171.2813 814.4672,171.5391 Q814.725,171.7969 814.725,172.1406 Q814.725,172.4844 814.3813,172.8906 Q813.8813,173.4688 813.0844,173.7969 Q812.0063,174.25 810.7094,174.25 Q809.1938,174.25 807.9906,173.625 Q807.0063,173.125 806.3188,172.0547 Q805.6313,170.9844 805.6313,169.7031 L805.6313,168.5469 Q805.6313,167.2188 806.2484,166.0703 Q806.8656,164.9219 807.9594,164.3047 Q809.0531,163.6875 810.2875,163.6875 Q811.0219,163.6875 811.6703,163.8516 Q812.3188,164.0156 812.8656,164.375 Z "/><text fill="#000000" font-family="sans-serif" font-size="12" lengthAdjust="spacingAndGlyphs" textLength="46" x="829.9" y="173.4102">Address</text><line style="stroke: #A80036; stroke-width: 1.5;" x1="770" x2="904" y1="184.5" y2="184.5"/><rect fill="none" height="6" style="stroke: #C82930; stroke-width: 1.0;" width="6" x="777" y="193.918"/><text fill="#000000" font-family="sans-serif" font-size="11" lengthAdjust="spacingAndGlyphs" textLength="59" x="789" y="199.9189">String street</text><rect fill="none" height="6" style="stroke: #C82930; stroke-width: 1.0;" width="6" x="777" y="207.7539"/><text fill="#000000" font-family="sans-serif" font-size="11" lengthAdjust="spacingAndGlyphs" textLength="85" x="789" y="213.7549">String postalCode</text><rect fill="none" height="6" style="stroke: #C82930; stroke-width: 1.0;" width="6" x="777" y="221.5898"/><text fill="#000000" font-family="sans-serif" font-size="11" lengthAdjust="spacingAndGlyphs" textLength="72" x="789" y="227.5908">Integer number</text><rect fill="none" height="6" style="stroke: #C82930; stroke-width: 1.0;" width="6" x="777" y="235.4258"/><text fill="#000000" font-family="sans-serif" font-size="11" lengthAdjust="spacingAndGlyphs" textLength="64" x="789" y="241.4268">String locality</text><rect fill="none" height="6" style="stroke: #C82930; stroke-width: 1.0;" width="6" x="777" y="249.2617"/><text fill="#000000" font-family="sans-serif" font-size="11" lengthAdjust="spacingAndGlyphs" textLength="110" x="789" y="255.2627">String GPSCoordinates</text><rect fill="none" height="6" style="stroke: #C82930; stroke-width: 1.0;" width="6" x="777" y="263.0977"/><text fill="#000000" font-family="sans-serif" font-size="11" lengthAdjust="spacingAndGlyphs" textLength="79" x="789" y="269.0986">Integer elevation</text><!--class User--><rect fill="#FEFECE" filter="url(#f8xhv5zssjjy2)" height="81.5078" id="User" style="stroke: #A80036; stroke-width: 1.5;" width="107" x="557.5" y="218"/><ellipse cx="594.1" cy="234" fill="#ADD1B2" rx="11" ry="11" style="stroke: #A80036; stroke-width: 1.0;"/><path d="M596.8656,229.875 Q597.0219,229.6563 597.2094,229.5469 Q597.3969,229.4375 597.6156,229.4375 Q597.9906,229.4375 598.225,229.6953 Q598.4594,229.9531 598.4594,230.5625 L598.4594,232.0156 Q598.4594,232.625 598.225,232.8906 Q597.9906,233.1563 597.6156,233.1563 Q597.2719,233.1563 597.0688,232.9531 Q596.8656,232.7656 596.7563,232.25 Q596.7094,231.8906 596.5219,231.7031 Q596.1938,231.3281 595.5844,231.1094 Q594.975,230.8906 594.35,230.8906 Q593.5844,230.8906 592.9516,231.2188 Q592.3188,231.5469 591.8266,232.2969 Q591.3344,233.0469 591.3344,234.0781 L591.3344,235.1719 Q591.3344,236.4063 592.225,237.2266 Q593.1156,238.0469 594.7094,238.0469 Q595.6469,238.0469 596.3031,237.7969 Q596.6938,237.6406 597.1156,237.2031 Q597.3813,236.9375 597.5297,236.8594 Q597.6781,236.7813 597.8813,236.7813 Q598.2094,236.7813 598.4672,237.0391 Q598.725,237.2969 598.725,237.6406 Q598.725,237.9844 598.3813,238.3906 Q597.8813,238.9688 597.0844,239.2969 Q596.0063,239.75 594.7094,239.75 Q593.1938,239.75 591.9906,239.125 Q591.0063,238.625 590.3188,237.5547 Q589.6313,236.4844 589.6313,235.2031 L589.6313,234.0469 Q589.6313,232.7188 590.2484,231.5703 Q590.8656,230.4219 591.9594,229.8047 Q593.0531,229.1875 594.2875,229.1875 Q595.0219,229.1875 595.6703,229.3516 Q596.3188,229.5156 596.8656,229.875 Z "/><text fill="#000000" font-family="sans-serif" font-size="12" lengthAdjust="spacingAndGlyphs" textLength="27" x="612.9" y="238.9102">User</text><line style="stroke: #A80036; stroke-width: 1.5;" x1="558.5" x2="663.5" y1="250" y2="250"/><rect fill="none" height="6" style="stroke: #C82930; stroke-width: 1.0;" width="6" x="565.5" y="259.418"/><text fill="#000000" font-family="sans-serif" font-size="11" lengthAdjust="spacingAndGlyphs" textLength="57" x="577.5" y="265.4189">String name</text><rect fill="none" height="6" style="stroke: #C82930; stroke-width: 1.0;" width="6" x="565.5" y="273.2539"/><text fill="#000000" font-family="sans-serif" font-size="11" lengthAdjust="spacingAndGlyphs" textLength="55" x="577.5" y="279.2549">String email</text><rect fill="none" height="6" style="stroke: #C82930; stroke-width: 1.0;" width="6" x="565.5" y="287.0898"/><text fill="#000000" font-family="sans-serif" font-size="11" lengthAdjust="spacingAndGlyphs" textLength="81" x="577.5" y="293.0908">String password</text><!--class Administrator--><rect fill="#FEFECE" filter="url(#f8xhv5zssjjy2)" height="53.8359" id="Administrator" style="stroke: #A80036; stroke-width: 1.5;" width="105" x="275" y="186"/><ellipse cx="290" cy="202" fill="#ADD1B2" rx="11" ry="11" style="stroke: #A80036; stroke-width: 1.0;"/><path d="M292.7656,197.875 Q292.9219,197.6563 293.1094,197.5469 Q293.2969,197.4375 293.5156,197.4375 Q293.8906,197.4375 294.125,197.6953 Q294.3594,197.9531 294.3594,198.5625 L294.3594,200.0156 Q294.3594,200.625 294.125,200.8906 Q293.8906,201.1563 293.5156,201.1563 Q293.1719,201.1563 292.9688,200.9531 Q292.7656,200.7656 292.6563,200.25 Q292.6094,199.8906 292.4219,199.7031 Q292.0938,199.3281 291.4844,199.1094 Q290.875,198.8906 290.25,198.8906 Q289.4844,198.8906 288.8516,199.2188 Q288.2188,199.5469 287.7266,200.2969 Q287.2344,201.0469 287.2344,202.0781 L287.2344,203.1719 Q287.2344,204.4063 288.125,205.2266 Q289.0156,206.0469 290.6094,206.0469 Q291.5469,206.0469 292.2031,205.7969 Q292.5938,205.6406 293.0156,205.2031 Q293.2813,204.9375 293.4297,204.8594 Q293.5781,204.7813 293.7813,204.7813 Q294.1094,204.7813 294.3672,205.0391 Q294.625,205.2969 294.625,205.6406 Q294.625,205.9844 294.2813,206.3906 Q293.7813,206.9688 292.9844,207.2969 Q291.9063,207.75 290.6094,207.75 Q289.0938,207.75 287.8906,207.125 Q286.9063,206.625 286.2188,205.5547 Q285.5313,204.4844 285.5313,203.2031 L285.5313,202.0469 Q285.5313,200.7188 286.1484,199.5703 Q286.7656,198.4219 287.8594,197.8047 Q288.9531,197.1875 290.1875,197.1875 Q290.9219,197.1875 291.5703,197.3516 Q292.2188,197.5156 292.7656,197.875 Z "/><text fill="#000000" font-family="sans-serif" font-size="12" lengthAdjust="spacingAndGlyphs" textLength="73" x="304" y="206.9102">Administrator</text><line style="stroke: #A80036; stroke-width: 1.5;" x1="276" x2="379" y1="218" y2="218"/><rect fill="none" height="6" style="stroke: #C82930; stroke-width: 1.0;" width="6" x="283" y="227.418"/><text fill="#000000" font-family="sans-serif" font-size="11" lengthAdjust="spacingAndGlyphs" textLength="55" x="295" y="233.4189">String email</text><!--link Platform to Pharmacy--><path d="M118.076,195.173 C127.985,192.247 138.259,189.393 148,187 C263.044,158.741 292.042,148.936 410,138 C460.893,133.282 473.89,137.699 525,138 C534.593,138.056 544.794,138.149 554.676,138.255 " fill="none" id="Platform-Pharmacy" style="stroke: #A80036; stroke-width: 1.0;"/><text fill="#000000" font-family="sans-serif" font-size="13" lengthAdjust="spacingAndGlyphs" textLength="82" x="280" y="137.4951">has registered</text><polygon fill="#000000" points="365,130.6758,371,133.6758,365,136.6758,365,130.6758" style="stroke: #000000; stroke-width: 1.0;"/><text fill="#000000" font-family="sans-serif" font-size="13" lengthAdjust="spacingAndGlyphs" textLength="7" x="126.0815" y="207.3823">1</text><text fill="#000000" font-family="sans-serif" font-size="13" lengthAdjust="spacingAndGlyphs" textLength="5" x="542.1392" y="152.7232">*</text><!--link Platform to Administrator--><path d="M118.238,213 C164.417,213 229.787,213 274.915,213 " fill="none" id="Platform-Administrator" style="stroke: #A80036; stroke-width: 1.0;"/><text fill="#000000" font-family="sans-serif" font-size="13" lengthAdjust="spacingAndGlyphs" textLength="82" x="149" y="209.4951">has registered</text><polygon fill="#000000" points="234,202.6758,240,205.6758,234,208.6758,234,202.6758" style="stroke: #000000; stroke-width: 1.0;"/><text fill="#000000" font-family="sans-serif" font-size="13" lengthAdjust="spacingAndGlyphs" textLength="7" x="125.8919" y="227.5531">1</text><text fill="#000000" font-family="sans-serif" font-size="13" lengthAdjust="spacingAndGlyphs" textLength="7" x="260.028" y="227.6564">1</text><!--link Platform to User--><path d="M118.251,234.2119 C160.464,249.2347 220.475,268.0698 275,276 C374.121,290.4163 491.272,277.7866 557.481,267.9462 " fill="none" id="Platform-User" style="stroke: #A80036; stroke-width: 1.0;"/><text fill="#000000" font-family="sans-serif" font-size="13" lengthAdjust="spacingAndGlyphs" textLength="82" x="280" y="272.4951">has registered</text><polygon fill="#000000" points="365,265.6758,371,268.6758,365,271.6758,365,265.6758" style="stroke: #000000; stroke-width: 1.0;"/><text fill="#000000" font-family="sans-serif" font-size="13" lengthAdjust="spacingAndGlyphs" textLength="7" x="125.9066" y="251.4828">1</text><text fill="#000000" font-family="sans-serif" font-size="13" lengthAdjust="spacingAndGlyphs" textLength="5" x="544.6033" y="283.8837">*</text><!--link Pharmacy to Address--><path d="M667.151,160.312 C677.052,163.981 687.304,167.678 697,171 C720.3,178.982 746.014,187.121 768.924,194.14 " fill="none" id="Pharmacy-Address" style="stroke: #A80036; stroke-width: 1.0;"/><text fill="#000000" font-family="sans-serif" font-size="13" lengthAdjust="spacingAndGlyphs" textLength="21" x="698" y="167.4951">has</text><polygon fill="#000000" points="722,160.6758,728,163.6758,722,166.6758,722,160.6758" style="stroke: #000000; stroke-width: 1.0;"/><text fill="#000000" font-family="sans-serif" font-size="13" lengthAdjust="spacingAndGlyphs" textLength="7" x="675.1666" y="177.7916">1</text><text fill="#000000" font-family="sans-serif" font-size="13" lengthAdjust="spacingAndGlyphs" textLength="7" x="754.0954" y="206.3563">1</text><!--link Pharmacy to Park--><path d="M667.083,120.311 C695.971,110.51 731.738,98.375 762.913,87.798 " fill="none" id="Pharmacy-Park" style="stroke: #A80036; stroke-width: 1.0;"/><text fill="#000000" font-family="sans-serif" font-size="13" lengthAdjust="spacingAndGlyphs" textLength="21" x="698" y="94.4951">has</text><polygon fill="#000000" points="722,87.6758,728,90.6758,722,93.6758,722,87.6758" style="stroke: #000000; stroke-width: 1.0;"/><text fill="#000000" font-family="sans-serif" font-size="13" lengthAdjust="spacingAndGlyphs" textLength="7" x="675.0895" y="132.4154">1</text><text fill="#000000" font-family="sans-serif" font-size="13" lengthAdjust="spacingAndGlyphs" textLength="5" x="750.015" y="104.6843">*</text><!--link Park to Spot--><path d="M911.242,63 C942.049,63 977.442,63 1006.65,63 " fill="none" id="Park-Spot" style="stroke: #A80036; stroke-width: 1.0;"/><text fill="#000000" font-family="sans-serif" font-size="13" lengthAdjust="spacingAndGlyphs" textLength="21" x="942" y="59.4951">has</text><polygon fill="#000000" points="966,52.6758,972,55.6758,966,58.6758,966,52.6758" style="stroke: #000000; stroke-width: 1.0;"/><text fill="#000000" font-family="sans-serif" font-size="13" lengthAdjust="spacingAndGlyphs" textLength="7" x="918.8947" y="77.2911">1</text><text fill="#000000" font-family="sans-serif" font-size="13" lengthAdjust="spacingAndGlyphs" textLength="5" x="993.9281" y="77.5215">*</text><!--link Administrator to User--><path d="M380.131,221.4371 C430.447,229.6592 506.574,242.0992 557.264,250.3823 " fill="none" id="Administrator-User" style="stroke: #A80036; stroke-width: 1.0;"/><text fill="#000000" font-family="sans-serif" font-size="13" lengthAdjust="spacingAndGlyphs" textLength="43" x="439.5" y="222.4951">acts as</text><polygon fill="#000000" points="485.5,215.6758,491.5,218.6758,485.5,221.6758,485.5,215.6758" style="stroke: #000000; stroke-width: 1.0;"/><text fill="#000000" font-family="sans-serif" font-size="13" lengthAdjust="spacingAndGlyphs" textLength="22" x="387.886" y="236.9669">0..1</text><text fill="#000000" font-family="sans-serif" font-size="13" lengthAdjust="spacingAndGlyphs" textLength="7" x="542.5729" y="263.8511">1</text><!--link Administrator to Pharmacy--><path d="M380.131,199.427 C429.653,186.409 504.179,166.818 554.846,153.499 " fill="none" id="Administrator-Pharmacy" style="stroke: #A80036; stroke-width: 1.0;"/><text fill="#000000" font-family="sans-serif" font-size="13" lengthAdjust="spacingAndGlyphs" textLength="100" x="411" y="158.4951">creates/manages</text><polygon fill="#000000" points="514,151.6758,520,154.6758,514,157.6758,514,151.6758" style="stroke: #000000; stroke-width: 1.0;"/><text fill="#000000" font-family="sans-serif" font-size="13" lengthAdjust="spacingAndGlyphs" textLength="7" x="388.0244" y="212.1747">1</text><text fill="#000000" font-family="sans-serif" font-size="13" lengthAdjust="spacingAndGlyphs" textLength="5" x="541.9644" y="170.0631">*</text><!--
@startuml

hide methods
left to right direction

class Platform {
  -String designation
}

class Pharmacy {
  -String designation
  -String email
}

class Park {
  -Integer id
  -String designation
  -Integer spotsCapacity
  -Double powerCapacity
  -Integer chargingScooters
}

class Spot {
  -Integer id
  -String chargingSpot
  -Integer idPark
}

class Address {
  -String street
  -String postalCode
  -Integer number
  -String locality
  -String GPSCoordinates
  -Integer elevation
}

class User {
  -String name
  -String email
  -String password
}

class Administrator {
  -String email
}

Platform "1" - - "*" Pharmacy : has registered >
Platform "1" - - "1" Administrator : has registered >
Platform "1" - - "*" User : has registered >

Pharmacy "1" - - "1" Address : has >
Pharmacy "1" - - "*" Park : has >

Park "1" - - "*" Spot : has >

Administrator "0..1" - - "1" User : acts as >
Administrator "1" - - "*" Pharmacy : creates/manages >


@enduml

PlantUML version 1.2018.14(Fri Dec 21 16:33:16 GMT 2018)
(GPL source distribution)
Java Runtime: Java(TM) SE Runtime Environment
JVM: Java HotSpot(TM) 64-Bit Server VM
Java Version: 1.8.0_221-b11
Operating System: Windows 10
OS Version: 10.0
Default Encoding: Cp1252
Language: pt
Country: PT
--></g></svg>