<?xml version="1.0" encoding="UTF-8" standalone="no"?><svg xmlns="http://www.w3.org/2000/svg" xmlns:xlink="http://www.w3.org/1999/xlink" contentScriptType="application/ecmascript" contentStyleType="text/css" height="701px" preserveAspectRatio="none" style="width:1055px;height:701px;" version="1.1" viewBox="0 0 1055 701" width="1055px" zoomAndPan="magnify"><defs><filter height="300%" id="f4bvog64pdan4" width="300%" x="-1" y="-1"><feGaussianBlur result="blurOut" stdDeviation="2.0"/><feColorMatrix in="blurOut" result="blurOut2" type="matrix" values="0 0 0 0 0 0 0 0 0 0 0 0 0 0 0 0 0 0 .4 0"/><feOffset dx="4.0" dy="4.0" in="blurOut2" result="blurOut3"/><feBlend in="SourceGraphic" in2="blurOut3" mode="normal"/></filter></defs><g><!--class UserRegisterUI--><rect fill="#FEFECE" filter="url(#f4bvog64pdan4)" height="48" id="UserRegisterUI" style="stroke: #A80036; stroke-width: 1.5;" width="118" x="506" y="8"/><ellipse cx="521" cy="24" fill="#ADD1B2" rx="11" ry="11" style="stroke: #A80036; stroke-width: 1.0;"/><path d="M523.7656,19.875 Q523.9219,19.6563 524.1094,19.5469 Q524.2969,19.4375 524.5156,19.4375 Q524.8906,19.4375 525.125,19.6953 Q525.3594,19.9531 525.3594,20.5625 L525.3594,22.0156 Q525.3594,22.625 525.125,22.8906 Q524.8906,23.1563 524.5156,23.1563 Q524.1719,23.1563 523.9688,22.9531 Q523.7656,22.7656 523.6563,22.25 Q523.6094,21.8906 523.4219,21.7031 Q523.0938,21.3281 522.4844,21.1094 Q521.875,20.8906 521.25,20.8906 Q520.4844,20.8906 519.8516,21.2188 Q519.2188,21.5469 518.7266,22.2969 Q518.2344,23.0469 518.2344,24.0781 L518.2344,25.1719 Q518.2344,26.4063 519.125,27.2266 Q520.0156,28.0469 521.6094,28.0469 Q522.5469,28.0469 523.2031,27.7969 Q523.5938,27.6406 524.0156,27.2031 Q524.2813,26.9375 524.4297,26.8594 Q524.5781,26.7813 524.7813,26.7813 Q525.1094,26.7813 525.3672,27.0391 Q525.625,27.2969 525.625,27.6406 Q525.625,27.9844 525.2813,28.3906 Q524.7813,28.9688 523.9844,29.2969 Q522.9063,29.75 521.6094,29.75 Q520.0938,29.75 518.8906,29.125 Q517.9063,28.625 517.2188,27.5547 Q516.5313,26.4844 516.5313,25.2031 L516.5313,24.0469 Q516.5313,22.7188 517.1484,21.5703 Q517.7656,20.4219 518.8594,19.8047 Q519.9531,19.1875 521.1875,19.1875 Q521.9219,19.1875 522.5703,19.3516 Q523.2188,19.5156 523.7656,19.875 Z "/><text fill="#000000" font-family="sans-serif" font-size="12" lengthAdjust="spacingAndGlyphs" textLength="86" x="535" y="28.9102">UserRegisterUI</text><line style="stroke: #A80036; stroke-width: 1.5;" x1="507" x2="623" y1="40" y2="40"/><line style="stroke: #A80036; stroke-width: 1.5;" x1="507" x2="623" y1="48" y2="48"/><!--class UserRegisterController--><rect fill="#FEFECE" filter="url(#f4bvog64pdan4)" height="89.5078" id="UserRegisterController" style="stroke: #A80036; stroke-width: 1.5;" width="591" x="269.5" y="117"/><ellipse cx="496.75" cy="133" fill="#ADD1B2" rx="11" ry="11" style="stroke: #A80036; stroke-width: 1.0;"/><path d="M499.5156,128.875 Q499.6719,128.6563 499.8594,128.5469 Q500.0469,128.4375 500.2656,128.4375 Q500.6406,128.4375 500.875,128.6953 Q501.1094,128.9531 501.1094,129.5625 L501.1094,131.0156 Q501.1094,131.625 500.875,131.8906 Q500.6406,132.1563 500.2656,132.1563 Q499.9219,132.1563 499.7188,131.9531 Q499.5156,131.7656 499.4063,131.25 Q499.3594,130.8906 499.1719,130.7031 Q498.8438,130.3281 498.2344,130.1094 Q497.625,129.8906 497,129.8906 Q496.2344,129.8906 495.6016,130.2188 Q494.9688,130.5469 494.4766,131.2969 Q493.9844,132.0469 493.9844,133.0781 L493.9844,134.1719 Q493.9844,135.4063 494.875,136.2266 Q495.7656,137.0469 497.3594,137.0469 Q498.2969,137.0469 498.9531,136.7969 Q499.3438,136.6406 499.7656,136.2031 Q500.0313,135.9375 500.1797,135.8594 Q500.3281,135.7813 500.5313,135.7813 Q500.8594,135.7813 501.1172,136.0391 Q501.375,136.2969 501.375,136.6406 Q501.375,136.9844 501.0313,137.3906 Q500.5313,137.9688 499.7344,138.2969 Q498.6563,138.75 497.3594,138.75 Q495.8438,138.75 494.6406,138.125 Q493.6563,137.625 492.9688,136.5547 Q492.2813,135.4844 492.2813,134.2031 L492.2813,133.0469 Q492.2813,131.7188 492.8984,130.5703 Q493.5156,129.4219 494.6094,128.8047 Q495.7031,128.1875 496.9375,128.1875 Q497.6719,128.1875 498.3203,128.3516 Q498.9688,128.5156 499.5156,128.875 Z "/><text fill="#000000" font-family="sans-serif" font-size="12" lengthAdjust="spacingAndGlyphs" textLength="128" x="517.25" y="137.9102">UserRegisterController</text><line style="stroke: #A80036; stroke-width: 1.5;" x1="270.5" x2="859.5" y1="149" y2="149"/><text fill="#000000" font-family="sans-serif" font-size="11" lengthAdjust="spacingAndGlyphs" textLength="75" x="275.5" y="164.4189">+getClientString</text><line style="stroke: #A80036; stroke-width: 1.5;" x1="270.5" x2="859.5" y1="170.8359" y2="170.8359"/><text fill="#000000" font-family="sans-serif" font-size="11" lengthAdjust="spacingAndGlyphs" textLength="579" x="275.5" y="186.2549">+newClient(name,email,password,street,postalCode,number,locality,gpsCoordinates,creditCardNumber,validityDate,ccv)</text><text fill="#000000" font-family="sans-serif" font-size="11" lengthAdjust="spacingAndGlyphs" textLength="58" x="275.5" y="200.0908">+addClient()</text><!--class ClientDB--><rect fill="#FEFECE" filter="url(#f4bvog64pdan4)" height="75.6719" id="ClientDB" style="stroke: #A80036; stroke-width: 1.5;" width="142" x="6" y="323"/><ellipse cx="48.45" cy="339" fill="#ADD1B2" rx="11" ry="11" style="stroke: #A80036; stroke-width: 1.0;"/><path d="M51.2156,334.875 Q51.3719,334.6563 51.5594,334.5469 Q51.7469,334.4375 51.9656,334.4375 Q52.3406,334.4375 52.575,334.6953 Q52.8094,334.9531 52.8094,335.5625 L52.8094,337.0156 Q52.8094,337.625 52.575,337.8906 Q52.3406,338.1563 51.9656,338.1563 Q51.6219,338.1563 51.4188,337.9531 Q51.2156,337.7656 51.1063,337.25 Q51.0594,336.8906 50.8719,336.7031 Q50.5438,336.3281 49.9344,336.1094 Q49.325,335.8906 48.7,335.8906 Q47.9344,335.8906 47.3016,336.2188 Q46.6688,336.5469 46.1766,337.2969 Q45.6844,338.0469 45.6844,339.0781 L45.6844,340.1719 Q45.6844,341.4063 46.575,342.2266 Q47.4656,343.0469 49.0594,343.0469 Q49.9969,343.0469 50.6531,342.7969 Q51.0438,342.6406 51.4656,342.2031 Q51.7313,341.9375 51.8797,341.8594 Q52.0281,341.7813 52.2313,341.7813 Q52.5594,341.7813 52.8172,342.0391 Q53.075,342.2969 53.075,342.6406 Q53.075,342.9844 52.7313,343.3906 Q52.2313,343.9688 51.4344,344.2969 Q50.3563,344.75 49.0594,344.75 Q47.5438,344.75 46.3406,344.125 Q45.3563,343.625 44.6688,342.5547 Q43.9813,341.4844 43.9813,340.2031 L43.9813,339.0469 Q43.9813,337.7188 44.5984,336.5703 Q45.2156,335.4219 46.3094,334.8047 Q47.4031,334.1875 48.6375,334.1875 Q49.3719,334.1875 50.0203,334.3516 Q50.6688,334.5156 51.2156,334.875 Z "/><text fill="#000000" font-family="sans-serif" font-size="12" lengthAdjust="spacingAndGlyphs" textLength="49" x="68.55" y="343.9102">ClientDB</text><line style="stroke: #A80036; stroke-width: 1.5;" x1="7" x2="147" y1="355" y2="355"/><line style="stroke: #A80036; stroke-width: 1.5;" x1="7" x2="147" y1="363" y2="363"/><text fill="#000000" font-family="sans-serif" font-size="11" lengthAdjust="spacingAndGlyphs" textLength="130" x="12" y="378.4189">+Client getClient(userEmail)</text><text fill="#000000" font-family="sans-serif" font-size="11" lengthAdjust="spacingAndGlyphs" textLength="94" x="12" y="392.2549">+isClient(userEmail)</text><!--class Client--><rect fill="#FEFECE" filter="url(#f4bvog64pdan4)" height="186.3594" id="Client" style="stroke: #A80036; stroke-width: 1.5;" width="406" x="362" y="268"/><ellipse cx="544.75" cy="284" fill="#ADD1B2" rx="11" ry="11" style="stroke: #A80036; stroke-width: 1.0;"/><path d="M547.5156,279.875 Q547.6719,279.6563 547.8594,279.5469 Q548.0469,279.4375 548.2656,279.4375 Q548.6406,279.4375 548.875,279.6953 Q549.1094,279.9531 549.1094,280.5625 L549.1094,282.0156 Q549.1094,282.625 548.875,282.8906 Q548.6406,283.1563 548.2656,283.1563 Q547.9219,283.1563 547.7188,282.9531 Q547.5156,282.7656 547.4063,282.25 Q547.3594,281.8906 547.1719,281.7031 Q546.8438,281.3281 546.2344,281.1094 Q545.625,280.8906 545,280.8906 Q544.2344,280.8906 543.6016,281.2188 Q542.9688,281.5469 542.4766,282.2969 Q541.9844,283.0469 541.9844,284.0781 L541.9844,285.1719 Q541.9844,286.4063 542.875,287.2266 Q543.7656,288.0469 545.3594,288.0469 Q546.2969,288.0469 546.9531,287.7969 Q547.3438,287.6406 547.7656,287.2031 Q548.0313,286.9375 548.1797,286.8594 Q548.3281,286.7813 548.5313,286.7813 Q548.8594,286.7813 549.1172,287.0391 Q549.375,287.2969 549.375,287.6406 Q549.375,287.9844 549.0313,288.3906 Q548.5313,288.9688 547.7344,289.2969 Q546.6563,289.75 545.3594,289.75 Q543.8438,289.75 542.6406,289.125 Q541.6563,288.625 540.9688,287.5547 Q540.2813,286.4844 540.2813,285.2031 L540.2813,284.0469 Q540.2813,282.7188 540.8984,281.5703 Q541.5156,280.4219 542.6094,279.8047 Q543.7031,279.1875 544.9375,279.1875 Q545.6719,279.1875 546.3203,279.3516 Q546.9688,279.5156 547.5156,279.875 Z "/><text fill="#000000" font-family="sans-serif" font-size="12" lengthAdjust="spacingAndGlyphs" textLength="32" x="565.25" y="288.9102">Client</text><line style="stroke: #A80036; stroke-width: 1.5;" x1="363" x2="767" y1="300" y2="300"/><text fill="#000000" font-family="sans-serif" font-size="11" lengthAdjust="spacingAndGlyphs" textLength="59" x="368" y="315.4189">-String email</text><text fill="#000000" font-family="sans-serif" font-size="11" lengthAdjust="spacingAndGlyphs" textLength="89" x="368" y="329.2549">-Address address</text><text fill="#000000" font-family="sans-serif" font-size="11" lengthAdjust="spacingAndGlyphs" textLength="114" x="368" y="343.0908">-long creditCardNumber</text><text fill="#000000" font-family="sans-serif" font-size="11" lengthAdjust="spacingAndGlyphs" textLength="84" x="368" y="356.9268">-Date validityDate</text><text fill="#000000" font-family="sans-serif" font-size="11" lengthAdjust="spacingAndGlyphs" textLength="58" x="368" y="370.7627">-Integer ccv</text><text fill="#000000" font-family="sans-serif" font-size="11" lengthAdjust="spacingAndGlyphs" textLength="73" x="368" y="384.5986">-Integer credits</text><line style="stroke: #A80036; stroke-width: 1.5;" x1="363" x2="767" y1="391.0156" y2="391.0156"/><text fill="#000000" font-family="sans-serif" font-size="11" lengthAdjust="spacingAndGlyphs" textLength="358" x="368" y="406.4346">+Client(name,email,password,address,creditCardNumber,validityDate,ccv)</text><text fill="#000000" font-family="sans-serif" font-size="11" lengthAdjust="spacingAndGlyphs" textLength="394" x="368" y="420.2705">+Client(name,email,password,address,creditCardNumber,validityDate,ccv,credits)</text><text fill="#000000" font-family="sans-serif" font-size="11" lengthAdjust="spacingAndGlyphs" textLength="77" x="368" y="434.1064">+save(getEmail)</text><text fill="#000000" font-family="sans-serif" font-size="11" lengthAdjust="spacingAndGlyphs" textLength="126" x="368" y="447.9424">+addCredits(credits,price)</text><!--class AddressDB--><rect fill="#FEFECE" filter="url(#f4bvog64pdan4)" height="61.8359" id="AddressDB" style="stroke: #A80036; stroke-width: 1.5;" width="143" x="183.5" y="330"/><ellipse cx="220.1" cy="346" fill="#ADD1B2" rx="11" ry="11" style="stroke: #A80036; stroke-width: 1.0;"/><path d="M222.8656,341.875 Q223.0219,341.6563 223.2094,341.5469 Q223.3969,341.4375 223.6156,341.4375 Q223.9906,341.4375 224.225,341.6953 Q224.4594,341.9531 224.4594,342.5625 L224.4594,344.0156 Q224.4594,344.625 224.225,344.8906 Q223.9906,345.1563 223.6156,345.1563 Q223.2719,345.1563 223.0688,344.9531 Q222.8656,344.7656 222.7563,344.25 Q222.7094,343.8906 222.5219,343.7031 Q222.1938,343.3281 221.5844,343.1094 Q220.975,342.8906 220.35,342.8906 Q219.5844,342.8906 218.9516,343.2188 Q218.3188,343.5469 217.8266,344.2969 Q217.3344,345.0469 217.3344,346.0781 L217.3344,347.1719 Q217.3344,348.4063 218.225,349.2266 Q219.1156,350.0469 220.7094,350.0469 Q221.6469,350.0469 222.3031,349.7969 Q222.6938,349.6406 223.1156,349.2031 Q223.3813,348.9375 223.5297,348.8594 Q223.6781,348.7813 223.8813,348.7813 Q224.2094,348.7813 224.4672,349.0391 Q224.725,349.2969 224.725,349.6406 Q224.725,349.9844 224.3813,350.3906 Q223.8813,350.9688 223.0844,351.2969 Q222.0063,351.75 220.7094,351.75 Q219.1938,351.75 217.9906,351.125 Q217.0063,350.625 216.3188,349.5547 Q215.6313,348.4844 215.6313,347.2031 L215.6313,346.0469 Q215.6313,344.7188 216.2484,343.5703 Q216.8656,342.4219 217.9594,341.8047 Q219.0531,341.1875 220.2875,341.1875 Q221.0219,341.1875 221.6703,341.3516 Q222.3188,341.5156 222.8656,341.875 Z "/><text fill="#000000" font-family="sans-serif" font-size="12" lengthAdjust="spacingAndGlyphs" textLength="63" x="238.9" y="350.9102">AddressDB</text><line style="stroke: #A80036; stroke-width: 1.5;" x1="184.5" x2="325.5" y1="362" y2="362"/><line style="stroke: #A80036; stroke-width: 1.5;" x1="184.5" x2="325.5" y1="370" y2="370"/><text fill="#000000" font-family="sans-serif" font-size="11" lengthAdjust="spacingAndGlyphs" textLength="131" x="189.5" y="385.4189">+addAdress(Address add)</text><!--class Address--><rect fill="#FEFECE" filter="url(#f4bvog64pdan4)" height="144.8516" id="Address" style="stroke: #A80036; stroke-width: 1.5;" width="345" x="273.5" y="539"/><ellipse cx="418.75" cy="555" fill="#ADD1B2" rx="11" ry="11" style="stroke: #A80036; stroke-width: 1.0;"/><path d="M421.5156,550.875 Q421.6719,550.6563 421.8594,550.5469 Q422.0469,550.4375 422.2656,550.4375 Q422.6406,550.4375 422.875,550.6953 Q423.1094,550.9531 423.1094,551.5625 L423.1094,553.0156 Q423.1094,553.625 422.875,553.8906 Q422.6406,554.1563 422.2656,554.1563 Q421.9219,554.1563 421.7188,553.9531 Q421.5156,553.7656 421.4063,553.25 Q421.3594,552.8906 421.1719,552.7031 Q420.8438,552.3281 420.2344,552.1094 Q419.625,551.8906 419,551.8906 Q418.2344,551.8906 417.6016,552.2188 Q416.9688,552.5469 416.4766,553.2969 Q415.9844,554.0469 415.9844,555.0781 L415.9844,556.1719 Q415.9844,557.4063 416.875,558.2266 Q417.7656,559.0469 419.3594,559.0469 Q420.2969,559.0469 420.9531,558.7969 Q421.3438,558.6406 421.7656,558.2031 Q422.0313,557.9375 422.1797,557.8594 Q422.3281,557.7813 422.5313,557.7813 Q422.8594,557.7813 423.1172,558.0391 Q423.375,558.2969 423.375,558.6406 Q423.375,558.9844 423.0313,559.3906 Q422.5313,559.9688 421.7344,560.2969 Q420.6563,560.75 419.3594,560.75 Q417.8438,560.75 416.6406,560.125 Q415.6563,559.625 414.9688,558.5547 Q414.2813,557.4844 414.2813,556.2031 L414.2813,555.0469 Q414.2813,553.7188 414.8984,552.5703 Q415.5156,551.4219 416.6094,550.8047 Q417.7031,550.1875 418.9375,550.1875 Q419.6719,550.1875 420.3203,550.3516 Q420.9688,550.5156 421.5156,550.875 Z "/><text fill="#000000" font-family="sans-serif" font-size="12" lengthAdjust="spacingAndGlyphs" textLength="46" x="439.25" y="559.9102">Address</text><line style="stroke: #A80036; stroke-width: 1.5;" x1="274.5" x2="617.5" y1="571" y2="571"/><text fill="#000000" font-family="sans-serif" font-size="11" lengthAdjust="spacingAndGlyphs" textLength="63" x="279.5" y="586.4189">-String street</text><text fill="#000000" font-family="sans-serif" font-size="11" lengthAdjust="spacingAndGlyphs" textLength="89" x="279.5" y="600.2549">-String postalCode</text><text fill="#000000" font-family="sans-serif" font-size="11" lengthAdjust="spacingAndGlyphs" textLength="76" x="279.5" y="614.0908">-Integer number</text><text fill="#000000" font-family="sans-serif" font-size="11" lengthAdjust="spacingAndGlyphs" textLength="68" x="279.5" y="627.9268">-String locality</text><text fill="#000000" font-family="sans-serif" font-size="11" lengthAdjust="spacingAndGlyphs" textLength="114" x="279.5" y="641.7627">-String GPSCoordinates</text><line style="stroke: #A80036; stroke-width: 1.5;" x1="274.5" x2="617.5" y1="648.1797" y2="648.1797"/><text fill="#000000" font-family="sans-serif" font-size="11" lengthAdjust="spacingAndGlyphs" textLength="333" x="279.5" y="663.5986">+Address(GPSCoordinates, street, postalCode, doorNumber, locality)</text><text fill="#000000" font-family="sans-serif" font-size="11" lengthAdjust="spacingAndGlyphs" textLength="38" x="279.5" y="677.4346">+save()</text><!--class User--><rect fill="#FEFECE" filter="url(#f4bvog64pdan4)" height="158.6875" id="User" style="stroke: #A80036; stroke-width: 1.5;" width="155" x="698.5" y="532"/><ellipse cx="758.25" cy="548" fill="#ADD1B2" rx="11" ry="11" style="stroke: #A80036; stroke-width: 1.0;"/><path d="M761.0156,543.875 Q761.1719,543.6563 761.3594,543.5469 Q761.5469,543.4375 761.7656,543.4375 Q762.1406,543.4375 762.375,543.6953 Q762.6094,543.9531 762.6094,544.5625 L762.6094,546.0156 Q762.6094,546.625 762.375,546.8906 Q762.1406,547.1563 761.7656,547.1563 Q761.4219,547.1563 761.2188,546.9531 Q761.0156,546.7656 760.9063,546.25 Q760.8594,545.8906 760.6719,545.7031 Q760.3438,545.3281 759.7344,545.1094 Q759.125,544.8906 758.5,544.8906 Q757.7344,544.8906 757.1016,545.2188 Q756.4688,545.5469 755.9766,546.2969 Q755.4844,547.0469 755.4844,548.0781 L755.4844,549.1719 Q755.4844,550.4063 756.375,551.2266 Q757.2656,552.0469 758.8594,552.0469 Q759.7969,552.0469 760.4531,551.7969 Q760.8438,551.6406 761.2656,551.2031 Q761.5313,550.9375 761.6797,550.8594 Q761.8281,550.7813 762.0313,550.7813 Q762.3594,550.7813 762.6172,551.0391 Q762.875,551.2969 762.875,551.6406 Q762.875,551.9844 762.5313,552.3906 Q762.0313,552.9688 761.2344,553.2969 Q760.1563,553.75 758.8594,553.75 Q757.3438,553.75 756.1406,553.125 Q755.1563,552.625 754.4688,551.5547 Q753.7813,550.4844 753.7813,549.2031 L753.7813,548.0469 Q753.7813,546.7188 754.3984,545.5703 Q755.0156,544.4219 756.1094,543.8047 Q757.2031,543.1875 758.4375,543.1875 Q759.1719,543.1875 759.8203,543.3516 Q760.4688,543.5156 761.0156,543.875 Z "/><text fill="#000000" font-family="sans-serif" font-size="12" lengthAdjust="spacingAndGlyphs" textLength="27" x="778.75" y="552.9102">User</text><line style="stroke: #A80036; stroke-width: 1.5;" x1="699.5" x2="852.5" y1="564" y2="564"/><text fill="#000000" font-family="sans-serif" font-size="11" lengthAdjust="spacingAndGlyphs" textLength="61" x="704.5" y="579.4189">-String name</text><text fill="#000000" font-family="sans-serif" font-size="11" lengthAdjust="spacingAndGlyphs" textLength="59" x="704.5" y="593.2549">-String email</text><text fill="#000000" font-family="sans-serif" font-size="11" lengthAdjust="spacingAndGlyphs" textLength="85" x="704.5" y="607.0908">-String password</text><line style="stroke: #A80036; stroke-width: 1.5;" x1="699.5" x2="852.5" y1="613.5078" y2="613.5078"/><text fill="#000000" font-family="sans-serif" font-size="11" lengthAdjust="spacingAndGlyphs" textLength="143" x="704.5" y="628.9268">+User(name,email,password)</text><text fill="#000000" font-family="sans-serif" font-size="11" lengthAdjust="spacingAndGlyphs" textLength="62" x="704.5" y="642.7627">+save(email)</text><text fill="#000000" font-family="sans-serif" font-size="11" lengthAdjust="spacingAndGlyphs" textLength="93" x="704.5" y="656.5986">+getGetUser(email)</text><text fill="#000000" font-family="sans-serif" font-size="11" lengthAdjust="spacingAndGlyphs" textLength="74" x="704.5" y="670.4346">+remove(email)</text><text fill="#000000" font-family="sans-serif" font-size="11" lengthAdjust="spacingAndGlyphs" textLength="132" x="704.5" y="684.2705">+hasPassword(password)</text><!--class UserDB--><rect fill="#FEFECE" filter="url(#f4bvog64pdan4)" height="103.3438" id="UserDB" style="stroke: #A80036; stroke-width: 1.5;" width="170" x="874" y="309.5"/><ellipse cx="932.75" cy="325.5" fill="#ADD1B2" rx="11" ry="11" style="stroke: #A80036; stroke-width: 1.0;"/><path d="M935.5156,321.375 Q935.6719,321.1563 935.8594,321.0469 Q936.0469,320.9375 936.2656,320.9375 Q936.6406,320.9375 936.875,321.1953 Q937.1094,321.4531 937.1094,322.0625 L937.1094,323.5156 Q937.1094,324.125 936.875,324.3906 Q936.6406,324.6563 936.2656,324.6563 Q935.9219,324.6563 935.7188,324.4531 Q935.5156,324.2656 935.4063,323.75 Q935.3594,323.3906 935.1719,323.2031 Q934.8438,322.8281 934.2344,322.6094 Q933.625,322.3906 933,322.3906 Q932.2344,322.3906 931.6016,322.7188 Q930.9688,323.0469 930.4766,323.7969 Q929.9844,324.5469 929.9844,325.5781 L929.9844,326.6719 Q929.9844,327.9063 930.875,328.7266 Q931.7656,329.5469 933.3594,329.5469 Q934.2969,329.5469 934.9531,329.2969 Q935.3438,329.1406 935.7656,328.7031 Q936.0313,328.4375 936.1797,328.3594 Q936.3281,328.2813 936.5313,328.2813 Q936.8594,328.2813 937.1172,328.5391 Q937.375,328.7969 937.375,329.1406 Q937.375,329.4844 937.0313,329.8906 Q936.5313,330.4688 935.7344,330.7969 Q934.6563,331.25 933.3594,331.25 Q931.8438,331.25 930.6406,330.625 Q929.6563,330.125 928.9688,329.0547 Q928.2813,327.9844 928.2813,326.7031 L928.2813,325.5469 Q928.2813,324.2188 928.8984,323.0703 Q929.5156,321.9219 930.6094,321.3047 Q931.7031,320.6875 932.9375,320.6875 Q933.6719,320.6875 934.3203,320.8516 Q934.9688,321.0156 935.5156,321.375 Z "/><text fill="#000000" font-family="sans-serif" font-size="12" lengthAdjust="spacingAndGlyphs" textLength="44" x="953.25" y="330.4102">UserDB</text><line style="stroke: #A80036; stroke-width: 1.5;" x1="875" x2="1043" y1="341.5" y2="341.5"/><line style="stroke: #A80036; stroke-width: 1.5;" x1="875" x2="1043" y1="349.5" y2="349.5"/><text fill="#000000" font-family="sans-serif" font-size="11" lengthAdjust="spacingAndGlyphs" textLength="158" x="880" y="364.9189">+User findUser(email,password)</text><text fill="#000000" font-family="sans-serif" font-size="11" lengthAdjust="spacingAndGlyphs" textLength="102" x="880" y="378.7549">+User getUser(email)</text><text fill="#000000" font-family="sans-serif" font-size="11" lengthAdjust="spacingAndGlyphs" textLength="77" x="880" y="392.5908">+addUser(user)</text><text fill="#000000" font-family="sans-serif" font-size="11" lengthAdjust="spacingAndGlyphs" textLength="95" x="880" y="406.4268">+removeUser(user)</text><!--link UserRegisterUI to UserRegisterController--><path d="M565,56.18 C565,71.59 565,92.42 565,111.45 " fill="none" id="UserRegisterUI-UserRegisterController" style="stroke: #A80036; stroke-width: 1.0; stroke-dasharray: 7.0,7.0;"/><polygon fill="#A80036" points="565,116.76,569,107.76,565,111.76,561,107.76,565,116.76" style="stroke: #A80036; stroke-width: 1.0;"/><!--link UserRegisterController to ClientDB--><path d="M312.96,207.06 C262.25,221.97 210.82,241.76 166,268 C143.89,280.94 123.65,300.89 108.07,318.9 " fill="none" id="UserRegisterController-ClientDB" style="stroke: #A80036; stroke-width: 1.0; stroke-dasharray: 7.0,7.0;"/><polygon fill="#A80036" points="104.62,322.95,113.5049,318.7006,107.8657,319.1467,107.4196,313.5074,104.62,322.95" style="stroke: #A80036; stroke-width: 1.0;"/><!--link UserRegisterController to Client--><path d="M565,207.21 C565,223.7 565,243.14 565,262.52 " fill="none" id="UserRegisterController-Client" style="stroke: #A80036; stroke-width: 1.0; stroke-dasharray: 7.0,7.0;"/><polygon fill="#A80036" points="565,267.99,569,258.99,565,262.99,561,258.99,565,267.99" style="stroke: #A80036; stroke-width: 1.0;"/><!--link UserRegisterController to User--><path d="M715.99,207.04 C743.37,221.97 768.46,241.78 785,268 C833.66,345.13 820.8,452.73 802.66,526.63 " fill="none" id="UserRegisterController-User" style="stroke: #A80036; stroke-width: 1.0; stroke-dasharray: 7.0,7.0;"/><polygon fill="#A80036" points="801.35,531.89,807.4134,524.1289,802.5627,527.0393,799.6523,522.1886,801.35,531.89" style="stroke: #A80036; stroke-width: 1.0;"/><!--link UserRegisterController to UserDB--><path d="M784.58,207.04 C806.4,215.38 827.62,225.27 847,237 C875.61,254.32 901.25,281.14 920.76,305.32 " fill="none" id="UserRegisterController-UserDB" style="stroke: #A80036; stroke-width: 1.0; stroke-dasharray: 7.0,7.0;"/><polygon fill="#A80036" points="924.08,309.49,921.5897,299.9612,920.96,305.5829,915.3383,304.9531,924.08,309.49" style="stroke: #A80036; stroke-width: 1.0;"/><!--link UserRegisterController to AddressDB--><path d="M452.46,207.03 C416.28,223.61 377.04,244.28 344,268 C321.18,284.39 299.19,307.03 282.78,325.75 " fill="none" id="UserRegisterController-AddressDB" style="stroke: #A80036; stroke-width: 1.0; stroke-dasharray: 7.0,7.0;"/><polygon fill="#A80036" points="279.15,329.93,288.0779,325.7716,282.4344,326.16,282.046,320.5165,279.15,329.93" style="stroke: #A80036; stroke-width: 1.0;"/><!--link Client to User--><path d="M643.27,454.18 C664.97,479.73 688.31,507.23 709.28,531.93 " fill="none" id="Client-User" style="stroke: #A80036; stroke-width: 1.0;"/><text fill="#000000" font-family="sans-serif" font-size="13" lengthAdjust="spacingAndGlyphs" textLength="36" x="685" y="498.4951">act as</text><polygon fill="#000000" points="698.5,507.3516,701.5,513.3516,704.5,507.3516,698.5,507.3516" style="stroke: #000000; stroke-width: 1.0;"/><text fill="#000000" font-family="sans-serif" font-size="13" lengthAdjust="spacingAndGlyphs" textLength="22" x="626.6306" y="475.7376">0..1</text><text fill="#000000" font-family="sans-serif" font-size="13" lengthAdjust="spacingAndGlyphs" textLength="7" x="695.5872" y="521.1102">1</text><!--link Client to Address--><path d="M520.86,454.18 C507.5,482.08 493.03,512.3 480.4,538.66 " fill="none" id="Client-Address" style="stroke: #A80036; stroke-width: 1.0;"/><text fill="#000000" font-family="sans-serif" font-size="13" lengthAdjust="spacingAndGlyphs" textLength="21" x="507" y="498.4951">has</text><polygon fill="#000000" points="513,507.3516,516,513.3516,519,507.3516,513,507.3516" style="stroke: #000000; stroke-width: 1.0;"/><text fill="#000000" font-family="sans-serif" font-size="13" lengthAdjust="spacingAndGlyphs" textLength="7" x="510.0637" y="475.7376">1</text><text fill="#000000" font-family="sans-serif" font-size="13" lengthAdjust="spacingAndGlyphs" textLength="7" x="476.4417" y="528.222">1</text><!--link AddressDB to Address--><path d="M278.42,392.47 C306.26,428.69 353.65,490.34 390.94,538.86 " fill="none" id="AddressDB-Address" style="stroke: #A80036; stroke-width: 1.0;"/><text fill="#000000" font-family="sans-serif" font-size="13" lengthAdjust="spacingAndGlyphs" textLength="33" x="363" y="498.4951">saves</text><polygon fill="#000000" points="375,507.3516,378,513.3516,381,507.3516,375,507.3516" style="stroke: #000000; stroke-width: 1.0;"/><text fill="#000000" font-family="sans-serif" font-size="13" lengthAdjust="spacingAndGlyphs" textLength="7" x="275.0928" y="413.2899">1</text><text fill="#000000" font-family="sans-serif" font-size="13" lengthAdjust="spacingAndGlyphs" textLength="5" x="380.0041" y="528.0649">*</text><!--
@startuml
skinparam classAttributeIconSize 0

class UserRegisterUI {

}

class UserRegisterController {
  +newClient(name,email,password,street,postalCode,number,locality,gpsCoordinates,creditCardNumber,validityDate,ccv)
  +addClient()
  +getClientString
}

class ClientDB {
  +Client getClient(userEmail)
  +isClient(userEmail)
}

class Client {
  -String email
  -Address address
  -long creditCardNumber
  -Date validityDate
  -Integer ccv
  -Integer credits
  +Client(name,email,password,address,creditCardNumber,validityDate,ccv)
  +Client(name,email,password,address,creditCardNumber,validityDate,ccv,credits)
  +save(getEmail)
  +addCredits(credits,price)
}

class AddressDB {
  +addAdress(Address add)
}

class Address {

  -String street
  -String postalCode
  -Integer number
  -String locality
  -String GPSCoordinates

  +Address(GPSCoordinates, street, postalCode, doorNumber, locality)
  +save()
}

class User {
  -String name
  -String email
  -String password
  +User(name,email,password)
  +save(email)
  +getGetUser(email)
  +remove(email)
  +hasPassword(password)
}

class UserDB {
  +User findUser(email,password)
  +User getUser(email)
  +addUser(user)
  +removeUser(user)
}

UserRegisterUI ..> UserRegisterController
UserRegisterController ..> ClientDB
UserRegisterController ..> Client
UserRegisterController ..> User
UserRegisterController ..> UserDB
UserRegisterController ..> AddressDB

Client "0..1" - - "1" User : act as >
Client "1" - - "1" Address : has >
AddressDB "1" - - "*"Address : saves >

@enduml

PlantUML version 1.2018.14(Fri Dec 21 16:33:16 GMT 2018)
(GPL source distribution)
Java Runtime: Java(TM) SE Runtime Environment
JVM: Java HotSpot(TM) Client VM
Java Version: 1.8.0_251-b08
Operating System: Windows 10
OS Version: 10.0
Default Encoding: Cp1252
Language: en
Country: US
--></g></svg>