<?xml version="1.0" encoding="UTF-8" standalone="no"?><svg xmlns="http://www.w3.org/2000/svg" xmlns:xlink="http://www.w3.org/1999/xlink" contentScriptType="application/ecmascript" contentStyleType="text/css" height="302px" preserveAspectRatio="none" style="width:677px;height:302px;" version="1.1" viewBox="0 0 677 302" width="677px" zoomAndPan="magnify"><defs><filter height="300%" id="f1ocua7fi8x68a" width="300%" x="-1" y="-1"><feGaussianBlur result="blurOut" stdDeviation="2.0"/><feColorMatrix in="blurOut" result="blurOut2" type="matrix" values="0 0 0 0 0 0 0 0 0 0 0 0 0 0 0 0 0 0 .4 0"/><feOffset dx="4.0" dy="4.0" in="blurOut2" result="blurOut3"/><feBlend in="SourceGraphic" in2="blurOut3" mode="normal"/></filter></defs><g><!--class Platform--><rect fill="#FEFECE" filter="url(#f1ocua7fi8x68a)" height="53.8359" id="Platform" style="stroke: #A80036; stroke-width: 1.5;" width="112" x="6" y="58.5"/><ellipse cx="36.3" cy="74.5" fill="#ADD1B2" rx="11" ry="11" style="stroke: #A80036; stroke-width: 1.0;"/><path d="M39.0656,70.375 Q39.2219,70.1563 39.4094,70.0469 Q39.5969,69.9375 39.8156,69.9375 Q40.1906,69.9375 40.425,70.1953 Q40.6594,70.4531 40.6594,71.0625 L40.6594,72.5156 Q40.6594,73.125 40.425,73.3906 Q40.1906,73.6563 39.8156,73.6563 Q39.4719,73.6563 39.2688,73.4531 Q39.0656,73.2656 38.9563,72.75 Q38.9094,72.3906 38.7219,72.2031 Q38.3938,71.8281 37.7844,71.6094 Q37.175,71.3906 36.55,71.3906 Q35.7844,71.3906 35.1516,71.7188 Q34.5188,72.0469 34.0266,72.7969 Q33.5344,73.5469 33.5344,74.5781 L33.5344,75.6719 Q33.5344,76.9063 34.425,77.7266 Q35.3156,78.5469 36.9094,78.5469 Q37.8469,78.5469 38.5031,78.2969 Q38.8938,78.1406 39.3156,77.7031 Q39.5813,77.4375 39.7297,77.3594 Q39.8781,77.2813 40.0813,77.2813 Q40.4094,77.2813 40.6672,77.5391 Q40.925,77.7969 40.925,78.1406 Q40.925,78.4844 40.5813,78.8906 Q40.0813,79.4688 39.2844,79.7969 Q38.2063,80.25 36.9094,80.25 Q35.3938,80.25 34.1906,79.625 Q33.2063,79.125 32.5188,78.0547 Q31.8312,76.9844 31.8312,75.7031 L31.8312,74.5469 Q31.8312,73.2188 32.4484,72.0703 Q33.0656,70.9219 34.1594,70.3047 Q35.2531,69.6875 36.4875,69.6875 Q37.2219,69.6875 37.8703,69.8516 Q38.5188,70.0156 39.0656,70.375 Z "/><text fill="#000000" font-family="sans-serif" font-size="12" lengthAdjust="spacingAndGlyphs" textLength="46" x="53.7" y="79.4102">Platform</text><line style="stroke: #A80036; stroke-width: 1.5;" x1="7" x2="117" y1="90.5" y2="90.5"/><rect fill="none" height="6" style="stroke: #C82930; stroke-width: 1.0;" width="6" x="14" y="99.918"/><text fill="#000000" font-family="sans-serif" font-size="11" lengthAdjust="spacingAndGlyphs" textLength="86" x="26" y="105.9189">String designation</text><!--class User--><rect fill="#FEFECE" filter="url(#f1ocua7fi8x68a)" height="81.5078" id="User" style="stroke: #A80036; stroke-width: 1.5;" width="107" x="544.5" y="44.5"/><ellipse cx="581.1" cy="60.5" fill="#ADD1B2" rx="11" ry="11" style="stroke: #A80036; stroke-width: 1.0;"/><path d="M583.8656,56.375 Q584.0219,56.1563 584.2094,56.0469 Q584.3969,55.9375 584.6156,55.9375 Q584.9906,55.9375 585.225,56.1953 Q585.4594,56.4531 585.4594,57.0625 L585.4594,58.5156 Q585.4594,59.125 585.225,59.3906 Q584.9906,59.6563 584.6156,59.6563 Q584.2719,59.6563 584.0688,59.4531 Q583.8656,59.2656 583.7563,58.75 Q583.7094,58.3906 583.5219,58.2031 Q583.1938,57.8281 582.5844,57.6094 Q581.975,57.3906 581.35,57.3906 Q580.5844,57.3906 579.9516,57.7188 Q579.3188,58.0469 578.8266,58.7969 Q578.3344,59.5469 578.3344,60.5781 L578.3344,61.6719 Q578.3344,62.9063 579.225,63.7266 Q580.1156,64.5469 581.7094,64.5469 Q582.6469,64.5469 583.3031,64.2969 Q583.6938,64.1406 584.1156,63.7031 Q584.3813,63.4375 584.5297,63.3594 Q584.6781,63.2813 584.8813,63.2813 Q585.2094,63.2813 585.4672,63.5391 Q585.725,63.7969 585.725,64.1406 Q585.725,64.4844 585.3813,64.8906 Q584.8813,65.4688 584.0844,65.7969 Q583.0063,66.25 581.7094,66.25 Q580.1938,66.25 578.9906,65.625 Q578.0063,65.125 577.3188,64.0547 Q576.6313,62.9844 576.6313,61.7031 L576.6313,60.5469 Q576.6313,59.2188 577.2484,58.0703 Q577.8656,56.9219 578.9594,56.3047 Q580.0531,55.6875 581.2875,55.6875 Q582.0219,55.6875 582.6703,55.8516 Q583.3188,56.0156 583.8656,56.375 Z "/><text fill="#000000" font-family="sans-serif" font-size="12" lengthAdjust="spacingAndGlyphs" textLength="27" x="599.9" y="65.4102">User</text><line style="stroke: #A80036; stroke-width: 1.5;" x1="545.5" x2="650.5" y1="76.5" y2="76.5"/><rect fill="none" height="6" style="stroke: #C82930; stroke-width: 1.0;" width="6" x="552.5" y="85.918"/><text fill="#000000" font-family="sans-serif" font-size="11" lengthAdjust="spacingAndGlyphs" textLength="57" x="564.5" y="91.9189">String name</text><rect fill="none" height="6" style="stroke: #C82930; stroke-width: 1.0;" width="6" x="552.5" y="99.7539"/><text fill="#000000" font-family="sans-serif" font-size="11" lengthAdjust="spacingAndGlyphs" textLength="55" x="564.5" y="105.7549">String email</text><rect fill="none" height="6" style="stroke: #C82930; stroke-width: 1.0;" width="6" x="552.5" y="113.5898"/><text fill="#000000" font-family="sans-serif" font-size="11" lengthAdjust="spacingAndGlyphs" textLength="81" x="564.5" y="119.5908">String password</text><!--class Administrator--><rect fill="#FEFECE" filter="url(#f1ocua7fi8x68a)" height="67.6719" id="Administrator" style="stroke: #A80036; stroke-width: 1.5;" width="105" x="294.5" y="51.5"/><ellipse cx="309.5" cy="67.5" fill="#ADD1B2" rx="11" ry="11" style="stroke: #A80036; stroke-width: 1.0;"/><path d="M312.2656,63.375 Q312.4219,63.1563 312.6094,63.0469 Q312.7969,62.9375 313.0156,62.9375 Q313.3906,62.9375 313.625,63.1953 Q313.8594,63.4531 313.8594,64.0625 L313.8594,65.5156 Q313.8594,66.125 313.625,66.3906 Q313.3906,66.6563 313.0156,66.6563 Q312.6719,66.6563 312.4688,66.4531 Q312.2656,66.2656 312.1563,65.75 Q312.1094,65.3906 311.9219,65.2031 Q311.5938,64.8281 310.9844,64.6094 Q310.375,64.3906 309.75,64.3906 Q308.9844,64.3906 308.3516,64.7188 Q307.7188,65.0469 307.2266,65.7969 Q306.7344,66.5469 306.7344,67.5781 L306.7344,68.6719 Q306.7344,69.9063 307.625,70.7266 Q308.5156,71.5469 310.1094,71.5469 Q311.0469,71.5469 311.7031,71.2969 Q312.0938,71.1406 312.5156,70.7031 Q312.7813,70.4375 312.9297,70.3594 Q313.0781,70.2813 313.2813,70.2813 Q313.6094,70.2813 313.8672,70.5391 Q314.125,70.7969 314.125,71.1406 Q314.125,71.4844 313.7813,71.8906 Q313.2813,72.4688 312.4844,72.7969 Q311.4063,73.25 310.1094,73.25 Q308.5938,73.25 307.3906,72.625 Q306.4063,72.125 305.7188,71.0547 Q305.0313,69.9844 305.0313,68.7031 L305.0313,67.5469 Q305.0313,66.2188 305.6484,65.0703 Q306.2656,63.9219 307.3594,63.3047 Q308.4531,62.6875 309.6875,62.6875 Q310.4219,62.6875 311.0703,62.8516 Q311.7188,63.0156 312.2656,63.375 Z "/><text fill="#000000" font-family="sans-serif" font-size="12" lengthAdjust="spacingAndGlyphs" textLength="73" x="323.5" y="72.4102">Administrator</text><line style="stroke: #A80036; stroke-width: 1.5;" x1="295.5" x2="398.5" y1="83.5" y2="83.5"/><rect fill="none" height="6" style="stroke: #C82930; stroke-width: 1.0;" width="6" x="302.5" y="92.918"/><text fill="#000000" font-family="sans-serif" font-size="11" lengthAdjust="spacingAndGlyphs" textLength="57" x="314.5" y="98.9189">String name</text><rect fill="none" height="6" style="stroke: #C82930; stroke-width: 1.0;" width="6" x="302.5" y="106.7539"/><text fill="#000000" font-family="sans-serif" font-size="11" lengthAdjust="spacingAndGlyphs" textLength="55" x="314.5" y="112.7549">String email</text><!--class Client--><rect fill="#FEFECE" filter="url(#f1ocua7fi8x68a)" height="136.8516" id="Client" style="stroke: #A80036; stroke-width: 1.5;" width="144" x="275" y="155"/><ellipse cx="326.75" cy="171" fill="#ADD1B2" rx="11" ry="11" style="stroke: #A80036; stroke-width: 1.0;"/><path d="M329.5156,166.875 Q329.6719,166.6563 329.8594,166.5469 Q330.0469,166.4375 330.2656,166.4375 Q330.6406,166.4375 330.875,166.6953 Q331.1094,166.9531 331.1094,167.5625 L331.1094,169.0156 Q331.1094,169.625 330.875,169.8906 Q330.6406,170.1563 330.2656,170.1563 Q329.9219,170.1563 329.7188,169.9531 Q329.5156,169.7656 329.4063,169.25 Q329.3594,168.8906 329.1719,168.7031 Q328.8438,168.3281 328.2344,168.1094 Q327.625,167.8906 327,167.8906 Q326.2344,167.8906 325.6016,168.2188 Q324.9688,168.5469 324.4766,169.2969 Q323.9844,170.0469 323.9844,171.0781 L323.9844,172.1719 Q323.9844,173.4063 324.875,174.2266 Q325.7656,175.0469 327.3594,175.0469 Q328.2969,175.0469 328.9531,174.7969 Q329.3438,174.6406 329.7656,174.2031 Q330.0313,173.9375 330.1797,173.8594 Q330.3281,173.7813 330.5313,173.7813 Q330.8594,173.7813 331.1172,174.0391 Q331.375,174.2969 331.375,174.6406 Q331.375,174.9844 331.0313,175.3906 Q330.5313,175.9688 329.7344,176.2969 Q328.6563,176.75 327.3594,176.75 Q325.8438,176.75 324.6406,176.125 Q323.6563,175.625 322.9688,174.5547 Q322.2813,173.4844 322.2813,172.2031 L322.2813,171.0469 Q322.2813,169.7188 322.8984,168.5703 Q323.5156,167.4219 324.6094,166.8047 Q325.7031,166.1875 326.9375,166.1875 Q327.6719,166.1875 328.3203,166.3516 Q328.9688,166.5156 329.5156,166.875 Z "/><text fill="#000000" font-family="sans-serif" font-size="12" lengthAdjust="spacingAndGlyphs" textLength="32" x="347.25" y="175.9102">Client</text><line style="stroke: #A80036; stroke-width: 1.5;" x1="276" x2="418" y1="187" y2="187"/><rect fill="none" height="6" style="stroke: #C82930; stroke-width: 1.0;" width="6" x="283" y="196.418"/><text fill="#000000" font-family="sans-serif" font-size="11" lengthAdjust="spacingAndGlyphs" textLength="57" x="295" y="202.4189">String name</text><rect fill="none" height="6" style="stroke: #C82930; stroke-width: 1.0;" width="6" x="283" y="210.2539"/><text fill="#000000" font-family="sans-serif" font-size="11" lengthAdjust="spacingAndGlyphs" textLength="55" x="295" y="216.2549">String email</text><rect fill="none" height="6" style="stroke: #C82930; stroke-width: 1.0;" width="6" x="283" y="224.0898"/><text fill="#000000" font-family="sans-serif" font-size="11" lengthAdjust="spacingAndGlyphs" textLength="81" x="295" y="230.0908">String password</text><rect fill="none" height="6" style="stroke: #C82930; stroke-width: 1.0;" width="6" x="283" y="237.9258"/><text fill="#000000" font-family="sans-serif" font-size="11" lengthAdjust="spacingAndGlyphs" textLength="118" x="295" y="243.9268">String creditCardNumber</text><rect fill="none" height="6" style="stroke: #C82930; stroke-width: 1.0;" width="6" x="283" y="251.7617"/><text fill="#000000" font-family="sans-serif" font-size="11" lengthAdjust="spacingAndGlyphs" textLength="80" x="295" y="257.7627">Date validityDate</text><rect fill="none" height="6" style="stroke: #C82930; stroke-width: 1.0;" width="6" x="283" y="265.5977"/><text fill="#000000" font-family="sans-serif" font-size="11" lengthAdjust="spacingAndGlyphs" textLength="54" x="295" y="271.5986">Integer ccv</text><rect fill="none" height="6" style="stroke: #C82930; stroke-width: 1.0;" width="6" x="283" y="279.4336"/><text fill="#000000" font-family="sans-serif" font-size="11" lengthAdjust="spacingAndGlyphs" textLength="69" x="295" y="285.4346">Integer credits</text><!--class Address--><rect fill="#FEFECE" filter="url(#f1ocua7fi8x68a)" height="109.1797" id="Address" style="stroke: #A80036; stroke-width: 1.5;" width="136" x="530" y="169"/><ellipse cx="571.1" cy="185" fill="#ADD1B2" rx="11" ry="11" style="stroke: #A80036; stroke-width: 1.0;"/><path d="M573.8656,180.875 Q574.0219,180.6563 574.2094,180.5469 Q574.3969,180.4375 574.6156,180.4375 Q574.9906,180.4375 575.225,180.6953 Q575.4594,180.9531 575.4594,181.5625 L575.4594,183.0156 Q575.4594,183.625 575.225,183.8906 Q574.9906,184.1563 574.6156,184.1563 Q574.2719,184.1563 574.0688,183.9531 Q573.8656,183.7656 573.7563,183.25 Q573.7094,182.8906 573.5219,182.7031 Q573.1938,182.3281 572.5844,182.1094 Q571.975,181.8906 571.35,181.8906 Q570.5844,181.8906 569.9516,182.2188 Q569.3188,182.5469 568.8266,183.2969 Q568.3344,184.0469 568.3344,185.0781 L568.3344,186.1719 Q568.3344,187.4063 569.225,188.2266 Q570.1156,189.0469 571.7094,189.0469 Q572.6469,189.0469 573.3031,188.7969 Q573.6938,188.6406 574.1156,188.2031 Q574.3813,187.9375 574.5297,187.8594 Q574.6781,187.7813 574.8813,187.7813 Q575.2094,187.7813 575.4672,188.0391 Q575.725,188.2969 575.725,188.6406 Q575.725,188.9844 575.3813,189.3906 Q574.8813,189.9688 574.0844,190.2969 Q573.0063,190.75 571.7094,190.75 Q570.1938,190.75 568.9906,190.125 Q568.0063,189.625 567.3188,188.5547 Q566.6313,187.4844 566.6313,186.2031 L566.6313,185.0469 Q566.6313,183.7188 567.2484,182.5703 Q567.8656,181.4219 568.9594,180.8047 Q570.0531,180.1875 571.2875,180.1875 Q572.0219,180.1875 572.6703,180.3516 Q573.3188,180.5156 573.8656,180.875 Z "/><text fill="#000000" font-family="sans-serif" font-size="12" lengthAdjust="spacingAndGlyphs" textLength="46" x="590.9" y="189.9102">Address</text><line style="stroke: #A80036; stroke-width: 1.5;" x1="531" x2="665" y1="201" y2="201"/><rect fill="none" height="6" style="stroke: #C82930; stroke-width: 1.0;" width="6" x="538" y="210.418"/><text fill="#000000" font-family="sans-serif" font-size="11" lengthAdjust="spacingAndGlyphs" textLength="59" x="550" y="216.4189">String street</text><rect fill="none" height="6" style="stroke: #C82930; stroke-width: 1.0;" width="6" x="538" y="224.2539"/><text fill="#000000" font-family="sans-serif" font-size="11" lengthAdjust="spacingAndGlyphs" textLength="85" x="550" y="230.2549">String postalCode</text><rect fill="none" height="6" style="stroke: #C82930; stroke-width: 1.0;" width="6" x="538" y="238.0898"/><text fill="#000000" font-family="sans-serif" font-size="11" lengthAdjust="spacingAndGlyphs" textLength="72" x="550" y="244.0908">Integer number</text><rect fill="none" height="6" style="stroke: #C82930; stroke-width: 1.0;" width="6" x="538" y="251.9258"/><text fill="#000000" font-family="sans-serif" font-size="11" lengthAdjust="spacingAndGlyphs" textLength="64" x="550" y="257.9268">String locality</text><rect fill="none" height="6" style="stroke: #C82930; stroke-width: 1.0;" width="6" x="538" y="265.7617"/><text fill="#000000" font-family="sans-serif" font-size="11" lengthAdjust="spacingAndGlyphs" textLength="110" x="550" y="271.7627">String GPSCoordinates</text><!--link Platform to Administrator--><path d="M118.24,85.5 C169.23,85.5 244.39,85.5 294.24,85.5 " fill="none" id="Platform-Administrator" style="stroke: #A80036; stroke-width: 1.0;"/><text fill="#000000" font-family="sans-serif" font-size="13" lengthAdjust="spacingAndGlyphs" textLength="82" x="149" y="81.9951">has registered</text><polygon fill="#000000" points="234,75.1758,240,78.1758,234,81.1758,234,75.1758" style="stroke: #000000; stroke-width: 1.0;"/><text fill="#000000" font-family="sans-serif" font-size="13" lengthAdjust="spacingAndGlyphs" textLength="7" x="125.8942" y="100.0531">1</text><text fill="#000000" font-family="sans-serif" font-size="13" lengthAdjust="spacingAndGlyphs" textLength="7" x="279.3284" y="100.1679">1</text><!--link Platform to User--><path d="M118.11,67.81 C128.02,64.87 138.28,61.98 148,59.5 C265.25,29.64 299.22,16.36 419,33.5 C462.02,39.66 509.17,53.78 544.13,65.76 " fill="none" id="Platform-User" style="stroke: #A80036; stroke-width: 1.0;"/><text fill="#000000" font-family="sans-serif" font-size="13" lengthAdjust="spacingAndGlyphs" textLength="82" x="299.5" y="22.9951">has registered</text><polygon fill="#000000" points="384.5,16.1758,390.5,19.1758,384.5,22.1758,384.5,16.1758" style="stroke: #000000; stroke-width: 1.0;"/><text fill="#000000" font-family="sans-serif" font-size="13" lengthAdjust="spacingAndGlyphs" textLength="7" x="126.1201" y="80.0377">1</text><text fill="#000000" font-family="sans-serif" font-size="13" lengthAdjust="spacingAndGlyphs" textLength="5" x="531.5553" y="77.7342">*</text><!--link Platform to Client--><path d="M118.24,112.44 C162.95,134.24 226.26,165.11 274.78,188.77 " fill="none" id="Platform-Client" style="stroke: #A80036; stroke-width: 1.0;"/><text fill="#000000" font-family="sans-serif" font-size="13" lengthAdjust="spacingAndGlyphs" textLength="82" x="149" y="126.9951">has registered</text><polygon fill="#000000" points="234,120.1758,240,123.1758,234,126.1758,234,120.1758" style="stroke: #000000; stroke-width: 1.0;"/><text fill="#000000" font-family="sans-serif" font-size="13" lengthAdjust="spacingAndGlyphs" textLength="7" x="122.7769" y="133.6346">1</text><text fill="#000000" font-family="sans-serif" font-size="13" lengthAdjust="spacingAndGlyphs" textLength="5" x="262.0745" y="199.5344">*</text><!--link Administrator to User--><path d="M399.59,85.5 C441.9,85.5 501.55,85.5 544.19,85.5 " fill="none" id="Administrator-User" style="stroke: #A80036; stroke-width: 1.0;"/><text fill="#000000" font-family="sans-serif" font-size="13" lengthAdjust="spacingAndGlyphs" textLength="36" x="450" y="81.9951">act as</text><polygon fill="#000000" points="489,75.1758,495,78.1758,489,81.1758,489,75.1758" style="stroke: #000000; stroke-width: 1.0;"/><text fill="#000000" font-family="sans-serif" font-size="13" lengthAdjust="spacingAndGlyphs" textLength="22" x="407.34" y="100.0115">0..1</text><text fill="#000000" font-family="sans-serif" font-size="13" lengthAdjust="spacingAndGlyphs" textLength="7" x="529.489" y="100.1268">1</text><!--link Client to User--><path d="M419.02,184.14 C458.98,161.99 508.02,134.82 544.49,114.6 " fill="none" id="Client-User" style="stroke: #A80036; stroke-width: 1.0;"/><text fill="#000000" font-family="sans-serif" font-size="13" lengthAdjust="spacingAndGlyphs" textLength="36" x="450" y="138.9951">act as</text><polygon fill="#000000" points="489,132.1758,495,135.1758,489,138.1758,489,132.1758" style="stroke: #000000; stroke-width: 1.0;"/><text fill="#000000" font-family="sans-serif" font-size="13" lengthAdjust="spacingAndGlyphs" textLength="22" x="426.9328" y="194.6699">0..1</text><text fill="#000000" font-family="sans-serif" font-size="13" lengthAdjust="spacingAndGlyphs" textLength="7" x="529.473" y="133.3716">1</text><!--link Client to Address--><path d="M419.02,223.5 C453.81,223.5 495.47,223.5 529.74,223.5 " fill="none" id="Client-Address" style="stroke: #A80036; stroke-width: 1.0;"/><text fill="#000000" font-family="sans-serif" font-size="13" lengthAdjust="spacingAndGlyphs" textLength="21" x="457.5" y="219.9951">has</text><polygon fill="#000000" points="481.5,213.1758,487.5,216.1758,481.5,219.1758,481.5,213.1758" style="stroke: #000000; stroke-width: 1.0;"/><text fill="#000000" font-family="sans-serif" font-size="13" lengthAdjust="spacingAndGlyphs" textLength="7" x="426.808" y="237.8459">1</text><text fill="#000000" font-family="sans-serif" font-size="13" lengthAdjust="spacingAndGlyphs" textLength="7" x="514.8913" y="237.8795">1</text><!--
@startuml

hide methods
left to right direction

class Platform {
  -String designation
}

class User {
  -String name
  -String email
  -String password
}

class Administrator {
  -String name
  -String email
}



class Client {
  -String name
  -String email
  -String password
  -String creditCardNumber
  -Date validityDate
  -Integer ccv
  -Integer credits
}

class Address {
  -String street
  -String postalCode
  -Integer number
  -String locality
  -String GPSCoordinates
}

Platform "1" - - "1" Administrator : has registered >
Platform "1" - - "*" User : has registered >
Platform "1" - - "*" Client : has registered >

Administrator "0..1" - - "1" User : act as >

Client "0..1" - - "1" User : act as >
Client "1" - - "1" Address : has >

@enduml

PlantUML version 1.2018.14(Fri Dec 21 16:33:16 GMT 2018)
(GPL source distribution)
Java Runtime: Java(TM) SE Runtime Environment
JVM: Java HotSpot(TM) Client VM
Java Version: 1.8.0_251-b08
Operating System: Windows 10
OS Version: 10.0
Default Encoding: Cp1252
Language: en
Country: US
--></g></svg>