<?xml version="1.0" encoding="UTF-8" standalone="no"?><svg xmlns="http://www.w3.org/2000/svg" xmlns:xlink="http://www.w3.org/1999/xlink" contentScriptType="application/ecmascript" contentStyleType="text/css" height="1070px" preserveAspectRatio="none" style="width:799px;height:1070px;" version="1.1" viewBox="0 0 799 1070" width="799px" zoomAndPan="magnify"><defs><filter height="300%" id="fqclvlgppgky4" width="300%" x="-1" y="-1"><feGaussianBlur result="blurOut" stdDeviation="2.0"/><feColorMatrix in="blurOut" result="blurOut2" type="matrix" values="0 0 0 0 0 0 0 0 0 0 0 0 0 0 0 0 0 0 .4 0"/><feOffset dx="4.0" dy="4.0" in="blurOut2" result="blurOut3"/><feBlend in="SourceGraphic" in2="blurOut3" mode="normal"/></filter></defs><g><!--class CreatePharmacyUI--><rect fill="#FEFECE" filter="url(#fqclvlgppgky4)" height="48" id="CreatePharmacyUI" style="stroke: #A80036; stroke-width: 1.5;" width="136" x="445.5" y="8"/><ellipse cx="460.5" cy="24" fill="#ADD1B2" rx="11" ry="11" style="stroke: #A80036; stroke-width: 1.0;"/><path d="M463.2656,19.875 Q463.4219,19.6563 463.6094,19.5469 Q463.7969,19.4375 464.0156,19.4375 Q464.3906,19.4375 464.625,19.6953 Q464.8594,19.9531 464.8594,20.5625 L464.8594,22.0156 Q464.8594,22.625 464.625,22.8906 Q464.3906,23.1563 464.0156,23.1563 Q463.6719,23.1563 463.4688,22.9531 Q463.2656,22.7656 463.1563,22.25 Q463.1094,21.8906 462.9219,21.7031 Q462.5938,21.3281 461.9844,21.1094 Q461.375,20.8906 460.75,20.8906 Q459.9844,20.8906 459.3516,21.2188 Q458.7188,21.5469 458.2266,22.2969 Q457.7344,23.0469 457.7344,24.0781 L457.7344,25.1719 Q457.7344,26.4063 458.625,27.2266 Q459.5156,28.0469 461.1094,28.0469 Q462.0469,28.0469 462.7031,27.7969 Q463.0938,27.6406 463.5156,27.2031 Q463.7813,26.9375 463.9297,26.8594 Q464.0781,26.7813 464.2813,26.7813 Q464.6094,26.7813 464.8672,27.0391 Q465.125,27.2969 465.125,27.6406 Q465.125,27.9844 464.7813,28.3906 Q464.2813,28.9688 463.4844,29.2969 Q462.4063,29.75 461.1094,29.75 Q459.5938,29.75 458.3906,29.125 Q457.4063,28.625 456.7188,27.5547 Q456.0313,26.4844 456.0313,25.2031 L456.0313,24.0469 Q456.0313,22.7188 456.6484,21.5703 Q457.2656,20.4219 458.3594,19.8047 Q459.4531,19.1875 460.6875,19.1875 Q461.4219,19.1875 462.0703,19.3516 Q462.7188,19.5156 463.2656,19.875 Z "/><text fill="#000000" font-family="sans-serif" font-size="12" lengthAdjust="spacingAndGlyphs" textLength="104" x="474.5" y="28.9102">CreatePharmacyUI</text><line style="stroke: #A80036; stroke-width: 1.5;" x1="446.5" x2="580.5" y1="40" y2="40"/><line style="stroke: #A80036; stroke-width: 1.5;" x1="446.5" x2="580.5" y1="48" y2="48"/><!--class CreatePharmacyController--><rect fill="#FEFECE" filter="url(#fqclvlgppgky4)" height="89.5078" id="CreatePharmacyController" style="stroke: #A80036; stroke-width: 1.5;" width="388" x="319.5" y="117"/><ellipse cx="436.25" cy="133" fill="#ADD1B2" rx="11" ry="11" style="stroke: #A80036; stroke-width: 1.0;"/><path d="M439.0156,128.875 Q439.1719,128.6563 439.3594,128.5469 Q439.5469,128.4375 439.7656,128.4375 Q440.1406,128.4375 440.375,128.6953 Q440.6094,128.9531 440.6094,129.5625 L440.6094,131.0156 Q440.6094,131.625 440.375,131.8906 Q440.1406,132.1563 439.7656,132.1563 Q439.4219,132.1563 439.2188,131.9531 Q439.0156,131.7656 438.9063,131.25 Q438.8594,130.8906 438.6719,130.7031 Q438.3438,130.3281 437.7344,130.1094 Q437.125,129.8906 436.5,129.8906 Q435.7344,129.8906 435.1016,130.2188 Q434.4688,130.5469 433.9766,131.2969 Q433.4844,132.0469 433.4844,133.0781 L433.4844,134.1719 Q433.4844,135.4063 434.375,136.2266 Q435.2656,137.0469 436.8594,137.0469 Q437.7969,137.0469 438.4531,136.7969 Q438.8438,136.6406 439.2656,136.2031 Q439.5313,135.9375 439.6797,135.8594 Q439.8281,135.7813 440.0313,135.7813 Q440.3594,135.7813 440.6172,136.0391 Q440.875,136.2969 440.875,136.6406 Q440.875,136.9844 440.5313,137.3906 Q440.0313,137.9688 439.2344,138.2969 Q438.1563,138.75 436.8594,138.75 Q435.3438,138.75 434.1406,138.125 Q433.1563,137.625 432.4688,136.5547 Q431.7813,135.4844 431.7813,134.2031 L431.7813,133.0469 Q431.7813,131.7188 432.3984,130.5703 Q433.0156,129.4219 434.1094,128.8047 Q435.2031,128.1875 436.4375,128.1875 Q437.1719,128.1875 437.8203,128.3516 Q438.4688,128.5156 439.0156,128.875 Z "/><text fill="#000000" font-family="sans-serif" font-size="12" lengthAdjust="spacingAndGlyphs" textLength="146" x="456.75" y="137.9102">CreatePharmacyController</text><line style="stroke: #A80036; stroke-width: 1.5;" x1="320.5" x2="706.5" y1="149" y2="149"/><line style="stroke: #A80036; stroke-width: 1.5;" x1="320.5" x2="706.5" y1="157" y2="157"/><text fill="#000000" font-family="sans-serif" font-size="11" lengthAdjust="spacingAndGlyphs" textLength="351" x="325.5" y="172.4189">+newPharmacy(designation,email,street,postalCode,doorNumber,locality,</text><text fill="#000000" font-family="sans-serif" font-size="11" lengthAdjust="spacingAndGlyphs" textLength="373" x="328.5" y="186.2549">gpsCoordinates,elevation,designationPark,spotsCapacity, powerCapacity,list)</text><text fill="#000000" font-family="sans-serif" font-size="11" lengthAdjust="spacingAndGlyphs" textLength="80" x="325.5" y="200.0908">+addPharmacy()</text><!--class Pharmacy--><rect fill="#FEFECE" filter="url(#fqclvlgppgky4)" height="117.1797" id="Pharmacy" style="stroke: #A80036; stroke-width: 1.5;" width="199" x="167" y="466"/><ellipse cx="234.75" cy="482" fill="#ADD1B2" rx="11" ry="11" style="stroke: #A80036; stroke-width: 1.0;"/><path d="M237.5156,477.875 Q237.6719,477.6563 237.8594,477.5469 Q238.0469,477.4375 238.2656,477.4375 Q238.6406,477.4375 238.875,477.6953 Q239.1094,477.9531 239.1094,478.5625 L239.1094,480.0156 Q239.1094,480.625 238.875,480.8906 Q238.6406,481.1563 238.2656,481.1563 Q237.9219,481.1563 237.7188,480.9531 Q237.5156,480.7656 237.4063,480.25 Q237.3594,479.8906 237.1719,479.7031 Q236.8438,479.3281 236.2344,479.1094 Q235.625,478.8906 235,478.8906 Q234.2344,478.8906 233.6016,479.2188 Q232.9688,479.5469 232.4766,480.2969 Q231.9844,481.0469 231.9844,482.0781 L231.9844,483.1719 Q231.9844,484.4063 232.875,485.2266 Q233.7656,486.0469 235.3594,486.0469 Q236.2969,486.0469 236.9531,485.7969 Q237.3438,485.6406 237.7656,485.2031 Q238.0313,484.9375 238.1797,484.8594 Q238.3281,484.7813 238.5313,484.7813 Q238.8594,484.7813 239.1172,485.0391 Q239.375,485.2969 239.375,485.6406 Q239.375,485.9844 239.0313,486.3906 Q238.5313,486.9688 237.7344,487.2969 Q236.6563,487.75 235.3594,487.75 Q233.8438,487.75 232.6406,487.125 Q231.6563,486.625 230.9688,485.5547 Q230.2813,484.4844 230.2813,483.2031 L230.2813,482.0469 Q230.2813,480.7188 230.8984,479.5703 Q231.5156,478.4219 232.6094,477.8047 Q233.7031,477.1875 234.9375,477.1875 Q235.6719,477.1875 236.3203,477.3516 Q236.9688,477.5156 237.5156,477.875 Z "/><text fill="#000000" font-family="sans-serif" font-size="12" lengthAdjust="spacingAndGlyphs" textLength="55" x="255.25" y="486.9102">Pharmacy</text><line style="stroke: #A80036; stroke-width: 1.5;" x1="168" x2="365" y1="498" y2="498"/><text fill="#000000" font-family="sans-serif" font-size="11" lengthAdjust="spacingAndGlyphs" textLength="90" x="173" y="513.4189">-String designation</text><text fill="#000000" font-family="sans-serif" font-size="11" lengthAdjust="spacingAndGlyphs" textLength="59" x="173" y="527.2549">-String email</text><line style="stroke: #A80036; stroke-width: 1.5;" x1="168" x2="365" y1="533.6719" y2="533.6719"/><text fill="#000000" font-family="sans-serif" font-size="11" lengthAdjust="spacingAndGlyphs" textLength="187" x="173" y="549.0908">+Pharmacy(email,address,designation)</text><text fill="#000000" font-family="sans-serif" font-size="11" lengthAdjust="spacingAndGlyphs" textLength="38" x="173" y="562.9268">+save()</text><text fill="#000000" font-family="sans-serif" font-size="11" lengthAdjust="spacingAndGlyphs" textLength="84" x="173" y="576.7627">+String getEmail()</text><!--class PharmacyDB--><rect fill="#FEFECE" filter="url(#fqclvlgppgky4)" height="61.8359" id="PharmacyDB" style="stroke: #A80036; stroke-width: 1.5;" width="140" x="353.5" y="268"/><ellipse cx="384.7" cy="284" fill="#ADD1B2" rx="11" ry="11" style="stroke: #A80036; stroke-width: 1.0;"/><path d="M387.4656,279.875 Q387.6219,279.6563 387.8094,279.5469 Q387.9969,279.4375 388.2156,279.4375 Q388.5906,279.4375 388.825,279.6953 Q389.0594,279.9531 389.0594,280.5625 L389.0594,282.0156 Q389.0594,282.625 388.825,282.8906 Q388.5906,283.1563 388.2156,283.1563 Q387.8719,283.1563 387.6688,282.9531 Q387.4656,282.7656 387.3563,282.25 Q387.3094,281.8906 387.1219,281.7031 Q386.7938,281.3281 386.1844,281.1094 Q385.575,280.8906 384.95,280.8906 Q384.1844,280.8906 383.5516,281.2188 Q382.9188,281.5469 382.4266,282.2969 Q381.9344,283.0469 381.9344,284.0781 L381.9344,285.1719 Q381.9344,286.4063 382.825,287.2266 Q383.7156,288.0469 385.3094,288.0469 Q386.2469,288.0469 386.9031,287.7969 Q387.2938,287.6406 387.7156,287.2031 Q387.9813,286.9375 388.1297,286.8594 Q388.2781,286.7813 388.4813,286.7813 Q388.8094,286.7813 389.0672,287.0391 Q389.325,287.2969 389.325,287.6406 Q389.325,287.9844 388.9813,288.3906 Q388.4813,288.9688 387.6844,289.2969 Q386.6063,289.75 385.3094,289.75 Q383.7938,289.75 382.5906,289.125 Q381.6063,288.625 380.9188,287.5547 Q380.2313,286.4844 380.2313,285.2031 L380.2313,284.0469 Q380.2313,282.7188 380.8484,281.5703 Q381.4656,280.4219 382.5594,279.8047 Q383.6531,279.1875 384.8875,279.1875 Q385.6219,279.1875 386.2703,279.3516 Q386.9188,279.5156 387.4656,279.875 Z "/><text fill="#000000" font-family="sans-serif" font-size="12" lengthAdjust="spacingAndGlyphs" textLength="72" x="402.3" y="288.9102">PharmacyDB</text><line style="stroke: #A80036; stroke-width: 1.5;" x1="354.5" x2="492.5" y1="300" y2="300"/><line style="stroke: #A80036; stroke-width: 1.5;" x1="354.5" x2="492.5" y1="308" y2="308"/><text fill="#000000" font-family="sans-serif" font-size="11" lengthAdjust="spacingAndGlyphs" textLength="128" x="359.5" y="323.4189">+addPharmacy(pharmacy)</text><!--class Address--><rect fill="#FEFECE" filter="url(#fqclvlgppgky4)" height="158.6875" id="Address" style="stroke: #A80036; stroke-width: 1.5;" width="353" x="6" y="705"/><ellipse cx="155.25" cy="721" fill="#ADD1B2" rx="11" ry="11" style="stroke: #A80036; stroke-width: 1.0;"/><path d="M158.0156,716.875 Q158.1719,716.6563 158.3594,716.5469 Q158.5469,716.4375 158.7656,716.4375 Q159.1406,716.4375 159.375,716.6953 Q159.6094,716.9531 159.6094,717.5625 L159.6094,719.0156 Q159.6094,719.625 159.375,719.8906 Q159.1406,720.1563 158.7656,720.1563 Q158.4219,720.1563 158.2188,719.9531 Q158.0156,719.7656 157.9063,719.25 Q157.8594,718.8906 157.6719,718.7031 Q157.3438,718.3281 156.7344,718.1094 Q156.125,717.8906 155.5,717.8906 Q154.7344,717.8906 154.1016,718.2188 Q153.4688,718.5469 152.9766,719.2969 Q152.4844,720.0469 152.4844,721.0781 L152.4844,722.1719 Q152.4844,723.4063 153.375,724.2266 Q154.2656,725.0469 155.8594,725.0469 Q156.7969,725.0469 157.4531,724.7969 Q157.8438,724.6406 158.2656,724.2031 Q158.5313,723.9375 158.6797,723.8594 Q158.8281,723.7813 159.0313,723.7813 Q159.3594,723.7813 159.6172,724.0391 Q159.875,724.2969 159.875,724.6406 Q159.875,724.9844 159.5313,725.3906 Q159.0313,725.9688 158.2344,726.2969 Q157.1563,726.75 155.8594,726.75 Q154.3438,726.75 153.1406,726.125 Q152.1563,725.625 151.4688,724.5547 Q150.7813,723.4844 150.7813,722.2031 L150.7813,721.0469 Q150.7813,719.7188 151.3984,718.5703 Q152.0156,717.4219 153.1094,716.8047 Q154.2031,716.1875 155.4375,716.1875 Q156.1719,716.1875 156.8203,716.3516 Q157.4688,716.5156 158.0156,716.875 Z "/><text fill="#000000" font-family="sans-serif" font-size="12" lengthAdjust="spacingAndGlyphs" textLength="46" x="175.75" y="725.9102">Address</text><line style="stroke: #A80036; stroke-width: 1.5;" x1="7" x2="358" y1="737" y2="737"/><text fill="#000000" font-family="sans-serif" font-size="11" lengthAdjust="spacingAndGlyphs" textLength="63" x="12" y="752.4189">-String street</text><text fill="#000000" font-family="sans-serif" font-size="11" lengthAdjust="spacingAndGlyphs" textLength="89" x="12" y="766.2549">-String postalCode</text><text fill="#000000" font-family="sans-serif" font-size="11" lengthAdjust="spacingAndGlyphs" textLength="76" x="12" y="780.0908">-Integer number</text><text fill="#000000" font-family="sans-serif" font-size="11" lengthAdjust="spacingAndGlyphs" textLength="68" x="12" y="793.9268">-String locality</text><text fill="#000000" font-family="sans-serif" font-size="11" lengthAdjust="spacingAndGlyphs" textLength="114" x="12" y="807.7627">-String GPSCoordinates</text><text fill="#000000" font-family="sans-serif" font-size="11" lengthAdjust="spacingAndGlyphs" textLength="83" x="12" y="821.5986">-Integer elevation</text><line style="stroke: #A80036; stroke-width: 1.5;" x1="7" x2="358" y1="828.0156" y2="828.0156"/><text fill="#000000" font-family="sans-serif" font-size="11" lengthAdjust="spacingAndGlyphs" textLength="341" x="12" y="843.4346">+Address(gpsCoordinates,street,postalCode,number,locality,elevation)</text><text fill="#000000" font-family="sans-serif" font-size="11" lengthAdjust="spacingAndGlyphs" textLength="38" x="12" y="857.2705">+save()</text><!--class AddressDB--><rect fill="#FEFECE" filter="url(#fqclvlgppgky4)" height="61.8359" id="AddressDB" style="stroke: #A80036; stroke-width: 1.5;" width="120" x="75.5" y="367"/><ellipse cx="101.75" cy="383" fill="#ADD1B2" rx="11" ry="11" style="stroke: #A80036; stroke-width: 1.0;"/><path d="M104.5156,378.875 Q104.6719,378.6563 104.8594,378.5469 Q105.0469,378.4375 105.2656,378.4375 Q105.6406,378.4375 105.875,378.6953 Q106.1094,378.9531 106.1094,379.5625 L106.1094,381.0156 Q106.1094,381.625 105.875,381.8906 Q105.6406,382.1563 105.2656,382.1563 Q104.9219,382.1563 104.7188,381.9531 Q104.5156,381.7656 104.4063,381.25 Q104.3594,380.8906 104.1719,380.7031 Q103.8438,380.3281 103.2344,380.1094 Q102.625,379.8906 102,379.8906 Q101.2344,379.8906 100.6016,380.2188 Q99.9688,380.5469 99.4766,381.2969 Q98.9844,382.0469 98.9844,383.0781 L98.9844,384.1719 Q98.9844,385.4063 99.875,386.2266 Q100.7656,387.0469 102.3594,387.0469 Q103.2969,387.0469 103.9531,386.7969 Q104.3438,386.6406 104.7656,386.2031 Q105.0313,385.9375 105.1797,385.8594 Q105.3281,385.7813 105.5313,385.7813 Q105.8594,385.7813 106.1172,386.0391 Q106.375,386.2969 106.375,386.6406 Q106.375,386.9844 106.0313,387.3906 Q105.5313,387.9688 104.7344,388.2969 Q103.6563,388.75 102.3594,388.75 Q100.8438,388.75 99.6406,388.125 Q98.6563,387.625 97.9688,386.5547 Q97.2813,385.4844 97.2813,384.2031 L97.2813,383.0469 Q97.2813,381.7188 97.8984,380.5703 Q98.5156,379.4219 99.6094,378.8047 Q100.7031,378.1875 101.9375,378.1875 Q102.6719,378.1875 103.3203,378.3516 Q103.9688,378.5156 104.5156,378.875 Z "/><text fill="#000000" font-family="sans-serif" font-size="12" lengthAdjust="spacingAndGlyphs" textLength="63" x="118.25" y="387.9102">AddressDB</text><line style="stroke: #A80036; stroke-width: 1.5;" x1="76.5" x2="194.5" y1="399" y2="399"/><line style="stroke: #A80036; stroke-width: 1.5;" x1="76.5" x2="194.5" y1="407" y2="407"/><text fill="#000000" font-family="sans-serif" font-size="11" lengthAdjust="spacingAndGlyphs" textLength="108" x="81.5" y="422.4189">+addAdress(address)</text><!--class Park--><rect fill="#FEFECE" filter="url(#fqclvlgppgky4)" height="144.8516" id="Park" style="stroke: #A80036; stroke-width: 1.5;" width="257" x="412" y="712"/><ellipse cx="523.75" cy="728" fill="#ADD1B2" rx="11" ry="11" style="stroke: #A80036; stroke-width: 1.0;"/><path d="M526.5156,723.875 Q526.6719,723.6563 526.8594,723.5469 Q527.0469,723.4375 527.2656,723.4375 Q527.6406,723.4375 527.875,723.6953 Q528.1094,723.9531 528.1094,724.5625 L528.1094,726.0156 Q528.1094,726.625 527.875,726.8906 Q527.6406,727.1563 527.2656,727.1563 Q526.9219,727.1563 526.7188,726.9531 Q526.5156,726.7656 526.4063,726.25 Q526.3594,725.8906 526.1719,725.7031 Q525.8438,725.3281 525.2344,725.1094 Q524.625,724.8906 524,724.8906 Q523.2344,724.8906 522.6016,725.2188 Q521.9688,725.5469 521.4766,726.2969 Q520.9844,727.0469 520.9844,728.0781 L520.9844,729.1719 Q520.9844,730.4063 521.875,731.2266 Q522.7656,732.0469 524.3594,732.0469 Q525.2969,732.0469 525.9531,731.7969 Q526.3438,731.6406 526.7656,731.2031 Q527.0313,730.9375 527.1797,730.8594 Q527.3281,730.7813 527.5313,730.7813 Q527.8594,730.7813 528.1172,731.0391 Q528.375,731.2969 528.375,731.6406 Q528.375,731.9844 528.0313,732.3906 Q527.5313,732.9688 526.7344,733.2969 Q525.6563,733.75 524.3594,733.75 Q522.8438,733.75 521.6406,733.125 Q520.6563,732.625 519.9688,731.5547 Q519.2813,730.4844 519.2813,729.2031 L519.2813,728.0469 Q519.2813,726.7188 519.8984,725.5703 Q520.5156,724.4219 521.6094,723.8047 Q522.7031,723.1875 523.9375,723.1875 Q524.6719,723.1875 525.3203,723.3516 Q525.9688,723.5156 526.5156,723.875 Z "/><text fill="#000000" font-family="sans-serif" font-size="12" lengthAdjust="spacingAndGlyphs" textLength="25" x="544.25" y="732.9102">Park</text><line style="stroke: #A80036; stroke-width: 1.5;" x1="413" x2="668" y1="744" y2="744"/><text fill="#000000" font-family="sans-serif" font-size="11" lengthAdjust="spacingAndGlyphs" textLength="48" x="418" y="759.4189">-Integer id</text><text fill="#000000" font-family="sans-serif" font-size="11" lengthAdjust="spacingAndGlyphs" textLength="90" x="418" y="773.2549">-String designation</text><text fill="#000000" font-family="sans-serif" font-size="11" lengthAdjust="spacingAndGlyphs" textLength="109" x="418" y="787.0908">-Integer spotsCapacity</text><text fill="#000000" font-family="sans-serif" font-size="11" lengthAdjust="spacingAndGlyphs" textLength="114" x="418" y="800.9268">-Double powerCapacity</text><text fill="#000000" font-family="sans-serif" font-size="11" lengthAdjust="spacingAndGlyphs" textLength="126" x="418" y="814.7627">-Integer chargingScooters</text><line style="stroke: #A80036; stroke-width: 1.5;" x1="413" x2="668" y1="821.1797" y2="821.1797"/><text fill="#000000" font-family="sans-serif" font-size="11" lengthAdjust="spacingAndGlyphs" textLength="245" x="418" y="836.5986">+Park(designation, spotsCapacity, powerCapacity)</text><text fill="#000000" font-family="sans-serif" font-size="11" lengthAdjust="spacingAndGlyphs" textLength="84" x="418" y="850.4346">+save(pharEmail)</text><!--class ParkDB--><rect fill="#FEFECE" filter="url(#fqclvlgppgky4)" height="75.6719" id="ParkDB" style="stroke: #A80036; stroke-width: 1.5;" width="135" x="581" y="360"/><ellipse cx="623.45" cy="376" fill="#ADD1B2" rx="11" ry="11" style="stroke: #A80036; stroke-width: 1.0;"/><path d="M626.2156,371.875 Q626.3719,371.6563 626.5594,371.5469 Q626.7469,371.4375 626.9656,371.4375 Q627.3406,371.4375 627.575,371.6953 Q627.8094,371.9531 627.8094,372.5625 L627.8094,374.0156 Q627.8094,374.625 627.575,374.8906 Q627.3406,375.1563 626.9656,375.1563 Q626.6219,375.1563 626.4188,374.9531 Q626.2156,374.7656 626.1063,374.25 Q626.0594,373.8906 625.8719,373.7031 Q625.5438,373.3281 624.9344,373.1094 Q624.325,372.8906 623.7,372.8906 Q622.9344,372.8906 622.3016,373.2188 Q621.6688,373.5469 621.1766,374.2969 Q620.6844,375.0469 620.6844,376.0781 L620.6844,377.1719 Q620.6844,378.4063 621.575,379.2266 Q622.4656,380.0469 624.0594,380.0469 Q624.9969,380.0469 625.6531,379.7969 Q626.0438,379.6406 626.4656,379.2031 Q626.7313,378.9375 626.8797,378.8594 Q627.0281,378.7813 627.2313,378.7813 Q627.5594,378.7813 627.8172,379.0391 Q628.075,379.2969 628.075,379.6406 Q628.075,379.9844 627.7313,380.3906 Q627.2313,380.9688 626.4344,381.2969 Q625.3563,381.75 624.0594,381.75 Q622.5438,381.75 621.3406,381.125 Q620.3563,380.625 619.6688,379.5547 Q618.9813,378.4844 618.9813,377.2031 L618.9813,376.0469 Q618.9813,374.7188 619.5984,373.5703 Q620.2156,372.4219 621.3094,371.8047 Q622.4031,371.1875 623.6375,371.1875 Q624.3719,371.1875 625.0203,371.3516 Q625.6688,371.5156 626.2156,371.875 Z "/><text fill="#000000" font-family="sans-serif" font-size="12" lengthAdjust="spacingAndGlyphs" textLength="42" x="643.55" y="380.9102">ParkDB</text><line style="stroke: #A80036; stroke-width: 1.5;" x1="582" x2="715" y1="392" y2="392"/><line style="stroke: #A80036; stroke-width: 1.5;" x1="582" x2="715" y1="400" y2="400"/><text fill="#000000" font-family="sans-serif" font-size="11" lengthAdjust="spacingAndGlyphs" textLength="123" x="587" y="415.4189">+addPark(park,pharEmail)</text><text fill="#000000" font-family="sans-serif" font-size="11" lengthAdjust="spacingAndGlyphs" textLength="117" x="587" y="429.2549">+getLastPark(pharEmail)</text><!--class Spot--><rect fill="#FEFECE" filter="url(#fqclvlgppgky4)" height="117.1797" id="Spot" style="stroke: #A80036; stroke-width: 1.5;" width="126" x="615.5" y="942"/><ellipse cx="661.75" cy="958" fill="#ADD1B2" rx="11" ry="11" style="stroke: #A80036; stroke-width: 1.0;"/><path d="M664.5156,953.875 Q664.6719,953.6563 664.8594,953.5469 Q665.0469,953.4375 665.2656,953.4375 Q665.6406,953.4375 665.875,953.6953 Q666.1094,953.9531 666.1094,954.5625 L666.1094,956.0156 Q666.1094,956.625 665.875,956.8906 Q665.6406,957.1563 665.2656,957.1563 Q664.9219,957.1563 664.7188,956.9531 Q664.5156,956.7656 664.4063,956.25 Q664.3594,955.8906 664.1719,955.7031 Q663.8438,955.3281 663.2344,955.1094 Q662.625,954.8906 662,954.8906 Q661.2344,954.8906 660.6016,955.2188 Q659.9688,955.5469 659.4766,956.2969 Q658.9844,957.0469 658.9844,958.0781 L658.9844,959.1719 Q658.9844,960.4063 659.875,961.2266 Q660.7656,962.0469 662.3594,962.0469 Q663.2969,962.0469 663.9531,961.7969 Q664.3438,961.6406 664.7656,961.2031 Q665.0313,960.9375 665.1797,960.8594 Q665.3281,960.7813 665.5313,960.7813 Q665.8594,960.7813 666.1172,961.0391 Q666.375,961.2969 666.375,961.6406 Q666.375,961.9844 666.0313,962.3906 Q665.5313,962.9688 664.7344,963.2969 Q663.6563,963.75 662.3594,963.75 Q660.8438,963.75 659.6406,963.125 Q658.6563,962.625 657.9688,961.5547 Q657.2813,960.4844 657.2813,959.2031 L657.2813,958.0469 Q657.2813,956.7188 657.8984,955.5703 Q658.5156,954.4219 659.6094,953.8047 Q660.7031,953.1875 661.9375,953.1875 Q662.6719,953.1875 663.3203,953.3516 Q663.9688,953.5156 664.5156,953.875 Z "/><text fill="#000000" font-family="sans-serif" font-size="12" lengthAdjust="spacingAndGlyphs" textLength="25" x="682.25" y="962.9102">Spot</text><line style="stroke: #A80036; stroke-width: 1.5;" x1="616.5" x2="740.5" y1="974" y2="974"/><text fill="#000000" font-family="sans-serif" font-size="11" lengthAdjust="spacingAndGlyphs" textLength="48" x="621.5" y="989.4189">-Integer id</text><text fill="#000000" font-family="sans-serif" font-size="11" lengthAdjust="spacingAndGlyphs" textLength="99" x="621.5" y="1003.2549">-String chargingSpot</text><text fill="#000000" font-family="sans-serif" font-size="11" lengthAdjust="spacingAndGlyphs" textLength="69" x="621.5" y="1017.0908">-Integer idPark</text><line style="stroke: #A80036; stroke-width: 1.5;" x1="616.5" x2="740.5" y1="1023.5078" y2="1023.5078"/><text fill="#000000" font-family="sans-serif" font-size="11" lengthAdjust="spacingAndGlyphs" textLength="114" x="621.5" y="1038.9268">+Spot(id, chargingSpot)</text><text fill="#000000" font-family="sans-serif" font-size="11" lengthAdjust="spacingAndGlyphs" textLength="46" x="621.5" y="1052.7627">+save(id)</text><!--class SpotDB--><rect fill="#FEFECE" filter="url(#fqclvlgppgky4)" height="61.8359" id="SpotDB" style="stroke: #A80036; stroke-width: 1.5;" width="98" x="690.5" y="613"/><ellipse cx="716.3" cy="629" fill="#ADD1B2" rx="11" ry="11" style="stroke: #A80036; stroke-width: 1.0;"/><path d="M719.0656,624.875 Q719.2219,624.6563 719.4094,624.5469 Q719.5969,624.4375 719.8156,624.4375 Q720.1906,624.4375 720.425,624.6953 Q720.6594,624.9531 720.6594,625.5625 L720.6594,627.0156 Q720.6594,627.625 720.425,627.8906 Q720.1906,628.1563 719.8156,628.1563 Q719.4719,628.1563 719.2688,627.9531 Q719.0656,627.7656 718.9563,627.25 Q718.9094,626.8906 718.7219,626.7031 Q718.3938,626.3281 717.7844,626.1094 Q717.175,625.8906 716.55,625.8906 Q715.7844,625.8906 715.1516,626.2188 Q714.5188,626.5469 714.0266,627.2969 Q713.5344,628.0469 713.5344,629.0781 L713.5344,630.1719 Q713.5344,631.4063 714.425,632.2266 Q715.3156,633.0469 716.9094,633.0469 Q717.8469,633.0469 718.5031,632.7969 Q718.8938,632.6406 719.3156,632.2031 Q719.5813,631.9375 719.7297,631.8594 Q719.8781,631.7813 720.0813,631.7813 Q720.4094,631.7813 720.6672,632.0391 Q720.925,632.2969 720.925,632.6406 Q720.925,632.9844 720.5813,633.3906 Q720.0813,633.9688 719.2844,634.2969 Q718.2063,634.75 716.9094,634.75 Q715.3938,634.75 714.1906,634.125 Q713.2063,633.625 712.5188,632.5547 Q711.8313,631.4844 711.8313,630.2031 L711.8313,629.0469 Q711.8313,627.7188 712.4484,626.5703 Q713.0656,625.4219 714.1594,624.8047 Q715.2531,624.1875 716.4875,624.1875 Q717.2219,624.1875 717.8703,624.3516 Q718.5188,624.5156 719.0656,624.875 Z "/><text fill="#000000" font-family="sans-serif" font-size="12" lengthAdjust="spacingAndGlyphs" textLength="42" x="732.7" y="633.9102">SpotDB</text><line style="stroke: #A80036; stroke-width: 1.5;" x1="691.5" x2="787.5" y1="645" y2="645"/><line style="stroke: #A80036; stroke-width: 1.5;" x1="691.5" x2="787.5" y1="653" y2="653"/><text fill="#000000" font-family="sans-serif" font-size="11" lengthAdjust="spacingAndGlyphs" textLength="86" x="696.5" y="668.4189">+addSpot(spot,id)</text><!--class Administrator--><rect fill="#FEFECE" filter="url(#fqclvlgppgky4)" height="61.8359" id="Administrator" style="stroke: #A80036; stroke-width: 1.5;" width="105" x="401" y="493.5"/><ellipse cx="416" cy="509.5" fill="#ADD1B2" rx="11" ry="11" style="stroke: #A80036; stroke-width: 1.0;"/><path d="M418.7656,505.375 Q418.9219,505.1563 419.1094,505.0469 Q419.2969,504.9375 419.5156,504.9375 Q419.8906,504.9375 420.125,505.1953 Q420.3594,505.4531 420.3594,506.0625 L420.3594,507.5156 Q420.3594,508.125 420.125,508.3906 Q419.8906,508.6563 419.5156,508.6563 Q419.1719,508.6563 418.9688,508.4531 Q418.7656,508.2656 418.6563,507.75 Q418.6094,507.3906 418.4219,507.2031 Q418.0938,506.8281 417.4844,506.6094 Q416.875,506.3906 416.25,506.3906 Q415.4844,506.3906 414.8516,506.7188 Q414.2188,507.0469 413.7266,507.7969 Q413.2344,508.5469 413.2344,509.5781 L413.2344,510.6719 Q413.2344,511.9063 414.125,512.7266 Q415.0156,513.5469 416.6094,513.5469 Q417.5469,513.5469 418.2031,513.2969 Q418.5938,513.1406 419.0156,512.7031 Q419.2813,512.4375 419.4297,512.3594 Q419.5781,512.2813 419.7813,512.2813 Q420.1094,512.2813 420.3672,512.5391 Q420.625,512.7969 420.625,513.1406 Q420.625,513.4844 420.2813,513.8906 Q419.7813,514.4688 418.9844,514.7969 Q417.9063,515.25 416.6094,515.25 Q415.0938,515.25 413.8906,514.625 Q412.9063,514.125 412.2188,513.0547 Q411.5313,511.9844 411.5313,510.7031 L411.5313,509.5469 Q411.5313,508.2188 412.1484,507.0703 Q412.7656,505.9219 413.8594,505.3047 Q414.9531,504.6875 416.1875,504.6875 Q416.9219,504.6875 417.5703,504.8516 Q418.2188,505.0156 418.7656,505.375 Z "/><text fill="#000000" font-family="sans-serif" font-size="12" lengthAdjust="spacingAndGlyphs" textLength="73" x="430" y="514.4102">Administrator</text><line style="stroke: #A80036; stroke-width: 1.5;" x1="402" x2="505" y1="525.5" y2="525.5"/><text fill="#000000" font-family="sans-serif" font-size="11" lengthAdjust="spacingAndGlyphs" textLength="59" x="407" y="540.9189">-String email</text><line style="stroke: #A80036; stroke-width: 1.5;" x1="402" x2="505" y1="547.3359" y2="547.3359"/><!--link CreatePharmacyUI to CreatePharmacyController--><path d="M513.5,56.18 C513.5,71.589 513.5,92.417 513.5,111.447 " fill="none" id="CreatePharmacyUI-CreatePharmacyController" style="stroke: #A80036; stroke-width: 1.0; stroke-dasharray: 7.0,7.0;"/><polygon fill="#A80036" points="513.5,116.761,517.5,107.761,513.5,111.761,509.5,107.761,513.5,116.761" style="stroke: #A80036; stroke-width: 1.0;"/><!--link CreatePharmacyController to PharmacyDB--><path d="M484.031,207.204 C471.838,225.494 457.91,246.384 446.492,263.512 " fill="none" id="CreatePharmacyController-PharmacyDB" style="stroke: #A80036; stroke-width: 1.0; stroke-dasharray: 7.0,7.0;"/><polygon fill="#A80036" points="443.645,267.782,451.9663,262.5137,446.4192,263.6222,445.3106,258.075,443.645,267.782" style="stroke: #A80036; stroke-width: 1.0;"/><!--link CreatePharmacyController to AddressDB--><path d="M319.407,202.17 C295.747,211.437 272.798,222.879 252.5,237 C206.271,269.162 171.334,325.59 152.143,362.115 " fill="none" id="CreatePharmacyController-AddressDB" style="stroke: #A80036; stroke-width: 1.0; stroke-dasharray: 7.0,7.0;"/><polygon fill="#A80036" points="149.654,366.911,157.3502,360.7654,151.9573,362.4731,150.2495,357.0802,149.654,366.911" style="stroke: #A80036; stroke-width: 1.0;"/><!--link CreatePharmacyController to Pharmacy--><path d="M408.389,207.123 C381.332,222.854 354.519,243.023 335.5,268 C292.759,324.129 276.467,404.843 270.272,460.458 " fill="none" id="CreatePharmacyController-Pharmacy" style="stroke: #A80036; stroke-width: 1.0; stroke-dasharray: 7.0,7.0;"/><polygon fill="#A80036" points="269.703,465.76,274.6418,457.239,270.2373,460.7886,266.6876,456.3841,269.703,465.76" style="stroke: #A80036; stroke-width: 1.0;"/><!--link CreatePharmacyController to Park--><path d="M515.508,207.071 C519.169,287.651 527.137,464.161 533.5,613 C534.81,643.638 536.205,677.375 537.402,706.696 " fill="none" id="CreatePharmacyController-Park" style="stroke: #A80036; stroke-width: 1.0; stroke-dasharray: 7.0,7.0;"/><polygon fill="#A80036" points="537.608,711.739,541.2396,702.5841,537.4051,706.7431,533.2461,702.9087,537.608,711.739" style="stroke: #A80036; stroke-width: 1.0;"/><!--link CreatePharmacyController to ParkDB--><path d="M560.416,207.344 C568.768,216.633 576.897,226.738 583.5,237 C607.391,274.129 625.304,321.485 636.211,355.016 " fill="none" id="CreatePharmacyController-ParkDB" style="stroke: #A80036; stroke-width: 1.0; stroke-dasharray: 7.0,7.0;"/><polygon fill="#A80036" points="637.77,359.86,638.8214,350.0674,636.2387,355.1003,631.2058,352.5176,637.77,359.86" style="stroke: #A80036; stroke-width: 1.0;"/><!--link CreatePharmacyController to SpotDB--><path d="M583.504,207.025 C631.616,241.844 691.353,295.293 717.5,360 C751.304,443.657 748.008,552.411 743.388,607.57 " fill="none" id="CreatePharmacyController-SpotDB" style="stroke: #A80036; stroke-width: 1.0; stroke-dasharray: 7.0,7.0;"/><polygon fill="#A80036" points="742.938,612.738,747.7045,604.1194,743.3723,607.7569,739.7348,603.4246,742.938,612.738" style="stroke: #A80036; stroke-width: 1.0;"/><!--link Administrator to Park--><path d="M463.65,555.601 C476.091,592.494 497.626,656.358 514.741,707.111 " fill="none" id="Administrator-Park" style="stroke: #A80036; stroke-width: 1.0;"/><polygon fill="#A80036" points="516.383,711.98,517.298,702.1737,514.7856,707.242,509.7173,704.7296,516.383,711.98" style="stroke: #A80036; stroke-width: 1.0;"/><text fill="#000000" font-family="sans-serif" font-size="13" lengthAdjust="spacingAndGlyphs" textLength="21" x="503.5" y="649.4951">add</text><text fill="#000000" font-family="sans-serif" font-size="13" lengthAdjust="spacingAndGlyphs" textLength="7" x="457.9592" y="576.8449">1</text><text fill="#000000" font-family="sans-serif" font-size="13" lengthAdjust="spacingAndGlyphs" textLength="5" x="508.6381" y="701.1973">*</text><!--link Park to Spot--><path d="M586.644,857.056 C603.458,883.13 622.313,912.369 638.545,937.54 " fill="none" id="Park-Spot" style="stroke: #A80036; stroke-width: 1.0;"/><polygon fill="#A80036" points="641.335,941.867,639.818,932.1357,638.6248,937.6652,633.0952,936.472,641.335,941.867" style="stroke: #A80036; stroke-width: 1.0;"/><text fill="#000000" font-family="sans-serif" font-size="13" lengthAdjust="spacingAndGlyphs" textLength="21" x="623.5" y="908.4951">has</text><text fill="#000000" font-family="sans-serif" font-size="13" lengthAdjust="spacingAndGlyphs" textLength="7" x="583.7085" y="878.2529">1</text><text fill="#000000" font-family="sans-serif" font-size="13" lengthAdjust="spacingAndGlyphs" textLength="5" x="631.5008" y="931.2517">*</text><!--link ParkDB to Park--><path d="M642.086,436.14 C632.385,489.641 612.236,591.184 585.5,675 C582.168,685.446 578.251,696.29 574.141,706.904 " fill="none" id="ParkDB-Park" style="stroke: #A80036; stroke-width: 1.0;"/><polygon fill="#A80036" points="572.24,711.762,579.2434,704.8372,574.0612,707.1055,571.7929,701.9233,572.24,711.762" style="stroke: #A80036; stroke-width: 1.0;"/><text fill="#000000" font-family="sans-serif" font-size="13" lengthAdjust="spacingAndGlyphs" textLength="21" x="637.5" y="529.9951">has</text><text fill="#000000" font-family="sans-serif" font-size="13" lengthAdjust="spacingAndGlyphs" textLength="7" x="633.506" y="457.0428">1</text><text fill="#000000" font-family="sans-serif" font-size="13" lengthAdjust="spacingAndGlyphs" textLength="5" x="570.2554" y="700.9568">*</text><!--link SpotDB to Spot--><path d="M734.299,675.224 C724.361,732.978 702.489,860.089 689.272,936.896 " fill="none" id="SpotDB-Spot" style="stroke: #A80036; stroke-width: 1.0;"/><polygon fill="#A80036" points="688.415,941.881,693.8822,933.6889,689.2622,936.9533,685.9979,932.3334,688.415,941.881" style="stroke: #A80036; stroke-width: 1.0;"/><text fill="#000000" font-family="sans-serif" font-size="13" lengthAdjust="spacingAndGlyphs" textLength="21" x="728.5" y="789.9951">has</text><text fill="#000000" font-family="sans-serif" font-size="13" lengthAdjust="spacingAndGlyphs" textLength="7" x="725.6404" y="696.2453">1</text><text fill="#000000" font-family="sans-serif" font-size="13" lengthAdjust="spacingAndGlyphs" textLength="5" x="684.3187" y="931.2674">*</text><!--link AddressDB to Address--><path d="M130.563,429.265 C128.921,440.737 127.306,453.938 126.5,466 C123.031,517.884 119.44,531.481 126.5,583 C131.831,621.906 142.725,663.905 153.499,699.363 " fill="none" id="AddressDB-Address" style="stroke: #A80036; stroke-width: 1.0;"/><polygon fill="#A80036" points="155.088,704.546,156.2773,694.7692,153.6239,699.7652,148.6279,697.1118,155.088,704.546" style="stroke: #A80036; stroke-width: 1.0;"/><text fill="#000000" font-family="sans-serif" font-size="13" lengthAdjust="spacingAndGlyphs" textLength="21" x="127.5" y="529.9951">has</text><text fill="#000000" font-family="sans-serif" font-size="13" lengthAdjust="spacingAndGlyphs" textLength="7" x="121.9547" y="450.2942">1</text><text fill="#000000" font-family="sans-serif" font-size="13" lengthAdjust="spacingAndGlyphs" textLength="5" x="147.424" y="694.2373">*</text><!--link PharmacyDB to Pharmacy--><path d="M402.326,330.142 C378.731,363.732 339.942,418.951 309.843,461.798 " fill="none" id="PharmacyDB-Pharmacy" style="stroke: #A80036; stroke-width: 1.0;"/><polygon fill="#A80036" points="306.959,465.905,315.4056,460.84,309.8332,461.8137,308.8595,456.2413,306.959,465.905" style="stroke: #A80036; stroke-width: 1.0;"/><text fill="#000000" font-family="sans-serif" font-size="13" lengthAdjust="spacingAndGlyphs" textLength="21" x="378.5" y="403.4951">has</text><text fill="#000000" font-family="sans-serif" font-size="13" lengthAdjust="spacingAndGlyphs" textLength="7" x="390.4683" y="351.394">1</text><text fill="#000000" font-family="sans-serif" font-size="13" lengthAdjust="spacingAndGlyphs" textLength="5" x="306.5853" y="455.2943">*</text><!--link Pharmacy to Address--><path d="M247.753,583.079 C236.601,617.333 222.255,661.397 209.855,699.481 " fill="none" id="Pharmacy-Address" style="stroke: #A80036; stroke-width: 1.0;"/><polygon fill="#A80036" points="208.197,704.574,214.7877,697.2553,209.7455,699.8198,207.181,694.7777,208.197,704.574" style="stroke: #A80036; stroke-width: 1.0;"/><text fill="#000000" font-family="sans-serif" font-size="13" lengthAdjust="spacingAndGlyphs" textLength="21" x="238.5" y="649.4951">has</text><text fill="#000000" font-family="sans-serif" font-size="13" lengthAdjust="spacingAndGlyphs" textLength="7" x="238.0416" y="604.6989">1</text><text fill="#000000" font-family="sans-serif" font-size="13" lengthAdjust="spacingAndGlyphs" textLength="7" x="203.1739" y="694.2678">1</text><!--link Pharmacy to Park--><path d="M327.65,583.079 C366.844,619.985 418.133,668.278 460.543,708.212 " fill="none" id="Pharmacy-Park" style="stroke: #A80036; stroke-width: 1.0;"/><polygon fill="#A80036" points="464.358,711.804,460.5473,702.7222,460.7176,708.3765,455.0633,708.5468,464.358,711.804" style="stroke: #A80036; stroke-width: 1.0;"/><text fill="#000000" font-family="sans-serif" font-size="13" lengthAdjust="spacingAndGlyphs" textLength="21" x="421.5" y="649.4951">has</text><text fill="#000000" font-family="sans-serif" font-size="13" lengthAdjust="spacingAndGlyphs" textLength="7" x="327.6761" y="604.6989">1</text><text fill="#000000" font-family="sans-serif" font-size="13" lengthAdjust="spacingAndGlyphs" textLength="5" x="451.248" y="701.0031">*</text><!--
@startuml
skinparam classAttributeIconSize 0

class CreatePharmacyUI {

}

class CreatePharmacyController {

  +newPharmacy(designation,email,street,postalCode,doorNumber,locality, \n gpsCoordinates,elevation,designationPark,spotsCapacity, powerCapacity,list)
  +addPharmacy()
}

class Pharmacy {
  -String designation
  -String email

  +Pharmacy(email,address,designation)
  +save()
  +String getEmail()
}

class PharmacyDB {

  +addPharmacy(pharmacy)
}

class Address {

  -String street
  -String postalCode
  -Integer number
  -String locality
  -String GPSCoordinates
  -Integer elevation

  +Address(gpsCoordinates,street,postalCode,number,locality,elevation)
  +save()
}

class AddressDB {

  +addAdress(address)
}

class Park {
    -Integer id
    -String designation
    -Integer spotsCapacity
    -Double powerCapacity
    -Integer chargingScooters

    +Park(designation, spotsCapacity, powerCapacity)
    +save(pharEmail)
}

class ParkDB {

  +addPark(park,pharEmail)
  +getLastPark(pharEmail)
}

class Spot {
    -Integer id
    -String chargingSpot
    -Integer idPark

    +Spot(id, chargingSpot)
    +save(id)
}

class SpotDB {
  +addSpot(spot,id)
}

class Administrator {
  -String email
}

CreatePharmacyUI ..> CreatePharmacyController
CreatePharmacyController ..> PharmacyDB
CreatePharmacyController ..> AddressDB
CreatePharmacyController ..> Pharmacy
CreatePharmacyController ..> Park
CreatePharmacyController ..> ParkDB
CreatePharmacyController ..> SpotDB

Administrator "1" - -> "*" Park : add

Park "1" - -> "*" Spot : has

ParkDB "1" - -> "*" Park : has

SpotDB "1" - -> "*" Spot : has

AddressDB "1" -> "*" Address : has

PharmacyDB "1" - -> "*" Pharmacy : has

Pharmacy "1" - -> "1" Address : has
Pharmacy "1" - -> "*" Park : has


@enduml

PlantUML version 1.2018.14(Fri Dec 21 16:33:16 GMT 2018)
(GPL source distribution)
Java Runtime: Java(TM) SE Runtime Environment
JVM: Java HotSpot(TM) 64-Bit Server VM
Java Version: 1.8.0_221-b11
Operating System: Windows 10
OS Version: 10.0
Default Encoding: Cp1252
Language: pt
Country: PT
--></g></svg>