<?xml version="1.0" encoding="UTF-8" standalone="no"?><svg xmlns="http://www.w3.org/2000/svg" xmlns:xlink="http://www.w3.org/1999/xlink" contentScriptType="application/ecmascript" contentStyleType="text/css" height="631px" preserveAspectRatio="none" style="width:782px;height:631px;" version="1.1" viewBox="0 0 782 631" width="782px" zoomAndPan="magnify"><defs><filter height="300%" id="fy87qphr3rdbf" width="300%" x="-1" y="-1"><feGaussianBlur result="blurOut" stdDeviation="2.0"/><feColorMatrix in="blurOut" result="blurOut2" type="matrix" values="0 0 0 0 0 0 0 0 0 0 0 0 0 0 0 0 0 0 .4 0"/><feOffset dx="4.0" dy="4.0" in="blurOut2" result="blurOut3"/><feBlend in="SourceGraphic" in2="blurOut3" mode="normal"/></filter></defs><g><!--class AddProductUI--><rect fill="#FEFECE" filter="url(#fy87qphr3rdbf)" height="48" id="AddProductUI" style="stroke: #A80036; stroke-width: 1.5;" width="107" x="217.5" y="8"/><ellipse cx="232.5" cy="24" fill="#ADD1B2" rx="11" ry="11" style="stroke: #A80036; stroke-width: 1.0;"/><path d="M235.2656,19.875 Q235.4219,19.6563 235.6094,19.5469 Q235.7969,19.4375 236.0156,19.4375 Q236.3906,19.4375 236.625,19.6953 Q236.8594,19.9531 236.8594,20.5625 L236.8594,22.0156 Q236.8594,22.625 236.625,22.8906 Q236.3906,23.1563 236.0156,23.1563 Q235.6719,23.1563 235.4688,22.9531 Q235.2656,22.7656 235.1563,22.25 Q235.1094,21.8906 234.9219,21.7031 Q234.5938,21.3281 233.9844,21.1094 Q233.375,20.8906 232.75,20.8906 Q231.9844,20.8906 231.3516,21.2188 Q230.7188,21.5469 230.2266,22.2969 Q229.7344,23.0469 229.7344,24.0781 L229.7344,25.1719 Q229.7344,26.4063 230.625,27.2266 Q231.5156,28.0469 233.1094,28.0469 Q234.0469,28.0469 234.7031,27.7969 Q235.0938,27.6406 235.5156,27.2031 Q235.7813,26.9375 235.9297,26.8594 Q236.0781,26.7813 236.2813,26.7813 Q236.6094,26.7813 236.8672,27.0391 Q237.125,27.2969 237.125,27.6406 Q237.125,27.9844 236.7813,28.3906 Q236.2813,28.9688 235.4844,29.2969 Q234.4063,29.75 233.1094,29.75 Q231.5938,29.75 230.3906,29.125 Q229.4063,28.625 228.7188,27.5547 Q228.0313,26.4844 228.0313,25.2031 L228.0313,24.0469 Q228.0313,22.7188 228.6484,21.5703 Q229.2656,20.4219 230.3594,19.8047 Q231.4531,19.1875 232.6875,19.1875 Q233.4219,19.1875 234.0703,19.3516 Q234.7188,19.5156 235.2656,19.875 Z "/><text fill="#000000" font-family="sans-serif" font-size="12" lengthAdjust="spacingAndGlyphs" textLength="75" x="246.5" y="28.9102">AddProductUI</text><line style="stroke: #A80036; stroke-width: 1.5;" x1="218.5" x2="323.5" y1="40" y2="40"/><line style="stroke: #A80036; stroke-width: 1.5;" x1="218.5" x2="323.5" y1="48" y2="48"/><!--class AddProductController--><rect fill="#FEFECE" filter="url(#fy87qphr3rdbf)" height="103.3438" id="AddProductController" style="stroke: #A80036; stroke-width: 1.5;" width="239" x="151.5" y="117"/><ellipse cx="208.25" cy="133" fill="#ADD1B2" rx="11" ry="11" style="stroke: #A80036; stroke-width: 1.0;"/><path d="M211.0156,128.875 Q211.1719,128.6563 211.3594,128.5469 Q211.5469,128.4375 211.7656,128.4375 Q212.1406,128.4375 212.375,128.6953 Q212.6094,128.9531 212.6094,129.5625 L212.6094,131.0156 Q212.6094,131.625 212.375,131.8906 Q212.1406,132.1563 211.7656,132.1563 Q211.4219,132.1563 211.2188,131.9531 Q211.0156,131.7656 210.9063,131.25 Q210.8594,130.8906 210.6719,130.7031 Q210.3438,130.3281 209.7344,130.1094 Q209.125,129.8906 208.5,129.8906 Q207.7344,129.8906 207.1016,130.2188 Q206.4688,130.5469 205.9766,131.2969 Q205.4844,132.0469 205.4844,133.0781 L205.4844,134.1719 Q205.4844,135.4063 206.375,136.2266 Q207.2656,137.0469 208.8594,137.0469 Q209.7969,137.0469 210.4531,136.7969 Q210.8438,136.6406 211.2656,136.2031 Q211.5313,135.9375 211.6797,135.8594 Q211.8281,135.7813 212.0313,135.7813 Q212.3594,135.7813 212.6172,136.0391 Q212.875,136.2969 212.875,136.6406 Q212.875,136.9844 212.5313,137.3906 Q212.0313,137.9688 211.2344,138.2969 Q210.1563,138.75 208.8594,138.75 Q207.3438,138.75 206.1406,138.125 Q205.1563,137.625 204.4688,136.5547 Q203.7813,135.4844 203.7813,134.2031 L203.7813,133.0469 Q203.7813,131.7188 204.3984,130.5703 Q205.0156,129.4219 206.1094,128.8047 Q207.2031,128.1875 208.4375,128.1875 Q209.1719,128.1875 209.8203,128.3516 Q210.4688,128.5156 211.0156,128.875 Z "/><text fill="#000000" font-family="sans-serif" font-size="12" lengthAdjust="spacingAndGlyphs" textLength="117" x="228.75" y="137.9102">AddProductController</text><line style="stroke: #A80036; stroke-width: 1.5;" x1="152.5" x2="389.5" y1="149" y2="149"/><line style="stroke: #A80036; stroke-width: 1.5;" x1="152.5" x2="389.5" y1="157" y2="157"/><text fill="#000000" font-family="sans-serif" font-size="11" lengthAdjust="spacingAndGlyphs" textLength="182" x="157.5" y="172.4189">+List&lt;Pharmacy&gt; getPharmaciesList()</text><text fill="#000000" font-family="sans-serif" font-size="11" lengthAdjust="spacingAndGlyphs" textLength="186" x="157.5" y="186.2549">+getPharmacyByEmail(PharmacyEmail)</text><text fill="#000000" font-family="sans-serif" font-size="11" lengthAdjust="spacingAndGlyphs" textLength="227" x="157.5" y="200.0908">+newProduct(name, description, price, weight)</text><text fill="#000000" font-family="sans-serif" font-size="11" lengthAdjust="spacingAndGlyphs" textLength="69" x="157.5" y="213.9268">+addProduct()</text><!--class PharmacyDB--><rect fill="#FEFECE" filter="url(#fy87qphr3rdbf)" height="75.6719" id="PharmacyDB" style="stroke: #A80036; stroke-width: 1.5;" width="212" x="6" y="294.5"/><ellipse cx="71.75" cy="310.5" fill="#ADD1B2" rx="11" ry="11" style="stroke: #A80036; stroke-width: 1.0;"/><path d="M74.5156,306.375 Q74.6719,306.1563 74.8594,306.0469 Q75.0469,305.9375 75.2656,305.9375 Q75.6406,305.9375 75.875,306.1953 Q76.1094,306.4531 76.1094,307.0625 L76.1094,308.5156 Q76.1094,309.125 75.875,309.3906 Q75.6406,309.6563 75.2656,309.6563 Q74.9219,309.6563 74.7188,309.4531 Q74.5156,309.2656 74.4063,308.75 Q74.3594,308.3906 74.1719,308.2031 Q73.8438,307.8281 73.2344,307.6094 Q72.625,307.3906 72,307.3906 Q71.2344,307.3906 70.6016,307.7188 Q69.9688,308.0469 69.4766,308.7969 Q68.9844,309.5469 68.9844,310.5781 L68.9844,311.6719 Q68.9844,312.9063 69.875,313.7266 Q70.7656,314.5469 72.3594,314.5469 Q73.2969,314.5469 73.9531,314.2969 Q74.3438,314.1406 74.7656,313.7031 Q75.0313,313.4375 75.1797,313.3594 Q75.3281,313.2813 75.5313,313.2813 Q75.8594,313.2813 76.1172,313.5391 Q76.375,313.7969 76.375,314.1406 Q76.375,314.4844 76.0313,314.8906 Q75.5313,315.4688 74.7344,315.7969 Q73.6563,316.25 72.3594,316.25 Q70.8438,316.25 69.6406,315.625 Q68.6563,315.125 67.9688,314.0547 Q67.2813,312.9844 67.2813,311.7031 L67.2813,310.5469 Q67.2813,309.2188 67.8984,308.0703 Q68.5156,306.9219 69.6094,306.3047 Q70.7031,305.6875 71.9375,305.6875 Q72.6719,305.6875 73.3203,305.8516 Q73.9688,306.0156 74.5156,306.375 Z "/><text fill="#000000" font-family="sans-serif" font-size="12" lengthAdjust="spacingAndGlyphs" textLength="72" x="92.25" y="315.4102">PharmacyDB</text><line style="stroke: #A80036; stroke-width: 1.5;" x1="7" x2="217" y1="326.5" y2="326.5"/><line style="stroke: #A80036; stroke-width: 1.5;" x1="7" x2="217" y1="334.5" y2="334.5"/><text fill="#000000" font-family="sans-serif" font-size="11" lengthAdjust="spacingAndGlyphs" textLength="177" x="12" y="349.9189">+List&lt;Pharmacy&gt; getAllPharmacies()</text><text fill="#000000" font-family="sans-serif" font-size="11" lengthAdjust="spacingAndGlyphs" textLength="200" x="12" y="363.7549">+Pharmacy getPharmacy(PharmacyEmail)</text><!--class Product--><rect fill="#FEFECE" filter="url(#fy87qphr3rdbf)" height="158.6875" id="Product" style="stroke: #A80036; stroke-width: 1.5;" width="217" x="394.5" y="462"/><ellipse cx="477.75" cy="478" fill="#ADD1B2" rx="11" ry="11" style="stroke: #A80036; stroke-width: 1.0;"/><path d="M480.5156,473.875 Q480.6719,473.6563 480.8594,473.5469 Q481.0469,473.4375 481.2656,473.4375 Q481.6406,473.4375 481.875,473.6953 Q482.1094,473.9531 482.1094,474.5625 L482.1094,476.0156 Q482.1094,476.625 481.875,476.8906 Q481.6406,477.1563 481.2656,477.1563 Q480.9219,477.1563 480.7188,476.9531 Q480.5156,476.7656 480.4063,476.25 Q480.3594,475.8906 480.1719,475.7031 Q479.8438,475.3281 479.2344,475.1094 Q478.625,474.8906 478,474.8906 Q477.2344,474.8906 476.6016,475.2188 Q475.9688,475.5469 475.4766,476.2969 Q474.9844,477.0469 474.9844,478.0781 L474.9844,479.1719 Q474.9844,480.4063 475.875,481.2266 Q476.7656,482.0469 478.3594,482.0469 Q479.2969,482.0469 479.9531,481.7969 Q480.3438,481.6406 480.7656,481.2031 Q481.0313,480.9375 481.1797,480.8594 Q481.3281,480.7813 481.5313,480.7813 Q481.8594,480.7813 482.1172,481.0391 Q482.375,481.2969 482.375,481.6406 Q482.375,481.9844 482.0313,482.3906 Q481.5313,482.9688 480.7344,483.2969 Q479.6563,483.75 478.3594,483.75 Q476.8438,483.75 475.6406,483.125 Q474.6563,482.625 473.9688,481.5547 Q473.2813,480.4844 473.2813,479.2031 L473.2813,478.0469 Q473.2813,476.7188 473.8984,475.5703 Q474.5156,474.4219 475.6094,473.8047 Q476.7031,473.1875 477.9375,473.1875 Q478.6719,473.1875 479.3203,473.3516 Q479.9688,473.5156 480.5156,473.875 Z "/><text fill="#000000" font-family="sans-serif" font-size="12" lengthAdjust="spacingAndGlyphs" textLength="42" x="498.25" y="482.9102">Product</text><line style="stroke: #A80036; stroke-width: 1.5;" x1="395.5" x2="610.5" y1="494" y2="494"/><text fill="#000000" font-family="sans-serif" font-size="11" lengthAdjust="spacingAndGlyphs" textLength="83" x="400.5" y="509.4189">-String reference</text><text fill="#000000" font-family="sans-serif" font-size="11" lengthAdjust="spacingAndGlyphs" textLength="61" x="400.5" y="523.2549">-String name</text><text fill="#000000" font-family="sans-serif" font-size="11" lengthAdjust="spacingAndGlyphs" textLength="88" x="400.5" y="537.0908">-String description</text><text fill="#000000" font-family="sans-serif" font-size="11" lengthAdjust="spacingAndGlyphs" textLength="64" x="400.5" y="550.9268">-Double price</text><text fill="#000000" font-family="sans-serif" font-size="11" lengthAdjust="spacingAndGlyphs" textLength="73" x="400.5" y="564.7627">-Double weight</text><text fill="#000000" font-family="sans-serif" font-size="11" lengthAdjust="spacingAndGlyphs" textLength="75" x="400.5" y="578.5986">-Integer amount</text><line style="stroke: #A80036; stroke-width: 1.5;" x1="395.5" x2="610.5" y1="585.0156" y2="585.0156"/><text fill="#000000" font-family="sans-serif" font-size="11" lengthAdjust="spacingAndGlyphs" textLength="205" x="400.5" y="600.4346">+Product(name, description, price, weight)</text><text fill="#000000" font-family="sans-serif" font-size="11" lengthAdjust="spacingAndGlyphs" textLength="85" x="400.5" y="614.2705">+Save(pharEmail)</text><!--class Pharmacy--><rect fill="#FEFECE" filter="url(#fy87qphr3rdbf)" height="103.3438" id="Pharmacy" style="stroke: #A80036; stroke-width: 1.5;" width="102" x="324" y="281"/><ellipse cx="345.75" cy="297" fill="#ADD1B2" rx="11" ry="11" style="stroke: #A80036; stroke-width: 1.0;"/><path d="M348.5156,292.875 Q348.6719,292.6563 348.8594,292.5469 Q349.0469,292.4375 349.2656,292.4375 Q349.6406,292.4375 349.875,292.6953 Q350.1094,292.9531 350.1094,293.5625 L350.1094,295.0156 Q350.1094,295.625 349.875,295.8906 Q349.6406,296.1563 349.2656,296.1563 Q348.9219,296.1563 348.7188,295.9531 Q348.5156,295.7656 348.4063,295.25 Q348.3594,294.8906 348.1719,294.7031 Q347.8438,294.3281 347.2344,294.1094 Q346.625,293.8906 346,293.8906 Q345.2344,293.8906 344.6016,294.2188 Q343.9688,294.5469 343.4766,295.2969 Q342.9844,296.0469 342.9844,297.0781 L342.9844,298.1719 Q342.9844,299.4063 343.875,300.2266 Q344.7656,301.0469 346.3594,301.0469 Q347.2969,301.0469 347.9531,300.7969 Q348.3438,300.6406 348.7656,300.2031 Q349.0313,299.9375 349.1797,299.8594 Q349.3281,299.7813 349.5313,299.7813 Q349.8594,299.7813 350.1172,300.0391 Q350.375,300.2969 350.375,300.6406 Q350.375,300.9844 350.0313,301.3906 Q349.5313,301.9688 348.7344,302.2969 Q347.6563,302.75 346.3594,302.75 Q344.8438,302.75 343.6406,302.125 Q342.6563,301.625 341.9688,300.5547 Q341.2813,299.4844 341.2813,298.2031 L341.2813,297.0469 Q341.2813,295.7188 341.8984,294.5703 Q342.5156,293.4219 343.6094,292.8047 Q344.7031,292.1875 345.9375,292.1875 Q346.6719,292.1875 347.3203,292.3516 Q347.9688,292.5156 348.5156,292.875 Z "/><text fill="#000000" font-family="sans-serif" font-size="12" lengthAdjust="spacingAndGlyphs" textLength="55" x="361.25" y="301.9102">Pharmacy</text><line style="stroke: #A80036; stroke-width: 1.5;" x1="325" x2="425" y1="313" y2="313"/><text fill="#000000" font-family="sans-serif" font-size="11" lengthAdjust="spacingAndGlyphs" textLength="90" x="330" y="328.4189">-String designation</text><text fill="#000000" font-family="sans-serif" font-size="11" lengthAdjust="spacingAndGlyphs" textLength="77" x="330" y="342.2549">-Adress adress</text><text fill="#000000" font-family="sans-serif" font-size="11" lengthAdjust="spacingAndGlyphs" textLength="81" x="330" y="356.0908">-Integer parkMax</text><line style="stroke: #A80036; stroke-width: 1.5;" x1="325" x2="425" y1="362.5078" y2="362.5078"/><text fill="#000000" font-family="sans-serif" font-size="11" lengthAdjust="spacingAndGlyphs" textLength="84" x="330" y="377.9268">+String getEmail()</text><!--class ProductDB--><rect fill="#FEFECE" filter="url(#fy87qphr3rdbf)" height="61.8359" id="ProductDB" style="stroke: #A80036; stroke-width: 1.5;" width="170" x="461" y="301.5"/><ellipse cx="512.25" cy="317.5" fill="#ADD1B2" rx="11" ry="11" style="stroke: #A80036; stroke-width: 1.0;"/><path d="M515.0156,313.375 Q515.1719,313.1563 515.3594,313.0469 Q515.5469,312.9375 515.7656,312.9375 Q516.1406,312.9375 516.375,313.1953 Q516.6094,313.4531 516.6094,314.0625 L516.6094,315.5156 Q516.6094,316.125 516.375,316.3906 Q516.1406,316.6563 515.7656,316.6563 Q515.4219,316.6563 515.2188,316.4531 Q515.0156,316.2656 514.9063,315.75 Q514.8594,315.3906 514.6719,315.2031 Q514.3438,314.8281 513.7344,314.6094 Q513.125,314.3906 512.5,314.3906 Q511.7344,314.3906 511.1016,314.7188 Q510.4688,315.0469 509.9766,315.7969 Q509.4844,316.5469 509.4844,317.5781 L509.4844,318.6719 Q509.4844,319.9063 510.375,320.7266 Q511.2656,321.5469 512.8594,321.5469 Q513.7969,321.5469 514.4531,321.2969 Q514.8438,321.1406 515.2656,320.7031 Q515.5313,320.4375 515.6797,320.3594 Q515.8281,320.2813 516.0313,320.2813 Q516.3594,320.2813 516.6172,320.5391 Q516.875,320.7969 516.875,321.1406 Q516.875,321.4844 516.5313,321.8906 Q516.0313,322.4688 515.2344,322.7969 Q514.1563,323.25 512.8594,323.25 Q511.3438,323.25 510.1406,322.625 Q509.1563,322.125 508.4688,321.0547 Q507.7813,319.9844 507.7813,318.7031 L507.7813,317.5469 Q507.7813,316.2188 508.3984,315.0703 Q509.0156,313.9219 510.1094,313.3047 Q511.2031,312.6875 512.4375,312.6875 Q513.1719,312.6875 513.8203,312.8516 Q514.4688,313.0156 515.0156,313.375 Z "/><text fill="#000000" font-family="sans-serif" font-size="12" lengthAdjust="spacingAndGlyphs" textLength="59" x="532.75" y="322.4102">ProductDB</text><line style="stroke: #A80036; stroke-width: 1.5;" x1="462" x2="630" y1="333.5" y2="333.5"/><line style="stroke: #A80036; stroke-width: 1.5;" x1="462" x2="630" y1="341.5" y2="341.5"/><text fill="#000000" font-family="sans-serif" font-size="11" lengthAdjust="spacingAndGlyphs" textLength="158" x="467" y="356.9189">+addProduct(product, pharEmail)</text><!--class Administrator--><rect fill="#FEFECE" filter="url(#fy87qphr3rdbf)" height="61.8359" id="Administrator" style="stroke: #A80036; stroke-width: 1.5;" width="105" x="666.5" y="301.5"/><ellipse cx="681.5" cy="317.5" fill="#ADD1B2" rx="11" ry="11" style="stroke: #A80036; stroke-width: 1.0;"/><path d="M684.2656,313.375 Q684.4219,313.1563 684.6094,313.0469 Q684.7969,312.9375 685.0156,312.9375 Q685.3906,312.9375 685.625,313.1953 Q685.8594,313.4531 685.8594,314.0625 L685.8594,315.5156 Q685.8594,316.125 685.625,316.3906 Q685.3906,316.6563 685.0156,316.6563 Q684.6719,316.6563 684.4688,316.4531 Q684.2656,316.2656 684.1563,315.75 Q684.1094,315.3906 683.9219,315.2031 Q683.5938,314.8281 682.9844,314.6094 Q682.375,314.3906 681.75,314.3906 Q680.9844,314.3906 680.3516,314.7188 Q679.7188,315.0469 679.2266,315.7969 Q678.7344,316.5469 678.7344,317.5781 L678.7344,318.6719 Q678.7344,319.9063 679.625,320.7266 Q680.5156,321.5469 682.1094,321.5469 Q683.0469,321.5469 683.7031,321.2969 Q684.0938,321.1406 684.5156,320.7031 Q684.7813,320.4375 684.9297,320.3594 Q685.0781,320.2813 685.2813,320.2813 Q685.6094,320.2813 685.8672,320.5391 Q686.125,320.7969 686.125,321.1406 Q686.125,321.4844 685.7813,321.8906 Q685.2813,322.4688 684.4844,322.7969 Q683.4063,323.25 682.1094,323.25 Q680.5938,323.25 679.3906,322.625 Q678.4063,322.125 677.7188,321.0547 Q677.0313,319.9844 677.0313,318.7031 L677.0313,317.5469 Q677.0313,316.2188 677.6484,315.0703 Q678.2656,313.9219 679.3594,313.3047 Q680.4531,312.6875 681.6875,312.6875 Q682.4219,312.6875 683.0703,312.8516 Q683.7188,313.0156 684.2656,313.375 Z "/><text fill="#000000" font-family="sans-serif" font-size="12" lengthAdjust="spacingAndGlyphs" textLength="73" x="695.5" y="322.4102">Administrator</text><line style="stroke: #A80036; stroke-width: 1.5;" x1="667.5" x2="770.5" y1="333.5" y2="333.5"/><text fill="#000000" font-family="sans-serif" font-size="11" lengthAdjust="spacingAndGlyphs" textLength="59" x="672.5" y="348.9189">-String email</text><line style="stroke: #A80036; stroke-width: 1.5;" x1="667.5" x2="770.5" y1="355.3359" y2="355.3359"/><!--link AddProductUI to AddProductController--><path d="M271,56.12 C271,71.36 271,92.02 271,111.4 " fill="none" id="AddProductUI-AddProductController" style="stroke: #A80036; stroke-width: 1.0; stroke-dasharray: 7.0,7.0;"/><polygon fill="#A80036" points="271,116.83,275,107.83,271,111.83,267,107.83,271,116.83" style="stroke: #A80036; stroke-width: 1.0;"/><!--link AddProductController to PharmacyDB--><path d="M221.13,220.31 C198.83,243.03 172.9,269.45 151.92,290.83 " fill="none" id="AddProductController-PharmacyDB" style="stroke: #A80036; stroke-width: 1.0; stroke-dasharray: 7.0,7.0;"/><polygon fill="#A80036" points="148.33,294.49,157.4936,290.8805,151.8369,290.9261,151.7913,285.2694,148.33,294.49" style="stroke: #A80036; stroke-width: 1.0;"/><!--link AddProductController to Product--><path d="M269.23,220.21 C269.86,266 276.5,333.72 306,384 C326.57,419.06 358.23,449.32 390.18,473.62 " fill="none" id="AddProductController-Product" style="stroke: #A80036; stroke-width: 1.0; stroke-dasharray: 7.0,7.0;"/><polygon fill="#A80036" points="394.49,476.86,389.69,468.26,390.49,473.86,384.89,474.66,394.49,476.86" style="stroke: #A80036; stroke-width: 1.0;"/><!--link AddProductController to Pharmacy--><path d="M303.62,220.31 C315.04,238.11 327.92,258.17 339.56,276.3 " fill="none" id="AddProductController-Pharmacy" style="stroke: #A80036; stroke-width: 1.0; stroke-dasharray: 7.0,7.0;"/><polygon fill="#A80036" points="342.49,280.87,341.0029,271.1341,339.7927,276.6599,334.2668,275.4497,342.49,280.87" style="stroke: #A80036; stroke-width: 1.0;"/><!--link ProductDB to Product--><path d="M539.75,363.6 C534.68,387.97 527.3,423.54 520.47,456.4 " fill="none" id="ProductDB-Product" style="stroke: #A80036; stroke-width: 1.0;"/><polygon fill="#A80036" points="519.38,461.64,525.1213,453.6376,520.3935,456.7438,517.2873,452.016,519.38,461.64" style="stroke: #A80036; stroke-width: 1.0;"/><text fill="#000000" font-family="sans-serif" font-size="13" lengthAdjust="spacingAndGlyphs" textLength="33" x="529" y="428.4951">saves</text><polygon fill="#000000" points="541,437.3516,544,443.3516,547,437.3516,541,437.3516" style="stroke: #000000; stroke-width: 1.0;"/><text fill="#000000" font-family="sans-serif" font-size="13" lengthAdjust="spacingAndGlyphs" textLength="7" x="530.8305" y="384.8437">1</text><text fill="#000000" font-family="sans-serif" font-size="13" lengthAdjust="spacingAndGlyphs" textLength="5" x="515.6596" y="451.0661">*</text><!--link Pharmacy to Product--><path d="M406.31,384.14 C419.96,406.2 436.31,432.65 451.65,457.46 " fill="none" id="Pharmacy-Product" style="stroke: #A80036; stroke-width: 1.0;"/><polygon fill="#A80036" points="454.3,461.75,452.9752,451.9907,451.6731,457.4956,446.1682,456.1936,454.3,461.75" style="stroke: #A80036; stroke-width: 1.0;"/><text fill="#000000" font-family="sans-serif" font-size="13" lengthAdjust="spacingAndGlyphs" textLength="21" x="437" y="428.4951">has</text><polygon fill="#000000" points="443,437.3516,446,443.3516,449,437.3516,443,437.3516" style="stroke: #000000; stroke-width: 1.0;"/><text fill="#000000" font-family="sans-serif" font-size="13" lengthAdjust="spacingAndGlyphs" textLength="7" x="403.2208" y="406.0225">1</text><text fill="#000000" font-family="sans-serif" font-size="13" lengthAdjust="spacingAndGlyphs" textLength="5" x="444.58" y="451.1863">*</text><!--link Administrator to Product--><path d="M687.59,363.6 C661.74,388.37 623.82,424.71 589.07,458.02 " fill="none" id="Administrator-Product" style="stroke: #A80036; stroke-width: 1.0;"/><polygon fill="#A80036" points="585.28,461.64,594.5418,458.2905,588.8861,458.1765,589.0001,452.5207,585.28,461.64" style="stroke: #A80036; stroke-width: 1.0;"/><text fill="#000000" font-family="sans-serif" font-size="13" lengthAdjust="spacingAndGlyphs" textLength="109" x="631" y="428.4951">add/remove/update</text><text fill="#000000" font-family="sans-serif" font-size="13" lengthAdjust="spacingAndGlyphs" textLength="7" x="673.7171" y="384.8437">1</text><text fill="#000000" font-family="sans-serif" font-size="13" lengthAdjust="spacingAndGlyphs" textLength="5" x="587.6347" y="451.0661">*</text><!--
@startuml
skinparam classAttributeIconSize 0

class AddProductUI {

}

class AddProductController {
  +List<Pharmacy> getPharmaciesList()
  +getPharmacyByEmail(PharmacyEmail)
  +newProduct(name, description, price, weight)
  +addProduct()
}

class PharmacyDB {
  +List<Pharmacy> getAllPharmacies()
  +Pharmacy getPharmacy(PharmacyEmail)
}

class Product {
  -String reference
  -String name
  -String description
  -Double price
  -Double weight
  -Integer amount
  +Product(name, description, price, weight)
  +Save(pharEmail)
}

class Pharmacy {
  -String designation
  -Adress adress
  -Integer parkMax
  +String getEmail()
}

class ProductDB {
  +addProduct(product, pharEmail)
}

class Administrator {
  -String email
}

AddProductUI ..> AddProductController
AddProductController ..> PharmacyDB
AddProductController ..> Product
AddProductController ..> Pharmacy

ProductDB "1" - -> "*" Product : saves >

Pharmacy "1" - -> "*" Product : has >

Administrator "1" - -> "*" Product : add/remove/update

@enduml

PlantUML version 1.2018.14(Fri Dec 21 16:33:16 GMT 2018)
(GPL source distribution)
Java Runtime: Java(TM) SE Runtime Environment
JVM: Java HotSpot(TM) 64-Bit Server VM
Java Version: 1.8.0_271-b09
Operating System: Windows 10
OS Version: 10.0
Default Encoding: Cp1252
Language: pt
Country: PT
--></g></svg>