<?xml version="1.0" encoding="UTF-8" standalone="no"?><svg xmlns="http://www.w3.org/2000/svg" xmlns:xlink="http://www.w3.org/1999/xlink" contentScriptType="application/ecmascript" contentStyleType="text/css" height="617px" preserveAspectRatio="none" style="width:762px;height:617px;" version="1.1" viewBox="0 0 762 617" width="762px" zoomAndPan="magnify"><defs><filter height="300%" id="f2pbdrlse00s6" width="300%" x="-1" y="-1"><feGaussianBlur result="blurOut" stdDeviation="2.0"/><feColorMatrix in="blurOut" result="blurOut2" type="matrix" values="0 0 0 0 0 0 0 0 0 0 0 0 0 0 0 0 0 0 .4 0"/><feOffset dx="4.0" dy="4.0" in="blurOut2" result="blurOut3"/><feBlend in="SourceGraphic" in2="blurOut3" mode="normal"/></filter></defs><g><!--class AddDroneUI--><rect fill="#FEFECE" filter="url(#f2pbdrlse00s6)" height="48" id="AddDroneUI" style="stroke: #A80036; stroke-width: 1.5;" width="99" x="221.5" y="8"/><ellipse cx="236.5" cy="24" fill="#ADD1B2" rx="11" ry="11" style="stroke: #A80036; stroke-width: 1.0;"/><path d="M239.2656,19.875 Q239.4219,19.6563 239.6094,19.5469 Q239.7969,19.4375 240.0156,19.4375 Q240.3906,19.4375 240.625,19.6953 Q240.8594,19.9531 240.8594,20.5625 L240.8594,22.0156 Q240.8594,22.625 240.625,22.8906 Q240.3906,23.1563 240.0156,23.1563 Q239.6719,23.1563 239.4688,22.9531 Q239.2656,22.7656 239.1563,22.25 Q239.1094,21.8906 238.9219,21.7031 Q238.5938,21.3281 237.9844,21.1094 Q237.375,20.8906 236.75,20.8906 Q235.9844,20.8906 235.3516,21.2188 Q234.7188,21.5469 234.2266,22.2969 Q233.7344,23.0469 233.7344,24.0781 L233.7344,25.1719 Q233.7344,26.4063 234.625,27.2266 Q235.5156,28.0469 237.1094,28.0469 Q238.0469,28.0469 238.7031,27.7969 Q239.0938,27.6406 239.5156,27.2031 Q239.7813,26.9375 239.9297,26.8594 Q240.0781,26.7813 240.2813,26.7813 Q240.6094,26.7813 240.8672,27.0391 Q241.125,27.2969 241.125,27.6406 Q241.125,27.9844 240.7813,28.3906 Q240.2813,28.9688 239.4844,29.2969 Q238.4063,29.75 237.1094,29.75 Q235.5938,29.75 234.3906,29.125 Q233.4063,28.625 232.7188,27.5547 Q232.0313,26.4844 232.0313,25.2031 L232.0313,24.0469 Q232.0313,22.7188 232.6484,21.5703 Q233.2656,20.4219 234.3594,19.8047 Q235.4531,19.1875 236.6875,19.1875 Q237.4219,19.1875 238.0703,19.3516 Q238.7188,19.5156 239.2656,19.875 Z "/><text fill="#000000" font-family="sans-serif" font-size="12" lengthAdjust="spacingAndGlyphs" textLength="67" x="250.5" y="28.9102">AddDroneUI</text><line style="stroke: #A80036; stroke-width: 1.5;" x1="222.5" x2="319.5" y1="40" y2="40"/><line style="stroke: #A80036; stroke-width: 1.5;" x1="222.5" x2="319.5" y1="48" y2="48"/><!--class AddDroneController--><rect fill="#FEFECE" filter="url(#f2pbdrlse00s6)" height="103.3438" id="AddDroneController" style="stroke: #A80036; stroke-width: 1.5;" width="211" x="165.5" y="117"/><ellipse cx="212.25" cy="133" fill="#ADD1B2" rx="11" ry="11" style="stroke: #A80036; stroke-width: 1.0;"/><path d="M215.0156,128.875 Q215.1719,128.6563 215.3594,128.5469 Q215.5469,128.4375 215.7656,128.4375 Q216.1406,128.4375 216.375,128.6953 Q216.6094,128.9531 216.6094,129.5625 L216.6094,131.0156 Q216.6094,131.625 216.375,131.8906 Q216.1406,132.1563 215.7656,132.1563 Q215.4219,132.1563 215.2188,131.9531 Q215.0156,131.7656 214.9063,131.25 Q214.8594,130.8906 214.6719,130.7031 Q214.3438,130.3281 213.7344,130.1094 Q213.125,129.8906 212.5,129.8906 Q211.7344,129.8906 211.1016,130.2188 Q210.4688,130.5469 209.9766,131.2969 Q209.4844,132.0469 209.4844,133.0781 L209.4844,134.1719 Q209.4844,135.4063 210.375,136.2266 Q211.2656,137.0469 212.8594,137.0469 Q213.7969,137.0469 214.4531,136.7969 Q214.8438,136.6406 215.2656,136.2031 Q215.5313,135.9375 215.6797,135.8594 Q215.8281,135.7813 216.0313,135.7813 Q216.3594,135.7813 216.6172,136.0391 Q216.875,136.2969 216.875,136.6406 Q216.875,136.9844 216.5313,137.3906 Q216.0313,137.9688 215.2344,138.2969 Q214.1563,138.75 212.8594,138.75 Q211.3438,138.75 210.1406,138.125 Q209.1563,137.625 208.4688,136.5547 Q207.7813,135.4844 207.7813,134.2031 L207.7813,133.0469 Q207.7813,131.7188 208.3984,130.5703 Q209.0156,129.4219 210.1094,128.8047 Q211.2031,128.1875 212.4375,128.1875 Q213.1719,128.1875 213.8203,128.3516 Q214.4688,128.5156 215.0156,128.875 Z "/><text fill="#000000" font-family="sans-serif" font-size="12" lengthAdjust="spacingAndGlyphs" textLength="109" x="232.75" y="137.9102">AddDroneController</text><line style="stroke: #A80036; stroke-width: 1.5;" x1="166.5" x2="375.5" y1="149" y2="149"/><line style="stroke: #A80036; stroke-width: 1.5;" x1="166.5" x2="375.5" y1="157" y2="157"/><text fill="#000000" font-family="sans-serif" font-size="11" lengthAdjust="spacingAndGlyphs" textLength="182" x="171.5" y="172.4189">+List&lt;Pharmacy&gt; getPharmaciesList()</text><text fill="#000000" font-family="sans-serif" font-size="11" lengthAdjust="spacingAndGlyphs" textLength="186" x="171.5" y="186.2549">+getPharmacyByEmail(PharmacyEmail)</text><text fill="#000000" font-family="sans-serif" font-size="11" lengthAdjust="spacingAndGlyphs" textLength="199" x="171.5" y="200.0908">+newDrone(capacity,power,maxBattery)</text><text fill="#000000" font-family="sans-serif" font-size="11" lengthAdjust="spacingAndGlyphs" textLength="61" x="171.5" y="213.9268">+addDrone()</text><!--class PharmacyDB--><rect fill="#FEFECE" filter="url(#f2pbdrlse00s6)" height="75.6719" id="PharmacyDB" style="stroke: #A80036; stroke-width: 1.5;" width="212" x="6" y="294.5"/><ellipse cx="71.75" cy="310.5" fill="#ADD1B2" rx="11" ry="11" style="stroke: #A80036; stroke-width: 1.0;"/><path d="M74.5156,306.375 Q74.6719,306.1563 74.8594,306.0469 Q75.0469,305.9375 75.2656,305.9375 Q75.6406,305.9375 75.875,306.1953 Q76.1094,306.4531 76.1094,307.0625 L76.1094,308.5156 Q76.1094,309.125 75.875,309.3906 Q75.6406,309.6563 75.2656,309.6563 Q74.9219,309.6563 74.7188,309.4531 Q74.5156,309.2656 74.4063,308.75 Q74.3594,308.3906 74.1719,308.2031 Q73.8438,307.8281 73.2344,307.6094 Q72.625,307.3906 72,307.3906 Q71.2344,307.3906 70.6016,307.7188 Q69.9688,308.0469 69.4766,308.7969 Q68.9844,309.5469 68.9844,310.5781 L68.9844,311.6719 Q68.9844,312.9063 69.875,313.7266 Q70.7656,314.5469 72.3594,314.5469 Q73.2969,314.5469 73.9531,314.2969 Q74.3438,314.1406 74.7656,313.7031 Q75.0313,313.4375 75.1797,313.3594 Q75.3281,313.2813 75.5313,313.2813 Q75.8594,313.2813 76.1172,313.5391 Q76.375,313.7969 76.375,314.1406 Q76.375,314.4844 76.0313,314.8906 Q75.5313,315.4688 74.7344,315.7969 Q73.6563,316.25 72.3594,316.25 Q70.8438,316.25 69.6406,315.625 Q68.6563,315.125 67.9688,314.0547 Q67.2813,312.9844 67.2813,311.7031 L67.2813,310.5469 Q67.2813,309.2188 67.8984,308.0703 Q68.5156,306.9219 69.6094,306.3047 Q70.7031,305.6875 71.9375,305.6875 Q72.6719,305.6875 73.3203,305.8516 Q73.9688,306.0156 74.5156,306.375 Z "/><text fill="#000000" font-family="sans-serif" font-size="12" lengthAdjust="spacingAndGlyphs" textLength="72" x="92.25" y="315.4102">PharmacyDB</text><line style="stroke: #A80036; stroke-width: 1.5;" x1="7" x2="217" y1="326.5" y2="326.5"/><line style="stroke: #A80036; stroke-width: 1.5;" x1="7" x2="217" y1="334.5" y2="334.5"/><text fill="#000000" font-family="sans-serif" font-size="11" lengthAdjust="spacingAndGlyphs" textLength="177" x="12" y="349.9189">+List&lt;Pharmacy&gt; getAllPharmacies()</text><text fill="#000000" font-family="sans-serif" font-size="11" lengthAdjust="spacingAndGlyphs" textLength="200" x="12" y="363.7549">+Pharmacy getPharmacy(PharmacyEmail)</text><!--class Drone--><rect fill="#FEFECE" filter="url(#f2pbdrlse00s6)" height="144.8516" id="Drone" style="stroke: #A80036; stroke-width: 1.5;" width="189" x="400.5" y="462"/><ellipse cx="473.75" cy="478" fill="#ADD1B2" rx="11" ry="11" style="stroke: #A80036; stroke-width: 1.0;"/><path d="M476.5156,473.875 Q476.6719,473.6563 476.8594,473.5469 Q477.0469,473.4375 477.2656,473.4375 Q477.6406,473.4375 477.875,473.6953 Q478.1094,473.9531 478.1094,474.5625 L478.1094,476.0156 Q478.1094,476.625 477.875,476.8906 Q477.6406,477.1563 477.2656,477.1563 Q476.9219,477.1563 476.7188,476.9531 Q476.5156,476.7656 476.4063,476.25 Q476.3594,475.8906 476.1719,475.7031 Q475.8438,475.3281 475.2344,475.1094 Q474.625,474.8906 474,474.8906 Q473.2344,474.8906 472.6016,475.2188 Q471.9688,475.5469 471.4766,476.2969 Q470.9844,477.0469 470.9844,478.0781 L470.9844,479.1719 Q470.9844,480.4063 471.875,481.2266 Q472.7656,482.0469 474.3594,482.0469 Q475.2969,482.0469 475.9531,481.7969 Q476.3438,481.6406 476.7656,481.2031 Q477.0313,480.9375 477.1797,480.8594 Q477.3281,480.7813 477.5313,480.7813 Q477.8594,480.7813 478.1172,481.0391 Q478.375,481.2969 478.375,481.6406 Q478.375,481.9844 478.0313,482.3906 Q477.5313,482.9688 476.7344,483.2969 Q475.6563,483.75 474.3594,483.75 Q472.8438,483.75 471.6406,483.125 Q470.6563,482.625 469.9688,481.5547 Q469.2813,480.4844 469.2813,479.2031 L469.2813,478.0469 Q469.2813,476.7188 469.8984,475.5703 Q470.5156,474.4219 471.6094,473.8047 Q472.7031,473.1875 473.9375,473.1875 Q474.6719,473.1875 475.3203,473.3516 Q475.9688,473.5156 476.5156,473.875 Z "/><text fill="#000000" font-family="sans-serif" font-size="12" lengthAdjust="spacingAndGlyphs" textLength="34" x="494.25" y="482.9102">Drone</text><line style="stroke: #A80036; stroke-width: 1.5;" x1="401.5" x2="588.5" y1="494" y2="494"/><text fill="#000000" font-family="sans-serif" font-size="11" lengthAdjust="spacingAndGlyphs" textLength="43" x="406.5" y="509.4189">-String id</text><text fill="#000000" font-family="sans-serif" font-size="11" lengthAdjust="spacingAndGlyphs" textLength="81" x="406.5" y="523.2549">-Double capacity</text><text fill="#000000" font-family="sans-serif" font-size="11" lengthAdjust="spacingAndGlyphs" textLength="72" x="406.5" y="537.0908">-Double power</text><text fill="#000000" font-family="sans-serif" font-size="11" lengthAdjust="spacingAndGlyphs" textLength="92" x="406.5" y="550.9268">-Double maxPower</text><text fill="#000000" font-family="sans-serif" font-size="11" lengthAdjust="spacingAndGlyphs" textLength="74" x="406.5" y="564.7627">-Integer battery</text><line style="stroke: #A80036; stroke-width: 1.5;" x1="401.5" x2="588.5" y1="571.1797" y2="571.1797"/><text fill="#000000" font-family="sans-serif" font-size="11" lengthAdjust="spacingAndGlyphs" textLength="177" x="406.5" y="586.5986">+Drone(capacity,power,maxBattery)</text><text fill="#000000" font-family="sans-serif" font-size="11" lengthAdjust="spacingAndGlyphs" textLength="84" x="406.5" y="600.4346">+save(pharEmail)</text><!--class Pharmacy--><rect fill="#FEFECE" filter="url(#f2pbdrlse00s6)" height="103.3438" id="Pharmacy" style="stroke: #A80036; stroke-width: 1.5;" width="102" x="324" y="281"/><ellipse cx="345.75" cy="297" fill="#ADD1B2" rx="11" ry="11" style="stroke: #A80036; stroke-width: 1.0;"/><path d="M348.5156,292.875 Q348.6719,292.6563 348.8594,292.5469 Q349.0469,292.4375 349.2656,292.4375 Q349.6406,292.4375 349.875,292.6953 Q350.1094,292.9531 350.1094,293.5625 L350.1094,295.0156 Q350.1094,295.625 349.875,295.8906 Q349.6406,296.1563 349.2656,296.1563 Q348.9219,296.1563 348.7188,295.9531 Q348.5156,295.7656 348.4063,295.25 Q348.3594,294.8906 348.1719,294.7031 Q347.8438,294.3281 347.2344,294.1094 Q346.625,293.8906 346,293.8906 Q345.2344,293.8906 344.6016,294.2188 Q343.9688,294.5469 343.4766,295.2969 Q342.9844,296.0469 342.9844,297.0781 L342.9844,298.1719 Q342.9844,299.4063 343.875,300.2266 Q344.7656,301.0469 346.3594,301.0469 Q347.2969,301.0469 347.9531,300.7969 Q348.3438,300.6406 348.7656,300.2031 Q349.0313,299.9375 349.1797,299.8594 Q349.3281,299.7813 349.5313,299.7813 Q349.8594,299.7813 350.1172,300.0391 Q350.375,300.2969 350.375,300.6406 Q350.375,300.9844 350.0313,301.3906 Q349.5313,301.9688 348.7344,302.2969 Q347.6563,302.75 346.3594,302.75 Q344.8438,302.75 343.6406,302.125 Q342.6563,301.625 341.9688,300.5547 Q341.2813,299.4844 341.2813,298.2031 L341.2813,297.0469 Q341.2813,295.7188 341.8984,294.5703 Q342.5156,293.4219 343.6094,292.8047 Q344.7031,292.1875 345.9375,292.1875 Q346.6719,292.1875 347.3203,292.3516 Q347.9688,292.5156 348.5156,292.875 Z "/><text fill="#000000" font-family="sans-serif" font-size="12" lengthAdjust="spacingAndGlyphs" textLength="55" x="361.25" y="301.9102">Pharmacy</text><line style="stroke: #A80036; stroke-width: 1.5;" x1="325" x2="425" y1="313" y2="313"/><text fill="#000000" font-family="sans-serif" font-size="11" lengthAdjust="spacingAndGlyphs" textLength="90" x="330" y="328.4189">-String designation</text><text fill="#000000" font-family="sans-serif" font-size="11" lengthAdjust="spacingAndGlyphs" textLength="77" x="330" y="342.2549">-Adress adress</text><text fill="#000000" font-family="sans-serif" font-size="11" lengthAdjust="spacingAndGlyphs" textLength="81" x="330" y="356.0908">-Integer parkMax</text><line style="stroke: #A80036; stroke-width: 1.5;" x1="325" x2="425" y1="362.5078" y2="362.5078"/><text fill="#000000" font-family="sans-serif" font-size="11" lengthAdjust="spacingAndGlyphs" textLength="84" x="330" y="377.9268">+String getEmail()</text><!--class DroneDB--><rect fill="#FEFECE" filter="url(#f2pbdrlse00s6)" height="61.8359" id="DroneDB" style="stroke: #A80036; stroke-width: 1.5;" width="150" x="461" y="301.5"/><ellipse cx="506.25" cy="317.5" fill="#ADD1B2" rx="11" ry="11" style="stroke: #A80036; stroke-width: 1.0;"/><path d="M509.0156,313.375 Q509.1719,313.1563 509.3594,313.0469 Q509.5469,312.9375 509.7656,312.9375 Q510.1406,312.9375 510.375,313.1953 Q510.6094,313.4531 510.6094,314.0625 L510.6094,315.5156 Q510.6094,316.125 510.375,316.3906 Q510.1406,316.6563 509.7656,316.6563 Q509.4219,316.6563 509.2188,316.4531 Q509.0156,316.2656 508.9063,315.75 Q508.8594,315.3906 508.6719,315.2031 Q508.3438,314.8281 507.7344,314.6094 Q507.125,314.3906 506.5,314.3906 Q505.7344,314.3906 505.1016,314.7188 Q504.4688,315.0469 503.9766,315.7969 Q503.4844,316.5469 503.4844,317.5781 L503.4844,318.6719 Q503.4844,319.9063 504.375,320.7266 Q505.2656,321.5469 506.8594,321.5469 Q507.7969,321.5469 508.4531,321.2969 Q508.8438,321.1406 509.2656,320.7031 Q509.5313,320.4375 509.6797,320.3594 Q509.8281,320.2813 510.0313,320.2813 Q510.3594,320.2813 510.6172,320.5391 Q510.875,320.7969 510.875,321.1406 Q510.875,321.4844 510.5313,321.8906 Q510.0313,322.4688 509.2344,322.7969 Q508.1563,323.25 506.8594,323.25 Q505.3438,323.25 504.1406,322.625 Q503.1563,322.125 502.4688,321.0547 Q501.7813,319.9844 501.7813,318.7031 L501.7813,317.5469 Q501.7813,316.2188 502.3984,315.0703 Q503.0156,313.9219 504.1094,313.3047 Q505.2031,312.6875 506.4375,312.6875 Q507.1719,312.6875 507.8203,312.8516 Q508.4688,313.0156 509.0156,313.375 Z "/><text fill="#000000" font-family="sans-serif" font-size="12" lengthAdjust="spacingAndGlyphs" textLength="51" x="526.75" y="322.4102">DroneDB</text><line style="stroke: #A80036; stroke-width: 1.5;" x1="462" x2="610" y1="333.5" y2="333.5"/><line style="stroke: #A80036; stroke-width: 1.5;" x1="462" x2="610" y1="341.5" y2="341.5"/><text fill="#000000" font-family="sans-serif" font-size="11" lengthAdjust="spacingAndGlyphs" textLength="138" x="467" y="356.9189">+addDrone(drone,pharEmail)</text><!--class Administrator--><rect fill="#FEFECE" filter="url(#f2pbdrlse00s6)" height="61.8359" id="Administrator" style="stroke: #A80036; stroke-width: 1.5;" width="105" x="646.5" y="301.5"/><ellipse cx="661.5" cy="317.5" fill="#ADD1B2" rx="11" ry="11" style="stroke: #A80036; stroke-width: 1.0;"/><path d="M664.2656,313.375 Q664.4219,313.1563 664.6094,313.0469 Q664.7969,312.9375 665.0156,312.9375 Q665.3906,312.9375 665.625,313.1953 Q665.8594,313.4531 665.8594,314.0625 L665.8594,315.5156 Q665.8594,316.125 665.625,316.3906 Q665.3906,316.6563 665.0156,316.6563 Q664.6719,316.6563 664.4688,316.4531 Q664.2656,316.2656 664.1563,315.75 Q664.1094,315.3906 663.9219,315.2031 Q663.5938,314.8281 662.9844,314.6094 Q662.375,314.3906 661.75,314.3906 Q660.9844,314.3906 660.3516,314.7188 Q659.7188,315.0469 659.2266,315.7969 Q658.7344,316.5469 658.7344,317.5781 L658.7344,318.6719 Q658.7344,319.9063 659.625,320.7266 Q660.5156,321.5469 662.1094,321.5469 Q663.0469,321.5469 663.7031,321.2969 Q664.0938,321.1406 664.5156,320.7031 Q664.7813,320.4375 664.9297,320.3594 Q665.0781,320.2813 665.2813,320.2813 Q665.6094,320.2813 665.8672,320.5391 Q666.125,320.7969 666.125,321.1406 Q666.125,321.4844 665.7813,321.8906 Q665.2813,322.4688 664.4844,322.7969 Q663.4063,323.25 662.1094,323.25 Q660.5938,323.25 659.3906,322.625 Q658.4063,322.125 657.7188,321.0547 Q657.0313,319.9844 657.0313,318.7031 L657.0313,317.5469 Q657.0313,316.2188 657.6484,315.0703 Q658.2656,313.9219 659.3594,313.3047 Q660.4531,312.6875 661.6875,312.6875 Q662.4219,312.6875 663.0703,312.8516 Q663.7188,313.0156 664.2656,313.375 Z "/><text fill="#000000" font-family="sans-serif" font-size="12" lengthAdjust="spacingAndGlyphs" textLength="73" x="675.5" y="322.4102">Administrator</text><line style="stroke: #A80036; stroke-width: 1.5;" x1="647.5" x2="750.5" y1="333.5" y2="333.5"/><text fill="#000000" font-family="sans-serif" font-size="11" lengthAdjust="spacingAndGlyphs" textLength="59" x="652.5" y="348.9189">-String email</text><line style="stroke: #A80036; stroke-width: 1.5;" x1="647.5" x2="750.5" y1="355.3359" y2="355.3359"/><!--link AddDroneUI to AddDroneController--><path d="M271,56.12 C271,71.36 271,92.02 271,111.4 " fill="none" id="AddDroneUI-AddDroneController" style="stroke: #A80036; stroke-width: 1.0; stroke-dasharray: 7.0,7.0;"/><polygon fill="#A80036" points="271,116.83,275,107.83,271,111.83,267,107.83,271,116.83" style="stroke: #A80036; stroke-width: 1.0;"/><!--link AddDroneController to PharmacyDB--><path d="M221.13,220.31 C198.83,243.03 172.9,269.45 151.92,290.83 " fill="none" id="AddDroneController-PharmacyDB" style="stroke: #A80036; stroke-width: 1.0; stroke-dasharray: 7.0,7.0;"/><polygon fill="#A80036" points="148.33,294.49,157.4936,290.8805,151.8369,290.9261,151.7913,285.2694,148.33,294.49" style="stroke: #A80036; stroke-width: 1.0;"/><!--link AddDroneController to Drone--><path d="M269.21,220.22 C269.82,266.03 276.45,333.75 306,384 C327.71,420.91 362.26,452.2 395.92,476.46 " fill="none" id="AddDroneController-Drone" style="stroke: #A80036; stroke-width: 1.0; stroke-dasharray: 7.0,7.0;"/><polygon fill="#A80036" points="400.02,479.39,395.0101,470.9106,395.9475,476.4892,390.3688,477.4266,400.02,479.39" style="stroke: #A80036; stroke-width: 1.0;"/><!--link AddDroneController to Pharmacy--><path d="M303.62,220.31 C315.04,238.11 327.92,258.17 339.56,276.3 " fill="none" id="AddDroneController-Pharmacy" style="stroke: #A80036; stroke-width: 1.0; stroke-dasharray: 7.0,7.0;"/><polygon fill="#A80036" points="342.49,280.87,341.0029,271.1341,339.7927,276.6599,334.2668,275.4497,342.49,280.87" style="stroke: #A80036; stroke-width: 1.0;"/><!--link Administrator to Drone--><path d="M668.02,363.88 C642.53,388.86 605.3,425.37 571.89,458.11 " fill="none" id="Administrator-Drone" style="stroke: #A80036; stroke-width: 1.0;"/><polygon fill="#A80036" points="568.26,461.68,577.4876,458.2375,571.8311,458.1804,571.8882,452.5238,568.26,461.68" style="stroke: #A80036; stroke-width: 1.0;"/><text fill="#000000" font-family="sans-serif" font-size="13" lengthAdjust="spacingAndGlyphs" textLength="109" x="616" y="428.4951">add/remove/update</text><text fill="#000000" font-family="sans-serif" font-size="13" lengthAdjust="spacingAndGlyphs" textLength="7" x="654.4472" y="384.9311">1</text><text fill="#000000" font-family="sans-serif" font-size="13" lengthAdjust="spacingAndGlyphs" textLength="5" x="570.2254" y="451.244">*</text><!--link Pharmacy to Drone--><path d="M405.44,384.23 C419.53,407.72 436.53,436.05 451.91,461.69 " fill="none" id="Pharmacy-Drone" style="stroke: #A80036; stroke-width: 1.0;"/><text fill="#000000" font-family="sans-serif" font-size="13" lengthAdjust="spacingAndGlyphs" textLength="21" x="433" y="428.4951">has</text><polygon fill="#000000" points="439,437.3516,442,443.3516,445,437.3516,439,437.3516" style="stroke: #000000; stroke-width: 1.0;"/><text fill="#000000" font-family="sans-serif" font-size="13" lengthAdjust="spacingAndGlyphs" textLength="7" x="402.0601" y="405.7519">1</text><text fill="#000000" font-family="sans-serif" font-size="13" lengthAdjust="spacingAndGlyphs" textLength="5" x="442.4222" y="451.255">*</text><!--link DroneDB to Drone--><path d="M529.77,363.88 C524.46,389.77 516.62,428.04 509.72,461.68 " fill="none" id="DroneDB-Drone" style="stroke: #A80036; stroke-width: 1.0;"/><text fill="#000000" font-family="sans-serif" font-size="13" lengthAdjust="spacingAndGlyphs" textLength="33" x="520" y="428.4951">saves</text><polygon fill="#000000" points="532,437.3516,535,443.3516,538,437.3516,532,437.3516" style="stroke: #000000; stroke-width: 1.0;"/><text fill="#000000" font-family="sans-serif" font-size="13" lengthAdjust="spacingAndGlyphs" textLength="7" x="520.9152" y="384.9311">1</text><text fill="#000000" font-family="sans-serif" font-size="13" lengthAdjust="spacingAndGlyphs" textLength="5" x="505.9229" y="451.244">*</text><!--
@startuml
skinparam classAttributeIconSize 0

class AddDroneUI {

}

class AddDroneController {
  +List<Pharmacy> getPharmaciesList()
  +getPharmacyByEmail(PharmacyEmail)
  +newDrone(capacity,power,maxBattery)
  +addDrone()
}

class PharmacyDB {
  +List<Pharmacy> getAllPharmacies()
  +Pharmacy getPharmacy(PharmacyEmail)
}

class Drone {
  -String id
  -Double capacity
  -Double power
  -Double maxPower
  -Integer battery
  +Drone(capacity,power,maxBattery)
  +save(pharEmail)
}

class Pharmacy {
  -String designation
  -Adress adress
  -Integer parkMax
  +String getEmail()
}

class DroneDB {
  +addDrone(drone,pharEmail)
}

class Administrator {
  -String email
}

AddDroneUI ..> AddDroneController
AddDroneController ..> PharmacyDB
AddDroneController ..> Drone
AddDroneController ..> Pharmacy

Administrator "1" - -> "*" Drone : add/remove/update

Pharmacy "1" - - "*" Drone : has >

DroneDB "1" - - "*" Drone: saves >

@enduml

PlantUML version 1.2018.14(Fri Dec 21 16:33:16 GMT 2018)
(GPL source distribution)
Java Runtime: Java(TM) SE Runtime Environment
JVM: Java HotSpot(TM) 64-Bit Server VM
Java Version: 1.8.0_271-b09
Operating System: Windows 10
OS Version: 10.0
Default Encoding: Cp1252
Language: pt
Country: PT
--></g></svg>