<?xml version="1.0" encoding="UTF-8" standalone="no"?><svg xmlns="http://www.w3.org/2000/svg" xmlns:xlink="http://www.w3.org/1999/xlink" contentScriptType="application/ecmascript" contentStyleType="text/css" height="347px" preserveAspectRatio="none" style="width:1212px;height:347px;" version="1.1" viewBox="0 0 1212 347" width="1212px" zoomAndPan="magnify"><defs><filter height="300%" id="fclchg7j8xxse" width="300%" x="-1" y="-1"><feGaussianBlur result="blurOut" stdDeviation="2.0"/><feColorMatrix in="blurOut" result="blurOut2" type="matrix" values="0 0 0 0 0 0 0 0 0 0 0 0 0 0 0 0 0 0 .4 0"/><feOffset dx="4.0" dy="4.0" in="blurOut2" result="blurOut3"/><feBlend in="SourceGraphic" in2="blurOut3" mode="normal"/></filter></defs><g><!--class Platform--><rect fill="#FEFECE" filter="url(#fclchg7j8xxse)" height="53.8359" id="Platform" style="stroke: #A80036; stroke-width: 1.5;" width="112" x="6" y="146.5"/><ellipse cx="36.3" cy="162.5" fill="#ADD1B2" rx="11" ry="11" style="stroke: #A80036; stroke-width: 1.0;"/><path d="M39.0656,158.375 Q39.2219,158.1563 39.4094,158.0469 Q39.5969,157.9375 39.8156,157.9375 Q40.1906,157.9375 40.425,158.1953 Q40.6594,158.4531 40.6594,159.0625 L40.6594,160.5156 Q40.6594,161.125 40.425,161.3906 Q40.1906,161.6563 39.8156,161.6563 Q39.4719,161.6563 39.2688,161.4531 Q39.0656,161.2656 38.9563,160.75 Q38.9094,160.3906 38.7219,160.2031 Q38.3938,159.8281 37.7844,159.6094 Q37.175,159.3906 36.55,159.3906 Q35.7844,159.3906 35.1516,159.7188 Q34.5188,160.0469 34.0266,160.7969 Q33.5344,161.5469 33.5344,162.5781 L33.5344,163.6719 Q33.5344,164.9063 34.425,165.7266 Q35.3156,166.5469 36.9094,166.5469 Q37.8469,166.5469 38.5031,166.2969 Q38.8938,166.1406 39.3156,165.7031 Q39.5813,165.4375 39.7297,165.3594 Q39.8781,165.2813 40.0813,165.2813 Q40.4094,165.2813 40.6672,165.5391 Q40.925,165.7969 40.925,166.1406 Q40.925,166.4844 40.5813,166.8906 Q40.0813,167.4688 39.2844,167.7969 Q38.2063,168.25 36.9094,168.25 Q35.3938,168.25 34.1906,167.625 Q33.2063,167.125 32.5188,166.0547 Q31.8313,164.9844 31.8313,163.7031 L31.8313,162.5469 Q31.8313,161.2188 32.4484,160.0703 Q33.0656,158.9219 34.1594,158.3047 Q35.2531,157.6875 36.4875,157.6875 Q37.2219,157.6875 37.8703,157.8516 Q38.5188,158.0156 39.0656,158.375 Z "/><text fill="#000000" font-family="sans-serif" font-size="12" lengthAdjust="spacingAndGlyphs" textLength="46" x="53.7" y="167.4102">Platform</text><line style="stroke: #A80036; stroke-width: 1.5;" x1="7" x2="117" y1="178.5" y2="178.5"/><rect fill="none" height="6" style="stroke: #C82930; stroke-width: 1.0;" width="6" x="14" y="187.918"/><text fill="#000000" font-family="sans-serif" font-size="11" lengthAdjust="spacingAndGlyphs" textLength="86" x="26" y="193.9189">String designation</text><!--class User--><rect fill="#FEFECE" filter="url(#fclchg7j8xxse)" height="81.5078" id="User" style="stroke: #A80036; stroke-width: 1.5;" width="107" x="567" y="8.5"/><ellipse cx="603.6" cy="24.5" fill="#ADD1B2" rx="11" ry="11" style="stroke: #A80036; stroke-width: 1.0;"/><path d="M606.3656,20.375 Q606.5219,20.1563 606.7094,20.0469 Q606.8969,19.9375 607.1156,19.9375 Q607.4906,19.9375 607.725,20.1953 Q607.9594,20.4531 607.9594,21.0625 L607.9594,22.5156 Q607.9594,23.125 607.725,23.3906 Q607.4906,23.6563 607.1156,23.6563 Q606.7719,23.6563 606.5688,23.4531 Q606.3656,23.2656 606.2563,22.75 Q606.2094,22.3906 606.0219,22.2031 Q605.6938,21.8281 605.0844,21.6094 Q604.475,21.3906 603.85,21.3906 Q603.0844,21.3906 602.4516,21.7188 Q601.8188,22.0469 601.3266,22.7969 Q600.8344,23.5469 600.8344,24.5781 L600.8344,25.6719 Q600.8344,26.9063 601.725,27.7266 Q602.6156,28.5469 604.2094,28.5469 Q605.1469,28.5469 605.8031,28.2969 Q606.1938,28.1406 606.6156,27.7031 Q606.8813,27.4375 607.0297,27.3594 Q607.1781,27.2813 607.3813,27.2813 Q607.7094,27.2813 607.9672,27.5391 Q608.225,27.7969 608.225,28.1406 Q608.225,28.4844 607.8813,28.8906 Q607.3813,29.4688 606.5844,29.7969 Q605.5063,30.25 604.2094,30.25 Q602.6938,30.25 601.4906,29.625 Q600.5063,29.125 599.8188,28.0547 Q599.1313,26.9844 599.1313,25.7031 L599.1313,24.5469 Q599.1313,23.2188 599.7484,22.0703 Q600.3656,20.9219 601.4594,20.3047 Q602.5531,19.6875 603.7875,19.6875 Q604.5219,19.6875 605.1703,19.8516 Q605.8188,20.0156 606.3656,20.375 Z "/><text fill="#000000" font-family="sans-serif" font-size="12" lengthAdjust="spacingAndGlyphs" textLength="27" x="622.4" y="29.4102">User</text><line style="stroke: #A80036; stroke-width: 1.5;" x1="568" x2="673" y1="40.5" y2="40.5"/><rect fill="none" height="6" style="stroke: #C82930; stroke-width: 1.0;" width="6" x="575" y="49.918"/><text fill="#000000" font-family="sans-serif" font-size="11" lengthAdjust="spacingAndGlyphs" textLength="57" x="587" y="55.9189">String name</text><rect fill="none" height="6" style="stroke: #C82930; stroke-width: 1.0;" width="6" x="575" y="63.7539"/><text fill="#000000" font-family="sans-serif" font-size="11" lengthAdjust="spacingAndGlyphs" textLength="55" x="587" y="69.7549">String email</text><rect fill="none" height="6" style="stroke: #C82930; stroke-width: 1.0;" width="6" x="575" y="77.5898"/><text fill="#000000" font-family="sans-serif" font-size="11" lengthAdjust="spacingAndGlyphs" textLength="81" x="587" y="83.5908">String password</text><!--class Administrator--><rect fill="#FEFECE" filter="url(#fclchg7j8xxse)" height="53.8359" id="Administrator" style="stroke: #A80036; stroke-width: 1.5;" width="105" x="275" y="146.5"/><ellipse cx="290" cy="162.5" fill="#ADD1B2" rx="11" ry="11" style="stroke: #A80036; stroke-width: 1.0;"/><path d="M292.7656,158.375 Q292.9219,158.1563 293.1094,158.0469 Q293.2969,157.9375 293.5156,157.9375 Q293.8906,157.9375 294.125,158.1953 Q294.3594,158.4531 294.3594,159.0625 L294.3594,160.5156 Q294.3594,161.125 294.125,161.3906 Q293.8906,161.6563 293.5156,161.6563 Q293.1719,161.6563 292.9688,161.4531 Q292.7656,161.2656 292.6563,160.75 Q292.6094,160.3906 292.4219,160.2031 Q292.0938,159.8281 291.4844,159.6094 Q290.875,159.3906 290.25,159.3906 Q289.4844,159.3906 288.8516,159.7188 Q288.2188,160.0469 287.7266,160.7969 Q287.2344,161.5469 287.2344,162.5781 L287.2344,163.6719 Q287.2344,164.9063 288.125,165.7266 Q289.0156,166.5469 290.6094,166.5469 Q291.5469,166.5469 292.2031,166.2969 Q292.5938,166.1406 293.0156,165.7031 Q293.2813,165.4375 293.4297,165.3594 Q293.5781,165.2813 293.7813,165.2813 Q294.1094,165.2813 294.3672,165.5391 Q294.625,165.7969 294.625,166.1406 Q294.625,166.4844 294.2813,166.8906 Q293.7813,167.4688 292.9844,167.7969 Q291.9063,168.25 290.6094,168.25 Q289.0938,168.25 287.8906,167.625 Q286.9063,167.125 286.2188,166.0547 Q285.5313,164.9844 285.5313,163.7031 L285.5313,162.5469 Q285.5313,161.2188 286.1484,160.0703 Q286.7656,158.9219 287.8594,158.3047 Q288.9531,157.6875 290.1875,157.6875 Q290.9219,157.6875 291.5703,157.8516 Q292.2188,158.0156 292.7656,158.375 Z "/><text fill="#000000" font-family="sans-serif" font-size="12" lengthAdjust="spacingAndGlyphs" textLength="73" x="304" y="167.4102">Administrator</text><line style="stroke: #A80036; stroke-width: 1.5;" x1="276" x2="379" y1="178.5" y2="178.5"/><rect fill="none" height="6" style="stroke: #C82930; stroke-width: 1.0;" width="6" x="283" y="187.918"/><text fill="#000000" font-family="sans-serif" font-size="11" lengthAdjust="spacingAndGlyphs" textLength="55" x="295" y="193.9189">String email</text><!--class Courier--><rect fill="#FEFECE" filter="url(#fclchg7j8xxse)" height="95.3438" id="Courier" style="stroke: #A80036; stroke-width: 1.5;" width="167" x="537" y="126"/><ellipse cx="595.75" cy="142" fill="#ADD1B2" rx="11" ry="11" style="stroke: #A80036; stroke-width: 1.0;"/><path d="M598.5156,137.875 Q598.6719,137.6563 598.8594,137.5469 Q599.0469,137.4375 599.2656,137.4375 Q599.6406,137.4375 599.875,137.6953 Q600.1094,137.9531 600.1094,138.5625 L600.1094,140.0156 Q600.1094,140.625 599.875,140.8906 Q599.6406,141.1563 599.2656,141.1563 Q598.9219,141.1563 598.7188,140.9531 Q598.5156,140.7656 598.4063,140.25 Q598.3594,139.8906 598.1719,139.7031 Q597.8438,139.3281 597.2344,139.1094 Q596.625,138.8906 596,138.8906 Q595.2344,138.8906 594.6016,139.2188 Q593.9688,139.5469 593.4766,140.2969 Q592.9844,141.0469 592.9844,142.0781 L592.9844,143.1719 Q592.9844,144.4063 593.875,145.2266 Q594.7656,146.0469 596.3594,146.0469 Q597.2969,146.0469 597.9531,145.7969 Q598.3438,145.6406 598.7656,145.2031 Q599.0313,144.9375 599.1797,144.8594 Q599.3281,144.7813 599.5313,144.7813 Q599.8594,144.7813 600.1172,145.0391 Q600.375,145.2969 600.375,145.6406 Q600.375,145.9844 600.0313,146.3906 Q599.5313,146.9688 598.7344,147.2969 Q597.6563,147.75 596.3594,147.75 Q594.8438,147.75 593.6406,147.125 Q592.6563,146.625 591.9688,145.5547 Q591.2813,144.4844 591.2813,143.2031 L591.2813,142.0469 Q591.2813,140.7188 591.8984,139.5703 Q592.5156,138.4219 593.6094,137.8047 Q594.7031,137.1875 595.9375,137.1875 Q596.6719,137.1875 597.3203,137.3516 Q597.9688,137.5156 598.5156,137.875 Z "/><text fill="#000000" font-family="sans-serif" font-size="12" lengthAdjust="spacingAndGlyphs" textLength="41" x="616.25" y="146.9102">Courier</text><line style="stroke: #A80036; stroke-width: 1.5;" x1="538" x2="703" y1="158" y2="158"/><rect fill="none" height="6" style="stroke: #C82930; stroke-width: 1.0;" width="6" x="545" y="167.418"/><text fill="#000000" font-family="sans-serif" font-size="11" lengthAdjust="spacingAndGlyphs" textLength="48" x="557" y="173.4189">Integer nif</text><rect fill="none" height="6" style="stroke: #C82930; stroke-width: 1.0;" width="6" x="545" y="181.2539"/><text fill="#000000" font-family="sans-serif" font-size="11" lengthAdjust="spacingAndGlyphs" textLength="103" x="557" y="187.2549">Integer phoneNumber</text><rect fill="none" height="6" style="stroke: #C82930; stroke-width: 1.0;" width="6" x="545" y="195.0898"/><text fill="#000000" font-family="sans-serif" font-size="11" lengthAdjust="spacingAndGlyphs" textLength="141" x="557" y="201.0908">Double socialSecurityNumber</text><rect fill="none" height="6" style="stroke: #C82930; stroke-width: 1.0;" width="6" x="545" y="208.9258"/><text fill="#000000" font-family="sans-serif" font-size="11" lengthAdjust="spacingAndGlyphs" textLength="61" x="557" y="214.9268">String status</text><!--class Pharmacy--><rect fill="#FEFECE" filter="url(#fclchg7j8xxse)" height="67.6719" id="Pharmacy" style="stroke: #A80036; stroke-width: 1.5;" width="112" x="857" y="240.5"/><ellipse cx="883.25" cy="256.5" fill="#ADD1B2" rx="11" ry="11" style="stroke: #A80036; stroke-width: 1.0;"/><path d="M886.0156,252.375 Q886.1719,252.1563 886.3594,252.0469 Q886.5469,251.9375 886.7656,251.9375 Q887.1406,251.9375 887.375,252.1953 Q887.6094,252.4531 887.6094,253.0625 L887.6094,254.5156 Q887.6094,255.125 887.375,255.3906 Q887.1406,255.6563 886.7656,255.6563 Q886.4219,255.6563 886.2188,255.4531 Q886.0156,255.2656 885.9063,254.75 Q885.8594,254.3906 885.6719,254.2031 Q885.3438,253.8281 884.7344,253.6094 Q884.125,253.3906 883.5,253.3906 Q882.7344,253.3906 882.1016,253.7188 Q881.4688,254.0469 880.9766,254.7969 Q880.4844,255.5469 880.4844,256.5781 L880.4844,257.6719 Q880.4844,258.9063 881.375,259.7266 Q882.2656,260.5469 883.8594,260.5469 Q884.7969,260.5469 885.4531,260.2969 Q885.8438,260.1406 886.2656,259.7031 Q886.5313,259.4375 886.6797,259.3594 Q886.8281,259.2813 887.0313,259.2813 Q887.3594,259.2813 887.6172,259.5391 Q887.875,259.7969 887.875,260.1406 Q887.875,260.4844 887.5313,260.8906 Q887.0313,261.4688 886.2344,261.7969 Q885.1563,262.25 883.8594,262.25 Q882.3438,262.25 881.1406,261.625 Q880.1563,261.125 879.4688,260.0547 Q878.7813,258.9844 878.7813,257.7031 L878.7813,256.5469 Q878.7813,255.2188 879.3984,254.0703 Q880.0156,252.9219 881.1094,252.3047 Q882.2031,251.6875 883.4375,251.6875 Q884.1719,251.6875 884.8203,251.8516 Q885.4688,252.0156 886.0156,252.375 Z "/><text fill="#000000" font-family="sans-serif" font-size="12" lengthAdjust="spacingAndGlyphs" textLength="55" x="899.75" y="261.4102">Pharmacy</text><line style="stroke: #A80036; stroke-width: 1.5;" x1="858" x2="968" y1="272.5" y2="272.5"/><rect fill="none" height="6" style="stroke: #C82930; stroke-width: 1.0;" width="6" x="865" y="281.918"/><text fill="#000000" font-family="sans-serif" font-size="11" lengthAdjust="spacingAndGlyphs" textLength="86" x="877" y="287.9189">String designation</text><rect fill="none" height="6" style="stroke: #C82930; stroke-width: 1.0;" width="6" x="865" y="295.7539"/><text fill="#000000" font-family="sans-serif" font-size="11" lengthAdjust="spacingAndGlyphs" textLength="55" x="877" y="301.7549">String email</text><!--class Address--><rect fill="#FEFECE" filter="url(#fclchg7j8xxse)" height="123.0156" id="Address" style="stroke: #A80036; stroke-width: 1.5;" width="136" x="1065" y="213"/><ellipse cx="1106.1" cy="229" fill="#ADD1B2" rx="11" ry="11" style="stroke: #A80036; stroke-width: 1.0;"/><path d="M1108.8656,224.875 Q1109.0219,224.6563 1109.2094,224.5469 Q1109.3969,224.4375 1109.6156,224.4375 Q1109.9906,224.4375 1110.225,224.6953 Q1110.4594,224.9531 1110.4594,225.5625 L1110.4594,227.0156 Q1110.4594,227.625 1110.225,227.8906 Q1109.9906,228.1563 1109.6156,228.1563 Q1109.2719,228.1563 1109.0688,227.9531 Q1108.8656,227.7656 1108.7563,227.25 Q1108.7094,226.8906 1108.5219,226.7031 Q1108.1938,226.3281 1107.5844,226.1094 Q1106.975,225.8906 1106.35,225.8906 Q1105.5844,225.8906 1104.9516,226.2188 Q1104.3188,226.5469 1103.8266,227.2969 Q1103.3344,228.0469 1103.3344,229.0781 L1103.3344,230.1719 Q1103.3344,231.4063 1104.225,232.2266 Q1105.1156,233.0469 1106.7094,233.0469 Q1107.6469,233.0469 1108.3031,232.7969 Q1108.6938,232.6406 1109.1156,232.2031 Q1109.3813,231.9375 1109.5297,231.8594 Q1109.6781,231.7813 1109.8813,231.7813 Q1110.2094,231.7813 1110.4672,232.0391 Q1110.725,232.2969 1110.725,232.6406 Q1110.725,232.9844 1110.3813,233.3906 Q1109.8813,233.9688 1109.0844,234.2969 Q1108.0063,234.75 1106.7094,234.75 Q1105.1938,234.75 1103.9906,234.125 Q1103.0063,233.625 1102.3188,232.5547 Q1101.6313,231.4844 1101.6313,230.2031 L1101.6313,229.0469 Q1101.6313,227.7188 1102.2484,226.5703 Q1102.8656,225.4219 1103.9594,224.8047 Q1105.0531,224.1875 1106.2875,224.1875 Q1107.0219,224.1875 1107.6703,224.3516 Q1108.3188,224.5156 1108.8656,224.875 Z "/><text fill="#000000" font-family="sans-serif" font-size="12" lengthAdjust="spacingAndGlyphs" textLength="46" x="1125.9" y="233.9102">Address</text><line style="stroke: #A80036; stroke-width: 1.5;" x1="1066" x2="1200" y1="245" y2="245"/><rect fill="none" height="6" style="stroke: #C82930; stroke-width: 1.0;" width="6" x="1073" y="254.418"/><text fill="#000000" font-family="sans-serif" font-size="11" lengthAdjust="spacingAndGlyphs" textLength="59" x="1085" y="260.4189">String street</text><rect fill="none" height="6" style="stroke: #C82930; stroke-width: 1.0;" width="6" x="1073" y="268.2539"/><text fill="#000000" font-family="sans-serif" font-size="11" lengthAdjust="spacingAndGlyphs" textLength="85" x="1085" y="274.2549">String postalCode</text><rect fill="none" height="6" style="stroke: #C82930; stroke-width: 1.0;" width="6" x="1073" y="282.0898"/><text fill="#000000" font-family="sans-serif" font-size="11" lengthAdjust="spacingAndGlyphs" textLength="72" x="1085" y="288.0908">Integer number</text><rect fill="none" height="6" style="stroke: #C82930; stroke-width: 1.0;" width="6" x="1073" y="295.9258"/><text fill="#000000" font-family="sans-serif" font-size="11" lengthAdjust="spacingAndGlyphs" textLength="64" x="1085" y="301.9268">String locality</text><rect fill="none" height="6" style="stroke: #C82930; stroke-width: 1.0;" width="6" x="1073" y="309.7617"/><text fill="#000000" font-family="sans-serif" font-size="11" lengthAdjust="spacingAndGlyphs" textLength="110" x="1085" y="315.7627">String GPSCoordinates</text><rect fill="none" height="6" style="stroke: #C82930; stroke-width: 1.0;" width="6" x="1073" y="323.5977"/><text fill="#000000" font-family="sans-serif" font-size="11" lengthAdjust="spacingAndGlyphs" textLength="79" x="1085" y="329.5986">Integer elevation</text><!--link Platform to Administrator--><path d="M118.238,173.5 C164.417,173.5 229.787,173.5 274.915,173.5 " fill="none" id="Platform-Administrator" style="stroke: #A80036; stroke-width: 1.0;"/><text fill="#000000" font-family="sans-serif" font-size="13" lengthAdjust="spacingAndGlyphs" textLength="82" x="149" y="169.9951">has registered</text><polygon fill="#000000" points="234,163.1758,240,166.1758,234,169.1758,234,163.1758" style="stroke: #000000; stroke-width: 1.0;"/><text fill="#000000" font-family="sans-serif" font-size="13" lengthAdjust="spacingAndGlyphs" textLength="7" x="125.8919" y="188.0531">1</text><text fill="#000000" font-family="sans-serif" font-size="13" lengthAdjust="spacingAndGlyphs" textLength="7" x="260.028" y="188.1564">1</text><!--link Platform to User--><path d="M118.232,156.261 C128.124,153.272 138.352,150.245 148,147.5 C263.819,114.549 291.927,102.131 410,78.5 C462.926,67.907 524.148,59.918 566.687,55.034 " fill="none" id="Platform-User" style="stroke: #A80036; stroke-width: 1.0;"/><text fill="#000000" font-family="sans-serif" font-size="13" lengthAdjust="spacingAndGlyphs" textLength="82" x="280" y="80.9951">has registered</text><polygon fill="#000000" points="365,74.1758,371,77.1758,365,80.1758,365,74.1758" style="stroke: #000000; stroke-width: 1.0;"/><text fill="#000000" font-family="sans-serif" font-size="13" lengthAdjust="spacingAndGlyphs" textLength="7" x="125.8852" y="168.6054">1</text><text fill="#000000" font-family="sans-serif" font-size="13" lengthAdjust="spacingAndGlyphs" textLength="5" x="554.1199" y="70.4044">*</text><!--link Platform to Pharmacy--><path d="M118.094,192.986 C185.875,216.114 304.9,253.9958 410,273.5 C551.697,299.7957 589.886,285.7685 734,286.5 C775.333,286.7098 785.768,289.3961 827,286.5 C836.663,285.8212 846.899,284.7136 856.794,283.4385 " fill="none" id="Platform-Pharmacy" style="stroke: #A80036; stroke-width: 1.0;"/><text fill="#000000" font-family="sans-serif" font-size="13" lengthAdjust="spacingAndGlyphs" textLength="82" x="411" y="269.9951">has registered</text><polygon fill="#000000" points="496,263.1758,502,266.1758,496,269.1758,496,263.1758" style="stroke: #000000; stroke-width: 1.0;"/><text fill="#000000" font-family="sans-serif" font-size="13" lengthAdjust="spacingAndGlyphs" textLength="7" x="126.1019" y="210.2092">1</text><text fill="#000000" font-family="sans-serif" font-size="13" lengthAdjust="spacingAndGlyphs" textLength="7" x="842.1442" y="299.1474">1</text><!--link Administrator to Pharmacy--><path d="M380.113,199.631 C421.41,219.151 481.408,244.4528 537,256.5 C648.635,280.6921 783.165,280.1973 856.927,277.4781 " fill="none" id="Administrator-Pharmacy" style="stroke: #A80036; stroke-width: 1.0;"/><text fill="#000000" font-family="sans-serif" font-size="13" lengthAdjust="spacingAndGlyphs" textLength="100" x="564" y="252.9951">creates/manages</text><polygon fill="#000000" points="667,246.1758,673,249.1758,667,252.1758,667,246.1758" style="stroke: #000000; stroke-width: 1.0;"/><text fill="#000000" font-family="sans-serif" font-size="13" lengthAdjust="spacingAndGlyphs" textLength="7" x="388.0039" y="217.962">1</text><text fill="#000000" font-family="sans-serif" font-size="13" lengthAdjust="spacingAndGlyphs" textLength="5" x="844.0563" y="274.3441">*</text><!--link Administrator to User--><path d="M380.267,152.924 C416.014,138.571 464.569,118.786 507,100.5 C526.595,92.055 547.953,82.471 566.743,73.908 " fill="none" id="Administrator-User" style="stroke: #A80036; stroke-width: 1.0;"/><text fill="#000000" font-family="sans-serif" font-size="13" lengthAdjust="spacingAndGlyphs" textLength="36" x="434" y="96.9951">act as</text><polygon fill="#000000" points="473,90.1758,479,93.1758,473,96.1758,473,90.1758" style="stroke: #000000; stroke-width: 1.0;"/><text fill="#000000" font-family="sans-serif" font-size="13" lengthAdjust="spacingAndGlyphs" textLength="22" x="388.0386" y="164.9178">0..1</text><text fill="#000000" font-family="sans-serif" font-size="13" lengthAdjust="spacingAndGlyphs" textLength="7" x="552.0491" y="91.8146">1</text><!--link Administrator to Courier--><path d="M380.19,173.5 C423.634,173.5 486.53,173.5 536.94,173.5 " fill="none" id="Administrator-Courier" style="stroke: #A80036; stroke-width: 1.0;"/><text fill="#000000" font-family="sans-serif" font-size="13" lengthAdjust="spacingAndGlyphs" textLength="53" x="425.5" y="169.9951">manages</text><polygon fill="#000000" points="481.5,163.1758,487.5,166.1758,481.5,169.1758,481.5,163.1758" style="stroke: #000000; stroke-width: 1.0;"/><text fill="#000000" font-family="sans-serif" font-size="13" lengthAdjust="spacingAndGlyphs" textLength="7" x="388.0917" y="188.1564">1</text><text fill="#000000" font-family="sans-serif" font-size="13" lengthAdjust="spacingAndGlyphs" textLength="5" x="524.0063" y="187.733">*</text><!--link Courier to Pharmacy--><path d="M704.357,202.307 C753.158,219.275 813.562,240.2754 856.614,255.2438 " fill="none" id="Courier-Pharmacy" style="stroke: #A80036; stroke-width: 1.0;"/><text fill="#000000" font-family="sans-serif" font-size="13" lengthAdjust="spacingAndGlyphs" textLength="78" x="735" y="210.9951">associated to</text><polygon fill="#000000" points="816,204.1758,822,207.1758,816,210.1758,816,204.1758" style="stroke: #000000; stroke-width: 1.0;"/><text fill="#000000" font-family="sans-serif" font-size="13" lengthAdjust="spacingAndGlyphs" textLength="5" x="712.0482" y="219.0806">*</text><text fill="#000000" font-family="sans-serif" font-size="13" lengthAdjust="spacingAndGlyphs" textLength="7" x="841.9411" y="249.2903">1</text><!--link Pharmacy to Address--><path d="M969.011,274.5 C998.148,274.5 1034.17,274.5 1064.93,274.5 " fill="none" id="Pharmacy-Address" style="stroke: #A80036; stroke-width: 1.0;"/><text fill="#000000" font-family="sans-serif" font-size="13" lengthAdjust="spacingAndGlyphs" textLength="21" x="1000" y="270.9951">has</text><polygon fill="#000000" points="1024,264.1758,1030,267.1758,1024,270.1758,1024,264.1758" style="stroke: #000000; stroke-width: 1.0;"/><text fill="#000000" font-family="sans-serif" font-size="13" lengthAdjust="spacingAndGlyphs" textLength="7" x="977.0078" y="289.1158">1</text><text fill="#000000" font-family="sans-serif" font-size="13" lengthAdjust="spacingAndGlyphs" textLength="7" x="1050.102" y="288.8885">1</text><!--
@startuml

hide methods
left to right direction

class Platform {
  -String designation
}

class User {
  -String name
  -String email
  -String password
}

class Administrator {
  -String email
}

class Courier {
  -Integer nif
  -Integer phoneNumber
  -Double socialSecurityNumber
  -String status
}

class Pharmacy {
  -String designation
  -String email
}

class Address {
  -String street
  -String postalCode
  -Integer number
  -String locality
  -String GPSCoordinates
  -Integer elevation
}

Platform "1" - - "1" Administrator : has registered >
Platform "1" - - "*" User : has registered >
Platform "1" - - "1" Pharmacy : has registered >

Administrator "1" - - "*" Pharmacy : creates/manages >
Administrator "0..1" - - "1" User : act as >
Administrator "1" - - "*" Courier : manages >

Courier "*" - - "1" Pharmacy : associated to >

Pharmacy "1" - - "1" Address : has >

@enduml

PlantUML version 1.2018.14(Fri Dec 21 16:33:16 GMT 2018)
(GPL source distribution)
Java Runtime: Java(TM) SE Runtime Environment
JVM: Java HotSpot(TM) 64-Bit Server VM
Java Version: 1.8.0_221-b11
Operating System: Windows 10
OS Version: 10.0
Default Encoding: Cp1252
Language: pt
Country: PT
--></g></svg>