<?xml version="1.0" encoding="UTF-8" standalone="no"?><svg xmlns="http://www.w3.org/2000/svg" xmlns:xlink="http://www.w3.org/1999/xlink" contentScriptType="application/ecmascript" contentStyleType="text/css" height="594px" preserveAspectRatio="none" style="width:715px;height:594px;" version="1.1" viewBox="0 0 715 594" width="715px" zoomAndPan="magnify"><defs><filter height="300%" id="fzocywjed2tb" width="300%" x="-1" y="-1"><feGaussianBlur result="blurOut" stdDeviation="2.0"/><feColorMatrix in="blurOut" result="blurOut2" type="matrix" values="0 0 0 0 0 0 0 0 0 0 0 0 0 0 0 0 0 0 .4 0"/><feOffset dx="4.0" dy="4.0" in="blurOut2" result="blurOut3"/><feBlend in="SourceGraphic" in2="blurOut3" mode="normal"/></filter></defs><g><!--class AddCourierUI--><rect fill="#FEFECE" filter="url(#fzocywjed2tb)" height="48" id="AddCourierUI" style="stroke: #A80036; stroke-width: 1.5;" width="106" x="130" y="8"/><ellipse cx="145" cy="24" fill="#ADD1B2" rx="11" ry="11" style="stroke: #A80036; stroke-width: 1.0;"/><path d="M147.7656,19.875 Q147.9219,19.6563 148.1094,19.5469 Q148.2969,19.4375 148.5156,19.4375 Q148.8906,19.4375 149.125,19.6953 Q149.3594,19.9531 149.3594,20.5625 L149.3594,22.0156 Q149.3594,22.625 149.125,22.8906 Q148.8906,23.1563 148.5156,23.1563 Q148.1719,23.1563 147.9688,22.9531 Q147.7656,22.7656 147.6563,22.25 Q147.6094,21.8906 147.4219,21.7031 Q147.0938,21.3281 146.4844,21.1094 Q145.875,20.8906 145.25,20.8906 Q144.4844,20.8906 143.8516,21.2188 Q143.2188,21.5469 142.7266,22.2969 Q142.2344,23.0469 142.2344,24.0781 L142.2344,25.1719 Q142.2344,26.4063 143.125,27.2266 Q144.0156,28.0469 145.6094,28.0469 Q146.5469,28.0469 147.2031,27.7969 Q147.5938,27.6406 148.0156,27.2031 Q148.2813,26.9375 148.4297,26.8594 Q148.5781,26.7813 148.7813,26.7813 Q149.1094,26.7813 149.3672,27.0391 Q149.625,27.2969 149.625,27.6406 Q149.625,27.9844 149.2813,28.3906 Q148.7813,28.9688 147.9844,29.2969 Q146.9063,29.75 145.6094,29.75 Q144.0938,29.75 142.8906,29.125 Q141.9063,28.625 141.2188,27.5547 Q140.5313,26.4844 140.5313,25.2031 L140.5313,24.0469 Q140.5313,22.7188 141.1484,21.5703 Q141.7656,20.4219 142.8594,19.8047 Q143.9531,19.1875 145.1875,19.1875 Q145.9219,19.1875 146.5703,19.3516 Q147.2188,19.5156 147.7656,19.875 Z "/><text fill="#000000" font-family="sans-serif" font-size="12" lengthAdjust="spacingAndGlyphs" textLength="74" x="159" y="28.9102">AddCourierUI</text><line style="stroke: #A80036; stroke-width: 1.5;" x1="131" x2="235" y1="40" y2="40"/><line style="stroke: #A80036; stroke-width: 1.5;" x1="131" x2="235" y1="48" y2="48"/><!--class AddCourierController--><rect fill="#FEFECE" filter="url(#fzocywjed2tb)" height="103.3438" id="AddCourierController" style="stroke: #A80036; stroke-width: 1.5;" width="354" x="6" y="117"/><ellipse cx="120.75" cy="133" fill="#ADD1B2" rx="11" ry="11" style="stroke: #A80036; stroke-width: 1.0;"/><path d="M123.5156,128.875 Q123.6719,128.6563 123.8594,128.5469 Q124.0469,128.4375 124.2656,128.4375 Q124.6406,128.4375 124.875,128.6953 Q125.1094,128.9531 125.1094,129.5625 L125.1094,131.0156 Q125.1094,131.625 124.875,131.8906 Q124.6406,132.1563 124.2656,132.1563 Q123.9219,132.1563 123.7188,131.9531 Q123.5156,131.7656 123.4063,131.25 Q123.3594,130.8906 123.1719,130.7031 Q122.8438,130.3281 122.2344,130.1094 Q121.625,129.8906 121,129.8906 Q120.2344,129.8906 119.6016,130.2188 Q118.9688,130.5469 118.4766,131.2969 Q117.9844,132.0469 117.9844,133.0781 L117.9844,134.1719 Q117.9844,135.4063 118.875,136.2266 Q119.7656,137.0469 121.3594,137.0469 Q122.2969,137.0469 122.9531,136.7969 Q123.3438,136.6406 123.7656,136.2031 Q124.0313,135.9375 124.1797,135.8594 Q124.3281,135.7813 124.5313,135.7813 Q124.8594,135.7813 125.1172,136.0391 Q125.375,136.2969 125.375,136.6406 Q125.375,136.9844 125.0313,137.3906 Q124.5313,137.9688 123.7344,138.2969 Q122.6563,138.75 121.3594,138.75 Q119.8438,138.75 118.6406,138.125 Q117.6563,137.625 116.9688,136.5547 Q116.2813,135.4844 116.2813,134.2031 L116.2813,133.0469 Q116.2813,131.7188 116.8984,130.5703 Q117.5156,129.4219 118.6094,128.8047 Q119.7031,128.1875 120.9375,128.1875 Q121.6719,128.1875 122.3203,128.3516 Q122.9688,128.5156 123.5156,128.875 Z "/><text fill="#000000" font-family="sans-serif" font-size="12" lengthAdjust="spacingAndGlyphs" textLength="116" x="141.25" y="137.9102">AddCourierController</text><line style="stroke: #A80036; stroke-width: 1.5;" x1="7" x2="359" y1="149" y2="149"/><line style="stroke: #A80036; stroke-width: 1.5;" x1="7" x2="359" y1="157" y2="157"/><text fill="#000000" font-family="sans-serif" font-size="11" lengthAdjust="spacingAndGlyphs" textLength="102" x="12" y="172.4189">+getPharmaciesList()</text><text fill="#000000" font-family="sans-serif" font-size="11" lengthAdjust="spacingAndGlyphs" textLength="186" x="12" y="186.2549">+getPharmacyByEmail(PharmacyEmail)</text><text fill="#000000" font-family="sans-serif" font-size="11" lengthAdjust="spacingAndGlyphs" textLength="342" x="12" y="200.0908">+newCourier(nif,name,email,phoneNumber,socialSecurityNumber,pwd)</text><text fill="#000000" font-family="sans-serif" font-size="11" lengthAdjust="spacingAndGlyphs" textLength="67" x="12" y="213.9268">+addCourier()</text><!--class PharmacyDB--><rect fill="#FEFECE" filter="url(#fzocywjed2tb)" height="75.6719" id="PharmacyDB" style="stroke: #A80036; stroke-width: 1.5;" width="161" x="395.5" y="130.5"/><ellipse cx="436.15" cy="146.5" fill="#ADD1B2" rx="11" ry="11" style="stroke: #A80036; stroke-width: 1.0;"/><path d="M438.9156,142.375 Q439.0719,142.1563 439.2594,142.0469 Q439.4469,141.9375 439.6656,141.9375 Q440.0406,141.9375 440.275,142.1953 Q440.5094,142.4531 440.5094,143.0625 L440.5094,144.5156 Q440.5094,145.125 440.275,145.3906 Q440.0406,145.6563 439.6656,145.6563 Q439.3219,145.6563 439.1188,145.4531 Q438.9156,145.2656 438.8063,144.75 Q438.7594,144.3906 438.5719,144.2031 Q438.2438,143.8281 437.6344,143.6094 Q437.025,143.3906 436.4,143.3906 Q435.6344,143.3906 435.0016,143.7188 Q434.3688,144.0469 433.8766,144.7969 Q433.3844,145.5469 433.3844,146.5781 L433.3844,147.6719 Q433.3844,148.9063 434.275,149.7266 Q435.1656,150.5469 436.7594,150.5469 Q437.6969,150.5469 438.3531,150.2969 Q438.7438,150.1406 439.1656,149.7031 Q439.4313,149.4375 439.5797,149.3594 Q439.7281,149.2813 439.9313,149.2813 Q440.2594,149.2813 440.5172,149.5391 Q440.775,149.7969 440.775,150.1406 Q440.775,150.4844 440.4313,150.8906 Q439.9313,151.4688 439.1344,151.7969 Q438.0563,152.25 436.7594,152.25 Q435.2438,152.25 434.0406,151.625 Q433.0563,151.125 432.3688,150.0547 Q431.6813,148.9844 431.6813,147.7031 L431.6813,146.5469 Q431.6813,145.2188 432.2984,144.0703 Q432.9156,142.9219 434.0094,142.3047 Q435.1031,141.6875 436.3375,141.6875 Q437.0719,141.6875 437.7203,141.8516 Q438.3688,142.0156 438.9156,142.375 Z "/><text fill="#000000" font-family="sans-serif" font-size="12" lengthAdjust="spacingAndGlyphs" textLength="72" x="455.85" y="151.4102">PharmacyDB</text><line style="stroke: #A80036; stroke-width: 1.5;" x1="396.5" x2="555.5" y1="162.5" y2="162.5"/><line style="stroke: #A80036; stroke-width: 1.5;" x1="396.5" x2="555.5" y1="170.5" y2="170.5"/><text fill="#000000" font-family="sans-serif" font-size="11" lengthAdjust="spacingAndGlyphs" textLength="97" x="401.5" y="185.9189">+getAllPharmacies()</text><text fill="#000000" font-family="sans-serif" font-size="11" lengthAdjust="spacingAndGlyphs" textLength="149" x="401.5" y="199.7549">+getPharmacy(PharmacyEmail)</text><!--class Pharmacy--><rect fill="#FEFECE" filter="url(#fzocywjed2tb)" height="89.5078" id="Pharmacy" style="stroke: #A80036; stroke-width: 1.5;" width="102" x="417" y="298"/><ellipse cx="438.75" cy="314" fill="#ADD1B2" rx="11" ry="11" style="stroke: #A80036; stroke-width: 1.0;"/><path d="M441.5156,309.875 Q441.6719,309.6563 441.8594,309.5469 Q442.0469,309.4375 442.2656,309.4375 Q442.6406,309.4375 442.875,309.6953 Q443.1094,309.9531 443.1094,310.5625 L443.1094,312.0156 Q443.1094,312.625 442.875,312.8906 Q442.6406,313.1563 442.2656,313.1563 Q441.9219,313.1563 441.7188,312.9531 Q441.5156,312.7656 441.4063,312.25 Q441.3594,311.8906 441.1719,311.7031 Q440.8438,311.3281 440.2344,311.1094 Q439.625,310.8906 439,310.8906 Q438.2344,310.8906 437.6016,311.2188 Q436.9688,311.5469 436.4766,312.2969 Q435.9844,313.0469 435.9844,314.0781 L435.9844,315.1719 Q435.9844,316.4063 436.875,317.2266 Q437.7656,318.0469 439.3594,318.0469 Q440.2969,318.0469 440.9531,317.7969 Q441.3438,317.6406 441.7656,317.2031 Q442.0313,316.9375 442.1797,316.8594 Q442.3281,316.7813 442.5313,316.7813 Q442.8594,316.7813 443.1172,317.0391 Q443.375,317.2969 443.375,317.6406 Q443.375,317.9844 443.0313,318.3906 Q442.5313,318.9688 441.7344,319.2969 Q440.6563,319.75 439.3594,319.75 Q437.8438,319.75 436.6406,319.125 Q435.6563,318.625 434.9688,317.5547 Q434.2813,316.4844 434.2813,315.2031 L434.2813,314.0469 Q434.2813,312.7188 434.8984,311.5703 Q435.5156,310.4219 436.6094,309.8047 Q437.7031,309.1875 438.9375,309.1875 Q439.6719,309.1875 440.3203,309.3516 Q440.9688,309.5156 441.5156,309.875 Z "/><text fill="#000000" font-family="sans-serif" font-size="12" lengthAdjust="spacingAndGlyphs" textLength="55" x="454.25" y="318.9102">Pharmacy</text><line style="stroke: #A80036; stroke-width: 1.5;" x1="418" x2="518" y1="330" y2="330"/><text fill="#000000" font-family="sans-serif" font-size="11" lengthAdjust="spacingAndGlyphs" textLength="90" x="423" y="345.4189">-String designation</text><text fill="#000000" font-family="sans-serif" font-size="11" lengthAdjust="spacingAndGlyphs" textLength="59" x="423" y="359.2549">-String email</text><line style="stroke: #A80036; stroke-width: 1.5;" x1="418" x2="518" y1="365.6719" y2="365.6719"/><text fill="#000000" font-family="sans-serif" font-size="11" lengthAdjust="spacingAndGlyphs" textLength="53" x="423" y="381.0908">+getEmail()</text><!--class Courier--><rect fill="#FEFECE" filter="url(#fzocywjed2tb)" height="117.1797" id="Courier" style="stroke: #A80036; stroke-width: 1.5;" width="157" x="389.5" y="466"/><ellipse cx="443.25" cy="482" fill="#ADD1B2" rx="11" ry="11" style="stroke: #A80036; stroke-width: 1.0;"/><path d="M446.0156,477.875 Q446.1719,477.6563 446.3594,477.5469 Q446.5469,477.4375 446.7656,477.4375 Q447.1406,477.4375 447.375,477.6953 Q447.6094,477.9531 447.6094,478.5625 L447.6094,480.0156 Q447.6094,480.625 447.375,480.8906 Q447.1406,481.1563 446.7656,481.1563 Q446.4219,481.1563 446.2188,480.9531 Q446.0156,480.7656 445.9063,480.25 Q445.8594,479.8906 445.6719,479.7031 Q445.3438,479.3281 444.7344,479.1094 Q444.125,478.8906 443.5,478.8906 Q442.7344,478.8906 442.1016,479.2188 Q441.4688,479.5469 440.9766,480.2969 Q440.4844,481.0469 440.4844,482.0781 L440.4844,483.1719 Q440.4844,484.4063 441.375,485.2266 Q442.2656,486.0469 443.8594,486.0469 Q444.7969,486.0469 445.4531,485.7969 Q445.8438,485.6406 446.2656,485.2031 Q446.5313,484.9375 446.6797,484.8594 Q446.8281,484.7813 447.0313,484.7813 Q447.3594,484.7813 447.6172,485.0391 Q447.875,485.2969 447.875,485.6406 Q447.875,485.9844 447.5313,486.3906 Q447.0313,486.9688 446.2344,487.2969 Q445.1563,487.75 443.8594,487.75 Q442.3438,487.75 441.1406,487.125 Q440.1563,486.625 439.4688,485.5547 Q438.7813,484.4844 438.7813,483.2031 L438.7813,482.0469 Q438.7813,480.7188 439.3984,479.5703 Q440.0156,478.4219 441.1094,477.8047 Q442.2031,477.1875 443.4375,477.1875 Q444.1719,477.1875 444.8203,477.3516 Q445.4688,477.5156 446.0156,477.875 Z "/><text fill="#000000" font-family="sans-serif" font-size="12" lengthAdjust="spacingAndGlyphs" textLength="41" x="463.75" y="486.9102">Courier</text><line style="stroke: #A80036; stroke-width: 1.5;" x1="390.5" x2="545.5" y1="498" y2="498"/><text fill="#000000" font-family="sans-serif" font-size="11" lengthAdjust="spacingAndGlyphs" textLength="52" x="395.5" y="513.4189">-Integer nif</text><text fill="#000000" font-family="sans-serif" font-size="11" lengthAdjust="spacingAndGlyphs" textLength="107" x="395.5" y="527.2549">-Integer phoneNumber</text><text fill="#000000" font-family="sans-serif" font-size="11" lengthAdjust="spacingAndGlyphs" textLength="145" x="395.5" y="541.0908">-Double socialSecurityNumber</text><text fill="#000000" font-family="sans-serif" font-size="11" lengthAdjust="spacingAndGlyphs" textLength="65" x="395.5" y="554.9268">-String status</text><line style="stroke: #A80036; stroke-width: 1.5;" x1="390.5" x2="545.5" y1="561.3438" y2="561.3438"/><text fill="#000000" font-family="sans-serif" font-size="11" lengthAdjust="spacingAndGlyphs" textLength="84" x="395.5" y="576.7627">+save(pharEmail)</text><!--class CourierDB--><rect fill="#FEFECE" filter="url(#fzocywjed2tb)" height="61.8359" id="CourierDB" style="stroke: #A80036; stroke-width: 1.5;" width="162" x="191" y="312"/><ellipse cx="238.75" cy="328" fill="#ADD1B2" rx="11" ry="11" style="stroke: #A80036; stroke-width: 1.0;"/><path d="M241.5156,323.875 Q241.6719,323.6563 241.8594,323.5469 Q242.0469,323.4375 242.2656,323.4375 Q242.6406,323.4375 242.875,323.6953 Q243.1094,323.9531 243.1094,324.5625 L243.1094,326.0156 Q243.1094,326.625 242.875,326.8906 Q242.6406,327.1563 242.2656,327.1563 Q241.9219,327.1563 241.7188,326.9531 Q241.5156,326.7656 241.4063,326.25 Q241.3594,325.8906 241.1719,325.7031 Q240.8438,325.3281 240.2344,325.1094 Q239.625,324.8906 239,324.8906 Q238.2344,324.8906 237.6016,325.2188 Q236.9688,325.5469 236.4766,326.2969 Q235.9844,327.0469 235.9844,328.0781 L235.9844,329.1719 Q235.9844,330.4063 236.875,331.2266 Q237.7656,332.0469 239.3594,332.0469 Q240.2969,332.0469 240.9531,331.7969 Q241.3438,331.6406 241.7656,331.2031 Q242.0313,330.9375 242.1797,330.8594 Q242.3281,330.7813 242.5313,330.7813 Q242.8594,330.7813 243.1172,331.0391 Q243.375,331.2969 243.375,331.6406 Q243.375,331.9844 243.0313,332.3906 Q242.5313,332.9688 241.7344,333.2969 Q240.6563,333.75 239.3594,333.75 Q237.8438,333.75 236.6406,333.125 Q235.6563,332.625 234.9688,331.5547 Q234.2813,330.4844 234.2813,329.2031 L234.2813,328.0469 Q234.2813,326.7188 234.8984,325.5703 Q235.5156,324.4219 236.6094,323.8047 Q237.7031,323.1875 238.9375,323.1875 Q239.6719,323.1875 240.3203,323.3516 Q240.9688,323.5156 241.5156,323.875 Z "/><text fill="#000000" font-family="sans-serif" font-size="12" lengthAdjust="spacingAndGlyphs" textLength="58" x="259.25" y="332.9102">CourierDB</text><line style="stroke: #A80036; stroke-width: 1.5;" x1="192" x2="352" y1="344" y2="344"/><line style="stroke: #A80036; stroke-width: 1.5;" x1="192" x2="352" y1="352" y2="352"/><text fill="#000000" font-family="sans-serif" font-size="11" lengthAdjust="spacingAndGlyphs" textLength="150" x="197" y="367.4189">+addCourier(courier,pharEmail)</text><!--class Administrator--><rect fill="#FEFECE" filter="url(#fzocywjed2tb)" height="61.8359" id="Administrator" style="stroke: #A80036; stroke-width: 1.5;" width="105" x="599.5" y="137.5"/><ellipse cx="614.5" cy="153.5" fill="#ADD1B2" rx="11" ry="11" style="stroke: #A80036; stroke-width: 1.0;"/><path d="M617.2656,149.375 Q617.4219,149.1563 617.6094,149.0469 Q617.7969,148.9375 618.0156,148.9375 Q618.3906,148.9375 618.625,149.1953 Q618.8594,149.4531 618.8594,150.0625 L618.8594,151.5156 Q618.8594,152.125 618.625,152.3906 Q618.3906,152.6563 618.0156,152.6563 Q617.6719,152.6563 617.4688,152.4531 Q617.2656,152.2656 617.1563,151.75 Q617.1094,151.3906 616.9219,151.2031 Q616.5938,150.8281 615.9844,150.6094 Q615.375,150.3906 614.75,150.3906 Q613.9844,150.3906 613.3516,150.7188 Q612.7188,151.0469 612.2266,151.7969 Q611.7344,152.5469 611.7344,153.5781 L611.7344,154.6719 Q611.7344,155.9063 612.625,156.7266 Q613.5156,157.5469 615.1094,157.5469 Q616.0469,157.5469 616.7031,157.2969 Q617.0938,157.1406 617.5156,156.7031 Q617.7813,156.4375 617.9297,156.3594 Q618.0781,156.2813 618.2813,156.2813 Q618.6094,156.2813 618.8672,156.5391 Q619.125,156.7969 619.125,157.1406 Q619.125,157.4844 618.7813,157.8906 Q618.2813,158.4688 617.4844,158.7969 Q616.4063,159.25 615.1094,159.25 Q613.5938,159.25 612.3906,158.625 Q611.4063,158.125 610.7188,157.0547 Q610.0313,155.9844 610.0313,154.7031 L610.0313,153.5469 Q610.0313,152.2188 610.6484,151.0703 Q611.2656,149.9219 612.3594,149.3047 Q613.4531,148.6875 614.6875,148.6875 Q615.4219,148.6875 616.0703,148.8516 Q616.7188,149.0156 617.2656,149.375 Z "/><text fill="#000000" font-family="sans-serif" font-size="12" lengthAdjust="spacingAndGlyphs" textLength="73" x="628.5" y="158.4102">Administrator</text><line style="stroke: #A80036; stroke-width: 1.5;" x1="600.5" x2="703.5" y1="169.5" y2="169.5"/><text fill="#000000" font-family="sans-serif" font-size="11" lengthAdjust="spacingAndGlyphs" textLength="59" x="605.5" y="184.9189">-String email</text><line style="stroke: #A80036; stroke-width: 1.5;" x1="600.5" x2="703.5" y1="191.3359" y2="191.3359"/><!--link AddCourierUI to AddCourierController--><path d="M183,56.121 C183,71.363 183,92.018 183,111.402 " fill="none" id="AddCourierUI-AddCourierController" style="stroke: #A80036; stroke-width: 1.0; stroke-dasharray: 7.0,7.0;"/><polygon fill="#A80036" points="183,116.83,187,107.83,183,111.83,179,107.83,183,116.83" style="stroke: #A80036; stroke-width: 1.0;"/><!--link AddCourierController to Pharmacy--><path d="M266.584,220.09 C313.492,248.482 370.738,283.131 412.194,308.223 " fill="none" id="AddCourierController-Pharmacy" style="stroke: #A80036; stroke-width: 1.0; stroke-dasharray: 7.0,7.0;"/><polygon fill="#A80036" points="416.662,310.927,411.0354,302.8436,412.385,308.3371,406.8915,309.6868,416.662,310.927" style="stroke: #A80036; stroke-width: 1.0;"/><!--link AddCourierController to CourierDB--><path d="M209.222,220.323 C223.654,248.297 241.192,282.288 254.059,307.226 " fill="none" id="AddCourierController-CourierDB" style="stroke: #A80036; stroke-width: 1.0; stroke-dasharray: 7.0,7.0;"/><polygon fill="#A80036" points="256.405,311.774,255.8334,301.9417,254.1125,307.3305,248.7238,305.6097,256.405,311.774" style="stroke: #A80036; stroke-width: 1.0;"/><!--link Administrator to Pharmacy--><path d="M603.92,199.628 C583.203,213.697 559.348,231.427 540,250 C526.358,263.095 513.103,278.855 501.762,293.601 " fill="none" id="Administrator-Pharmacy" style="stroke: #A80036; stroke-width: 1.0;"/><polygon fill="#A80036" points="498.616,297.731,507.252,292.996,501.6461,293.7537,500.8884,288.1479,498.616,297.731" style="stroke: #A80036; stroke-width: 1.0;"/><text fill="#000000" font-family="sans-serif" font-size="13" lengthAdjust="spacingAndGlyphs" textLength="100" x="541" y="264.4951">creates/manages</text><text fill="#000000" font-family="sans-serif" font-size="13" lengthAdjust="spacingAndGlyphs" textLength="7" x="586.7652" y="220.8772">1</text><text fill="#000000" font-family="sans-serif" font-size="13" lengthAdjust="spacingAndGlyphs" textLength="5" x="497.9213" y="287.1339">*</text><!--link Administrator to Courier--><path d="M654.326,199.632 C654.868,219.569 653.653,245.993 646,268 C620.439,341.505 567.341,413.133 525.758,461.752 " fill="none" id="Administrator-Courier" style="stroke: #A80036; stroke-width: 1.0;"/><polygon fill="#A80036" points="522.279,465.798,531.1797,461.5816,525.5388,462.0068,525.1137,456.3659,522.279,465.798" style="stroke: #A80036; stroke-width: 1.0;"/><text fill="#000000" font-family="sans-serif" font-size="13" lengthAdjust="spacingAndGlyphs" textLength="53" x="635" y="348.4951">manages</text><text fill="#000000" font-family="sans-serif" font-size="13" lengthAdjust="spacingAndGlyphs" textLength="7" x="647.0949" y="220.882">1</text><text fill="#000000" font-family="sans-serif" font-size="13" lengthAdjust="spacingAndGlyphs" textLength="5" x="523.5896" y="455.1743">*</text><!--link Pharmacy to Courier--><path d="M468,388.371 C468,410.179 468,436.838 468,460.696 " fill="none" id="Pharmacy-Courier" style="stroke: #A80036; stroke-width: 1.0;"/><polygon fill="#A80036" points="468,465.742,472,456.742,468,460.742,464,456.742,468,465.742" style="stroke: #A80036; stroke-width: 1.0;"/><text fill="#000000" font-family="sans-serif" font-size="13" lengthAdjust="spacingAndGlyphs" textLength="21" x="469" y="432.4951">has</text><text fill="#000000" font-family="sans-serif" font-size="13" lengthAdjust="spacingAndGlyphs" textLength="7" x="460.5297" y="409.0945">1</text><text fill="#000000" font-family="sans-serif" font-size="13" lengthAdjust="spacingAndGlyphs" textLength="5" x="462.6953" y="455.1115">*</text><!--link CourierDB to Courier--><path d="M304.806,374.044 C330.986,398.02 368.527,432.401 401.003,462.143 " fill="none" id="CourierDB-Courier" style="stroke: #A80036; stroke-width: 1.0;"/><polygon fill="#A80036" points="404.937,465.746,401.0019,456.7174,401.2499,462.3689,395.5985,462.6169,404.937,465.746" style="stroke: #A80036; stroke-width: 1.0;"/><text fill="#000000" font-family="sans-serif" font-size="13" lengthAdjust="spacingAndGlyphs" textLength="21" x="371" y="432.4951">has</text><text fill="#000000" font-family="sans-serif" font-size="13" lengthAdjust="spacingAndGlyphs" textLength="7" x="303.5756" y="395.2767">1</text><text fill="#000000" font-family="sans-serif" font-size="13" lengthAdjust="spacingAndGlyphs" textLength="5" x="391.9465" y="455.1159">*</text><!--link PharmacyDB to Pharmacy--><path d="M469.849,206.664 C467.883,220.258 465.967,235.786 465,250 C464.457,257.982 464.838,260.002 465,268 C465.162,275.984 465.422,284.45 465.722,292.694 " fill="none" id="PharmacyDB-Pharmacy" style="stroke: #A80036; stroke-width: 1.0;"/><polygon fill="#A80036" points="465.915,297.792,469.5728,288.6476,465.7265,292.7956,461.5785,288.9492,465.915,297.792" style="stroke: #A80036; stroke-width: 1.0;"/><text fill="#000000" font-family="sans-serif" font-size="13" lengthAdjust="spacingAndGlyphs" textLength="33" x="466" y="264.4951">saves</text><text fill="#000000" font-family="sans-serif" font-size="13" lengthAdjust="spacingAndGlyphs" textLength="7" x="461.3109" y="227.5707">1</text><text fill="#000000" font-family="sans-serif" font-size="13" lengthAdjust="spacingAndGlyphs" textLength="5" x="460.2129" y="287.2042">*</text><!--
@startuml
skinparam classAttributeIconSize 0

class AddCourierUI {

}

class AddCourierController {
  +getPharmaciesList()
  +getPharmacyByEmail(PharmacyEmail)
  +newCourier(nif,name,email,phoneNumber,socialSecurityNumber,pwd)
  +addCourier()
}

class PharmacyDB {
  +getAllPharmacies()
  +getPharmacy(PharmacyEmail)
}

class Pharmacy {

  -String designation
  -String email

  +getEmail()
}

class Courier {
  -Integer nif
  -Integer phoneNumber
  -Double socialSecurityNumber
  -String status

  +save(pharEmail)
}

class CourierDB {
  +addCourier(courier,pharEmail)
}

class Administrator {

  -String email
}

AddCourierUI ..> AddCourierController
AddCourierController ..> Pharmacy
AddCourierController ..> CourierDB

Administrator "1" - -> "*" Pharmacy : creates/manages
Administrator "1" - -> "*" Courier : manages

Pharmacy "1" - -> "*" Courier : has

CourierDB "1" - -> "*" Courier : has

PharmacyDB "1" - -> "*" Pharmacy : saves



@enduml

PlantUML version 1.2018.14(Fri Dec 21 16:33:16 GMT 2018)
(GPL source distribution)
Java Runtime: Java(TM) SE Runtime Environment
JVM: Java HotSpot(TM) 64-Bit Server VM
Java Version: 1.8.0_221-b11
Operating System: Windows 10
OS Version: 10.0
Default Encoding: Cp1252
Language: pt
Country: PT
--></g></svg>