<?xml version="1.0" encoding="UTF-8" standalone="no"?><svg xmlns="http://www.w3.org/2000/svg" xmlns:xlink="http://www.w3.org/1999/xlink" contentScriptType="application/ecmascript" contentStyleType="text/css" height="1098px" preserveAspectRatio="none" style="width:590px;height:1098px;" version="1.1" viewBox="0 0 590 1098" width="590px" zoomAndPan="magnify"><defs><filter height="300%" id="f1jgi23uq0t8mx" width="300%" x="-1" y="-1"><feGaussianBlur result="blurOut" stdDeviation="2.0"/><feColorMatrix in="blurOut" result="blurOut2" type="matrix" values="0 0 0 0 0 0 0 0 0 0 0 0 0 0 0 0 0 0 .4 0"/><feOffset dx="4.0" dy="4.0" in="blurOut2" result="blurOut3"/><feBlend in="SourceGraphic" in2="blurOut3" mode="normal"/></filter></defs><g><!--class EmailHandler--><rect fill="#FEFECE" filter="url(#f1jgi23uq0t8mx)" height="48" id="EmailHandler" style="stroke: #A80036; stroke-width: 1.5;" width="108" x="6" y="226"/><ellipse cx="21" cy="242" fill="#ADD1B2" rx="11" ry="11" style="stroke: #A80036; stroke-width: 1.0;"/><path d="M23.7656,237.875 Q23.9219,237.6563 24.1094,237.5469 Q24.2969,237.4375 24.5156,237.4375 Q24.8906,237.4375 25.125,237.6953 Q25.3594,237.9531 25.3594,238.5625 L25.3594,240.0156 Q25.3594,240.625 25.125,240.8906 Q24.8906,241.1563 24.5156,241.1563 Q24.1719,241.1563 23.9688,240.9531 Q23.7656,240.7656 23.6563,240.25 Q23.6094,239.8906 23.4219,239.7031 Q23.0938,239.3281 22.4844,239.1094 Q21.875,238.8906 21.25,238.8906 Q20.4844,238.8906 19.8516,239.2188 Q19.2188,239.5469 18.7266,240.2969 Q18.2344,241.0469 18.2344,242.0781 L18.2344,243.1719 Q18.2344,244.4063 19.125,245.2266 Q20.0156,246.0469 21.6094,246.0469 Q22.5469,246.0469 23.2031,245.7969 Q23.5938,245.6406 24.0156,245.2031 Q24.2813,244.9375 24.4297,244.8594 Q24.5781,244.7813 24.7813,244.7813 Q25.1094,244.7813 25.3672,245.0391 Q25.625,245.2969 25.625,245.6406 Q25.625,245.9844 25.2813,246.3906 Q24.7813,246.9688 23.9844,247.2969 Q22.9063,247.75 21.6094,247.75 Q20.0938,247.75 18.8906,247.125 Q17.9063,246.625 17.2188,245.5547 Q16.5313,244.4844 16.5313,243.2031 L16.5313,242.0469 Q16.5313,240.7188 17.1484,239.5703 Q17.7656,238.4219 18.8594,237.8047 Q19.9531,237.1875 21.1875,237.1875 Q21.9219,237.1875 22.5703,237.3516 Q23.2188,237.5156 23.7656,237.875 Z "/><text fill="#000000" font-family="sans-serif" font-size="12" lengthAdjust="spacingAndGlyphs" textLength="76" x="35" y="246.9102">EmailHandler</text><line style="stroke: #A80036; stroke-width: 1.5;" x1="7" x2="113" y1="258" y2="258"/><line style="stroke: #A80036; stroke-width: 1.5;" x1="7" x2="113" y1="266" y2="266"/><!--class PerformOrderUI--><rect fill="#FEFECE" filter="url(#f1jgi23uq0t8mx)" height="48" id="PerformOrderUI" style="stroke: #A80036; stroke-width: 1.5;" width="119" x="142.5" y="8"/><ellipse cx="157.5" cy="24" fill="#ADD1B2" rx="11" ry="11" style="stroke: #A80036; stroke-width: 1.0;"/><path d="M160.2656,19.875 Q160.4219,19.6563 160.6094,19.5469 Q160.7969,19.4375 161.0156,19.4375 Q161.3906,19.4375 161.625,19.6953 Q161.8594,19.9531 161.8594,20.5625 L161.8594,22.0156 Q161.8594,22.625 161.625,22.8906 Q161.3906,23.1563 161.0156,23.1563 Q160.6719,23.1563 160.4688,22.9531 Q160.2656,22.7656 160.1563,22.25 Q160.1094,21.8906 159.9219,21.7031 Q159.5938,21.3281 158.9844,21.1094 Q158.375,20.8906 157.75,20.8906 Q156.9844,20.8906 156.3516,21.2188 Q155.7188,21.5469 155.2266,22.2969 Q154.7344,23.0469 154.7344,24.0781 L154.7344,25.1719 Q154.7344,26.4063 155.625,27.2266 Q156.5156,28.0469 158.1094,28.0469 Q159.0469,28.0469 159.7031,27.7969 Q160.0938,27.6406 160.5156,27.2031 Q160.7813,26.9375 160.9297,26.8594 Q161.0781,26.7813 161.2813,26.7813 Q161.6094,26.7813 161.8672,27.0391 Q162.125,27.2969 162.125,27.6406 Q162.125,27.9844 161.7813,28.3906 Q161.2813,28.9688 160.4844,29.2969 Q159.4063,29.75 158.1094,29.75 Q156.5938,29.75 155.3906,29.125 Q154.4063,28.625 153.7188,27.5547 Q153.0313,26.4844 153.0313,25.2031 L153.0313,24.0469 Q153.0313,22.7188 153.6484,21.5703 Q154.2656,20.4219 155.3594,19.8047 Q156.4531,19.1875 157.6875,19.1875 Q158.4219,19.1875 159.0703,19.3516 Q159.7188,19.5156 160.2656,19.875 Z "/><text fill="#000000" font-family="sans-serif" font-size="12" lengthAdjust="spacingAndGlyphs" textLength="87" x="171.5" y="28.9102">PerformOrderUI</text><line style="stroke: #A80036; stroke-width: 1.5;" x1="143.5" x2="260.5" y1="40" y2="40"/><line style="stroke: #A80036; stroke-width: 1.5;" x1="143.5" x2="260.5" y1="48" y2="48"/><!--class PerformOrderController--><rect fill="#FEFECE" filter="url(#f1jgi23uq0t8mx)" height="48" id="PerformOrderController" style="stroke: #A80036; stroke-width: 1.5;" width="161" x="121.5" y="117"/><ellipse cx="136.5" cy="133" fill="#ADD1B2" rx="11" ry="11" style="stroke: #A80036; stroke-width: 1.0;"/><path d="M139.2656,128.875 Q139.4219,128.6563 139.6094,128.5469 Q139.7969,128.4375 140.0156,128.4375 Q140.3906,128.4375 140.625,128.6953 Q140.8594,128.9531 140.8594,129.5625 L140.8594,131.0156 Q140.8594,131.625 140.625,131.8906 Q140.3906,132.1563 140.0156,132.1563 Q139.6719,132.1563 139.4688,131.9531 Q139.2656,131.7656 139.1563,131.25 Q139.1094,130.8906 138.9219,130.7031 Q138.5938,130.3281 137.9844,130.1094 Q137.375,129.8906 136.75,129.8906 Q135.9844,129.8906 135.3516,130.2188 Q134.7188,130.5469 134.2266,131.2969 Q133.7344,132.0469 133.7344,133.0781 L133.7344,134.1719 Q133.7344,135.4063 134.625,136.2266 Q135.5156,137.0469 137.1094,137.0469 Q138.0469,137.0469 138.7031,136.7969 Q139.0938,136.6406 139.5156,136.2031 Q139.7813,135.9375 139.9297,135.8594 Q140.0781,135.7813 140.2813,135.7813 Q140.6094,135.7813 140.8672,136.0391 Q141.125,136.2969 141.125,136.6406 Q141.125,136.9844 140.7813,137.3906 Q140.2813,137.9688 139.4844,138.2969 Q138.4063,138.75 137.1094,138.75 Q135.5938,138.75 134.3906,138.125 Q133.4063,137.625 132.7188,136.5547 Q132.0313,135.4844 132.0313,134.2031 L132.0313,133.0469 Q132.0313,131.7188 132.6484,130.5703 Q133.2656,129.4219 134.3594,128.8047 Q135.4531,128.1875 136.6875,128.1875 Q137.4219,128.1875 138.0703,128.3516 Q138.7188,128.5156 139.2656,128.875 Z "/><text fill="#000000" font-family="sans-serif" font-size="12" lengthAdjust="spacingAndGlyphs" textLength="129" x="150.5" y="137.9102">PerformOrderController</text><line style="stroke: #A80036; stroke-width: 1.5;" x1="122.5" x2="281.5" y1="149" y2="149"/><line style="stroke: #A80036; stroke-width: 1.5;" x1="122.5" x2="281.5" y1="157" y2="157"/><!--class OrderDB--><rect fill="#FEFECE" filter="url(#f1jgi23uq0t8mx)" height="48" id="OrderDB" style="stroke: #A80036; stroke-width: 1.5;" width="80" x="198" y="304"/><ellipse cx="213" cy="320" fill="#ADD1B2" rx="11" ry="11" style="stroke: #A80036; stroke-width: 1.0;"/><path d="M215.7656,315.875 Q215.9219,315.6563 216.1094,315.5469 Q216.2969,315.4375 216.5156,315.4375 Q216.8906,315.4375 217.125,315.6953 Q217.3594,315.9531 217.3594,316.5625 L217.3594,318.0156 Q217.3594,318.625 217.125,318.8906 Q216.8906,319.1563 216.5156,319.1563 Q216.1719,319.1563 215.9688,318.9531 Q215.7656,318.7656 215.6563,318.25 Q215.6094,317.8906 215.4219,317.7031 Q215.0938,317.3281 214.4844,317.1094 Q213.875,316.8906 213.25,316.8906 Q212.4844,316.8906 211.8516,317.2188 Q211.2188,317.5469 210.7266,318.2969 Q210.2344,319.0469 210.2344,320.0781 L210.2344,321.1719 Q210.2344,322.4063 211.125,323.2266 Q212.0156,324.0469 213.6094,324.0469 Q214.5469,324.0469 215.2031,323.7969 Q215.5938,323.6406 216.0156,323.2031 Q216.2813,322.9375 216.4297,322.8594 Q216.5781,322.7813 216.7813,322.7813 Q217.1094,322.7813 217.3672,323.0391 Q217.625,323.2969 217.625,323.6406 Q217.625,323.9844 217.2813,324.3906 Q216.7813,324.9688 215.9844,325.2969 Q214.9063,325.75 213.6094,325.75 Q212.0938,325.75 210.8906,325.125 Q209.9063,324.625 209.2188,323.5547 Q208.5313,322.4844 208.5313,321.2031 L208.5313,320.0469 Q208.5313,318.7188 209.1484,317.5703 Q209.7656,316.4219 210.8594,315.8047 Q211.9531,315.1875 213.1875,315.1875 Q213.9219,315.1875 214.5703,315.3516 Q215.2188,315.5156 215.7656,315.875 Z "/><text fill="#000000" font-family="sans-serif" font-size="12" lengthAdjust="spacingAndGlyphs" textLength="48" x="227" y="324.9102">OrderDB</text><line style="stroke: #A80036; stroke-width: 1.5;" x1="199" x2="277" y1="336" y2="336"/><line style="stroke: #A80036; stroke-width: 1.5;" x1="199" x2="277" y1="344" y2="344"/><!--class ProductOrderDB--><rect fill="#FEFECE" filter="url(#f1jgi23uq0t8mx)" height="48" id="ProductOrderDB" style="stroke: #A80036; stroke-width: 1.5;" width="122" x="85" y="529"/><ellipse cx="100" cy="545" fill="#ADD1B2" rx="11" ry="11" style="stroke: #A80036; stroke-width: 1.0;"/><path d="M102.7656,540.875 Q102.9219,540.6563 103.1094,540.5469 Q103.2969,540.4375 103.5156,540.4375 Q103.8906,540.4375 104.125,540.6953 Q104.3594,540.9531 104.3594,541.5625 L104.3594,543.0156 Q104.3594,543.625 104.125,543.8906 Q103.8906,544.1563 103.5156,544.1563 Q103.1719,544.1563 102.9688,543.9531 Q102.7656,543.7656 102.6563,543.25 Q102.6094,542.8906 102.4219,542.7031 Q102.0938,542.3281 101.4844,542.1094 Q100.875,541.8906 100.25,541.8906 Q99.4844,541.8906 98.8516,542.2188 Q98.2188,542.5469 97.7266,543.2969 Q97.2344,544.0469 97.2344,545.0781 L97.2344,546.1719 Q97.2344,547.4063 98.125,548.2266 Q99.0156,549.0469 100.6094,549.0469 Q101.5469,549.0469 102.2031,548.7969 Q102.5938,548.6406 103.0156,548.2031 Q103.2813,547.9375 103.4297,547.8594 Q103.5781,547.7813 103.7813,547.7813 Q104.1094,547.7813 104.3672,548.0391 Q104.625,548.2969 104.625,548.6406 Q104.625,548.9844 104.2813,549.3906 Q103.7813,549.9688 102.9844,550.2969 Q101.9063,550.75 100.6094,550.75 Q99.0938,550.75 97.8906,550.125 Q96.9063,549.625 96.2188,548.5547 Q95.5313,547.4844 95.5313,546.2031 L95.5313,545.0469 Q95.5313,543.7188 96.1484,542.5703 Q96.7656,541.4219 97.8594,540.8047 Q98.9531,540.1875 100.1875,540.1875 Q100.9219,540.1875 101.5703,540.3516 Q102.2188,540.5156 102.7656,540.875 Z "/><text fill="#000000" font-family="sans-serif" font-size="12" lengthAdjust="spacingAndGlyphs" textLength="90" x="114" y="549.9102">ProductOrderDB</text><line style="stroke: #A80036; stroke-width: 1.5;" x1="86" x2="206" y1="561" y2="561"/><line style="stroke: #A80036; stroke-width: 1.5;" x1="86" x2="206" y1="569" y2="569"/><!--class Product--><rect fill="#FEFECE" filter="url(#f1jgi23uq0t8mx)" height="117.1797" id="Product" style="stroke: #A80036; stroke-width: 1.5;" width="100" x="116" y="970"/><ellipse cx="142.7" cy="986" fill="#ADD1B2" rx="11" ry="11" style="stroke: #A80036; stroke-width: 1.0;"/><path d="M145.4656,981.875 Q145.6219,981.6563 145.8094,981.5469 Q145.9969,981.4375 146.2156,981.4375 Q146.5906,981.4375 146.825,981.6953 Q147.0594,981.9531 147.0594,982.5625 L147.0594,984.0156 Q147.0594,984.625 146.825,984.8906 Q146.5906,985.1563 146.2156,985.1563 Q145.8719,985.1563 145.6688,984.9531 Q145.4656,984.7656 145.3563,984.25 Q145.3094,983.8906 145.1219,983.7031 Q144.7938,983.3281 144.1844,983.1094 Q143.575,982.8906 142.95,982.8906 Q142.1844,982.8906 141.5516,983.2188 Q140.9188,983.5469 140.4266,984.2969 Q139.9344,985.0469 139.9344,986.0781 L139.9344,987.1719 Q139.9344,988.4063 140.825,989.2266 Q141.7156,990.0469 143.3094,990.0469 Q144.2469,990.0469 144.9031,989.7969 Q145.2938,989.6406 145.7156,989.2031 Q145.9813,988.9375 146.1297,988.8594 Q146.2781,988.7813 146.4813,988.7813 Q146.8094,988.7813 147.0672,989.0391 Q147.325,989.2969 147.325,989.6406 Q147.325,989.9844 146.9813,990.3906 Q146.4813,990.9688 145.6844,991.2969 Q144.6063,991.75 143.3094,991.75 Q141.7938,991.75 140.5906,991.125 Q139.6063,990.625 138.9188,989.5547 Q138.2313,988.4844 138.2313,987.2031 L138.2313,986.0469 Q138.2313,984.7188 138.8484,983.5703 Q139.4656,982.4219 140.5594,981.8047 Q141.6531,981.1875 142.8875,981.1875 Q143.6219,981.1875 144.2703,981.3516 Q144.9188,981.5156 145.4656,981.875 Z "/><text fill="#000000" font-family="sans-serif" font-size="12" lengthAdjust="spacingAndGlyphs" textLength="42" x="159.3" y="990.9102">Product</text><line style="stroke: #A80036; stroke-width: 1.5;" x1="117" x2="215" y1="1002" y2="1002"/><text fill="#000000" font-family="sans-serif" font-size="11" lengthAdjust="spacingAndGlyphs" textLength="61" x="122" y="1017.4189">-String name</text><text fill="#000000" font-family="sans-serif" font-size="11" lengthAdjust="spacingAndGlyphs" textLength="83" x="122" y="1031.2549">-String reference</text><text fill="#000000" font-family="sans-serif" font-size="11" lengthAdjust="spacingAndGlyphs" textLength="88" x="122" y="1045.0908">-String description</text><text fill="#000000" font-family="sans-serif" font-size="11" lengthAdjust="spacingAndGlyphs" textLength="64" x="122" y="1058.9268">-Double price</text><text fill="#000000" font-family="sans-serif" font-size="11" lengthAdjust="spacingAndGlyphs" textLength="75" x="122" y="1072.7627">-Integer amount</text><line style="stroke: #A80036; stroke-width: 1.5;" x1="117" x2="215" y1="1079.1797" y2="1079.1797"/><!--class Order--><rect fill="#FEFECE" filter="url(#f1jgi23uq0t8mx)" height="75.6719" id="Order" style="stroke: #A80036; stroke-width: 1.5;" width="95" x="190.5" y="627.5"/><ellipse cx="219.9" cy="643.5" fill="#ADD1B2" rx="11" ry="11" style="stroke: #A80036; stroke-width: 1.0;"/><path d="M222.6656,639.375 Q222.8219,639.1563 223.0094,639.0469 Q223.1969,638.9375 223.4156,638.9375 Q223.7906,638.9375 224.025,639.1953 Q224.2594,639.4531 224.2594,640.0625 L224.2594,641.5156 Q224.2594,642.125 224.025,642.3906 Q223.7906,642.6563 223.4156,642.6563 Q223.0719,642.6563 222.8688,642.4531 Q222.6656,642.2656 222.5563,641.75 Q222.5094,641.3906 222.3219,641.2031 Q221.9938,640.8281 221.3844,640.6094 Q220.775,640.3906 220.15,640.3906 Q219.3844,640.3906 218.7516,640.7188 Q218.1188,641.0469 217.6266,641.7969 Q217.1344,642.5469 217.1344,643.5781 L217.1344,644.6719 Q217.1344,645.9063 218.025,646.7266 Q218.9156,647.5469 220.5094,647.5469 Q221.4469,647.5469 222.1031,647.2969 Q222.4938,647.1406 222.9156,646.7031 Q223.1813,646.4375 223.3297,646.3594 Q223.4781,646.2813 223.6813,646.2813 Q224.0094,646.2813 224.2672,646.5391 Q224.525,646.7969 224.525,647.1406 Q224.525,647.4844 224.1813,647.8906 Q223.6813,648.4688 222.8844,648.7969 Q221.8063,649.25 220.5094,649.25 Q218.9938,649.25 217.7906,648.625 Q216.8063,648.125 216.1188,647.0547 Q215.4313,645.9844 215.4313,644.7031 L215.4313,643.5469 Q215.4313,642.2188 216.0484,641.0703 Q216.6656,639.9219 217.7594,639.3047 Q218.8531,638.6875 220.0875,638.6875 Q220.8219,638.6875 221.4703,638.8516 Q222.1188,639.0156 222.6656,639.375 Z "/><text fill="#000000" font-family="sans-serif" font-size="12" lengthAdjust="spacingAndGlyphs" textLength="31" x="237.1" y="648.4102">Order</text><line style="stroke: #A80036; stroke-width: 1.5;" x1="191.5" x2="284.5" y1="659.5" y2="659.5"/><text fill="#000000" font-family="sans-serif" font-size="11" lengthAdjust="spacingAndGlyphs" textLength="54" x="196.5" y="674.9189">-int idOrder</text><text fill="#000000" font-family="sans-serif" font-size="11" lengthAdjust="spacingAndGlyphs" textLength="83" x="196.5" y="688.7549">-double finalPrice</text><line style="stroke: #A80036; stroke-width: 1.5;" x1="191.5" x2="284.5" y1="695.1719" y2="695.1719"/><!--class ProductOrder--><rect fill="#FEFECE" filter="url(#f1jgi23uq0t8mx)" height="89.5078" id="ProductOrder" style="stroke: #A80036; stroke-width: 1.5;" width="105" x="113.5" y="802"/><ellipse cx="128.5" cy="818" fill="#ADD1B2" rx="11" ry="11" style="stroke: #A80036; stroke-width: 1.0;"/><path d="M131.2656,813.875 Q131.4219,813.6563 131.6094,813.5469 Q131.7969,813.4375 132.0156,813.4375 Q132.3906,813.4375 132.625,813.6953 Q132.8594,813.9531 132.8594,814.5625 L132.8594,816.0156 Q132.8594,816.625 132.625,816.8906 Q132.3906,817.1563 132.0156,817.1563 Q131.6719,817.1563 131.4688,816.9531 Q131.2656,816.7656 131.1563,816.25 Q131.1094,815.8906 130.9219,815.7031 Q130.5938,815.3281 129.9844,815.1094 Q129.375,814.8906 128.75,814.8906 Q127.9844,814.8906 127.3516,815.2188 Q126.7188,815.5469 126.2266,816.2969 Q125.7344,817.0469 125.7344,818.0781 L125.7344,819.1719 Q125.7344,820.4063 126.625,821.2266 Q127.5156,822.0469 129.1094,822.0469 Q130.0469,822.0469 130.7031,821.7969 Q131.0938,821.6406 131.5156,821.2031 Q131.7813,820.9375 131.9297,820.8594 Q132.0781,820.7813 132.2813,820.7813 Q132.6094,820.7813 132.8672,821.0391 Q133.125,821.2969 133.125,821.6406 Q133.125,821.9844 132.7813,822.3906 Q132.2813,822.9688 131.4844,823.2969 Q130.4063,823.75 129.1094,823.75 Q127.5938,823.75 126.3906,823.125 Q125.4063,822.625 124.7188,821.5547 Q124.0313,820.4844 124.0313,819.2031 L124.0313,818.0469 Q124.0313,816.7188 124.6484,815.5703 Q125.2656,814.4219 126.3594,813.8047 Q127.4531,813.1875 128.6875,813.1875 Q129.4219,813.1875 130.0703,813.3516 Q130.7188,813.5156 131.2656,813.875 Z "/><text fill="#000000" font-family="sans-serif" font-size="12" lengthAdjust="spacingAndGlyphs" textLength="73" x="142.5" y="822.9102">ProductOrder</text><line style="stroke: #A80036; stroke-width: 1.5;" x1="114.5" x2="217.5" y1="834" y2="834"/><text fill="#000000" font-family="sans-serif" font-size="11" lengthAdjust="spacingAndGlyphs" textLength="66" x="119.5" y="849.4189">-int reference</text><text fill="#000000" font-family="sans-serif" font-size="11" lengthAdjust="spacingAndGlyphs" textLength="54" x="119.5" y="863.2549">-int idOrder</text><text fill="#000000" font-family="sans-serif" font-size="11" lengthAdjust="spacingAndGlyphs" textLength="53" x="119.5" y="877.0908">-int amount</text><line style="stroke: #A80036; stroke-width: 1.5;" x1="114.5" x2="217.5" y1="883.5078" y2="883.5078"/><!--class Client--><rect fill="#FEFECE" filter="url(#f1jgi23uq0t8mx)" height="117.1797" id="Client" style="stroke: #A80036; stroke-width: 1.5;" width="134" x="296" y="382"/><ellipse cx="342.75" cy="398" fill="#ADD1B2" rx="11" ry="11" style="stroke: #A80036; stroke-width: 1.0;"/><path d="M345.5156,393.875 Q345.6719,393.6563 345.8594,393.5469 Q346.0469,393.4375 346.2656,393.4375 Q346.6406,393.4375 346.875,393.6953 Q347.1094,393.9531 347.1094,394.5625 L347.1094,396.0156 Q347.1094,396.625 346.875,396.8906 Q346.6406,397.1563 346.2656,397.1563 Q345.9219,397.1563 345.7188,396.9531 Q345.5156,396.7656 345.4063,396.25 Q345.3594,395.8906 345.1719,395.7031 Q344.8438,395.3281 344.2344,395.1094 Q343.625,394.8906 343,394.8906 Q342.2344,394.8906 341.6016,395.2188 Q340.9688,395.5469 340.4766,396.2969 Q339.9844,397.0469 339.9844,398.0781 L339.9844,399.1719 Q339.9844,400.4063 340.875,401.2266 Q341.7656,402.0469 343.3594,402.0469 Q344.2969,402.0469 344.9531,401.7969 Q345.3438,401.6406 345.7656,401.2031 Q346.0313,400.9375 346.1797,400.8594 Q346.3281,400.7813 346.5313,400.7813 Q346.8594,400.7813 347.1172,401.0391 Q347.375,401.2969 347.375,401.6406 Q347.375,401.9844 347.0313,402.3906 Q346.5313,402.9688 345.7344,403.2969 Q344.6563,403.75 343.3594,403.75 Q341.8438,403.75 340.6406,403.125 Q339.6563,402.625 338.9688,401.5547 Q338.2813,400.4844 338.2813,399.2031 L338.2813,398.0469 Q338.2813,396.7188 338.8984,395.5703 Q339.5156,394.4219 340.6094,393.8047 Q341.7031,393.1875 342.9375,393.1875 Q343.6719,393.1875 344.3203,393.3516 Q344.9688,393.5156 345.5156,393.875 Z "/><text fill="#000000" font-family="sans-serif" font-size="12" lengthAdjust="spacingAndGlyphs" textLength="32" x="363.25" y="402.9102">Client</text><line style="stroke: #A80036; stroke-width: 1.5;" x1="297" x2="429" y1="414" y2="414"/><text fill="#000000" font-family="sans-serif" font-size="11" lengthAdjust="spacingAndGlyphs" textLength="61" x="302" y="429.4189">-String name</text><text fill="#000000" font-family="sans-serif" font-size="11" lengthAdjust="spacingAndGlyphs" textLength="59" x="302" y="443.2549">-String email</text><text fill="#000000" font-family="sans-serif" font-size="11" lengthAdjust="spacingAndGlyphs" textLength="122" x="302" y="457.0908">-String creditCardNumber</text><text fill="#000000" font-family="sans-serif" font-size="11" lengthAdjust="spacingAndGlyphs" textLength="84" x="302" y="470.9268">-Date validityDate</text><text fill="#000000" font-family="sans-serif" font-size="11" lengthAdjust="spacingAndGlyphs" textLength="58" x="302" y="484.7627">-Integer ccv</text><line style="stroke: #A80036; stroke-width: 1.5;" x1="297" x2="429" y1="491.1797" y2="491.1797"/><!--class Adress--><rect fill="#FEFECE" filter="url(#f1jgi23uq0t8mx)" height="117.1797" id="Adress" style="stroke: #A80036; stroke-width: 1.5;" width="126" x="453" y="607"/><ellipse cx="492.75" cy="623" fill="#ADD1B2" rx="11" ry="11" style="stroke: #A80036; stroke-width: 1.0;"/><path d="M495.5156,618.875 Q495.6719,618.6563 495.8594,618.5469 Q496.0469,618.4375 496.2656,618.4375 Q496.6406,618.4375 496.875,618.6953 Q497.1094,618.9531 497.1094,619.5625 L497.1094,621.0156 Q497.1094,621.625 496.875,621.8906 Q496.6406,622.1563 496.2656,622.1563 Q495.9219,622.1563 495.7188,621.9531 Q495.5156,621.7656 495.4063,621.25 Q495.3594,620.8906 495.1719,620.7031 Q494.8438,620.3281 494.2344,620.1094 Q493.625,619.8906 493,619.8906 Q492.2344,619.8906 491.6016,620.2188 Q490.9688,620.5469 490.4766,621.2969 Q489.9844,622.0469 489.9844,623.0781 L489.9844,624.1719 Q489.9844,625.4063 490.875,626.2266 Q491.7656,627.0469 493.3594,627.0469 Q494.2969,627.0469 494.9531,626.7969 Q495.3438,626.6406 495.7656,626.2031 Q496.0313,625.9375 496.1797,625.8594 Q496.3281,625.7813 496.5313,625.7813 Q496.8594,625.7813 497.1172,626.0391 Q497.375,626.2969 497.375,626.6406 Q497.375,626.9844 497.0313,627.3906 Q496.5313,627.9688 495.7344,628.2969 Q494.6563,628.75 493.3594,628.75 Q491.8438,628.75 490.6406,628.125 Q489.6563,627.625 488.9688,626.5547 Q488.2813,625.4844 488.2813,624.2031 L488.2813,623.0469 Q488.2813,621.7188 488.8984,620.5703 Q489.5156,619.4219 490.6094,618.8047 Q491.7031,618.1875 492.9375,618.1875 Q493.6719,618.1875 494.3203,618.3516 Q494.9688,618.5156 495.5156,618.875 Z "/><text fill="#000000" font-family="sans-serif" font-size="12" lengthAdjust="spacingAndGlyphs" textLength="39" x="512.25" y="627.9102">Adress</text><line style="stroke: #A80036; stroke-width: 1.5;" x1="454" x2="578" y1="639" y2="639"/><text fill="#000000" font-family="sans-serif" font-size="11" lengthAdjust="spacingAndGlyphs" textLength="63" x="459" y="654.4189">-String street</text><text fill="#000000" font-family="sans-serif" font-size="11" lengthAdjust="spacingAndGlyphs" textLength="89" x="459" y="668.2549">-String postalCode</text><text fill="#000000" font-family="sans-serif" font-size="11" lengthAdjust="spacingAndGlyphs" textLength="76" x="459" y="682.0908">-Integer number</text><text fill="#000000" font-family="sans-serif" font-size="11" lengthAdjust="spacingAndGlyphs" textLength="68" x="459" y="695.9268">-String locality</text><text fill="#000000" font-family="sans-serif" font-size="11" lengthAdjust="spacingAndGlyphs" textLength="114" x="459" y="709.7627">-String GPSCoordinates</text><line style="stroke: #A80036; stroke-width: 1.5;" x1="454" x2="578" y1="716.1797" y2="716.1797"/><!--class ClientDB--><rect fill="#FEFECE" filter="url(#f1jgi23uq0t8mx)" height="48" id="ClientDB" style="stroke: #A80036; stroke-width: 1.5;" width="81" x="304.5" y="226"/><ellipse cx="319.5" cy="242" fill="#ADD1B2" rx="11" ry="11" style="stroke: #A80036; stroke-width: 1.0;"/><path d="M322.2656,237.875 Q322.4219,237.6563 322.6094,237.5469 Q322.7969,237.4375 323.0156,237.4375 Q323.3906,237.4375 323.625,237.6953 Q323.8594,237.9531 323.8594,238.5625 L323.8594,240.0156 Q323.8594,240.625 323.625,240.8906 Q323.3906,241.1563 323.0156,241.1563 Q322.6719,241.1563 322.4688,240.9531 Q322.2656,240.7656 322.1563,240.25 Q322.1094,239.8906 321.9219,239.7031 Q321.5938,239.3281 320.9844,239.1094 Q320.375,238.8906 319.75,238.8906 Q318.9844,238.8906 318.3516,239.2188 Q317.7188,239.5469 317.2266,240.2969 Q316.7344,241.0469 316.7344,242.0781 L316.7344,243.1719 Q316.7344,244.4063 317.625,245.2266 Q318.5156,246.0469 320.1094,246.0469 Q321.0469,246.0469 321.7031,245.7969 Q322.0938,245.6406 322.5156,245.2031 Q322.7813,244.9375 322.9297,244.8594 Q323.0781,244.7813 323.2813,244.7813 Q323.6094,244.7813 323.8672,245.0391 Q324.125,245.2969 324.125,245.6406 Q324.125,245.9844 323.7813,246.3906 Q323.2813,246.9688 322.4844,247.2969 Q321.4063,247.75 320.1094,247.75 Q318.5938,247.75 317.3906,247.125 Q316.4063,246.625 315.7188,245.5547 Q315.0313,244.4844 315.0313,243.2031 L315.0313,242.0469 Q315.0313,240.7188 315.6484,239.5703 Q316.2656,238.4219 317.3594,237.8047 Q318.4531,237.1875 319.6875,237.1875 Q320.4219,237.1875 321.0703,237.3516 Q321.7188,237.5156 322.2656,237.875 Z "/><text fill="#000000" font-family="sans-serif" font-size="12" lengthAdjust="spacingAndGlyphs" textLength="49" x="333.5" y="246.9102">ClientDB</text><line style="stroke: #A80036; stroke-width: 1.5;" x1="305.5" x2="384.5" y1="258" y2="258"/><line style="stroke: #A80036; stroke-width: 1.5;" x1="305.5" x2="384.5" y1="266" y2="266"/><!--class User--><rect fill="#FEFECE" filter="url(#f1jgi23uq0t8mx)" height="89.5078" id="User" style="stroke: #A80036; stroke-width: 1.5;" width="97" x="320.5" y="620.5"/><ellipse cx="352.6" cy="636.5" fill="#ADD1B2" rx="11" ry="11" style="stroke: #A80036; stroke-width: 1.0;"/><path d="M355.3656,632.375 Q355.5219,632.1563 355.7094,632.0469 Q355.8969,631.9375 356.1156,631.9375 Q356.4906,631.9375 356.725,632.1953 Q356.9594,632.4531 356.9594,633.0625 L356.9594,634.5156 Q356.9594,635.125 356.725,635.3906 Q356.4906,635.6563 356.1156,635.6563 Q355.7719,635.6563 355.5688,635.4531 Q355.3656,635.2656 355.2563,634.75 Q355.2094,634.3906 355.0219,634.2031 Q354.6938,633.8281 354.0844,633.6094 Q353.475,633.3906 352.85,633.3906 Q352.0844,633.3906 351.4516,633.7188 Q350.8188,634.0469 350.3266,634.7969 Q349.8344,635.5469 349.8344,636.5781 L349.8344,637.6719 Q349.8344,638.9063 350.725,639.7266 Q351.6156,640.5469 353.2094,640.5469 Q354.1469,640.5469 354.8031,640.2969 Q355.1938,640.1406 355.6156,639.7031 Q355.8813,639.4375 356.0297,639.3594 Q356.1781,639.2813 356.3813,639.2813 Q356.7094,639.2813 356.9672,639.5391 Q357.225,639.7969 357.225,640.1406 Q357.225,640.4844 356.8813,640.8906 Q356.3813,641.4688 355.5844,641.7969 Q354.5063,642.25 353.2094,642.25 Q351.6938,642.25 350.4906,641.625 Q349.5063,641.125 348.8188,640.0547 Q348.1313,638.9844 348.1313,637.7031 L348.1313,636.5469 Q348.1313,635.2188 348.7484,634.0703 Q349.3656,632.9219 350.4594,632.3047 Q351.5531,631.6875 352.7875,631.6875 Q353.5219,631.6875 354.1703,631.8516 Q354.8188,632.0156 355.3656,632.375 Z "/><text fill="#000000" font-family="sans-serif" font-size="12" lengthAdjust="spacingAndGlyphs" textLength="27" x="370.4" y="641.4102">User</text><line style="stroke: #A80036; stroke-width: 1.5;" x1="321.5" x2="416.5" y1="652.5" y2="652.5"/><text fill="#000000" font-family="sans-serif" font-size="11" lengthAdjust="spacingAndGlyphs" textLength="61" x="326.5" y="667.9189">-String name</text><text fill="#000000" font-family="sans-serif" font-size="11" lengthAdjust="spacingAndGlyphs" textLength="53" x="326.5" y="681.7549">-String mail</text><text fill="#000000" font-family="sans-serif" font-size="11" lengthAdjust="spacingAndGlyphs" textLength="85" x="326.5" y="695.5908">-String password</text><line style="stroke: #A80036; stroke-width: 1.5;" x1="321.5" x2="416.5" y1="702.0078" y2="702.0078"/><!--link PerformOrderUI to PerformOrderController--><path d="M202,56.22 C202,72.48 202,94.32 202,111.62 " fill="none" id="PerformOrderUI-PerformOrderController" style="stroke: #A80036; stroke-width: 1.0; stroke-dasharray: 7.0,7.0;"/><polygon fill="#A80036" points="202,116.83,206,107.83,202,111.83,198,107.83,202,116.83" style="stroke: #A80036; stroke-width: 1.0;"/><!--link PerformOrderController to ProductOrderDB--><path d="M198.83,165.22 C189.21,235.61 160.41,446.5 149.9,523.48 " fill="none" id="PerformOrderController-ProductOrderDB" style="stroke: #A80036; stroke-width: 1.0; stroke-dasharray: 7.0,7.0;"/><polygon fill="#A80036" points="149.17,528.78,154.3655,520.413,149.8551,523.8272,146.4409,519.3168,149.17,528.78" style="stroke: #A80036; stroke-width: 1.0;"/><!--link PerformOrderController to OrderDB--><path d="M206.49,165.06 C213.08,198.94 225.37,262.11 232.5,298.74 " fill="none" id="PerformOrderController-OrderDB" style="stroke: #A80036; stroke-width: 1.0; stroke-dasharray: 7.0,7.0;"/><polygon fill="#A80036" points="233.51,303.94,235.7156,294.3413,232.5541,299.0322,227.8632,295.8707,233.51,303.94" style="stroke: #A80036; stroke-width: 1.0;"/><!--link PerformOrderController to ClientDB--><path d="M233.03,165.22 C255.7,182.18 286.47,205.21 310.02,222.83 " fill="none" id="PerformOrderController-ClientDB" style="stroke: #A80036; stroke-width: 1.0; stroke-dasharray: 7.0,7.0;"/><polygon fill="#A80036" points="314.03,225.83,309.23,217.23,310.03,222.83,304.43,223.63,314.03,225.83" style="stroke: #A80036; stroke-width: 1.0;"/><!--link ClientDB to Client--><path d="M347.21,274.11 C349.63,299.51 353.63,341.37 357,376.62 " fill="none" id="ClientDB-Client" style="stroke: #A80036; stroke-width: 1.0; stroke-dasharray: 7.0,7.0;"/><polygon fill="#A80036" points="357.49,381.78,360.6225,372.4426,357.018,376.8023,352.6582,373.1978,357.49,381.78" style="stroke: #A80036; stroke-width: 1.0;"/><!--link OrderDB to Order--><path d="M238,352.06 C238,407.87 238,550.86 238,622.4 " fill="none" id="OrderDB-Order" style="stroke: #A80036; stroke-width: 1.0; stroke-dasharray: 7.0,7.0;"/><polygon fill="#A80036" points="238,627.43,242,618.43,238,622.43,234,618.43,238,627.43" style="stroke: #A80036; stroke-width: 1.0;"/><!--link ProductOrderDB to ProductOrder--><path d="M147.6,577.4 C150.85,624.79 158.26,732.99 162.62,796.66 " fill="none" id="ProductOrderDB-ProductOrder" style="stroke: #A80036; stroke-width: 1.0; stroke-dasharray: 7.0,7.0;"/><polygon fill="#A80036" points="162.98,801.92,166.3531,792.6668,162.637,796.9318,158.372,793.2156,162.98,801.92" style="stroke: #A80036; stroke-width: 1.0;"/><!--link PerformOrderController to EmailHandler--><path d="M171.19,165.22 C148.77,182.11 118.37,205.02 95.03,222.61 " fill="none" id="PerformOrderController-EmailHandler" style="stroke: #A80036; stroke-width: 1.0; stroke-dasharray: 7.0,7.0;"/><polygon fill="#A80036" points="90.75,225.83,100.345,223.6081,94.7431,222.8209,95.5304,217.2191,90.75,225.83" style="stroke: #A80036; stroke-width: 1.0;"/><!--link Client to Order--><path d="M330.65,499.22 C308.98,537.88 280.95,587.87 261.42,622.71 " fill="none" id="Client-Order" style="stroke: #A80036; stroke-width: 1.0;"/><polygon fill="#A80036" points="258.85,627.31,266.7322,621.4048,261.2891,622.9453,259.7486,617.5022,258.85,627.31" style="stroke: #A80036; stroke-width: 1.0;"/><text fill="#000000" font-family="sans-serif" font-size="13" lengthAdjust="spacingAndGlyphs" textLength="29" x="313" y="558.4951">add&gt;</text><text fill="#000000" font-family="sans-serif" font-size="13" lengthAdjust="spacingAndGlyphs" textLength="7" x="319.2808" y="520.8571">1</text><text fill="#000000" font-family="sans-serif" font-size="13" lengthAdjust="spacingAndGlyphs" textLength="5" x="257.1186" y="616.6381">*</text><!--link Client to Adress--><path d="M415.77,499.03 C423.88,508.77 431.91,518.98 439,529 C455.27,551.98 471.03,578.67 484.02,602.25 " fill="none" id="Client-Adress" style="stroke: #A80036; stroke-width: 1.0;"/><polygon fill="#A80036" points="486.58,606.93,485.7685,597.1146,484.1797,602.5438,478.7506,600.9551,486.58,606.93" style="stroke: #A80036; stroke-width: 1.0;"/><text fill="#000000" font-family="sans-serif" font-size="13" lengthAdjust="spacingAndGlyphs" textLength="21" x="470" y="558.4951">has</text><polygon fill="#000000" points="476,567.3516,479,573.3516,482,567.3516,476,567.3516" style="stroke: #000000; stroke-width: 1.0;"/><text fill="#000000" font-family="sans-serif" font-size="13" lengthAdjust="spacingAndGlyphs" textLength="5" x="416.8967" y="520.6439">*</text><text fill="#000000" font-family="sans-serif" font-size="13" lengthAdjust="spacingAndGlyphs" textLength="7" x="475.5679" y="596.3224">1</text><!--link Client to User--><path d="M364.55,499.22 C365.52,535.11 366.75,580.78 367.67,615.01 " fill="none" id="Client-User" style="stroke: #A80036; stroke-width: 1.0;"/><polygon fill="#A80036" points="367.81,620.4,371.5773,611.3002,367.6815,615.4017,363.58,611.5058,367.81,620.4" style="stroke: #A80036; stroke-width: 1.0;"/><text fill="#000000" font-family="sans-serif" font-size="13" lengthAdjust="spacingAndGlyphs" textLength="50" x="367" y="558.4951">acts has</text><polygon fill="#000000" points="387.5,567.3516,390.5,573.3516,393.5,567.3516,387.5,567.3516" style="stroke: #000000; stroke-width: 1.0;"/><text fill="#000000" font-family="sans-serif" font-size="13" lengthAdjust="spacingAndGlyphs" textLength="7" x="357.3123" y="520.8571">1</text><text fill="#000000" font-family="sans-serif" font-size="13" lengthAdjust="spacingAndGlyphs" textLength="7" x="360.0625" y="609.4995">1</text><!--link Order to ProductOrder--><path d="M223.08,703.69 C211.63,732.24 195.79,771.74 183.7,801.88 " fill="none" id="Order-ProductOrder" style="stroke: #A80036; stroke-width: 1.0;"/><text fill="#000000" font-family="sans-serif" font-size="13" lengthAdjust="spacingAndGlyphs" textLength="21" x="203" y="768.4951">has</text><polygon fill="#000000" points="209,777.3516,212,783.3516,215,777.3516,209,777.3516" style="stroke: #000000; stroke-width: 1.0;"/><text fill="#000000" font-family="sans-serif" font-size="13" lengthAdjust="spacingAndGlyphs" textLength="7" x="213.1443" y="724.6008">1</text><text fill="#000000" font-family="sans-serif" font-size="13" lengthAdjust="spacingAndGlyphs" textLength="5" x="181.0275" y="791.3057">*</text><!--link ProductOrder to Product--><path d="M166,892.37 C166,915.73 166,944.65 166,969.74 " fill="none" id="ProductOrder-Product" style="stroke: #A80036; stroke-width: 1.0;"/><text fill="#000000" font-family="sans-serif" font-size="13" lengthAdjust="spacingAndGlyphs" textLength="21" x="167" y="936.4951">has</text><polygon fill="#000000" points="173,945.3516,176,951.3516,179,945.3516,173,945.3516" style="stroke: #000000; stroke-width: 1.0;"/><text fill="#000000" font-family="sans-serif" font-size="13" lengthAdjust="spacingAndGlyphs" textLength="5" x="160.6641" y="913.0934">*</text><text fill="#000000" font-family="sans-serif" font-size="13" lengthAdjust="spacingAndGlyphs" textLength="7" x="158.5734" y="959.1092">1</text><!--
@startuml
skinparam classAttributeIconSize 0

class EmailHandler {

}

class PerformOrderUI {

}

class PerformOrderController {

}

class OrderDB {

}

class ProductOrderDB {

}

class Product {
  -String name
  -String reference
  -String description
  -Double price
  -Integer amount

}

class Order {
  - int idOrder
  - double finalPrice
}

class ProductOrder {
  -int reference
  -int idOrder
  -int amount
}

class Client {
  -String name
  -String email
  -String creditCardNumber
  -Date validityDate
  -Integer ccv

}

class Adress {
  -String street
  -String postalCode
  -Integer number
  -String locality
  -String GPSCoordinates

}

class ClientDB {

}

class User {
  -String name
  -String mail
  -String password
}

PerformOrderUI ..> PerformOrderController
PerformOrderController ..> ProductOrderDB
PerformOrderController ..> OrderDB
PerformOrderController ..> ClientDB
ClientDB ..> Client
OrderDB  ..>  Order
ProductOrderDB ..> ProductOrder
PerformOrderController ..> EmailHandler

Client "1" - -> "*" Order : add>

Client "*" - -> "1" Adress: has >

Client "1" - -> "1" User : acts has >

Order "1" - - "*" ProductOrder : has >

ProductOrder "*" - - "1" Product : has >



@enduml

PlantUML version 1.2018.14(Fri Dec 21 16:33:16 GMT 2018)
(GPL source distribution)
Java Runtime: Java(TM) SE Runtime Environment
JVM: Java HotSpot(TM) 64-Bit Server VM
Java Version: 1.8.0_271-b09
Operating System: Windows 10
OS Version: 10.0
Default Encoding: Cp1252
Language: pt
Country: PT
--></g></svg>