<?xml version="1.0" encoding="UTF-8" standalone="no"?><svg xmlns="http://www.w3.org/2000/svg" xmlns:xlink="http://www.w3.org/1999/xlink" contentScriptType="application/ecmascript" contentStyleType="text/css" height="259px" preserveAspectRatio="none" style="width:958px;height:259px;" version="1.1" viewBox="0 0 958 259" width="958px" zoomAndPan="magnify"><defs><filter height="300%" id="ft783agi74k1l" width="300%" x="-1" y="-1"><feGaussianBlur result="blurOut" stdDeviation="2.0"/><feColorMatrix in="blurOut" result="blurOut2" type="matrix" values="0 0 0 0 0 0 0 0 0 0 0 0 0 0 0 0 0 0 .4 0"/><feOffset dx="4.0" dy="4.0" in="blurOut2" result="blurOut3"/><feBlend in="SourceGraphic" in2="blurOut3" mode="normal"/></filter></defs><g><!--class Platform--><rect fill="#FEFECE" filter="url(#ft783agi74k1l)" height="53.8359" id="Platform" style="stroke: #A80036; stroke-width: 1.5;" width="112" x="6" y="152"/><ellipse cx="36.3" cy="168" fill="#ADD1B2" rx="11" ry="11" style="stroke: #A80036; stroke-width: 1.0;"/><path d="M39.0656,163.875 Q39.2219,163.6563 39.4094,163.5469 Q39.5969,163.4375 39.8156,163.4375 Q40.1906,163.4375 40.425,163.6953 Q40.6594,163.9531 40.6594,164.5625 L40.6594,166.0156 Q40.6594,166.625 40.425,166.8906 Q40.1906,167.1563 39.8156,167.1563 Q39.4719,167.1563 39.2688,166.9531 Q39.0656,166.7656 38.9563,166.25 Q38.9094,165.8906 38.7219,165.7031 Q38.3938,165.3281 37.7844,165.1094 Q37.175,164.8906 36.55,164.8906 Q35.7844,164.8906 35.1516,165.2188 Q34.5188,165.5469 34.0266,166.2969 Q33.5344,167.0469 33.5344,168.0781 L33.5344,169.1719 Q33.5344,170.4063 34.425,171.2266 Q35.3156,172.0469 36.9094,172.0469 Q37.8469,172.0469 38.5031,171.7969 Q38.8938,171.6406 39.3156,171.2031 Q39.5813,170.9375 39.7297,170.8594 Q39.8781,170.7813 40.0813,170.7813 Q40.4094,170.7813 40.6672,171.0391 Q40.925,171.2969 40.925,171.6406 Q40.925,171.9844 40.5813,172.3906 Q40.0813,172.9688 39.2844,173.2969 Q38.2063,173.75 36.9094,173.75 Q35.3938,173.75 34.1906,173.125 Q33.2063,172.625 32.5188,171.5547 Q31.8312,170.4844 31.8312,169.2031 L31.8312,168.0469 Q31.8312,166.7188 32.4484,165.5703 Q33.0656,164.4219 34.1594,163.8047 Q35.2531,163.1875 36.4875,163.1875 Q37.2219,163.1875 37.8703,163.3516 Q38.5188,163.5156 39.0656,163.875 Z "/><text fill="#000000" font-family="sans-serif" font-size="12" lengthAdjust="spacingAndGlyphs" textLength="46" x="53.7" y="172.9102">Platform</text><line style="stroke: #A80036; stroke-width: 1.5;" x1="7" x2="117" y1="184" y2="184"/><rect fill="none" height="6" style="stroke: #C82930; stroke-width: 1.0;" width="6" x="14" y="193.418"/><text fill="#000000" font-family="sans-serif" font-size="11" lengthAdjust="spacingAndGlyphs" textLength="86" x="26" y="199.4189">String designation</text><!--class Pharmacy--><rect fill="#FEFECE" filter="url(#ft783agi74k1l)" height="81.5078" id="Pharmacy" style="stroke: #A80036; stroke-width: 1.5;" width="112" x="275" y="63"/><ellipse cx="301.25" cy="79" fill="#ADD1B2" rx="11" ry="11" style="stroke: #A80036; stroke-width: 1.0;"/><path d="M304.0156,74.875 Q304.1719,74.6563 304.3594,74.5469 Q304.5469,74.4375 304.7656,74.4375 Q305.1406,74.4375 305.375,74.6953 Q305.6094,74.9531 305.6094,75.5625 L305.6094,77.0156 Q305.6094,77.625 305.375,77.8906 Q305.1406,78.1563 304.7656,78.1563 Q304.4219,78.1563 304.2188,77.9531 Q304.0156,77.7656 303.9063,77.25 Q303.8594,76.8906 303.6719,76.7031 Q303.3438,76.3281 302.7344,76.1094 Q302.125,75.8906 301.5,75.8906 Q300.7344,75.8906 300.1016,76.2188 Q299.4688,76.5469 298.9766,77.2969 Q298.4844,78.0469 298.4844,79.0781 L298.4844,80.1719 Q298.4844,81.4063 299.375,82.2266 Q300.2656,83.0469 301.8594,83.0469 Q302.7969,83.0469 303.4531,82.7969 Q303.8438,82.6406 304.2656,82.2031 Q304.5313,81.9375 304.6797,81.8594 Q304.8281,81.7813 305.0313,81.7813 Q305.3594,81.7813 305.6172,82.0391 Q305.875,82.2969 305.875,82.6406 Q305.875,82.9844 305.5313,83.3906 Q305.0313,83.9688 304.2344,84.2969 Q303.1563,84.75 301.8594,84.75 Q300.3438,84.75 299.1406,84.125 Q298.1563,83.625 297.4688,82.5547 Q296.7813,81.4844 296.7813,80.2031 L296.7813,79.0469 Q296.7813,77.7188 297.3984,76.5703 Q298.0156,75.4219 299.1094,74.8047 Q300.2031,74.1875 301.4375,74.1875 Q302.1719,74.1875 302.8203,74.3516 Q303.4688,74.5156 304.0156,74.875 Z "/><text fill="#000000" font-family="sans-serif" font-size="12" lengthAdjust="spacingAndGlyphs" textLength="55" x="317.75" y="83.9102">Pharmacy</text><line style="stroke: #A80036; stroke-width: 1.5;" x1="276" x2="386" y1="95" y2="95"/><rect fill="none" height="6" style="stroke: #C82930; stroke-width: 1.0;" width="6" x="283" y="104.418"/><text fill="#000000" font-family="sans-serif" font-size="11" lengthAdjust="spacingAndGlyphs" textLength="86" x="295" y="110.4189">String designation</text><rect fill="none" height="6" style="stroke: #C82930; stroke-width: 1.0;" width="6" x="283" y="118.2539"/><text fill="#000000" font-family="sans-serif" font-size="11" lengthAdjust="spacingAndGlyphs" textLength="55" x="295" y="124.2549">String email</text><rect fill="none" height="6" style="stroke: #C82930; stroke-width: 1.0;" width="6" x="283" y="132.0898"/><text fill="#000000" font-family="sans-serif" font-size="11" lengthAdjust="spacingAndGlyphs" textLength="72" x="295" y="138.0908">String parkMax</text><!--class Courier--><rect fill="#FEFECE" filter="url(#ft783agi74k1l)" height="123.0156" id="Courier" style="stroke: #A80036; stroke-width: 1.5;" width="167" x="544" y="31.5"/><ellipse cx="602.75" cy="47.5" fill="#ADD1B2" rx="11" ry="11" style="stroke: #A80036; stroke-width: 1.0;"/><path d="M605.5156,43.375 Q605.6719,43.1563 605.8594,43.0469 Q606.0469,42.9375 606.2656,42.9375 Q606.6406,42.9375 606.875,43.1953 Q607.1094,43.4531 607.1094,44.0625 L607.1094,45.5156 Q607.1094,46.125 606.875,46.3906 Q606.6406,46.6563 606.2656,46.6563 Q605.9219,46.6563 605.7188,46.4531 Q605.5156,46.2656 605.4063,45.75 Q605.3594,45.3906 605.1719,45.2031 Q604.8438,44.8281 604.2344,44.6094 Q603.625,44.3906 603,44.3906 Q602.2344,44.3906 601.6016,44.7188 Q600.9688,45.0469 600.4766,45.7969 Q599.9844,46.5469 599.9844,47.5781 L599.9844,48.6719 Q599.9844,49.9063 600.875,50.7266 Q601.7656,51.5469 603.3594,51.5469 Q604.2969,51.5469 604.9531,51.2969 Q605.3438,51.1406 605.7656,50.7031 Q606.0313,50.4375 606.1797,50.3594 Q606.3281,50.2813 606.5313,50.2813 Q606.8594,50.2813 607.1172,50.5391 Q607.375,50.7969 607.375,51.1406 Q607.375,51.4844 607.0313,51.8906 Q606.5313,52.4688 605.7344,52.7969 Q604.6563,53.25 603.3594,53.25 Q601.8438,53.25 600.6406,52.625 Q599.6563,52.125 598.9688,51.0547 Q598.2813,49.9844 598.2813,48.7031 L598.2813,47.5469 Q598.2813,46.2188 598.8984,45.0703 Q599.5156,43.9219 600.6094,43.3047 Q601.7031,42.6875 602.9375,42.6875 Q603.6719,42.6875 604.3203,42.8516 Q604.9688,43.0156 605.5156,43.375 Z "/><text fill="#000000" font-family="sans-serif" font-size="12" lengthAdjust="spacingAndGlyphs" textLength="41" x="623.25" y="52.4102">Courier</text><line style="stroke: #A80036; stroke-width: 1.5;" x1="545" x2="710" y1="63.5" y2="63.5"/><rect fill="none" height="6" style="stroke: #C82930; stroke-width: 1.0;" width="6" x="552" y="72.918"/><text fill="#000000" font-family="sans-serif" font-size="11" lengthAdjust="spacingAndGlyphs" textLength="57" x="564" y="78.9189">String name</text><rect fill="none" height="6" style="stroke: #C82930; stroke-width: 1.0;" width="6" x="552" y="86.7539"/><text fill="#000000" font-family="sans-serif" font-size="11" lengthAdjust="spacingAndGlyphs" textLength="55" x="564" y="92.7549">String email</text><rect fill="none" height="6" style="stroke: #C82930; stroke-width: 1.0;" width="6" x="552" y="100.5898"/><text fill="#000000" font-family="sans-serif" font-size="11" lengthAdjust="spacingAndGlyphs" textLength="98" x="564" y="106.5908">String phoneNumber</text><rect fill="none" height="6" style="stroke: #C82930; stroke-width: 1.0;" width="6" x="552" y="114.4258"/><text fill="#000000" font-family="sans-serif" font-size="11" lengthAdjust="spacingAndGlyphs" textLength="141" x="564" y="120.4268">Integer socialSecurityNumber</text><rect fill="none" height="6" style="stroke: #C82930; stroke-width: 1.0;" width="6" x="552" y="128.2617"/><text fill="#000000" font-family="sans-serif" font-size="11" lengthAdjust="spacingAndGlyphs" textLength="48" x="564" y="134.2627">Integer nif</text><rect fill="none" height="6" style="stroke: #C82930; stroke-width: 1.0;" width="6" x="552" y="142.0977"/><text fill="#000000" font-family="sans-serif" font-size="11" lengthAdjust="spacingAndGlyphs" textLength="61" x="564" y="148.0986">String status</text><!--class Scooter--><rect fill="#FEFECE" filter="url(#ft783agi74k1l)" height="123.0156" id="Scooter" style="stroke: #A80036; stroke-width: 1.5;" width="125" x="822" y="8.5"/><ellipse cx="859.95" cy="24.5" fill="#ADD1B2" rx="11" ry="11" style="stroke: #A80036; stroke-width: 1.0;"/><path d="M862.7156,20.375 Q862.8719,20.1563 863.0594,20.0469 Q863.2469,19.9375 863.4656,19.9375 Q863.8406,19.9375 864.075,20.1953 Q864.3094,20.4531 864.3094,21.0625 L864.3094,22.5156 Q864.3094,23.125 864.075,23.3906 Q863.8406,23.6563 863.4656,23.6563 Q863.1219,23.6563 862.9188,23.4531 Q862.7156,23.2656 862.6063,22.75 Q862.5594,22.3906 862.3719,22.2031 Q862.0438,21.8281 861.4344,21.6094 Q860.825,21.3906 860.2,21.3906 Q859.4344,21.3906 858.8016,21.7188 Q858.1688,22.0469 857.6766,22.7969 Q857.1844,23.5469 857.1844,24.5781 L857.1844,25.6719 Q857.1844,26.9063 858.075,27.7266 Q858.9656,28.5469 860.5594,28.5469 Q861.4969,28.5469 862.1531,28.2969 Q862.5438,28.1406 862.9656,27.7031 Q863.2313,27.4375 863.3797,27.3594 Q863.5281,27.2813 863.7313,27.2813 Q864.0594,27.2813 864.3172,27.5391 Q864.575,27.7969 864.575,28.1406 Q864.575,28.4844 864.2313,28.8906 Q863.7313,29.4688 862.9344,29.7969 Q861.8563,30.25 860.5594,30.25 Q859.0438,30.25 857.8406,29.625 Q856.8563,29.125 856.1688,28.0547 Q855.4813,26.9844 855.4813,25.7031 L855.4813,24.5469 Q855.4813,23.2188 856.0984,22.0703 Q856.7156,20.9219 857.8094,20.3047 Q858.9031,19.6875 860.1375,19.6875 Q860.8719,19.6875 861.5203,19.8516 Q862.1688,20.0156 862.7156,20.375 Z "/><text fill="#000000" font-family="sans-serif" font-size="12" lengthAdjust="spacingAndGlyphs" textLength="42" x="879.05" y="29.4102">Scooter</text><line style="stroke: #A80036; stroke-width: 1.5;" x1="823" x2="946" y1="40.5" y2="40.5"/><rect fill="none" height="6" style="stroke: #C82930; stroke-width: 1.0;" width="6" x="830" y="49.918"/><text fill="#000000" font-family="sans-serif" font-size="11" lengthAdjust="spacingAndGlyphs" textLength="39" x="842" y="55.9189">String id</text><rect fill="none" height="6" style="stroke: #C82930; stroke-width: 1.0;" width="6" x="830" y="63.7539"/><text fill="#000000" font-family="sans-serif" font-size="11" lengthAdjust="spacingAndGlyphs" textLength="77" x="842" y="69.7549">Double capacity</text><rect fill="none" height="6" style="stroke: #C82930; stroke-width: 1.0;" width="6" x="830" y="77.5898"/><text fill="#000000" font-family="sans-serif" font-size="11" lengthAdjust="spacingAndGlyphs" textLength="68" x="842" y="83.5908">Double power</text><rect fill="none" height="6" style="stroke: #C82930; stroke-width: 1.0;" width="6" x="830" y="91.4258"/><text fill="#000000" font-family="sans-serif" font-size="11" lengthAdjust="spacingAndGlyphs" textLength="70" x="842" y="97.4268">Integer battery</text><rect fill="none" height="6" style="stroke: #C82930; stroke-width: 1.0;" width="6" x="830" y="105.2617"/><text fill="#000000" font-family="sans-serif" font-size="11" lengthAdjust="spacingAndGlyphs" textLength="99" x="842" y="111.2627">Boolean isCharching</text><rect fill="none" height="6" style="stroke: #C82930; stroke-width: 1.0;" width="6" x="830" y="119.0977"/><text fill="#000000" font-family="sans-serif" font-size="11" lengthAdjust="spacingAndGlyphs" textLength="83" x="842" y="125.0986">Boolean isParked</text><!--class User--><rect fill="#FEFECE" filter="url(#ft783agi74k1l)" height="81.5078" id="User" style="stroke: #A80036; stroke-width: 1.5;" width="107" x="831" y="167"/><ellipse cx="867.6" cy="183" fill="#ADD1B2" rx="11" ry="11" style="stroke: #A80036; stroke-width: 1.0;"/><path d="M870.3656,178.875 Q870.5219,178.6563 870.7094,178.5469 Q870.8969,178.4375 871.1156,178.4375 Q871.4906,178.4375 871.725,178.6953 Q871.9594,178.9531 871.9594,179.5625 L871.9594,181.0156 Q871.9594,181.625 871.725,181.8906 Q871.4906,182.1563 871.1156,182.1563 Q870.7719,182.1563 870.5688,181.9531 Q870.3656,181.7656 870.2563,181.25 Q870.2094,180.8906 870.0219,180.7031 Q869.6938,180.3281 869.0844,180.1094 Q868.475,179.8906 867.85,179.8906 Q867.0844,179.8906 866.4516,180.2188 Q865.8188,180.5469 865.3266,181.2969 Q864.8344,182.0469 864.8344,183.0781 L864.8344,184.1719 Q864.8344,185.4063 865.725,186.2266 Q866.6156,187.0469 868.2094,187.0469 Q869.1469,187.0469 869.8031,186.7969 Q870.1938,186.6406 870.6156,186.2031 Q870.8813,185.9375 871.0297,185.8594 Q871.1781,185.7813 871.3813,185.7813 Q871.7094,185.7813 871.9672,186.0391 Q872.225,186.2969 872.225,186.6406 Q872.225,186.9844 871.8813,187.3906 Q871.3813,187.9688 870.5844,188.2969 Q869.5063,188.75 868.2094,188.75 Q866.6938,188.75 865.4906,188.125 Q864.5063,187.625 863.8188,186.5547 Q863.1313,185.4844 863.1313,184.2031 L863.1313,183.0469 Q863.1313,181.7188 863.7484,180.5703 Q864.3656,179.4219 865.4594,178.8047 Q866.5531,178.1875 867.7875,178.1875 Q868.5219,178.1875 869.1703,178.3516 Q869.8188,178.5156 870.3656,178.875 Z "/><text fill="#000000" font-family="sans-serif" font-size="12" lengthAdjust="spacingAndGlyphs" textLength="27" x="886.4" y="187.9102">User</text><line style="stroke: #A80036; stroke-width: 1.5;" x1="832" x2="937" y1="199" y2="199"/><rect fill="none" height="6" style="stroke: #C82930; stroke-width: 1.0;" width="6" x="839" y="208.418"/><text fill="#000000" font-family="sans-serif" font-size="11" lengthAdjust="spacingAndGlyphs" textLength="57" x="851" y="214.4189">String name</text><rect fill="none" height="6" style="stroke: #C82930; stroke-width: 1.0;" width="6" x="839" y="222.2539"/><text fill="#000000" font-family="sans-serif" font-size="11" lengthAdjust="spacingAndGlyphs" textLength="55" x="851" y="228.2549">String email</text><rect fill="none" height="6" style="stroke: #C82930; stroke-width: 1.0;" width="6" x="839" y="236.0898"/><text fill="#000000" font-family="sans-serif" font-size="11" lengthAdjust="spacingAndGlyphs" textLength="81" x="851" y="242.0908">String password</text><!--link Platform to User--><path d="M118.11,180.95 C268.3,186.26 683.41,200.93 830.76,206.14 " fill="none" id="Platform-User" style="stroke: #A80036; stroke-width: 1.0;"/><text fill="#000000" font-family="sans-serif" font-size="13" lengthAdjust="spacingAndGlyphs" textLength="82" x="418" y="187.4951">has registered</text><polygon fill="#000000" points="503,180.6758,509,183.6758,503,186.6758,503,180.6758" style="stroke: #000000; stroke-width: 1.0;"/><text fill="#000000" font-family="sans-serif" font-size="13" lengthAdjust="spacingAndGlyphs" textLength="7" x="126.1201" y="195.8168">1</text><text fill="#000000" font-family="sans-serif" font-size="13" lengthAdjust="spacingAndGlyphs" textLength="5" x="817.8512" y="220.5579">*</text><!--link Platform to Pharmacy--><path d="M118.32,163.46 C164.15,150.59 228.94,132.39 274.75,119.52 " fill="none" id="Platform-Pharmacy" style="stroke: #A80036; stroke-width: 1.0;"/><text fill="#000000" font-family="sans-serif" font-size="13" lengthAdjust="spacingAndGlyphs" textLength="82" x="149" y="124.4951">has registered</text><polygon fill="#000000" points="234,117.6758,240,120.6758,234,123.6758,234,117.6758" style="stroke: #000000; stroke-width: 1.0;"/><text fill="#000000" font-family="sans-serif" font-size="13" lengthAdjust="spacingAndGlyphs" textLength="7" x="125.9844" y="176.0221">1</text><text fill="#000000" font-family="sans-serif" font-size="13" lengthAdjust="spacingAndGlyphs" textLength="7" x="260.0945" y="136.0827">1</text><!--link Pharmacy to Courier--><path d="M387.05,101.94 C431.17,100.3 493.76,97.96 543.89,96.09 " fill="none" id="Pharmacy-Courier" style="stroke: #A80036; stroke-width: 1.0;"/><text fill="#000000" font-family="sans-serif" font-size="13" lengthAdjust="spacingAndGlyphs" textLength="78" x="426.5" y="93.4951">associated to</text><text fill="#000000" font-family="sans-serif" font-size="13" lengthAdjust="spacingAndGlyphs" textLength="7" x="395.052" y="116.29">1</text><text fill="#000000" font-family="sans-serif" font-size="13" lengthAdjust="spacingAndGlyphs" textLength="7" x="529.1318" y="110.5878">1</text><!--link Courier to User--><path d="M711.29,130.34 C750.56,148.05 796.3,168.67 830.77,184.22 " fill="none" id="Courier-User" style="stroke: #A80036; stroke-width: 1.0;"/><text fill="#000000" font-family="sans-serif" font-size="13" lengthAdjust="spacingAndGlyphs" textLength="36" x="742" y="143.4951">act as</text><polygon fill="#000000" points="781,136.6758,787,139.6758,781,142.6758,781,136.6758" style="stroke: #000000; stroke-width: 1.0;"/><text fill="#000000" font-family="sans-serif" font-size="13" lengthAdjust="spacingAndGlyphs" textLength="22" x="719.1398" y="147.6037">0..1</text><text fill="#000000" font-family="sans-serif" font-size="13" lengthAdjust="spacingAndGlyphs" textLength="7" x="816.0797" y="195.6514">1</text><!--link Courier to Scooter--><path d="M711.29,85.53 C747.21,82.29 788.55,78.56 821.72,75.57 " fill="none" id="Courier-Scooter" style="stroke: #A80036; stroke-width: 1.0;"/><text fill="#000000" font-family="sans-serif" font-size="13" lengthAdjust="spacingAndGlyphs" textLength="43" x="745" y="75.4951">parks a</text><text fill="#000000" font-family="sans-serif" font-size="13" lengthAdjust="spacingAndGlyphs" textLength="7" x="719.0643" y="99.0873">1</text><text fill="#000000" font-family="sans-serif" font-size="13" lengthAdjust="spacingAndGlyphs" textLength="7" x="807.0564" y="90.6536">1</text><!--
@startuml

hide methods
left to right direction

class Platform {
  -String designation
}
class Pharmacy {
  -String designation
  -String email
  -String parkMax
}

class Courier {
-String name
-String email
-String phoneNumber
-Integer socialSecurityNumber
-Integer nif
-String status
}

class Scooter {
  -String id
  -Double capacity
  -Double power
  -Integer battery
  -Boolean isCharching
  -Boolean isParked
}

class User {
  -String name
  -String email
  -String password
}



Platform "1" - - "*" User : has registered >
Platform "1" - - "1" Pharmacy :has registered >

Pharmacy "1"- - "1" Courier : associated to

Courier "0..1" - - "1" User : act as >
Courier "1" - - "1" Scooter : parks a


@enduml

PlantUML version 1.2018.14(Fri Dec 21 16:33:16 GMT 2018)
(GPL source distribution)
Java Runtime: Java(TM) SE Runtime Environment
JVM: Java HotSpot(TM) 64-Bit Server VM
Java Version: 1.8.0_271-b09
Operating System: Windows 10
OS Version: 10.0
Default Encoding: Cp1252
Language: pt
Country: PT
--></g></svg>