<?xml version="1.0" encoding="UTF-8" standalone="no"?><svg xmlns="http://www.w3.org/2000/svg" xmlns:xlink="http://www.w3.org/1999/xlink" contentScriptType="application/ecmascript" contentStyleType="text/css" height="659px" preserveAspectRatio="none" style="width:825px;height:659px;" version="1.1" viewBox="0 0 825 659" width="825px" zoomAndPan="magnify"><defs><filter height="300%" id="f1d3dvtssah7op" width="300%" x="-1" y="-1"><feGaussianBlur result="blurOut" stdDeviation="2.0"/><feColorMatrix in="blurOut" result="blurOut2" type="matrix" values="0 0 0 0 0 0 0 0 0 0 0 0 0 0 0 0 0 0 .4 0"/><feOffset dx="4.0" dy="4.0" in="blurOut2" result="blurOut3"/><feBlend in="SourceGraphic" in2="blurOut3" mode="normal"/></filter></defs><g><!--class UpdateScooterUI--><rect fill="#FEFECE" filter="url(#f1d3dvtssah7op)" height="48" id="UpdateScooterUI" style="stroke: #A80036; stroke-width: 1.5;" width="126" x="208" y="8"/><ellipse cx="223" cy="24" fill="#ADD1B2" rx="11" ry="11" style="stroke: #A80036; stroke-width: 1.0;"/><path d="M225.7656,19.875 Q225.9219,19.6563 226.1094,19.5469 Q226.2969,19.4375 226.5156,19.4375 Q226.8906,19.4375 227.125,19.6953 Q227.3594,19.9531 227.3594,20.5625 L227.3594,22.0156 Q227.3594,22.625 227.125,22.8906 Q226.8906,23.1563 226.5156,23.1563 Q226.1719,23.1563 225.9688,22.9531 Q225.7656,22.7656 225.6563,22.25 Q225.6094,21.8906 225.4219,21.7031 Q225.0938,21.3281 224.4844,21.1094 Q223.875,20.8906 223.25,20.8906 Q222.4844,20.8906 221.8516,21.2188 Q221.2188,21.5469 220.7266,22.2969 Q220.2344,23.0469 220.2344,24.0781 L220.2344,25.1719 Q220.2344,26.4063 221.125,27.2266 Q222.0156,28.0469 223.6094,28.0469 Q224.5469,28.0469 225.2031,27.7969 Q225.5938,27.6406 226.0156,27.2031 Q226.2813,26.9375 226.4297,26.8594 Q226.5781,26.7813 226.7813,26.7813 Q227.1094,26.7813 227.3672,27.0391 Q227.625,27.2969 227.625,27.6406 Q227.625,27.9844 227.2813,28.3906 Q226.7813,28.9688 225.9844,29.2969 Q224.9063,29.75 223.6094,29.75 Q222.0938,29.75 220.8906,29.125 Q219.9063,28.625 219.2188,27.5547 Q218.5313,26.4844 218.5313,25.2031 L218.5313,24.0469 Q218.5313,22.7188 219.1484,21.5703 Q219.7656,20.4219 220.8594,19.8047 Q221.9531,19.1875 223.1875,19.1875 Q223.9219,19.1875 224.5703,19.3516 Q225.2188,19.5156 225.7656,19.875 Z "/><text fill="#000000" font-family="sans-serif" font-size="12" lengthAdjust="spacingAndGlyphs" textLength="94" x="237" y="28.9102">UpdateScooterUI</text><line style="stroke: #A80036; stroke-width: 1.5;" x1="209" x2="333" y1="40" y2="40"/><line style="stroke: #A80036; stroke-width: 1.5;" x1="209" x2="333" y1="48" y2="48"/><!--class UpdateScooterController--><rect fill="#FEFECE" filter="url(#f1d3dvtssah7op)" height="131.0156" id="UpdateScooterController" style="stroke: #A80036; stroke-width: 1.5;" width="234" x="154" y="117"/><ellipse cx="198.75" cy="133" fill="#ADD1B2" rx="11" ry="11" style="stroke: #A80036; stroke-width: 1.0;"/><path d="M201.5156,128.875 Q201.6719,128.6563 201.8594,128.5469 Q202.0469,128.4375 202.2656,128.4375 Q202.6406,128.4375 202.875,128.6953 Q203.1094,128.9531 203.1094,129.5625 L203.1094,131.0156 Q203.1094,131.625 202.875,131.8906 Q202.6406,132.1563 202.2656,132.1563 Q201.9219,132.1563 201.7188,131.9531 Q201.5156,131.7656 201.4063,131.25 Q201.3594,130.8906 201.1719,130.7031 Q200.8438,130.3281 200.2344,130.1094 Q199.625,129.8906 199,129.8906 Q198.2344,129.8906 197.6016,130.2188 Q196.9688,130.5469 196.4766,131.2969 Q195.9844,132.0469 195.9844,133.0781 L195.9844,134.1719 Q195.9844,135.4063 196.875,136.2266 Q197.7656,137.0469 199.3594,137.0469 Q200.2969,137.0469 200.9531,136.7969 Q201.3438,136.6406 201.7656,136.2031 Q202.0313,135.9375 202.1797,135.8594 Q202.3281,135.7813 202.5313,135.7813 Q202.8594,135.7813 203.1172,136.0391 Q203.375,136.2969 203.375,136.6406 Q203.375,136.9844 203.0313,137.3906 Q202.5313,137.9688 201.7344,138.2969 Q200.6563,138.75 199.3594,138.75 Q197.8438,138.75 196.6406,138.125 Q195.6563,137.625 194.9688,136.5547 Q194.2813,135.4844 194.2813,134.2031 L194.2813,133.0469 Q194.2813,131.7188 194.8984,130.5703 Q195.5156,129.4219 196.6094,128.8047 Q197.7031,128.1875 198.9375,128.1875 Q199.6719,128.1875 200.3203,128.3516 Q200.9688,128.5156 201.5156,128.875 Z "/><text fill="#000000" font-family="sans-serif" font-size="12" lengthAdjust="spacingAndGlyphs" textLength="136" x="219.25" y="137.9102">UpdateScooterController</text><line style="stroke: #A80036; stroke-width: 1.5;" x1="155" x2="387" y1="149" y2="149"/><line style="stroke: #A80036; stroke-width: 1.5;" x1="155" x2="387" y1="157" y2="157"/><text fill="#000000" font-family="sans-serif" font-size="11" lengthAdjust="spacingAndGlyphs" textLength="182" x="160" y="172.4189">+List&lt;Pharmacy&gt; getPharmaciesList()</text><text fill="#000000" font-family="sans-serif" font-size="11" lengthAdjust="spacingAndGlyphs" textLength="186" x="160" y="186.2549">+getPharmacyByEmail(PharmacyEmail)</text><text fill="#000000" font-family="sans-serif" font-size="11" lengthAdjust="spacingAndGlyphs" textLength="160" x="160" y="200.0908">+List&lt;Scooter&gt; getScootersList()</text><text fill="#000000" font-family="sans-serif" font-size="11" lengthAdjust="spacingAndGlyphs" textLength="141" x="160" y="213.9268">+getScoooterByID(scooterID)</text><text fill="#000000" font-family="sans-serif" font-size="11" lengthAdjust="spacingAndGlyphs" textLength="222" x="160" y="227.7627">+changeScooter(capacity,power,maxBattery)</text><text fill="#000000" font-family="sans-serif" font-size="11" lengthAdjust="spacingAndGlyphs" textLength="85" x="160" y="241.5986">+updateScooter()</text><!--class PharmacyDB--><rect fill="#FEFECE" filter="url(#f1d3dvtssah7op)" height="75.6719" id="PharmacyDB" style="stroke: #A80036; stroke-width: 1.5;" width="212" x="6" y="322.5"/><ellipse cx="71.75" cy="338.5" fill="#ADD1B2" rx="11" ry="11" style="stroke: #A80036; stroke-width: 1.0;"/><path d="M74.5156,334.375 Q74.6719,334.1563 74.8594,334.0469 Q75.0469,333.9375 75.2656,333.9375 Q75.6406,333.9375 75.875,334.1953 Q76.1094,334.4531 76.1094,335.0625 L76.1094,336.5156 Q76.1094,337.125 75.875,337.3906 Q75.6406,337.6563 75.2656,337.6563 Q74.9219,337.6563 74.7188,337.4531 Q74.5156,337.2656 74.4063,336.75 Q74.3594,336.3906 74.1719,336.2031 Q73.8438,335.8281 73.2344,335.6094 Q72.625,335.3906 72,335.3906 Q71.2344,335.3906 70.6016,335.7188 Q69.9688,336.0469 69.4766,336.7969 Q68.9844,337.5469 68.9844,338.5781 L68.9844,339.6719 Q68.9844,340.9063 69.875,341.7266 Q70.7656,342.5469 72.3594,342.5469 Q73.2969,342.5469 73.9531,342.2969 Q74.3438,342.1406 74.7656,341.7031 Q75.0313,341.4375 75.1797,341.3594 Q75.3281,341.2813 75.5313,341.2813 Q75.8594,341.2813 76.1172,341.5391 Q76.375,341.7969 76.375,342.1406 Q76.375,342.4844 76.0313,342.8906 Q75.5313,343.4688 74.7344,343.7969 Q73.6563,344.25 72.3594,344.25 Q70.8438,344.25 69.6406,343.625 Q68.6563,343.125 67.9688,342.0547 Q67.2813,340.9844 67.2813,339.7031 L67.2813,338.5469 Q67.2813,337.2188 67.8984,336.0703 Q68.5156,334.9219 69.6094,334.3047 Q70.7031,333.6875 71.9375,333.6875 Q72.6719,333.6875 73.3203,333.8516 Q73.9688,334.0156 74.5156,334.375 Z "/><text fill="#000000" font-family="sans-serif" font-size="12" lengthAdjust="spacingAndGlyphs" textLength="72" x="92.25" y="343.4102">PharmacyDB</text><line style="stroke: #A80036; stroke-width: 1.5;" x1="7" x2="217" y1="354.5" y2="354.5"/><line style="stroke: #A80036; stroke-width: 1.5;" x1="7" x2="217" y1="362.5" y2="362.5"/><text fill="#000000" font-family="sans-serif" font-size="11" lengthAdjust="spacingAndGlyphs" textLength="177" x="12" y="377.9189">+List&lt;Pharmacy&gt; getAllPharmacies()</text><text fill="#000000" font-family="sans-serif" font-size="11" lengthAdjust="spacingAndGlyphs" textLength="200" x="12" y="391.7549">+Pharmacy getPharmacy(PharmacyEmail)</text><!--class ScooterDB--><rect fill="#FEFECE" filter="url(#f1d3dvtssah7op)" height="89.5078" id="ScooterDB" style="stroke: #A80036; stroke-width: 1.5;" width="213" x="461.5" y="315.5"/><ellipse cx="534.25" cy="331.5" fill="#ADD1B2" rx="11" ry="11" style="stroke: #A80036; stroke-width: 1.0;"/><path d="M537.0156,327.375 Q537.1719,327.1563 537.3594,327.0469 Q537.5469,326.9375 537.7656,326.9375 Q538.1406,326.9375 538.375,327.1953 Q538.6094,327.4531 538.6094,328.0625 L538.6094,329.5156 Q538.6094,330.125 538.375,330.3906 Q538.1406,330.6563 537.7656,330.6563 Q537.4219,330.6563 537.2188,330.4531 Q537.0156,330.2656 536.9063,329.75 Q536.8594,329.3906 536.6719,329.2031 Q536.3438,328.8281 535.7344,328.6094 Q535.125,328.3906 534.5,328.3906 Q533.7344,328.3906 533.1016,328.7188 Q532.4688,329.0469 531.9766,329.7969 Q531.4844,330.5469 531.4844,331.5781 L531.4844,332.6719 Q531.4844,333.9063 532.375,334.7266 Q533.2656,335.5469 534.8594,335.5469 Q535.7969,335.5469 536.4531,335.2969 Q536.8438,335.1406 537.2656,334.7031 Q537.5313,334.4375 537.6797,334.3594 Q537.8281,334.2813 538.0313,334.2813 Q538.3594,334.2813 538.6172,334.5391 Q538.875,334.7969 538.875,335.1406 Q538.875,335.4844 538.5313,335.8906 Q538.0313,336.4688 537.2344,336.7969 Q536.1563,337.25 534.8594,337.25 Q533.3438,337.25 532.1406,336.625 Q531.1563,336.125 530.4688,335.0547 Q529.7813,333.9844 529.7813,332.7031 L529.7813,331.5469 Q529.7813,330.2188 530.3984,329.0703 Q531.0156,327.9219 532.1094,327.3047 Q533.2031,326.6875 534.4375,326.6875 Q535.1719,326.6875 535.8203,326.8516 Q536.4688,327.0156 537.0156,327.375 Z "/><text fill="#000000" font-family="sans-serif" font-size="12" lengthAdjust="spacingAndGlyphs" textLength="59" x="554.75" y="336.4102">ScooterDB</text><line style="stroke: #A80036; stroke-width: 1.5;" x1="462.5" x2="673.5" y1="347.5" y2="347.5"/><line style="stroke: #A80036; stroke-width: 1.5;" x1="462.5" x2="673.5" y1="355.5" y2="355.5"/><text fill="#000000" font-family="sans-serif" font-size="11" lengthAdjust="spacingAndGlyphs" textLength="201" x="467.5" y="370.9189">+List&lt;Scooter&gt; getAllScooters(pharEmail)</text><text fill="#000000" font-family="sans-serif" font-size="11" lengthAdjust="spacingAndGlyphs" textLength="113" x="467.5" y="384.7549">+getScooter(scooterID)</text><text fill="#000000" font-family="sans-serif" font-size="11" lengthAdjust="spacingAndGlyphs" textLength="90" x="467.5" y="398.5908">+update(scoooter)</text><!--class Scooter--><rect fill="#FEFECE" filter="url(#f1d3dvtssah7op)" height="158.6875" id="Scooter" style="stroke: #A80036; stroke-width: 1.5;" width="151" x="443.5" y="490"/><ellipse cx="493.75" cy="506" fill="#ADD1B2" rx="11" ry="11" style="stroke: #A80036; stroke-width: 1.0;"/><path d="M496.5156,501.875 Q496.6719,501.6563 496.8594,501.5469 Q497.0469,501.4375 497.2656,501.4375 Q497.6406,501.4375 497.875,501.6953 Q498.1094,501.9531 498.1094,502.5625 L498.1094,504.0156 Q498.1094,504.625 497.875,504.8906 Q497.6406,505.1563 497.2656,505.1563 Q496.9219,505.1563 496.7188,504.9531 Q496.5156,504.7656 496.4063,504.25 Q496.3594,503.8906 496.1719,503.7031 Q495.8438,503.3281 495.2344,503.1094 Q494.625,502.8906 494,502.8906 Q493.2344,502.8906 492.6016,503.2188 Q491.9688,503.5469 491.4766,504.2969 Q490.9844,505.0469 490.9844,506.0781 L490.9844,507.1719 Q490.9844,508.4063 491.875,509.2266 Q492.7656,510.0469 494.3594,510.0469 Q495.2969,510.0469 495.9531,509.7969 Q496.3438,509.6406 496.7656,509.2031 Q497.0313,508.9375 497.1797,508.8594 Q497.3281,508.7813 497.5313,508.7813 Q497.8594,508.7813 498.1172,509.0391 Q498.375,509.2969 498.375,509.6406 Q498.375,509.9844 498.0313,510.3906 Q497.5313,510.9688 496.7344,511.2969 Q495.6563,511.75 494.3594,511.75 Q492.8438,511.75 491.6406,511.125 Q490.6563,510.625 489.9688,509.5547 Q489.2813,508.4844 489.2813,507.2031 L489.2813,506.0469 Q489.2813,504.7188 489.8984,503.5703 Q490.5156,502.4219 491.6094,501.8047 Q492.7031,501.1875 493.9375,501.1875 Q494.6719,501.1875 495.3203,501.3516 Q495.9688,501.5156 496.5156,501.875 Z "/><text fill="#000000" font-family="sans-serif" font-size="12" lengthAdjust="spacingAndGlyphs" textLength="42" x="514.25" y="510.9102">Scooter</text><line style="stroke: #A80036; stroke-width: 1.5;" x1="444.5" x2="593.5" y1="522" y2="522"/><text fill="#000000" font-family="sans-serif" font-size="11" lengthAdjust="spacingAndGlyphs" textLength="43" x="449.5" y="537.4189">-String id</text><text fill="#000000" font-family="sans-serif" font-size="11" lengthAdjust="spacingAndGlyphs" textLength="81" x="449.5" y="551.2549">-Double capacity</text><text fill="#000000" font-family="sans-serif" font-size="11" lengthAdjust="spacingAndGlyphs" textLength="72" x="449.5" y="565.0908">-Double power</text><text fill="#000000" font-family="sans-serif" font-size="11" lengthAdjust="spacingAndGlyphs" textLength="92" x="449.5" y="578.9268">-Double maxPower</text><text fill="#000000" font-family="sans-serif" font-size="11" lengthAdjust="spacingAndGlyphs" textLength="74" x="449.5" y="592.7627">-Integer battery</text><line style="stroke: #A80036; stroke-width: 1.5;" x1="444.5" x2="593.5" y1="599.1797" y2="599.1797"/><text fill="#000000" font-family="sans-serif" font-size="11" lengthAdjust="spacingAndGlyphs" textLength="112" x="449.5" y="614.5986">+setCapacity(capacity)</text><text fill="#000000" font-family="sans-serif" font-size="11" lengthAdjust="spacingAndGlyphs" textLength="93" x="449.5" y="628.4346">+setPower(power)</text><text fill="#000000" font-family="sans-serif" font-size="11" lengthAdjust="spacingAndGlyphs" textLength="139" x="449.5" y="642.2705">+setMaxBattery(maxBattery)</text><!--class Pharmacy--><rect fill="#FEFECE" filter="url(#f1d3dvtssah7op)" height="103.3438" id="Pharmacy" style="stroke: #A80036; stroke-width: 1.5;" width="102" x="324" y="309"/><ellipse cx="345.75" cy="325" fill="#ADD1B2" rx="11" ry="11" style="stroke: #A80036; stroke-width: 1.0;"/><path d="M348.5156,320.875 Q348.6719,320.6563 348.8594,320.5469 Q349.0469,320.4375 349.2656,320.4375 Q349.6406,320.4375 349.875,320.6953 Q350.1094,320.9531 350.1094,321.5625 L350.1094,323.0156 Q350.1094,323.625 349.875,323.8906 Q349.6406,324.1563 349.2656,324.1563 Q348.9219,324.1563 348.7188,323.9531 Q348.5156,323.7656 348.4063,323.25 Q348.3594,322.8906 348.1719,322.7031 Q347.8438,322.3281 347.2344,322.1094 Q346.625,321.8906 346,321.8906 Q345.2344,321.8906 344.6016,322.2188 Q343.9688,322.5469 343.4766,323.2969 Q342.9844,324.0469 342.9844,325.0781 L342.9844,326.1719 Q342.9844,327.4063 343.875,328.2266 Q344.7656,329.0469 346.3594,329.0469 Q347.2969,329.0469 347.9531,328.7969 Q348.3438,328.6406 348.7656,328.2031 Q349.0313,327.9375 349.1797,327.8594 Q349.3281,327.7813 349.5313,327.7813 Q349.8594,327.7813 350.1172,328.0391 Q350.375,328.2969 350.375,328.6406 Q350.375,328.9844 350.0313,329.3906 Q349.5313,329.9688 348.7344,330.2969 Q347.6563,330.75 346.3594,330.75 Q344.8438,330.75 343.6406,330.125 Q342.6563,329.625 341.9688,328.5547 Q341.2813,327.4844 341.2813,326.2031 L341.2813,325.0469 Q341.2813,323.7188 341.8984,322.5703 Q342.5156,321.4219 343.6094,320.8047 Q344.7031,320.1875 345.9375,320.1875 Q346.6719,320.1875 347.3203,320.3516 Q347.9688,320.5156 348.5156,320.875 Z "/><text fill="#000000" font-family="sans-serif" font-size="12" lengthAdjust="spacingAndGlyphs" textLength="55" x="361.25" y="329.9102">Pharmacy</text><line style="stroke: #A80036; stroke-width: 1.5;" x1="325" x2="425" y1="341" y2="341"/><text fill="#000000" font-family="sans-serif" font-size="11" lengthAdjust="spacingAndGlyphs" textLength="90" x="330" y="356.4189">-String designation</text><text fill="#000000" font-family="sans-serif" font-size="11" lengthAdjust="spacingAndGlyphs" textLength="77" x="330" y="370.2549">-Adress adress</text><text fill="#000000" font-family="sans-serif" font-size="11" lengthAdjust="spacingAndGlyphs" textLength="81" x="330" y="384.0908">-Integer parkMax</text><line style="stroke: #A80036; stroke-width: 1.5;" x1="325" x2="425" y1="390.5078" y2="390.5078"/><text fill="#000000" font-family="sans-serif" font-size="11" lengthAdjust="spacingAndGlyphs" textLength="84" x="330" y="405.9268">+String getEmail()</text><!--class Administrator--><rect fill="#FEFECE" filter="url(#f1d3dvtssah7op)" height="61.8359" id="Administrator" style="stroke: #A80036; stroke-width: 1.5;" width="105" x="709.5" y="329.5"/><ellipse cx="724.5" cy="345.5" fill="#ADD1B2" rx="11" ry="11" style="stroke: #A80036; stroke-width: 1.0;"/><path d="M727.2656,341.375 Q727.4219,341.1563 727.6094,341.0469 Q727.7969,340.9375 728.0156,340.9375 Q728.3906,340.9375 728.625,341.1953 Q728.8594,341.4531 728.8594,342.0625 L728.8594,343.5156 Q728.8594,344.125 728.625,344.3906 Q728.3906,344.6563 728.0156,344.6563 Q727.6719,344.6563 727.4688,344.4531 Q727.2656,344.2656 727.1563,343.75 Q727.1094,343.3906 726.9219,343.2031 Q726.5938,342.8281 725.9844,342.6094 Q725.375,342.3906 724.75,342.3906 Q723.9844,342.3906 723.3516,342.7188 Q722.7188,343.0469 722.2266,343.7969 Q721.7344,344.5469 721.7344,345.5781 L721.7344,346.6719 Q721.7344,347.9063 722.625,348.7266 Q723.5156,349.5469 725.1094,349.5469 Q726.0469,349.5469 726.7031,349.2969 Q727.0938,349.1406 727.5156,348.7031 Q727.7813,348.4375 727.9297,348.3594 Q728.0781,348.2813 728.2813,348.2813 Q728.6094,348.2813 728.8672,348.5391 Q729.125,348.7969 729.125,349.1406 Q729.125,349.4844 728.7813,349.8906 Q728.2813,350.4688 727.4844,350.7969 Q726.4063,351.25 725.1094,351.25 Q723.5938,351.25 722.3906,350.625 Q721.4063,350.125 720.7188,349.0547 Q720.0313,347.9844 720.0313,346.7031 L720.0313,345.5469 Q720.0313,344.2188 720.6484,343.0703 Q721.2656,341.9219 722.3594,341.3047 Q723.4531,340.6875 724.6875,340.6875 Q725.4219,340.6875 726.0703,340.8516 Q726.7188,341.0156 727.2656,341.375 Z "/><text fill="#000000" font-family="sans-serif" font-size="12" lengthAdjust="spacingAndGlyphs" textLength="73" x="738.5" y="350.4102">Administrator</text><line style="stroke: #A80036; stroke-width: 1.5;" x1="710.5" x2="813.5" y1="361.5" y2="361.5"/><text fill="#000000" font-family="sans-serif" font-size="11" lengthAdjust="spacingAndGlyphs" textLength="59" x="715.5" y="376.9189">-String email</text><line style="stroke: #A80036; stroke-width: 1.5;" x1="710.5" x2="813.5" y1="383.3359" y2="383.3359"/><!--link UpdateScooterUI to UpdateScooterController--><path d="M271,56.203 C271,71.243 271,91.699 271,111.721 " fill="none" id="UpdateScooterUI-UpdateScooterController" style="stroke: #A80036; stroke-width: 1.0; stroke-dasharray: 7.0,7.0;"/><polygon fill="#A80036" points="271,116.798,275,107.798,271,111.798,267,107.798,271,116.798" style="stroke: #A80036; stroke-width: 1.0;"/><!--link UpdateScooterController to PharmacyDB--><path d="M212.697,248.037 C191.421,271.588 167.959,297.558 149.039,318.501 " fill="none" id="UpdateScooterController-PharmacyDB" style="stroke: #A80036; stroke-width: 1.0; stroke-dasharray: 7.0,7.0;"/><polygon fill="#A80036" points="145.56,322.351,154.5613,318.3538,148.9117,318.6407,148.6248,312.9911,145.56,322.351" style="stroke: #A80036; stroke-width: 1.0;"/><!--link UpdateScooterController to Scooter--><path d="M268.045,248.055 C268.73,296.448 276.062,362.568 306,412 C337.204,463.522 392.41,503.354 438.799,529.939 " fill="none" id="UpdateScooterController-Scooter" style="stroke: #A80036; stroke-width: 1.0; stroke-dasharray: 7.0,7.0;"/><polygon fill="#A80036" points="443.26,532.47,437.4079,524.5483,438.9118,530.0016,433.4585,531.5055,443.26,532.47" style="stroke: #A80036; stroke-width: 1.0;"/><!--link UpdateScooterController to Pharmacy--><path d="M309.135,248.037 C320.038,266.487 331.817,286.421 342.358,304.26 " fill="none" id="UpdateScooterController-Pharmacy" style="stroke: #A80036; stroke-width: 1.0; stroke-dasharray: 7.0,7.0;"/><polygon fill="#A80036" points="345.01,308.748,343.8761,298.9646,342.4668,304.4431,336.9883,303.0338,345.01,308.748" style="stroke: #A80036; stroke-width: 1.0;"/><!--link Administrator to Scooter--><path d="M726.666,391.6 C693.189,420.117 641.73,463.952 598.415,500.85 " fill="none" id="Administrator-Scooter" style="stroke: #A80036; stroke-width: 1.0;"/><polygon fill="#A80036" points="594.516,504.172,603.9612,501.3812,598.3223,500.9298,598.7737,495.291,594.516,504.172" style="stroke: #A80036; stroke-width: 1.0;"/><text fill="#000000" font-family="sans-serif" font-size="13" lengthAdjust="spacingAndGlyphs" textLength="109" x="663" y="456.4951">add/remove/update</text><text fill="#000000" font-family="sans-serif" font-size="13" lengthAdjust="spacingAndGlyphs" textLength="7" x="712.0206" y="412.8437">1</text><text fill="#000000" font-family="sans-serif" font-size="13" lengthAdjust="spacingAndGlyphs" textLength="5" x="602.5614" y="494.1394">*</text><!--link Pharmacy to Scooter--><path d="M410.226,412.138 C426.463,435.478 446.11,463.72 464.214,489.745 " fill="none" id="Pharmacy-Scooter" style="stroke: #A80036; stroke-width: 1.0;"/><text fill="#000000" font-family="sans-serif" font-size="13" lengthAdjust="spacingAndGlyphs" textLength="21" x="444" y="456.4951">has</text><polygon fill="#000000" points="450,465.3516,453,471.3516,456,465.3516,450,465.3516" style="stroke: #000000; stroke-width: 1.0;"/><text fill="#000000" font-family="sans-serif" font-size="13" lengthAdjust="spacingAndGlyphs" textLength="7" x="407.6875" y="434.0203">1</text><text fill="#000000" font-family="sans-serif" font-size="13" lengthAdjust="spacingAndGlyphs" textLength="5" x="453.9329" y="479.1808">*</text><!--link ScooterDB to Scooter--><path d="M557.548,405.653 C551.758,430.113 544.387,461.252 537.645,489.736 " fill="none" id="ScooterDB-Scooter" style="stroke: #A80036; stroke-width: 1.0;"/><text fill="#000000" font-family="sans-serif" font-size="13" lengthAdjust="spacingAndGlyphs" textLength="46" x="548" y="456.4951">updates</text><polygon fill="#000000" points="566.5,465.3516,569.5,471.3516,572.5,465.3516,566.5,465.3516" style="stroke: #000000; stroke-width: 1.0;"/><text fill="#000000" font-family="sans-serif" font-size="13" lengthAdjust="spacingAndGlyphs" textLength="7" x="548.6732" y="426.3472">1</text><text fill="#000000" font-family="sans-serif" font-size="13" lengthAdjust="spacingAndGlyphs" textLength="5" x="534.1334" y="479.171">*</text><!--
@startuml
skinparam classAttributeIconSize 0

class UpdateScooterUI {

}

class UpdateScooterController {
  +List<Pharmacy> getPharmaciesList()
  +getPharmacyByEmail(PharmacyEmail)
  +List<Scooter> getScootersList()
  +getScoooterByID(scooterID)
  +changeScooter(capacity,power,maxBattery)
  +updateScooter()
}

class PharmacyDB {
  +List<Pharmacy> getAllPharmacies()
  +Pharmacy getPharmacy(PharmacyEmail)
}

class ScooterDB {
  +List<Scooter> getAllScooters(pharEmail)
  +getScooter(scooterID)
  +update(scoooter)
}

class Scooter {
  -String id
  -Double capacity
  -Double power
  -Double maxPower
  -Integer battery
  +setCapacity(capacity)
  +setPower(power)
  +setMaxBattery(maxBattery)
}

class Pharmacy {
  -String designation
  -Adress adress
  -Integer parkMax
  +String getEmail()
}

class Administrator {
  -String email
}

UpdateScooterUI ..> UpdateScooterController
UpdateScooterController ..> PharmacyDB
UpdateScooterController ..> Scooter
UpdateScooterController ..> Pharmacy

Administrator "1" - -> "*" Scooter : add/remove/update

Pharmacy "1" - - "*" Scooter : has >

ScooterDB "1" - - "*" Scooter: updates >

@enduml

PlantUML version 1.2018.14(Fri Dec 21 16:33:16 GMT 2018)
(GPL source distribution)
Java Runtime: Java(TM) SE Runtime Environment
JVM: Java HotSpot(TM) 64-Bit Server VM
Java Version: 1.8.0_261-b12
Operating System: Windows 10
OS Version: 10.0
Default Encoding: Cp1252
Language: pt
Country: PT
--></g></svg>